%TF.GenerationSoftware,KiCad,Pcbnew,(6.0.7)*%
%TF.CreationDate,2022-12-11T16:29:18-06:00*%
%TF.ProjectId,BPS-Fan,4250532d-4661-46e2-9e6b-696361645f70,rev?*%
%TF.SameCoordinates,Original*%
%TF.FileFunction,Drillmap*%
%TF.FilePolarity,Positive*%
%FSLAX45Y45*%
G04 Gerber Fmt 4.5, Leading zero omitted, Abs format (unit mm)*
G04 Created by KiCad (PCBNEW (6.0.7)) date 2022-12-11 16:29:18*
%MOMM*%
%LPD*%
G01*
G04 APERTURE LIST*
%ADD10C,0.050000*%
%ADD11C,0.200000*%
%ADD12C,0.040000*%
%ADD13C,0.076200*%
%ADD14C,0.100000*%
%ADD15C,0.102000*%
%ADD16C,0.127000*%
%ADD17C,0.300000*%
G04 APERTURE END LIST*
D10*
X18266853Y-12278996D02*
G75*
G03*
X18577176Y-11984561I7948J302376D01*
G01*
X12847169Y-11984561D02*
G75*
G03*
X13157496Y-12279561I302671J7671D01*
G01*
X13140000Y-4070000D02*
G75*
G03*
X12850000Y-4390000I15000J-305000D01*
G01*
X18580000Y-4390000D02*
G75*
G03*
X18290000Y-4070000I-305000J15000D01*
G01*
X12847176Y-11984561D02*
X12850000Y-4390000D01*
X18266852Y-12279000D02*
X13157496Y-12279561D01*
X18580000Y-4390000D02*
X18577176Y-11984561D01*
X13140000Y-4070000D02*
X18290000Y-4070000D01*
D11*
D12*
X13575926Y-6384561D02*
X13615926Y-6424561D01*
X13615926Y-6384561D02*
X13575926Y-6424561D01*
X14948426Y-6382061D02*
X14988426Y-6422061D01*
X14988426Y-6382061D02*
X14948426Y-6422061D01*
X16298926Y-6379561D02*
X16338926Y-6419561D01*
X16338926Y-6379561D02*
X16298926Y-6419561D01*
X17080000Y-4630000D02*
X17120000Y-4670000D01*
X17120000Y-4630000D02*
X17080000Y-4670000D01*
X17766426Y-6377561D02*
X17806426Y-6417561D01*
X17806426Y-6377561D02*
X17766426Y-6417561D01*
D13*
X14010276Y-7257061D02*
G75*
G03*
X14010276Y-7257061I-38100J0D01*
G01*
X15408100Y-7260000D02*
G75*
G03*
X15408100Y-7260000I-38100J0D01*
G01*
X16745276Y-7257061D02*
G75*
G03*
X16745276Y-7257061I-38100J0D01*
G01*
X18207776Y-7258000D02*
G75*
G03*
X18207776Y-7258000I-38100J0D01*
G01*
D14*
X15380000Y-4930000D02*
X15380000Y-5030000D01*
X15330000Y-4980000D02*
X15430000Y-4980000D01*
X15380000Y-5230000D02*
X15380000Y-5330000D01*
X15330000Y-5280000D02*
X15430000Y-5280000D01*
X15680000Y-4930000D02*
X15680000Y-5030000D01*
X15630000Y-4980000D02*
X15730000Y-4980000D01*
X15680000Y-5230000D02*
X15680000Y-5330000D01*
X15630000Y-5280000D02*
X15730000Y-5280000D01*
X15980000Y-4930000D02*
X15980000Y-5030000D01*
X15930000Y-4980000D02*
X16030000Y-4980000D01*
X15980000Y-5230000D02*
X15980000Y-5330000D01*
X15930000Y-5280000D02*
X16030000Y-5280000D01*
D15*
X13533239Y-9590588D02*
X13533239Y-9518462D01*
X13461113Y-9518462D01*
X13461113Y-9590588D01*
X13533239Y-9590588D01*
X13533239Y-11265530D02*
X13533239Y-11193404D01*
X13461113Y-11193404D01*
X13461113Y-11265530D01*
X13533239Y-11265530D01*
X13536063Y-7916124D02*
X13536063Y-7843998D01*
X13463937Y-7843998D01*
X13463937Y-7916124D01*
X13536063Y-7916124D01*
X13833239Y-9590588D02*
X13833239Y-9518462D01*
X13761113Y-9518462D01*
X13761113Y-9590588D01*
X13833239Y-9590588D01*
X13833239Y-11265530D02*
X13833239Y-11193404D01*
X13761113Y-11193404D01*
X13761113Y-11265530D01*
X13833239Y-11265530D01*
X13836063Y-7916124D02*
X13836063Y-7843998D01*
X13763937Y-7843998D01*
X13763937Y-7916124D01*
X13836063Y-7916124D01*
X14933239Y-9590588D02*
X14933239Y-9518462D01*
X14861113Y-9518462D01*
X14861113Y-9590588D01*
X14933239Y-9590588D01*
X14933239Y-11265530D02*
X14933239Y-11193404D01*
X14861113Y-11193404D01*
X14861113Y-11265530D01*
X14933239Y-11265530D01*
X14936063Y-7916124D02*
X14936063Y-7843998D01*
X14863937Y-7843998D01*
X14863937Y-7916124D01*
X14936063Y-7916124D01*
X15233239Y-9590588D02*
X15233239Y-9518462D01*
X15161113Y-9518462D01*
X15161113Y-9590588D01*
X15233239Y-9590588D01*
X15233239Y-11265530D02*
X15233239Y-11193404D01*
X15161113Y-11193404D01*
X15161113Y-11265530D01*
X15233239Y-11265530D01*
X15236063Y-7916124D02*
X15236063Y-7843998D01*
X15163937Y-7843998D01*
X15163937Y-7916124D01*
X15236063Y-7916124D01*
X16333239Y-9590588D02*
X16333239Y-9518462D01*
X16261113Y-9518462D01*
X16261113Y-9590588D01*
X16333239Y-9590588D01*
X16333239Y-11265530D02*
X16333239Y-11193404D01*
X16261113Y-11193404D01*
X16261113Y-11265530D01*
X16333239Y-11265530D01*
X16336063Y-7916124D02*
X16336063Y-7843998D01*
X16263937Y-7843998D01*
X16263937Y-7916124D01*
X16336063Y-7916124D01*
X16633239Y-9590588D02*
X16633239Y-9518462D01*
X16561113Y-9518462D01*
X16561113Y-9590588D01*
X16633239Y-9590588D01*
X16633239Y-11265530D02*
X16633239Y-11193404D01*
X16561113Y-11193404D01*
X16561113Y-11265530D01*
X16633239Y-11265530D01*
X16636063Y-7916124D02*
X16636063Y-7843998D01*
X16563937Y-7843998D01*
X16563937Y-7916124D01*
X16636063Y-7916124D01*
X17733239Y-9590588D02*
X17733239Y-9518462D01*
X17661113Y-9518462D01*
X17661113Y-9590588D01*
X17733239Y-9590588D01*
X17733239Y-11265530D02*
X17733239Y-11193404D01*
X17661113Y-11193404D01*
X17661113Y-11265530D01*
X17733239Y-11265530D01*
X17736063Y-7916124D02*
X17736063Y-7843998D01*
X17663937Y-7843998D01*
X17663937Y-7916124D01*
X17736063Y-7916124D01*
X18033239Y-9590588D02*
X18033239Y-9518462D01*
X17961113Y-9518462D01*
X17961113Y-9590588D01*
X18033239Y-9590588D01*
X18033239Y-11265530D02*
X18033239Y-11193404D01*
X17961113Y-11193404D01*
X17961113Y-11265530D01*
X18033239Y-11265530D01*
X18036063Y-7916124D02*
X18036063Y-7843998D01*
X17963937Y-7843998D01*
X17963937Y-7916124D01*
X18036063Y-7916124D01*
D14*
X15080000Y-4936000D02*
X15130000Y-4886000D01*
X15080000Y-4836000D01*
X15030000Y-4886000D01*
X15080000Y-4936000D01*
X16280000Y-4936000D02*
X16330000Y-4886000D01*
X16280000Y-4836000D01*
X16230000Y-4886000D01*
X16280000Y-4936000D01*
D16*
X13133676Y-9687025D02*
X13260676Y-9814025D01*
X13260676Y-9687025D02*
X13133676Y-9814025D01*
X13260676Y-9750525D02*
G75*
G03*
X13260676Y-9750525I-63500J0D01*
G01*
X13133676Y-11361967D02*
X13260676Y-11488967D01*
X13260676Y-11361967D02*
X13133676Y-11488967D01*
X13260676Y-11425467D02*
G75*
G03*
X13260676Y-11425467I-63500J0D01*
G01*
X13136500Y-8012561D02*
X13263500Y-8139561D01*
X13263500Y-8012561D02*
X13136500Y-8139561D01*
X13263500Y-8076061D02*
G75*
G03*
X13263500Y-8076061I-63500J0D01*
G01*
X14033676Y-9687025D02*
X14160676Y-9814025D01*
X14160676Y-9687025D02*
X14033676Y-9814025D01*
X14160676Y-9750525D02*
G75*
G03*
X14160676Y-9750525I-63500J0D01*
G01*
X14033676Y-11361967D02*
X14160676Y-11488967D01*
X14160676Y-11361967D02*
X14033676Y-11488967D01*
X14160676Y-11425467D02*
G75*
G03*
X14160676Y-11425467I-63500J0D01*
G01*
X14036500Y-8012561D02*
X14163500Y-8139561D01*
X14163500Y-8012561D02*
X14036500Y-8139561D01*
X14163500Y-8076061D02*
G75*
G03*
X14163500Y-8076061I-63500J0D01*
G01*
X14533676Y-9687025D02*
X14660676Y-9814025D01*
X14660676Y-9687025D02*
X14533676Y-9814025D01*
X14660676Y-9750525D02*
G75*
G03*
X14660676Y-9750525I-63500J0D01*
G01*
X14533676Y-11361967D02*
X14660676Y-11488967D01*
X14660676Y-11361967D02*
X14533676Y-11488967D01*
X14660676Y-11425467D02*
G75*
G03*
X14660676Y-11425467I-63500J0D01*
G01*
X14536500Y-8012561D02*
X14663500Y-8139561D01*
X14663500Y-8012561D02*
X14536500Y-8139561D01*
X14663500Y-8076061D02*
G75*
G03*
X14663500Y-8076061I-63500J0D01*
G01*
X15433676Y-9687025D02*
X15560676Y-9814025D01*
X15560676Y-9687025D02*
X15433676Y-9814025D01*
X15560676Y-9750525D02*
G75*
G03*
X15560676Y-9750525I-63500J0D01*
G01*
X15433676Y-11361967D02*
X15560676Y-11488967D01*
X15560676Y-11361967D02*
X15433676Y-11488967D01*
X15560676Y-11425467D02*
G75*
G03*
X15560676Y-11425467I-63500J0D01*
G01*
X15436500Y-8012561D02*
X15563500Y-8139561D01*
X15563500Y-8012561D02*
X15436500Y-8139561D01*
X15563500Y-8076061D02*
G75*
G03*
X15563500Y-8076061I-63500J0D01*
G01*
X15933676Y-9687025D02*
X16060676Y-9814025D01*
X16060676Y-9687025D02*
X15933676Y-9814025D01*
X16060676Y-9750525D02*
G75*
G03*
X16060676Y-9750525I-63500J0D01*
G01*
X15933676Y-11361967D02*
X16060676Y-11488967D01*
X16060676Y-11361967D02*
X15933676Y-11488967D01*
X16060676Y-11425467D02*
G75*
G03*
X16060676Y-11425467I-63500J0D01*
G01*
X15936500Y-8012561D02*
X16063500Y-8139561D01*
X16063500Y-8012561D02*
X15936500Y-8139561D01*
X16063500Y-8076061D02*
G75*
G03*
X16063500Y-8076061I-63500J0D01*
G01*
X16833676Y-9687025D02*
X16960676Y-9814025D01*
X16960676Y-9687025D02*
X16833676Y-9814025D01*
X16960676Y-9750525D02*
G75*
G03*
X16960676Y-9750525I-63500J0D01*
G01*
X16833676Y-11361967D02*
X16960676Y-11488967D01*
X16960676Y-11361967D02*
X16833676Y-11488967D01*
X16960676Y-11425467D02*
G75*
G03*
X16960676Y-11425467I-63500J0D01*
G01*
X16836500Y-8012561D02*
X16963500Y-8139561D01*
X16963500Y-8012561D02*
X16836500Y-8139561D01*
X16963500Y-8076061D02*
G75*
G03*
X16963500Y-8076061I-63500J0D01*
G01*
X17333676Y-9687025D02*
X17460676Y-9814025D01*
X17460676Y-9687025D02*
X17333676Y-9814025D01*
X17460676Y-9750525D02*
G75*
G03*
X17460676Y-9750525I-63500J0D01*
G01*
X17333676Y-11361967D02*
X17460676Y-11488967D01*
X17460676Y-11361967D02*
X17333676Y-11488967D01*
X17460676Y-11425467D02*
G75*
G03*
X17460676Y-11425467I-63500J0D01*
G01*
X17336500Y-8012561D02*
X17463500Y-8139561D01*
X17463500Y-8012561D02*
X17336500Y-8139561D01*
X17463500Y-8076061D02*
G75*
G03*
X17463500Y-8076061I-63500J0D01*
G01*
X18233676Y-9687025D02*
X18360676Y-9814025D01*
X18360676Y-9687025D02*
X18233676Y-9814025D01*
X18360676Y-9750525D02*
G75*
G03*
X18360676Y-9750525I-63500J0D01*
G01*
X18233676Y-11361967D02*
X18360676Y-11488967D01*
X18360676Y-11361967D02*
X18233676Y-11488967D01*
X18360676Y-11425467D02*
G75*
G03*
X18360676Y-11425467I-63500J0D01*
G01*
X18236500Y-8012561D02*
X18363500Y-8139561D01*
X18363500Y-8012561D02*
X18236500Y-8139561D01*
X18363500Y-8076061D02*
G75*
G03*
X18363500Y-8076061I-63500J0D01*
G01*
D17*
X13004352Y-11824561D02*
X13304352Y-12124561D01*
X13304352Y-11824561D02*
X13004352Y-12124561D01*
X13154352Y-11824561D02*
X13154352Y-12124561D01*
X13004352Y-11974561D02*
X13304352Y-11974561D01*
X13007176Y-4224561D02*
X13307176Y-4524561D01*
X13307176Y-4224561D02*
X13007176Y-4524561D01*
X13157176Y-4224561D02*
X13157176Y-4524561D01*
X13007176Y-4374561D02*
X13307176Y-4374561D01*
X18119352Y-11824561D02*
X18419352Y-12124561D01*
X18419352Y-11824561D02*
X18119352Y-12124561D01*
X18269352Y-11824561D02*
X18269352Y-12124561D01*
X18119352Y-11974561D02*
X18419352Y-11974561D01*
X18122176Y-4224561D02*
X18422176Y-4524561D01*
X18422176Y-4224561D02*
X18122176Y-4524561D01*
X18272176Y-4224561D02*
X18272176Y-4524561D01*
X18122176Y-4374561D02*
X18422176Y-4374561D01*
D11*
X13102295Y-12592634D02*
X13102295Y-12392634D01*
X13149914Y-12392634D01*
X13178486Y-12402158D01*
X13197533Y-12421205D01*
X13207057Y-12440253D01*
X13216581Y-12478348D01*
X13216581Y-12506920D01*
X13207057Y-12545015D01*
X13197533Y-12564062D01*
X13178486Y-12583110D01*
X13149914Y-12592634D01*
X13102295Y-12592634D01*
X13302295Y-12592634D02*
X13302295Y-12459301D01*
X13302295Y-12497396D02*
X13311819Y-12478348D01*
X13321343Y-12468824D01*
X13340390Y-12459301D01*
X13359438Y-12459301D01*
X13426105Y-12592634D02*
X13426105Y-12459301D01*
X13426105Y-12392634D02*
X13416581Y-12402158D01*
X13426105Y-12411682D01*
X13435628Y-12402158D01*
X13426105Y-12392634D01*
X13426105Y-12411682D01*
X13549914Y-12592634D02*
X13530867Y-12583110D01*
X13521343Y-12564062D01*
X13521343Y-12392634D01*
X13654676Y-12592634D02*
X13635628Y-12583110D01*
X13626105Y-12564062D01*
X13626105Y-12392634D01*
X13883248Y-12592634D02*
X13883248Y-12392634D01*
X13949914Y-12535491D01*
X14016581Y-12392634D01*
X14016581Y-12592634D01*
X14197533Y-12592634D02*
X14197533Y-12487872D01*
X14188009Y-12468824D01*
X14168962Y-12459301D01*
X14130867Y-12459301D01*
X14111819Y-12468824D01*
X14197533Y-12583110D02*
X14178486Y-12592634D01*
X14130867Y-12592634D01*
X14111819Y-12583110D01*
X14102295Y-12564062D01*
X14102295Y-12545015D01*
X14111819Y-12525967D01*
X14130867Y-12516443D01*
X14178486Y-12516443D01*
X14197533Y-12506920D01*
X14292771Y-12459301D02*
X14292771Y-12659301D01*
X14292771Y-12468824D02*
X14311819Y-12459301D01*
X14349914Y-12459301D01*
X14368962Y-12468824D01*
X14378486Y-12478348D01*
X14388009Y-12497396D01*
X14388009Y-12554539D01*
X14378486Y-12573586D01*
X14368962Y-12583110D01*
X14349914Y-12592634D01*
X14311819Y-12592634D01*
X14292771Y-12583110D01*
X14473724Y-12573586D02*
X14483248Y-12583110D01*
X14473724Y-12592634D01*
X14464200Y-12583110D01*
X14473724Y-12573586D01*
X14473724Y-12592634D01*
X14473724Y-12468824D02*
X14483248Y-12478348D01*
X14473724Y-12487872D01*
X14464200Y-12478348D01*
X14473724Y-12468824D01*
X14473724Y-12487872D01*
D12*
X12804676Y-12902158D02*
X12844676Y-12942158D01*
X12844676Y-12902158D02*
X12804676Y-12942158D01*
D11*
X13140390Y-12812634D02*
X13159438Y-12812634D01*
X13178486Y-12822158D01*
X13188009Y-12831682D01*
X13197533Y-12850729D01*
X13207057Y-12888824D01*
X13207057Y-12936443D01*
X13197533Y-12974539D01*
X13188009Y-12993586D01*
X13178486Y-13003110D01*
X13159438Y-13012634D01*
X13140390Y-13012634D01*
X13121343Y-13003110D01*
X13111819Y-12993586D01*
X13102295Y-12974539D01*
X13092771Y-12936443D01*
X13092771Y-12888824D01*
X13102295Y-12850729D01*
X13111819Y-12831682D01*
X13121343Y-12822158D01*
X13140390Y-12812634D01*
X13292771Y-12993586D02*
X13302295Y-13003110D01*
X13292771Y-13012634D01*
X13283248Y-13003110D01*
X13292771Y-12993586D01*
X13292771Y-13012634D01*
X13473724Y-12879301D02*
X13473724Y-13012634D01*
X13426105Y-12803110D02*
X13378486Y-12945967D01*
X13502295Y-12945967D01*
X13616581Y-12812634D02*
X13635628Y-12812634D01*
X13654676Y-12822158D01*
X13664200Y-12831682D01*
X13673724Y-12850729D01*
X13683248Y-12888824D01*
X13683248Y-12936443D01*
X13673724Y-12974539D01*
X13664200Y-12993586D01*
X13654676Y-13003110D01*
X13635628Y-13012634D01*
X13616581Y-13012634D01*
X13597533Y-13003110D01*
X13588009Y-12993586D01*
X13578486Y-12974539D01*
X13568962Y-12936443D01*
X13568962Y-12888824D01*
X13578486Y-12850729D01*
X13588009Y-12831682D01*
X13597533Y-12822158D01*
X13616581Y-12812634D01*
X13807057Y-12812634D02*
X13826105Y-12812634D01*
X13845152Y-12822158D01*
X13854676Y-12831682D01*
X13864200Y-12850729D01*
X13873724Y-12888824D01*
X13873724Y-12936443D01*
X13864200Y-12974539D01*
X13854676Y-12993586D01*
X13845152Y-13003110D01*
X13826105Y-13012634D01*
X13807057Y-13012634D01*
X13788009Y-13003110D01*
X13778486Y-12993586D01*
X13768962Y-12974539D01*
X13759438Y-12936443D01*
X13759438Y-12888824D01*
X13768962Y-12850729D01*
X13778486Y-12831682D01*
X13788009Y-12822158D01*
X13807057Y-12812634D01*
X13959438Y-13012634D02*
X13959438Y-12879301D01*
X13959438Y-12898348D02*
X13968962Y-12888824D01*
X13988009Y-12879301D01*
X14016581Y-12879301D01*
X14035628Y-12888824D01*
X14045152Y-12907872D01*
X14045152Y-13012634D01*
X14045152Y-12907872D02*
X14054676Y-12888824D01*
X14073724Y-12879301D01*
X14102295Y-12879301D01*
X14121343Y-12888824D01*
X14130867Y-12907872D01*
X14130867Y-13012634D01*
X14226105Y-13012634D02*
X14226105Y-12879301D01*
X14226105Y-12898348D02*
X14235628Y-12888824D01*
X14254676Y-12879301D01*
X14283248Y-12879301D01*
X14302295Y-12888824D01*
X14311819Y-12907872D01*
X14311819Y-13012634D01*
X14311819Y-12907872D02*
X14321343Y-12888824D01*
X14340390Y-12879301D01*
X14368962Y-12879301D01*
X14388009Y-12888824D01*
X14397533Y-12907872D01*
X14397533Y-13012634D01*
X14788009Y-12803110D02*
X14616581Y-13060253D01*
X15045152Y-12812634D02*
X15064200Y-12812634D01*
X15083248Y-12822158D01*
X15092771Y-12831682D01*
X15102295Y-12850729D01*
X15111819Y-12888824D01*
X15111819Y-12936443D01*
X15102295Y-12974539D01*
X15092771Y-12993586D01*
X15083248Y-13003110D01*
X15064200Y-13012634D01*
X15045152Y-13012634D01*
X15026105Y-13003110D01*
X15016581Y-12993586D01*
X15007057Y-12974539D01*
X14997533Y-12936443D01*
X14997533Y-12888824D01*
X15007057Y-12850729D01*
X15016581Y-12831682D01*
X15026105Y-12822158D01*
X15045152Y-12812634D01*
X15197533Y-12993586D02*
X15207057Y-13003110D01*
X15197533Y-13012634D01*
X15188009Y-13003110D01*
X15197533Y-12993586D01*
X15197533Y-13012634D01*
X15330867Y-12812634D02*
X15349914Y-12812634D01*
X15368962Y-12822158D01*
X15378486Y-12831682D01*
X15388009Y-12850729D01*
X15397533Y-12888824D01*
X15397533Y-12936443D01*
X15388009Y-12974539D01*
X15378486Y-12993586D01*
X15368962Y-13003110D01*
X15349914Y-13012634D01*
X15330867Y-13012634D01*
X15311819Y-13003110D01*
X15302295Y-12993586D01*
X15292771Y-12974539D01*
X15283248Y-12936443D01*
X15283248Y-12888824D01*
X15292771Y-12850729D01*
X15302295Y-12831682D01*
X15311819Y-12822158D01*
X15330867Y-12812634D01*
X15588009Y-13012634D02*
X15473724Y-13012634D01*
X15530867Y-13012634D02*
X15530867Y-12812634D01*
X15511819Y-12841205D01*
X15492771Y-12860253D01*
X15473724Y-12869777D01*
X15768962Y-12812634D02*
X15673724Y-12812634D01*
X15664200Y-12907872D01*
X15673724Y-12898348D01*
X15692771Y-12888824D01*
X15740390Y-12888824D01*
X15759438Y-12898348D01*
X15768962Y-12907872D01*
X15778486Y-12926920D01*
X15778486Y-12974539D01*
X15768962Y-12993586D01*
X15759438Y-13003110D01*
X15740390Y-13012634D01*
X15692771Y-13012634D01*
X15673724Y-13003110D01*
X15664200Y-12993586D01*
X15845152Y-12812634D02*
X15978486Y-12812634D01*
X15892771Y-13012634D01*
X16045152Y-12812634D02*
X16045152Y-12850729D01*
X16121343Y-12812634D02*
X16121343Y-12850729D01*
X16416581Y-13088824D02*
X16407057Y-13079301D01*
X16388009Y-13050729D01*
X16378486Y-13031682D01*
X16368962Y-13003110D01*
X16359438Y-12955491D01*
X16359438Y-12917396D01*
X16368962Y-12869777D01*
X16378486Y-12841205D01*
X16388009Y-12822158D01*
X16407057Y-12793586D01*
X16416581Y-12784062D01*
X16588009Y-12812634D02*
X16492771Y-12812634D01*
X16483248Y-12907872D01*
X16492771Y-12898348D01*
X16511819Y-12888824D01*
X16559438Y-12888824D01*
X16578486Y-12898348D01*
X16588009Y-12907872D01*
X16597533Y-12926920D01*
X16597533Y-12974539D01*
X16588009Y-12993586D01*
X16578486Y-13003110D01*
X16559438Y-13012634D01*
X16511819Y-13012634D01*
X16492771Y-13003110D01*
X16483248Y-12993586D01*
X16835629Y-13012634D02*
X16835629Y-12812634D01*
X16921343Y-13012634D02*
X16921343Y-12907872D01*
X16911819Y-12888824D01*
X16892771Y-12879301D01*
X16864200Y-12879301D01*
X16845152Y-12888824D01*
X16835629Y-12898348D01*
X17045152Y-13012634D02*
X17026105Y-13003110D01*
X17016581Y-12993586D01*
X17007057Y-12974539D01*
X17007057Y-12917396D01*
X17016581Y-12898348D01*
X17026105Y-12888824D01*
X17045152Y-12879301D01*
X17073724Y-12879301D01*
X17092771Y-12888824D01*
X17102295Y-12898348D01*
X17111819Y-12917396D01*
X17111819Y-12974539D01*
X17102295Y-12993586D01*
X17092771Y-13003110D01*
X17073724Y-13012634D01*
X17045152Y-13012634D01*
X17226105Y-13012634D02*
X17207057Y-13003110D01*
X17197533Y-12984062D01*
X17197533Y-12812634D01*
X17378486Y-13003110D02*
X17359438Y-13012634D01*
X17321343Y-13012634D01*
X17302295Y-13003110D01*
X17292771Y-12984062D01*
X17292771Y-12907872D01*
X17302295Y-12888824D01*
X17321343Y-12879301D01*
X17359438Y-12879301D01*
X17378486Y-12888824D01*
X17388010Y-12907872D01*
X17388010Y-12926920D01*
X17292771Y-12945967D01*
X17464200Y-13003110D02*
X17483248Y-13012634D01*
X17521343Y-13012634D01*
X17540390Y-13003110D01*
X17549914Y-12984062D01*
X17549914Y-12974539D01*
X17540390Y-12955491D01*
X17521343Y-12945967D01*
X17492771Y-12945967D01*
X17473724Y-12936443D01*
X17464200Y-12917396D01*
X17464200Y-12907872D01*
X17473724Y-12888824D01*
X17492771Y-12879301D01*
X17521343Y-12879301D01*
X17540390Y-12888824D01*
X17616581Y-13088824D02*
X17626105Y-13079301D01*
X17645152Y-13050729D01*
X17654676Y-13031682D01*
X17664200Y-13003110D01*
X17673724Y-12955491D01*
X17673724Y-12917396D01*
X17664200Y-12869777D01*
X17654676Y-12841205D01*
X17645152Y-12822158D01*
X17626105Y-12793586D01*
X17616581Y-12784062D01*
D13*
X12844676Y-13186158D02*
G75*
G03*
X12844676Y-13186158I-38100J0D01*
G01*
D11*
X13140390Y-13076634D02*
X13159438Y-13076634D01*
X13178486Y-13086158D01*
X13188009Y-13095682D01*
X13197533Y-13114729D01*
X13207057Y-13152824D01*
X13207057Y-13200443D01*
X13197533Y-13238539D01*
X13188009Y-13257586D01*
X13178486Y-13267110D01*
X13159438Y-13276634D01*
X13140390Y-13276634D01*
X13121343Y-13267110D01*
X13111819Y-13257586D01*
X13102295Y-13238539D01*
X13092771Y-13200443D01*
X13092771Y-13152824D01*
X13102295Y-13114729D01*
X13111819Y-13095682D01*
X13121343Y-13086158D01*
X13140390Y-13076634D01*
X13292771Y-13257586D02*
X13302295Y-13267110D01*
X13292771Y-13276634D01*
X13283248Y-13267110D01*
X13292771Y-13257586D01*
X13292771Y-13276634D01*
X13368962Y-13076634D02*
X13502295Y-13076634D01*
X13416581Y-13276634D01*
X13664200Y-13076634D02*
X13626105Y-13076634D01*
X13607057Y-13086158D01*
X13597533Y-13095682D01*
X13578486Y-13124253D01*
X13568962Y-13162348D01*
X13568962Y-13238539D01*
X13578486Y-13257586D01*
X13588009Y-13267110D01*
X13607057Y-13276634D01*
X13645152Y-13276634D01*
X13664200Y-13267110D01*
X13673724Y-13257586D01*
X13683248Y-13238539D01*
X13683248Y-13190920D01*
X13673724Y-13171872D01*
X13664200Y-13162348D01*
X13645152Y-13152824D01*
X13607057Y-13152824D01*
X13588009Y-13162348D01*
X13578486Y-13171872D01*
X13568962Y-13190920D01*
X13759438Y-13095682D02*
X13768962Y-13086158D01*
X13788009Y-13076634D01*
X13835628Y-13076634D01*
X13854676Y-13086158D01*
X13864200Y-13095682D01*
X13873724Y-13114729D01*
X13873724Y-13133777D01*
X13864200Y-13162348D01*
X13749914Y-13276634D01*
X13873724Y-13276634D01*
X13959438Y-13276634D02*
X13959438Y-13143301D01*
X13959438Y-13162348D02*
X13968962Y-13152824D01*
X13988009Y-13143301D01*
X14016581Y-13143301D01*
X14035628Y-13152824D01*
X14045152Y-13171872D01*
X14045152Y-13276634D01*
X14045152Y-13171872D02*
X14054676Y-13152824D01*
X14073724Y-13143301D01*
X14102295Y-13143301D01*
X14121343Y-13152824D01*
X14130867Y-13171872D01*
X14130867Y-13276634D01*
X14226105Y-13276634D02*
X14226105Y-13143301D01*
X14226105Y-13162348D02*
X14235628Y-13152824D01*
X14254676Y-13143301D01*
X14283248Y-13143301D01*
X14302295Y-13152824D01*
X14311819Y-13171872D01*
X14311819Y-13276634D01*
X14311819Y-13171872D02*
X14321343Y-13152824D01*
X14340390Y-13143301D01*
X14368962Y-13143301D01*
X14388009Y-13152824D01*
X14397533Y-13171872D01*
X14397533Y-13276634D01*
X14788009Y-13067110D02*
X14616581Y-13324253D01*
X15045152Y-13076634D02*
X15064200Y-13076634D01*
X15083248Y-13086158D01*
X15092771Y-13095682D01*
X15102295Y-13114729D01*
X15111819Y-13152824D01*
X15111819Y-13200443D01*
X15102295Y-13238539D01*
X15092771Y-13257586D01*
X15083248Y-13267110D01*
X15064200Y-13276634D01*
X15045152Y-13276634D01*
X15026105Y-13267110D01*
X15016581Y-13257586D01*
X15007057Y-13238539D01*
X14997533Y-13200443D01*
X14997533Y-13152824D01*
X15007057Y-13114729D01*
X15016581Y-13095682D01*
X15026105Y-13086158D01*
X15045152Y-13076634D01*
X15197533Y-13257586D02*
X15207057Y-13267110D01*
X15197533Y-13276634D01*
X15188009Y-13267110D01*
X15197533Y-13257586D01*
X15197533Y-13276634D01*
X15330867Y-13076634D02*
X15349914Y-13076634D01*
X15368962Y-13086158D01*
X15378486Y-13095682D01*
X15388009Y-13114729D01*
X15397533Y-13152824D01*
X15397533Y-13200443D01*
X15388009Y-13238539D01*
X15378486Y-13257586D01*
X15368962Y-13267110D01*
X15349914Y-13276634D01*
X15330867Y-13276634D01*
X15311819Y-13267110D01*
X15302295Y-13257586D01*
X15292771Y-13238539D01*
X15283248Y-13200443D01*
X15283248Y-13152824D01*
X15292771Y-13114729D01*
X15302295Y-13095682D01*
X15311819Y-13086158D01*
X15330867Y-13076634D01*
X15464200Y-13076634D02*
X15588009Y-13076634D01*
X15521343Y-13152824D01*
X15549914Y-13152824D01*
X15568962Y-13162348D01*
X15578486Y-13171872D01*
X15588009Y-13190920D01*
X15588009Y-13238539D01*
X15578486Y-13257586D01*
X15568962Y-13267110D01*
X15549914Y-13276634D01*
X15492771Y-13276634D01*
X15473724Y-13267110D01*
X15464200Y-13257586D01*
X15711819Y-13076634D02*
X15730867Y-13076634D01*
X15749914Y-13086158D01*
X15759438Y-13095682D01*
X15768962Y-13114729D01*
X15778486Y-13152824D01*
X15778486Y-13200443D01*
X15768962Y-13238539D01*
X15759438Y-13257586D01*
X15749914Y-13267110D01*
X15730867Y-13276634D01*
X15711819Y-13276634D01*
X15692771Y-13267110D01*
X15683248Y-13257586D01*
X15673724Y-13238539D01*
X15664200Y-13200443D01*
X15664200Y-13152824D01*
X15673724Y-13114729D01*
X15683248Y-13095682D01*
X15692771Y-13086158D01*
X15711819Y-13076634D01*
X15902295Y-13076634D02*
X15921343Y-13076634D01*
X15940390Y-13086158D01*
X15949914Y-13095682D01*
X15959438Y-13114729D01*
X15968962Y-13152824D01*
X15968962Y-13200443D01*
X15959438Y-13238539D01*
X15949914Y-13257586D01*
X15940390Y-13267110D01*
X15921343Y-13276634D01*
X15902295Y-13276634D01*
X15883248Y-13267110D01*
X15873724Y-13257586D01*
X15864200Y-13238539D01*
X15854676Y-13200443D01*
X15854676Y-13152824D01*
X15864200Y-13114729D01*
X15873724Y-13095682D01*
X15883248Y-13086158D01*
X15902295Y-13076634D01*
X16045152Y-13076634D02*
X16045152Y-13114729D01*
X16121343Y-13076634D02*
X16121343Y-13114729D01*
X16416581Y-13352824D02*
X16407057Y-13343301D01*
X16388009Y-13314729D01*
X16378486Y-13295682D01*
X16368962Y-13267110D01*
X16359438Y-13219491D01*
X16359438Y-13181396D01*
X16368962Y-13133777D01*
X16378486Y-13105205D01*
X16388009Y-13086158D01*
X16407057Y-13057586D01*
X16416581Y-13048062D01*
X16578486Y-13143301D02*
X16578486Y-13276634D01*
X16530867Y-13067110D02*
X16483248Y-13209967D01*
X16607057Y-13209967D01*
X16835629Y-13276634D02*
X16835629Y-13076634D01*
X16921343Y-13276634D02*
X16921343Y-13171872D01*
X16911819Y-13152824D01*
X16892771Y-13143301D01*
X16864200Y-13143301D01*
X16845152Y-13152824D01*
X16835629Y-13162348D01*
X17045152Y-13276634D02*
X17026105Y-13267110D01*
X17016581Y-13257586D01*
X17007057Y-13238539D01*
X17007057Y-13181396D01*
X17016581Y-13162348D01*
X17026105Y-13152824D01*
X17045152Y-13143301D01*
X17073724Y-13143301D01*
X17092771Y-13152824D01*
X17102295Y-13162348D01*
X17111819Y-13181396D01*
X17111819Y-13238539D01*
X17102295Y-13257586D01*
X17092771Y-13267110D01*
X17073724Y-13276634D01*
X17045152Y-13276634D01*
X17226105Y-13276634D02*
X17207057Y-13267110D01*
X17197533Y-13248062D01*
X17197533Y-13076634D01*
X17378486Y-13267110D02*
X17359438Y-13276634D01*
X17321343Y-13276634D01*
X17302295Y-13267110D01*
X17292771Y-13248062D01*
X17292771Y-13171872D01*
X17302295Y-13152824D01*
X17321343Y-13143301D01*
X17359438Y-13143301D01*
X17378486Y-13152824D01*
X17388010Y-13171872D01*
X17388010Y-13190920D01*
X17292771Y-13209967D01*
X17464200Y-13267110D02*
X17483248Y-13276634D01*
X17521343Y-13276634D01*
X17540390Y-13267110D01*
X17549914Y-13248062D01*
X17549914Y-13238539D01*
X17540390Y-13219491D01*
X17521343Y-13209967D01*
X17492771Y-13209967D01*
X17473724Y-13200443D01*
X17464200Y-13181396D01*
X17464200Y-13171872D01*
X17473724Y-13152824D01*
X17492771Y-13143301D01*
X17521343Y-13143301D01*
X17540390Y-13152824D01*
X17616581Y-13352824D02*
X17626105Y-13343301D01*
X17645152Y-13314729D01*
X17654676Y-13295682D01*
X17664200Y-13267110D01*
X17673724Y-13219491D01*
X17673724Y-13181396D01*
X17664200Y-13133777D01*
X17654676Y-13105205D01*
X17645152Y-13086158D01*
X17626105Y-13057586D01*
X17616581Y-13048062D01*
D14*
X12794676Y-13400158D02*
X12794676Y-13500158D01*
X12744676Y-13450158D02*
X12844676Y-13450158D01*
D11*
X13207057Y-13540634D02*
X13092771Y-13540634D01*
X13149914Y-13540634D02*
X13149914Y-13340634D01*
X13130867Y-13369205D01*
X13111819Y-13388253D01*
X13092771Y-13397777D01*
X13292771Y-13521586D02*
X13302295Y-13531110D01*
X13292771Y-13540634D01*
X13283248Y-13531110D01*
X13292771Y-13521586D01*
X13292771Y-13540634D01*
X13426105Y-13340634D02*
X13445152Y-13340634D01*
X13464200Y-13350158D01*
X13473724Y-13359682D01*
X13483248Y-13378729D01*
X13492771Y-13416824D01*
X13492771Y-13464443D01*
X13483248Y-13502539D01*
X13473724Y-13521586D01*
X13464200Y-13531110D01*
X13445152Y-13540634D01*
X13426105Y-13540634D01*
X13407057Y-13531110D01*
X13397533Y-13521586D01*
X13388009Y-13502539D01*
X13378486Y-13464443D01*
X13378486Y-13416824D01*
X13388009Y-13378729D01*
X13397533Y-13359682D01*
X13407057Y-13350158D01*
X13426105Y-13340634D01*
X13616581Y-13340634D02*
X13635628Y-13340634D01*
X13654676Y-13350158D01*
X13664200Y-13359682D01*
X13673724Y-13378729D01*
X13683248Y-13416824D01*
X13683248Y-13464443D01*
X13673724Y-13502539D01*
X13664200Y-13521586D01*
X13654676Y-13531110D01*
X13635628Y-13540634D01*
X13616581Y-13540634D01*
X13597533Y-13531110D01*
X13588009Y-13521586D01*
X13578486Y-13502539D01*
X13568962Y-13464443D01*
X13568962Y-13416824D01*
X13578486Y-13378729D01*
X13588009Y-13359682D01*
X13597533Y-13350158D01*
X13616581Y-13340634D01*
X13807057Y-13340634D02*
X13826105Y-13340634D01*
X13845152Y-13350158D01*
X13854676Y-13359682D01*
X13864200Y-13378729D01*
X13873724Y-13416824D01*
X13873724Y-13464443D01*
X13864200Y-13502539D01*
X13854676Y-13521586D01*
X13845152Y-13531110D01*
X13826105Y-13540634D01*
X13807057Y-13540634D01*
X13788009Y-13531110D01*
X13778486Y-13521586D01*
X13768962Y-13502539D01*
X13759438Y-13464443D01*
X13759438Y-13416824D01*
X13768962Y-13378729D01*
X13778486Y-13359682D01*
X13788009Y-13350158D01*
X13807057Y-13340634D01*
X13959438Y-13540634D02*
X13959438Y-13407301D01*
X13959438Y-13426348D02*
X13968962Y-13416824D01*
X13988009Y-13407301D01*
X14016581Y-13407301D01*
X14035628Y-13416824D01*
X14045152Y-13435872D01*
X14045152Y-13540634D01*
X14045152Y-13435872D02*
X14054676Y-13416824D01*
X14073724Y-13407301D01*
X14102295Y-13407301D01*
X14121343Y-13416824D01*
X14130867Y-13435872D01*
X14130867Y-13540634D01*
X14226105Y-13540634D02*
X14226105Y-13407301D01*
X14226105Y-13426348D02*
X14235628Y-13416824D01*
X14254676Y-13407301D01*
X14283248Y-13407301D01*
X14302295Y-13416824D01*
X14311819Y-13435872D01*
X14311819Y-13540634D01*
X14311819Y-13435872D02*
X14321343Y-13416824D01*
X14340390Y-13407301D01*
X14368962Y-13407301D01*
X14388009Y-13416824D01*
X14397533Y-13435872D01*
X14397533Y-13540634D01*
X14788009Y-13331110D02*
X14616581Y-13588253D01*
X15045152Y-13340634D02*
X15064200Y-13340634D01*
X15083248Y-13350158D01*
X15092771Y-13359682D01*
X15102295Y-13378729D01*
X15111819Y-13416824D01*
X15111819Y-13464443D01*
X15102295Y-13502539D01*
X15092771Y-13521586D01*
X15083248Y-13531110D01*
X15064200Y-13540634D01*
X15045152Y-13540634D01*
X15026105Y-13531110D01*
X15016581Y-13521586D01*
X15007057Y-13502539D01*
X14997533Y-13464443D01*
X14997533Y-13416824D01*
X15007057Y-13378729D01*
X15016581Y-13359682D01*
X15026105Y-13350158D01*
X15045152Y-13340634D01*
X15197533Y-13521586D02*
X15207057Y-13531110D01*
X15197533Y-13540634D01*
X15188009Y-13531110D01*
X15197533Y-13521586D01*
X15197533Y-13540634D01*
X15330867Y-13340634D02*
X15349914Y-13340634D01*
X15368962Y-13350158D01*
X15378486Y-13359682D01*
X15388009Y-13378729D01*
X15397533Y-13416824D01*
X15397533Y-13464443D01*
X15388009Y-13502539D01*
X15378486Y-13521586D01*
X15368962Y-13531110D01*
X15349914Y-13540634D01*
X15330867Y-13540634D01*
X15311819Y-13531110D01*
X15302295Y-13521586D01*
X15292771Y-13502539D01*
X15283248Y-13464443D01*
X15283248Y-13416824D01*
X15292771Y-13378729D01*
X15302295Y-13359682D01*
X15311819Y-13350158D01*
X15330867Y-13340634D01*
X15464200Y-13340634D02*
X15588009Y-13340634D01*
X15521343Y-13416824D01*
X15549914Y-13416824D01*
X15568962Y-13426348D01*
X15578486Y-13435872D01*
X15588009Y-13454920D01*
X15588009Y-13502539D01*
X15578486Y-13521586D01*
X15568962Y-13531110D01*
X15549914Y-13540634D01*
X15492771Y-13540634D01*
X15473724Y-13531110D01*
X15464200Y-13521586D01*
X15683248Y-13540634D02*
X15721343Y-13540634D01*
X15740390Y-13531110D01*
X15749914Y-13521586D01*
X15768962Y-13493015D01*
X15778486Y-13454920D01*
X15778486Y-13378729D01*
X15768962Y-13359682D01*
X15759438Y-13350158D01*
X15740390Y-13340634D01*
X15702295Y-13340634D01*
X15683248Y-13350158D01*
X15673724Y-13359682D01*
X15664200Y-13378729D01*
X15664200Y-13426348D01*
X15673724Y-13445396D01*
X15683248Y-13454920D01*
X15702295Y-13464443D01*
X15740390Y-13464443D01*
X15759438Y-13454920D01*
X15768962Y-13445396D01*
X15778486Y-13426348D01*
X15949914Y-13407301D02*
X15949914Y-13540634D01*
X15902295Y-13331110D02*
X15854676Y-13473967D01*
X15978486Y-13473967D01*
X16045152Y-13340634D02*
X16045152Y-13378729D01*
X16121343Y-13340634D02*
X16121343Y-13378729D01*
X16416581Y-13616824D02*
X16407057Y-13607301D01*
X16388009Y-13578729D01*
X16378486Y-13559682D01*
X16368962Y-13531110D01*
X16359438Y-13483491D01*
X16359438Y-13445396D01*
X16368962Y-13397777D01*
X16378486Y-13369205D01*
X16388009Y-13350158D01*
X16407057Y-13321586D01*
X16416581Y-13312062D01*
X16578486Y-13340634D02*
X16540390Y-13340634D01*
X16521343Y-13350158D01*
X16511819Y-13359682D01*
X16492771Y-13388253D01*
X16483248Y-13426348D01*
X16483248Y-13502539D01*
X16492771Y-13521586D01*
X16502295Y-13531110D01*
X16521343Y-13540634D01*
X16559438Y-13540634D01*
X16578486Y-13531110D01*
X16588009Y-13521586D01*
X16597533Y-13502539D01*
X16597533Y-13454920D01*
X16588009Y-13435872D01*
X16578486Y-13426348D01*
X16559438Y-13416824D01*
X16521343Y-13416824D01*
X16502295Y-13426348D01*
X16492771Y-13435872D01*
X16483248Y-13454920D01*
X16835629Y-13540634D02*
X16835629Y-13340634D01*
X16921343Y-13540634D02*
X16921343Y-13435872D01*
X16911819Y-13416824D01*
X16892771Y-13407301D01*
X16864200Y-13407301D01*
X16845152Y-13416824D01*
X16835629Y-13426348D01*
X17045152Y-13540634D02*
X17026105Y-13531110D01*
X17016581Y-13521586D01*
X17007057Y-13502539D01*
X17007057Y-13445396D01*
X17016581Y-13426348D01*
X17026105Y-13416824D01*
X17045152Y-13407301D01*
X17073724Y-13407301D01*
X17092771Y-13416824D01*
X17102295Y-13426348D01*
X17111819Y-13445396D01*
X17111819Y-13502539D01*
X17102295Y-13521586D01*
X17092771Y-13531110D01*
X17073724Y-13540634D01*
X17045152Y-13540634D01*
X17226105Y-13540634D02*
X17207057Y-13531110D01*
X17197533Y-13512062D01*
X17197533Y-13340634D01*
X17378486Y-13531110D02*
X17359438Y-13540634D01*
X17321343Y-13540634D01*
X17302295Y-13531110D01*
X17292771Y-13512062D01*
X17292771Y-13435872D01*
X17302295Y-13416824D01*
X17321343Y-13407301D01*
X17359438Y-13407301D01*
X17378486Y-13416824D01*
X17388010Y-13435872D01*
X17388010Y-13454920D01*
X17292771Y-13473967D01*
X17464200Y-13531110D02*
X17483248Y-13540634D01*
X17521343Y-13540634D01*
X17540390Y-13531110D01*
X17549914Y-13512062D01*
X17549914Y-13502539D01*
X17540390Y-13483491D01*
X17521343Y-13473967D01*
X17492771Y-13473967D01*
X17473724Y-13464443D01*
X17464200Y-13445396D01*
X17464200Y-13435872D01*
X17473724Y-13416824D01*
X17492771Y-13407301D01*
X17521343Y-13407301D01*
X17540390Y-13416824D01*
X17616581Y-13616824D02*
X17626105Y-13607301D01*
X17645152Y-13578729D01*
X17654676Y-13559682D01*
X17664200Y-13531110D01*
X17673724Y-13483491D01*
X17673724Y-13445396D01*
X17664200Y-13397777D01*
X17654676Y-13369205D01*
X17645152Y-13350158D01*
X17626105Y-13321586D01*
X17616581Y-13312062D01*
D15*
X12829739Y-13750221D02*
X12829739Y-13678095D01*
X12757613Y-13678095D01*
X12757613Y-13750221D01*
X12829739Y-13750221D01*
D11*
X13207057Y-13804634D02*
X13092771Y-13804634D01*
X13149914Y-13804634D02*
X13149914Y-13604634D01*
X13130867Y-13633205D01*
X13111819Y-13652253D01*
X13092771Y-13661777D01*
X13292771Y-13785586D02*
X13302295Y-13795110D01*
X13292771Y-13804634D01*
X13283248Y-13795110D01*
X13292771Y-13785586D01*
X13292771Y-13804634D01*
X13426105Y-13604634D02*
X13445152Y-13604634D01*
X13464200Y-13614158D01*
X13473724Y-13623682D01*
X13483248Y-13642729D01*
X13492771Y-13680824D01*
X13492771Y-13728443D01*
X13483248Y-13766539D01*
X13473724Y-13785586D01*
X13464200Y-13795110D01*
X13445152Y-13804634D01*
X13426105Y-13804634D01*
X13407057Y-13795110D01*
X13397533Y-13785586D01*
X13388009Y-13766539D01*
X13378486Y-13728443D01*
X13378486Y-13680824D01*
X13388009Y-13642729D01*
X13397533Y-13623682D01*
X13407057Y-13614158D01*
X13426105Y-13604634D01*
X13568962Y-13623682D02*
X13578486Y-13614158D01*
X13597533Y-13604634D01*
X13645152Y-13604634D01*
X13664200Y-13614158D01*
X13673724Y-13623682D01*
X13683248Y-13642729D01*
X13683248Y-13661777D01*
X13673724Y-13690348D01*
X13559438Y-13804634D01*
X13683248Y-13804634D01*
X13807057Y-13604634D02*
X13826105Y-13604634D01*
X13845152Y-13614158D01*
X13854676Y-13623682D01*
X13864200Y-13642729D01*
X13873724Y-13680824D01*
X13873724Y-13728443D01*
X13864200Y-13766539D01*
X13854676Y-13785586D01*
X13845152Y-13795110D01*
X13826105Y-13804634D01*
X13807057Y-13804634D01*
X13788009Y-13795110D01*
X13778486Y-13785586D01*
X13768962Y-13766539D01*
X13759438Y-13728443D01*
X13759438Y-13680824D01*
X13768962Y-13642729D01*
X13778486Y-13623682D01*
X13788009Y-13614158D01*
X13807057Y-13604634D01*
X13959438Y-13804634D02*
X13959438Y-13671301D01*
X13959438Y-13690348D02*
X13968962Y-13680824D01*
X13988009Y-13671301D01*
X14016581Y-13671301D01*
X14035628Y-13680824D01*
X14045152Y-13699872D01*
X14045152Y-13804634D01*
X14045152Y-13699872D02*
X14054676Y-13680824D01*
X14073724Y-13671301D01*
X14102295Y-13671301D01*
X14121343Y-13680824D01*
X14130867Y-13699872D01*
X14130867Y-13804634D01*
X14226105Y-13804634D02*
X14226105Y-13671301D01*
X14226105Y-13690348D02*
X14235628Y-13680824D01*
X14254676Y-13671301D01*
X14283248Y-13671301D01*
X14302295Y-13680824D01*
X14311819Y-13699872D01*
X14311819Y-13804634D01*
X14311819Y-13699872D02*
X14321343Y-13680824D01*
X14340390Y-13671301D01*
X14368962Y-13671301D01*
X14388009Y-13680824D01*
X14397533Y-13699872D01*
X14397533Y-13804634D01*
X14788009Y-13595110D02*
X14616581Y-13852253D01*
X15045152Y-13604634D02*
X15064200Y-13604634D01*
X15083248Y-13614158D01*
X15092771Y-13623682D01*
X15102295Y-13642729D01*
X15111819Y-13680824D01*
X15111819Y-13728443D01*
X15102295Y-13766539D01*
X15092771Y-13785586D01*
X15083248Y-13795110D01*
X15064200Y-13804634D01*
X15045152Y-13804634D01*
X15026105Y-13795110D01*
X15016581Y-13785586D01*
X15007057Y-13766539D01*
X14997533Y-13728443D01*
X14997533Y-13680824D01*
X15007057Y-13642729D01*
X15016581Y-13623682D01*
X15026105Y-13614158D01*
X15045152Y-13604634D01*
X15197533Y-13785586D02*
X15207057Y-13795110D01*
X15197533Y-13804634D01*
X15188009Y-13795110D01*
X15197533Y-13785586D01*
X15197533Y-13804634D01*
X15330867Y-13604634D02*
X15349914Y-13604634D01*
X15368962Y-13614158D01*
X15378486Y-13623682D01*
X15388009Y-13642729D01*
X15397533Y-13680824D01*
X15397533Y-13728443D01*
X15388009Y-13766539D01*
X15378486Y-13785586D01*
X15368962Y-13795110D01*
X15349914Y-13804634D01*
X15330867Y-13804634D01*
X15311819Y-13795110D01*
X15302295Y-13785586D01*
X15292771Y-13766539D01*
X15283248Y-13728443D01*
X15283248Y-13680824D01*
X15292771Y-13642729D01*
X15302295Y-13623682D01*
X15311819Y-13614158D01*
X15330867Y-13604634D01*
X15568962Y-13671301D02*
X15568962Y-13804634D01*
X15521343Y-13595110D02*
X15473724Y-13737967D01*
X15597533Y-13737967D01*
X15711819Y-13604634D02*
X15730867Y-13604634D01*
X15749914Y-13614158D01*
X15759438Y-13623682D01*
X15768962Y-13642729D01*
X15778486Y-13680824D01*
X15778486Y-13728443D01*
X15768962Y-13766539D01*
X15759438Y-13785586D01*
X15749914Y-13795110D01*
X15730867Y-13804634D01*
X15711819Y-13804634D01*
X15692771Y-13795110D01*
X15683248Y-13785586D01*
X15673724Y-13766539D01*
X15664200Y-13728443D01*
X15664200Y-13680824D01*
X15673724Y-13642729D01*
X15683248Y-13623682D01*
X15692771Y-13614158D01*
X15711819Y-13604634D01*
X15854676Y-13623682D02*
X15864200Y-13614158D01*
X15883248Y-13604634D01*
X15930867Y-13604634D01*
X15949914Y-13614158D01*
X15959438Y-13623682D01*
X15968962Y-13642729D01*
X15968962Y-13661777D01*
X15959438Y-13690348D01*
X15845152Y-13804634D01*
X15968962Y-13804634D01*
X16045152Y-13604634D02*
X16045152Y-13642729D01*
X16121343Y-13604634D02*
X16121343Y-13642729D01*
X16416581Y-13880824D02*
X16407057Y-13871301D01*
X16388009Y-13842729D01*
X16378486Y-13823682D01*
X16368962Y-13795110D01*
X16359438Y-13747491D01*
X16359438Y-13709396D01*
X16368962Y-13661777D01*
X16378486Y-13633205D01*
X16388009Y-13614158D01*
X16407057Y-13585586D01*
X16416581Y-13576062D01*
X16483248Y-13623682D02*
X16492771Y-13614158D01*
X16511819Y-13604634D01*
X16559438Y-13604634D01*
X16578486Y-13614158D01*
X16588009Y-13623682D01*
X16597533Y-13642729D01*
X16597533Y-13661777D01*
X16588009Y-13690348D01*
X16473724Y-13804634D01*
X16597533Y-13804634D01*
X16768962Y-13671301D02*
X16768962Y-13804634D01*
X16721343Y-13595110D02*
X16673724Y-13737967D01*
X16797533Y-13737967D01*
X17026105Y-13804634D02*
X17026105Y-13604634D01*
X17111819Y-13804634D02*
X17111819Y-13699872D01*
X17102295Y-13680824D01*
X17083248Y-13671301D01*
X17054676Y-13671301D01*
X17035629Y-13680824D01*
X17026105Y-13690348D01*
X17235629Y-13804634D02*
X17216581Y-13795110D01*
X17207057Y-13785586D01*
X17197533Y-13766539D01*
X17197533Y-13709396D01*
X17207057Y-13690348D01*
X17216581Y-13680824D01*
X17235629Y-13671301D01*
X17264200Y-13671301D01*
X17283248Y-13680824D01*
X17292771Y-13690348D01*
X17302295Y-13709396D01*
X17302295Y-13766539D01*
X17292771Y-13785586D01*
X17283248Y-13795110D01*
X17264200Y-13804634D01*
X17235629Y-13804634D01*
X17416581Y-13804634D02*
X17397533Y-13795110D01*
X17388010Y-13776062D01*
X17388010Y-13604634D01*
X17568962Y-13795110D02*
X17549914Y-13804634D01*
X17511819Y-13804634D01*
X17492771Y-13795110D01*
X17483248Y-13776062D01*
X17483248Y-13699872D01*
X17492771Y-13680824D01*
X17511819Y-13671301D01*
X17549914Y-13671301D01*
X17568962Y-13680824D01*
X17578486Y-13699872D01*
X17578486Y-13718920D01*
X17483248Y-13737967D01*
X17654676Y-13795110D02*
X17673724Y-13804634D01*
X17711819Y-13804634D01*
X17730867Y-13795110D01*
X17740390Y-13776062D01*
X17740390Y-13766539D01*
X17730867Y-13747491D01*
X17711819Y-13737967D01*
X17683248Y-13737967D01*
X17664200Y-13728443D01*
X17654676Y-13709396D01*
X17654676Y-13699872D01*
X17664200Y-13680824D01*
X17683248Y-13671301D01*
X17711819Y-13671301D01*
X17730867Y-13680824D01*
X17807057Y-13880824D02*
X17816581Y-13871301D01*
X17835629Y-13842729D01*
X17845152Y-13823682D01*
X17854676Y-13795110D01*
X17864200Y-13747491D01*
X17864200Y-13709396D01*
X17854676Y-13661777D01*
X17845152Y-13633205D01*
X17835629Y-13614158D01*
X17816581Y-13585586D01*
X17807057Y-13576062D01*
D14*
X12794676Y-14028158D02*
X12844676Y-13978158D01*
X12794676Y-13928158D01*
X12744676Y-13978158D01*
X12794676Y-14028158D01*
D11*
X13207057Y-14068634D02*
X13092771Y-14068634D01*
X13149914Y-14068634D02*
X13149914Y-13868634D01*
X13130867Y-13897205D01*
X13111819Y-13916253D01*
X13092771Y-13925777D01*
X13292771Y-14049586D02*
X13302295Y-14059110D01*
X13292771Y-14068634D01*
X13283248Y-14059110D01*
X13292771Y-14049586D01*
X13292771Y-14068634D01*
X13426105Y-13868634D02*
X13445152Y-13868634D01*
X13464200Y-13878158D01*
X13473724Y-13887682D01*
X13483248Y-13906729D01*
X13492771Y-13944824D01*
X13492771Y-13992443D01*
X13483248Y-14030539D01*
X13473724Y-14049586D01*
X13464200Y-14059110D01*
X13445152Y-14068634D01*
X13426105Y-14068634D01*
X13407057Y-14059110D01*
X13397533Y-14049586D01*
X13388009Y-14030539D01*
X13378486Y-13992443D01*
X13378486Y-13944824D01*
X13388009Y-13906729D01*
X13397533Y-13887682D01*
X13407057Y-13878158D01*
X13426105Y-13868634D01*
X13616581Y-13868634D02*
X13635628Y-13868634D01*
X13654676Y-13878158D01*
X13664200Y-13887682D01*
X13673724Y-13906729D01*
X13683248Y-13944824D01*
X13683248Y-13992443D01*
X13673724Y-14030539D01*
X13664200Y-14049586D01*
X13654676Y-14059110D01*
X13635628Y-14068634D01*
X13616581Y-14068634D01*
X13597533Y-14059110D01*
X13588009Y-14049586D01*
X13578486Y-14030539D01*
X13568962Y-13992443D01*
X13568962Y-13944824D01*
X13578486Y-13906729D01*
X13588009Y-13887682D01*
X13597533Y-13878158D01*
X13616581Y-13868634D01*
X13807057Y-13868634D02*
X13826105Y-13868634D01*
X13845152Y-13878158D01*
X13854676Y-13887682D01*
X13864200Y-13906729D01*
X13873724Y-13944824D01*
X13873724Y-13992443D01*
X13864200Y-14030539D01*
X13854676Y-14049586D01*
X13845152Y-14059110D01*
X13826105Y-14068634D01*
X13807057Y-14068634D01*
X13788009Y-14059110D01*
X13778486Y-14049586D01*
X13768962Y-14030539D01*
X13759438Y-13992443D01*
X13759438Y-13944824D01*
X13768962Y-13906729D01*
X13778486Y-13887682D01*
X13788009Y-13878158D01*
X13807057Y-13868634D01*
X13959438Y-14068634D02*
X13959438Y-13935301D01*
X13959438Y-13954348D02*
X13968962Y-13944824D01*
X13988009Y-13935301D01*
X14016581Y-13935301D01*
X14035628Y-13944824D01*
X14045152Y-13963872D01*
X14045152Y-14068634D01*
X14045152Y-13963872D02*
X14054676Y-13944824D01*
X14073724Y-13935301D01*
X14102295Y-13935301D01*
X14121343Y-13944824D01*
X14130867Y-13963872D01*
X14130867Y-14068634D01*
X14226105Y-14068634D02*
X14226105Y-13935301D01*
X14226105Y-13954348D02*
X14235628Y-13944824D01*
X14254676Y-13935301D01*
X14283248Y-13935301D01*
X14302295Y-13944824D01*
X14311819Y-13963872D01*
X14311819Y-14068634D01*
X14311819Y-13963872D02*
X14321343Y-13944824D01*
X14340390Y-13935301D01*
X14368962Y-13935301D01*
X14388009Y-13944824D01*
X14397533Y-13963872D01*
X14397533Y-14068634D01*
X14788009Y-13859110D02*
X14616581Y-14116253D01*
X15045152Y-13868634D02*
X15064200Y-13868634D01*
X15083248Y-13878158D01*
X15092771Y-13887682D01*
X15102295Y-13906729D01*
X15111819Y-13944824D01*
X15111819Y-13992443D01*
X15102295Y-14030539D01*
X15092771Y-14049586D01*
X15083248Y-14059110D01*
X15064200Y-14068634D01*
X15045152Y-14068634D01*
X15026105Y-14059110D01*
X15016581Y-14049586D01*
X15007057Y-14030539D01*
X14997533Y-13992443D01*
X14997533Y-13944824D01*
X15007057Y-13906729D01*
X15016581Y-13887682D01*
X15026105Y-13878158D01*
X15045152Y-13868634D01*
X15197533Y-14049586D02*
X15207057Y-14059110D01*
X15197533Y-14068634D01*
X15188009Y-14059110D01*
X15197533Y-14049586D01*
X15197533Y-14068634D01*
X15330867Y-13868634D02*
X15349914Y-13868634D01*
X15368962Y-13878158D01*
X15378486Y-13887682D01*
X15388009Y-13906729D01*
X15397533Y-13944824D01*
X15397533Y-13992443D01*
X15388009Y-14030539D01*
X15378486Y-14049586D01*
X15368962Y-14059110D01*
X15349914Y-14068634D01*
X15330867Y-14068634D01*
X15311819Y-14059110D01*
X15302295Y-14049586D01*
X15292771Y-14030539D01*
X15283248Y-13992443D01*
X15283248Y-13944824D01*
X15292771Y-13906729D01*
X15302295Y-13887682D01*
X15311819Y-13878158D01*
X15330867Y-13868634D01*
X15464200Y-13868634D02*
X15588009Y-13868634D01*
X15521343Y-13944824D01*
X15549914Y-13944824D01*
X15568962Y-13954348D01*
X15578486Y-13963872D01*
X15588009Y-13982920D01*
X15588009Y-14030539D01*
X15578486Y-14049586D01*
X15568962Y-14059110D01*
X15549914Y-14068634D01*
X15492771Y-14068634D01*
X15473724Y-14059110D01*
X15464200Y-14049586D01*
X15683248Y-14068634D02*
X15721343Y-14068634D01*
X15740390Y-14059110D01*
X15749914Y-14049586D01*
X15768962Y-14021015D01*
X15778486Y-13982920D01*
X15778486Y-13906729D01*
X15768962Y-13887682D01*
X15759438Y-13878158D01*
X15740390Y-13868634D01*
X15702295Y-13868634D01*
X15683248Y-13878158D01*
X15673724Y-13887682D01*
X15664200Y-13906729D01*
X15664200Y-13954348D01*
X15673724Y-13973396D01*
X15683248Y-13982920D01*
X15702295Y-13992443D01*
X15740390Y-13992443D01*
X15759438Y-13982920D01*
X15768962Y-13973396D01*
X15778486Y-13954348D01*
X15949914Y-13935301D02*
X15949914Y-14068634D01*
X15902295Y-13859110D02*
X15854676Y-14001967D01*
X15978486Y-14001967D01*
X16045152Y-13868634D02*
X16045152Y-13906729D01*
X16121343Y-13868634D02*
X16121343Y-13906729D01*
X16416581Y-14144824D02*
X16407057Y-14135301D01*
X16388009Y-14106729D01*
X16378486Y-14087682D01*
X16368962Y-14059110D01*
X16359438Y-14011491D01*
X16359438Y-13973396D01*
X16368962Y-13925777D01*
X16378486Y-13897205D01*
X16388009Y-13878158D01*
X16407057Y-13849586D01*
X16416581Y-13840062D01*
X16483248Y-13887682D02*
X16492771Y-13878158D01*
X16511819Y-13868634D01*
X16559438Y-13868634D01*
X16578486Y-13878158D01*
X16588009Y-13887682D01*
X16597533Y-13906729D01*
X16597533Y-13925777D01*
X16588009Y-13954348D01*
X16473724Y-14068634D01*
X16597533Y-14068634D01*
X16835629Y-14068634D02*
X16835629Y-13868634D01*
X16921343Y-14068634D02*
X16921343Y-13963872D01*
X16911819Y-13944824D01*
X16892771Y-13935301D01*
X16864200Y-13935301D01*
X16845152Y-13944824D01*
X16835629Y-13954348D01*
X17045152Y-14068634D02*
X17026105Y-14059110D01*
X17016581Y-14049586D01*
X17007057Y-14030539D01*
X17007057Y-13973396D01*
X17016581Y-13954348D01*
X17026105Y-13944824D01*
X17045152Y-13935301D01*
X17073724Y-13935301D01*
X17092771Y-13944824D01*
X17102295Y-13954348D01*
X17111819Y-13973396D01*
X17111819Y-14030539D01*
X17102295Y-14049586D01*
X17092771Y-14059110D01*
X17073724Y-14068634D01*
X17045152Y-14068634D01*
X17226105Y-14068634D02*
X17207057Y-14059110D01*
X17197533Y-14040062D01*
X17197533Y-13868634D01*
X17378486Y-14059110D02*
X17359438Y-14068634D01*
X17321343Y-14068634D01*
X17302295Y-14059110D01*
X17292771Y-14040062D01*
X17292771Y-13963872D01*
X17302295Y-13944824D01*
X17321343Y-13935301D01*
X17359438Y-13935301D01*
X17378486Y-13944824D01*
X17388010Y-13963872D01*
X17388010Y-13982920D01*
X17292771Y-14001967D01*
X17464200Y-14059110D02*
X17483248Y-14068634D01*
X17521343Y-14068634D01*
X17540390Y-14059110D01*
X17549914Y-14040062D01*
X17549914Y-14030539D01*
X17540390Y-14011491D01*
X17521343Y-14001967D01*
X17492771Y-14001967D01*
X17473724Y-13992443D01*
X17464200Y-13973396D01*
X17464200Y-13963872D01*
X17473724Y-13944824D01*
X17492771Y-13935301D01*
X17521343Y-13935301D01*
X17540390Y-13944824D01*
X17616581Y-14144824D02*
X17626105Y-14135301D01*
X17645152Y-14106729D01*
X17654676Y-14087682D01*
X17664200Y-14059110D01*
X17673724Y-14011491D01*
X17673724Y-13973396D01*
X17664200Y-13925777D01*
X17654676Y-13897205D01*
X17645152Y-13878158D01*
X17626105Y-13849586D01*
X17616581Y-13840062D01*
X17978486Y-14144824D02*
X17968962Y-14135301D01*
X17949914Y-14106729D01*
X17940390Y-14087682D01*
X17930867Y-14059110D01*
X17921343Y-14011491D01*
X17921343Y-13973396D01*
X17930867Y-13925777D01*
X17940390Y-13897205D01*
X17949914Y-13878158D01*
X17968962Y-13849586D01*
X17978486Y-13840062D01*
X18054676Y-13935301D02*
X18054676Y-14068634D01*
X18054676Y-13954348D02*
X18064200Y-13944824D01*
X18083248Y-13935301D01*
X18111819Y-13935301D01*
X18130867Y-13944824D01*
X18140390Y-13963872D01*
X18140390Y-14068634D01*
X18264200Y-14068634D02*
X18245152Y-14059110D01*
X18235629Y-14049586D01*
X18226105Y-14030539D01*
X18226105Y-13973396D01*
X18235629Y-13954348D01*
X18245152Y-13944824D01*
X18264200Y-13935301D01*
X18292771Y-13935301D01*
X18311819Y-13944824D01*
X18321343Y-13954348D01*
X18330867Y-13973396D01*
X18330867Y-14030539D01*
X18321343Y-14049586D01*
X18311819Y-14059110D01*
X18292771Y-14068634D01*
X18264200Y-14068634D01*
X18388010Y-13935301D02*
X18464200Y-13935301D01*
X18416581Y-13868634D02*
X18416581Y-14040062D01*
X18426105Y-14059110D01*
X18445152Y-14068634D01*
X18464200Y-14068634D01*
X18683248Y-13935301D02*
X18683248Y-14135301D01*
X18683248Y-13944824D02*
X18702295Y-13935301D01*
X18740390Y-13935301D01*
X18759438Y-13944824D01*
X18768962Y-13954348D01*
X18778486Y-13973396D01*
X18778486Y-14030539D01*
X18768962Y-14049586D01*
X18759438Y-14059110D01*
X18740390Y-14068634D01*
X18702295Y-14068634D01*
X18683248Y-14059110D01*
X18892771Y-14068634D02*
X18873724Y-14059110D01*
X18864200Y-14040062D01*
X18864200Y-13868634D01*
X19054676Y-14068634D02*
X19054676Y-13963872D01*
X19045152Y-13944824D01*
X19026105Y-13935301D01*
X18988010Y-13935301D01*
X18968962Y-13944824D01*
X19054676Y-14059110D02*
X19035629Y-14068634D01*
X18988010Y-14068634D01*
X18968962Y-14059110D01*
X18959438Y-14040062D01*
X18959438Y-14021015D01*
X18968962Y-14001967D01*
X18988010Y-13992443D01*
X19035629Y-13992443D01*
X19054676Y-13982920D01*
X19121343Y-13935301D02*
X19197533Y-13935301D01*
X19149914Y-13868634D02*
X19149914Y-14040062D01*
X19159438Y-14059110D01*
X19178486Y-14068634D01*
X19197533Y-14068634D01*
X19340390Y-14059110D02*
X19321343Y-14068634D01*
X19283248Y-14068634D01*
X19264200Y-14059110D01*
X19254676Y-14040062D01*
X19254676Y-13963872D01*
X19264200Y-13944824D01*
X19283248Y-13935301D01*
X19321343Y-13935301D01*
X19340390Y-13944824D01*
X19349914Y-13963872D01*
X19349914Y-13982920D01*
X19254676Y-14001967D01*
X19521343Y-14068634D02*
X19521343Y-13868634D01*
X19521343Y-14059110D02*
X19502295Y-14068634D01*
X19464200Y-14068634D01*
X19445152Y-14059110D01*
X19435629Y-14049586D01*
X19426105Y-14030539D01*
X19426105Y-13973396D01*
X19435629Y-13954348D01*
X19445152Y-13944824D01*
X19464200Y-13935301D01*
X19502295Y-13935301D01*
X19521343Y-13944824D01*
X19597533Y-14144824D02*
X19607057Y-14135301D01*
X19626105Y-14106729D01*
X19635629Y-14087682D01*
X19645152Y-14059110D01*
X19654676Y-14011491D01*
X19654676Y-13973396D01*
X19645152Y-13925777D01*
X19635629Y-13897205D01*
X19626105Y-13878158D01*
X19607057Y-13849586D01*
X19597533Y-13840062D01*
D16*
X12717676Y-14178658D02*
X12844676Y-14305658D01*
X12844676Y-14178658D02*
X12717676Y-14305658D01*
X12844676Y-14242158D02*
G75*
G03*
X12844676Y-14242158I-63500J0D01*
G01*
D11*
X13207057Y-14332634D02*
X13092771Y-14332634D01*
X13149914Y-14332634D02*
X13149914Y-14132634D01*
X13130867Y-14161205D01*
X13111819Y-14180253D01*
X13092771Y-14189777D01*
X13292771Y-14313586D02*
X13302295Y-14323110D01*
X13292771Y-14332634D01*
X13283248Y-14323110D01*
X13292771Y-14313586D01*
X13292771Y-14332634D01*
X13378486Y-14151682D02*
X13388009Y-14142158D01*
X13407057Y-14132634D01*
X13454676Y-14132634D01*
X13473724Y-14142158D01*
X13483248Y-14151682D01*
X13492771Y-14170729D01*
X13492771Y-14189777D01*
X13483248Y-14218348D01*
X13368962Y-14332634D01*
X13492771Y-14332634D01*
X13559438Y-14132634D02*
X13692771Y-14132634D01*
X13607057Y-14332634D01*
X13807057Y-14132634D02*
X13826105Y-14132634D01*
X13845152Y-14142158D01*
X13854676Y-14151682D01*
X13864200Y-14170729D01*
X13873724Y-14208824D01*
X13873724Y-14256443D01*
X13864200Y-14294539D01*
X13854676Y-14313586D01*
X13845152Y-14323110D01*
X13826105Y-14332634D01*
X13807057Y-14332634D01*
X13788009Y-14323110D01*
X13778486Y-14313586D01*
X13768962Y-14294539D01*
X13759438Y-14256443D01*
X13759438Y-14208824D01*
X13768962Y-14170729D01*
X13778486Y-14151682D01*
X13788009Y-14142158D01*
X13807057Y-14132634D01*
X13959438Y-14332634D02*
X13959438Y-14199301D01*
X13959438Y-14218348D02*
X13968962Y-14208824D01*
X13988009Y-14199301D01*
X14016581Y-14199301D01*
X14035628Y-14208824D01*
X14045152Y-14227872D01*
X14045152Y-14332634D01*
X14045152Y-14227872D02*
X14054676Y-14208824D01*
X14073724Y-14199301D01*
X14102295Y-14199301D01*
X14121343Y-14208824D01*
X14130867Y-14227872D01*
X14130867Y-14332634D01*
X14226105Y-14332634D02*
X14226105Y-14199301D01*
X14226105Y-14218348D02*
X14235628Y-14208824D01*
X14254676Y-14199301D01*
X14283248Y-14199301D01*
X14302295Y-14208824D01*
X14311819Y-14227872D01*
X14311819Y-14332634D01*
X14311819Y-14227872D02*
X14321343Y-14208824D01*
X14340390Y-14199301D01*
X14368962Y-14199301D01*
X14388009Y-14208824D01*
X14397533Y-14227872D01*
X14397533Y-14332634D01*
X14788009Y-14123110D02*
X14616581Y-14380253D01*
X15045152Y-14132634D02*
X15064200Y-14132634D01*
X15083248Y-14142158D01*
X15092771Y-14151682D01*
X15102295Y-14170729D01*
X15111819Y-14208824D01*
X15111819Y-14256443D01*
X15102295Y-14294539D01*
X15092771Y-14313586D01*
X15083248Y-14323110D01*
X15064200Y-14332634D01*
X15045152Y-14332634D01*
X15026105Y-14323110D01*
X15016581Y-14313586D01*
X15007057Y-14294539D01*
X14997533Y-14256443D01*
X14997533Y-14208824D01*
X15007057Y-14170729D01*
X15016581Y-14151682D01*
X15026105Y-14142158D01*
X15045152Y-14132634D01*
X15197533Y-14313586D02*
X15207057Y-14323110D01*
X15197533Y-14332634D01*
X15188009Y-14323110D01*
X15197533Y-14313586D01*
X15197533Y-14332634D01*
X15330867Y-14132634D02*
X15349914Y-14132634D01*
X15368962Y-14142158D01*
X15378486Y-14151682D01*
X15388009Y-14170729D01*
X15397533Y-14208824D01*
X15397533Y-14256443D01*
X15388009Y-14294539D01*
X15378486Y-14313586D01*
X15368962Y-14323110D01*
X15349914Y-14332634D01*
X15330867Y-14332634D01*
X15311819Y-14323110D01*
X15302295Y-14313586D01*
X15292771Y-14294539D01*
X15283248Y-14256443D01*
X15283248Y-14208824D01*
X15292771Y-14170729D01*
X15302295Y-14151682D01*
X15311819Y-14142158D01*
X15330867Y-14132634D01*
X15578486Y-14132634D02*
X15483248Y-14132634D01*
X15473724Y-14227872D01*
X15483248Y-14218348D01*
X15502295Y-14208824D01*
X15549914Y-14208824D01*
X15568962Y-14218348D01*
X15578486Y-14227872D01*
X15588009Y-14246920D01*
X15588009Y-14294539D01*
X15578486Y-14313586D01*
X15568962Y-14323110D01*
X15549914Y-14332634D01*
X15502295Y-14332634D01*
X15483248Y-14323110D01*
X15473724Y-14313586D01*
X15711819Y-14132634D02*
X15730867Y-14132634D01*
X15749914Y-14142158D01*
X15759438Y-14151682D01*
X15768962Y-14170729D01*
X15778486Y-14208824D01*
X15778486Y-14256443D01*
X15768962Y-14294539D01*
X15759438Y-14313586D01*
X15749914Y-14323110D01*
X15730867Y-14332634D01*
X15711819Y-14332634D01*
X15692771Y-14323110D01*
X15683248Y-14313586D01*
X15673724Y-14294539D01*
X15664200Y-14256443D01*
X15664200Y-14208824D01*
X15673724Y-14170729D01*
X15683248Y-14151682D01*
X15692771Y-14142158D01*
X15711819Y-14132634D01*
X15902295Y-14132634D02*
X15921343Y-14132634D01*
X15940390Y-14142158D01*
X15949914Y-14151682D01*
X15959438Y-14170729D01*
X15968962Y-14208824D01*
X15968962Y-14256443D01*
X15959438Y-14294539D01*
X15949914Y-14313586D01*
X15940390Y-14323110D01*
X15921343Y-14332634D01*
X15902295Y-14332634D01*
X15883248Y-14323110D01*
X15873724Y-14313586D01*
X15864200Y-14294539D01*
X15854676Y-14256443D01*
X15854676Y-14208824D01*
X15864200Y-14170729D01*
X15873724Y-14151682D01*
X15883248Y-14142158D01*
X15902295Y-14132634D01*
X16045152Y-14132634D02*
X16045152Y-14170729D01*
X16121343Y-14132634D02*
X16121343Y-14170729D01*
X16416581Y-14408824D02*
X16407057Y-14399301D01*
X16388009Y-14370729D01*
X16378486Y-14351682D01*
X16368962Y-14323110D01*
X16359438Y-14275491D01*
X16359438Y-14237396D01*
X16368962Y-14189777D01*
X16378486Y-14161205D01*
X16388009Y-14142158D01*
X16407057Y-14113586D01*
X16416581Y-14104062D01*
X16483248Y-14151682D02*
X16492771Y-14142158D01*
X16511819Y-14132634D01*
X16559438Y-14132634D01*
X16578486Y-14142158D01*
X16588009Y-14151682D01*
X16597533Y-14170729D01*
X16597533Y-14189777D01*
X16588009Y-14218348D01*
X16473724Y-14332634D01*
X16597533Y-14332634D01*
X16768962Y-14199301D02*
X16768962Y-14332634D01*
X16721343Y-14123110D02*
X16673724Y-14265967D01*
X16797533Y-14265967D01*
X17026105Y-14332634D02*
X17026105Y-14132634D01*
X17111819Y-14332634D02*
X17111819Y-14227872D01*
X17102295Y-14208824D01*
X17083248Y-14199301D01*
X17054676Y-14199301D01*
X17035629Y-14208824D01*
X17026105Y-14218348D01*
X17235629Y-14332634D02*
X17216581Y-14323110D01*
X17207057Y-14313586D01*
X17197533Y-14294539D01*
X17197533Y-14237396D01*
X17207057Y-14218348D01*
X17216581Y-14208824D01*
X17235629Y-14199301D01*
X17264200Y-14199301D01*
X17283248Y-14208824D01*
X17292771Y-14218348D01*
X17302295Y-14237396D01*
X17302295Y-14294539D01*
X17292771Y-14313586D01*
X17283248Y-14323110D01*
X17264200Y-14332634D01*
X17235629Y-14332634D01*
X17416581Y-14332634D02*
X17397533Y-14323110D01*
X17388010Y-14304062D01*
X17388010Y-14132634D01*
X17568962Y-14323110D02*
X17549914Y-14332634D01*
X17511819Y-14332634D01*
X17492771Y-14323110D01*
X17483248Y-14304062D01*
X17483248Y-14227872D01*
X17492771Y-14208824D01*
X17511819Y-14199301D01*
X17549914Y-14199301D01*
X17568962Y-14208824D01*
X17578486Y-14227872D01*
X17578486Y-14246920D01*
X17483248Y-14265967D01*
X17654676Y-14323110D02*
X17673724Y-14332634D01*
X17711819Y-14332634D01*
X17730867Y-14323110D01*
X17740390Y-14304062D01*
X17740390Y-14294539D01*
X17730867Y-14275491D01*
X17711819Y-14265967D01*
X17683248Y-14265967D01*
X17664200Y-14256443D01*
X17654676Y-14237396D01*
X17654676Y-14227872D01*
X17664200Y-14208824D01*
X17683248Y-14199301D01*
X17711819Y-14199301D01*
X17730867Y-14208824D01*
X17807057Y-14408824D02*
X17816581Y-14399301D01*
X17835629Y-14370729D01*
X17845152Y-14351682D01*
X17854676Y-14323110D01*
X17864200Y-14275491D01*
X17864200Y-14237396D01*
X17854676Y-14189777D01*
X17845152Y-14161205D01*
X17835629Y-14142158D01*
X17816581Y-14113586D01*
X17807057Y-14104062D01*
X18168962Y-14408824D02*
X18159438Y-14399301D01*
X18140390Y-14370729D01*
X18130867Y-14351682D01*
X18121343Y-14323110D01*
X18111819Y-14275491D01*
X18111819Y-14237396D01*
X18121343Y-14189777D01*
X18130867Y-14161205D01*
X18140390Y-14142158D01*
X18159438Y-14113586D01*
X18168962Y-14104062D01*
X18245152Y-14199301D02*
X18245152Y-14332634D01*
X18245152Y-14218348D02*
X18254676Y-14208824D01*
X18273724Y-14199301D01*
X18302295Y-14199301D01*
X18321343Y-14208824D01*
X18330867Y-14227872D01*
X18330867Y-14332634D01*
X18454676Y-14332634D02*
X18435629Y-14323110D01*
X18426105Y-14313586D01*
X18416581Y-14294539D01*
X18416581Y-14237396D01*
X18426105Y-14218348D01*
X18435629Y-14208824D01*
X18454676Y-14199301D01*
X18483248Y-14199301D01*
X18502295Y-14208824D01*
X18511819Y-14218348D01*
X18521343Y-14237396D01*
X18521343Y-14294539D01*
X18511819Y-14313586D01*
X18502295Y-14323110D01*
X18483248Y-14332634D01*
X18454676Y-14332634D01*
X18578486Y-14199301D02*
X18654676Y-14199301D01*
X18607057Y-14132634D02*
X18607057Y-14304062D01*
X18616581Y-14323110D01*
X18635629Y-14332634D01*
X18654676Y-14332634D01*
X18873724Y-14199301D02*
X18873724Y-14399301D01*
X18873724Y-14208824D02*
X18892771Y-14199301D01*
X18930867Y-14199301D01*
X18949914Y-14208824D01*
X18959438Y-14218348D01*
X18968962Y-14237396D01*
X18968962Y-14294539D01*
X18959438Y-14313586D01*
X18949914Y-14323110D01*
X18930867Y-14332634D01*
X18892771Y-14332634D01*
X18873724Y-14323110D01*
X19083248Y-14332634D02*
X19064200Y-14323110D01*
X19054676Y-14304062D01*
X19054676Y-14132634D01*
X19245152Y-14332634D02*
X19245152Y-14227872D01*
X19235629Y-14208824D01*
X19216581Y-14199301D01*
X19178486Y-14199301D01*
X19159438Y-14208824D01*
X19245152Y-14323110D02*
X19226105Y-14332634D01*
X19178486Y-14332634D01*
X19159438Y-14323110D01*
X19149914Y-14304062D01*
X19149914Y-14285015D01*
X19159438Y-14265967D01*
X19178486Y-14256443D01*
X19226105Y-14256443D01*
X19245152Y-14246920D01*
X19311819Y-14199301D02*
X19388010Y-14199301D01*
X19340390Y-14132634D02*
X19340390Y-14304062D01*
X19349914Y-14323110D01*
X19368962Y-14332634D01*
X19388010Y-14332634D01*
X19530867Y-14323110D02*
X19511819Y-14332634D01*
X19473724Y-14332634D01*
X19454676Y-14323110D01*
X19445152Y-14304062D01*
X19445152Y-14227872D01*
X19454676Y-14208824D01*
X19473724Y-14199301D01*
X19511819Y-14199301D01*
X19530867Y-14208824D01*
X19540390Y-14227872D01*
X19540390Y-14246920D01*
X19445152Y-14265967D01*
X19711819Y-14332634D02*
X19711819Y-14132634D01*
X19711819Y-14323110D02*
X19692771Y-14332634D01*
X19654676Y-14332634D01*
X19635629Y-14323110D01*
X19626105Y-14313586D01*
X19616581Y-14294539D01*
X19616581Y-14237396D01*
X19626105Y-14218348D01*
X19635629Y-14208824D01*
X19654676Y-14199301D01*
X19692771Y-14199301D01*
X19711819Y-14208824D01*
X19788010Y-14408824D02*
X19797533Y-14399301D01*
X19816581Y-14370729D01*
X19826105Y-14351682D01*
X19835629Y-14323110D01*
X19845152Y-14275491D01*
X19845152Y-14237396D01*
X19835629Y-14189777D01*
X19826105Y-14161205D01*
X19816581Y-14142158D01*
X19797533Y-14113586D01*
X19788010Y-14104062D01*
X12644676Y-14406158D02*
X12844676Y-14606158D01*
X12844676Y-14406158D02*
X12644676Y-14606158D01*
X12744676Y-14406158D02*
X12744676Y-14606158D01*
X12644676Y-14506158D02*
X12844676Y-14506158D01*
X13083248Y-14396634D02*
X13207057Y-14396634D01*
X13140390Y-14472824D01*
X13168962Y-14472824D01*
X13188009Y-14482348D01*
X13197533Y-14491872D01*
X13207057Y-14510920D01*
X13207057Y-14558539D01*
X13197533Y-14577586D01*
X13188009Y-14587110D01*
X13168962Y-14596634D01*
X13111819Y-14596634D01*
X13092771Y-14587110D01*
X13083248Y-14577586D01*
X13292771Y-14577586D02*
X13302295Y-14587110D01*
X13292771Y-14596634D01*
X13283248Y-14587110D01*
X13292771Y-14577586D01*
X13292771Y-14596634D01*
X13426105Y-14396634D02*
X13445152Y-14396634D01*
X13464200Y-14406158D01*
X13473724Y-14415682D01*
X13483248Y-14434729D01*
X13492771Y-14472824D01*
X13492771Y-14520443D01*
X13483248Y-14558539D01*
X13473724Y-14577586D01*
X13464200Y-14587110D01*
X13445152Y-14596634D01*
X13426105Y-14596634D01*
X13407057Y-14587110D01*
X13397533Y-14577586D01*
X13388009Y-14558539D01*
X13378486Y-14520443D01*
X13378486Y-14472824D01*
X13388009Y-14434729D01*
X13397533Y-14415682D01*
X13407057Y-14406158D01*
X13426105Y-14396634D01*
X13616581Y-14396634D02*
X13635628Y-14396634D01*
X13654676Y-14406158D01*
X13664200Y-14415682D01*
X13673724Y-14434729D01*
X13683248Y-14472824D01*
X13683248Y-14520443D01*
X13673724Y-14558539D01*
X13664200Y-14577586D01*
X13654676Y-14587110D01*
X13635628Y-14596634D01*
X13616581Y-14596634D01*
X13597533Y-14587110D01*
X13588009Y-14577586D01*
X13578486Y-14558539D01*
X13568962Y-14520443D01*
X13568962Y-14472824D01*
X13578486Y-14434729D01*
X13588009Y-14415682D01*
X13597533Y-14406158D01*
X13616581Y-14396634D01*
X13807057Y-14396634D02*
X13826105Y-14396634D01*
X13845152Y-14406158D01*
X13854676Y-14415682D01*
X13864200Y-14434729D01*
X13873724Y-14472824D01*
X13873724Y-14520443D01*
X13864200Y-14558539D01*
X13854676Y-14577586D01*
X13845152Y-14587110D01*
X13826105Y-14596634D01*
X13807057Y-14596634D01*
X13788009Y-14587110D01*
X13778486Y-14577586D01*
X13768962Y-14558539D01*
X13759438Y-14520443D01*
X13759438Y-14472824D01*
X13768962Y-14434729D01*
X13778486Y-14415682D01*
X13788009Y-14406158D01*
X13807057Y-14396634D01*
X13959438Y-14596634D02*
X13959438Y-14463301D01*
X13959438Y-14482348D02*
X13968962Y-14472824D01*
X13988009Y-14463301D01*
X14016581Y-14463301D01*
X14035628Y-14472824D01*
X14045152Y-14491872D01*
X14045152Y-14596634D01*
X14045152Y-14491872D02*
X14054676Y-14472824D01*
X14073724Y-14463301D01*
X14102295Y-14463301D01*
X14121343Y-14472824D01*
X14130867Y-14491872D01*
X14130867Y-14596634D01*
X14226105Y-14596634D02*
X14226105Y-14463301D01*
X14226105Y-14482348D02*
X14235628Y-14472824D01*
X14254676Y-14463301D01*
X14283248Y-14463301D01*
X14302295Y-14472824D01*
X14311819Y-14491872D01*
X14311819Y-14596634D01*
X14311819Y-14491872D02*
X14321343Y-14472824D01*
X14340390Y-14463301D01*
X14368962Y-14463301D01*
X14388009Y-14472824D01*
X14397533Y-14491872D01*
X14397533Y-14596634D01*
X14788009Y-14387110D02*
X14616581Y-14644253D01*
X15045152Y-14396634D02*
X15064200Y-14396634D01*
X15083248Y-14406158D01*
X15092771Y-14415682D01*
X15102295Y-14434729D01*
X15111819Y-14472824D01*
X15111819Y-14520443D01*
X15102295Y-14558539D01*
X15092771Y-14577586D01*
X15083248Y-14587110D01*
X15064200Y-14596634D01*
X15045152Y-14596634D01*
X15026105Y-14587110D01*
X15016581Y-14577586D01*
X15007057Y-14558539D01*
X14997533Y-14520443D01*
X14997533Y-14472824D01*
X15007057Y-14434729D01*
X15016581Y-14415682D01*
X15026105Y-14406158D01*
X15045152Y-14396634D01*
X15197533Y-14577586D02*
X15207057Y-14587110D01*
X15197533Y-14596634D01*
X15188009Y-14587110D01*
X15197533Y-14577586D01*
X15197533Y-14596634D01*
X15397533Y-14596634D02*
X15283248Y-14596634D01*
X15340390Y-14596634D02*
X15340390Y-14396634D01*
X15321343Y-14425205D01*
X15302295Y-14444253D01*
X15283248Y-14453777D01*
X15588009Y-14596634D02*
X15473724Y-14596634D01*
X15530867Y-14596634D02*
X15530867Y-14396634D01*
X15511819Y-14425205D01*
X15492771Y-14444253D01*
X15473724Y-14453777D01*
X15702295Y-14482348D02*
X15683248Y-14472824D01*
X15673724Y-14463301D01*
X15664200Y-14444253D01*
X15664200Y-14434729D01*
X15673724Y-14415682D01*
X15683248Y-14406158D01*
X15702295Y-14396634D01*
X15740390Y-14396634D01*
X15759438Y-14406158D01*
X15768962Y-14415682D01*
X15778486Y-14434729D01*
X15778486Y-14444253D01*
X15768962Y-14463301D01*
X15759438Y-14472824D01*
X15740390Y-14482348D01*
X15702295Y-14482348D01*
X15683248Y-14491872D01*
X15673724Y-14501396D01*
X15664200Y-14520443D01*
X15664200Y-14558539D01*
X15673724Y-14577586D01*
X15683248Y-14587110D01*
X15702295Y-14596634D01*
X15740390Y-14596634D01*
X15759438Y-14587110D01*
X15768962Y-14577586D01*
X15778486Y-14558539D01*
X15778486Y-14520443D01*
X15768962Y-14501396D01*
X15759438Y-14491872D01*
X15740390Y-14482348D01*
X15968962Y-14596634D02*
X15854676Y-14596634D01*
X15911819Y-14596634D02*
X15911819Y-14396634D01*
X15892771Y-14425205D01*
X15873724Y-14444253D01*
X15854676Y-14453777D01*
X16045152Y-14396634D02*
X16045152Y-14434729D01*
X16121343Y-14396634D02*
X16121343Y-14434729D01*
X16416581Y-14672824D02*
X16407057Y-14663301D01*
X16388009Y-14634729D01*
X16378486Y-14615682D01*
X16368962Y-14587110D01*
X16359438Y-14539491D01*
X16359438Y-14501396D01*
X16368962Y-14453777D01*
X16378486Y-14425205D01*
X16388009Y-14406158D01*
X16407057Y-14377586D01*
X16416581Y-14368062D01*
X16578486Y-14463301D02*
X16578486Y-14596634D01*
X16530867Y-14387110D02*
X16483248Y-14529967D01*
X16607057Y-14529967D01*
X16835629Y-14596634D02*
X16835629Y-14396634D01*
X16921343Y-14596634D02*
X16921343Y-14491872D01*
X16911819Y-14472824D01*
X16892771Y-14463301D01*
X16864200Y-14463301D01*
X16845152Y-14472824D01*
X16835629Y-14482348D01*
X17045152Y-14596634D02*
X17026105Y-14587110D01*
X17016581Y-14577586D01*
X17007057Y-14558539D01*
X17007057Y-14501396D01*
X17016581Y-14482348D01*
X17026105Y-14472824D01*
X17045152Y-14463301D01*
X17073724Y-14463301D01*
X17092771Y-14472824D01*
X17102295Y-14482348D01*
X17111819Y-14501396D01*
X17111819Y-14558539D01*
X17102295Y-14577586D01*
X17092771Y-14587110D01*
X17073724Y-14596634D01*
X17045152Y-14596634D01*
X17226105Y-14596634D02*
X17207057Y-14587110D01*
X17197533Y-14568062D01*
X17197533Y-14396634D01*
X17378486Y-14587110D02*
X17359438Y-14596634D01*
X17321343Y-14596634D01*
X17302295Y-14587110D01*
X17292771Y-14568062D01*
X17292771Y-14491872D01*
X17302295Y-14472824D01*
X17321343Y-14463301D01*
X17359438Y-14463301D01*
X17378486Y-14472824D01*
X17388010Y-14491872D01*
X17388010Y-14510920D01*
X17292771Y-14529967D01*
X17464200Y-14587110D02*
X17483248Y-14596634D01*
X17521343Y-14596634D01*
X17540390Y-14587110D01*
X17549914Y-14568062D01*
X17549914Y-14558539D01*
X17540390Y-14539491D01*
X17521343Y-14529967D01*
X17492771Y-14529967D01*
X17473724Y-14520443D01*
X17464200Y-14501396D01*
X17464200Y-14491872D01*
X17473724Y-14472824D01*
X17492771Y-14463301D01*
X17521343Y-14463301D01*
X17540390Y-14472824D01*
X17616581Y-14672824D02*
X17626105Y-14663301D01*
X17645152Y-14634729D01*
X17654676Y-14615682D01*
X17664200Y-14587110D01*
X17673724Y-14539491D01*
X17673724Y-14501396D01*
X17664200Y-14453777D01*
X17654676Y-14425205D01*
X17645152Y-14406158D01*
X17626105Y-14377586D01*
X17616581Y-14368062D01*
X17978486Y-14672824D02*
X17968962Y-14663301D01*
X17949914Y-14634729D01*
X17940390Y-14615682D01*
X17930867Y-14587110D01*
X17921343Y-14539491D01*
X17921343Y-14501396D01*
X17930867Y-14453777D01*
X17940390Y-14425205D01*
X17949914Y-14406158D01*
X17968962Y-14377586D01*
X17978486Y-14368062D01*
X18054676Y-14463301D02*
X18054676Y-14596634D01*
X18054676Y-14482348D02*
X18064200Y-14472824D01*
X18083248Y-14463301D01*
X18111819Y-14463301D01*
X18130867Y-14472824D01*
X18140390Y-14491872D01*
X18140390Y-14596634D01*
X18264200Y-14596634D02*
X18245152Y-14587110D01*
X18235629Y-14577586D01*
X18226105Y-14558539D01*
X18226105Y-14501396D01*
X18235629Y-14482348D01*
X18245152Y-14472824D01*
X18264200Y-14463301D01*
X18292771Y-14463301D01*
X18311819Y-14472824D01*
X18321343Y-14482348D01*
X18330867Y-14501396D01*
X18330867Y-14558539D01*
X18321343Y-14577586D01*
X18311819Y-14587110D01*
X18292771Y-14596634D01*
X18264200Y-14596634D01*
X18388010Y-14463301D02*
X18464200Y-14463301D01*
X18416581Y-14396634D02*
X18416581Y-14568062D01*
X18426105Y-14587110D01*
X18445152Y-14596634D01*
X18464200Y-14596634D01*
X18683248Y-14463301D02*
X18683248Y-14663301D01*
X18683248Y-14472824D02*
X18702295Y-14463301D01*
X18740390Y-14463301D01*
X18759438Y-14472824D01*
X18768962Y-14482348D01*
X18778486Y-14501396D01*
X18778486Y-14558539D01*
X18768962Y-14577586D01*
X18759438Y-14587110D01*
X18740390Y-14596634D01*
X18702295Y-14596634D01*
X18683248Y-14587110D01*
X18892771Y-14596634D02*
X18873724Y-14587110D01*
X18864200Y-14568062D01*
X18864200Y-14396634D01*
X19054676Y-14596634D02*
X19054676Y-14491872D01*
X19045152Y-14472824D01*
X19026105Y-14463301D01*
X18988010Y-14463301D01*
X18968962Y-14472824D01*
X19054676Y-14587110D02*
X19035629Y-14596634D01*
X18988010Y-14596634D01*
X18968962Y-14587110D01*
X18959438Y-14568062D01*
X18959438Y-14549015D01*
X18968962Y-14529967D01*
X18988010Y-14520443D01*
X19035629Y-14520443D01*
X19054676Y-14510920D01*
X19121343Y-14463301D02*
X19197533Y-14463301D01*
X19149914Y-14396634D02*
X19149914Y-14568062D01*
X19159438Y-14587110D01*
X19178486Y-14596634D01*
X19197533Y-14596634D01*
X19340390Y-14587110D02*
X19321343Y-14596634D01*
X19283248Y-14596634D01*
X19264200Y-14587110D01*
X19254676Y-14568062D01*
X19254676Y-14491872D01*
X19264200Y-14472824D01*
X19283248Y-14463301D01*
X19321343Y-14463301D01*
X19340390Y-14472824D01*
X19349914Y-14491872D01*
X19349914Y-14510920D01*
X19254676Y-14529967D01*
X19521343Y-14596634D02*
X19521343Y-14396634D01*
X19521343Y-14587110D02*
X19502295Y-14596634D01*
X19464200Y-14596634D01*
X19445152Y-14587110D01*
X19435629Y-14577586D01*
X19426105Y-14558539D01*
X19426105Y-14501396D01*
X19435629Y-14482348D01*
X19445152Y-14472824D01*
X19464200Y-14463301D01*
X19502295Y-14463301D01*
X19521343Y-14472824D01*
X19597533Y-14672824D02*
X19607057Y-14663301D01*
X19626105Y-14634729D01*
X19635629Y-14615682D01*
X19645152Y-14587110D01*
X19654676Y-14539491D01*
X19654676Y-14501396D01*
X19645152Y-14453777D01*
X19635629Y-14425205D01*
X19626105Y-14406158D01*
X19607057Y-14377586D01*
X19597533Y-14368062D01*
M02*
