%TF.GenerationSoftware,KiCad,Pcbnew,(6.0.7)*%
%TF.CreationDate,2022-12-02T21:15:22-06:00*%
%TF.ProjectId,BPS-Fan,4250532d-4661-46e2-9e6b-696361645f70,rev?*%
%TF.SameCoordinates,Original*%
%TF.FileFunction,Drillmap*%
%TF.FilePolarity,Positive*%
%FSLAX45Y45*%
G04 Gerber Fmt 4.5, Leading zero omitted, Abs format (unit mm)*
G04 Created by KiCad (PCBNEW (6.0.7)) date 2022-12-02 21:15:22*
%MOMM*%
%LPD*%
G01*
G04 APERTURE LIST*
%ADD10C,0.050000*%
%ADD11C,0.200000*%
%ADD12C,0.040000*%
%ADD13C,0.076200*%
%ADD14C,0.100000*%
%ADD15C,0.102000*%
%ADD16C,0.127000*%
%ADD17C,0.300000*%
G04 APERTURE END LIST*
D10*
X18290000Y-11614000D02*
G75*
G03*
X18580000Y-11350000I13000J277000D01*
G01*
X12849679Y-11182061D02*
G75*
G03*
X13279676Y-11614561I431251J-1249D01*
G01*
X13140000Y-4070000D02*
G75*
G03*
X12850000Y-4390000I15000J-305000D01*
G01*
X18580000Y-4390000D02*
G75*
G03*
X18290000Y-4070000I-305000J15000D01*
G01*
X12849676Y-11182061D02*
X12850000Y-4390000D01*
X18290000Y-11614000D02*
X13279676Y-11614561D01*
X18580000Y-4390000D02*
X18580000Y-11350000D01*
X13140000Y-4070000D02*
X18290000Y-4070000D01*
D11*
D12*
X13555926Y-6384561D02*
X13595926Y-6424561D01*
X13595926Y-6384561D02*
X13555926Y-6424561D01*
X14913426Y-6382061D02*
X14953426Y-6422061D01*
X14953426Y-6382061D02*
X14913426Y-6422061D01*
X16261426Y-6379561D02*
X16301426Y-6419561D01*
X16301426Y-6379561D02*
X16261426Y-6419561D01*
X17080000Y-4630000D02*
X17120000Y-4670000D01*
X17120000Y-4630000D02*
X17080000Y-4670000D01*
X17738926Y-6378000D02*
X17778926Y-6418000D01*
X17778926Y-6378000D02*
X17738926Y-6418000D01*
D13*
X14010276Y-7257061D02*
G75*
G03*
X14010276Y-7257061I-38100J0D01*
G01*
X15408100Y-7260000D02*
G75*
G03*
X15408100Y-7260000I-38100J0D01*
G01*
X16745276Y-7257061D02*
G75*
G03*
X16745276Y-7257061I-38100J0D01*
G01*
X18207776Y-7258000D02*
G75*
G03*
X18207776Y-7258000I-38100J0D01*
G01*
D14*
X15380000Y-4930000D02*
X15380000Y-5030000D01*
X15330000Y-4980000D02*
X15430000Y-4980000D01*
X15380000Y-5230000D02*
X15380000Y-5330000D01*
X15330000Y-5280000D02*
X15430000Y-5280000D01*
X15680000Y-4930000D02*
X15680000Y-5030000D01*
X15630000Y-4980000D02*
X15730000Y-4980000D01*
X15680000Y-5230000D02*
X15680000Y-5330000D01*
X15630000Y-5280000D02*
X15730000Y-5280000D01*
X15980000Y-4930000D02*
X15980000Y-5030000D01*
X15930000Y-4980000D02*
X16030000Y-4980000D01*
X15980000Y-5230000D02*
X15980000Y-5330000D01*
X15930000Y-5280000D02*
X16030000Y-5280000D01*
D15*
X13536063Y-7916124D02*
X13536063Y-7843998D01*
X13463937Y-7843998D01*
X13463937Y-7916124D01*
X13536063Y-7916124D01*
X13536063Y-9166124D02*
X13536063Y-9093998D01*
X13463937Y-9093998D01*
X13463937Y-9166124D01*
X13536063Y-9166124D01*
X13536063Y-10416124D02*
X13536063Y-10343998D01*
X13463937Y-10343998D01*
X13463937Y-10416124D01*
X13536063Y-10416124D01*
X13836063Y-7916124D02*
X13836063Y-7843998D01*
X13763937Y-7843998D01*
X13763937Y-7916124D01*
X13836063Y-7916124D01*
X13836063Y-9166124D02*
X13836063Y-9093998D01*
X13763937Y-9093998D01*
X13763937Y-9166124D01*
X13836063Y-9166124D01*
X13836063Y-10416124D02*
X13836063Y-10343998D01*
X13763937Y-10343998D01*
X13763937Y-10416124D01*
X13836063Y-10416124D01*
X14936063Y-7916124D02*
X14936063Y-7843998D01*
X14863937Y-7843998D01*
X14863937Y-7916124D01*
X14936063Y-7916124D01*
X14936063Y-9166124D02*
X14936063Y-9093998D01*
X14863937Y-9093998D01*
X14863937Y-9166124D01*
X14936063Y-9166124D01*
X14936063Y-10416124D02*
X14936063Y-10343998D01*
X14863937Y-10343998D01*
X14863937Y-10416124D01*
X14936063Y-10416124D01*
X15236063Y-7916124D02*
X15236063Y-7843998D01*
X15163937Y-7843998D01*
X15163937Y-7916124D01*
X15236063Y-7916124D01*
X15236063Y-9166124D02*
X15236063Y-9093998D01*
X15163937Y-9093998D01*
X15163937Y-9166124D01*
X15236063Y-9166124D01*
X15236063Y-10416124D02*
X15236063Y-10343998D01*
X15163937Y-10343998D01*
X15163937Y-10416124D01*
X15236063Y-10416124D01*
X16336063Y-7916124D02*
X16336063Y-7843998D01*
X16263937Y-7843998D01*
X16263937Y-7916124D01*
X16336063Y-7916124D01*
X16336063Y-9166124D02*
X16336063Y-9093998D01*
X16263937Y-9093998D01*
X16263937Y-9166124D01*
X16336063Y-9166124D01*
X16336063Y-10416124D02*
X16336063Y-10343998D01*
X16263937Y-10343998D01*
X16263937Y-10416124D01*
X16336063Y-10416124D01*
X16636063Y-7916124D02*
X16636063Y-7843998D01*
X16563937Y-7843998D01*
X16563937Y-7916124D01*
X16636063Y-7916124D01*
X16636063Y-9166124D02*
X16636063Y-9093998D01*
X16563937Y-9093998D01*
X16563937Y-9166124D01*
X16636063Y-9166124D01*
X16636063Y-10416124D02*
X16636063Y-10343998D01*
X16563937Y-10343998D01*
X16563937Y-10416124D01*
X16636063Y-10416124D01*
X17736063Y-7916124D02*
X17736063Y-7843998D01*
X17663937Y-7843998D01*
X17663937Y-7916124D01*
X17736063Y-7916124D01*
X17736063Y-9166124D02*
X17736063Y-9093998D01*
X17663937Y-9093998D01*
X17663937Y-9166124D01*
X17736063Y-9166124D01*
X17736063Y-10416124D02*
X17736063Y-10343998D01*
X17663937Y-10343998D01*
X17663937Y-10416124D01*
X17736063Y-10416124D01*
X18036063Y-7916124D02*
X18036063Y-7843998D01*
X17963937Y-7843998D01*
X17963937Y-7916124D01*
X18036063Y-7916124D01*
X18036063Y-9166124D02*
X18036063Y-9093998D01*
X17963937Y-9093998D01*
X17963937Y-9166124D01*
X18036063Y-9166124D01*
X18036063Y-10416124D02*
X18036063Y-10343998D01*
X17963937Y-10343998D01*
X17963937Y-10416124D01*
X18036063Y-10416124D01*
D14*
X15080000Y-4936000D02*
X15130000Y-4886000D01*
X15080000Y-4836000D01*
X15030000Y-4886000D01*
X15080000Y-4936000D01*
X16280000Y-4936000D02*
X16330000Y-4886000D01*
X16280000Y-4836000D01*
X16230000Y-4886000D01*
X16280000Y-4936000D01*
D16*
X13136500Y-8012561D02*
X13263500Y-8139561D01*
X13263500Y-8012561D02*
X13136500Y-8139561D01*
X13263500Y-8076061D02*
G75*
G03*
X13263500Y-8076061I-63500J0D01*
G01*
X13136500Y-9262561D02*
X13263500Y-9389561D01*
X13263500Y-9262561D02*
X13136500Y-9389561D01*
X13263500Y-9326061D02*
G75*
G03*
X13263500Y-9326061I-63500J0D01*
G01*
X13136500Y-10512561D02*
X13263500Y-10639561D01*
X13263500Y-10512561D02*
X13136500Y-10639561D01*
X13263500Y-10576061D02*
G75*
G03*
X13263500Y-10576061I-63500J0D01*
G01*
X14036500Y-8012561D02*
X14163500Y-8139561D01*
X14163500Y-8012561D02*
X14036500Y-8139561D01*
X14163500Y-8076061D02*
G75*
G03*
X14163500Y-8076061I-63500J0D01*
G01*
X14036500Y-9262561D02*
X14163500Y-9389561D01*
X14163500Y-9262561D02*
X14036500Y-9389561D01*
X14163500Y-9326061D02*
G75*
G03*
X14163500Y-9326061I-63500J0D01*
G01*
X14036500Y-10512561D02*
X14163500Y-10639561D01*
X14163500Y-10512561D02*
X14036500Y-10639561D01*
X14163500Y-10576061D02*
G75*
G03*
X14163500Y-10576061I-63500J0D01*
G01*
X14536500Y-8012561D02*
X14663500Y-8139561D01*
X14663500Y-8012561D02*
X14536500Y-8139561D01*
X14663500Y-8076061D02*
G75*
G03*
X14663500Y-8076061I-63500J0D01*
G01*
X14536500Y-9262561D02*
X14663500Y-9389561D01*
X14663500Y-9262561D02*
X14536500Y-9389561D01*
X14663500Y-9326061D02*
G75*
G03*
X14663500Y-9326061I-63500J0D01*
G01*
X14536500Y-10512561D02*
X14663500Y-10639561D01*
X14663500Y-10512561D02*
X14536500Y-10639561D01*
X14663500Y-10576061D02*
G75*
G03*
X14663500Y-10576061I-63500J0D01*
G01*
X15436500Y-8012561D02*
X15563500Y-8139561D01*
X15563500Y-8012561D02*
X15436500Y-8139561D01*
X15563500Y-8076061D02*
G75*
G03*
X15563500Y-8076061I-63500J0D01*
G01*
X15436500Y-9262561D02*
X15563500Y-9389561D01*
X15563500Y-9262561D02*
X15436500Y-9389561D01*
X15563500Y-9326061D02*
G75*
G03*
X15563500Y-9326061I-63500J0D01*
G01*
X15436500Y-10512561D02*
X15563500Y-10639561D01*
X15563500Y-10512561D02*
X15436500Y-10639561D01*
X15563500Y-10576061D02*
G75*
G03*
X15563500Y-10576061I-63500J0D01*
G01*
X15936500Y-8012561D02*
X16063500Y-8139561D01*
X16063500Y-8012561D02*
X15936500Y-8139561D01*
X16063500Y-8076061D02*
G75*
G03*
X16063500Y-8076061I-63500J0D01*
G01*
X15936500Y-9262561D02*
X16063500Y-9389561D01*
X16063500Y-9262561D02*
X15936500Y-9389561D01*
X16063500Y-9326061D02*
G75*
G03*
X16063500Y-9326061I-63500J0D01*
G01*
X15936500Y-10512561D02*
X16063500Y-10639561D01*
X16063500Y-10512561D02*
X15936500Y-10639561D01*
X16063500Y-10576061D02*
G75*
G03*
X16063500Y-10576061I-63500J0D01*
G01*
X16836500Y-8012561D02*
X16963500Y-8139561D01*
X16963500Y-8012561D02*
X16836500Y-8139561D01*
X16963500Y-8076061D02*
G75*
G03*
X16963500Y-8076061I-63500J0D01*
G01*
X16836500Y-9262561D02*
X16963500Y-9389561D01*
X16963500Y-9262561D02*
X16836500Y-9389561D01*
X16963500Y-9326061D02*
G75*
G03*
X16963500Y-9326061I-63500J0D01*
G01*
X16836500Y-10512561D02*
X16963500Y-10639561D01*
X16963500Y-10512561D02*
X16836500Y-10639561D01*
X16963500Y-10576061D02*
G75*
G03*
X16963500Y-10576061I-63500J0D01*
G01*
X17336500Y-8012561D02*
X17463500Y-8139561D01*
X17463500Y-8012561D02*
X17336500Y-8139561D01*
X17463500Y-8076061D02*
G75*
G03*
X17463500Y-8076061I-63500J0D01*
G01*
X17336500Y-9262561D02*
X17463500Y-9389561D01*
X17463500Y-9262561D02*
X17336500Y-9389561D01*
X17463500Y-9326061D02*
G75*
G03*
X17463500Y-9326061I-63500J0D01*
G01*
X17336500Y-10512561D02*
X17463500Y-10639561D01*
X17463500Y-10512561D02*
X17336500Y-10639561D01*
X17463500Y-10576061D02*
G75*
G03*
X17463500Y-10576061I-63500J0D01*
G01*
X18236500Y-8012561D02*
X18363500Y-8139561D01*
X18363500Y-8012561D02*
X18236500Y-8139561D01*
X18363500Y-8076061D02*
G75*
G03*
X18363500Y-8076061I-63500J0D01*
G01*
X18236500Y-9262561D02*
X18363500Y-9389561D01*
X18363500Y-9262561D02*
X18236500Y-9389561D01*
X18363500Y-9326061D02*
G75*
G03*
X18363500Y-9326061I-63500J0D01*
G01*
X18236500Y-10512561D02*
X18363500Y-10639561D01*
X18363500Y-10512561D02*
X18236500Y-10639561D01*
X18363500Y-10576061D02*
G75*
G03*
X18363500Y-10576061I-63500J0D01*
G01*
D17*
X13199676Y-10964561D02*
X13499676Y-11264561D01*
X13499676Y-10964561D02*
X13199676Y-11264561D01*
X13349676Y-10964561D02*
X13349676Y-11264561D01*
X13199676Y-11114561D02*
X13499676Y-11114561D01*
X13199680Y-4419560D02*
X13499680Y-4719560D01*
X13499680Y-4419560D02*
X13199680Y-4719560D01*
X13349680Y-4419560D02*
X13349680Y-4719560D01*
X13199680Y-4569560D02*
X13499680Y-4569560D01*
X17929676Y-10964561D02*
X18229676Y-11264561D01*
X18229676Y-10964561D02*
X17929676Y-11264561D01*
X18079676Y-10964561D02*
X18079676Y-11264561D01*
X17929676Y-11114561D02*
X18229676Y-11114561D01*
X17929680Y-4419560D02*
X18229680Y-4719560D01*
X18229680Y-4419560D02*
X17929680Y-4719560D01*
X18079680Y-4419560D02*
X18079680Y-4719560D01*
X17929680Y-4569560D02*
X18229680Y-4569560D01*
D11*
X13104750Y-11927537D02*
X13104750Y-11727537D01*
X13152369Y-11727537D01*
X13180941Y-11737061D01*
X13199988Y-11756109D01*
X13209512Y-11775156D01*
X13219036Y-11813251D01*
X13219036Y-11841823D01*
X13209512Y-11879918D01*
X13199988Y-11898966D01*
X13180941Y-11918013D01*
X13152369Y-11927537D01*
X13104750Y-11927537D01*
X13304750Y-11927537D02*
X13304750Y-11794204D01*
X13304750Y-11832299D02*
X13314274Y-11813251D01*
X13323798Y-11803728D01*
X13342846Y-11794204D01*
X13361893Y-11794204D01*
X13428560Y-11927537D02*
X13428560Y-11794204D01*
X13428560Y-11727537D02*
X13419036Y-11737061D01*
X13428560Y-11746585D01*
X13438084Y-11737061D01*
X13428560Y-11727537D01*
X13428560Y-11746585D01*
X13552369Y-11927537D02*
X13533322Y-11918013D01*
X13523798Y-11898966D01*
X13523798Y-11727537D01*
X13657131Y-11927537D02*
X13638084Y-11918013D01*
X13628560Y-11898966D01*
X13628560Y-11727537D01*
X13885703Y-11927537D02*
X13885703Y-11727537D01*
X13952369Y-11870394D01*
X14019036Y-11727537D01*
X14019036Y-11927537D01*
X14199988Y-11927537D02*
X14199988Y-11822775D01*
X14190465Y-11803728D01*
X14171417Y-11794204D01*
X14133322Y-11794204D01*
X14114274Y-11803728D01*
X14199988Y-11918013D02*
X14180941Y-11927537D01*
X14133322Y-11927537D01*
X14114274Y-11918013D01*
X14104750Y-11898966D01*
X14104750Y-11879918D01*
X14114274Y-11860870D01*
X14133322Y-11851347D01*
X14180941Y-11851347D01*
X14199988Y-11841823D01*
X14295227Y-11794204D02*
X14295227Y-11994204D01*
X14295227Y-11803728D02*
X14314274Y-11794204D01*
X14352369Y-11794204D01*
X14371417Y-11803728D01*
X14380941Y-11813251D01*
X14390465Y-11832299D01*
X14390465Y-11889442D01*
X14380941Y-11908489D01*
X14371417Y-11918013D01*
X14352369Y-11927537D01*
X14314274Y-11927537D01*
X14295227Y-11918013D01*
X14476179Y-11908489D02*
X14485703Y-11918013D01*
X14476179Y-11927537D01*
X14466655Y-11918013D01*
X14476179Y-11908489D01*
X14476179Y-11927537D01*
X14476179Y-11803728D02*
X14485703Y-11813251D01*
X14476179Y-11822775D01*
X14466655Y-11813251D01*
X14476179Y-11803728D01*
X14476179Y-11822775D01*
D12*
X12807131Y-12237061D02*
X12847131Y-12277061D01*
X12847131Y-12237061D02*
X12807131Y-12277061D01*
D11*
X13142846Y-12147537D02*
X13161893Y-12147537D01*
X13180941Y-12157061D01*
X13190465Y-12166585D01*
X13199988Y-12185632D01*
X13209512Y-12223728D01*
X13209512Y-12271347D01*
X13199988Y-12309442D01*
X13190465Y-12328489D01*
X13180941Y-12338013D01*
X13161893Y-12347537D01*
X13142846Y-12347537D01*
X13123798Y-12338013D01*
X13114274Y-12328489D01*
X13104750Y-12309442D01*
X13095227Y-12271347D01*
X13095227Y-12223728D01*
X13104750Y-12185632D01*
X13114274Y-12166585D01*
X13123798Y-12157061D01*
X13142846Y-12147537D01*
X13295227Y-12328489D02*
X13304750Y-12338013D01*
X13295227Y-12347537D01*
X13285703Y-12338013D01*
X13295227Y-12328489D01*
X13295227Y-12347537D01*
X13476179Y-12214204D02*
X13476179Y-12347537D01*
X13428560Y-12138013D02*
X13380941Y-12280870D01*
X13504750Y-12280870D01*
X13619036Y-12147537D02*
X13638084Y-12147537D01*
X13657131Y-12157061D01*
X13666655Y-12166585D01*
X13676179Y-12185632D01*
X13685703Y-12223728D01*
X13685703Y-12271347D01*
X13676179Y-12309442D01*
X13666655Y-12328489D01*
X13657131Y-12338013D01*
X13638084Y-12347537D01*
X13619036Y-12347537D01*
X13599988Y-12338013D01*
X13590465Y-12328489D01*
X13580941Y-12309442D01*
X13571417Y-12271347D01*
X13571417Y-12223728D01*
X13580941Y-12185632D01*
X13590465Y-12166585D01*
X13599988Y-12157061D01*
X13619036Y-12147537D01*
X13809512Y-12147537D02*
X13828560Y-12147537D01*
X13847607Y-12157061D01*
X13857131Y-12166585D01*
X13866655Y-12185632D01*
X13876179Y-12223728D01*
X13876179Y-12271347D01*
X13866655Y-12309442D01*
X13857131Y-12328489D01*
X13847607Y-12338013D01*
X13828560Y-12347537D01*
X13809512Y-12347537D01*
X13790465Y-12338013D01*
X13780941Y-12328489D01*
X13771417Y-12309442D01*
X13761893Y-12271347D01*
X13761893Y-12223728D01*
X13771417Y-12185632D01*
X13780941Y-12166585D01*
X13790465Y-12157061D01*
X13809512Y-12147537D01*
X13961893Y-12347537D02*
X13961893Y-12214204D01*
X13961893Y-12233251D02*
X13971417Y-12223728D01*
X13990465Y-12214204D01*
X14019036Y-12214204D01*
X14038084Y-12223728D01*
X14047607Y-12242775D01*
X14047607Y-12347537D01*
X14047607Y-12242775D02*
X14057131Y-12223728D01*
X14076179Y-12214204D01*
X14104750Y-12214204D01*
X14123798Y-12223728D01*
X14133322Y-12242775D01*
X14133322Y-12347537D01*
X14228560Y-12347537D02*
X14228560Y-12214204D01*
X14228560Y-12233251D02*
X14238084Y-12223728D01*
X14257131Y-12214204D01*
X14285703Y-12214204D01*
X14304750Y-12223728D01*
X14314274Y-12242775D01*
X14314274Y-12347537D01*
X14314274Y-12242775D02*
X14323798Y-12223728D01*
X14342846Y-12214204D01*
X14371417Y-12214204D01*
X14390465Y-12223728D01*
X14399988Y-12242775D01*
X14399988Y-12347537D01*
X14790465Y-12138013D02*
X14619036Y-12395156D01*
X15047607Y-12147537D02*
X15066655Y-12147537D01*
X15085703Y-12157061D01*
X15095227Y-12166585D01*
X15104750Y-12185632D01*
X15114274Y-12223728D01*
X15114274Y-12271347D01*
X15104750Y-12309442D01*
X15095227Y-12328489D01*
X15085703Y-12338013D01*
X15066655Y-12347537D01*
X15047607Y-12347537D01*
X15028560Y-12338013D01*
X15019036Y-12328489D01*
X15009512Y-12309442D01*
X14999988Y-12271347D01*
X14999988Y-12223728D01*
X15009512Y-12185632D01*
X15019036Y-12166585D01*
X15028560Y-12157061D01*
X15047607Y-12147537D01*
X15199988Y-12328489D02*
X15209512Y-12338013D01*
X15199988Y-12347537D01*
X15190465Y-12338013D01*
X15199988Y-12328489D01*
X15199988Y-12347537D01*
X15333322Y-12147537D02*
X15352369Y-12147537D01*
X15371417Y-12157061D01*
X15380941Y-12166585D01*
X15390465Y-12185632D01*
X15399988Y-12223728D01*
X15399988Y-12271347D01*
X15390465Y-12309442D01*
X15380941Y-12328489D01*
X15371417Y-12338013D01*
X15352369Y-12347537D01*
X15333322Y-12347537D01*
X15314274Y-12338013D01*
X15304750Y-12328489D01*
X15295227Y-12309442D01*
X15285703Y-12271347D01*
X15285703Y-12223728D01*
X15295227Y-12185632D01*
X15304750Y-12166585D01*
X15314274Y-12157061D01*
X15333322Y-12147537D01*
X15590465Y-12347537D02*
X15476179Y-12347537D01*
X15533322Y-12347537D02*
X15533322Y-12147537D01*
X15514274Y-12176109D01*
X15495227Y-12195156D01*
X15476179Y-12204680D01*
X15771417Y-12147537D02*
X15676179Y-12147537D01*
X15666655Y-12242775D01*
X15676179Y-12233251D01*
X15695227Y-12223728D01*
X15742846Y-12223728D01*
X15761893Y-12233251D01*
X15771417Y-12242775D01*
X15780941Y-12261823D01*
X15780941Y-12309442D01*
X15771417Y-12328489D01*
X15761893Y-12338013D01*
X15742846Y-12347537D01*
X15695227Y-12347537D01*
X15676179Y-12338013D01*
X15666655Y-12328489D01*
X15847607Y-12147537D02*
X15980941Y-12147537D01*
X15895227Y-12347537D01*
X16047607Y-12147537D02*
X16047607Y-12185632D01*
X16123798Y-12147537D02*
X16123798Y-12185632D01*
X16419036Y-12423728D02*
X16409512Y-12414204D01*
X16390465Y-12385632D01*
X16380941Y-12366585D01*
X16371417Y-12338013D01*
X16361893Y-12290394D01*
X16361893Y-12252299D01*
X16371417Y-12204680D01*
X16380941Y-12176109D01*
X16390465Y-12157061D01*
X16409512Y-12128489D01*
X16419036Y-12118966D01*
X16590465Y-12147537D02*
X16495227Y-12147537D01*
X16485703Y-12242775D01*
X16495227Y-12233251D01*
X16514274Y-12223728D01*
X16561893Y-12223728D01*
X16580941Y-12233251D01*
X16590465Y-12242775D01*
X16599988Y-12261823D01*
X16599988Y-12309442D01*
X16590465Y-12328489D01*
X16580941Y-12338013D01*
X16561893Y-12347537D01*
X16514274Y-12347537D01*
X16495227Y-12338013D01*
X16485703Y-12328489D01*
X16838084Y-12347537D02*
X16838084Y-12147537D01*
X16923798Y-12347537D02*
X16923798Y-12242775D01*
X16914274Y-12223728D01*
X16895227Y-12214204D01*
X16866655Y-12214204D01*
X16847608Y-12223728D01*
X16838084Y-12233251D01*
X17047608Y-12347537D02*
X17028560Y-12338013D01*
X17019036Y-12328489D01*
X17009512Y-12309442D01*
X17009512Y-12252299D01*
X17019036Y-12233251D01*
X17028560Y-12223728D01*
X17047608Y-12214204D01*
X17076179Y-12214204D01*
X17095227Y-12223728D01*
X17104750Y-12233251D01*
X17114274Y-12252299D01*
X17114274Y-12309442D01*
X17104750Y-12328489D01*
X17095227Y-12338013D01*
X17076179Y-12347537D01*
X17047608Y-12347537D01*
X17228560Y-12347537D02*
X17209512Y-12338013D01*
X17199989Y-12318966D01*
X17199989Y-12147537D01*
X17380941Y-12338013D02*
X17361893Y-12347537D01*
X17323798Y-12347537D01*
X17304750Y-12338013D01*
X17295227Y-12318966D01*
X17295227Y-12242775D01*
X17304750Y-12223728D01*
X17323798Y-12214204D01*
X17361893Y-12214204D01*
X17380941Y-12223728D01*
X17390465Y-12242775D01*
X17390465Y-12261823D01*
X17295227Y-12280870D01*
X17466655Y-12338013D02*
X17485703Y-12347537D01*
X17523798Y-12347537D01*
X17542846Y-12338013D01*
X17552369Y-12318966D01*
X17552369Y-12309442D01*
X17542846Y-12290394D01*
X17523798Y-12280870D01*
X17495227Y-12280870D01*
X17476179Y-12271347D01*
X17466655Y-12252299D01*
X17466655Y-12242775D01*
X17476179Y-12223728D01*
X17495227Y-12214204D01*
X17523798Y-12214204D01*
X17542846Y-12223728D01*
X17619036Y-12423728D02*
X17628560Y-12414204D01*
X17647608Y-12385632D01*
X17657131Y-12366585D01*
X17666655Y-12338013D01*
X17676179Y-12290394D01*
X17676179Y-12252299D01*
X17666655Y-12204680D01*
X17657131Y-12176109D01*
X17647608Y-12157061D01*
X17628560Y-12128489D01*
X17619036Y-12118966D01*
D13*
X12847131Y-12521061D02*
G75*
G03*
X12847131Y-12521061I-38100J0D01*
G01*
D11*
X13142846Y-12411537D02*
X13161893Y-12411537D01*
X13180941Y-12421061D01*
X13190465Y-12430585D01*
X13199988Y-12449632D01*
X13209512Y-12487728D01*
X13209512Y-12535347D01*
X13199988Y-12573442D01*
X13190465Y-12592489D01*
X13180941Y-12602013D01*
X13161893Y-12611537D01*
X13142846Y-12611537D01*
X13123798Y-12602013D01*
X13114274Y-12592489D01*
X13104750Y-12573442D01*
X13095227Y-12535347D01*
X13095227Y-12487728D01*
X13104750Y-12449632D01*
X13114274Y-12430585D01*
X13123798Y-12421061D01*
X13142846Y-12411537D01*
X13295227Y-12592489D02*
X13304750Y-12602013D01*
X13295227Y-12611537D01*
X13285703Y-12602013D01*
X13295227Y-12592489D01*
X13295227Y-12611537D01*
X13371417Y-12411537D02*
X13504750Y-12411537D01*
X13419036Y-12611537D01*
X13666655Y-12411537D02*
X13628560Y-12411537D01*
X13609512Y-12421061D01*
X13599988Y-12430585D01*
X13580941Y-12459156D01*
X13571417Y-12497251D01*
X13571417Y-12573442D01*
X13580941Y-12592489D01*
X13590465Y-12602013D01*
X13609512Y-12611537D01*
X13647607Y-12611537D01*
X13666655Y-12602013D01*
X13676179Y-12592489D01*
X13685703Y-12573442D01*
X13685703Y-12525823D01*
X13676179Y-12506775D01*
X13666655Y-12497251D01*
X13647607Y-12487728D01*
X13609512Y-12487728D01*
X13590465Y-12497251D01*
X13580941Y-12506775D01*
X13571417Y-12525823D01*
X13761893Y-12430585D02*
X13771417Y-12421061D01*
X13790465Y-12411537D01*
X13838084Y-12411537D01*
X13857131Y-12421061D01*
X13866655Y-12430585D01*
X13876179Y-12449632D01*
X13876179Y-12468680D01*
X13866655Y-12497251D01*
X13752369Y-12611537D01*
X13876179Y-12611537D01*
X13961893Y-12611537D02*
X13961893Y-12478204D01*
X13961893Y-12497251D02*
X13971417Y-12487728D01*
X13990465Y-12478204D01*
X14019036Y-12478204D01*
X14038084Y-12487728D01*
X14047607Y-12506775D01*
X14047607Y-12611537D01*
X14047607Y-12506775D02*
X14057131Y-12487728D01*
X14076179Y-12478204D01*
X14104750Y-12478204D01*
X14123798Y-12487728D01*
X14133322Y-12506775D01*
X14133322Y-12611537D01*
X14228560Y-12611537D02*
X14228560Y-12478204D01*
X14228560Y-12497251D02*
X14238084Y-12487728D01*
X14257131Y-12478204D01*
X14285703Y-12478204D01*
X14304750Y-12487728D01*
X14314274Y-12506775D01*
X14314274Y-12611537D01*
X14314274Y-12506775D02*
X14323798Y-12487728D01*
X14342846Y-12478204D01*
X14371417Y-12478204D01*
X14390465Y-12487728D01*
X14399988Y-12506775D01*
X14399988Y-12611537D01*
X14790465Y-12402013D02*
X14619036Y-12659156D01*
X15047607Y-12411537D02*
X15066655Y-12411537D01*
X15085703Y-12421061D01*
X15095227Y-12430585D01*
X15104750Y-12449632D01*
X15114274Y-12487728D01*
X15114274Y-12535347D01*
X15104750Y-12573442D01*
X15095227Y-12592489D01*
X15085703Y-12602013D01*
X15066655Y-12611537D01*
X15047607Y-12611537D01*
X15028560Y-12602013D01*
X15019036Y-12592489D01*
X15009512Y-12573442D01*
X14999988Y-12535347D01*
X14999988Y-12487728D01*
X15009512Y-12449632D01*
X15019036Y-12430585D01*
X15028560Y-12421061D01*
X15047607Y-12411537D01*
X15199988Y-12592489D02*
X15209512Y-12602013D01*
X15199988Y-12611537D01*
X15190465Y-12602013D01*
X15199988Y-12592489D01*
X15199988Y-12611537D01*
X15333322Y-12411537D02*
X15352369Y-12411537D01*
X15371417Y-12421061D01*
X15380941Y-12430585D01*
X15390465Y-12449632D01*
X15399988Y-12487728D01*
X15399988Y-12535347D01*
X15390465Y-12573442D01*
X15380941Y-12592489D01*
X15371417Y-12602013D01*
X15352369Y-12611537D01*
X15333322Y-12611537D01*
X15314274Y-12602013D01*
X15304750Y-12592489D01*
X15295227Y-12573442D01*
X15285703Y-12535347D01*
X15285703Y-12487728D01*
X15295227Y-12449632D01*
X15304750Y-12430585D01*
X15314274Y-12421061D01*
X15333322Y-12411537D01*
X15466655Y-12411537D02*
X15590465Y-12411537D01*
X15523798Y-12487728D01*
X15552369Y-12487728D01*
X15571417Y-12497251D01*
X15580941Y-12506775D01*
X15590465Y-12525823D01*
X15590465Y-12573442D01*
X15580941Y-12592489D01*
X15571417Y-12602013D01*
X15552369Y-12611537D01*
X15495227Y-12611537D01*
X15476179Y-12602013D01*
X15466655Y-12592489D01*
X15714274Y-12411537D02*
X15733322Y-12411537D01*
X15752369Y-12421061D01*
X15761893Y-12430585D01*
X15771417Y-12449632D01*
X15780941Y-12487728D01*
X15780941Y-12535347D01*
X15771417Y-12573442D01*
X15761893Y-12592489D01*
X15752369Y-12602013D01*
X15733322Y-12611537D01*
X15714274Y-12611537D01*
X15695227Y-12602013D01*
X15685703Y-12592489D01*
X15676179Y-12573442D01*
X15666655Y-12535347D01*
X15666655Y-12487728D01*
X15676179Y-12449632D01*
X15685703Y-12430585D01*
X15695227Y-12421061D01*
X15714274Y-12411537D01*
X15904750Y-12411537D02*
X15923798Y-12411537D01*
X15942846Y-12421061D01*
X15952369Y-12430585D01*
X15961893Y-12449632D01*
X15971417Y-12487728D01*
X15971417Y-12535347D01*
X15961893Y-12573442D01*
X15952369Y-12592489D01*
X15942846Y-12602013D01*
X15923798Y-12611537D01*
X15904750Y-12611537D01*
X15885703Y-12602013D01*
X15876179Y-12592489D01*
X15866655Y-12573442D01*
X15857131Y-12535347D01*
X15857131Y-12487728D01*
X15866655Y-12449632D01*
X15876179Y-12430585D01*
X15885703Y-12421061D01*
X15904750Y-12411537D01*
X16047607Y-12411537D02*
X16047607Y-12449632D01*
X16123798Y-12411537D02*
X16123798Y-12449632D01*
X16419036Y-12687728D02*
X16409512Y-12678204D01*
X16390465Y-12649632D01*
X16380941Y-12630585D01*
X16371417Y-12602013D01*
X16361893Y-12554394D01*
X16361893Y-12516299D01*
X16371417Y-12468680D01*
X16380941Y-12440109D01*
X16390465Y-12421061D01*
X16409512Y-12392489D01*
X16419036Y-12382966D01*
X16580941Y-12478204D02*
X16580941Y-12611537D01*
X16533322Y-12402013D02*
X16485703Y-12544870D01*
X16609512Y-12544870D01*
X16838084Y-12611537D02*
X16838084Y-12411537D01*
X16923798Y-12611537D02*
X16923798Y-12506775D01*
X16914274Y-12487728D01*
X16895227Y-12478204D01*
X16866655Y-12478204D01*
X16847608Y-12487728D01*
X16838084Y-12497251D01*
X17047608Y-12611537D02*
X17028560Y-12602013D01*
X17019036Y-12592489D01*
X17009512Y-12573442D01*
X17009512Y-12516299D01*
X17019036Y-12497251D01*
X17028560Y-12487728D01*
X17047608Y-12478204D01*
X17076179Y-12478204D01*
X17095227Y-12487728D01*
X17104750Y-12497251D01*
X17114274Y-12516299D01*
X17114274Y-12573442D01*
X17104750Y-12592489D01*
X17095227Y-12602013D01*
X17076179Y-12611537D01*
X17047608Y-12611537D01*
X17228560Y-12611537D02*
X17209512Y-12602013D01*
X17199989Y-12582966D01*
X17199989Y-12411537D01*
X17380941Y-12602013D02*
X17361893Y-12611537D01*
X17323798Y-12611537D01*
X17304750Y-12602013D01*
X17295227Y-12582966D01*
X17295227Y-12506775D01*
X17304750Y-12487728D01*
X17323798Y-12478204D01*
X17361893Y-12478204D01*
X17380941Y-12487728D01*
X17390465Y-12506775D01*
X17390465Y-12525823D01*
X17295227Y-12544870D01*
X17466655Y-12602013D02*
X17485703Y-12611537D01*
X17523798Y-12611537D01*
X17542846Y-12602013D01*
X17552369Y-12582966D01*
X17552369Y-12573442D01*
X17542846Y-12554394D01*
X17523798Y-12544870D01*
X17495227Y-12544870D01*
X17476179Y-12535347D01*
X17466655Y-12516299D01*
X17466655Y-12506775D01*
X17476179Y-12487728D01*
X17495227Y-12478204D01*
X17523798Y-12478204D01*
X17542846Y-12487728D01*
X17619036Y-12687728D02*
X17628560Y-12678204D01*
X17647608Y-12649632D01*
X17657131Y-12630585D01*
X17666655Y-12602013D01*
X17676179Y-12554394D01*
X17676179Y-12516299D01*
X17666655Y-12468680D01*
X17657131Y-12440109D01*
X17647608Y-12421061D01*
X17628560Y-12392489D01*
X17619036Y-12382966D01*
D14*
X12797131Y-12735061D02*
X12797131Y-12835061D01*
X12747131Y-12785061D02*
X12847131Y-12785061D01*
D11*
X13209512Y-12875537D02*
X13095227Y-12875537D01*
X13152369Y-12875537D02*
X13152369Y-12675537D01*
X13133322Y-12704109D01*
X13114274Y-12723156D01*
X13095227Y-12732680D01*
X13295227Y-12856489D02*
X13304750Y-12866013D01*
X13295227Y-12875537D01*
X13285703Y-12866013D01*
X13295227Y-12856489D01*
X13295227Y-12875537D01*
X13428560Y-12675537D02*
X13447607Y-12675537D01*
X13466655Y-12685061D01*
X13476179Y-12694585D01*
X13485703Y-12713632D01*
X13495227Y-12751728D01*
X13495227Y-12799347D01*
X13485703Y-12837442D01*
X13476179Y-12856489D01*
X13466655Y-12866013D01*
X13447607Y-12875537D01*
X13428560Y-12875537D01*
X13409512Y-12866013D01*
X13399988Y-12856489D01*
X13390465Y-12837442D01*
X13380941Y-12799347D01*
X13380941Y-12751728D01*
X13390465Y-12713632D01*
X13399988Y-12694585D01*
X13409512Y-12685061D01*
X13428560Y-12675537D01*
X13619036Y-12675537D02*
X13638084Y-12675537D01*
X13657131Y-12685061D01*
X13666655Y-12694585D01*
X13676179Y-12713632D01*
X13685703Y-12751728D01*
X13685703Y-12799347D01*
X13676179Y-12837442D01*
X13666655Y-12856489D01*
X13657131Y-12866013D01*
X13638084Y-12875537D01*
X13619036Y-12875537D01*
X13599988Y-12866013D01*
X13590465Y-12856489D01*
X13580941Y-12837442D01*
X13571417Y-12799347D01*
X13571417Y-12751728D01*
X13580941Y-12713632D01*
X13590465Y-12694585D01*
X13599988Y-12685061D01*
X13619036Y-12675537D01*
X13809512Y-12675537D02*
X13828560Y-12675537D01*
X13847607Y-12685061D01*
X13857131Y-12694585D01*
X13866655Y-12713632D01*
X13876179Y-12751728D01*
X13876179Y-12799347D01*
X13866655Y-12837442D01*
X13857131Y-12856489D01*
X13847607Y-12866013D01*
X13828560Y-12875537D01*
X13809512Y-12875537D01*
X13790465Y-12866013D01*
X13780941Y-12856489D01*
X13771417Y-12837442D01*
X13761893Y-12799347D01*
X13761893Y-12751728D01*
X13771417Y-12713632D01*
X13780941Y-12694585D01*
X13790465Y-12685061D01*
X13809512Y-12675537D01*
X13961893Y-12875537D02*
X13961893Y-12742204D01*
X13961893Y-12761251D02*
X13971417Y-12751728D01*
X13990465Y-12742204D01*
X14019036Y-12742204D01*
X14038084Y-12751728D01*
X14047607Y-12770775D01*
X14047607Y-12875537D01*
X14047607Y-12770775D02*
X14057131Y-12751728D01*
X14076179Y-12742204D01*
X14104750Y-12742204D01*
X14123798Y-12751728D01*
X14133322Y-12770775D01*
X14133322Y-12875537D01*
X14228560Y-12875537D02*
X14228560Y-12742204D01*
X14228560Y-12761251D02*
X14238084Y-12751728D01*
X14257131Y-12742204D01*
X14285703Y-12742204D01*
X14304750Y-12751728D01*
X14314274Y-12770775D01*
X14314274Y-12875537D01*
X14314274Y-12770775D02*
X14323798Y-12751728D01*
X14342846Y-12742204D01*
X14371417Y-12742204D01*
X14390465Y-12751728D01*
X14399988Y-12770775D01*
X14399988Y-12875537D01*
X14790465Y-12666013D02*
X14619036Y-12923156D01*
X15047607Y-12675537D02*
X15066655Y-12675537D01*
X15085703Y-12685061D01*
X15095227Y-12694585D01*
X15104750Y-12713632D01*
X15114274Y-12751728D01*
X15114274Y-12799347D01*
X15104750Y-12837442D01*
X15095227Y-12856489D01*
X15085703Y-12866013D01*
X15066655Y-12875537D01*
X15047607Y-12875537D01*
X15028560Y-12866013D01*
X15019036Y-12856489D01*
X15009512Y-12837442D01*
X14999988Y-12799347D01*
X14999988Y-12751728D01*
X15009512Y-12713632D01*
X15019036Y-12694585D01*
X15028560Y-12685061D01*
X15047607Y-12675537D01*
X15199988Y-12856489D02*
X15209512Y-12866013D01*
X15199988Y-12875537D01*
X15190465Y-12866013D01*
X15199988Y-12856489D01*
X15199988Y-12875537D01*
X15333322Y-12675537D02*
X15352369Y-12675537D01*
X15371417Y-12685061D01*
X15380941Y-12694585D01*
X15390465Y-12713632D01*
X15399988Y-12751728D01*
X15399988Y-12799347D01*
X15390465Y-12837442D01*
X15380941Y-12856489D01*
X15371417Y-12866013D01*
X15352369Y-12875537D01*
X15333322Y-12875537D01*
X15314274Y-12866013D01*
X15304750Y-12856489D01*
X15295227Y-12837442D01*
X15285703Y-12799347D01*
X15285703Y-12751728D01*
X15295227Y-12713632D01*
X15304750Y-12694585D01*
X15314274Y-12685061D01*
X15333322Y-12675537D01*
X15466655Y-12675537D02*
X15590465Y-12675537D01*
X15523798Y-12751728D01*
X15552369Y-12751728D01*
X15571417Y-12761251D01*
X15580941Y-12770775D01*
X15590465Y-12789823D01*
X15590465Y-12837442D01*
X15580941Y-12856489D01*
X15571417Y-12866013D01*
X15552369Y-12875537D01*
X15495227Y-12875537D01*
X15476179Y-12866013D01*
X15466655Y-12856489D01*
X15685703Y-12875537D02*
X15723798Y-12875537D01*
X15742846Y-12866013D01*
X15752369Y-12856489D01*
X15771417Y-12827918D01*
X15780941Y-12789823D01*
X15780941Y-12713632D01*
X15771417Y-12694585D01*
X15761893Y-12685061D01*
X15742846Y-12675537D01*
X15704750Y-12675537D01*
X15685703Y-12685061D01*
X15676179Y-12694585D01*
X15666655Y-12713632D01*
X15666655Y-12761251D01*
X15676179Y-12780299D01*
X15685703Y-12789823D01*
X15704750Y-12799347D01*
X15742846Y-12799347D01*
X15761893Y-12789823D01*
X15771417Y-12780299D01*
X15780941Y-12761251D01*
X15952369Y-12742204D02*
X15952369Y-12875537D01*
X15904750Y-12666013D02*
X15857131Y-12808870D01*
X15980941Y-12808870D01*
X16047607Y-12675537D02*
X16047607Y-12713632D01*
X16123798Y-12675537D02*
X16123798Y-12713632D01*
X16419036Y-12951728D02*
X16409512Y-12942204D01*
X16390465Y-12913632D01*
X16380941Y-12894585D01*
X16371417Y-12866013D01*
X16361893Y-12818394D01*
X16361893Y-12780299D01*
X16371417Y-12732680D01*
X16380941Y-12704109D01*
X16390465Y-12685061D01*
X16409512Y-12656489D01*
X16419036Y-12646966D01*
X16580941Y-12675537D02*
X16542846Y-12675537D01*
X16523798Y-12685061D01*
X16514274Y-12694585D01*
X16495227Y-12723156D01*
X16485703Y-12761251D01*
X16485703Y-12837442D01*
X16495227Y-12856489D01*
X16504750Y-12866013D01*
X16523798Y-12875537D01*
X16561893Y-12875537D01*
X16580941Y-12866013D01*
X16590465Y-12856489D01*
X16599988Y-12837442D01*
X16599988Y-12789823D01*
X16590465Y-12770775D01*
X16580941Y-12761251D01*
X16561893Y-12751728D01*
X16523798Y-12751728D01*
X16504750Y-12761251D01*
X16495227Y-12770775D01*
X16485703Y-12789823D01*
X16838084Y-12875537D02*
X16838084Y-12675537D01*
X16923798Y-12875537D02*
X16923798Y-12770775D01*
X16914274Y-12751728D01*
X16895227Y-12742204D01*
X16866655Y-12742204D01*
X16847608Y-12751728D01*
X16838084Y-12761251D01*
X17047608Y-12875537D02*
X17028560Y-12866013D01*
X17019036Y-12856489D01*
X17009512Y-12837442D01*
X17009512Y-12780299D01*
X17019036Y-12761251D01*
X17028560Y-12751728D01*
X17047608Y-12742204D01*
X17076179Y-12742204D01*
X17095227Y-12751728D01*
X17104750Y-12761251D01*
X17114274Y-12780299D01*
X17114274Y-12837442D01*
X17104750Y-12856489D01*
X17095227Y-12866013D01*
X17076179Y-12875537D01*
X17047608Y-12875537D01*
X17228560Y-12875537D02*
X17209512Y-12866013D01*
X17199989Y-12846966D01*
X17199989Y-12675537D01*
X17380941Y-12866013D02*
X17361893Y-12875537D01*
X17323798Y-12875537D01*
X17304750Y-12866013D01*
X17295227Y-12846966D01*
X17295227Y-12770775D01*
X17304750Y-12751728D01*
X17323798Y-12742204D01*
X17361893Y-12742204D01*
X17380941Y-12751728D01*
X17390465Y-12770775D01*
X17390465Y-12789823D01*
X17295227Y-12808870D01*
X17466655Y-12866013D02*
X17485703Y-12875537D01*
X17523798Y-12875537D01*
X17542846Y-12866013D01*
X17552369Y-12846966D01*
X17552369Y-12837442D01*
X17542846Y-12818394D01*
X17523798Y-12808870D01*
X17495227Y-12808870D01*
X17476179Y-12799347D01*
X17466655Y-12780299D01*
X17466655Y-12770775D01*
X17476179Y-12751728D01*
X17495227Y-12742204D01*
X17523798Y-12742204D01*
X17542846Y-12751728D01*
X17619036Y-12951728D02*
X17628560Y-12942204D01*
X17647608Y-12913632D01*
X17657131Y-12894585D01*
X17666655Y-12866013D01*
X17676179Y-12818394D01*
X17676179Y-12780299D01*
X17666655Y-12732680D01*
X17657131Y-12704109D01*
X17647608Y-12685061D01*
X17628560Y-12656489D01*
X17619036Y-12646966D01*
D15*
X12832194Y-13085124D02*
X12832194Y-13012998D01*
X12760069Y-13012998D01*
X12760069Y-13085124D01*
X12832194Y-13085124D01*
D11*
X13209512Y-13139537D02*
X13095227Y-13139537D01*
X13152369Y-13139537D02*
X13152369Y-12939537D01*
X13133322Y-12968109D01*
X13114274Y-12987156D01*
X13095227Y-12996680D01*
X13295227Y-13120489D02*
X13304750Y-13130013D01*
X13295227Y-13139537D01*
X13285703Y-13130013D01*
X13295227Y-13120489D01*
X13295227Y-13139537D01*
X13428560Y-12939537D02*
X13447607Y-12939537D01*
X13466655Y-12949061D01*
X13476179Y-12958585D01*
X13485703Y-12977632D01*
X13495227Y-13015728D01*
X13495227Y-13063347D01*
X13485703Y-13101442D01*
X13476179Y-13120489D01*
X13466655Y-13130013D01*
X13447607Y-13139537D01*
X13428560Y-13139537D01*
X13409512Y-13130013D01*
X13399988Y-13120489D01*
X13390465Y-13101442D01*
X13380941Y-13063347D01*
X13380941Y-13015728D01*
X13390465Y-12977632D01*
X13399988Y-12958585D01*
X13409512Y-12949061D01*
X13428560Y-12939537D01*
X13571417Y-12958585D02*
X13580941Y-12949061D01*
X13599988Y-12939537D01*
X13647607Y-12939537D01*
X13666655Y-12949061D01*
X13676179Y-12958585D01*
X13685703Y-12977632D01*
X13685703Y-12996680D01*
X13676179Y-13025251D01*
X13561893Y-13139537D01*
X13685703Y-13139537D01*
X13809512Y-12939537D02*
X13828560Y-12939537D01*
X13847607Y-12949061D01*
X13857131Y-12958585D01*
X13866655Y-12977632D01*
X13876179Y-13015728D01*
X13876179Y-13063347D01*
X13866655Y-13101442D01*
X13857131Y-13120489D01*
X13847607Y-13130013D01*
X13828560Y-13139537D01*
X13809512Y-13139537D01*
X13790465Y-13130013D01*
X13780941Y-13120489D01*
X13771417Y-13101442D01*
X13761893Y-13063347D01*
X13761893Y-13015728D01*
X13771417Y-12977632D01*
X13780941Y-12958585D01*
X13790465Y-12949061D01*
X13809512Y-12939537D01*
X13961893Y-13139537D02*
X13961893Y-13006204D01*
X13961893Y-13025251D02*
X13971417Y-13015728D01*
X13990465Y-13006204D01*
X14019036Y-13006204D01*
X14038084Y-13015728D01*
X14047607Y-13034775D01*
X14047607Y-13139537D01*
X14047607Y-13034775D02*
X14057131Y-13015728D01*
X14076179Y-13006204D01*
X14104750Y-13006204D01*
X14123798Y-13015728D01*
X14133322Y-13034775D01*
X14133322Y-13139537D01*
X14228560Y-13139537D02*
X14228560Y-13006204D01*
X14228560Y-13025251D02*
X14238084Y-13015728D01*
X14257131Y-13006204D01*
X14285703Y-13006204D01*
X14304750Y-13015728D01*
X14314274Y-13034775D01*
X14314274Y-13139537D01*
X14314274Y-13034775D02*
X14323798Y-13015728D01*
X14342846Y-13006204D01*
X14371417Y-13006204D01*
X14390465Y-13015728D01*
X14399988Y-13034775D01*
X14399988Y-13139537D01*
X14790465Y-12930013D02*
X14619036Y-13187156D01*
X15047607Y-12939537D02*
X15066655Y-12939537D01*
X15085703Y-12949061D01*
X15095227Y-12958585D01*
X15104750Y-12977632D01*
X15114274Y-13015728D01*
X15114274Y-13063347D01*
X15104750Y-13101442D01*
X15095227Y-13120489D01*
X15085703Y-13130013D01*
X15066655Y-13139537D01*
X15047607Y-13139537D01*
X15028560Y-13130013D01*
X15019036Y-13120489D01*
X15009512Y-13101442D01*
X14999988Y-13063347D01*
X14999988Y-13015728D01*
X15009512Y-12977632D01*
X15019036Y-12958585D01*
X15028560Y-12949061D01*
X15047607Y-12939537D01*
X15199988Y-13120489D02*
X15209512Y-13130013D01*
X15199988Y-13139537D01*
X15190465Y-13130013D01*
X15199988Y-13120489D01*
X15199988Y-13139537D01*
X15333322Y-12939537D02*
X15352369Y-12939537D01*
X15371417Y-12949061D01*
X15380941Y-12958585D01*
X15390465Y-12977632D01*
X15399988Y-13015728D01*
X15399988Y-13063347D01*
X15390465Y-13101442D01*
X15380941Y-13120489D01*
X15371417Y-13130013D01*
X15352369Y-13139537D01*
X15333322Y-13139537D01*
X15314274Y-13130013D01*
X15304750Y-13120489D01*
X15295227Y-13101442D01*
X15285703Y-13063347D01*
X15285703Y-13015728D01*
X15295227Y-12977632D01*
X15304750Y-12958585D01*
X15314274Y-12949061D01*
X15333322Y-12939537D01*
X15571417Y-13006204D02*
X15571417Y-13139537D01*
X15523798Y-12930013D02*
X15476179Y-13072870D01*
X15599988Y-13072870D01*
X15714274Y-12939537D02*
X15733322Y-12939537D01*
X15752369Y-12949061D01*
X15761893Y-12958585D01*
X15771417Y-12977632D01*
X15780941Y-13015728D01*
X15780941Y-13063347D01*
X15771417Y-13101442D01*
X15761893Y-13120489D01*
X15752369Y-13130013D01*
X15733322Y-13139537D01*
X15714274Y-13139537D01*
X15695227Y-13130013D01*
X15685703Y-13120489D01*
X15676179Y-13101442D01*
X15666655Y-13063347D01*
X15666655Y-13015728D01*
X15676179Y-12977632D01*
X15685703Y-12958585D01*
X15695227Y-12949061D01*
X15714274Y-12939537D01*
X15857131Y-12958585D02*
X15866655Y-12949061D01*
X15885703Y-12939537D01*
X15933322Y-12939537D01*
X15952369Y-12949061D01*
X15961893Y-12958585D01*
X15971417Y-12977632D01*
X15971417Y-12996680D01*
X15961893Y-13025251D01*
X15847607Y-13139537D01*
X15971417Y-13139537D01*
X16047607Y-12939537D02*
X16047607Y-12977632D01*
X16123798Y-12939537D02*
X16123798Y-12977632D01*
X16419036Y-13215728D02*
X16409512Y-13206204D01*
X16390465Y-13177632D01*
X16380941Y-13158585D01*
X16371417Y-13130013D01*
X16361893Y-13082394D01*
X16361893Y-13044299D01*
X16371417Y-12996680D01*
X16380941Y-12968109D01*
X16390465Y-12949061D01*
X16409512Y-12920489D01*
X16419036Y-12910966D01*
X16485703Y-12958585D02*
X16495227Y-12949061D01*
X16514274Y-12939537D01*
X16561893Y-12939537D01*
X16580941Y-12949061D01*
X16590465Y-12958585D01*
X16599988Y-12977632D01*
X16599988Y-12996680D01*
X16590465Y-13025251D01*
X16476179Y-13139537D01*
X16599988Y-13139537D01*
X16771417Y-13006204D02*
X16771417Y-13139537D01*
X16723798Y-12930013D02*
X16676179Y-13072870D01*
X16799989Y-13072870D01*
X17028560Y-13139537D02*
X17028560Y-12939537D01*
X17114274Y-13139537D02*
X17114274Y-13034775D01*
X17104750Y-13015728D01*
X17085703Y-13006204D01*
X17057131Y-13006204D01*
X17038084Y-13015728D01*
X17028560Y-13025251D01*
X17238084Y-13139537D02*
X17219036Y-13130013D01*
X17209512Y-13120489D01*
X17199989Y-13101442D01*
X17199989Y-13044299D01*
X17209512Y-13025251D01*
X17219036Y-13015728D01*
X17238084Y-13006204D01*
X17266655Y-13006204D01*
X17285703Y-13015728D01*
X17295227Y-13025251D01*
X17304750Y-13044299D01*
X17304750Y-13101442D01*
X17295227Y-13120489D01*
X17285703Y-13130013D01*
X17266655Y-13139537D01*
X17238084Y-13139537D01*
X17419036Y-13139537D02*
X17399989Y-13130013D01*
X17390465Y-13110966D01*
X17390465Y-12939537D01*
X17571417Y-13130013D02*
X17552369Y-13139537D01*
X17514274Y-13139537D01*
X17495227Y-13130013D01*
X17485703Y-13110966D01*
X17485703Y-13034775D01*
X17495227Y-13015728D01*
X17514274Y-13006204D01*
X17552369Y-13006204D01*
X17571417Y-13015728D01*
X17580941Y-13034775D01*
X17580941Y-13053823D01*
X17485703Y-13072870D01*
X17657131Y-13130013D02*
X17676179Y-13139537D01*
X17714274Y-13139537D01*
X17733322Y-13130013D01*
X17742846Y-13110966D01*
X17742846Y-13101442D01*
X17733322Y-13082394D01*
X17714274Y-13072870D01*
X17685703Y-13072870D01*
X17666655Y-13063347D01*
X17657131Y-13044299D01*
X17657131Y-13034775D01*
X17666655Y-13015728D01*
X17685703Y-13006204D01*
X17714274Y-13006204D01*
X17733322Y-13015728D01*
X17809512Y-13215728D02*
X17819036Y-13206204D01*
X17838084Y-13177632D01*
X17847608Y-13158585D01*
X17857131Y-13130013D01*
X17866655Y-13082394D01*
X17866655Y-13044299D01*
X17857131Y-12996680D01*
X17847608Y-12968109D01*
X17838084Y-12949061D01*
X17819036Y-12920489D01*
X17809512Y-12910966D01*
D14*
X12797131Y-13363061D02*
X12847131Y-13313061D01*
X12797131Y-13263061D01*
X12747131Y-13313061D01*
X12797131Y-13363061D01*
D11*
X13209512Y-13403537D02*
X13095227Y-13403537D01*
X13152369Y-13403537D02*
X13152369Y-13203537D01*
X13133322Y-13232109D01*
X13114274Y-13251156D01*
X13095227Y-13260680D01*
X13295227Y-13384489D02*
X13304750Y-13394013D01*
X13295227Y-13403537D01*
X13285703Y-13394013D01*
X13295227Y-13384489D01*
X13295227Y-13403537D01*
X13428560Y-13203537D02*
X13447607Y-13203537D01*
X13466655Y-13213061D01*
X13476179Y-13222585D01*
X13485703Y-13241632D01*
X13495227Y-13279728D01*
X13495227Y-13327347D01*
X13485703Y-13365442D01*
X13476179Y-13384489D01*
X13466655Y-13394013D01*
X13447607Y-13403537D01*
X13428560Y-13403537D01*
X13409512Y-13394013D01*
X13399988Y-13384489D01*
X13390465Y-13365442D01*
X13380941Y-13327347D01*
X13380941Y-13279728D01*
X13390465Y-13241632D01*
X13399988Y-13222585D01*
X13409512Y-13213061D01*
X13428560Y-13203537D01*
X13619036Y-13203537D02*
X13638084Y-13203537D01*
X13657131Y-13213061D01*
X13666655Y-13222585D01*
X13676179Y-13241632D01*
X13685703Y-13279728D01*
X13685703Y-13327347D01*
X13676179Y-13365442D01*
X13666655Y-13384489D01*
X13657131Y-13394013D01*
X13638084Y-13403537D01*
X13619036Y-13403537D01*
X13599988Y-13394013D01*
X13590465Y-13384489D01*
X13580941Y-13365442D01*
X13571417Y-13327347D01*
X13571417Y-13279728D01*
X13580941Y-13241632D01*
X13590465Y-13222585D01*
X13599988Y-13213061D01*
X13619036Y-13203537D01*
X13809512Y-13203537D02*
X13828560Y-13203537D01*
X13847607Y-13213061D01*
X13857131Y-13222585D01*
X13866655Y-13241632D01*
X13876179Y-13279728D01*
X13876179Y-13327347D01*
X13866655Y-13365442D01*
X13857131Y-13384489D01*
X13847607Y-13394013D01*
X13828560Y-13403537D01*
X13809512Y-13403537D01*
X13790465Y-13394013D01*
X13780941Y-13384489D01*
X13771417Y-13365442D01*
X13761893Y-13327347D01*
X13761893Y-13279728D01*
X13771417Y-13241632D01*
X13780941Y-13222585D01*
X13790465Y-13213061D01*
X13809512Y-13203537D01*
X13961893Y-13403537D02*
X13961893Y-13270204D01*
X13961893Y-13289251D02*
X13971417Y-13279728D01*
X13990465Y-13270204D01*
X14019036Y-13270204D01*
X14038084Y-13279728D01*
X14047607Y-13298775D01*
X14047607Y-13403537D01*
X14047607Y-13298775D02*
X14057131Y-13279728D01*
X14076179Y-13270204D01*
X14104750Y-13270204D01*
X14123798Y-13279728D01*
X14133322Y-13298775D01*
X14133322Y-13403537D01*
X14228560Y-13403537D02*
X14228560Y-13270204D01*
X14228560Y-13289251D02*
X14238084Y-13279728D01*
X14257131Y-13270204D01*
X14285703Y-13270204D01*
X14304750Y-13279728D01*
X14314274Y-13298775D01*
X14314274Y-13403537D01*
X14314274Y-13298775D02*
X14323798Y-13279728D01*
X14342846Y-13270204D01*
X14371417Y-13270204D01*
X14390465Y-13279728D01*
X14399988Y-13298775D01*
X14399988Y-13403537D01*
X14790465Y-13194013D02*
X14619036Y-13451156D01*
X15047607Y-13203537D02*
X15066655Y-13203537D01*
X15085703Y-13213061D01*
X15095227Y-13222585D01*
X15104750Y-13241632D01*
X15114274Y-13279728D01*
X15114274Y-13327347D01*
X15104750Y-13365442D01*
X15095227Y-13384489D01*
X15085703Y-13394013D01*
X15066655Y-13403537D01*
X15047607Y-13403537D01*
X15028560Y-13394013D01*
X15019036Y-13384489D01*
X15009512Y-13365442D01*
X14999988Y-13327347D01*
X14999988Y-13279728D01*
X15009512Y-13241632D01*
X15019036Y-13222585D01*
X15028560Y-13213061D01*
X15047607Y-13203537D01*
X15199988Y-13384489D02*
X15209512Y-13394013D01*
X15199988Y-13403537D01*
X15190465Y-13394013D01*
X15199988Y-13384489D01*
X15199988Y-13403537D01*
X15333322Y-13203537D02*
X15352369Y-13203537D01*
X15371417Y-13213061D01*
X15380941Y-13222585D01*
X15390465Y-13241632D01*
X15399988Y-13279728D01*
X15399988Y-13327347D01*
X15390465Y-13365442D01*
X15380941Y-13384489D01*
X15371417Y-13394013D01*
X15352369Y-13403537D01*
X15333322Y-13403537D01*
X15314274Y-13394013D01*
X15304750Y-13384489D01*
X15295227Y-13365442D01*
X15285703Y-13327347D01*
X15285703Y-13279728D01*
X15295227Y-13241632D01*
X15304750Y-13222585D01*
X15314274Y-13213061D01*
X15333322Y-13203537D01*
X15466655Y-13203537D02*
X15590465Y-13203537D01*
X15523798Y-13279728D01*
X15552369Y-13279728D01*
X15571417Y-13289251D01*
X15580941Y-13298775D01*
X15590465Y-13317823D01*
X15590465Y-13365442D01*
X15580941Y-13384489D01*
X15571417Y-13394013D01*
X15552369Y-13403537D01*
X15495227Y-13403537D01*
X15476179Y-13394013D01*
X15466655Y-13384489D01*
X15685703Y-13403537D02*
X15723798Y-13403537D01*
X15742846Y-13394013D01*
X15752369Y-13384489D01*
X15771417Y-13355918D01*
X15780941Y-13317823D01*
X15780941Y-13241632D01*
X15771417Y-13222585D01*
X15761893Y-13213061D01*
X15742846Y-13203537D01*
X15704750Y-13203537D01*
X15685703Y-13213061D01*
X15676179Y-13222585D01*
X15666655Y-13241632D01*
X15666655Y-13289251D01*
X15676179Y-13308299D01*
X15685703Y-13317823D01*
X15704750Y-13327347D01*
X15742846Y-13327347D01*
X15761893Y-13317823D01*
X15771417Y-13308299D01*
X15780941Y-13289251D01*
X15952369Y-13270204D02*
X15952369Y-13403537D01*
X15904750Y-13194013D02*
X15857131Y-13336870D01*
X15980941Y-13336870D01*
X16047607Y-13203537D02*
X16047607Y-13241632D01*
X16123798Y-13203537D02*
X16123798Y-13241632D01*
X16419036Y-13479728D02*
X16409512Y-13470204D01*
X16390465Y-13441632D01*
X16380941Y-13422585D01*
X16371417Y-13394013D01*
X16361893Y-13346394D01*
X16361893Y-13308299D01*
X16371417Y-13260680D01*
X16380941Y-13232109D01*
X16390465Y-13213061D01*
X16409512Y-13184489D01*
X16419036Y-13174966D01*
X16485703Y-13222585D02*
X16495227Y-13213061D01*
X16514274Y-13203537D01*
X16561893Y-13203537D01*
X16580941Y-13213061D01*
X16590465Y-13222585D01*
X16599988Y-13241632D01*
X16599988Y-13260680D01*
X16590465Y-13289251D01*
X16476179Y-13403537D01*
X16599988Y-13403537D01*
X16838084Y-13403537D02*
X16838084Y-13203537D01*
X16923798Y-13403537D02*
X16923798Y-13298775D01*
X16914274Y-13279728D01*
X16895227Y-13270204D01*
X16866655Y-13270204D01*
X16847608Y-13279728D01*
X16838084Y-13289251D01*
X17047608Y-13403537D02*
X17028560Y-13394013D01*
X17019036Y-13384489D01*
X17009512Y-13365442D01*
X17009512Y-13308299D01*
X17019036Y-13289251D01*
X17028560Y-13279728D01*
X17047608Y-13270204D01*
X17076179Y-13270204D01*
X17095227Y-13279728D01*
X17104750Y-13289251D01*
X17114274Y-13308299D01*
X17114274Y-13365442D01*
X17104750Y-13384489D01*
X17095227Y-13394013D01*
X17076179Y-13403537D01*
X17047608Y-13403537D01*
X17228560Y-13403537D02*
X17209512Y-13394013D01*
X17199989Y-13374966D01*
X17199989Y-13203537D01*
X17380941Y-13394013D02*
X17361893Y-13403537D01*
X17323798Y-13403537D01*
X17304750Y-13394013D01*
X17295227Y-13374966D01*
X17295227Y-13298775D01*
X17304750Y-13279728D01*
X17323798Y-13270204D01*
X17361893Y-13270204D01*
X17380941Y-13279728D01*
X17390465Y-13298775D01*
X17390465Y-13317823D01*
X17295227Y-13336870D01*
X17466655Y-13394013D02*
X17485703Y-13403537D01*
X17523798Y-13403537D01*
X17542846Y-13394013D01*
X17552369Y-13374966D01*
X17552369Y-13365442D01*
X17542846Y-13346394D01*
X17523798Y-13336870D01*
X17495227Y-13336870D01*
X17476179Y-13327347D01*
X17466655Y-13308299D01*
X17466655Y-13298775D01*
X17476179Y-13279728D01*
X17495227Y-13270204D01*
X17523798Y-13270204D01*
X17542846Y-13279728D01*
X17619036Y-13479728D02*
X17628560Y-13470204D01*
X17647608Y-13441632D01*
X17657131Y-13422585D01*
X17666655Y-13394013D01*
X17676179Y-13346394D01*
X17676179Y-13308299D01*
X17666655Y-13260680D01*
X17657131Y-13232109D01*
X17647608Y-13213061D01*
X17628560Y-13184489D01*
X17619036Y-13174966D01*
X17980941Y-13479728D02*
X17971417Y-13470204D01*
X17952369Y-13441632D01*
X17942846Y-13422585D01*
X17933322Y-13394013D01*
X17923798Y-13346394D01*
X17923798Y-13308299D01*
X17933322Y-13260680D01*
X17942846Y-13232109D01*
X17952369Y-13213061D01*
X17971417Y-13184489D01*
X17980941Y-13174966D01*
X18057131Y-13270204D02*
X18057131Y-13403537D01*
X18057131Y-13289251D02*
X18066655Y-13279728D01*
X18085703Y-13270204D01*
X18114274Y-13270204D01*
X18133322Y-13279728D01*
X18142846Y-13298775D01*
X18142846Y-13403537D01*
X18266655Y-13403537D02*
X18247608Y-13394013D01*
X18238084Y-13384489D01*
X18228560Y-13365442D01*
X18228560Y-13308299D01*
X18238084Y-13289251D01*
X18247608Y-13279728D01*
X18266655Y-13270204D01*
X18295227Y-13270204D01*
X18314274Y-13279728D01*
X18323798Y-13289251D01*
X18333322Y-13308299D01*
X18333322Y-13365442D01*
X18323798Y-13384489D01*
X18314274Y-13394013D01*
X18295227Y-13403537D01*
X18266655Y-13403537D01*
X18390465Y-13270204D02*
X18466655Y-13270204D01*
X18419036Y-13203537D02*
X18419036Y-13374966D01*
X18428560Y-13394013D01*
X18447608Y-13403537D01*
X18466655Y-13403537D01*
X18685703Y-13270204D02*
X18685703Y-13470204D01*
X18685703Y-13279728D02*
X18704750Y-13270204D01*
X18742846Y-13270204D01*
X18761893Y-13279728D01*
X18771417Y-13289251D01*
X18780941Y-13308299D01*
X18780941Y-13365442D01*
X18771417Y-13384489D01*
X18761893Y-13394013D01*
X18742846Y-13403537D01*
X18704750Y-13403537D01*
X18685703Y-13394013D01*
X18895227Y-13403537D02*
X18876179Y-13394013D01*
X18866655Y-13374966D01*
X18866655Y-13203537D01*
X19057131Y-13403537D02*
X19057131Y-13298775D01*
X19047608Y-13279728D01*
X19028560Y-13270204D01*
X18990465Y-13270204D01*
X18971417Y-13279728D01*
X19057131Y-13394013D02*
X19038084Y-13403537D01*
X18990465Y-13403537D01*
X18971417Y-13394013D01*
X18961893Y-13374966D01*
X18961893Y-13355918D01*
X18971417Y-13336870D01*
X18990465Y-13327347D01*
X19038084Y-13327347D01*
X19057131Y-13317823D01*
X19123798Y-13270204D02*
X19199989Y-13270204D01*
X19152369Y-13203537D02*
X19152369Y-13374966D01*
X19161893Y-13394013D01*
X19180941Y-13403537D01*
X19199989Y-13403537D01*
X19342846Y-13394013D02*
X19323798Y-13403537D01*
X19285703Y-13403537D01*
X19266655Y-13394013D01*
X19257131Y-13374966D01*
X19257131Y-13298775D01*
X19266655Y-13279728D01*
X19285703Y-13270204D01*
X19323798Y-13270204D01*
X19342846Y-13279728D01*
X19352369Y-13298775D01*
X19352369Y-13317823D01*
X19257131Y-13336870D01*
X19523798Y-13403537D02*
X19523798Y-13203537D01*
X19523798Y-13394013D02*
X19504750Y-13403537D01*
X19466655Y-13403537D01*
X19447608Y-13394013D01*
X19438084Y-13384489D01*
X19428560Y-13365442D01*
X19428560Y-13308299D01*
X19438084Y-13289251D01*
X19447608Y-13279728D01*
X19466655Y-13270204D01*
X19504750Y-13270204D01*
X19523798Y-13279728D01*
X19599989Y-13479728D02*
X19609512Y-13470204D01*
X19628560Y-13441632D01*
X19638084Y-13422585D01*
X19647608Y-13394013D01*
X19657131Y-13346394D01*
X19657131Y-13308299D01*
X19647608Y-13260680D01*
X19638084Y-13232109D01*
X19628560Y-13213061D01*
X19609512Y-13184489D01*
X19599989Y-13174966D01*
D16*
X12720131Y-13513561D02*
X12847131Y-13640561D01*
X12847131Y-13513561D02*
X12720131Y-13640561D01*
X12847131Y-13577061D02*
G75*
G03*
X12847131Y-13577061I-63500J0D01*
G01*
D11*
X13209512Y-13667537D02*
X13095227Y-13667537D01*
X13152369Y-13667537D02*
X13152369Y-13467537D01*
X13133322Y-13496109D01*
X13114274Y-13515156D01*
X13095227Y-13524680D01*
X13295227Y-13648489D02*
X13304750Y-13658013D01*
X13295227Y-13667537D01*
X13285703Y-13658013D01*
X13295227Y-13648489D01*
X13295227Y-13667537D01*
X13380941Y-13486585D02*
X13390465Y-13477061D01*
X13409512Y-13467537D01*
X13457131Y-13467537D01*
X13476179Y-13477061D01*
X13485703Y-13486585D01*
X13495227Y-13505632D01*
X13495227Y-13524680D01*
X13485703Y-13553251D01*
X13371417Y-13667537D01*
X13495227Y-13667537D01*
X13561893Y-13467537D02*
X13695227Y-13467537D01*
X13609512Y-13667537D01*
X13809512Y-13467537D02*
X13828560Y-13467537D01*
X13847607Y-13477061D01*
X13857131Y-13486585D01*
X13866655Y-13505632D01*
X13876179Y-13543728D01*
X13876179Y-13591347D01*
X13866655Y-13629442D01*
X13857131Y-13648489D01*
X13847607Y-13658013D01*
X13828560Y-13667537D01*
X13809512Y-13667537D01*
X13790465Y-13658013D01*
X13780941Y-13648489D01*
X13771417Y-13629442D01*
X13761893Y-13591347D01*
X13761893Y-13543728D01*
X13771417Y-13505632D01*
X13780941Y-13486585D01*
X13790465Y-13477061D01*
X13809512Y-13467537D01*
X13961893Y-13667537D02*
X13961893Y-13534204D01*
X13961893Y-13553251D02*
X13971417Y-13543728D01*
X13990465Y-13534204D01*
X14019036Y-13534204D01*
X14038084Y-13543728D01*
X14047607Y-13562775D01*
X14047607Y-13667537D01*
X14047607Y-13562775D02*
X14057131Y-13543728D01*
X14076179Y-13534204D01*
X14104750Y-13534204D01*
X14123798Y-13543728D01*
X14133322Y-13562775D01*
X14133322Y-13667537D01*
X14228560Y-13667537D02*
X14228560Y-13534204D01*
X14228560Y-13553251D02*
X14238084Y-13543728D01*
X14257131Y-13534204D01*
X14285703Y-13534204D01*
X14304750Y-13543728D01*
X14314274Y-13562775D01*
X14314274Y-13667537D01*
X14314274Y-13562775D02*
X14323798Y-13543728D01*
X14342846Y-13534204D01*
X14371417Y-13534204D01*
X14390465Y-13543728D01*
X14399988Y-13562775D01*
X14399988Y-13667537D01*
X14790465Y-13458013D02*
X14619036Y-13715156D01*
X15047607Y-13467537D02*
X15066655Y-13467537D01*
X15085703Y-13477061D01*
X15095227Y-13486585D01*
X15104750Y-13505632D01*
X15114274Y-13543728D01*
X15114274Y-13591347D01*
X15104750Y-13629442D01*
X15095227Y-13648489D01*
X15085703Y-13658013D01*
X15066655Y-13667537D01*
X15047607Y-13667537D01*
X15028560Y-13658013D01*
X15019036Y-13648489D01*
X15009512Y-13629442D01*
X14999988Y-13591347D01*
X14999988Y-13543728D01*
X15009512Y-13505632D01*
X15019036Y-13486585D01*
X15028560Y-13477061D01*
X15047607Y-13467537D01*
X15199988Y-13648489D02*
X15209512Y-13658013D01*
X15199988Y-13667537D01*
X15190465Y-13658013D01*
X15199988Y-13648489D01*
X15199988Y-13667537D01*
X15333322Y-13467537D02*
X15352369Y-13467537D01*
X15371417Y-13477061D01*
X15380941Y-13486585D01*
X15390465Y-13505632D01*
X15399988Y-13543728D01*
X15399988Y-13591347D01*
X15390465Y-13629442D01*
X15380941Y-13648489D01*
X15371417Y-13658013D01*
X15352369Y-13667537D01*
X15333322Y-13667537D01*
X15314274Y-13658013D01*
X15304750Y-13648489D01*
X15295227Y-13629442D01*
X15285703Y-13591347D01*
X15285703Y-13543728D01*
X15295227Y-13505632D01*
X15304750Y-13486585D01*
X15314274Y-13477061D01*
X15333322Y-13467537D01*
X15580941Y-13467537D02*
X15485703Y-13467537D01*
X15476179Y-13562775D01*
X15485703Y-13553251D01*
X15504750Y-13543728D01*
X15552369Y-13543728D01*
X15571417Y-13553251D01*
X15580941Y-13562775D01*
X15590465Y-13581823D01*
X15590465Y-13629442D01*
X15580941Y-13648489D01*
X15571417Y-13658013D01*
X15552369Y-13667537D01*
X15504750Y-13667537D01*
X15485703Y-13658013D01*
X15476179Y-13648489D01*
X15714274Y-13467537D02*
X15733322Y-13467537D01*
X15752369Y-13477061D01*
X15761893Y-13486585D01*
X15771417Y-13505632D01*
X15780941Y-13543728D01*
X15780941Y-13591347D01*
X15771417Y-13629442D01*
X15761893Y-13648489D01*
X15752369Y-13658013D01*
X15733322Y-13667537D01*
X15714274Y-13667537D01*
X15695227Y-13658013D01*
X15685703Y-13648489D01*
X15676179Y-13629442D01*
X15666655Y-13591347D01*
X15666655Y-13543728D01*
X15676179Y-13505632D01*
X15685703Y-13486585D01*
X15695227Y-13477061D01*
X15714274Y-13467537D01*
X15904750Y-13467537D02*
X15923798Y-13467537D01*
X15942846Y-13477061D01*
X15952369Y-13486585D01*
X15961893Y-13505632D01*
X15971417Y-13543728D01*
X15971417Y-13591347D01*
X15961893Y-13629442D01*
X15952369Y-13648489D01*
X15942846Y-13658013D01*
X15923798Y-13667537D01*
X15904750Y-13667537D01*
X15885703Y-13658013D01*
X15876179Y-13648489D01*
X15866655Y-13629442D01*
X15857131Y-13591347D01*
X15857131Y-13543728D01*
X15866655Y-13505632D01*
X15876179Y-13486585D01*
X15885703Y-13477061D01*
X15904750Y-13467537D01*
X16047607Y-13467537D02*
X16047607Y-13505632D01*
X16123798Y-13467537D02*
X16123798Y-13505632D01*
X16419036Y-13743728D02*
X16409512Y-13734204D01*
X16390465Y-13705632D01*
X16380941Y-13686585D01*
X16371417Y-13658013D01*
X16361893Y-13610394D01*
X16361893Y-13572299D01*
X16371417Y-13524680D01*
X16380941Y-13496109D01*
X16390465Y-13477061D01*
X16409512Y-13448489D01*
X16419036Y-13438966D01*
X16485703Y-13486585D02*
X16495227Y-13477061D01*
X16514274Y-13467537D01*
X16561893Y-13467537D01*
X16580941Y-13477061D01*
X16590465Y-13486585D01*
X16599988Y-13505632D01*
X16599988Y-13524680D01*
X16590465Y-13553251D01*
X16476179Y-13667537D01*
X16599988Y-13667537D01*
X16771417Y-13534204D02*
X16771417Y-13667537D01*
X16723798Y-13458013D02*
X16676179Y-13600870D01*
X16799989Y-13600870D01*
X17028560Y-13667537D02*
X17028560Y-13467537D01*
X17114274Y-13667537D02*
X17114274Y-13562775D01*
X17104750Y-13543728D01*
X17085703Y-13534204D01*
X17057131Y-13534204D01*
X17038084Y-13543728D01*
X17028560Y-13553251D01*
X17238084Y-13667537D02*
X17219036Y-13658013D01*
X17209512Y-13648489D01*
X17199989Y-13629442D01*
X17199989Y-13572299D01*
X17209512Y-13553251D01*
X17219036Y-13543728D01*
X17238084Y-13534204D01*
X17266655Y-13534204D01*
X17285703Y-13543728D01*
X17295227Y-13553251D01*
X17304750Y-13572299D01*
X17304750Y-13629442D01*
X17295227Y-13648489D01*
X17285703Y-13658013D01*
X17266655Y-13667537D01*
X17238084Y-13667537D01*
X17419036Y-13667537D02*
X17399989Y-13658013D01*
X17390465Y-13638966D01*
X17390465Y-13467537D01*
X17571417Y-13658013D02*
X17552369Y-13667537D01*
X17514274Y-13667537D01*
X17495227Y-13658013D01*
X17485703Y-13638966D01*
X17485703Y-13562775D01*
X17495227Y-13543728D01*
X17514274Y-13534204D01*
X17552369Y-13534204D01*
X17571417Y-13543728D01*
X17580941Y-13562775D01*
X17580941Y-13581823D01*
X17485703Y-13600870D01*
X17657131Y-13658013D02*
X17676179Y-13667537D01*
X17714274Y-13667537D01*
X17733322Y-13658013D01*
X17742846Y-13638966D01*
X17742846Y-13629442D01*
X17733322Y-13610394D01*
X17714274Y-13600870D01*
X17685703Y-13600870D01*
X17666655Y-13591347D01*
X17657131Y-13572299D01*
X17657131Y-13562775D01*
X17666655Y-13543728D01*
X17685703Y-13534204D01*
X17714274Y-13534204D01*
X17733322Y-13543728D01*
X17809512Y-13743728D02*
X17819036Y-13734204D01*
X17838084Y-13705632D01*
X17847608Y-13686585D01*
X17857131Y-13658013D01*
X17866655Y-13610394D01*
X17866655Y-13572299D01*
X17857131Y-13524680D01*
X17847608Y-13496109D01*
X17838084Y-13477061D01*
X17819036Y-13448489D01*
X17809512Y-13438966D01*
X18171417Y-13743728D02*
X18161893Y-13734204D01*
X18142846Y-13705632D01*
X18133322Y-13686585D01*
X18123798Y-13658013D01*
X18114274Y-13610394D01*
X18114274Y-13572299D01*
X18123798Y-13524680D01*
X18133322Y-13496109D01*
X18142846Y-13477061D01*
X18161893Y-13448489D01*
X18171417Y-13438966D01*
X18247608Y-13534204D02*
X18247608Y-13667537D01*
X18247608Y-13553251D02*
X18257131Y-13543728D01*
X18276179Y-13534204D01*
X18304750Y-13534204D01*
X18323798Y-13543728D01*
X18333322Y-13562775D01*
X18333322Y-13667537D01*
X18457131Y-13667537D02*
X18438084Y-13658013D01*
X18428560Y-13648489D01*
X18419036Y-13629442D01*
X18419036Y-13572299D01*
X18428560Y-13553251D01*
X18438084Y-13543728D01*
X18457131Y-13534204D01*
X18485703Y-13534204D01*
X18504750Y-13543728D01*
X18514274Y-13553251D01*
X18523798Y-13572299D01*
X18523798Y-13629442D01*
X18514274Y-13648489D01*
X18504750Y-13658013D01*
X18485703Y-13667537D01*
X18457131Y-13667537D01*
X18580941Y-13534204D02*
X18657131Y-13534204D01*
X18609512Y-13467537D02*
X18609512Y-13638966D01*
X18619036Y-13658013D01*
X18638084Y-13667537D01*
X18657131Y-13667537D01*
X18876179Y-13534204D02*
X18876179Y-13734204D01*
X18876179Y-13543728D02*
X18895227Y-13534204D01*
X18933322Y-13534204D01*
X18952369Y-13543728D01*
X18961893Y-13553251D01*
X18971417Y-13572299D01*
X18971417Y-13629442D01*
X18961893Y-13648489D01*
X18952369Y-13658013D01*
X18933322Y-13667537D01*
X18895227Y-13667537D01*
X18876179Y-13658013D01*
X19085703Y-13667537D02*
X19066655Y-13658013D01*
X19057131Y-13638966D01*
X19057131Y-13467537D01*
X19247608Y-13667537D02*
X19247608Y-13562775D01*
X19238084Y-13543728D01*
X19219036Y-13534204D01*
X19180941Y-13534204D01*
X19161893Y-13543728D01*
X19247608Y-13658013D02*
X19228560Y-13667537D01*
X19180941Y-13667537D01*
X19161893Y-13658013D01*
X19152369Y-13638966D01*
X19152369Y-13619918D01*
X19161893Y-13600870D01*
X19180941Y-13591347D01*
X19228560Y-13591347D01*
X19247608Y-13581823D01*
X19314274Y-13534204D02*
X19390465Y-13534204D01*
X19342846Y-13467537D02*
X19342846Y-13638966D01*
X19352369Y-13658013D01*
X19371417Y-13667537D01*
X19390465Y-13667537D01*
X19533322Y-13658013D02*
X19514274Y-13667537D01*
X19476179Y-13667537D01*
X19457131Y-13658013D01*
X19447608Y-13638966D01*
X19447608Y-13562775D01*
X19457131Y-13543728D01*
X19476179Y-13534204D01*
X19514274Y-13534204D01*
X19533322Y-13543728D01*
X19542846Y-13562775D01*
X19542846Y-13581823D01*
X19447608Y-13600870D01*
X19714274Y-13667537D02*
X19714274Y-13467537D01*
X19714274Y-13658013D02*
X19695227Y-13667537D01*
X19657131Y-13667537D01*
X19638084Y-13658013D01*
X19628560Y-13648489D01*
X19619036Y-13629442D01*
X19619036Y-13572299D01*
X19628560Y-13553251D01*
X19638084Y-13543728D01*
X19657131Y-13534204D01*
X19695227Y-13534204D01*
X19714274Y-13543728D01*
X19790465Y-13743728D02*
X19799989Y-13734204D01*
X19819036Y-13705632D01*
X19828560Y-13686585D01*
X19838084Y-13658013D01*
X19847608Y-13610394D01*
X19847608Y-13572299D01*
X19838084Y-13524680D01*
X19828560Y-13496109D01*
X19819036Y-13477061D01*
X19799989Y-13448489D01*
X19790465Y-13438966D01*
X12647131Y-13741061D02*
X12847131Y-13941061D01*
X12847131Y-13741061D02*
X12647131Y-13941061D01*
X12747131Y-13741061D02*
X12747131Y-13941061D01*
X12647131Y-13841061D02*
X12847131Y-13841061D01*
X13085703Y-13731537D02*
X13209512Y-13731537D01*
X13142846Y-13807728D01*
X13171417Y-13807728D01*
X13190465Y-13817251D01*
X13199988Y-13826775D01*
X13209512Y-13845823D01*
X13209512Y-13893442D01*
X13199988Y-13912489D01*
X13190465Y-13922013D01*
X13171417Y-13931537D01*
X13114274Y-13931537D01*
X13095227Y-13922013D01*
X13085703Y-13912489D01*
X13295227Y-13912489D02*
X13304750Y-13922013D01*
X13295227Y-13931537D01*
X13285703Y-13922013D01*
X13295227Y-13912489D01*
X13295227Y-13931537D01*
X13428560Y-13731537D02*
X13447607Y-13731537D01*
X13466655Y-13741061D01*
X13476179Y-13750585D01*
X13485703Y-13769632D01*
X13495227Y-13807728D01*
X13495227Y-13855347D01*
X13485703Y-13893442D01*
X13476179Y-13912489D01*
X13466655Y-13922013D01*
X13447607Y-13931537D01*
X13428560Y-13931537D01*
X13409512Y-13922013D01*
X13399988Y-13912489D01*
X13390465Y-13893442D01*
X13380941Y-13855347D01*
X13380941Y-13807728D01*
X13390465Y-13769632D01*
X13399988Y-13750585D01*
X13409512Y-13741061D01*
X13428560Y-13731537D01*
X13619036Y-13731537D02*
X13638084Y-13731537D01*
X13657131Y-13741061D01*
X13666655Y-13750585D01*
X13676179Y-13769632D01*
X13685703Y-13807728D01*
X13685703Y-13855347D01*
X13676179Y-13893442D01*
X13666655Y-13912489D01*
X13657131Y-13922013D01*
X13638084Y-13931537D01*
X13619036Y-13931537D01*
X13599988Y-13922013D01*
X13590465Y-13912489D01*
X13580941Y-13893442D01*
X13571417Y-13855347D01*
X13571417Y-13807728D01*
X13580941Y-13769632D01*
X13590465Y-13750585D01*
X13599988Y-13741061D01*
X13619036Y-13731537D01*
X13809512Y-13731537D02*
X13828560Y-13731537D01*
X13847607Y-13741061D01*
X13857131Y-13750585D01*
X13866655Y-13769632D01*
X13876179Y-13807728D01*
X13876179Y-13855347D01*
X13866655Y-13893442D01*
X13857131Y-13912489D01*
X13847607Y-13922013D01*
X13828560Y-13931537D01*
X13809512Y-13931537D01*
X13790465Y-13922013D01*
X13780941Y-13912489D01*
X13771417Y-13893442D01*
X13761893Y-13855347D01*
X13761893Y-13807728D01*
X13771417Y-13769632D01*
X13780941Y-13750585D01*
X13790465Y-13741061D01*
X13809512Y-13731537D01*
X13961893Y-13931537D02*
X13961893Y-13798204D01*
X13961893Y-13817251D02*
X13971417Y-13807728D01*
X13990465Y-13798204D01*
X14019036Y-13798204D01*
X14038084Y-13807728D01*
X14047607Y-13826775D01*
X14047607Y-13931537D01*
X14047607Y-13826775D02*
X14057131Y-13807728D01*
X14076179Y-13798204D01*
X14104750Y-13798204D01*
X14123798Y-13807728D01*
X14133322Y-13826775D01*
X14133322Y-13931537D01*
X14228560Y-13931537D02*
X14228560Y-13798204D01*
X14228560Y-13817251D02*
X14238084Y-13807728D01*
X14257131Y-13798204D01*
X14285703Y-13798204D01*
X14304750Y-13807728D01*
X14314274Y-13826775D01*
X14314274Y-13931537D01*
X14314274Y-13826775D02*
X14323798Y-13807728D01*
X14342846Y-13798204D01*
X14371417Y-13798204D01*
X14390465Y-13807728D01*
X14399988Y-13826775D01*
X14399988Y-13931537D01*
X14790465Y-13722013D02*
X14619036Y-13979156D01*
X15047607Y-13731537D02*
X15066655Y-13731537D01*
X15085703Y-13741061D01*
X15095227Y-13750585D01*
X15104750Y-13769632D01*
X15114274Y-13807728D01*
X15114274Y-13855347D01*
X15104750Y-13893442D01*
X15095227Y-13912489D01*
X15085703Y-13922013D01*
X15066655Y-13931537D01*
X15047607Y-13931537D01*
X15028560Y-13922013D01*
X15019036Y-13912489D01*
X15009512Y-13893442D01*
X14999988Y-13855347D01*
X14999988Y-13807728D01*
X15009512Y-13769632D01*
X15019036Y-13750585D01*
X15028560Y-13741061D01*
X15047607Y-13731537D01*
X15199988Y-13912489D02*
X15209512Y-13922013D01*
X15199988Y-13931537D01*
X15190465Y-13922013D01*
X15199988Y-13912489D01*
X15199988Y-13931537D01*
X15399988Y-13931537D02*
X15285703Y-13931537D01*
X15342846Y-13931537D02*
X15342846Y-13731537D01*
X15323798Y-13760109D01*
X15304750Y-13779156D01*
X15285703Y-13788680D01*
X15590465Y-13931537D02*
X15476179Y-13931537D01*
X15533322Y-13931537D02*
X15533322Y-13731537D01*
X15514274Y-13760109D01*
X15495227Y-13779156D01*
X15476179Y-13788680D01*
X15704750Y-13817251D02*
X15685703Y-13807728D01*
X15676179Y-13798204D01*
X15666655Y-13779156D01*
X15666655Y-13769632D01*
X15676179Y-13750585D01*
X15685703Y-13741061D01*
X15704750Y-13731537D01*
X15742846Y-13731537D01*
X15761893Y-13741061D01*
X15771417Y-13750585D01*
X15780941Y-13769632D01*
X15780941Y-13779156D01*
X15771417Y-13798204D01*
X15761893Y-13807728D01*
X15742846Y-13817251D01*
X15704750Y-13817251D01*
X15685703Y-13826775D01*
X15676179Y-13836299D01*
X15666655Y-13855347D01*
X15666655Y-13893442D01*
X15676179Y-13912489D01*
X15685703Y-13922013D01*
X15704750Y-13931537D01*
X15742846Y-13931537D01*
X15761893Y-13922013D01*
X15771417Y-13912489D01*
X15780941Y-13893442D01*
X15780941Y-13855347D01*
X15771417Y-13836299D01*
X15761893Y-13826775D01*
X15742846Y-13817251D01*
X15971417Y-13931537D02*
X15857131Y-13931537D01*
X15914274Y-13931537D02*
X15914274Y-13731537D01*
X15895227Y-13760109D01*
X15876179Y-13779156D01*
X15857131Y-13788680D01*
X16047607Y-13731537D02*
X16047607Y-13769632D01*
X16123798Y-13731537D02*
X16123798Y-13769632D01*
X16419036Y-14007728D02*
X16409512Y-13998204D01*
X16390465Y-13969632D01*
X16380941Y-13950585D01*
X16371417Y-13922013D01*
X16361893Y-13874394D01*
X16361893Y-13836299D01*
X16371417Y-13788680D01*
X16380941Y-13760109D01*
X16390465Y-13741061D01*
X16409512Y-13712489D01*
X16419036Y-13702966D01*
X16580941Y-13798204D02*
X16580941Y-13931537D01*
X16533322Y-13722013D02*
X16485703Y-13864870D01*
X16609512Y-13864870D01*
X16838084Y-13931537D02*
X16838084Y-13731537D01*
X16923798Y-13931537D02*
X16923798Y-13826775D01*
X16914274Y-13807728D01*
X16895227Y-13798204D01*
X16866655Y-13798204D01*
X16847608Y-13807728D01*
X16838084Y-13817251D01*
X17047608Y-13931537D02*
X17028560Y-13922013D01*
X17019036Y-13912489D01*
X17009512Y-13893442D01*
X17009512Y-13836299D01*
X17019036Y-13817251D01*
X17028560Y-13807728D01*
X17047608Y-13798204D01*
X17076179Y-13798204D01*
X17095227Y-13807728D01*
X17104750Y-13817251D01*
X17114274Y-13836299D01*
X17114274Y-13893442D01*
X17104750Y-13912489D01*
X17095227Y-13922013D01*
X17076179Y-13931537D01*
X17047608Y-13931537D01*
X17228560Y-13931537D02*
X17209512Y-13922013D01*
X17199989Y-13902966D01*
X17199989Y-13731537D01*
X17380941Y-13922013D02*
X17361893Y-13931537D01*
X17323798Y-13931537D01*
X17304750Y-13922013D01*
X17295227Y-13902966D01*
X17295227Y-13826775D01*
X17304750Y-13807728D01*
X17323798Y-13798204D01*
X17361893Y-13798204D01*
X17380941Y-13807728D01*
X17390465Y-13826775D01*
X17390465Y-13845823D01*
X17295227Y-13864870D01*
X17466655Y-13922013D02*
X17485703Y-13931537D01*
X17523798Y-13931537D01*
X17542846Y-13922013D01*
X17552369Y-13902966D01*
X17552369Y-13893442D01*
X17542846Y-13874394D01*
X17523798Y-13864870D01*
X17495227Y-13864870D01*
X17476179Y-13855347D01*
X17466655Y-13836299D01*
X17466655Y-13826775D01*
X17476179Y-13807728D01*
X17495227Y-13798204D01*
X17523798Y-13798204D01*
X17542846Y-13807728D01*
X17619036Y-14007728D02*
X17628560Y-13998204D01*
X17647608Y-13969632D01*
X17657131Y-13950585D01*
X17666655Y-13922013D01*
X17676179Y-13874394D01*
X17676179Y-13836299D01*
X17666655Y-13788680D01*
X17657131Y-13760109D01*
X17647608Y-13741061D01*
X17628560Y-13712489D01*
X17619036Y-13702966D01*
X17980941Y-14007728D02*
X17971417Y-13998204D01*
X17952369Y-13969632D01*
X17942846Y-13950585D01*
X17933322Y-13922013D01*
X17923798Y-13874394D01*
X17923798Y-13836299D01*
X17933322Y-13788680D01*
X17942846Y-13760109D01*
X17952369Y-13741061D01*
X17971417Y-13712489D01*
X17980941Y-13702966D01*
X18057131Y-13798204D02*
X18057131Y-13931537D01*
X18057131Y-13817251D02*
X18066655Y-13807728D01*
X18085703Y-13798204D01*
X18114274Y-13798204D01*
X18133322Y-13807728D01*
X18142846Y-13826775D01*
X18142846Y-13931537D01*
X18266655Y-13931537D02*
X18247608Y-13922013D01*
X18238084Y-13912489D01*
X18228560Y-13893442D01*
X18228560Y-13836299D01*
X18238084Y-13817251D01*
X18247608Y-13807728D01*
X18266655Y-13798204D01*
X18295227Y-13798204D01*
X18314274Y-13807728D01*
X18323798Y-13817251D01*
X18333322Y-13836299D01*
X18333322Y-13893442D01*
X18323798Y-13912489D01*
X18314274Y-13922013D01*
X18295227Y-13931537D01*
X18266655Y-13931537D01*
X18390465Y-13798204D02*
X18466655Y-13798204D01*
X18419036Y-13731537D02*
X18419036Y-13902966D01*
X18428560Y-13922013D01*
X18447608Y-13931537D01*
X18466655Y-13931537D01*
X18685703Y-13798204D02*
X18685703Y-13998204D01*
X18685703Y-13807728D02*
X18704750Y-13798204D01*
X18742846Y-13798204D01*
X18761893Y-13807728D01*
X18771417Y-13817251D01*
X18780941Y-13836299D01*
X18780941Y-13893442D01*
X18771417Y-13912489D01*
X18761893Y-13922013D01*
X18742846Y-13931537D01*
X18704750Y-13931537D01*
X18685703Y-13922013D01*
X18895227Y-13931537D02*
X18876179Y-13922013D01*
X18866655Y-13902966D01*
X18866655Y-13731537D01*
X19057131Y-13931537D02*
X19057131Y-13826775D01*
X19047608Y-13807728D01*
X19028560Y-13798204D01*
X18990465Y-13798204D01*
X18971417Y-13807728D01*
X19057131Y-13922013D02*
X19038084Y-13931537D01*
X18990465Y-13931537D01*
X18971417Y-13922013D01*
X18961893Y-13902966D01*
X18961893Y-13883918D01*
X18971417Y-13864870D01*
X18990465Y-13855347D01*
X19038084Y-13855347D01*
X19057131Y-13845823D01*
X19123798Y-13798204D02*
X19199989Y-13798204D01*
X19152369Y-13731537D02*
X19152369Y-13902966D01*
X19161893Y-13922013D01*
X19180941Y-13931537D01*
X19199989Y-13931537D01*
X19342846Y-13922013D02*
X19323798Y-13931537D01*
X19285703Y-13931537D01*
X19266655Y-13922013D01*
X19257131Y-13902966D01*
X19257131Y-13826775D01*
X19266655Y-13807728D01*
X19285703Y-13798204D01*
X19323798Y-13798204D01*
X19342846Y-13807728D01*
X19352369Y-13826775D01*
X19352369Y-13845823D01*
X19257131Y-13864870D01*
X19523798Y-13931537D02*
X19523798Y-13731537D01*
X19523798Y-13922013D02*
X19504750Y-13931537D01*
X19466655Y-13931537D01*
X19447608Y-13922013D01*
X19438084Y-13912489D01*
X19428560Y-13893442D01*
X19428560Y-13836299D01*
X19438084Y-13817251D01*
X19447608Y-13807728D01*
X19466655Y-13798204D01*
X19504750Y-13798204D01*
X19523798Y-13807728D01*
X19599989Y-14007728D02*
X19609512Y-13998204D01*
X19628560Y-13969632D01*
X19638084Y-13950585D01*
X19647608Y-13922013D01*
X19657131Y-13874394D01*
X19657131Y-13836299D01*
X19647608Y-13788680D01*
X19638084Y-13760109D01*
X19628560Y-13741061D01*
X19609512Y-13712489D01*
X19599989Y-13702966D01*
M02*
