%TF.GenerationSoftware,KiCad,Pcbnew,(6.0.7)*%
%TF.CreationDate,2022-12-02T21:15:14-06:00*%
%TF.ProjectId,BPS-Fan,4250532d-4661-46e2-9e6b-696361645f70,rev?*%
%TF.SameCoordinates,Original*%
%TF.FileFunction,Soldermask,Bot*%
%TF.FilePolarity,Negative*%
%FSLAX46Y46*%
G04 Gerber Fmt 4.6, Leading zero omitted, Abs format (unit mm)*
G04 Created by KiCad (PCBNEW (6.0.7)) date 2022-12-02 21:15:14*
%MOMM*%
%LPD*%
G01*
G04 APERTURE LIST*
G04 Aperture macros list*
%AMRoundRect*
0 Rectangle with rounded corners*
0 $1 Rounding radius*
0 $2 $3 $4 $5 $6 $7 $8 $9 X,Y pos of 4 corners*
0 Add a 4 corners polygon primitive as box body*
4,1,4,$2,$3,$4,$5,$6,$7,$8,$9,$2,$3,0*
0 Add four circle primitives for the rounded corners*
1,1,$1+$1,$2,$3*
1,1,$1+$1,$4,$5*
1,1,$1+$1,$6,$7*
1,1,$1+$1,$8,$9*
0 Add four rect primitives between the rounded corners*
20,1,$1+$1,$2,$3,$4,$5,0*
20,1,$1+$1,$4,$5,$6,$7,0*
20,1,$1+$1,$6,$7,$8,$9,0*
20,1,$1+$1,$8,$9,$2,$3,0*%
G04 Aperture macros list end*
%ADD10C,3.000000*%
%ADD11C,1.270000*%
%ADD12C,1.700000*%
%ADD13C,1.000000*%
%ADD14RoundRect,0.250001X0.499999X0.499999X-0.499999X0.499999X-0.499999X-0.499999X0.499999X-0.499999X0*%
%ADD15C,1.500000*%
G04 APERTURE END LIST*
D10*
%TO.C,H1*%
X133496800Y-45695600D03*
%TD*%
%TO.C,H2*%
X180796762Y-111145610D03*
%TD*%
%TO.C,H4*%
X133496762Y-111145610D03*
%TD*%
%TO.C,H3*%
X180796800Y-45695600D03*
%TD*%
D11*
%TO.C,J5*%
X146000000Y-80760610D03*
X155000000Y-80760610D03*
D12*
X152000000Y-78800610D03*
X149000000Y-78800610D03*
%TD*%
D11*
%TO.C,J13*%
X183000000Y-105760610D03*
X174000000Y-105760610D03*
D12*
X180000000Y-103800610D03*
X177000000Y-103800610D03*
%TD*%
D11*
%TO.C,J2*%
X141000000Y-80760610D03*
X132000000Y-80760610D03*
D12*
X138000000Y-78800610D03*
X135000000Y-78800610D03*
%TD*%
D11*
%TO.C,J8*%
X160000000Y-80760610D03*
X169000000Y-80760610D03*
D12*
X166000000Y-78800610D03*
X163000000Y-78800610D03*
%TD*%
D11*
%TO.C,J7*%
X146000000Y-105760610D03*
X155000000Y-105760610D03*
D12*
X152000000Y-103800610D03*
X149000000Y-103800610D03*
%TD*%
D11*
%TO.C,J3*%
X132000000Y-93260610D03*
X141000000Y-93260610D03*
D12*
X138000000Y-91300610D03*
X135000000Y-91300610D03*
%TD*%
D11*
%TO.C,J9*%
X169000000Y-93260610D03*
X160000000Y-93260610D03*
D12*
X166000000Y-91300610D03*
X163000000Y-91300610D03*
%TD*%
D13*
%TO.C,J1*%
X150800000Y-48860000D03*
X162800000Y-48860000D03*
D14*
X159800000Y-52800000D03*
D15*
X156800000Y-52800000D03*
X153800000Y-52800000D03*
X159800000Y-49800000D03*
X156800000Y-49800000D03*
X153800000Y-49800000D03*
%TD*%
D11*
%TO.C,J6*%
X146000000Y-93260610D03*
X155000000Y-93260610D03*
D12*
X152000000Y-91300610D03*
X149000000Y-91300610D03*
%TD*%
D11*
%TO.C,J4*%
X141000000Y-105760610D03*
X132000000Y-105760610D03*
D12*
X138000000Y-103800610D03*
X135000000Y-103800610D03*
%TD*%
D11*
%TO.C,J10*%
X160000000Y-105760610D03*
X169000000Y-105760610D03*
D12*
X166000000Y-103800610D03*
X163000000Y-103800610D03*
%TD*%
D11*
%TO.C,J12*%
X174000000Y-93260610D03*
X183000000Y-93260610D03*
D12*
X180000000Y-91300610D03*
X177000000Y-91300610D03*
%TD*%
D11*
%TO.C,J11*%
X183000000Y-80760610D03*
X174000000Y-80760610D03*
D12*
X180000000Y-78800610D03*
X177000000Y-78800610D03*
%TD*%
M02*
