%TF.GenerationSoftware,KiCad,Pcbnew,(6.0.7)*%
%TF.CreationDate,2022-12-02T21:15:13-06:00*%
%TF.ProjectId,BPS-Fan,4250532d-4661-46e2-9e6b-696361645f70,rev?*%
%TF.SameCoordinates,Original*%
%TF.FileFunction,Copper,L2,Bot*%
%TF.FilePolarity,Positive*%
%FSLAX46Y46*%
G04 Gerber Fmt 4.6, Leading zero omitted, Abs format (unit mm)*
G04 Created by KiCad (PCBNEW (6.0.7)) date 2022-12-02 21:15:13*
%MOMM*%
%LPD*%
G01*
G04 APERTURE LIST*
G04 Aperture macros list*
%AMRoundRect*
0 Rectangle with rounded corners*
0 $1 Rounding radius*
0 $2 $3 $4 $5 $6 $7 $8 $9 X,Y pos of 4 corners*
0 Add a 4 corners polygon primitive as box body*
4,1,4,$2,$3,$4,$5,$6,$7,$8,$9,$2,$3,0*
0 Add four circle primitives for the rounded corners*
1,1,$1+$1,$2,$3*
1,1,$1+$1,$4,$5*
1,1,$1+$1,$6,$7*
1,1,$1+$1,$8,$9*
0 Add four rect primitives between the rounded corners*
20,1,$1+$1,$2,$3,$4,$5,0*
20,1,$1+$1,$4,$5,$6,$7,0*
20,1,$1+$1,$6,$7,$8,$9,0*
20,1,$1+$1,$8,$9,$2,$3,0*%
G04 Aperture macros list end*
%TA.AperFunction,ComponentPad*%
%ADD10C,1.700000*%
%TD*%
%TA.AperFunction,ComponentPad*%
%ADD11RoundRect,0.250001X0.499999X0.499999X-0.499999X0.499999X-0.499999X-0.499999X0.499999X-0.499999X0*%
%TD*%
%TA.AperFunction,ComponentPad*%
%ADD12C,1.500000*%
%TD*%
%TA.AperFunction,ViaPad*%
%ADD13C,1.270000*%
%TD*%
%TA.AperFunction,ViaPad*%
%ADD14C,0.800000*%
%TD*%
G04 APERTURE END LIST*
D10*
%TO.P,J5,1,Pin_1*%
%TO.N,+12V*%
X152000000Y-78800610D03*
%TO.P,J5,2,Pin_2*%
%TO.N,Net-(D2-Pad2)*%
X149000000Y-78800610D03*
%TD*%
%TO.P,J13,1,Pin_1*%
%TO.N,+12V*%
X180000000Y-103800610D03*
%TO.P,J13,2,Pin_2*%
%TO.N,Net-(D4-Pad2)*%
X177000000Y-103800610D03*
%TD*%
%TO.P,J2,1,Pin_1*%
%TO.N,+12V*%
X138000000Y-78800610D03*
%TO.P,J2,2,Pin_2*%
%TO.N,Net-(D1-Pad2)*%
X135000000Y-78800610D03*
%TD*%
%TO.P,J8,1,Pin_1*%
%TO.N,+12V*%
X166000000Y-78800610D03*
%TO.P,J8,2,Pin_2*%
%TO.N,Net-(D3-Pad2)*%
X163000000Y-78800610D03*
%TD*%
%TO.P,J7,1,Pin_1*%
%TO.N,+12V*%
X152000000Y-103800610D03*
%TO.P,J7,2,Pin_2*%
%TO.N,Net-(D2-Pad2)*%
X149000000Y-103800610D03*
%TD*%
%TO.P,J3,1,Pin_1*%
%TO.N,+12V*%
X138000000Y-91300610D03*
%TO.P,J3,2,Pin_2*%
%TO.N,Net-(D1-Pad2)*%
X135000000Y-91300610D03*
%TD*%
%TO.P,J9,1,Pin_1*%
%TO.N,+12V*%
X166000000Y-91300610D03*
%TO.P,J9,2,Pin_2*%
%TO.N,Net-(D3-Pad2)*%
X163000000Y-91300610D03*
%TD*%
D11*
%TO.P,J1,1,Pin_1*%
%TO.N,+12V*%
X159800000Y-52800000D03*
D12*
%TO.P,J1,2,Pin_2*%
%TO.N,/FAN1_BPS*%
X156800000Y-52800000D03*
%TO.P,J1,3,Pin_3*%
%TO.N,/FAN2_BPS*%
X153800000Y-52800000D03*
%TO.P,J1,4,Pin_4*%
%TO.N,GNDPWR*%
X159800000Y-49800000D03*
%TO.P,J1,5,Pin_5*%
%TO.N,/FAN3_BPS*%
X156800000Y-49800000D03*
%TO.P,J1,6,Pin_6*%
%TO.N,/FAN4_BPS*%
X153800000Y-49800000D03*
%TD*%
D10*
%TO.P,J6,1,Pin_1*%
%TO.N,+12V*%
X152000000Y-91300610D03*
%TO.P,J6,2,Pin_2*%
%TO.N,Net-(D2-Pad2)*%
X149000000Y-91300610D03*
%TD*%
%TO.P,J4,1,Pin_1*%
%TO.N,+12V*%
X138000000Y-103800610D03*
%TO.P,J4,2,Pin_2*%
%TO.N,Net-(D1-Pad2)*%
X135000000Y-103800610D03*
%TD*%
%TO.P,J10,1,Pin_1*%
%TO.N,+12V*%
X166000000Y-103800610D03*
%TO.P,J10,2,Pin_2*%
%TO.N,Net-(D3-Pad2)*%
X163000000Y-103800610D03*
%TD*%
%TO.P,J12,1,Pin_1*%
%TO.N,+12V*%
X180000000Y-91300610D03*
%TO.P,J12,2,Pin_2*%
%TO.N,Net-(D4-Pad2)*%
X177000000Y-91300610D03*
%TD*%
%TO.P,J11,1,Pin_1*%
%TO.N,+12V*%
X180000000Y-78800610D03*
%TO.P,J11,2,Pin_2*%
%TO.N,Net-(D4-Pad2)*%
X177000000Y-78800610D03*
%TD*%
D13*
%TO.N,GNDPWR*%
X153700000Y-72600000D03*
X181696762Y-72580000D03*
X139721762Y-72570610D03*
D14*
X177589262Y-63980000D03*
X162814262Y-63995610D03*
X171000000Y-46500000D03*
X149334262Y-64020610D03*
X135759262Y-64045610D03*
D13*
X167071762Y-72570610D03*
%TD*%
%TA.AperFunction,Conductor*%
%TO.N,GNDPWR*%
G36*
X182857774Y-41210829D02*
G01*
X182859707Y-41210948D01*
X182868499Y-41212763D01*
X182886593Y-41211296D01*
X182910003Y-41211581D01*
X183137567Y-41235619D01*
X183151828Y-41237126D01*
X183165773Y-41239396D01*
X183298212Y-41268656D01*
X183430652Y-41297917D01*
X183444254Y-41301733D01*
X183700917Y-41389543D01*
X183714002Y-41394856D01*
X183959235Y-41510859D01*
X183971637Y-41517601D01*
X184071002Y-41579076D01*
X184202328Y-41660325D01*
X184213908Y-41668421D01*
X184427162Y-41836070D01*
X184437763Y-41845412D01*
X184630913Y-42035892D01*
X184640402Y-42046362D01*
X184811005Y-42257264D01*
X184819261Y-42268730D01*
X184965178Y-42497407D01*
X184972099Y-42509726D01*
X185091495Y-42753304D01*
X185096993Y-42766320D01*
X185188368Y-43021738D01*
X185192373Y-43035286D01*
X185254576Y-43299332D01*
X185257038Y-43313236D01*
X185289286Y-43582588D01*
X185290176Y-43596689D01*
X185291818Y-43832549D01*
X185289219Y-43858899D01*
X185287237Y-43868499D01*
X185287962Y-43877445D01*
X185287962Y-43877448D01*
X185291088Y-43916005D01*
X185291500Y-43926186D01*
X185291500Y-112924000D01*
X185271498Y-112992121D01*
X185217842Y-113038614D01*
X185165500Y-113050000D01*
X181980447Y-113050000D01*
X181912326Y-113029998D01*
X181865833Y-112976342D01*
X181855729Y-112906068D01*
X181885223Y-112841488D01*
X181906386Y-112822064D01*
X182087391Y-112690557D01*
X182087394Y-112690554D01*
X182090954Y-112687968D01*
X182293014Y-112492841D01*
X182465950Y-112271492D01*
X182468146Y-112267688D01*
X182468151Y-112267681D01*
X182604197Y-112032041D01*
X182606398Y-112028229D01*
X182711624Y-111767786D01*
X182745306Y-111632697D01*
X182778515Y-111499503D01*
X182778516Y-111499498D01*
X182779579Y-111495234D01*
X182808940Y-111215877D01*
X182799137Y-110935152D01*
X182775370Y-110800359D01*
X182751122Y-110662846D01*
X182750360Y-110658523D01*
X182663559Y-110391375D01*
X182540422Y-110138908D01*
X182537967Y-110135269D01*
X182537964Y-110135263D01*
X182457697Y-110016263D01*
X182383347Y-109906034D01*
X182195391Y-109697288D01*
X181980212Y-109516731D01*
X181741998Y-109367879D01*
X181485387Y-109253628D01*
X181215372Y-109176203D01*
X181211022Y-109175592D01*
X181211019Y-109175591D01*
X181108072Y-109161123D01*
X180937210Y-109137110D01*
X180726616Y-109137110D01*
X180724430Y-109137263D01*
X180724426Y-109137263D01*
X180520935Y-109151492D01*
X180520930Y-109151493D01*
X180516550Y-109151799D01*
X180241792Y-109210201D01*
X180237663Y-109211704D01*
X180237659Y-109211705D01*
X179981981Y-109304764D01*
X179981977Y-109304766D01*
X179977836Y-109306273D01*
X179729820Y-109438146D01*
X179726261Y-109440732D01*
X179726259Y-109440733D01*
X179621657Y-109516731D01*
X179502570Y-109603252D01*
X179300510Y-109798379D01*
X179127574Y-110019728D01*
X179125378Y-110023532D01*
X179125373Y-110023539D01*
X179011556Y-110220677D01*
X178987126Y-110262991D01*
X178881900Y-110523434D01*
X178880835Y-110527707D01*
X178880834Y-110527709D01*
X178847141Y-110662846D01*
X178813945Y-110795986D01*
X178784584Y-111075343D01*
X178794387Y-111356068D01*
X178795149Y-111360391D01*
X178795150Y-111360398D01*
X178818926Y-111495234D01*
X178843164Y-111632697D01*
X178929965Y-111899845D01*
X179053102Y-112152312D01*
X179055557Y-112155951D01*
X179055560Y-112155957D01*
X179128652Y-112264320D01*
X179210177Y-112385186D01*
X179398133Y-112593932D01*
X179613312Y-112774489D01*
X179617048Y-112776823D01*
X179617050Y-112776825D01*
X179681577Y-112817146D01*
X179728748Y-112870207D01*
X179739743Y-112940347D01*
X179711072Y-113005297D01*
X179651838Y-113044436D01*
X179614808Y-113050000D01*
X134680447Y-113050000D01*
X134612326Y-113029998D01*
X134565833Y-112976342D01*
X134555729Y-112906068D01*
X134585223Y-112841488D01*
X134606386Y-112822064D01*
X134787391Y-112690557D01*
X134787394Y-112690554D01*
X134790954Y-112687968D01*
X134993014Y-112492841D01*
X135165950Y-112271492D01*
X135168146Y-112267688D01*
X135168151Y-112267681D01*
X135304197Y-112032041D01*
X135306398Y-112028229D01*
X135411624Y-111767786D01*
X135445306Y-111632697D01*
X135478515Y-111499503D01*
X135478516Y-111499498D01*
X135479579Y-111495234D01*
X135508940Y-111215877D01*
X135499137Y-110935152D01*
X135475370Y-110800359D01*
X135451122Y-110662846D01*
X135450360Y-110658523D01*
X135363559Y-110391375D01*
X135240422Y-110138908D01*
X135237967Y-110135269D01*
X135237964Y-110135263D01*
X135157697Y-110016263D01*
X135083347Y-109906034D01*
X134895391Y-109697288D01*
X134680212Y-109516731D01*
X134441998Y-109367879D01*
X134185387Y-109253628D01*
X133915372Y-109176203D01*
X133911022Y-109175592D01*
X133911019Y-109175591D01*
X133808072Y-109161123D01*
X133637210Y-109137110D01*
X133426616Y-109137110D01*
X133424430Y-109137263D01*
X133424426Y-109137263D01*
X133220935Y-109151492D01*
X133220930Y-109151493D01*
X133216550Y-109151799D01*
X132941792Y-109210201D01*
X132937663Y-109211704D01*
X132937659Y-109211705D01*
X132681981Y-109304764D01*
X132681977Y-109304766D01*
X132677836Y-109306273D01*
X132429820Y-109438146D01*
X132426261Y-109440732D01*
X132426259Y-109440733D01*
X132321657Y-109516731D01*
X132202570Y-109603252D01*
X132000510Y-109798379D01*
X131827574Y-110019728D01*
X131825378Y-110023532D01*
X131825373Y-110023539D01*
X131711556Y-110220677D01*
X131687126Y-110262991D01*
X131581900Y-110523434D01*
X131580835Y-110527707D01*
X131580834Y-110527709D01*
X131547141Y-110662846D01*
X131513945Y-110795986D01*
X131484584Y-111075343D01*
X131494387Y-111356068D01*
X131495149Y-111360391D01*
X131495150Y-111360398D01*
X131518926Y-111495234D01*
X131543164Y-111632697D01*
X131629965Y-111899845D01*
X131753102Y-112152312D01*
X131755557Y-112155951D01*
X131755560Y-112155957D01*
X131828652Y-112264320D01*
X131910177Y-112385186D01*
X132098133Y-112593932D01*
X132313312Y-112774489D01*
X132317048Y-112776823D01*
X132317050Y-112776825D01*
X132381577Y-112817146D01*
X132428748Y-112870207D01*
X132439743Y-112940347D01*
X132411072Y-113005297D01*
X132351838Y-113044436D01*
X132314808Y-113050000D01*
X129298580Y-113050000D01*
X129230459Y-113029998D01*
X129183966Y-112976342D01*
X129179823Y-112966103D01*
X129167955Y-112932628D01*
X129164400Y-112920786D01*
X129151886Y-112870207D01*
X129077715Y-112570415D01*
X129075340Y-112558289D01*
X129066270Y-112495897D01*
X129023415Y-112201115D01*
X129022239Y-112188815D01*
X129020721Y-112155957D01*
X129007268Y-111864916D01*
X129008691Y-111839353D01*
X129009026Y-111837244D01*
X129009026Y-111837241D01*
X129010433Y-111828374D01*
X129006279Y-111795881D01*
X129005263Y-111779907D01*
X129005264Y-111777141D01*
X129005547Y-105850712D01*
X130855141Y-105850712D01*
X130890732Y-106057838D01*
X130963472Y-106255009D01*
X131070926Y-106435622D01*
X131209494Y-106593629D01*
X131374537Y-106723738D01*
X131379653Y-106726429D01*
X131379655Y-106726431D01*
X131555410Y-106818900D01*
X131560527Y-106821592D01*
X131761234Y-106883914D01*
X131766969Y-106884593D01*
X131766970Y-106884593D01*
X131797532Y-106888210D01*
X131931874Y-106904110D01*
X132053316Y-106904110D01*
X132209279Y-106889779D01*
X132214841Y-106888210D01*
X132214843Y-106888210D01*
X132310414Y-106861256D01*
X132411549Y-106832733D01*
X132600037Y-106739781D01*
X132768429Y-106614037D01*
X132911086Y-106459711D01*
X133023231Y-106281972D01*
X133101108Y-106086773D01*
X133102233Y-106081116D01*
X133102235Y-106081110D01*
X133140981Y-105886317D01*
X133140981Y-105886315D01*
X133142108Y-105880650D01*
X133142426Y-105856410D01*
X133142501Y-105850712D01*
X139855141Y-105850712D01*
X139890732Y-106057838D01*
X139963472Y-106255009D01*
X140070926Y-106435622D01*
X140209494Y-106593629D01*
X140374537Y-106723738D01*
X140379653Y-106726429D01*
X140379655Y-106726431D01*
X140555410Y-106818900D01*
X140560527Y-106821592D01*
X140761234Y-106883914D01*
X140766969Y-106884593D01*
X140766970Y-106884593D01*
X140797532Y-106888210D01*
X140931874Y-106904110D01*
X141053316Y-106904110D01*
X141209279Y-106889779D01*
X141214841Y-106888210D01*
X141214843Y-106888210D01*
X141310414Y-106861256D01*
X141411549Y-106832733D01*
X141600037Y-106739781D01*
X141768429Y-106614037D01*
X141911086Y-106459711D01*
X142023231Y-106281972D01*
X142101108Y-106086773D01*
X142102233Y-106081116D01*
X142102235Y-106081110D01*
X142140981Y-105886317D01*
X142140981Y-105886315D01*
X142142108Y-105880650D01*
X142142426Y-105856410D01*
X142142501Y-105850712D01*
X144855141Y-105850712D01*
X144890732Y-106057838D01*
X144963472Y-106255009D01*
X145070926Y-106435622D01*
X145209494Y-106593629D01*
X145374537Y-106723738D01*
X145379653Y-106726429D01*
X145379655Y-106726431D01*
X145555410Y-106818900D01*
X145560527Y-106821592D01*
X145761234Y-106883914D01*
X145766969Y-106884593D01*
X145766970Y-106884593D01*
X145797532Y-106888210D01*
X145931874Y-106904110D01*
X146053316Y-106904110D01*
X146209279Y-106889779D01*
X146214841Y-106888210D01*
X146214843Y-106888210D01*
X146310414Y-106861256D01*
X146411549Y-106832733D01*
X146600037Y-106739781D01*
X146768429Y-106614037D01*
X146911086Y-106459711D01*
X147023231Y-106281972D01*
X147101108Y-106086773D01*
X147102233Y-106081116D01*
X147102235Y-106081110D01*
X147140981Y-105886317D01*
X147140981Y-105886315D01*
X147142108Y-105880650D01*
X147142426Y-105856410D01*
X147142501Y-105850712D01*
X153855141Y-105850712D01*
X153890732Y-106057838D01*
X153963472Y-106255009D01*
X154070926Y-106435622D01*
X154209494Y-106593629D01*
X154374537Y-106723738D01*
X154379653Y-106726429D01*
X154379655Y-106726431D01*
X154555410Y-106818900D01*
X154560527Y-106821592D01*
X154761234Y-106883914D01*
X154766969Y-106884593D01*
X154766970Y-106884593D01*
X154797532Y-106888210D01*
X154931874Y-106904110D01*
X155053316Y-106904110D01*
X155209279Y-106889779D01*
X155214841Y-106888210D01*
X155214843Y-106888210D01*
X155310414Y-106861256D01*
X155411549Y-106832733D01*
X155600037Y-106739781D01*
X155768429Y-106614037D01*
X155911086Y-106459711D01*
X156023231Y-106281972D01*
X156101108Y-106086773D01*
X156102233Y-106081116D01*
X156102235Y-106081110D01*
X156140981Y-105886317D01*
X156140981Y-105886315D01*
X156142108Y-105880650D01*
X156142426Y-105856410D01*
X156142501Y-105850712D01*
X158855141Y-105850712D01*
X158890732Y-106057838D01*
X158963472Y-106255009D01*
X159070926Y-106435622D01*
X159209494Y-106593629D01*
X159374537Y-106723738D01*
X159379653Y-106726429D01*
X159379655Y-106726431D01*
X159555410Y-106818900D01*
X159560527Y-106821592D01*
X159761234Y-106883914D01*
X159766969Y-106884593D01*
X159766970Y-106884593D01*
X159797532Y-106888210D01*
X159931874Y-106904110D01*
X160053316Y-106904110D01*
X160209279Y-106889779D01*
X160214841Y-106888210D01*
X160214843Y-106888210D01*
X160310414Y-106861256D01*
X160411549Y-106832733D01*
X160600037Y-106739781D01*
X160768429Y-106614037D01*
X160911086Y-106459711D01*
X161023231Y-106281972D01*
X161101108Y-106086773D01*
X161102233Y-106081116D01*
X161102235Y-106081110D01*
X161140981Y-105886317D01*
X161140981Y-105886315D01*
X161142108Y-105880650D01*
X161142426Y-105856410D01*
X161142501Y-105850712D01*
X167855141Y-105850712D01*
X167890732Y-106057838D01*
X167963472Y-106255009D01*
X168070926Y-106435622D01*
X168209494Y-106593629D01*
X168374537Y-106723738D01*
X168379653Y-106726429D01*
X168379655Y-106726431D01*
X168555410Y-106818900D01*
X168560527Y-106821592D01*
X168761234Y-106883914D01*
X168766969Y-106884593D01*
X168766970Y-106884593D01*
X168797532Y-106888210D01*
X168931874Y-106904110D01*
X169053316Y-106904110D01*
X169209279Y-106889779D01*
X169214841Y-106888210D01*
X169214843Y-106888210D01*
X169310414Y-106861256D01*
X169411549Y-106832733D01*
X169600037Y-106739781D01*
X169768429Y-106614037D01*
X169911086Y-106459711D01*
X170023231Y-106281972D01*
X170101108Y-106086773D01*
X170102233Y-106081116D01*
X170102235Y-106081110D01*
X170140981Y-105886317D01*
X170140981Y-105886315D01*
X170142108Y-105880650D01*
X170142426Y-105856410D01*
X170142501Y-105850712D01*
X172855141Y-105850712D01*
X172890732Y-106057838D01*
X172963472Y-106255009D01*
X173070926Y-106435622D01*
X173209494Y-106593629D01*
X173374537Y-106723738D01*
X173379653Y-106726429D01*
X173379655Y-106726431D01*
X173555410Y-106818900D01*
X173560527Y-106821592D01*
X173761234Y-106883914D01*
X173766969Y-106884593D01*
X173766970Y-106884593D01*
X173797532Y-106888210D01*
X173931874Y-106904110D01*
X174053316Y-106904110D01*
X174209279Y-106889779D01*
X174214841Y-106888210D01*
X174214843Y-106888210D01*
X174310414Y-106861256D01*
X174411549Y-106832733D01*
X174600037Y-106739781D01*
X174768429Y-106614037D01*
X174911086Y-106459711D01*
X175023231Y-106281972D01*
X175101108Y-106086773D01*
X175102233Y-106081116D01*
X175102235Y-106081110D01*
X175140981Y-105886317D01*
X175140981Y-105886315D01*
X175142108Y-105880650D01*
X175142426Y-105856410D01*
X175142501Y-105850712D01*
X181855141Y-105850712D01*
X181890732Y-106057838D01*
X181963472Y-106255009D01*
X182070926Y-106435622D01*
X182209494Y-106593629D01*
X182374537Y-106723738D01*
X182379653Y-106726429D01*
X182379655Y-106726431D01*
X182555410Y-106818900D01*
X182560527Y-106821592D01*
X182761234Y-106883914D01*
X182766969Y-106884593D01*
X182766970Y-106884593D01*
X182797532Y-106888210D01*
X182931874Y-106904110D01*
X183053316Y-106904110D01*
X183209279Y-106889779D01*
X183214841Y-106888210D01*
X183214843Y-106888210D01*
X183310414Y-106861256D01*
X183411549Y-106832733D01*
X183600037Y-106739781D01*
X183768429Y-106614037D01*
X183911086Y-106459711D01*
X184023231Y-106281972D01*
X184101108Y-106086773D01*
X184102233Y-106081116D01*
X184102235Y-106081110D01*
X184140981Y-105886317D01*
X184140981Y-105886315D01*
X184142108Y-105880650D01*
X184142426Y-105856410D01*
X184144783Y-105676290D01*
X184144859Y-105670508D01*
X184109268Y-105463382D01*
X184036528Y-105266211D01*
X183974354Y-105161707D01*
X183932028Y-105090563D01*
X183932027Y-105090562D01*
X183929074Y-105085598D01*
X183790506Y-104927591D01*
X183625463Y-104797482D01*
X183620347Y-104794791D01*
X183620345Y-104794789D01*
X183444590Y-104702320D01*
X183444588Y-104702319D01*
X183439473Y-104699628D01*
X183238766Y-104637306D01*
X183233031Y-104636627D01*
X183233030Y-104636627D01*
X183184742Y-104630912D01*
X183068126Y-104617110D01*
X182946684Y-104617110D01*
X182790721Y-104631441D01*
X182785159Y-104633010D01*
X182785157Y-104633010D01*
X182689586Y-104659964D01*
X182588451Y-104688487D01*
X182399963Y-104781439D01*
X182395337Y-104784893D01*
X182395336Y-104784894D01*
X182236195Y-104903730D01*
X182231571Y-104907183D01*
X182227657Y-104911417D01*
X182227655Y-104911419D01*
X182118089Y-105029948D01*
X182088914Y-105061509D01*
X181976769Y-105239248D01*
X181898892Y-105434447D01*
X181897767Y-105440104D01*
X181897765Y-105440110D01*
X181892003Y-105469079D01*
X181857892Y-105640570D01*
X181857816Y-105646345D01*
X181857816Y-105646349D01*
X181857500Y-105670508D01*
X181855141Y-105850712D01*
X175142501Y-105850712D01*
X175144783Y-105676290D01*
X175144859Y-105670508D01*
X175109268Y-105463382D01*
X175036528Y-105266211D01*
X174974354Y-105161707D01*
X174932028Y-105090563D01*
X174932027Y-105090562D01*
X174929074Y-105085598D01*
X174790506Y-104927591D01*
X174625463Y-104797482D01*
X174620347Y-104794791D01*
X174620345Y-104794789D01*
X174444590Y-104702320D01*
X174444588Y-104702319D01*
X174439473Y-104699628D01*
X174238766Y-104637306D01*
X174233031Y-104636627D01*
X174233030Y-104636627D01*
X174184742Y-104630912D01*
X174068126Y-104617110D01*
X173946684Y-104617110D01*
X173790721Y-104631441D01*
X173785159Y-104633010D01*
X173785157Y-104633010D01*
X173689586Y-104659964D01*
X173588451Y-104688487D01*
X173399963Y-104781439D01*
X173395337Y-104784893D01*
X173395336Y-104784894D01*
X173236195Y-104903730D01*
X173231571Y-104907183D01*
X173227657Y-104911417D01*
X173227655Y-104911419D01*
X173118089Y-105029948D01*
X173088914Y-105061509D01*
X172976769Y-105239248D01*
X172898892Y-105434447D01*
X172897767Y-105440104D01*
X172897765Y-105440110D01*
X172892003Y-105469079D01*
X172857892Y-105640570D01*
X172857816Y-105646345D01*
X172857816Y-105646349D01*
X172857500Y-105670508D01*
X172855141Y-105850712D01*
X170142501Y-105850712D01*
X170144783Y-105676290D01*
X170144859Y-105670508D01*
X170109268Y-105463382D01*
X170036528Y-105266211D01*
X169974354Y-105161707D01*
X169932028Y-105090563D01*
X169932027Y-105090562D01*
X169929074Y-105085598D01*
X169790506Y-104927591D01*
X169625463Y-104797482D01*
X169620347Y-104794791D01*
X169620345Y-104794789D01*
X169444590Y-104702320D01*
X169444588Y-104702319D01*
X169439473Y-104699628D01*
X169238766Y-104637306D01*
X169233031Y-104636627D01*
X169233030Y-104636627D01*
X169184742Y-104630912D01*
X169068126Y-104617110D01*
X168946684Y-104617110D01*
X168790721Y-104631441D01*
X168785159Y-104633010D01*
X168785157Y-104633010D01*
X168689586Y-104659964D01*
X168588451Y-104688487D01*
X168399963Y-104781439D01*
X168395337Y-104784893D01*
X168395336Y-104784894D01*
X168236195Y-104903730D01*
X168231571Y-104907183D01*
X168227657Y-104911417D01*
X168227655Y-104911419D01*
X168118089Y-105029948D01*
X168088914Y-105061509D01*
X167976769Y-105239248D01*
X167898892Y-105434447D01*
X167897767Y-105440104D01*
X167897765Y-105440110D01*
X167892003Y-105469079D01*
X167857892Y-105640570D01*
X167857816Y-105646345D01*
X167857816Y-105646349D01*
X167857500Y-105670508D01*
X167855141Y-105850712D01*
X161142501Y-105850712D01*
X161144783Y-105676290D01*
X161144859Y-105670508D01*
X161109268Y-105463382D01*
X161036528Y-105266211D01*
X160974354Y-105161707D01*
X160932028Y-105090563D01*
X160932027Y-105090562D01*
X160929074Y-105085598D01*
X160790506Y-104927591D01*
X160625463Y-104797482D01*
X160620347Y-104794791D01*
X160620345Y-104794789D01*
X160444590Y-104702320D01*
X160444588Y-104702319D01*
X160439473Y-104699628D01*
X160238766Y-104637306D01*
X160233031Y-104636627D01*
X160233030Y-104636627D01*
X160184742Y-104630912D01*
X160068126Y-104617110D01*
X159946684Y-104617110D01*
X159790721Y-104631441D01*
X159785159Y-104633010D01*
X159785157Y-104633010D01*
X159689586Y-104659964D01*
X159588451Y-104688487D01*
X159399963Y-104781439D01*
X159395337Y-104784893D01*
X159395336Y-104784894D01*
X159236195Y-104903730D01*
X159231571Y-104907183D01*
X159227657Y-104911417D01*
X159227655Y-104911419D01*
X159118089Y-105029948D01*
X159088914Y-105061509D01*
X158976769Y-105239248D01*
X158898892Y-105434447D01*
X158897767Y-105440104D01*
X158897765Y-105440110D01*
X158892003Y-105469079D01*
X158857892Y-105640570D01*
X158857816Y-105646345D01*
X158857816Y-105646349D01*
X158857500Y-105670508D01*
X158855141Y-105850712D01*
X156142501Y-105850712D01*
X156144783Y-105676290D01*
X156144859Y-105670508D01*
X156109268Y-105463382D01*
X156036528Y-105266211D01*
X155974354Y-105161707D01*
X155932028Y-105090563D01*
X155932027Y-105090562D01*
X155929074Y-105085598D01*
X155790506Y-104927591D01*
X155625463Y-104797482D01*
X155620347Y-104794791D01*
X155620345Y-104794789D01*
X155444590Y-104702320D01*
X155444588Y-104702319D01*
X155439473Y-104699628D01*
X155238766Y-104637306D01*
X155233031Y-104636627D01*
X155233030Y-104636627D01*
X155184742Y-104630912D01*
X155068126Y-104617110D01*
X154946684Y-104617110D01*
X154790721Y-104631441D01*
X154785159Y-104633010D01*
X154785157Y-104633010D01*
X154689586Y-104659964D01*
X154588451Y-104688487D01*
X154399963Y-104781439D01*
X154395337Y-104784893D01*
X154395336Y-104784894D01*
X154236195Y-104903730D01*
X154231571Y-104907183D01*
X154227657Y-104911417D01*
X154227655Y-104911419D01*
X154118089Y-105029948D01*
X154088914Y-105061509D01*
X153976769Y-105239248D01*
X153898892Y-105434447D01*
X153897767Y-105440104D01*
X153897765Y-105440110D01*
X153892003Y-105469079D01*
X153857892Y-105640570D01*
X153857816Y-105646345D01*
X153857816Y-105646349D01*
X153857500Y-105670508D01*
X153855141Y-105850712D01*
X147142501Y-105850712D01*
X147144783Y-105676290D01*
X147144859Y-105670508D01*
X147109268Y-105463382D01*
X147036528Y-105266211D01*
X146974354Y-105161707D01*
X146932028Y-105090563D01*
X146932027Y-105090562D01*
X146929074Y-105085598D01*
X146790506Y-104927591D01*
X146625463Y-104797482D01*
X146620347Y-104794791D01*
X146620345Y-104794789D01*
X146444590Y-104702320D01*
X146444588Y-104702319D01*
X146439473Y-104699628D01*
X146238766Y-104637306D01*
X146233031Y-104636627D01*
X146233030Y-104636627D01*
X146184742Y-104630912D01*
X146068126Y-104617110D01*
X145946684Y-104617110D01*
X145790721Y-104631441D01*
X145785159Y-104633010D01*
X145785157Y-104633010D01*
X145689586Y-104659964D01*
X145588451Y-104688487D01*
X145399963Y-104781439D01*
X145395337Y-104784893D01*
X145395336Y-104784894D01*
X145236195Y-104903730D01*
X145231571Y-104907183D01*
X145227657Y-104911417D01*
X145227655Y-104911419D01*
X145118089Y-105029948D01*
X145088914Y-105061509D01*
X144976769Y-105239248D01*
X144898892Y-105434447D01*
X144897767Y-105440104D01*
X144897765Y-105440110D01*
X144892003Y-105469079D01*
X144857892Y-105640570D01*
X144857816Y-105646345D01*
X144857816Y-105646349D01*
X144857500Y-105670508D01*
X144855141Y-105850712D01*
X142142501Y-105850712D01*
X142144783Y-105676290D01*
X142144859Y-105670508D01*
X142109268Y-105463382D01*
X142036528Y-105266211D01*
X141974354Y-105161707D01*
X141932028Y-105090563D01*
X141932027Y-105090562D01*
X141929074Y-105085598D01*
X141790506Y-104927591D01*
X141625463Y-104797482D01*
X141620347Y-104794791D01*
X141620345Y-104794789D01*
X141444590Y-104702320D01*
X141444588Y-104702319D01*
X141439473Y-104699628D01*
X141238766Y-104637306D01*
X141233031Y-104636627D01*
X141233030Y-104636627D01*
X141184742Y-104630912D01*
X141068126Y-104617110D01*
X140946684Y-104617110D01*
X140790721Y-104631441D01*
X140785159Y-104633010D01*
X140785157Y-104633010D01*
X140689586Y-104659964D01*
X140588451Y-104688487D01*
X140399963Y-104781439D01*
X140395337Y-104784893D01*
X140395336Y-104784894D01*
X140236195Y-104903730D01*
X140231571Y-104907183D01*
X140227657Y-104911417D01*
X140227655Y-104911419D01*
X140118089Y-105029948D01*
X140088914Y-105061509D01*
X139976769Y-105239248D01*
X139898892Y-105434447D01*
X139897767Y-105440104D01*
X139897765Y-105440110D01*
X139892003Y-105469079D01*
X139857892Y-105640570D01*
X139857816Y-105646345D01*
X139857816Y-105646349D01*
X139857500Y-105670508D01*
X139855141Y-105850712D01*
X133142501Y-105850712D01*
X133144783Y-105676290D01*
X133144859Y-105670508D01*
X133109268Y-105463382D01*
X133036528Y-105266211D01*
X132974354Y-105161707D01*
X132932028Y-105090563D01*
X132932027Y-105090562D01*
X132929074Y-105085598D01*
X132790506Y-104927591D01*
X132625463Y-104797482D01*
X132620347Y-104794791D01*
X132620345Y-104794789D01*
X132444590Y-104702320D01*
X132444588Y-104702319D01*
X132439473Y-104699628D01*
X132238766Y-104637306D01*
X132233031Y-104636627D01*
X132233030Y-104636627D01*
X132184742Y-104630912D01*
X132068126Y-104617110D01*
X131946684Y-104617110D01*
X131790721Y-104631441D01*
X131785159Y-104633010D01*
X131785157Y-104633010D01*
X131689586Y-104659964D01*
X131588451Y-104688487D01*
X131399963Y-104781439D01*
X131395337Y-104784893D01*
X131395336Y-104784894D01*
X131236195Y-104903730D01*
X131231571Y-104907183D01*
X131227657Y-104911417D01*
X131227655Y-104911419D01*
X131118089Y-105029948D01*
X131088914Y-105061509D01*
X130976769Y-105239248D01*
X130898892Y-105434447D01*
X130897767Y-105440104D01*
X130897765Y-105440110D01*
X130892003Y-105469079D01*
X130857892Y-105640570D01*
X130857816Y-105646345D01*
X130857816Y-105646349D01*
X130857500Y-105670508D01*
X130855141Y-105850712D01*
X129005547Y-105850712D01*
X129005646Y-103767305D01*
X133637251Y-103767305D01*
X133637548Y-103772458D01*
X133637548Y-103772461D01*
X133643011Y-103867200D01*
X133650110Y-103990325D01*
X133651247Y-103995371D01*
X133651248Y-103995377D01*
X133671119Y-104083549D01*
X133699222Y-104208249D01*
X133783266Y-104415226D01*
X133899987Y-104605698D01*
X134046250Y-104774548D01*
X134218126Y-104917242D01*
X134411000Y-105029948D01*
X134619692Y-105109640D01*
X134624760Y-105110671D01*
X134624763Y-105110672D01*
X134732017Y-105132493D01*
X134838597Y-105154177D01*
X134843772Y-105154367D01*
X134843774Y-105154367D01*
X135056673Y-105162174D01*
X135056677Y-105162174D01*
X135061837Y-105162363D01*
X135066957Y-105161707D01*
X135066959Y-105161707D01*
X135278288Y-105134635D01*
X135278289Y-105134635D01*
X135283416Y-105133978D01*
X135288366Y-105132493D01*
X135492429Y-105071271D01*
X135492434Y-105071269D01*
X135497384Y-105069784D01*
X135697994Y-104971506D01*
X135879860Y-104841783D01*
X136038096Y-104684099D01*
X136075935Y-104631441D01*
X136165435Y-104506887D01*
X136168453Y-104502687D01*
X136267430Y-104302421D01*
X136332370Y-104088679D01*
X136361529Y-103867200D01*
X136363156Y-103800610D01*
X136360418Y-103767305D01*
X136637251Y-103767305D01*
X136637548Y-103772458D01*
X136637548Y-103772461D01*
X136643011Y-103867200D01*
X136650110Y-103990325D01*
X136651247Y-103995371D01*
X136651248Y-103995377D01*
X136671119Y-104083549D01*
X136699222Y-104208249D01*
X136783266Y-104415226D01*
X136899987Y-104605698D01*
X137046250Y-104774548D01*
X137218126Y-104917242D01*
X137411000Y-105029948D01*
X137619692Y-105109640D01*
X137624760Y-105110671D01*
X137624763Y-105110672D01*
X137732017Y-105132493D01*
X137838597Y-105154177D01*
X137843772Y-105154367D01*
X137843774Y-105154367D01*
X138056673Y-105162174D01*
X138056677Y-105162174D01*
X138061837Y-105162363D01*
X138066957Y-105161707D01*
X138066959Y-105161707D01*
X138278288Y-105134635D01*
X138278289Y-105134635D01*
X138283416Y-105133978D01*
X138288366Y-105132493D01*
X138492429Y-105071271D01*
X138492434Y-105071269D01*
X138497384Y-105069784D01*
X138697994Y-104971506D01*
X138879860Y-104841783D01*
X139038096Y-104684099D01*
X139075935Y-104631441D01*
X139165435Y-104506887D01*
X139168453Y-104502687D01*
X139267430Y-104302421D01*
X139332370Y-104088679D01*
X139361529Y-103867200D01*
X139363156Y-103800610D01*
X139360418Y-103767305D01*
X147637251Y-103767305D01*
X147637548Y-103772458D01*
X147637548Y-103772461D01*
X147643011Y-103867200D01*
X147650110Y-103990325D01*
X147651247Y-103995371D01*
X147651248Y-103995377D01*
X147671119Y-104083549D01*
X147699222Y-104208249D01*
X147783266Y-104415226D01*
X147899987Y-104605698D01*
X148046250Y-104774548D01*
X148218126Y-104917242D01*
X148411000Y-105029948D01*
X148619692Y-105109640D01*
X148624760Y-105110671D01*
X148624763Y-105110672D01*
X148732017Y-105132493D01*
X148838597Y-105154177D01*
X148843772Y-105154367D01*
X148843774Y-105154367D01*
X149056673Y-105162174D01*
X149056677Y-105162174D01*
X149061837Y-105162363D01*
X149066957Y-105161707D01*
X149066959Y-105161707D01*
X149278288Y-105134635D01*
X149278289Y-105134635D01*
X149283416Y-105133978D01*
X149288366Y-105132493D01*
X149492429Y-105071271D01*
X149492434Y-105071269D01*
X149497384Y-105069784D01*
X149697994Y-104971506D01*
X149879860Y-104841783D01*
X150038096Y-104684099D01*
X150075935Y-104631441D01*
X150165435Y-104506887D01*
X150168453Y-104502687D01*
X150267430Y-104302421D01*
X150332370Y-104088679D01*
X150361529Y-103867200D01*
X150363156Y-103800610D01*
X150360418Y-103767305D01*
X150637251Y-103767305D01*
X150637548Y-103772458D01*
X150637548Y-103772461D01*
X150643011Y-103867200D01*
X150650110Y-103990325D01*
X150651247Y-103995371D01*
X150651248Y-103995377D01*
X150671119Y-104083549D01*
X150699222Y-104208249D01*
X150783266Y-104415226D01*
X150899987Y-104605698D01*
X151046250Y-104774548D01*
X151218126Y-104917242D01*
X151411000Y-105029948D01*
X151619692Y-105109640D01*
X151624760Y-105110671D01*
X151624763Y-105110672D01*
X151732017Y-105132493D01*
X151838597Y-105154177D01*
X151843772Y-105154367D01*
X151843774Y-105154367D01*
X152056673Y-105162174D01*
X152056677Y-105162174D01*
X152061837Y-105162363D01*
X152066957Y-105161707D01*
X152066959Y-105161707D01*
X152278288Y-105134635D01*
X152278289Y-105134635D01*
X152283416Y-105133978D01*
X152288366Y-105132493D01*
X152492429Y-105071271D01*
X152492434Y-105071269D01*
X152497384Y-105069784D01*
X152697994Y-104971506D01*
X152879860Y-104841783D01*
X153038096Y-104684099D01*
X153075935Y-104631441D01*
X153165435Y-104506887D01*
X153168453Y-104502687D01*
X153267430Y-104302421D01*
X153332370Y-104088679D01*
X153361529Y-103867200D01*
X153363156Y-103800610D01*
X153360418Y-103767305D01*
X161637251Y-103767305D01*
X161637548Y-103772458D01*
X161637548Y-103772461D01*
X161643011Y-103867200D01*
X161650110Y-103990325D01*
X161651247Y-103995371D01*
X161651248Y-103995377D01*
X161671119Y-104083549D01*
X161699222Y-104208249D01*
X161783266Y-104415226D01*
X161899987Y-104605698D01*
X162046250Y-104774548D01*
X162218126Y-104917242D01*
X162411000Y-105029948D01*
X162619692Y-105109640D01*
X162624760Y-105110671D01*
X162624763Y-105110672D01*
X162732017Y-105132493D01*
X162838597Y-105154177D01*
X162843772Y-105154367D01*
X162843774Y-105154367D01*
X163056673Y-105162174D01*
X163056677Y-105162174D01*
X163061837Y-105162363D01*
X163066957Y-105161707D01*
X163066959Y-105161707D01*
X163278288Y-105134635D01*
X163278289Y-105134635D01*
X163283416Y-105133978D01*
X163288366Y-105132493D01*
X163492429Y-105071271D01*
X163492434Y-105071269D01*
X163497384Y-105069784D01*
X163697994Y-104971506D01*
X163879860Y-104841783D01*
X164038096Y-104684099D01*
X164075935Y-104631441D01*
X164165435Y-104506887D01*
X164168453Y-104502687D01*
X164267430Y-104302421D01*
X164332370Y-104088679D01*
X164361529Y-103867200D01*
X164363156Y-103800610D01*
X164360418Y-103767305D01*
X164637251Y-103767305D01*
X164637548Y-103772458D01*
X164637548Y-103772461D01*
X164643011Y-103867200D01*
X164650110Y-103990325D01*
X164651247Y-103995371D01*
X164651248Y-103995377D01*
X164671119Y-104083549D01*
X164699222Y-104208249D01*
X164783266Y-104415226D01*
X164899987Y-104605698D01*
X165046250Y-104774548D01*
X165218126Y-104917242D01*
X165411000Y-105029948D01*
X165619692Y-105109640D01*
X165624760Y-105110671D01*
X165624763Y-105110672D01*
X165732017Y-105132493D01*
X165838597Y-105154177D01*
X165843772Y-105154367D01*
X165843774Y-105154367D01*
X166056673Y-105162174D01*
X166056677Y-105162174D01*
X166061837Y-105162363D01*
X166066957Y-105161707D01*
X166066959Y-105161707D01*
X166278288Y-105134635D01*
X166278289Y-105134635D01*
X166283416Y-105133978D01*
X166288366Y-105132493D01*
X166492429Y-105071271D01*
X166492434Y-105071269D01*
X166497384Y-105069784D01*
X166697994Y-104971506D01*
X166879860Y-104841783D01*
X167038096Y-104684099D01*
X167075935Y-104631441D01*
X167165435Y-104506887D01*
X167168453Y-104502687D01*
X167267430Y-104302421D01*
X167332370Y-104088679D01*
X167361529Y-103867200D01*
X167363156Y-103800610D01*
X167360418Y-103767305D01*
X175637251Y-103767305D01*
X175637548Y-103772458D01*
X175637548Y-103772461D01*
X175643011Y-103867200D01*
X175650110Y-103990325D01*
X175651247Y-103995371D01*
X175651248Y-103995377D01*
X175671119Y-104083549D01*
X175699222Y-104208249D01*
X175783266Y-104415226D01*
X175899987Y-104605698D01*
X176046250Y-104774548D01*
X176218126Y-104917242D01*
X176411000Y-105029948D01*
X176619692Y-105109640D01*
X176624760Y-105110671D01*
X176624763Y-105110672D01*
X176732017Y-105132493D01*
X176838597Y-105154177D01*
X176843772Y-105154367D01*
X176843774Y-105154367D01*
X177056673Y-105162174D01*
X177056677Y-105162174D01*
X177061837Y-105162363D01*
X177066957Y-105161707D01*
X177066959Y-105161707D01*
X177278288Y-105134635D01*
X177278289Y-105134635D01*
X177283416Y-105133978D01*
X177288366Y-105132493D01*
X177492429Y-105071271D01*
X177492434Y-105071269D01*
X177497384Y-105069784D01*
X177697994Y-104971506D01*
X177879860Y-104841783D01*
X178038096Y-104684099D01*
X178075935Y-104631441D01*
X178165435Y-104506887D01*
X178168453Y-104502687D01*
X178267430Y-104302421D01*
X178332370Y-104088679D01*
X178361529Y-103867200D01*
X178363156Y-103800610D01*
X178360418Y-103767305D01*
X178637251Y-103767305D01*
X178637548Y-103772458D01*
X178637548Y-103772461D01*
X178643011Y-103867200D01*
X178650110Y-103990325D01*
X178651247Y-103995371D01*
X178651248Y-103995377D01*
X178671119Y-104083549D01*
X178699222Y-104208249D01*
X178783266Y-104415226D01*
X178899987Y-104605698D01*
X179046250Y-104774548D01*
X179218126Y-104917242D01*
X179411000Y-105029948D01*
X179619692Y-105109640D01*
X179624760Y-105110671D01*
X179624763Y-105110672D01*
X179732017Y-105132493D01*
X179838597Y-105154177D01*
X179843772Y-105154367D01*
X179843774Y-105154367D01*
X180056673Y-105162174D01*
X180056677Y-105162174D01*
X180061837Y-105162363D01*
X180066957Y-105161707D01*
X180066959Y-105161707D01*
X180278288Y-105134635D01*
X180278289Y-105134635D01*
X180283416Y-105133978D01*
X180288366Y-105132493D01*
X180492429Y-105071271D01*
X180492434Y-105071269D01*
X180497384Y-105069784D01*
X180697994Y-104971506D01*
X180879860Y-104841783D01*
X181038096Y-104684099D01*
X181075935Y-104631441D01*
X181165435Y-104506887D01*
X181168453Y-104502687D01*
X181267430Y-104302421D01*
X181332370Y-104088679D01*
X181361529Y-103867200D01*
X181363156Y-103800610D01*
X181344852Y-103577971D01*
X181290431Y-103361312D01*
X181201354Y-103156450D01*
X181080014Y-102968887D01*
X180929670Y-102803661D01*
X180925619Y-102800462D01*
X180925615Y-102800458D01*
X180758414Y-102668410D01*
X180758410Y-102668408D01*
X180754359Y-102665208D01*
X180558789Y-102557248D01*
X180553920Y-102555524D01*
X180553916Y-102555522D01*
X180353087Y-102484405D01*
X180353083Y-102484404D01*
X180348212Y-102482679D01*
X180343119Y-102481772D01*
X180343116Y-102481771D01*
X180133373Y-102444410D01*
X180133367Y-102444409D01*
X180128284Y-102443504D01*
X180054452Y-102442602D01*
X179910081Y-102440838D01*
X179910079Y-102440838D01*
X179904911Y-102440775D01*
X179684091Y-102474565D01*
X179471756Y-102543967D01*
X179273607Y-102647117D01*
X179269474Y-102650220D01*
X179269471Y-102650222D01*
X179245247Y-102668410D01*
X179094965Y-102781245D01*
X178940629Y-102942748D01*
X178814743Y-103127290D01*
X178720688Y-103329915D01*
X178660989Y-103545180D01*
X178637251Y-103767305D01*
X178360418Y-103767305D01*
X178344852Y-103577971D01*
X178290431Y-103361312D01*
X178201354Y-103156450D01*
X178080014Y-102968887D01*
X177929670Y-102803661D01*
X177925619Y-102800462D01*
X177925615Y-102800458D01*
X177758414Y-102668410D01*
X177758410Y-102668408D01*
X177754359Y-102665208D01*
X177558789Y-102557248D01*
X177553920Y-102555524D01*
X177553916Y-102555522D01*
X177353087Y-102484405D01*
X177353083Y-102484404D01*
X177348212Y-102482679D01*
X177343119Y-102481772D01*
X177343116Y-102481771D01*
X177133373Y-102444410D01*
X177133367Y-102444409D01*
X177128284Y-102443504D01*
X177054452Y-102442602D01*
X176910081Y-102440838D01*
X176910079Y-102440838D01*
X176904911Y-102440775D01*
X176684091Y-102474565D01*
X176471756Y-102543967D01*
X176273607Y-102647117D01*
X176269474Y-102650220D01*
X176269471Y-102650222D01*
X176245247Y-102668410D01*
X176094965Y-102781245D01*
X175940629Y-102942748D01*
X175814743Y-103127290D01*
X175720688Y-103329915D01*
X175660989Y-103545180D01*
X175637251Y-103767305D01*
X167360418Y-103767305D01*
X167344852Y-103577971D01*
X167290431Y-103361312D01*
X167201354Y-103156450D01*
X167080014Y-102968887D01*
X166929670Y-102803661D01*
X166925619Y-102800462D01*
X166925615Y-102800458D01*
X166758414Y-102668410D01*
X166758410Y-102668408D01*
X166754359Y-102665208D01*
X166558789Y-102557248D01*
X166553920Y-102555524D01*
X166553916Y-102555522D01*
X166353087Y-102484405D01*
X166353083Y-102484404D01*
X166348212Y-102482679D01*
X166343119Y-102481772D01*
X166343116Y-102481771D01*
X166133373Y-102444410D01*
X166133367Y-102444409D01*
X166128284Y-102443504D01*
X166054452Y-102442602D01*
X165910081Y-102440838D01*
X165910079Y-102440838D01*
X165904911Y-102440775D01*
X165684091Y-102474565D01*
X165471756Y-102543967D01*
X165273607Y-102647117D01*
X165269474Y-102650220D01*
X165269471Y-102650222D01*
X165245247Y-102668410D01*
X165094965Y-102781245D01*
X164940629Y-102942748D01*
X164814743Y-103127290D01*
X164720688Y-103329915D01*
X164660989Y-103545180D01*
X164637251Y-103767305D01*
X164360418Y-103767305D01*
X164344852Y-103577971D01*
X164290431Y-103361312D01*
X164201354Y-103156450D01*
X164080014Y-102968887D01*
X163929670Y-102803661D01*
X163925619Y-102800462D01*
X163925615Y-102800458D01*
X163758414Y-102668410D01*
X163758410Y-102668408D01*
X163754359Y-102665208D01*
X163558789Y-102557248D01*
X163553920Y-102555524D01*
X163553916Y-102555522D01*
X163353087Y-102484405D01*
X163353083Y-102484404D01*
X163348212Y-102482679D01*
X163343119Y-102481772D01*
X163343116Y-102481771D01*
X163133373Y-102444410D01*
X163133367Y-102444409D01*
X163128284Y-102443504D01*
X163054452Y-102442602D01*
X162910081Y-102440838D01*
X162910079Y-102440838D01*
X162904911Y-102440775D01*
X162684091Y-102474565D01*
X162471756Y-102543967D01*
X162273607Y-102647117D01*
X162269474Y-102650220D01*
X162269471Y-102650222D01*
X162245247Y-102668410D01*
X162094965Y-102781245D01*
X161940629Y-102942748D01*
X161814743Y-103127290D01*
X161720688Y-103329915D01*
X161660989Y-103545180D01*
X161637251Y-103767305D01*
X153360418Y-103767305D01*
X153344852Y-103577971D01*
X153290431Y-103361312D01*
X153201354Y-103156450D01*
X153080014Y-102968887D01*
X152929670Y-102803661D01*
X152925619Y-102800462D01*
X152925615Y-102800458D01*
X152758414Y-102668410D01*
X152758410Y-102668408D01*
X152754359Y-102665208D01*
X152558789Y-102557248D01*
X152553920Y-102555524D01*
X152553916Y-102555522D01*
X152353087Y-102484405D01*
X152353083Y-102484404D01*
X152348212Y-102482679D01*
X152343119Y-102481772D01*
X152343116Y-102481771D01*
X152133373Y-102444410D01*
X152133367Y-102444409D01*
X152128284Y-102443504D01*
X152054452Y-102442602D01*
X151910081Y-102440838D01*
X151910079Y-102440838D01*
X151904911Y-102440775D01*
X151684091Y-102474565D01*
X151471756Y-102543967D01*
X151273607Y-102647117D01*
X151269474Y-102650220D01*
X151269471Y-102650222D01*
X151245247Y-102668410D01*
X151094965Y-102781245D01*
X150940629Y-102942748D01*
X150814743Y-103127290D01*
X150720688Y-103329915D01*
X150660989Y-103545180D01*
X150637251Y-103767305D01*
X150360418Y-103767305D01*
X150344852Y-103577971D01*
X150290431Y-103361312D01*
X150201354Y-103156450D01*
X150080014Y-102968887D01*
X149929670Y-102803661D01*
X149925619Y-102800462D01*
X149925615Y-102800458D01*
X149758414Y-102668410D01*
X149758410Y-102668408D01*
X149754359Y-102665208D01*
X149558789Y-102557248D01*
X149553920Y-102555524D01*
X149553916Y-102555522D01*
X149353087Y-102484405D01*
X149353083Y-102484404D01*
X149348212Y-102482679D01*
X149343119Y-102481772D01*
X149343116Y-102481771D01*
X149133373Y-102444410D01*
X149133367Y-102444409D01*
X149128284Y-102443504D01*
X149054452Y-102442602D01*
X148910081Y-102440838D01*
X148910079Y-102440838D01*
X148904911Y-102440775D01*
X148684091Y-102474565D01*
X148471756Y-102543967D01*
X148273607Y-102647117D01*
X148269474Y-102650220D01*
X148269471Y-102650222D01*
X148245247Y-102668410D01*
X148094965Y-102781245D01*
X147940629Y-102942748D01*
X147814743Y-103127290D01*
X147720688Y-103329915D01*
X147660989Y-103545180D01*
X147637251Y-103767305D01*
X139360418Y-103767305D01*
X139344852Y-103577971D01*
X139290431Y-103361312D01*
X139201354Y-103156450D01*
X139080014Y-102968887D01*
X138929670Y-102803661D01*
X138925619Y-102800462D01*
X138925615Y-102800458D01*
X138758414Y-102668410D01*
X138758410Y-102668408D01*
X138754359Y-102665208D01*
X138558789Y-102557248D01*
X138553920Y-102555524D01*
X138553916Y-102555522D01*
X138353087Y-102484405D01*
X138353083Y-102484404D01*
X138348212Y-102482679D01*
X138343119Y-102481772D01*
X138343116Y-102481771D01*
X138133373Y-102444410D01*
X138133367Y-102444409D01*
X138128284Y-102443504D01*
X138054452Y-102442602D01*
X137910081Y-102440838D01*
X137910079Y-102440838D01*
X137904911Y-102440775D01*
X137684091Y-102474565D01*
X137471756Y-102543967D01*
X137273607Y-102647117D01*
X137269474Y-102650220D01*
X137269471Y-102650222D01*
X137245247Y-102668410D01*
X137094965Y-102781245D01*
X136940629Y-102942748D01*
X136814743Y-103127290D01*
X136720688Y-103329915D01*
X136660989Y-103545180D01*
X136637251Y-103767305D01*
X136360418Y-103767305D01*
X136344852Y-103577971D01*
X136290431Y-103361312D01*
X136201354Y-103156450D01*
X136080014Y-102968887D01*
X135929670Y-102803661D01*
X135925619Y-102800462D01*
X135925615Y-102800458D01*
X135758414Y-102668410D01*
X135758410Y-102668408D01*
X135754359Y-102665208D01*
X135558789Y-102557248D01*
X135553920Y-102555524D01*
X135553916Y-102555522D01*
X135353087Y-102484405D01*
X135353083Y-102484404D01*
X135348212Y-102482679D01*
X135343119Y-102481772D01*
X135343116Y-102481771D01*
X135133373Y-102444410D01*
X135133367Y-102444409D01*
X135128284Y-102443504D01*
X135054452Y-102442602D01*
X134910081Y-102440838D01*
X134910079Y-102440838D01*
X134904911Y-102440775D01*
X134684091Y-102474565D01*
X134471756Y-102543967D01*
X134273607Y-102647117D01*
X134269474Y-102650220D01*
X134269471Y-102650222D01*
X134245247Y-102668410D01*
X134094965Y-102781245D01*
X133940629Y-102942748D01*
X133814743Y-103127290D01*
X133720688Y-103329915D01*
X133660989Y-103545180D01*
X133637251Y-103767305D01*
X129005646Y-103767305D01*
X129006143Y-93350712D01*
X130855141Y-93350712D01*
X130890732Y-93557838D01*
X130963472Y-93755009D01*
X131070926Y-93935622D01*
X131209494Y-94093629D01*
X131374537Y-94223738D01*
X131379653Y-94226429D01*
X131379655Y-94226431D01*
X131555410Y-94318900D01*
X131560527Y-94321592D01*
X131761234Y-94383914D01*
X131766969Y-94384593D01*
X131766970Y-94384593D01*
X131797532Y-94388210D01*
X131931874Y-94404110D01*
X132053316Y-94404110D01*
X132209279Y-94389779D01*
X132214841Y-94388210D01*
X132214843Y-94388210D01*
X132310414Y-94361256D01*
X132411549Y-94332733D01*
X132600037Y-94239781D01*
X132768429Y-94114037D01*
X132911086Y-93959711D01*
X133023231Y-93781972D01*
X133101108Y-93586773D01*
X133102233Y-93581116D01*
X133102235Y-93581110D01*
X133140981Y-93386317D01*
X133140981Y-93386315D01*
X133142108Y-93380650D01*
X133142426Y-93356410D01*
X133142501Y-93350712D01*
X139855141Y-93350712D01*
X139890732Y-93557838D01*
X139963472Y-93755009D01*
X140070926Y-93935622D01*
X140209494Y-94093629D01*
X140374537Y-94223738D01*
X140379653Y-94226429D01*
X140379655Y-94226431D01*
X140555410Y-94318900D01*
X140560527Y-94321592D01*
X140761234Y-94383914D01*
X140766969Y-94384593D01*
X140766970Y-94384593D01*
X140797532Y-94388210D01*
X140931874Y-94404110D01*
X141053316Y-94404110D01*
X141209279Y-94389779D01*
X141214841Y-94388210D01*
X141214843Y-94388210D01*
X141310414Y-94361256D01*
X141411549Y-94332733D01*
X141600037Y-94239781D01*
X141768429Y-94114037D01*
X141911086Y-93959711D01*
X142023231Y-93781972D01*
X142101108Y-93586773D01*
X142102233Y-93581116D01*
X142102235Y-93581110D01*
X142140981Y-93386317D01*
X142140981Y-93386315D01*
X142142108Y-93380650D01*
X142142426Y-93356410D01*
X142142501Y-93350712D01*
X144855141Y-93350712D01*
X144890732Y-93557838D01*
X144963472Y-93755009D01*
X145070926Y-93935622D01*
X145209494Y-94093629D01*
X145374537Y-94223738D01*
X145379653Y-94226429D01*
X145379655Y-94226431D01*
X145555410Y-94318900D01*
X145560527Y-94321592D01*
X145761234Y-94383914D01*
X145766969Y-94384593D01*
X145766970Y-94384593D01*
X145797532Y-94388210D01*
X145931874Y-94404110D01*
X146053316Y-94404110D01*
X146209279Y-94389779D01*
X146214841Y-94388210D01*
X146214843Y-94388210D01*
X146310414Y-94361256D01*
X146411549Y-94332733D01*
X146600037Y-94239781D01*
X146768429Y-94114037D01*
X146911086Y-93959711D01*
X147023231Y-93781972D01*
X147101108Y-93586773D01*
X147102233Y-93581116D01*
X147102235Y-93581110D01*
X147140981Y-93386317D01*
X147140981Y-93386315D01*
X147142108Y-93380650D01*
X147142426Y-93356410D01*
X147142501Y-93350712D01*
X153855141Y-93350712D01*
X153890732Y-93557838D01*
X153963472Y-93755009D01*
X154070926Y-93935622D01*
X154209494Y-94093629D01*
X154374537Y-94223738D01*
X154379653Y-94226429D01*
X154379655Y-94226431D01*
X154555410Y-94318900D01*
X154560527Y-94321592D01*
X154761234Y-94383914D01*
X154766969Y-94384593D01*
X154766970Y-94384593D01*
X154797532Y-94388210D01*
X154931874Y-94404110D01*
X155053316Y-94404110D01*
X155209279Y-94389779D01*
X155214841Y-94388210D01*
X155214843Y-94388210D01*
X155310414Y-94361256D01*
X155411549Y-94332733D01*
X155600037Y-94239781D01*
X155768429Y-94114037D01*
X155911086Y-93959711D01*
X156023231Y-93781972D01*
X156101108Y-93586773D01*
X156102233Y-93581116D01*
X156102235Y-93581110D01*
X156140981Y-93386317D01*
X156140981Y-93386315D01*
X156142108Y-93380650D01*
X156142426Y-93356410D01*
X156142501Y-93350712D01*
X158855141Y-93350712D01*
X158890732Y-93557838D01*
X158963472Y-93755009D01*
X159070926Y-93935622D01*
X159209494Y-94093629D01*
X159374537Y-94223738D01*
X159379653Y-94226429D01*
X159379655Y-94226431D01*
X159555410Y-94318900D01*
X159560527Y-94321592D01*
X159761234Y-94383914D01*
X159766969Y-94384593D01*
X159766970Y-94384593D01*
X159797532Y-94388210D01*
X159931874Y-94404110D01*
X160053316Y-94404110D01*
X160209279Y-94389779D01*
X160214841Y-94388210D01*
X160214843Y-94388210D01*
X160310414Y-94361256D01*
X160411549Y-94332733D01*
X160600037Y-94239781D01*
X160768429Y-94114037D01*
X160911086Y-93959711D01*
X161023231Y-93781972D01*
X161101108Y-93586773D01*
X161102233Y-93581116D01*
X161102235Y-93581110D01*
X161140981Y-93386317D01*
X161140981Y-93386315D01*
X161142108Y-93380650D01*
X161142426Y-93356410D01*
X161142501Y-93350712D01*
X167855141Y-93350712D01*
X167890732Y-93557838D01*
X167963472Y-93755009D01*
X168070926Y-93935622D01*
X168209494Y-94093629D01*
X168374537Y-94223738D01*
X168379653Y-94226429D01*
X168379655Y-94226431D01*
X168555410Y-94318900D01*
X168560527Y-94321592D01*
X168761234Y-94383914D01*
X168766969Y-94384593D01*
X168766970Y-94384593D01*
X168797532Y-94388210D01*
X168931874Y-94404110D01*
X169053316Y-94404110D01*
X169209279Y-94389779D01*
X169214841Y-94388210D01*
X169214843Y-94388210D01*
X169310414Y-94361256D01*
X169411549Y-94332733D01*
X169600037Y-94239781D01*
X169768429Y-94114037D01*
X169911086Y-93959711D01*
X170023231Y-93781972D01*
X170101108Y-93586773D01*
X170102233Y-93581116D01*
X170102235Y-93581110D01*
X170140981Y-93386317D01*
X170140981Y-93386315D01*
X170142108Y-93380650D01*
X170142426Y-93356410D01*
X170142501Y-93350712D01*
X172855141Y-93350712D01*
X172890732Y-93557838D01*
X172963472Y-93755009D01*
X173070926Y-93935622D01*
X173209494Y-94093629D01*
X173374537Y-94223738D01*
X173379653Y-94226429D01*
X173379655Y-94226431D01*
X173555410Y-94318900D01*
X173560527Y-94321592D01*
X173761234Y-94383914D01*
X173766969Y-94384593D01*
X173766970Y-94384593D01*
X173797532Y-94388210D01*
X173931874Y-94404110D01*
X174053316Y-94404110D01*
X174209279Y-94389779D01*
X174214841Y-94388210D01*
X174214843Y-94388210D01*
X174310414Y-94361256D01*
X174411549Y-94332733D01*
X174600037Y-94239781D01*
X174768429Y-94114037D01*
X174911086Y-93959711D01*
X175023231Y-93781972D01*
X175101108Y-93586773D01*
X175102233Y-93581116D01*
X175102235Y-93581110D01*
X175140981Y-93386317D01*
X175140981Y-93386315D01*
X175142108Y-93380650D01*
X175142426Y-93356410D01*
X175142501Y-93350712D01*
X181855141Y-93350712D01*
X181890732Y-93557838D01*
X181963472Y-93755009D01*
X182070926Y-93935622D01*
X182209494Y-94093629D01*
X182374537Y-94223738D01*
X182379653Y-94226429D01*
X182379655Y-94226431D01*
X182555410Y-94318900D01*
X182560527Y-94321592D01*
X182761234Y-94383914D01*
X182766969Y-94384593D01*
X182766970Y-94384593D01*
X182797532Y-94388210D01*
X182931874Y-94404110D01*
X183053316Y-94404110D01*
X183209279Y-94389779D01*
X183214841Y-94388210D01*
X183214843Y-94388210D01*
X183310414Y-94361256D01*
X183411549Y-94332733D01*
X183600037Y-94239781D01*
X183768429Y-94114037D01*
X183911086Y-93959711D01*
X184023231Y-93781972D01*
X184101108Y-93586773D01*
X184102233Y-93581116D01*
X184102235Y-93581110D01*
X184140981Y-93386317D01*
X184140981Y-93386315D01*
X184142108Y-93380650D01*
X184142426Y-93356410D01*
X184144783Y-93176290D01*
X184144859Y-93170508D01*
X184109268Y-92963382D01*
X184036528Y-92766211D01*
X183974354Y-92661707D01*
X183932028Y-92590563D01*
X183932027Y-92590562D01*
X183929074Y-92585598D01*
X183790506Y-92427591D01*
X183625463Y-92297482D01*
X183620347Y-92294791D01*
X183620345Y-92294789D01*
X183444590Y-92202320D01*
X183444588Y-92202319D01*
X183439473Y-92199628D01*
X183238766Y-92137306D01*
X183233031Y-92136627D01*
X183233030Y-92136627D01*
X183184742Y-92130912D01*
X183068126Y-92117110D01*
X182946684Y-92117110D01*
X182790721Y-92131441D01*
X182785159Y-92133010D01*
X182785157Y-92133010D01*
X182689586Y-92159964D01*
X182588451Y-92188487D01*
X182399963Y-92281439D01*
X182395337Y-92284893D01*
X182395336Y-92284894D01*
X182236195Y-92403730D01*
X182231571Y-92407183D01*
X182227657Y-92411417D01*
X182227655Y-92411419D01*
X182118089Y-92529948D01*
X182088914Y-92561509D01*
X181976769Y-92739248D01*
X181898892Y-92934447D01*
X181897767Y-92940104D01*
X181897765Y-92940110D01*
X181892003Y-92969079D01*
X181857892Y-93140570D01*
X181857816Y-93146345D01*
X181857816Y-93146349D01*
X181857500Y-93170508D01*
X181855141Y-93350712D01*
X175142501Y-93350712D01*
X175144783Y-93176290D01*
X175144859Y-93170508D01*
X175109268Y-92963382D01*
X175036528Y-92766211D01*
X174974354Y-92661707D01*
X174932028Y-92590563D01*
X174932027Y-92590562D01*
X174929074Y-92585598D01*
X174790506Y-92427591D01*
X174625463Y-92297482D01*
X174620347Y-92294791D01*
X174620345Y-92294789D01*
X174444590Y-92202320D01*
X174444588Y-92202319D01*
X174439473Y-92199628D01*
X174238766Y-92137306D01*
X174233031Y-92136627D01*
X174233030Y-92136627D01*
X174184742Y-92130912D01*
X174068126Y-92117110D01*
X173946684Y-92117110D01*
X173790721Y-92131441D01*
X173785159Y-92133010D01*
X173785157Y-92133010D01*
X173689586Y-92159964D01*
X173588451Y-92188487D01*
X173399963Y-92281439D01*
X173395337Y-92284893D01*
X173395336Y-92284894D01*
X173236195Y-92403730D01*
X173231571Y-92407183D01*
X173227657Y-92411417D01*
X173227655Y-92411419D01*
X173118089Y-92529948D01*
X173088914Y-92561509D01*
X172976769Y-92739248D01*
X172898892Y-92934447D01*
X172897767Y-92940104D01*
X172897765Y-92940110D01*
X172892003Y-92969079D01*
X172857892Y-93140570D01*
X172857816Y-93146345D01*
X172857816Y-93146349D01*
X172857500Y-93170508D01*
X172855141Y-93350712D01*
X170142501Y-93350712D01*
X170144783Y-93176290D01*
X170144859Y-93170508D01*
X170109268Y-92963382D01*
X170036528Y-92766211D01*
X169974354Y-92661707D01*
X169932028Y-92590563D01*
X169932027Y-92590562D01*
X169929074Y-92585598D01*
X169790506Y-92427591D01*
X169625463Y-92297482D01*
X169620347Y-92294791D01*
X169620345Y-92294789D01*
X169444590Y-92202320D01*
X169444588Y-92202319D01*
X169439473Y-92199628D01*
X169238766Y-92137306D01*
X169233031Y-92136627D01*
X169233030Y-92136627D01*
X169184742Y-92130912D01*
X169068126Y-92117110D01*
X168946684Y-92117110D01*
X168790721Y-92131441D01*
X168785159Y-92133010D01*
X168785157Y-92133010D01*
X168689586Y-92159964D01*
X168588451Y-92188487D01*
X168399963Y-92281439D01*
X168395337Y-92284893D01*
X168395336Y-92284894D01*
X168236195Y-92403730D01*
X168231571Y-92407183D01*
X168227657Y-92411417D01*
X168227655Y-92411419D01*
X168118089Y-92529948D01*
X168088914Y-92561509D01*
X167976769Y-92739248D01*
X167898892Y-92934447D01*
X167897767Y-92940104D01*
X167897765Y-92940110D01*
X167892003Y-92969079D01*
X167857892Y-93140570D01*
X167857816Y-93146345D01*
X167857816Y-93146349D01*
X167857500Y-93170508D01*
X167855141Y-93350712D01*
X161142501Y-93350712D01*
X161144783Y-93176290D01*
X161144859Y-93170508D01*
X161109268Y-92963382D01*
X161036528Y-92766211D01*
X160974354Y-92661707D01*
X160932028Y-92590563D01*
X160932027Y-92590562D01*
X160929074Y-92585598D01*
X160790506Y-92427591D01*
X160625463Y-92297482D01*
X160620347Y-92294791D01*
X160620345Y-92294789D01*
X160444590Y-92202320D01*
X160444588Y-92202319D01*
X160439473Y-92199628D01*
X160238766Y-92137306D01*
X160233031Y-92136627D01*
X160233030Y-92136627D01*
X160184742Y-92130912D01*
X160068126Y-92117110D01*
X159946684Y-92117110D01*
X159790721Y-92131441D01*
X159785159Y-92133010D01*
X159785157Y-92133010D01*
X159689586Y-92159964D01*
X159588451Y-92188487D01*
X159399963Y-92281439D01*
X159395337Y-92284893D01*
X159395336Y-92284894D01*
X159236195Y-92403730D01*
X159231571Y-92407183D01*
X159227657Y-92411417D01*
X159227655Y-92411419D01*
X159118089Y-92529948D01*
X159088914Y-92561509D01*
X158976769Y-92739248D01*
X158898892Y-92934447D01*
X158897767Y-92940104D01*
X158897765Y-92940110D01*
X158892003Y-92969079D01*
X158857892Y-93140570D01*
X158857816Y-93146345D01*
X158857816Y-93146349D01*
X158857500Y-93170508D01*
X158855141Y-93350712D01*
X156142501Y-93350712D01*
X156144783Y-93176290D01*
X156144859Y-93170508D01*
X156109268Y-92963382D01*
X156036528Y-92766211D01*
X155974354Y-92661707D01*
X155932028Y-92590563D01*
X155932027Y-92590562D01*
X155929074Y-92585598D01*
X155790506Y-92427591D01*
X155625463Y-92297482D01*
X155620347Y-92294791D01*
X155620345Y-92294789D01*
X155444590Y-92202320D01*
X155444588Y-92202319D01*
X155439473Y-92199628D01*
X155238766Y-92137306D01*
X155233031Y-92136627D01*
X155233030Y-92136627D01*
X155184742Y-92130912D01*
X155068126Y-92117110D01*
X154946684Y-92117110D01*
X154790721Y-92131441D01*
X154785159Y-92133010D01*
X154785157Y-92133010D01*
X154689586Y-92159964D01*
X154588451Y-92188487D01*
X154399963Y-92281439D01*
X154395337Y-92284893D01*
X154395336Y-92284894D01*
X154236195Y-92403730D01*
X154231571Y-92407183D01*
X154227657Y-92411417D01*
X154227655Y-92411419D01*
X154118089Y-92529948D01*
X154088914Y-92561509D01*
X153976769Y-92739248D01*
X153898892Y-92934447D01*
X153897767Y-92940104D01*
X153897765Y-92940110D01*
X153892003Y-92969079D01*
X153857892Y-93140570D01*
X153857816Y-93146345D01*
X153857816Y-93146349D01*
X153857500Y-93170508D01*
X153855141Y-93350712D01*
X147142501Y-93350712D01*
X147144783Y-93176290D01*
X147144859Y-93170508D01*
X147109268Y-92963382D01*
X147036528Y-92766211D01*
X146974354Y-92661707D01*
X146932028Y-92590563D01*
X146932027Y-92590562D01*
X146929074Y-92585598D01*
X146790506Y-92427591D01*
X146625463Y-92297482D01*
X146620347Y-92294791D01*
X146620345Y-92294789D01*
X146444590Y-92202320D01*
X146444588Y-92202319D01*
X146439473Y-92199628D01*
X146238766Y-92137306D01*
X146233031Y-92136627D01*
X146233030Y-92136627D01*
X146184742Y-92130912D01*
X146068126Y-92117110D01*
X145946684Y-92117110D01*
X145790721Y-92131441D01*
X145785159Y-92133010D01*
X145785157Y-92133010D01*
X145689586Y-92159964D01*
X145588451Y-92188487D01*
X145399963Y-92281439D01*
X145395337Y-92284893D01*
X145395336Y-92284894D01*
X145236195Y-92403730D01*
X145231571Y-92407183D01*
X145227657Y-92411417D01*
X145227655Y-92411419D01*
X145118089Y-92529948D01*
X145088914Y-92561509D01*
X144976769Y-92739248D01*
X144898892Y-92934447D01*
X144897767Y-92940104D01*
X144897765Y-92940110D01*
X144892003Y-92969079D01*
X144857892Y-93140570D01*
X144857816Y-93146345D01*
X144857816Y-93146349D01*
X144857500Y-93170508D01*
X144855141Y-93350712D01*
X142142501Y-93350712D01*
X142144783Y-93176290D01*
X142144859Y-93170508D01*
X142109268Y-92963382D01*
X142036528Y-92766211D01*
X141974354Y-92661707D01*
X141932028Y-92590563D01*
X141932027Y-92590562D01*
X141929074Y-92585598D01*
X141790506Y-92427591D01*
X141625463Y-92297482D01*
X141620347Y-92294791D01*
X141620345Y-92294789D01*
X141444590Y-92202320D01*
X141444588Y-92202319D01*
X141439473Y-92199628D01*
X141238766Y-92137306D01*
X141233031Y-92136627D01*
X141233030Y-92136627D01*
X141184742Y-92130912D01*
X141068126Y-92117110D01*
X140946684Y-92117110D01*
X140790721Y-92131441D01*
X140785159Y-92133010D01*
X140785157Y-92133010D01*
X140689586Y-92159964D01*
X140588451Y-92188487D01*
X140399963Y-92281439D01*
X140395337Y-92284893D01*
X140395336Y-92284894D01*
X140236195Y-92403730D01*
X140231571Y-92407183D01*
X140227657Y-92411417D01*
X140227655Y-92411419D01*
X140118089Y-92529948D01*
X140088914Y-92561509D01*
X139976769Y-92739248D01*
X139898892Y-92934447D01*
X139897767Y-92940104D01*
X139897765Y-92940110D01*
X139892003Y-92969079D01*
X139857892Y-93140570D01*
X139857816Y-93146345D01*
X139857816Y-93146349D01*
X139857500Y-93170508D01*
X139855141Y-93350712D01*
X133142501Y-93350712D01*
X133144783Y-93176290D01*
X133144859Y-93170508D01*
X133109268Y-92963382D01*
X133036528Y-92766211D01*
X132974354Y-92661707D01*
X132932028Y-92590563D01*
X132932027Y-92590562D01*
X132929074Y-92585598D01*
X132790506Y-92427591D01*
X132625463Y-92297482D01*
X132620347Y-92294791D01*
X132620345Y-92294789D01*
X132444590Y-92202320D01*
X132444588Y-92202319D01*
X132439473Y-92199628D01*
X132238766Y-92137306D01*
X132233031Y-92136627D01*
X132233030Y-92136627D01*
X132184742Y-92130912D01*
X132068126Y-92117110D01*
X131946684Y-92117110D01*
X131790721Y-92131441D01*
X131785159Y-92133010D01*
X131785157Y-92133010D01*
X131689586Y-92159964D01*
X131588451Y-92188487D01*
X131399963Y-92281439D01*
X131395337Y-92284893D01*
X131395336Y-92284894D01*
X131236195Y-92403730D01*
X131231571Y-92407183D01*
X131227657Y-92411417D01*
X131227655Y-92411419D01*
X131118089Y-92529948D01*
X131088914Y-92561509D01*
X130976769Y-92739248D01*
X130898892Y-92934447D01*
X130897767Y-92940104D01*
X130897765Y-92940110D01*
X130892003Y-92969079D01*
X130857892Y-93140570D01*
X130857816Y-93146345D01*
X130857816Y-93146349D01*
X130857500Y-93170508D01*
X130855141Y-93350712D01*
X129006143Y-93350712D01*
X129006242Y-91267305D01*
X133637251Y-91267305D01*
X133637548Y-91272458D01*
X133637548Y-91272461D01*
X133643011Y-91367200D01*
X133650110Y-91490325D01*
X133651247Y-91495371D01*
X133651248Y-91495377D01*
X133671119Y-91583549D01*
X133699222Y-91708249D01*
X133783266Y-91915226D01*
X133899987Y-92105698D01*
X134046250Y-92274548D01*
X134218126Y-92417242D01*
X134411000Y-92529948D01*
X134619692Y-92609640D01*
X134624760Y-92610671D01*
X134624763Y-92610672D01*
X134732017Y-92632493D01*
X134838597Y-92654177D01*
X134843772Y-92654367D01*
X134843774Y-92654367D01*
X135056673Y-92662174D01*
X135056677Y-92662174D01*
X135061837Y-92662363D01*
X135066957Y-92661707D01*
X135066959Y-92661707D01*
X135278288Y-92634635D01*
X135278289Y-92634635D01*
X135283416Y-92633978D01*
X135288366Y-92632493D01*
X135492429Y-92571271D01*
X135492434Y-92571269D01*
X135497384Y-92569784D01*
X135697994Y-92471506D01*
X135879860Y-92341783D01*
X136038096Y-92184099D01*
X136075935Y-92131441D01*
X136165435Y-92006887D01*
X136168453Y-92002687D01*
X136267430Y-91802421D01*
X136332370Y-91588679D01*
X136361529Y-91367200D01*
X136363156Y-91300610D01*
X136360418Y-91267305D01*
X136637251Y-91267305D01*
X136637548Y-91272458D01*
X136637548Y-91272461D01*
X136643011Y-91367200D01*
X136650110Y-91490325D01*
X136651247Y-91495371D01*
X136651248Y-91495377D01*
X136671119Y-91583549D01*
X136699222Y-91708249D01*
X136783266Y-91915226D01*
X136899987Y-92105698D01*
X137046250Y-92274548D01*
X137218126Y-92417242D01*
X137411000Y-92529948D01*
X137619692Y-92609640D01*
X137624760Y-92610671D01*
X137624763Y-92610672D01*
X137732017Y-92632493D01*
X137838597Y-92654177D01*
X137843772Y-92654367D01*
X137843774Y-92654367D01*
X138056673Y-92662174D01*
X138056677Y-92662174D01*
X138061837Y-92662363D01*
X138066957Y-92661707D01*
X138066959Y-92661707D01*
X138278288Y-92634635D01*
X138278289Y-92634635D01*
X138283416Y-92633978D01*
X138288366Y-92632493D01*
X138492429Y-92571271D01*
X138492434Y-92571269D01*
X138497384Y-92569784D01*
X138697994Y-92471506D01*
X138879860Y-92341783D01*
X139038096Y-92184099D01*
X139075935Y-92131441D01*
X139165435Y-92006887D01*
X139168453Y-92002687D01*
X139267430Y-91802421D01*
X139332370Y-91588679D01*
X139361529Y-91367200D01*
X139363156Y-91300610D01*
X139360418Y-91267305D01*
X147637251Y-91267305D01*
X147637548Y-91272458D01*
X147637548Y-91272461D01*
X147643011Y-91367200D01*
X147650110Y-91490325D01*
X147651247Y-91495371D01*
X147651248Y-91495377D01*
X147671119Y-91583549D01*
X147699222Y-91708249D01*
X147783266Y-91915226D01*
X147899987Y-92105698D01*
X148046250Y-92274548D01*
X148218126Y-92417242D01*
X148411000Y-92529948D01*
X148619692Y-92609640D01*
X148624760Y-92610671D01*
X148624763Y-92610672D01*
X148732017Y-92632493D01*
X148838597Y-92654177D01*
X148843772Y-92654367D01*
X148843774Y-92654367D01*
X149056673Y-92662174D01*
X149056677Y-92662174D01*
X149061837Y-92662363D01*
X149066957Y-92661707D01*
X149066959Y-92661707D01*
X149278288Y-92634635D01*
X149278289Y-92634635D01*
X149283416Y-92633978D01*
X149288366Y-92632493D01*
X149492429Y-92571271D01*
X149492434Y-92571269D01*
X149497384Y-92569784D01*
X149697994Y-92471506D01*
X149879860Y-92341783D01*
X150038096Y-92184099D01*
X150075935Y-92131441D01*
X150165435Y-92006887D01*
X150168453Y-92002687D01*
X150267430Y-91802421D01*
X150332370Y-91588679D01*
X150361529Y-91367200D01*
X150363156Y-91300610D01*
X150360418Y-91267305D01*
X150637251Y-91267305D01*
X150637548Y-91272458D01*
X150637548Y-91272461D01*
X150643011Y-91367200D01*
X150650110Y-91490325D01*
X150651247Y-91495371D01*
X150651248Y-91495377D01*
X150671119Y-91583549D01*
X150699222Y-91708249D01*
X150783266Y-91915226D01*
X150899987Y-92105698D01*
X151046250Y-92274548D01*
X151218126Y-92417242D01*
X151411000Y-92529948D01*
X151619692Y-92609640D01*
X151624760Y-92610671D01*
X151624763Y-92610672D01*
X151732017Y-92632493D01*
X151838597Y-92654177D01*
X151843772Y-92654367D01*
X151843774Y-92654367D01*
X152056673Y-92662174D01*
X152056677Y-92662174D01*
X152061837Y-92662363D01*
X152066957Y-92661707D01*
X152066959Y-92661707D01*
X152278288Y-92634635D01*
X152278289Y-92634635D01*
X152283416Y-92633978D01*
X152288366Y-92632493D01*
X152492429Y-92571271D01*
X152492434Y-92571269D01*
X152497384Y-92569784D01*
X152697994Y-92471506D01*
X152879860Y-92341783D01*
X153038096Y-92184099D01*
X153075935Y-92131441D01*
X153165435Y-92006887D01*
X153168453Y-92002687D01*
X153267430Y-91802421D01*
X153332370Y-91588679D01*
X153361529Y-91367200D01*
X153363156Y-91300610D01*
X153360418Y-91267305D01*
X161637251Y-91267305D01*
X161637548Y-91272458D01*
X161637548Y-91272461D01*
X161643011Y-91367200D01*
X161650110Y-91490325D01*
X161651247Y-91495371D01*
X161651248Y-91495377D01*
X161671119Y-91583549D01*
X161699222Y-91708249D01*
X161783266Y-91915226D01*
X161899987Y-92105698D01*
X162046250Y-92274548D01*
X162218126Y-92417242D01*
X162411000Y-92529948D01*
X162619692Y-92609640D01*
X162624760Y-92610671D01*
X162624763Y-92610672D01*
X162732017Y-92632493D01*
X162838597Y-92654177D01*
X162843772Y-92654367D01*
X162843774Y-92654367D01*
X163056673Y-92662174D01*
X163056677Y-92662174D01*
X163061837Y-92662363D01*
X163066957Y-92661707D01*
X163066959Y-92661707D01*
X163278288Y-92634635D01*
X163278289Y-92634635D01*
X163283416Y-92633978D01*
X163288366Y-92632493D01*
X163492429Y-92571271D01*
X163492434Y-92571269D01*
X163497384Y-92569784D01*
X163697994Y-92471506D01*
X163879860Y-92341783D01*
X164038096Y-92184099D01*
X164075935Y-92131441D01*
X164165435Y-92006887D01*
X164168453Y-92002687D01*
X164267430Y-91802421D01*
X164332370Y-91588679D01*
X164361529Y-91367200D01*
X164363156Y-91300610D01*
X164360418Y-91267305D01*
X164637251Y-91267305D01*
X164637548Y-91272458D01*
X164637548Y-91272461D01*
X164643011Y-91367200D01*
X164650110Y-91490325D01*
X164651247Y-91495371D01*
X164651248Y-91495377D01*
X164671119Y-91583549D01*
X164699222Y-91708249D01*
X164783266Y-91915226D01*
X164899987Y-92105698D01*
X165046250Y-92274548D01*
X165218126Y-92417242D01*
X165411000Y-92529948D01*
X165619692Y-92609640D01*
X165624760Y-92610671D01*
X165624763Y-92610672D01*
X165732017Y-92632493D01*
X165838597Y-92654177D01*
X165843772Y-92654367D01*
X165843774Y-92654367D01*
X166056673Y-92662174D01*
X166056677Y-92662174D01*
X166061837Y-92662363D01*
X166066957Y-92661707D01*
X166066959Y-92661707D01*
X166278288Y-92634635D01*
X166278289Y-92634635D01*
X166283416Y-92633978D01*
X166288366Y-92632493D01*
X166492429Y-92571271D01*
X166492434Y-92571269D01*
X166497384Y-92569784D01*
X166697994Y-92471506D01*
X166879860Y-92341783D01*
X167038096Y-92184099D01*
X167075935Y-92131441D01*
X167165435Y-92006887D01*
X167168453Y-92002687D01*
X167267430Y-91802421D01*
X167332370Y-91588679D01*
X167361529Y-91367200D01*
X167363156Y-91300610D01*
X167360418Y-91267305D01*
X175637251Y-91267305D01*
X175637548Y-91272458D01*
X175637548Y-91272461D01*
X175643011Y-91367200D01*
X175650110Y-91490325D01*
X175651247Y-91495371D01*
X175651248Y-91495377D01*
X175671119Y-91583549D01*
X175699222Y-91708249D01*
X175783266Y-91915226D01*
X175899987Y-92105698D01*
X176046250Y-92274548D01*
X176218126Y-92417242D01*
X176411000Y-92529948D01*
X176619692Y-92609640D01*
X176624760Y-92610671D01*
X176624763Y-92610672D01*
X176732017Y-92632493D01*
X176838597Y-92654177D01*
X176843772Y-92654367D01*
X176843774Y-92654367D01*
X177056673Y-92662174D01*
X177056677Y-92662174D01*
X177061837Y-92662363D01*
X177066957Y-92661707D01*
X177066959Y-92661707D01*
X177278288Y-92634635D01*
X177278289Y-92634635D01*
X177283416Y-92633978D01*
X177288366Y-92632493D01*
X177492429Y-92571271D01*
X177492434Y-92571269D01*
X177497384Y-92569784D01*
X177697994Y-92471506D01*
X177879860Y-92341783D01*
X178038096Y-92184099D01*
X178075935Y-92131441D01*
X178165435Y-92006887D01*
X178168453Y-92002687D01*
X178267430Y-91802421D01*
X178332370Y-91588679D01*
X178361529Y-91367200D01*
X178363156Y-91300610D01*
X178360418Y-91267305D01*
X178637251Y-91267305D01*
X178637548Y-91272458D01*
X178637548Y-91272461D01*
X178643011Y-91367200D01*
X178650110Y-91490325D01*
X178651247Y-91495371D01*
X178651248Y-91495377D01*
X178671119Y-91583549D01*
X178699222Y-91708249D01*
X178783266Y-91915226D01*
X178899987Y-92105698D01*
X179046250Y-92274548D01*
X179218126Y-92417242D01*
X179411000Y-92529948D01*
X179619692Y-92609640D01*
X179624760Y-92610671D01*
X179624763Y-92610672D01*
X179732017Y-92632493D01*
X179838597Y-92654177D01*
X179843772Y-92654367D01*
X179843774Y-92654367D01*
X180056673Y-92662174D01*
X180056677Y-92662174D01*
X180061837Y-92662363D01*
X180066957Y-92661707D01*
X180066959Y-92661707D01*
X180278288Y-92634635D01*
X180278289Y-92634635D01*
X180283416Y-92633978D01*
X180288366Y-92632493D01*
X180492429Y-92571271D01*
X180492434Y-92571269D01*
X180497384Y-92569784D01*
X180697994Y-92471506D01*
X180879860Y-92341783D01*
X181038096Y-92184099D01*
X181075935Y-92131441D01*
X181165435Y-92006887D01*
X181168453Y-92002687D01*
X181267430Y-91802421D01*
X181332370Y-91588679D01*
X181361529Y-91367200D01*
X181363156Y-91300610D01*
X181344852Y-91077971D01*
X181290431Y-90861312D01*
X181201354Y-90656450D01*
X181080014Y-90468887D01*
X180929670Y-90303661D01*
X180925619Y-90300462D01*
X180925615Y-90300458D01*
X180758414Y-90168410D01*
X180758410Y-90168408D01*
X180754359Y-90165208D01*
X180558789Y-90057248D01*
X180553920Y-90055524D01*
X180553916Y-90055522D01*
X180353087Y-89984405D01*
X180353083Y-89984404D01*
X180348212Y-89982679D01*
X180343119Y-89981772D01*
X180343116Y-89981771D01*
X180133373Y-89944410D01*
X180133367Y-89944409D01*
X180128284Y-89943504D01*
X180054452Y-89942602D01*
X179910081Y-89940838D01*
X179910079Y-89940838D01*
X179904911Y-89940775D01*
X179684091Y-89974565D01*
X179471756Y-90043967D01*
X179273607Y-90147117D01*
X179269474Y-90150220D01*
X179269471Y-90150222D01*
X179245247Y-90168410D01*
X179094965Y-90281245D01*
X178940629Y-90442748D01*
X178814743Y-90627290D01*
X178720688Y-90829915D01*
X178660989Y-91045180D01*
X178637251Y-91267305D01*
X178360418Y-91267305D01*
X178344852Y-91077971D01*
X178290431Y-90861312D01*
X178201354Y-90656450D01*
X178080014Y-90468887D01*
X177929670Y-90303661D01*
X177925619Y-90300462D01*
X177925615Y-90300458D01*
X177758414Y-90168410D01*
X177758410Y-90168408D01*
X177754359Y-90165208D01*
X177558789Y-90057248D01*
X177553920Y-90055524D01*
X177553916Y-90055522D01*
X177353087Y-89984405D01*
X177353083Y-89984404D01*
X177348212Y-89982679D01*
X177343119Y-89981772D01*
X177343116Y-89981771D01*
X177133373Y-89944410D01*
X177133367Y-89944409D01*
X177128284Y-89943504D01*
X177054452Y-89942602D01*
X176910081Y-89940838D01*
X176910079Y-89940838D01*
X176904911Y-89940775D01*
X176684091Y-89974565D01*
X176471756Y-90043967D01*
X176273607Y-90147117D01*
X176269474Y-90150220D01*
X176269471Y-90150222D01*
X176245247Y-90168410D01*
X176094965Y-90281245D01*
X175940629Y-90442748D01*
X175814743Y-90627290D01*
X175720688Y-90829915D01*
X175660989Y-91045180D01*
X175637251Y-91267305D01*
X167360418Y-91267305D01*
X167344852Y-91077971D01*
X167290431Y-90861312D01*
X167201354Y-90656450D01*
X167080014Y-90468887D01*
X166929670Y-90303661D01*
X166925619Y-90300462D01*
X166925615Y-90300458D01*
X166758414Y-90168410D01*
X166758410Y-90168408D01*
X166754359Y-90165208D01*
X166558789Y-90057248D01*
X166553920Y-90055524D01*
X166553916Y-90055522D01*
X166353087Y-89984405D01*
X166353083Y-89984404D01*
X166348212Y-89982679D01*
X166343119Y-89981772D01*
X166343116Y-89981771D01*
X166133373Y-89944410D01*
X166133367Y-89944409D01*
X166128284Y-89943504D01*
X166054452Y-89942602D01*
X165910081Y-89940838D01*
X165910079Y-89940838D01*
X165904911Y-89940775D01*
X165684091Y-89974565D01*
X165471756Y-90043967D01*
X165273607Y-90147117D01*
X165269474Y-90150220D01*
X165269471Y-90150222D01*
X165245247Y-90168410D01*
X165094965Y-90281245D01*
X164940629Y-90442748D01*
X164814743Y-90627290D01*
X164720688Y-90829915D01*
X164660989Y-91045180D01*
X164637251Y-91267305D01*
X164360418Y-91267305D01*
X164344852Y-91077971D01*
X164290431Y-90861312D01*
X164201354Y-90656450D01*
X164080014Y-90468887D01*
X163929670Y-90303661D01*
X163925619Y-90300462D01*
X163925615Y-90300458D01*
X163758414Y-90168410D01*
X163758410Y-90168408D01*
X163754359Y-90165208D01*
X163558789Y-90057248D01*
X163553920Y-90055524D01*
X163553916Y-90055522D01*
X163353087Y-89984405D01*
X163353083Y-89984404D01*
X163348212Y-89982679D01*
X163343119Y-89981772D01*
X163343116Y-89981771D01*
X163133373Y-89944410D01*
X163133367Y-89944409D01*
X163128284Y-89943504D01*
X163054452Y-89942602D01*
X162910081Y-89940838D01*
X162910079Y-89940838D01*
X162904911Y-89940775D01*
X162684091Y-89974565D01*
X162471756Y-90043967D01*
X162273607Y-90147117D01*
X162269474Y-90150220D01*
X162269471Y-90150222D01*
X162245247Y-90168410D01*
X162094965Y-90281245D01*
X161940629Y-90442748D01*
X161814743Y-90627290D01*
X161720688Y-90829915D01*
X161660989Y-91045180D01*
X161637251Y-91267305D01*
X153360418Y-91267305D01*
X153344852Y-91077971D01*
X153290431Y-90861312D01*
X153201354Y-90656450D01*
X153080014Y-90468887D01*
X152929670Y-90303661D01*
X152925619Y-90300462D01*
X152925615Y-90300458D01*
X152758414Y-90168410D01*
X152758410Y-90168408D01*
X152754359Y-90165208D01*
X152558789Y-90057248D01*
X152553920Y-90055524D01*
X152553916Y-90055522D01*
X152353087Y-89984405D01*
X152353083Y-89984404D01*
X152348212Y-89982679D01*
X152343119Y-89981772D01*
X152343116Y-89981771D01*
X152133373Y-89944410D01*
X152133367Y-89944409D01*
X152128284Y-89943504D01*
X152054452Y-89942602D01*
X151910081Y-89940838D01*
X151910079Y-89940838D01*
X151904911Y-89940775D01*
X151684091Y-89974565D01*
X151471756Y-90043967D01*
X151273607Y-90147117D01*
X151269474Y-90150220D01*
X151269471Y-90150222D01*
X151245247Y-90168410D01*
X151094965Y-90281245D01*
X150940629Y-90442748D01*
X150814743Y-90627290D01*
X150720688Y-90829915D01*
X150660989Y-91045180D01*
X150637251Y-91267305D01*
X150360418Y-91267305D01*
X150344852Y-91077971D01*
X150290431Y-90861312D01*
X150201354Y-90656450D01*
X150080014Y-90468887D01*
X149929670Y-90303661D01*
X149925619Y-90300462D01*
X149925615Y-90300458D01*
X149758414Y-90168410D01*
X149758410Y-90168408D01*
X149754359Y-90165208D01*
X149558789Y-90057248D01*
X149553920Y-90055524D01*
X149553916Y-90055522D01*
X149353087Y-89984405D01*
X149353083Y-89984404D01*
X149348212Y-89982679D01*
X149343119Y-89981772D01*
X149343116Y-89981771D01*
X149133373Y-89944410D01*
X149133367Y-89944409D01*
X149128284Y-89943504D01*
X149054452Y-89942602D01*
X148910081Y-89940838D01*
X148910079Y-89940838D01*
X148904911Y-89940775D01*
X148684091Y-89974565D01*
X148471756Y-90043967D01*
X148273607Y-90147117D01*
X148269474Y-90150220D01*
X148269471Y-90150222D01*
X148245247Y-90168410D01*
X148094965Y-90281245D01*
X147940629Y-90442748D01*
X147814743Y-90627290D01*
X147720688Y-90829915D01*
X147660989Y-91045180D01*
X147637251Y-91267305D01*
X139360418Y-91267305D01*
X139344852Y-91077971D01*
X139290431Y-90861312D01*
X139201354Y-90656450D01*
X139080014Y-90468887D01*
X138929670Y-90303661D01*
X138925619Y-90300462D01*
X138925615Y-90300458D01*
X138758414Y-90168410D01*
X138758410Y-90168408D01*
X138754359Y-90165208D01*
X138558789Y-90057248D01*
X138553920Y-90055524D01*
X138553916Y-90055522D01*
X138353087Y-89984405D01*
X138353083Y-89984404D01*
X138348212Y-89982679D01*
X138343119Y-89981772D01*
X138343116Y-89981771D01*
X138133373Y-89944410D01*
X138133367Y-89944409D01*
X138128284Y-89943504D01*
X138054452Y-89942602D01*
X137910081Y-89940838D01*
X137910079Y-89940838D01*
X137904911Y-89940775D01*
X137684091Y-89974565D01*
X137471756Y-90043967D01*
X137273607Y-90147117D01*
X137269474Y-90150220D01*
X137269471Y-90150222D01*
X137245247Y-90168410D01*
X137094965Y-90281245D01*
X136940629Y-90442748D01*
X136814743Y-90627290D01*
X136720688Y-90829915D01*
X136660989Y-91045180D01*
X136637251Y-91267305D01*
X136360418Y-91267305D01*
X136344852Y-91077971D01*
X136290431Y-90861312D01*
X136201354Y-90656450D01*
X136080014Y-90468887D01*
X135929670Y-90303661D01*
X135925619Y-90300462D01*
X135925615Y-90300458D01*
X135758414Y-90168410D01*
X135758410Y-90168408D01*
X135754359Y-90165208D01*
X135558789Y-90057248D01*
X135553920Y-90055524D01*
X135553916Y-90055522D01*
X135353087Y-89984405D01*
X135353083Y-89984404D01*
X135348212Y-89982679D01*
X135343119Y-89981772D01*
X135343116Y-89981771D01*
X135133373Y-89944410D01*
X135133367Y-89944409D01*
X135128284Y-89943504D01*
X135054452Y-89942602D01*
X134910081Y-89940838D01*
X134910079Y-89940838D01*
X134904911Y-89940775D01*
X134684091Y-89974565D01*
X134471756Y-90043967D01*
X134273607Y-90147117D01*
X134269474Y-90150220D01*
X134269471Y-90150222D01*
X134245247Y-90168410D01*
X134094965Y-90281245D01*
X133940629Y-90442748D01*
X133814743Y-90627290D01*
X133720688Y-90829915D01*
X133660989Y-91045180D01*
X133637251Y-91267305D01*
X129006242Y-91267305D01*
X129006739Y-80850712D01*
X130855141Y-80850712D01*
X130890732Y-81057838D01*
X130963472Y-81255009D01*
X131070926Y-81435622D01*
X131209494Y-81593629D01*
X131374537Y-81723738D01*
X131379653Y-81726429D01*
X131379655Y-81726431D01*
X131555410Y-81818900D01*
X131560527Y-81821592D01*
X131761234Y-81883914D01*
X131766969Y-81884593D01*
X131766970Y-81884593D01*
X131797532Y-81888210D01*
X131931874Y-81904110D01*
X132053316Y-81904110D01*
X132209279Y-81889779D01*
X132214841Y-81888210D01*
X132214843Y-81888210D01*
X132310414Y-81861256D01*
X132411549Y-81832733D01*
X132600037Y-81739781D01*
X132768429Y-81614037D01*
X132911086Y-81459711D01*
X133023231Y-81281972D01*
X133101108Y-81086773D01*
X133102233Y-81081116D01*
X133102235Y-81081110D01*
X133140981Y-80886317D01*
X133140981Y-80886315D01*
X133142108Y-80880650D01*
X133142426Y-80856410D01*
X133142501Y-80850712D01*
X139855141Y-80850712D01*
X139890732Y-81057838D01*
X139963472Y-81255009D01*
X140070926Y-81435622D01*
X140209494Y-81593629D01*
X140374537Y-81723738D01*
X140379653Y-81726429D01*
X140379655Y-81726431D01*
X140555410Y-81818900D01*
X140560527Y-81821592D01*
X140761234Y-81883914D01*
X140766969Y-81884593D01*
X140766970Y-81884593D01*
X140797532Y-81888210D01*
X140931874Y-81904110D01*
X141053316Y-81904110D01*
X141209279Y-81889779D01*
X141214841Y-81888210D01*
X141214843Y-81888210D01*
X141310414Y-81861256D01*
X141411549Y-81832733D01*
X141600037Y-81739781D01*
X141768429Y-81614037D01*
X141911086Y-81459711D01*
X142023231Y-81281972D01*
X142101108Y-81086773D01*
X142102233Y-81081116D01*
X142102235Y-81081110D01*
X142140981Y-80886317D01*
X142140981Y-80886315D01*
X142142108Y-80880650D01*
X142142426Y-80856410D01*
X142142501Y-80850712D01*
X144855141Y-80850712D01*
X144890732Y-81057838D01*
X144963472Y-81255009D01*
X145070926Y-81435622D01*
X145209494Y-81593629D01*
X145374537Y-81723738D01*
X145379653Y-81726429D01*
X145379655Y-81726431D01*
X145555410Y-81818900D01*
X145560527Y-81821592D01*
X145761234Y-81883914D01*
X145766969Y-81884593D01*
X145766970Y-81884593D01*
X145797532Y-81888210D01*
X145931874Y-81904110D01*
X146053316Y-81904110D01*
X146209279Y-81889779D01*
X146214841Y-81888210D01*
X146214843Y-81888210D01*
X146310414Y-81861256D01*
X146411549Y-81832733D01*
X146600037Y-81739781D01*
X146768429Y-81614037D01*
X146911086Y-81459711D01*
X147023231Y-81281972D01*
X147101108Y-81086773D01*
X147102233Y-81081116D01*
X147102235Y-81081110D01*
X147140981Y-80886317D01*
X147140981Y-80886315D01*
X147142108Y-80880650D01*
X147142426Y-80856410D01*
X147142501Y-80850712D01*
X153855141Y-80850712D01*
X153890732Y-81057838D01*
X153963472Y-81255009D01*
X154070926Y-81435622D01*
X154209494Y-81593629D01*
X154374537Y-81723738D01*
X154379653Y-81726429D01*
X154379655Y-81726431D01*
X154555410Y-81818900D01*
X154560527Y-81821592D01*
X154761234Y-81883914D01*
X154766969Y-81884593D01*
X154766970Y-81884593D01*
X154797532Y-81888210D01*
X154931874Y-81904110D01*
X155053316Y-81904110D01*
X155209279Y-81889779D01*
X155214841Y-81888210D01*
X155214843Y-81888210D01*
X155310414Y-81861256D01*
X155411549Y-81832733D01*
X155600037Y-81739781D01*
X155768429Y-81614037D01*
X155911086Y-81459711D01*
X156023231Y-81281972D01*
X156101108Y-81086773D01*
X156102233Y-81081116D01*
X156102235Y-81081110D01*
X156140981Y-80886317D01*
X156140981Y-80886315D01*
X156142108Y-80880650D01*
X156142426Y-80856410D01*
X156142501Y-80850712D01*
X158855141Y-80850712D01*
X158890732Y-81057838D01*
X158963472Y-81255009D01*
X159070926Y-81435622D01*
X159209494Y-81593629D01*
X159374537Y-81723738D01*
X159379653Y-81726429D01*
X159379655Y-81726431D01*
X159555410Y-81818900D01*
X159560527Y-81821592D01*
X159761234Y-81883914D01*
X159766969Y-81884593D01*
X159766970Y-81884593D01*
X159797532Y-81888210D01*
X159931874Y-81904110D01*
X160053316Y-81904110D01*
X160209279Y-81889779D01*
X160214841Y-81888210D01*
X160214843Y-81888210D01*
X160310414Y-81861256D01*
X160411549Y-81832733D01*
X160600037Y-81739781D01*
X160768429Y-81614037D01*
X160911086Y-81459711D01*
X161023231Y-81281972D01*
X161101108Y-81086773D01*
X161102233Y-81081116D01*
X161102235Y-81081110D01*
X161140981Y-80886317D01*
X161140981Y-80886315D01*
X161142108Y-80880650D01*
X161142426Y-80856410D01*
X161142501Y-80850712D01*
X167855141Y-80850712D01*
X167890732Y-81057838D01*
X167963472Y-81255009D01*
X168070926Y-81435622D01*
X168209494Y-81593629D01*
X168374537Y-81723738D01*
X168379653Y-81726429D01*
X168379655Y-81726431D01*
X168555410Y-81818900D01*
X168560527Y-81821592D01*
X168761234Y-81883914D01*
X168766969Y-81884593D01*
X168766970Y-81884593D01*
X168797532Y-81888210D01*
X168931874Y-81904110D01*
X169053316Y-81904110D01*
X169209279Y-81889779D01*
X169214841Y-81888210D01*
X169214843Y-81888210D01*
X169310414Y-81861256D01*
X169411549Y-81832733D01*
X169600037Y-81739781D01*
X169768429Y-81614037D01*
X169911086Y-81459711D01*
X170023231Y-81281972D01*
X170101108Y-81086773D01*
X170102233Y-81081116D01*
X170102235Y-81081110D01*
X170140981Y-80886317D01*
X170140981Y-80886315D01*
X170142108Y-80880650D01*
X170142426Y-80856410D01*
X170142501Y-80850712D01*
X172855141Y-80850712D01*
X172890732Y-81057838D01*
X172963472Y-81255009D01*
X173070926Y-81435622D01*
X173209494Y-81593629D01*
X173374537Y-81723738D01*
X173379653Y-81726429D01*
X173379655Y-81726431D01*
X173555410Y-81818900D01*
X173560527Y-81821592D01*
X173761234Y-81883914D01*
X173766969Y-81884593D01*
X173766970Y-81884593D01*
X173797532Y-81888210D01*
X173931874Y-81904110D01*
X174053316Y-81904110D01*
X174209279Y-81889779D01*
X174214841Y-81888210D01*
X174214843Y-81888210D01*
X174310414Y-81861256D01*
X174411549Y-81832733D01*
X174600037Y-81739781D01*
X174768429Y-81614037D01*
X174911086Y-81459711D01*
X175023231Y-81281972D01*
X175101108Y-81086773D01*
X175102233Y-81081116D01*
X175102235Y-81081110D01*
X175140981Y-80886317D01*
X175140981Y-80886315D01*
X175142108Y-80880650D01*
X175142426Y-80856410D01*
X175142501Y-80850712D01*
X181855141Y-80850712D01*
X181890732Y-81057838D01*
X181963472Y-81255009D01*
X182070926Y-81435622D01*
X182209494Y-81593629D01*
X182374537Y-81723738D01*
X182379653Y-81726429D01*
X182379655Y-81726431D01*
X182555410Y-81818900D01*
X182560527Y-81821592D01*
X182761234Y-81883914D01*
X182766969Y-81884593D01*
X182766970Y-81884593D01*
X182797532Y-81888210D01*
X182931874Y-81904110D01*
X183053316Y-81904110D01*
X183209279Y-81889779D01*
X183214841Y-81888210D01*
X183214843Y-81888210D01*
X183310414Y-81861256D01*
X183411549Y-81832733D01*
X183600037Y-81739781D01*
X183768429Y-81614037D01*
X183911086Y-81459711D01*
X184023231Y-81281972D01*
X184101108Y-81086773D01*
X184102233Y-81081116D01*
X184102235Y-81081110D01*
X184140981Y-80886317D01*
X184140981Y-80886315D01*
X184142108Y-80880650D01*
X184142426Y-80856410D01*
X184144783Y-80676290D01*
X184144859Y-80670508D01*
X184109268Y-80463382D01*
X184036528Y-80266211D01*
X183974354Y-80161707D01*
X183932028Y-80090563D01*
X183932027Y-80090562D01*
X183929074Y-80085598D01*
X183790506Y-79927591D01*
X183625463Y-79797482D01*
X183620347Y-79794791D01*
X183620345Y-79794789D01*
X183444590Y-79702320D01*
X183444588Y-79702319D01*
X183439473Y-79699628D01*
X183238766Y-79637306D01*
X183233031Y-79636627D01*
X183233030Y-79636627D01*
X183184742Y-79630912D01*
X183068126Y-79617110D01*
X182946684Y-79617110D01*
X182790721Y-79631441D01*
X182785159Y-79633010D01*
X182785157Y-79633010D01*
X182689586Y-79659964D01*
X182588451Y-79688487D01*
X182399963Y-79781439D01*
X182395337Y-79784893D01*
X182395336Y-79784894D01*
X182236195Y-79903730D01*
X182231571Y-79907183D01*
X182227657Y-79911417D01*
X182227655Y-79911419D01*
X182118089Y-80029948D01*
X182088914Y-80061509D01*
X181976769Y-80239248D01*
X181898892Y-80434447D01*
X181897767Y-80440104D01*
X181897765Y-80440110D01*
X181892003Y-80469079D01*
X181857892Y-80640570D01*
X181857816Y-80646345D01*
X181857816Y-80646349D01*
X181857500Y-80670508D01*
X181855141Y-80850712D01*
X175142501Y-80850712D01*
X175144783Y-80676290D01*
X175144859Y-80670508D01*
X175109268Y-80463382D01*
X175036528Y-80266211D01*
X174974354Y-80161707D01*
X174932028Y-80090563D01*
X174932027Y-80090562D01*
X174929074Y-80085598D01*
X174790506Y-79927591D01*
X174625463Y-79797482D01*
X174620347Y-79794791D01*
X174620345Y-79794789D01*
X174444590Y-79702320D01*
X174444588Y-79702319D01*
X174439473Y-79699628D01*
X174238766Y-79637306D01*
X174233031Y-79636627D01*
X174233030Y-79636627D01*
X174184742Y-79630912D01*
X174068126Y-79617110D01*
X173946684Y-79617110D01*
X173790721Y-79631441D01*
X173785159Y-79633010D01*
X173785157Y-79633010D01*
X173689586Y-79659964D01*
X173588451Y-79688487D01*
X173399963Y-79781439D01*
X173395337Y-79784893D01*
X173395336Y-79784894D01*
X173236195Y-79903730D01*
X173231571Y-79907183D01*
X173227657Y-79911417D01*
X173227655Y-79911419D01*
X173118089Y-80029948D01*
X173088914Y-80061509D01*
X172976769Y-80239248D01*
X172898892Y-80434447D01*
X172897767Y-80440104D01*
X172897765Y-80440110D01*
X172892003Y-80469079D01*
X172857892Y-80640570D01*
X172857816Y-80646345D01*
X172857816Y-80646349D01*
X172857500Y-80670508D01*
X172855141Y-80850712D01*
X170142501Y-80850712D01*
X170144783Y-80676290D01*
X170144859Y-80670508D01*
X170109268Y-80463382D01*
X170036528Y-80266211D01*
X169974354Y-80161707D01*
X169932028Y-80090563D01*
X169932027Y-80090562D01*
X169929074Y-80085598D01*
X169790506Y-79927591D01*
X169625463Y-79797482D01*
X169620347Y-79794791D01*
X169620345Y-79794789D01*
X169444590Y-79702320D01*
X169444588Y-79702319D01*
X169439473Y-79699628D01*
X169238766Y-79637306D01*
X169233031Y-79636627D01*
X169233030Y-79636627D01*
X169184742Y-79630912D01*
X169068126Y-79617110D01*
X168946684Y-79617110D01*
X168790721Y-79631441D01*
X168785159Y-79633010D01*
X168785157Y-79633010D01*
X168689586Y-79659964D01*
X168588451Y-79688487D01*
X168399963Y-79781439D01*
X168395337Y-79784893D01*
X168395336Y-79784894D01*
X168236195Y-79903730D01*
X168231571Y-79907183D01*
X168227657Y-79911417D01*
X168227655Y-79911419D01*
X168118089Y-80029948D01*
X168088914Y-80061509D01*
X167976769Y-80239248D01*
X167898892Y-80434447D01*
X167897767Y-80440104D01*
X167897765Y-80440110D01*
X167892003Y-80469079D01*
X167857892Y-80640570D01*
X167857816Y-80646345D01*
X167857816Y-80646349D01*
X167857500Y-80670508D01*
X167855141Y-80850712D01*
X161142501Y-80850712D01*
X161144783Y-80676290D01*
X161144859Y-80670508D01*
X161109268Y-80463382D01*
X161036528Y-80266211D01*
X160974354Y-80161707D01*
X160932028Y-80090563D01*
X160932027Y-80090562D01*
X160929074Y-80085598D01*
X160790506Y-79927591D01*
X160625463Y-79797482D01*
X160620347Y-79794791D01*
X160620345Y-79794789D01*
X160444590Y-79702320D01*
X160444588Y-79702319D01*
X160439473Y-79699628D01*
X160238766Y-79637306D01*
X160233031Y-79636627D01*
X160233030Y-79636627D01*
X160184742Y-79630912D01*
X160068126Y-79617110D01*
X159946684Y-79617110D01*
X159790721Y-79631441D01*
X159785159Y-79633010D01*
X159785157Y-79633010D01*
X159689586Y-79659964D01*
X159588451Y-79688487D01*
X159399963Y-79781439D01*
X159395337Y-79784893D01*
X159395336Y-79784894D01*
X159236195Y-79903730D01*
X159231571Y-79907183D01*
X159227657Y-79911417D01*
X159227655Y-79911419D01*
X159118089Y-80029948D01*
X159088914Y-80061509D01*
X158976769Y-80239248D01*
X158898892Y-80434447D01*
X158897767Y-80440104D01*
X158897765Y-80440110D01*
X158892003Y-80469079D01*
X158857892Y-80640570D01*
X158857816Y-80646345D01*
X158857816Y-80646349D01*
X158857500Y-80670508D01*
X158855141Y-80850712D01*
X156142501Y-80850712D01*
X156144783Y-80676290D01*
X156144859Y-80670508D01*
X156109268Y-80463382D01*
X156036528Y-80266211D01*
X155974354Y-80161707D01*
X155932028Y-80090563D01*
X155932027Y-80090562D01*
X155929074Y-80085598D01*
X155790506Y-79927591D01*
X155625463Y-79797482D01*
X155620347Y-79794791D01*
X155620345Y-79794789D01*
X155444590Y-79702320D01*
X155444588Y-79702319D01*
X155439473Y-79699628D01*
X155238766Y-79637306D01*
X155233031Y-79636627D01*
X155233030Y-79636627D01*
X155184742Y-79630912D01*
X155068126Y-79617110D01*
X154946684Y-79617110D01*
X154790721Y-79631441D01*
X154785159Y-79633010D01*
X154785157Y-79633010D01*
X154689586Y-79659964D01*
X154588451Y-79688487D01*
X154399963Y-79781439D01*
X154395337Y-79784893D01*
X154395336Y-79784894D01*
X154236195Y-79903730D01*
X154231571Y-79907183D01*
X154227657Y-79911417D01*
X154227655Y-79911419D01*
X154118089Y-80029948D01*
X154088914Y-80061509D01*
X153976769Y-80239248D01*
X153898892Y-80434447D01*
X153897767Y-80440104D01*
X153897765Y-80440110D01*
X153892003Y-80469079D01*
X153857892Y-80640570D01*
X153857816Y-80646345D01*
X153857816Y-80646349D01*
X153857500Y-80670508D01*
X153855141Y-80850712D01*
X147142501Y-80850712D01*
X147144783Y-80676290D01*
X147144859Y-80670508D01*
X147109268Y-80463382D01*
X147036528Y-80266211D01*
X146974354Y-80161707D01*
X146932028Y-80090563D01*
X146932027Y-80090562D01*
X146929074Y-80085598D01*
X146790506Y-79927591D01*
X146625463Y-79797482D01*
X146620347Y-79794791D01*
X146620345Y-79794789D01*
X146444590Y-79702320D01*
X146444588Y-79702319D01*
X146439473Y-79699628D01*
X146238766Y-79637306D01*
X146233031Y-79636627D01*
X146233030Y-79636627D01*
X146184742Y-79630912D01*
X146068126Y-79617110D01*
X145946684Y-79617110D01*
X145790721Y-79631441D01*
X145785159Y-79633010D01*
X145785157Y-79633010D01*
X145689586Y-79659964D01*
X145588451Y-79688487D01*
X145399963Y-79781439D01*
X145395337Y-79784893D01*
X145395336Y-79784894D01*
X145236195Y-79903730D01*
X145231571Y-79907183D01*
X145227657Y-79911417D01*
X145227655Y-79911419D01*
X145118089Y-80029948D01*
X145088914Y-80061509D01*
X144976769Y-80239248D01*
X144898892Y-80434447D01*
X144897767Y-80440104D01*
X144897765Y-80440110D01*
X144892003Y-80469079D01*
X144857892Y-80640570D01*
X144857816Y-80646345D01*
X144857816Y-80646349D01*
X144857500Y-80670508D01*
X144855141Y-80850712D01*
X142142501Y-80850712D01*
X142144783Y-80676290D01*
X142144859Y-80670508D01*
X142109268Y-80463382D01*
X142036528Y-80266211D01*
X141974354Y-80161707D01*
X141932028Y-80090563D01*
X141932027Y-80090562D01*
X141929074Y-80085598D01*
X141790506Y-79927591D01*
X141625463Y-79797482D01*
X141620347Y-79794791D01*
X141620345Y-79794789D01*
X141444590Y-79702320D01*
X141444588Y-79702319D01*
X141439473Y-79699628D01*
X141238766Y-79637306D01*
X141233031Y-79636627D01*
X141233030Y-79636627D01*
X141184742Y-79630912D01*
X141068126Y-79617110D01*
X140946684Y-79617110D01*
X140790721Y-79631441D01*
X140785159Y-79633010D01*
X140785157Y-79633010D01*
X140689586Y-79659964D01*
X140588451Y-79688487D01*
X140399963Y-79781439D01*
X140395337Y-79784893D01*
X140395336Y-79784894D01*
X140236195Y-79903730D01*
X140231571Y-79907183D01*
X140227657Y-79911417D01*
X140227655Y-79911419D01*
X140118089Y-80029948D01*
X140088914Y-80061509D01*
X139976769Y-80239248D01*
X139898892Y-80434447D01*
X139897767Y-80440104D01*
X139897765Y-80440110D01*
X139892003Y-80469079D01*
X139857892Y-80640570D01*
X139857816Y-80646345D01*
X139857816Y-80646349D01*
X139857500Y-80670508D01*
X139855141Y-80850712D01*
X133142501Y-80850712D01*
X133144783Y-80676290D01*
X133144859Y-80670508D01*
X133109268Y-80463382D01*
X133036528Y-80266211D01*
X132974354Y-80161707D01*
X132932028Y-80090563D01*
X132932027Y-80090562D01*
X132929074Y-80085598D01*
X132790506Y-79927591D01*
X132625463Y-79797482D01*
X132620347Y-79794791D01*
X132620345Y-79794789D01*
X132444590Y-79702320D01*
X132444588Y-79702319D01*
X132439473Y-79699628D01*
X132238766Y-79637306D01*
X132233031Y-79636627D01*
X132233030Y-79636627D01*
X132184742Y-79630912D01*
X132068126Y-79617110D01*
X131946684Y-79617110D01*
X131790721Y-79631441D01*
X131785159Y-79633010D01*
X131785157Y-79633010D01*
X131689586Y-79659964D01*
X131588451Y-79688487D01*
X131399963Y-79781439D01*
X131395337Y-79784893D01*
X131395336Y-79784894D01*
X131236195Y-79903730D01*
X131231571Y-79907183D01*
X131227657Y-79911417D01*
X131227655Y-79911419D01*
X131118089Y-80029948D01*
X131088914Y-80061509D01*
X130976769Y-80239248D01*
X130898892Y-80434447D01*
X130897767Y-80440104D01*
X130897765Y-80440110D01*
X130892003Y-80469079D01*
X130857892Y-80640570D01*
X130857816Y-80646345D01*
X130857816Y-80646349D01*
X130857500Y-80670508D01*
X130855141Y-80850712D01*
X129006739Y-80850712D01*
X129006838Y-78767305D01*
X133637251Y-78767305D01*
X133637548Y-78772458D01*
X133637548Y-78772461D01*
X133643011Y-78867200D01*
X133650110Y-78990325D01*
X133651247Y-78995371D01*
X133651248Y-78995377D01*
X133671119Y-79083549D01*
X133699222Y-79208249D01*
X133783266Y-79415226D01*
X133899987Y-79605698D01*
X134046250Y-79774548D01*
X134218126Y-79917242D01*
X134411000Y-80029948D01*
X134619692Y-80109640D01*
X134624760Y-80110671D01*
X134624763Y-80110672D01*
X134732017Y-80132493D01*
X134838597Y-80154177D01*
X134843772Y-80154367D01*
X134843774Y-80154367D01*
X135056673Y-80162174D01*
X135056677Y-80162174D01*
X135061837Y-80162363D01*
X135066957Y-80161707D01*
X135066959Y-80161707D01*
X135278288Y-80134635D01*
X135278289Y-80134635D01*
X135283416Y-80133978D01*
X135288366Y-80132493D01*
X135492429Y-80071271D01*
X135492434Y-80071269D01*
X135497384Y-80069784D01*
X135697994Y-79971506D01*
X135879860Y-79841783D01*
X136038096Y-79684099D01*
X136075935Y-79631441D01*
X136165435Y-79506887D01*
X136168453Y-79502687D01*
X136267430Y-79302421D01*
X136332370Y-79088679D01*
X136361529Y-78867200D01*
X136363156Y-78800610D01*
X136360418Y-78767305D01*
X136637251Y-78767305D01*
X136637548Y-78772458D01*
X136637548Y-78772461D01*
X136643011Y-78867200D01*
X136650110Y-78990325D01*
X136651247Y-78995371D01*
X136651248Y-78995377D01*
X136671119Y-79083549D01*
X136699222Y-79208249D01*
X136783266Y-79415226D01*
X136899987Y-79605698D01*
X137046250Y-79774548D01*
X137218126Y-79917242D01*
X137411000Y-80029948D01*
X137619692Y-80109640D01*
X137624760Y-80110671D01*
X137624763Y-80110672D01*
X137732017Y-80132493D01*
X137838597Y-80154177D01*
X137843772Y-80154367D01*
X137843774Y-80154367D01*
X138056673Y-80162174D01*
X138056677Y-80162174D01*
X138061837Y-80162363D01*
X138066957Y-80161707D01*
X138066959Y-80161707D01*
X138278288Y-80134635D01*
X138278289Y-80134635D01*
X138283416Y-80133978D01*
X138288366Y-80132493D01*
X138492429Y-80071271D01*
X138492434Y-80071269D01*
X138497384Y-80069784D01*
X138697994Y-79971506D01*
X138879860Y-79841783D01*
X139038096Y-79684099D01*
X139075935Y-79631441D01*
X139165435Y-79506887D01*
X139168453Y-79502687D01*
X139267430Y-79302421D01*
X139332370Y-79088679D01*
X139361529Y-78867200D01*
X139363156Y-78800610D01*
X139360418Y-78767305D01*
X147637251Y-78767305D01*
X147637548Y-78772458D01*
X147637548Y-78772461D01*
X147643011Y-78867200D01*
X147650110Y-78990325D01*
X147651247Y-78995371D01*
X147651248Y-78995377D01*
X147671119Y-79083549D01*
X147699222Y-79208249D01*
X147783266Y-79415226D01*
X147899987Y-79605698D01*
X148046250Y-79774548D01*
X148218126Y-79917242D01*
X148411000Y-80029948D01*
X148619692Y-80109640D01*
X148624760Y-80110671D01*
X148624763Y-80110672D01*
X148732017Y-80132493D01*
X148838597Y-80154177D01*
X148843772Y-80154367D01*
X148843774Y-80154367D01*
X149056673Y-80162174D01*
X149056677Y-80162174D01*
X149061837Y-80162363D01*
X149066957Y-80161707D01*
X149066959Y-80161707D01*
X149278288Y-80134635D01*
X149278289Y-80134635D01*
X149283416Y-80133978D01*
X149288366Y-80132493D01*
X149492429Y-80071271D01*
X149492434Y-80071269D01*
X149497384Y-80069784D01*
X149697994Y-79971506D01*
X149879860Y-79841783D01*
X150038096Y-79684099D01*
X150075935Y-79631441D01*
X150165435Y-79506887D01*
X150168453Y-79502687D01*
X150267430Y-79302421D01*
X150332370Y-79088679D01*
X150361529Y-78867200D01*
X150363156Y-78800610D01*
X150360418Y-78767305D01*
X150637251Y-78767305D01*
X150637548Y-78772458D01*
X150637548Y-78772461D01*
X150643011Y-78867200D01*
X150650110Y-78990325D01*
X150651247Y-78995371D01*
X150651248Y-78995377D01*
X150671119Y-79083549D01*
X150699222Y-79208249D01*
X150783266Y-79415226D01*
X150899987Y-79605698D01*
X151046250Y-79774548D01*
X151218126Y-79917242D01*
X151411000Y-80029948D01*
X151619692Y-80109640D01*
X151624760Y-80110671D01*
X151624763Y-80110672D01*
X151732017Y-80132493D01*
X151838597Y-80154177D01*
X151843772Y-80154367D01*
X151843774Y-80154367D01*
X152056673Y-80162174D01*
X152056677Y-80162174D01*
X152061837Y-80162363D01*
X152066957Y-80161707D01*
X152066959Y-80161707D01*
X152278288Y-80134635D01*
X152278289Y-80134635D01*
X152283416Y-80133978D01*
X152288366Y-80132493D01*
X152492429Y-80071271D01*
X152492434Y-80071269D01*
X152497384Y-80069784D01*
X152697994Y-79971506D01*
X152879860Y-79841783D01*
X153038096Y-79684099D01*
X153075935Y-79631441D01*
X153165435Y-79506887D01*
X153168453Y-79502687D01*
X153267430Y-79302421D01*
X153332370Y-79088679D01*
X153361529Y-78867200D01*
X153363156Y-78800610D01*
X153360418Y-78767305D01*
X161637251Y-78767305D01*
X161637548Y-78772458D01*
X161637548Y-78772461D01*
X161643011Y-78867200D01*
X161650110Y-78990325D01*
X161651247Y-78995371D01*
X161651248Y-78995377D01*
X161671119Y-79083549D01*
X161699222Y-79208249D01*
X161783266Y-79415226D01*
X161899987Y-79605698D01*
X162046250Y-79774548D01*
X162218126Y-79917242D01*
X162411000Y-80029948D01*
X162619692Y-80109640D01*
X162624760Y-80110671D01*
X162624763Y-80110672D01*
X162732017Y-80132493D01*
X162838597Y-80154177D01*
X162843772Y-80154367D01*
X162843774Y-80154367D01*
X163056673Y-80162174D01*
X163056677Y-80162174D01*
X163061837Y-80162363D01*
X163066957Y-80161707D01*
X163066959Y-80161707D01*
X163278288Y-80134635D01*
X163278289Y-80134635D01*
X163283416Y-80133978D01*
X163288366Y-80132493D01*
X163492429Y-80071271D01*
X163492434Y-80071269D01*
X163497384Y-80069784D01*
X163697994Y-79971506D01*
X163879860Y-79841783D01*
X164038096Y-79684099D01*
X164075935Y-79631441D01*
X164165435Y-79506887D01*
X164168453Y-79502687D01*
X164267430Y-79302421D01*
X164332370Y-79088679D01*
X164361529Y-78867200D01*
X164363156Y-78800610D01*
X164360418Y-78767305D01*
X164637251Y-78767305D01*
X164637548Y-78772458D01*
X164637548Y-78772461D01*
X164643011Y-78867200D01*
X164650110Y-78990325D01*
X164651247Y-78995371D01*
X164651248Y-78995377D01*
X164671119Y-79083549D01*
X164699222Y-79208249D01*
X164783266Y-79415226D01*
X164899987Y-79605698D01*
X165046250Y-79774548D01*
X165218126Y-79917242D01*
X165411000Y-80029948D01*
X165619692Y-80109640D01*
X165624760Y-80110671D01*
X165624763Y-80110672D01*
X165732017Y-80132493D01*
X165838597Y-80154177D01*
X165843772Y-80154367D01*
X165843774Y-80154367D01*
X166056673Y-80162174D01*
X166056677Y-80162174D01*
X166061837Y-80162363D01*
X166066957Y-80161707D01*
X166066959Y-80161707D01*
X166278288Y-80134635D01*
X166278289Y-80134635D01*
X166283416Y-80133978D01*
X166288366Y-80132493D01*
X166492429Y-80071271D01*
X166492434Y-80071269D01*
X166497384Y-80069784D01*
X166697994Y-79971506D01*
X166879860Y-79841783D01*
X167038096Y-79684099D01*
X167075935Y-79631441D01*
X167165435Y-79506887D01*
X167168453Y-79502687D01*
X167267430Y-79302421D01*
X167332370Y-79088679D01*
X167361529Y-78867200D01*
X167363156Y-78800610D01*
X167360418Y-78767305D01*
X175637251Y-78767305D01*
X175637548Y-78772458D01*
X175637548Y-78772461D01*
X175643011Y-78867200D01*
X175650110Y-78990325D01*
X175651247Y-78995371D01*
X175651248Y-78995377D01*
X175671119Y-79083549D01*
X175699222Y-79208249D01*
X175783266Y-79415226D01*
X175899987Y-79605698D01*
X176046250Y-79774548D01*
X176218126Y-79917242D01*
X176411000Y-80029948D01*
X176619692Y-80109640D01*
X176624760Y-80110671D01*
X176624763Y-80110672D01*
X176732017Y-80132493D01*
X176838597Y-80154177D01*
X176843772Y-80154367D01*
X176843774Y-80154367D01*
X177056673Y-80162174D01*
X177056677Y-80162174D01*
X177061837Y-80162363D01*
X177066957Y-80161707D01*
X177066959Y-80161707D01*
X177278288Y-80134635D01*
X177278289Y-80134635D01*
X177283416Y-80133978D01*
X177288366Y-80132493D01*
X177492429Y-80071271D01*
X177492434Y-80071269D01*
X177497384Y-80069784D01*
X177697994Y-79971506D01*
X177879860Y-79841783D01*
X178038096Y-79684099D01*
X178075935Y-79631441D01*
X178165435Y-79506887D01*
X178168453Y-79502687D01*
X178267430Y-79302421D01*
X178332370Y-79088679D01*
X178361529Y-78867200D01*
X178363156Y-78800610D01*
X178360418Y-78767305D01*
X178637251Y-78767305D01*
X178637548Y-78772458D01*
X178637548Y-78772461D01*
X178643011Y-78867200D01*
X178650110Y-78990325D01*
X178651247Y-78995371D01*
X178651248Y-78995377D01*
X178671119Y-79083549D01*
X178699222Y-79208249D01*
X178783266Y-79415226D01*
X178899987Y-79605698D01*
X179046250Y-79774548D01*
X179218126Y-79917242D01*
X179411000Y-80029948D01*
X179619692Y-80109640D01*
X179624760Y-80110671D01*
X179624763Y-80110672D01*
X179732017Y-80132493D01*
X179838597Y-80154177D01*
X179843772Y-80154367D01*
X179843774Y-80154367D01*
X180056673Y-80162174D01*
X180056677Y-80162174D01*
X180061837Y-80162363D01*
X180066957Y-80161707D01*
X180066959Y-80161707D01*
X180278288Y-80134635D01*
X180278289Y-80134635D01*
X180283416Y-80133978D01*
X180288366Y-80132493D01*
X180492429Y-80071271D01*
X180492434Y-80071269D01*
X180497384Y-80069784D01*
X180697994Y-79971506D01*
X180879860Y-79841783D01*
X181038096Y-79684099D01*
X181075935Y-79631441D01*
X181165435Y-79506887D01*
X181168453Y-79502687D01*
X181267430Y-79302421D01*
X181332370Y-79088679D01*
X181361529Y-78867200D01*
X181363156Y-78800610D01*
X181344852Y-78577971D01*
X181290431Y-78361312D01*
X181201354Y-78156450D01*
X181080014Y-77968887D01*
X180929670Y-77803661D01*
X180925619Y-77800462D01*
X180925615Y-77800458D01*
X180758414Y-77668410D01*
X180758410Y-77668408D01*
X180754359Y-77665208D01*
X180558789Y-77557248D01*
X180553920Y-77555524D01*
X180553916Y-77555522D01*
X180353087Y-77484405D01*
X180353083Y-77484404D01*
X180348212Y-77482679D01*
X180343119Y-77481772D01*
X180343116Y-77481771D01*
X180133373Y-77444410D01*
X180133367Y-77444409D01*
X180128284Y-77443504D01*
X180054452Y-77442602D01*
X179910081Y-77440838D01*
X179910079Y-77440838D01*
X179904911Y-77440775D01*
X179684091Y-77474565D01*
X179471756Y-77543967D01*
X179273607Y-77647117D01*
X179269474Y-77650220D01*
X179269471Y-77650222D01*
X179245247Y-77668410D01*
X179094965Y-77781245D01*
X178940629Y-77942748D01*
X178814743Y-78127290D01*
X178720688Y-78329915D01*
X178660989Y-78545180D01*
X178637251Y-78767305D01*
X178360418Y-78767305D01*
X178344852Y-78577971D01*
X178290431Y-78361312D01*
X178201354Y-78156450D01*
X178080014Y-77968887D01*
X177929670Y-77803661D01*
X177925619Y-77800462D01*
X177925615Y-77800458D01*
X177758414Y-77668410D01*
X177758410Y-77668408D01*
X177754359Y-77665208D01*
X177558789Y-77557248D01*
X177553920Y-77555524D01*
X177553916Y-77555522D01*
X177353087Y-77484405D01*
X177353083Y-77484404D01*
X177348212Y-77482679D01*
X177343119Y-77481772D01*
X177343116Y-77481771D01*
X177133373Y-77444410D01*
X177133367Y-77444409D01*
X177128284Y-77443504D01*
X177054452Y-77442602D01*
X176910081Y-77440838D01*
X176910079Y-77440838D01*
X176904911Y-77440775D01*
X176684091Y-77474565D01*
X176471756Y-77543967D01*
X176273607Y-77647117D01*
X176269474Y-77650220D01*
X176269471Y-77650222D01*
X176245247Y-77668410D01*
X176094965Y-77781245D01*
X175940629Y-77942748D01*
X175814743Y-78127290D01*
X175720688Y-78329915D01*
X175660989Y-78545180D01*
X175637251Y-78767305D01*
X167360418Y-78767305D01*
X167344852Y-78577971D01*
X167290431Y-78361312D01*
X167201354Y-78156450D01*
X167080014Y-77968887D01*
X166929670Y-77803661D01*
X166925619Y-77800462D01*
X166925615Y-77800458D01*
X166758414Y-77668410D01*
X166758410Y-77668408D01*
X166754359Y-77665208D01*
X166558789Y-77557248D01*
X166553920Y-77555524D01*
X166553916Y-77555522D01*
X166353087Y-77484405D01*
X166353083Y-77484404D01*
X166348212Y-77482679D01*
X166343119Y-77481772D01*
X166343116Y-77481771D01*
X166133373Y-77444410D01*
X166133367Y-77444409D01*
X166128284Y-77443504D01*
X166054452Y-77442602D01*
X165910081Y-77440838D01*
X165910079Y-77440838D01*
X165904911Y-77440775D01*
X165684091Y-77474565D01*
X165471756Y-77543967D01*
X165273607Y-77647117D01*
X165269474Y-77650220D01*
X165269471Y-77650222D01*
X165245247Y-77668410D01*
X165094965Y-77781245D01*
X164940629Y-77942748D01*
X164814743Y-78127290D01*
X164720688Y-78329915D01*
X164660989Y-78545180D01*
X164637251Y-78767305D01*
X164360418Y-78767305D01*
X164344852Y-78577971D01*
X164290431Y-78361312D01*
X164201354Y-78156450D01*
X164080014Y-77968887D01*
X163929670Y-77803661D01*
X163925619Y-77800462D01*
X163925615Y-77800458D01*
X163758414Y-77668410D01*
X163758410Y-77668408D01*
X163754359Y-77665208D01*
X163558789Y-77557248D01*
X163553920Y-77555524D01*
X163553916Y-77555522D01*
X163353087Y-77484405D01*
X163353083Y-77484404D01*
X163348212Y-77482679D01*
X163343119Y-77481772D01*
X163343116Y-77481771D01*
X163133373Y-77444410D01*
X163133367Y-77444409D01*
X163128284Y-77443504D01*
X163054452Y-77442602D01*
X162910081Y-77440838D01*
X162910079Y-77440838D01*
X162904911Y-77440775D01*
X162684091Y-77474565D01*
X162471756Y-77543967D01*
X162273607Y-77647117D01*
X162269474Y-77650220D01*
X162269471Y-77650222D01*
X162245247Y-77668410D01*
X162094965Y-77781245D01*
X161940629Y-77942748D01*
X161814743Y-78127290D01*
X161720688Y-78329915D01*
X161660989Y-78545180D01*
X161637251Y-78767305D01*
X153360418Y-78767305D01*
X153344852Y-78577971D01*
X153290431Y-78361312D01*
X153201354Y-78156450D01*
X153080014Y-77968887D01*
X152929670Y-77803661D01*
X152925619Y-77800462D01*
X152925615Y-77800458D01*
X152758414Y-77668410D01*
X152758410Y-77668408D01*
X152754359Y-77665208D01*
X152558789Y-77557248D01*
X152553920Y-77555524D01*
X152553916Y-77555522D01*
X152353087Y-77484405D01*
X152353083Y-77484404D01*
X152348212Y-77482679D01*
X152343119Y-77481772D01*
X152343116Y-77481771D01*
X152133373Y-77444410D01*
X152133367Y-77444409D01*
X152128284Y-77443504D01*
X152054452Y-77442602D01*
X151910081Y-77440838D01*
X151910079Y-77440838D01*
X151904911Y-77440775D01*
X151684091Y-77474565D01*
X151471756Y-77543967D01*
X151273607Y-77647117D01*
X151269474Y-77650220D01*
X151269471Y-77650222D01*
X151245247Y-77668410D01*
X151094965Y-77781245D01*
X150940629Y-77942748D01*
X150814743Y-78127290D01*
X150720688Y-78329915D01*
X150660989Y-78545180D01*
X150637251Y-78767305D01*
X150360418Y-78767305D01*
X150344852Y-78577971D01*
X150290431Y-78361312D01*
X150201354Y-78156450D01*
X150080014Y-77968887D01*
X149929670Y-77803661D01*
X149925619Y-77800462D01*
X149925615Y-77800458D01*
X149758414Y-77668410D01*
X149758410Y-77668408D01*
X149754359Y-77665208D01*
X149558789Y-77557248D01*
X149553920Y-77555524D01*
X149553916Y-77555522D01*
X149353087Y-77484405D01*
X149353083Y-77484404D01*
X149348212Y-77482679D01*
X149343119Y-77481772D01*
X149343116Y-77481771D01*
X149133373Y-77444410D01*
X149133367Y-77444409D01*
X149128284Y-77443504D01*
X149054452Y-77442602D01*
X148910081Y-77440838D01*
X148910079Y-77440838D01*
X148904911Y-77440775D01*
X148684091Y-77474565D01*
X148471756Y-77543967D01*
X148273607Y-77647117D01*
X148269474Y-77650220D01*
X148269471Y-77650222D01*
X148245247Y-77668410D01*
X148094965Y-77781245D01*
X147940629Y-77942748D01*
X147814743Y-78127290D01*
X147720688Y-78329915D01*
X147660989Y-78545180D01*
X147637251Y-78767305D01*
X139360418Y-78767305D01*
X139344852Y-78577971D01*
X139290431Y-78361312D01*
X139201354Y-78156450D01*
X139080014Y-77968887D01*
X138929670Y-77803661D01*
X138925619Y-77800462D01*
X138925615Y-77800458D01*
X138758414Y-77668410D01*
X138758410Y-77668408D01*
X138754359Y-77665208D01*
X138558789Y-77557248D01*
X138553920Y-77555524D01*
X138553916Y-77555522D01*
X138353087Y-77484405D01*
X138353083Y-77484404D01*
X138348212Y-77482679D01*
X138343119Y-77481772D01*
X138343116Y-77481771D01*
X138133373Y-77444410D01*
X138133367Y-77444409D01*
X138128284Y-77443504D01*
X138054452Y-77442602D01*
X137910081Y-77440838D01*
X137910079Y-77440838D01*
X137904911Y-77440775D01*
X137684091Y-77474565D01*
X137471756Y-77543967D01*
X137273607Y-77647117D01*
X137269474Y-77650220D01*
X137269471Y-77650222D01*
X137245247Y-77668410D01*
X137094965Y-77781245D01*
X136940629Y-77942748D01*
X136814743Y-78127290D01*
X136720688Y-78329915D01*
X136660989Y-78545180D01*
X136637251Y-78767305D01*
X136360418Y-78767305D01*
X136344852Y-78577971D01*
X136290431Y-78361312D01*
X136201354Y-78156450D01*
X136080014Y-77968887D01*
X135929670Y-77803661D01*
X135925619Y-77800462D01*
X135925615Y-77800458D01*
X135758414Y-77668410D01*
X135758410Y-77668408D01*
X135754359Y-77665208D01*
X135558789Y-77557248D01*
X135553920Y-77555524D01*
X135553916Y-77555522D01*
X135353087Y-77484405D01*
X135353083Y-77484404D01*
X135348212Y-77482679D01*
X135343119Y-77481772D01*
X135343116Y-77481771D01*
X135133373Y-77444410D01*
X135133367Y-77444409D01*
X135128284Y-77443504D01*
X135054452Y-77442602D01*
X134910081Y-77440838D01*
X134910079Y-77440838D01*
X134904911Y-77440775D01*
X134684091Y-77474565D01*
X134471756Y-77543967D01*
X134273607Y-77647117D01*
X134269474Y-77650220D01*
X134269471Y-77650222D01*
X134245247Y-77668410D01*
X134094965Y-77781245D01*
X133940629Y-77942748D01*
X133814743Y-78127290D01*
X133720688Y-78329915D01*
X133660989Y-78545180D01*
X133637251Y-78767305D01*
X129006838Y-78767305D01*
X129008016Y-54058163D01*
X129008076Y-52800000D01*
X152536693Y-52800000D01*
X152555885Y-53019371D01*
X152612880Y-53232076D01*
X152615205Y-53237061D01*
X152703618Y-53426666D01*
X152703621Y-53426671D01*
X152705944Y-53431653D01*
X152709100Y-53436160D01*
X152709101Y-53436162D01*
X152717406Y-53448022D01*
X152832251Y-53612038D01*
X152987962Y-53767749D01*
X152992471Y-53770906D01*
X152992473Y-53770908D01*
X153004774Y-53779521D01*
X153168346Y-53894056D01*
X153367924Y-53987120D01*
X153580629Y-54044115D01*
X153800000Y-54063307D01*
X154019371Y-54044115D01*
X154232076Y-53987120D01*
X154431654Y-53894056D01*
X154595226Y-53779521D01*
X154607527Y-53770908D01*
X154607529Y-53770906D01*
X154612038Y-53767749D01*
X154767749Y-53612038D01*
X154882595Y-53448022D01*
X154890899Y-53436162D01*
X154890900Y-53436160D01*
X154894056Y-53431653D01*
X154896379Y-53426671D01*
X154896382Y-53426666D01*
X154984795Y-53237061D01*
X154987120Y-53232076D01*
X155044115Y-53019371D01*
X155063307Y-52800000D01*
X155536693Y-52800000D01*
X155555885Y-53019371D01*
X155612880Y-53232076D01*
X155615205Y-53237061D01*
X155703618Y-53426666D01*
X155703621Y-53426671D01*
X155705944Y-53431653D01*
X155709100Y-53436160D01*
X155709101Y-53436162D01*
X155717406Y-53448022D01*
X155832251Y-53612038D01*
X155987962Y-53767749D01*
X155992471Y-53770906D01*
X155992473Y-53770908D01*
X156004774Y-53779521D01*
X156168346Y-53894056D01*
X156367924Y-53987120D01*
X156580629Y-54044115D01*
X156800000Y-54063307D01*
X157019371Y-54044115D01*
X157232076Y-53987120D01*
X157431654Y-53894056D01*
X157595226Y-53779521D01*
X157607527Y-53770908D01*
X157607529Y-53770906D01*
X157612038Y-53767749D01*
X157767749Y-53612038D01*
X157882595Y-53448022D01*
X157890899Y-53436162D01*
X157890900Y-53436160D01*
X157894056Y-53431653D01*
X157896379Y-53426671D01*
X157896382Y-53426666D01*
X157931945Y-53350400D01*
X158541500Y-53350400D01*
X158541837Y-53353646D01*
X158541837Y-53353650D01*
X158550399Y-53436162D01*
X158552474Y-53456165D01*
X158608450Y-53623945D01*
X158701522Y-53774348D01*
X158826697Y-53899305D01*
X158832927Y-53903145D01*
X158832928Y-53903146D01*
X158970090Y-53987694D01*
X158977262Y-53992115D01*
X159057005Y-54018564D01*
X159138611Y-54045632D01*
X159138613Y-54045632D01*
X159145139Y-54047797D01*
X159151975Y-54048497D01*
X159151978Y-54048498D01*
X159195031Y-54052909D01*
X159249600Y-54058500D01*
X160350400Y-54058500D01*
X160353646Y-54058163D01*
X160353650Y-54058163D01*
X160449307Y-54048238D01*
X160449311Y-54048237D01*
X160456165Y-54047526D01*
X160462701Y-54045345D01*
X160462703Y-54045345D01*
X160594805Y-54001272D01*
X160623945Y-53991550D01*
X160774348Y-53898478D01*
X160899305Y-53773303D01*
X160992115Y-53622738D01*
X161047797Y-53454861D01*
X161058500Y-53350400D01*
X161058500Y-52249600D01*
X161050587Y-52173334D01*
X161048238Y-52150693D01*
X161048237Y-52150689D01*
X161047526Y-52143835D01*
X160991550Y-51976055D01*
X160898478Y-51825652D01*
X160773303Y-51700695D01*
X160767072Y-51696854D01*
X160628968Y-51611725D01*
X160628966Y-51611724D01*
X160622738Y-51607885D01*
X160542995Y-51581436D01*
X160461389Y-51554368D01*
X160461387Y-51554368D01*
X160454861Y-51552203D01*
X160448025Y-51551503D01*
X160448022Y-51551502D01*
X160404969Y-51547091D01*
X160350400Y-51541500D01*
X159249600Y-51541500D01*
X159246354Y-51541837D01*
X159246350Y-51541837D01*
X159150693Y-51551762D01*
X159150689Y-51551763D01*
X159143835Y-51552474D01*
X159137299Y-51554655D01*
X159137297Y-51554655D01*
X159005195Y-51598728D01*
X158976055Y-51608450D01*
X158825652Y-51701522D01*
X158700695Y-51826697D01*
X158607885Y-51977262D01*
X158552203Y-52145139D01*
X158541500Y-52249600D01*
X158541500Y-53350400D01*
X157931945Y-53350400D01*
X157984795Y-53237061D01*
X157987120Y-53232076D01*
X158044115Y-53019371D01*
X158063307Y-52800000D01*
X158044115Y-52580629D01*
X157987120Y-52367924D01*
X157930429Y-52246350D01*
X157896382Y-52173334D01*
X157896379Y-52173329D01*
X157894056Y-52168347D01*
X157890899Y-52163838D01*
X157770908Y-51992473D01*
X157770906Y-51992470D01*
X157767749Y-51987962D01*
X157612038Y-51832251D01*
X157604107Y-51826697D01*
X157532759Y-51776739D01*
X157431654Y-51705944D01*
X157232076Y-51612880D01*
X157019371Y-51555885D01*
X156800000Y-51536693D01*
X156580629Y-51555885D01*
X156367924Y-51612880D01*
X156274562Y-51656415D01*
X156173334Y-51703618D01*
X156173329Y-51703621D01*
X156168347Y-51705944D01*
X156163840Y-51709100D01*
X156163838Y-51709101D01*
X155992473Y-51829092D01*
X155992470Y-51829094D01*
X155987962Y-51832251D01*
X155832251Y-51987962D01*
X155829094Y-51992470D01*
X155829092Y-51992473D01*
X155709101Y-52163838D01*
X155705944Y-52168347D01*
X155703621Y-52173329D01*
X155703618Y-52173334D01*
X155669571Y-52246350D01*
X155612880Y-52367924D01*
X155555885Y-52580629D01*
X155536693Y-52800000D01*
X155063307Y-52800000D01*
X155044115Y-52580629D01*
X154987120Y-52367924D01*
X154930429Y-52246350D01*
X154896382Y-52173334D01*
X154896379Y-52173329D01*
X154894056Y-52168347D01*
X154890899Y-52163838D01*
X154770908Y-51992473D01*
X154770906Y-51992470D01*
X154767749Y-51987962D01*
X154612038Y-51832251D01*
X154604107Y-51826697D01*
X154532759Y-51776739D01*
X154431654Y-51705944D01*
X154232076Y-51612880D01*
X154019371Y-51555885D01*
X153800000Y-51536693D01*
X153580629Y-51555885D01*
X153367924Y-51612880D01*
X153274562Y-51656415D01*
X153173334Y-51703618D01*
X153173329Y-51703621D01*
X153168347Y-51705944D01*
X153163840Y-51709100D01*
X153163838Y-51709101D01*
X152992473Y-51829092D01*
X152992470Y-51829094D01*
X152987962Y-51832251D01*
X152832251Y-51987962D01*
X152829094Y-51992470D01*
X152829092Y-51992473D01*
X152709101Y-52163838D01*
X152705944Y-52168347D01*
X152703621Y-52173329D01*
X152703618Y-52173334D01*
X152669571Y-52246350D01*
X152612880Y-52367924D01*
X152555885Y-52580629D01*
X152536693Y-52800000D01*
X129008076Y-52800000D01*
X129008264Y-48852925D01*
X149786645Y-48852925D01*
X149804570Y-49049888D01*
X149806308Y-49055794D01*
X149806309Y-49055798D01*
X149823579Y-49114477D01*
X149860410Y-49239619D01*
X149863263Y-49245077D01*
X149863265Y-49245081D01*
X149910720Y-49335853D01*
X149952040Y-49414890D01*
X150075968Y-49569025D01*
X150080692Y-49572989D01*
X150083469Y-49575319D01*
X150227474Y-49696154D01*
X150232872Y-49699121D01*
X150232877Y-49699125D01*
X150376180Y-49777905D01*
X150400787Y-49791433D01*
X150406654Y-49793294D01*
X150406656Y-49793295D01*
X150583436Y-49849373D01*
X150589306Y-49851235D01*
X150743227Y-49868500D01*
X150849769Y-49868500D01*
X150852825Y-49868200D01*
X150852832Y-49868200D01*
X150911340Y-49862463D01*
X150996833Y-49854080D01*
X151002734Y-49852298D01*
X151002736Y-49852298D01*
X151133522Y-49812811D01*
X151175954Y-49800000D01*
X152536693Y-49800000D01*
X152555885Y-50019371D01*
X152612880Y-50232076D01*
X152615205Y-50237061D01*
X152703618Y-50426666D01*
X152703621Y-50426671D01*
X152705944Y-50431653D01*
X152709100Y-50436160D01*
X152709101Y-50436162D01*
X152737801Y-50477149D01*
X152832251Y-50612038D01*
X152987962Y-50767749D01*
X153168346Y-50894056D01*
X153367924Y-50987120D01*
X153580629Y-51044115D01*
X153800000Y-51063307D01*
X154019371Y-51044115D01*
X154232076Y-50987120D01*
X154431654Y-50894056D01*
X154612038Y-50767749D01*
X154767749Y-50612038D01*
X154862200Y-50477149D01*
X154890899Y-50436162D01*
X154890900Y-50436160D01*
X154894056Y-50431653D01*
X154896379Y-50426671D01*
X154896382Y-50426666D01*
X154984795Y-50237061D01*
X154987120Y-50232076D01*
X155044115Y-50019371D01*
X155063307Y-49800000D01*
X155536693Y-49800000D01*
X155555885Y-50019371D01*
X155612880Y-50232076D01*
X155615205Y-50237061D01*
X155703618Y-50426666D01*
X155703621Y-50426671D01*
X155705944Y-50431653D01*
X155709100Y-50436160D01*
X155709101Y-50436162D01*
X155737801Y-50477149D01*
X155832251Y-50612038D01*
X155987962Y-50767749D01*
X156168346Y-50894056D01*
X156367924Y-50987120D01*
X156580629Y-51044115D01*
X156800000Y-51063307D01*
X157019371Y-51044115D01*
X157232076Y-50987120D01*
X157431654Y-50894056D01*
X157494342Y-50850161D01*
X159114393Y-50850161D01*
X159123687Y-50862175D01*
X159164088Y-50890464D01*
X159173584Y-50895947D01*
X159363113Y-50984326D01*
X159373405Y-50988072D01*
X159575401Y-51042196D01*
X159586196Y-51044099D01*
X159794525Y-51062326D01*
X159805475Y-51062326D01*
X160013804Y-51044099D01*
X160024599Y-51042196D01*
X160226595Y-50988072D01*
X160236887Y-50984326D01*
X160426416Y-50895947D01*
X160435912Y-50890464D01*
X160477148Y-50861590D01*
X160485523Y-50851112D01*
X160478457Y-50837668D01*
X159812811Y-50172021D01*
X159798868Y-50164408D01*
X159797034Y-50164539D01*
X159790420Y-50168790D01*
X159120820Y-50838391D01*
X159114393Y-50850161D01*
X157494342Y-50850161D01*
X157612038Y-50767749D01*
X157767749Y-50612038D01*
X157862200Y-50477149D01*
X157890899Y-50436162D01*
X157890900Y-50436160D01*
X157894056Y-50431653D01*
X157896379Y-50426671D01*
X157896382Y-50426666D01*
X157984795Y-50237061D01*
X157987120Y-50232076D01*
X158044115Y-50019371D01*
X158062828Y-49805475D01*
X158537674Y-49805475D01*
X158555901Y-50013804D01*
X158557804Y-50024599D01*
X158611928Y-50226595D01*
X158615674Y-50236887D01*
X158704054Y-50426417D01*
X158709534Y-50435907D01*
X158738411Y-50477149D01*
X158748887Y-50485523D01*
X158762334Y-50478455D01*
X159427979Y-49812811D01*
X159434356Y-49801132D01*
X160164408Y-49801132D01*
X160164539Y-49802966D01*
X160168790Y-49809580D01*
X160838391Y-50479180D01*
X160850161Y-50485607D01*
X160862176Y-50476311D01*
X160890466Y-50435907D01*
X160895946Y-50426417D01*
X160984326Y-50236887D01*
X160988072Y-50226595D01*
X161042196Y-50024599D01*
X161044099Y-50013804D01*
X161062326Y-49805475D01*
X161062326Y-49794525D01*
X161044099Y-49586196D01*
X161042196Y-49575401D01*
X160988072Y-49373405D01*
X160984326Y-49363113D01*
X160895946Y-49173583D01*
X160890466Y-49164093D01*
X160861589Y-49122851D01*
X160851113Y-49114477D01*
X160837666Y-49121545D01*
X160172021Y-49787189D01*
X160164408Y-49801132D01*
X159434356Y-49801132D01*
X159435592Y-49798868D01*
X159435461Y-49797034D01*
X159431210Y-49790420D01*
X158761609Y-49120820D01*
X158749839Y-49114393D01*
X158737824Y-49123689D01*
X158709534Y-49164093D01*
X158704054Y-49173583D01*
X158615674Y-49363113D01*
X158611928Y-49373405D01*
X158557804Y-49575401D01*
X158555901Y-49586196D01*
X158537674Y-49794525D01*
X158537674Y-49805475D01*
X158062828Y-49805475D01*
X158063307Y-49800000D01*
X158044115Y-49580629D01*
X157987120Y-49367924D01*
X157927291Y-49239619D01*
X157896382Y-49173334D01*
X157896379Y-49173329D01*
X157894056Y-49168347D01*
X157862786Y-49123689D01*
X157770908Y-48992473D01*
X157770906Y-48992470D01*
X157767749Y-48987962D01*
X157612038Y-48832251D01*
X157492983Y-48748887D01*
X159114477Y-48748887D01*
X159121545Y-48762334D01*
X159787189Y-49427979D01*
X159801132Y-49435592D01*
X159802966Y-49435461D01*
X159809580Y-49431210D01*
X160387864Y-48852925D01*
X161786645Y-48852925D01*
X161804570Y-49049888D01*
X161806308Y-49055794D01*
X161806309Y-49055798D01*
X161823579Y-49114477D01*
X161860410Y-49239619D01*
X161863263Y-49245077D01*
X161863265Y-49245081D01*
X161910720Y-49335853D01*
X161952040Y-49414890D01*
X162075968Y-49569025D01*
X162080692Y-49572989D01*
X162083469Y-49575319D01*
X162227474Y-49696154D01*
X162232872Y-49699121D01*
X162232877Y-49699125D01*
X162376180Y-49777905D01*
X162400787Y-49791433D01*
X162406654Y-49793294D01*
X162406656Y-49793295D01*
X162583436Y-49849373D01*
X162589306Y-49851235D01*
X162743227Y-49868500D01*
X162849769Y-49868500D01*
X162852825Y-49868200D01*
X162852832Y-49868200D01*
X162911340Y-49862463D01*
X162996833Y-49854080D01*
X163002734Y-49852298D01*
X163002736Y-49852298D01*
X163133522Y-49812811D01*
X163186169Y-49796916D01*
X163360796Y-49704066D01*
X163505319Y-49586196D01*
X163509287Y-49582960D01*
X163509290Y-49582957D01*
X163514062Y-49579065D01*
X163526344Y-49564219D01*
X163636201Y-49431425D01*
X163636203Y-49431421D01*
X163640130Y-49426675D01*
X163734198Y-49252701D01*
X163792682Y-49063768D01*
X163800175Y-48992473D01*
X163812711Y-48873204D01*
X163812711Y-48873202D01*
X163813355Y-48867075D01*
X163798519Y-48704053D01*
X163795989Y-48676251D01*
X163795988Y-48676248D01*
X163795430Y-48670112D01*
X163739590Y-48480381D01*
X163729919Y-48461881D01*
X163650813Y-48310568D01*
X163647960Y-48305110D01*
X163524032Y-48150975D01*
X163517727Y-48145684D01*
X163501334Y-48131929D01*
X163372526Y-48023846D01*
X163367128Y-48020879D01*
X163367123Y-48020875D01*
X163204608Y-47931533D01*
X163204609Y-47931533D01*
X163199213Y-47928567D01*
X163193346Y-47926706D01*
X163193344Y-47926705D01*
X163016564Y-47870627D01*
X163016563Y-47870627D01*
X163010694Y-47868765D01*
X162856773Y-47851500D01*
X162750231Y-47851500D01*
X162747175Y-47851800D01*
X162747168Y-47851800D01*
X162688660Y-47857537D01*
X162603167Y-47865920D01*
X162597266Y-47867702D01*
X162597264Y-47867702D01*
X162523947Y-47889838D01*
X162413831Y-47923084D01*
X162239204Y-48015934D01*
X162152938Y-48086291D01*
X162090713Y-48137040D01*
X162090710Y-48137043D01*
X162085938Y-48140935D01*
X162082011Y-48145682D01*
X162082009Y-48145684D01*
X161963799Y-48288575D01*
X161963797Y-48288579D01*
X161959870Y-48293325D01*
X161865802Y-48467299D01*
X161807318Y-48656232D01*
X161806674Y-48662357D01*
X161806674Y-48662358D01*
X161796243Y-48761609D01*
X161786645Y-48852925D01*
X160387864Y-48852925D01*
X160479180Y-48761609D01*
X160485607Y-48749839D01*
X160476313Y-48737825D01*
X160435912Y-48709536D01*
X160426416Y-48704053D01*
X160236887Y-48615674D01*
X160226595Y-48611928D01*
X160024599Y-48557804D01*
X160013804Y-48555901D01*
X159805475Y-48537674D01*
X159794525Y-48537674D01*
X159586196Y-48555901D01*
X159575401Y-48557804D01*
X159373405Y-48611928D01*
X159363113Y-48615674D01*
X159173583Y-48704054D01*
X159164093Y-48709534D01*
X159122851Y-48738411D01*
X159114477Y-48748887D01*
X157492983Y-48748887D01*
X157431654Y-48705944D01*
X157232076Y-48612880D01*
X157019371Y-48555885D01*
X156800000Y-48536693D01*
X156580629Y-48555885D01*
X156367924Y-48612880D01*
X156287576Y-48650347D01*
X156173334Y-48703618D01*
X156173329Y-48703621D01*
X156168347Y-48705944D01*
X156163840Y-48709100D01*
X156163838Y-48709101D01*
X155992473Y-48829092D01*
X155992470Y-48829094D01*
X155987962Y-48832251D01*
X155832251Y-48987962D01*
X155829094Y-48992470D01*
X155829092Y-48992473D01*
X155737214Y-49123689D01*
X155705944Y-49168347D01*
X155703621Y-49173329D01*
X155703618Y-49173334D01*
X155672709Y-49239619D01*
X155612880Y-49367924D01*
X155555885Y-49580629D01*
X155536693Y-49800000D01*
X155063307Y-49800000D01*
X155044115Y-49580629D01*
X154987120Y-49367924D01*
X154927291Y-49239619D01*
X154896382Y-49173334D01*
X154896379Y-49173329D01*
X154894056Y-49168347D01*
X154862786Y-49123689D01*
X154770908Y-48992473D01*
X154770906Y-48992470D01*
X154767749Y-48987962D01*
X154612038Y-48832251D01*
X154431654Y-48705944D01*
X154232076Y-48612880D01*
X154019371Y-48555885D01*
X153800000Y-48536693D01*
X153580629Y-48555885D01*
X153367924Y-48612880D01*
X153287576Y-48650347D01*
X153173334Y-48703618D01*
X153173329Y-48703621D01*
X153168347Y-48705944D01*
X153163840Y-48709100D01*
X153163838Y-48709101D01*
X152992473Y-48829092D01*
X152992470Y-48829094D01*
X152987962Y-48832251D01*
X152832251Y-48987962D01*
X152829094Y-48992470D01*
X152829092Y-48992473D01*
X152737214Y-49123689D01*
X152705944Y-49168347D01*
X152703621Y-49173329D01*
X152703618Y-49173334D01*
X152672709Y-49239619D01*
X152612880Y-49367924D01*
X152555885Y-49580629D01*
X152536693Y-49800000D01*
X151175954Y-49800000D01*
X151186169Y-49796916D01*
X151360796Y-49704066D01*
X151505319Y-49586196D01*
X151509287Y-49582960D01*
X151509290Y-49582957D01*
X151514062Y-49579065D01*
X151526344Y-49564219D01*
X151636201Y-49431425D01*
X151636203Y-49431421D01*
X151640130Y-49426675D01*
X151734198Y-49252701D01*
X151792682Y-49063768D01*
X151800175Y-48992473D01*
X151812711Y-48873204D01*
X151812711Y-48873202D01*
X151813355Y-48867075D01*
X151798519Y-48704053D01*
X151795989Y-48676251D01*
X151795988Y-48676248D01*
X151795430Y-48670112D01*
X151739590Y-48480381D01*
X151729919Y-48461881D01*
X151650813Y-48310568D01*
X151647960Y-48305110D01*
X151524032Y-48150975D01*
X151517727Y-48145684D01*
X151501334Y-48131929D01*
X151372526Y-48023846D01*
X151367128Y-48020879D01*
X151367123Y-48020875D01*
X151204608Y-47931533D01*
X151204609Y-47931533D01*
X151199213Y-47928567D01*
X151193346Y-47926706D01*
X151193344Y-47926705D01*
X151016564Y-47870627D01*
X151016563Y-47870627D01*
X151010694Y-47868765D01*
X150856773Y-47851500D01*
X150750231Y-47851500D01*
X150747175Y-47851800D01*
X150747168Y-47851800D01*
X150688660Y-47857537D01*
X150603167Y-47865920D01*
X150597266Y-47867702D01*
X150597264Y-47867702D01*
X150523947Y-47889838D01*
X150413831Y-47923084D01*
X150239204Y-48015934D01*
X150152938Y-48086291D01*
X150090713Y-48137040D01*
X150090710Y-48137043D01*
X150085938Y-48140935D01*
X150082011Y-48145682D01*
X150082009Y-48145684D01*
X149963799Y-48288575D01*
X149963797Y-48288579D01*
X149959870Y-48293325D01*
X149865802Y-48467299D01*
X149807318Y-48656232D01*
X149806674Y-48662357D01*
X149806674Y-48662358D01*
X149796243Y-48761609D01*
X149786645Y-48852925D01*
X129008264Y-48852925D01*
X129008418Y-45625333D01*
X131484622Y-45625333D01*
X131494425Y-45906058D01*
X131495187Y-45910381D01*
X131495188Y-45910388D01*
X131518964Y-46045224D01*
X131543202Y-46182687D01*
X131630003Y-46449835D01*
X131753140Y-46702302D01*
X131755595Y-46705941D01*
X131755598Y-46705947D01*
X131828690Y-46814310D01*
X131910215Y-46935176D01*
X132098171Y-47143922D01*
X132313350Y-47324479D01*
X132551564Y-47473331D01*
X132808175Y-47587582D01*
X133078190Y-47665007D01*
X133082540Y-47665618D01*
X133082543Y-47665619D01*
X133185490Y-47680087D01*
X133356352Y-47704100D01*
X133566946Y-47704100D01*
X133569132Y-47703947D01*
X133569136Y-47703947D01*
X133772627Y-47689718D01*
X133772632Y-47689717D01*
X133777012Y-47689411D01*
X134051770Y-47631009D01*
X134055899Y-47629506D01*
X134055903Y-47629505D01*
X134311581Y-47536446D01*
X134311585Y-47536444D01*
X134315726Y-47534937D01*
X134563742Y-47403064D01*
X134668696Y-47326811D01*
X134787429Y-47240547D01*
X134787432Y-47240544D01*
X134790992Y-47237958D01*
X134993052Y-47042831D01*
X135165988Y-46821482D01*
X135168184Y-46817678D01*
X135168189Y-46817671D01*
X135304235Y-46582031D01*
X135306436Y-46578219D01*
X135411662Y-46317776D01*
X135445344Y-46182687D01*
X135478553Y-46049493D01*
X135478554Y-46049488D01*
X135479617Y-46045224D01*
X135508978Y-45765867D01*
X135504071Y-45625333D01*
X178784622Y-45625333D01*
X178794425Y-45906058D01*
X178795187Y-45910381D01*
X178795188Y-45910388D01*
X178818964Y-46045224D01*
X178843202Y-46182687D01*
X178930003Y-46449835D01*
X179053140Y-46702302D01*
X179055595Y-46705941D01*
X179055598Y-46705947D01*
X179128690Y-46814310D01*
X179210215Y-46935176D01*
X179398171Y-47143922D01*
X179613350Y-47324479D01*
X179851564Y-47473331D01*
X180108175Y-47587582D01*
X180378190Y-47665007D01*
X180382540Y-47665618D01*
X180382543Y-47665619D01*
X180485490Y-47680087D01*
X180656352Y-47704100D01*
X180866946Y-47704100D01*
X180869132Y-47703947D01*
X180869136Y-47703947D01*
X181072627Y-47689718D01*
X181072632Y-47689717D01*
X181077012Y-47689411D01*
X181351770Y-47631009D01*
X181355899Y-47629506D01*
X181355903Y-47629505D01*
X181611581Y-47536446D01*
X181611585Y-47536444D01*
X181615726Y-47534937D01*
X181863742Y-47403064D01*
X181968696Y-47326811D01*
X182087429Y-47240547D01*
X182087432Y-47240544D01*
X182090992Y-47237958D01*
X182293052Y-47042831D01*
X182465988Y-46821482D01*
X182468184Y-46817678D01*
X182468189Y-46817671D01*
X182604235Y-46582031D01*
X182606436Y-46578219D01*
X182711662Y-46317776D01*
X182745344Y-46182687D01*
X182778553Y-46049493D01*
X182778554Y-46049488D01*
X182779617Y-46045224D01*
X182808978Y-45765867D01*
X182799175Y-45485142D01*
X182775408Y-45350349D01*
X182751160Y-45212836D01*
X182750398Y-45208513D01*
X182663597Y-44941365D01*
X182540460Y-44688898D01*
X182538005Y-44685259D01*
X182538002Y-44685253D01*
X182457735Y-44566253D01*
X182383385Y-44456024D01*
X182195429Y-44247278D01*
X181980250Y-44066721D01*
X181742036Y-43917869D01*
X181485425Y-43803618D01*
X181215410Y-43726193D01*
X181211060Y-43725582D01*
X181211057Y-43725581D01*
X181108110Y-43711113D01*
X180937248Y-43687100D01*
X180726654Y-43687100D01*
X180724468Y-43687253D01*
X180724464Y-43687253D01*
X180520973Y-43701482D01*
X180520968Y-43701483D01*
X180516588Y-43701789D01*
X180241830Y-43760191D01*
X180237701Y-43761694D01*
X180237697Y-43761695D01*
X179982019Y-43854754D01*
X179982015Y-43854756D01*
X179977874Y-43856263D01*
X179729858Y-43988136D01*
X179726299Y-43990722D01*
X179726297Y-43990723D01*
X179621695Y-44066721D01*
X179502608Y-44153242D01*
X179300548Y-44348369D01*
X179127612Y-44569718D01*
X179125416Y-44573522D01*
X179125411Y-44573529D01*
X179011594Y-44770667D01*
X178987164Y-44812981D01*
X178881938Y-45073424D01*
X178880873Y-45077697D01*
X178880872Y-45077699D01*
X178847179Y-45212836D01*
X178813983Y-45345976D01*
X178784622Y-45625333D01*
X135504071Y-45625333D01*
X135499175Y-45485142D01*
X135475408Y-45350349D01*
X135451160Y-45212836D01*
X135450398Y-45208513D01*
X135363597Y-44941365D01*
X135240460Y-44688898D01*
X135238005Y-44685259D01*
X135238002Y-44685253D01*
X135157735Y-44566253D01*
X135083385Y-44456024D01*
X134895429Y-44247278D01*
X134680250Y-44066721D01*
X134442036Y-43917869D01*
X134185425Y-43803618D01*
X133915410Y-43726193D01*
X133911060Y-43725582D01*
X133911057Y-43725581D01*
X133808110Y-43711113D01*
X133637248Y-43687100D01*
X133426654Y-43687100D01*
X133424468Y-43687253D01*
X133424464Y-43687253D01*
X133220973Y-43701482D01*
X133220968Y-43701483D01*
X133216588Y-43701789D01*
X132941830Y-43760191D01*
X132937701Y-43761694D01*
X132937697Y-43761695D01*
X132682019Y-43854754D01*
X132682015Y-43854756D01*
X132677874Y-43856263D01*
X132429858Y-43988136D01*
X132426299Y-43990722D01*
X132426297Y-43990723D01*
X132321695Y-44066721D01*
X132202608Y-44153242D01*
X132000548Y-44348369D01*
X131827612Y-44569718D01*
X131825416Y-44573522D01*
X131825411Y-44573529D01*
X131711594Y-44770667D01*
X131687164Y-44812981D01*
X131581938Y-45073424D01*
X131580873Y-45077697D01*
X131580872Y-45077699D01*
X131547179Y-45212836D01*
X131513983Y-45345976D01*
X131484622Y-45625333D01*
X129008418Y-45625333D01*
X129008499Y-43933837D01*
X129009197Y-43920598D01*
X129012436Y-43889961D01*
X129012436Y-43889957D01*
X129013379Y-43881035D01*
X129010145Y-43863176D01*
X129008131Y-43839846D01*
X129009824Y-43596689D01*
X129010714Y-43582588D01*
X129042962Y-43313236D01*
X129045424Y-43299332D01*
X129107627Y-43035286D01*
X129111632Y-43021738D01*
X129203007Y-42766320D01*
X129208505Y-42753304D01*
X129327901Y-42509726D01*
X129334822Y-42497407D01*
X129480739Y-42268730D01*
X129488995Y-42257264D01*
X129659598Y-42046362D01*
X129669087Y-42035892D01*
X129862237Y-41845412D01*
X129872838Y-41836070D01*
X130086092Y-41668421D01*
X130097672Y-41660325D01*
X130228998Y-41579076D01*
X130328363Y-41517601D01*
X130340765Y-41510859D01*
X130585998Y-41394856D01*
X130599083Y-41389543D01*
X130855746Y-41301733D01*
X130869348Y-41297917D01*
X131001789Y-41268656D01*
X131134227Y-41239396D01*
X131148173Y-41237126D01*
X131382738Y-41212348D01*
X131409219Y-41212349D01*
X131410038Y-41212436D01*
X131410043Y-41212436D01*
X131418965Y-41213379D01*
X131434768Y-41210517D01*
X131457222Y-41208500D01*
X182834981Y-41208500D01*
X182857774Y-41210829D01*
G37*
%TD.AperFunction*%
%TD*%
M02*
