M48
; DRILL file {KiCad (6.0.7)} date Fri Dec  2 21:15:20 2022
; FORMAT={-:-/ absolute / metric / decimal}
; #@! TF.CreationDate,2022-12-02T21:15:20-06:00
; #@! TF.GenerationSoftware,Kicad,Pcbnew,(6.0.7)
; #@! TF.FileFunction,MixedPlating,1,2
FMAT,2
METRIC
; #@! TA.AperFunction,Plated,PTH,ViaDrill
T1C0.400
; #@! TA.AperFunction,Plated,PTH,ViaDrill
T2C0.762
; #@! TA.AperFunction,Plated,PTH,ComponentDrill
T3C1.000
; #@! TA.AperFunction,Plated,PTH,ComponentDrill
T4C1.020
; #@! TA.AperFunction,NonPlated,NPTH,ComponentDrill
T5C1.000
; #@! TA.AperFunction,NonPlated,NPTH,ComponentDrill
T6C1.270
; #@! TA.AperFunction,NonPlated,NPTH,ComponentDrill
T7C3.000
%
G90
G05
T1
X135.759Y-64.046
X149.334Y-64.021
X162.814Y-63.996
X171.0Y-46.5
X177.589Y-63.98
T2
X139.722Y-72.571
X153.7Y-72.6
X167.072Y-72.571
X181.697Y-72.58
T3
X153.8Y-49.8
X153.8Y-52.8
X156.8Y-49.8
X156.8Y-52.8
X159.8Y-49.8
X159.8Y-52.8
T4
X135.0Y-78.801
X135.0Y-91.301
X135.0Y-103.801
X138.0Y-78.801
X138.0Y-91.301
X138.0Y-103.801
X149.0Y-78.801
X149.0Y-91.301
X149.0Y-103.801
X152.0Y-78.801
X152.0Y-91.301
X152.0Y-103.801
X163.0Y-78.801
X163.0Y-91.301
X163.0Y-103.801
X166.0Y-78.801
X166.0Y-91.301
X166.0Y-103.801
X177.0Y-78.801
X177.0Y-91.301
X177.0Y-103.801
X180.0Y-78.801
X180.0Y-91.301
X180.0Y-103.801
T5
X150.8Y-48.86
X162.8Y-48.86
T6
X132.0Y-80.761
X132.0Y-93.261
X132.0Y-105.761
X141.0Y-80.761
X141.0Y-93.261
X141.0Y-105.761
X146.0Y-80.761
X146.0Y-93.261
X146.0Y-105.761
X155.0Y-80.761
X155.0Y-93.261
X155.0Y-105.761
X160.0Y-80.761
X160.0Y-93.261
X160.0Y-105.761
X169.0Y-80.761
X169.0Y-93.261
X169.0Y-105.761
X174.0Y-80.761
X174.0Y-93.261
X174.0Y-105.761
X183.0Y-80.761
X183.0Y-93.261
X183.0Y-105.761
T7
X133.497Y-111.146
X133.497Y-45.696
X180.797Y-111.146
X180.797Y-45.696
T0
M30
