%TF.GenerationSoftware,KiCad,Pcbnew,(6.0.7)*%
%TF.CreationDate,2022-12-02T21:15:13-06:00*%
%TF.ProjectId,BPS-Fan,4250532d-4661-46e2-9e6b-696361645f70,rev?*%
%TF.SameCoordinates,Original*%
%TF.FileFunction,Paste,Top*%
%TF.FilePolarity,Positive*%
%FSLAX46Y46*%
G04 Gerber Fmt 4.6, Leading zero omitted, Abs format (unit mm)*
G04 Created by KiCad (PCBNEW (6.0.7)) date 2022-12-02 21:15:13*
%MOMM*%
%LPD*%
G01*
G04 APERTURE LIST*
G04 Aperture macros list*
%AMRoundRect*
0 Rectangle with rounded corners*
0 $1 Rounding radius*
0 $2 $3 $4 $5 $6 $7 $8 $9 X,Y pos of 4 corners*
0 Add a 4 corners polygon primitive as box body*
4,1,4,$2,$3,$4,$5,$6,$7,$8,$9,$2,$3,0*
0 Add four circle primitives for the rounded corners*
1,1,$1+$1,$2,$3*
1,1,$1+$1,$4,$5*
1,1,$1+$1,$6,$7*
1,1,$1+$1,$8,$9*
0 Add four rect primitives between the rounded corners*
20,1,$1+$1,$2,$3,$4,$5,0*
20,1,$1+$1,$4,$5,$6,$7,0*
20,1,$1+$1,$6,$7,$8,$9,0*
20,1,$1+$1,$8,$9,$2,$3,0*%
G04 Aperture macros list end*
%ADD10RoundRect,0.243750X0.456250X-0.243750X0.456250X0.243750X-0.456250X0.243750X-0.456250X-0.243750X0*%
%ADD11RoundRect,0.243750X-0.456250X0.243750X-0.456250X-0.243750X0.456250X-0.243750X0.456250X0.243750X0*%
%ADD12RoundRect,0.250000X-0.262500X-0.450000X0.262500X-0.450000X0.262500X0.450000X-0.262500X0.450000X0*%
%ADD13R,0.510000X0.635000*%
%ADD14R,0.830000X0.300000*%
%ADD15R,0.750000X0.300000*%
%ADD16R,1.041400X1.193800*%
%ADD17RoundRect,0.250000X0.262500X0.450000X-0.262500X0.450000X-0.262500X-0.450000X0.262500X-0.450000X0*%
G04 APERTURE END LIST*
D10*
%TO.C,R1*%
X171000000Y-49800000D03*
X171000000Y-47925000D03*
%TD*%
D11*
%TO.C,LED1*%
X171000000Y-52062500D03*
X171000000Y-53937500D03*
%TD*%
D12*
%TO.C,R4*%
X166171762Y-60995610D03*
X164346762Y-60995610D03*
%TD*%
D13*
%TO.C,Q4*%
X177855000Y-72226000D03*
D14*
X180035000Y-70625000D03*
X180035000Y-72575000D03*
D13*
X177855000Y-70974000D03*
D15*
X176925000Y-70625000D03*
D14*
X180035000Y-71925000D03*
D15*
X176925000Y-71925000D03*
D14*
X180035000Y-71275000D03*
D15*
X176925000Y-72575000D03*
D13*
X178715000Y-70974000D03*
D15*
X176925000Y-71275000D03*
D13*
X178715000Y-72226000D03*
%TD*%
D16*
%TO.C,D4*%
X180138300Y-67100000D03*
X176861700Y-67100000D03*
%TD*%
D17*
%TO.C,R9*%
X179046762Y-64000000D03*
X180871762Y-64000000D03*
%TD*%
D12*
%TO.C,R2*%
X138971762Y-61145610D03*
X137146762Y-61145610D03*
%TD*%
D16*
%TO.C,D3*%
X165483300Y-67100000D03*
X162206700Y-67100000D03*
%TD*%
%TO.C,D1*%
X138138300Y-67100000D03*
X134861700Y-67100000D03*
%TD*%
D15*
%TO.C,Q1*%
X134925000Y-70625000D03*
D14*
X138035000Y-71925000D03*
X138035000Y-72575000D03*
D13*
X136715000Y-70974000D03*
D15*
X134925000Y-72575000D03*
D13*
X135855000Y-72226000D03*
X135855000Y-70974000D03*
D15*
X134925000Y-71275000D03*
X134925000Y-71925000D03*
D14*
X138035000Y-71275000D03*
D13*
X136715000Y-72226000D03*
D14*
X138035000Y-70625000D03*
%TD*%
D17*
%TO.C,R8*%
X166171762Y-63995610D03*
X164346762Y-63995610D03*
%TD*%
%TO.C,R6*%
X137146762Y-64045610D03*
X138971762Y-64045610D03*
%TD*%
D15*
%TO.C,Q3*%
X162270000Y-71275000D03*
D14*
X165380000Y-71925000D03*
D15*
X162270000Y-72575000D03*
D13*
X163200000Y-70974000D03*
X163200000Y-72226000D03*
X164060000Y-72226000D03*
D14*
X165380000Y-71275000D03*
X165380000Y-72575000D03*
D15*
X162270000Y-71925000D03*
D13*
X164060000Y-70974000D03*
D14*
X165380000Y-70625000D03*
D15*
X162270000Y-70625000D03*
%TD*%
%TO.C,Q2*%
X148925000Y-71925000D03*
D13*
X150715000Y-72226000D03*
D14*
X152035000Y-71925000D03*
D13*
X150715000Y-70974000D03*
X149855000Y-70974000D03*
D15*
X148925000Y-71275000D03*
D14*
X152035000Y-72575000D03*
D15*
X148925000Y-70625000D03*
D13*
X149855000Y-72226000D03*
D15*
X148925000Y-72575000D03*
D14*
X152035000Y-71275000D03*
X152035000Y-70625000D03*
%TD*%
D16*
%TO.C,D2*%
X152138300Y-67100000D03*
X148861700Y-67100000D03*
%TD*%
D17*
%TO.C,R7*%
X151021762Y-64020610D03*
X152846762Y-64020610D03*
%TD*%
D12*
%TO.C,R3*%
X151021762Y-61020610D03*
X152846762Y-61020610D03*
%TD*%
%TO.C,R5*%
X180871762Y-61000000D03*
X179046762Y-61000000D03*
%TD*%
M02*
