%TF.GenerationSoftware,KiCad,Pcbnew,(6.0.7)*%
%TF.CreationDate,2022-12-11T16:26:28-06:00*%
%TF.ProjectId,BPS-Fan,4250532d-4661-46e2-9e6b-696361645f70,rev?*%
%TF.SameCoordinates,Original*%
%TF.FileFunction,Soldermask,Top*%
%TF.FilePolarity,Negative*%
%FSLAX46Y46*%
G04 Gerber Fmt 4.6, Leading zero omitted, Abs format (unit mm)*
G04 Created by KiCad (PCBNEW (6.0.7)) date 2022-12-11 16:26:28*
%MOMM*%
%LPD*%
G01*
G04 APERTURE LIST*
G04 Aperture macros list*
%AMRoundRect*
0 Rectangle with rounded corners*
0 $1 Rounding radius*
0 $2 $3 $4 $5 $6 $7 $8 $9 X,Y pos of 4 corners*
0 Add a 4 corners polygon primitive as box body*
4,1,4,$2,$3,$4,$5,$6,$7,$8,$9,$2,$3,0*
0 Add four circle primitives for the rounded corners*
1,1,$1+$1,$2,$3*
1,1,$1+$1,$4,$5*
1,1,$1+$1,$6,$7*
1,1,$1+$1,$8,$9*
0 Add four rect primitives between the rounded corners*
20,1,$1+$1,$2,$3,$4,$5,0*
20,1,$1+$1,$4,$5,$6,$7,0*
20,1,$1+$1,$6,$7,$8,$9,0*
20,1,$1+$1,$8,$9,$2,$3,0*%
%AMFreePoly0*
4,1,43,1.580355,1.210355,1.595000,1.175000,1.595000,0.775000,1.580355,0.739645,1.545000,0.725000,0.975000,0.725000,0.975000,0.575000,1.545000,0.575000,1.580355,0.560355,1.595000,0.525000,1.595000,0.125000,1.580355,0.089645,1.545000,0.075000,0.975000,0.075000,0.975000,-0.075000,1.545000,-0.075000,1.580355,-0.089645,1.595000,-0.125000,1.595000,-0.525000,1.580355,-0.560355,
1.545000,-0.575000,0.975000,-0.575000,0.975000,-0.725000,1.545000,-0.725000,1.580355,-0.739645,1.595000,-0.775000,1.595000,-1.175000,1.580355,-1.210355,1.545000,-1.225000,0.925000,-1.225000,0.889645,-1.210355,0.875000,-1.175000,-0.925000,-1.175000,-0.960355,-1.160355,-0.975000,-1.125000,-0.975000,1.125000,-0.960355,1.160355,-0.925000,1.175000,0.875000,1.175000,0.889645,1.210355,
0.925000,1.225000,1.545000,1.225000,1.580355,1.210355,1.580355,1.210355,$1*%
G04 Aperture macros list end*
%ADD10C,3.000000*%
%ADD11RoundRect,0.243750X0.456250X-0.243750X0.456250X0.243750X-0.456250X0.243750X-0.456250X-0.243750X0*%
%ADD12RoundRect,0.243750X-0.456250X0.243750X-0.456250X-0.243750X0.456250X-0.243750X0.456250X0.243750X0*%
%ADD13C,1.270000*%
%ADD14C,1.700000*%
%ADD15RoundRect,0.250000X-0.262500X-0.450000X0.262500X-0.450000X0.262500X0.450000X-0.262500X0.450000X0*%
%ADD16RoundRect,0.050000X0.415000X0.200000X-0.415000X0.200000X-0.415000X-0.200000X0.415000X-0.200000X0*%
%ADD17FreePoly0,180.000000*%
%ADD18R,1.041400X1.193800*%
%ADD19RoundRect,0.250000X0.262500X0.450000X-0.262500X0.450000X-0.262500X-0.450000X0.262500X-0.450000X0*%
%ADD20C,1.000000*%
%ADD21RoundRect,0.250001X0.499999X0.499999X-0.499999X0.499999X-0.499999X-0.499999X0.499999X-0.499999X0*%
%ADD22C,1.500000*%
G04 APERTURE END LIST*
D10*
X131571762Y-43745610D03*
X182693524Y-119745610D03*
X131543524Y-119745610D03*
X182721762Y-43745610D03*
D11*
X171000000Y-49800000D03*
X171000000Y-47925000D03*
D12*
X171000000Y-52062500D03*
X171000000Y-53937500D03*
D13*
X146000000Y-80760610D03*
X155000000Y-80760610D03*
D14*
X152000000Y-78800610D03*
X149000000Y-78800610D03*
D15*
X164721762Y-61145610D03*
X166546762Y-61145610D03*
D13*
X182971762Y-114254670D03*
X173971762Y-114254670D03*
D14*
X179971762Y-112294670D03*
X176971762Y-112294670D03*
D13*
X141000000Y-80760610D03*
X132000000Y-80760610D03*
D14*
X138000000Y-78800610D03*
X135000000Y-78800610D03*
D16*
X180035000Y-72575000D03*
X180035000Y-71925000D03*
X180035000Y-71275000D03*
X180035000Y-70625000D03*
D17*
X178095000Y-71600000D03*
D18*
X180138300Y-67100000D03*
X176861700Y-67100000D03*
D13*
X160000000Y-80760610D03*
X169000000Y-80760610D03*
D14*
X166000000Y-78800610D03*
X163000000Y-78800610D03*
D19*
X181146762Y-64045610D03*
X179321762Y-64045610D03*
D15*
X137346762Y-61145610D03*
X139171762Y-61145610D03*
D18*
X165483300Y-67100000D03*
X162206700Y-67100000D03*
D13*
X145971762Y-114254670D03*
X154971762Y-114254670D03*
D14*
X151971762Y-112294670D03*
X148971762Y-112294670D03*
D13*
X131971762Y-97505250D03*
X140971762Y-97505250D03*
D14*
X137971762Y-95545250D03*
X134971762Y-95545250D03*
D18*
X138138300Y-67100000D03*
X134861700Y-67100000D03*
D13*
X168971762Y-97505250D03*
X159971762Y-97505250D03*
D14*
X165971762Y-95545250D03*
X162971762Y-95545250D03*
D20*
X150800000Y-48860000D03*
X162800000Y-48860000D03*
D21*
X159800000Y-52800000D03*
D22*
X156800000Y-52800000D03*
X153800000Y-52800000D03*
X159800000Y-49800000D03*
X156800000Y-49800000D03*
X153800000Y-49800000D03*
D13*
X145971762Y-97505250D03*
X154971762Y-97505250D03*
D14*
X151971762Y-95545250D03*
X148971762Y-95545250D03*
D16*
X138035000Y-72575000D03*
X138035000Y-71925000D03*
X138035000Y-71275000D03*
X138035000Y-70625000D03*
D17*
X136095000Y-71600000D03*
D19*
X166546762Y-64045610D03*
X164721762Y-64045610D03*
X139171762Y-64045610D03*
X137346762Y-64045610D03*
D16*
X165380000Y-72575000D03*
X165380000Y-71925000D03*
X165380000Y-71275000D03*
X165380000Y-70625000D03*
D17*
X163440000Y-71600000D03*
D13*
X140971762Y-114254670D03*
X131971762Y-114254670D03*
D14*
X137971762Y-112294670D03*
X134971762Y-112294670D03*
D16*
X152035000Y-72575000D03*
X152035000Y-71925000D03*
X152035000Y-71275000D03*
X152035000Y-70625000D03*
D17*
X150095000Y-71600000D03*
D13*
X159971762Y-114254670D03*
X168971762Y-114254670D03*
D14*
X165971762Y-112294670D03*
X162971762Y-112294670D03*
D18*
X152138300Y-67100000D03*
X148861700Y-67100000D03*
D13*
X173971762Y-97505250D03*
X182971762Y-97505250D03*
D14*
X179971762Y-95545250D03*
X176971762Y-95545250D03*
D19*
X153196762Y-64045610D03*
X151371762Y-64045610D03*
D15*
X151371762Y-61145610D03*
X153196762Y-61145610D03*
X179321762Y-61145610D03*
X181146762Y-61145610D03*
D13*
X183000000Y-80760610D03*
X174000000Y-80760610D03*
D14*
X180000000Y-78800610D03*
X177000000Y-78800610D03*
M02*
