M48
; DRILL file {KiCad (6.0.7)} date Sun Dec 11 16:29:06 2022
; FORMAT={-:-/ absolute / metric / decimal}
; #@! TF.CreationDate,2022-12-11T16:29:06-06:00
; #@! TF.GenerationSoftware,Kicad,Pcbnew,(6.0.7)
; #@! TF.FileFunction,MixedPlating,1,2
FMAT,2
METRIC
; #@! TA.AperFunction,Plated,PTH,ViaDrill
T1C0.400
; #@! TA.AperFunction,Plated,PTH,ViaDrill
T2C0.762
; #@! TA.AperFunction,Plated,PTH,ComponentDrill
T3C1.000
; #@! TA.AperFunction,Plated,PTH,ComponentDrill
T4C1.020
; #@! TA.AperFunction,NonPlated,NPTH,ComponentDrill
T5C1.000
; #@! TA.AperFunction,NonPlated,NPTH,ComponentDrill
T6C1.270
; #@! TA.AperFunction,NonPlated,NPTH,ComponentDrill
T7C3.000
%
G90
G05
T1
X135.959Y-64.046
X149.684Y-64.021
X163.189Y-63.996
X171.0Y-46.5
X177.864Y-63.976
T2
X139.722Y-72.571
X153.7Y-72.6
X167.072Y-72.571
X181.697Y-72.58
T3
X153.8Y-49.8
X153.8Y-52.8
X156.8Y-49.8
X156.8Y-52.8
X159.8Y-49.8
X159.8Y-52.8
T4
X134.972Y-95.545
X134.972Y-112.295
X135.0Y-78.801
X137.972Y-95.545
X137.972Y-112.295
X138.0Y-78.801
X148.972Y-95.545
X148.972Y-112.295
X149.0Y-78.801
X151.972Y-95.545
X151.972Y-112.295
X152.0Y-78.801
X162.972Y-95.545
X162.972Y-112.295
X163.0Y-78.801
X165.972Y-95.545
X165.972Y-112.295
X166.0Y-78.801
X176.972Y-95.545
X176.972Y-112.295
X177.0Y-78.801
X179.972Y-95.545
X179.972Y-112.295
X180.0Y-78.801
T5
X150.8Y-48.86
X162.8Y-48.86
T6
X131.972Y-97.505
X131.972Y-114.255
X132.0Y-80.761
X140.972Y-97.505
X140.972Y-114.255
X141.0Y-80.761
X145.972Y-97.505
X145.972Y-114.255
X146.0Y-80.761
X154.972Y-97.505
X154.972Y-114.255
X155.0Y-80.761
X159.972Y-97.505
X159.972Y-114.255
X160.0Y-80.761
X168.972Y-97.505
X168.972Y-114.255
X169.0Y-80.761
X173.972Y-97.505
X173.972Y-114.255
X174.0Y-80.761
X182.972Y-97.505
X182.972Y-114.255
X183.0Y-80.761
T7
X131.544Y-119.746
X131.572Y-43.746
X182.694Y-119.746
X182.722Y-43.746
T0
M30
