%TF.GenerationSoftware,KiCad,Pcbnew,(6.0.7)*%
%TF.CreationDate,2022-12-11T16:26:28-06:00*%
%TF.ProjectId,BPS-Fan,4250532d-4661-46e2-9e6b-696361645f70,rev?*%
%TF.SameCoordinates,Original*%
%TF.FileFunction,Copper,L2,Bot*%
%TF.FilePolarity,Positive*%
%FSLAX46Y46*%
G04 Gerber Fmt 4.6, Leading zero omitted, Abs format (unit mm)*
G04 Created by KiCad (PCBNEW (6.0.7)) date 2022-12-11 16:26:28*
%MOMM*%
%LPD*%
G01*
G04 APERTURE LIST*
G04 Aperture macros list*
%AMRoundRect*
0 Rectangle with rounded corners*
0 $1 Rounding radius*
0 $2 $3 $4 $5 $6 $7 $8 $9 X,Y pos of 4 corners*
0 Add a 4 corners polygon primitive as box body*
4,1,4,$2,$3,$4,$5,$6,$7,$8,$9,$2,$3,0*
0 Add four circle primitives for the rounded corners*
1,1,$1+$1,$2,$3*
1,1,$1+$1,$4,$5*
1,1,$1+$1,$6,$7*
1,1,$1+$1,$8,$9*
0 Add four rect primitives between the rounded corners*
20,1,$1+$1,$2,$3,$4,$5,0*
20,1,$1+$1,$4,$5,$6,$7,0*
20,1,$1+$1,$6,$7,$8,$9,0*
20,1,$1+$1,$8,$9,$2,$3,0*%
G04 Aperture macros list end*
%TA.AperFunction,ComponentPad*%
%ADD10C,1.700000*%
%TD*%
%TA.AperFunction,ComponentPad*%
%ADD11RoundRect,0.250001X0.499999X0.499999X-0.499999X0.499999X-0.499999X-0.499999X0.499999X-0.499999X0*%
%TD*%
%TA.AperFunction,ComponentPad*%
%ADD12C,1.500000*%
%TD*%
%TA.AperFunction,ViaPad*%
%ADD13C,1.270000*%
%TD*%
%TA.AperFunction,ViaPad*%
%ADD14C,0.800000*%
%TD*%
G04 APERTURE END LIST*
D10*
X152000000Y-78800610D03*
X149000000Y-78800610D03*
X179971762Y-112294670D03*
X176971762Y-112294670D03*
X138000000Y-78800610D03*
X135000000Y-78800610D03*
X166000000Y-78800610D03*
X163000000Y-78800610D03*
X151971762Y-112294670D03*
X148971762Y-112294670D03*
X137971762Y-95545250D03*
X134971762Y-95545250D03*
X165971762Y-95545250D03*
X162971762Y-95545250D03*
D11*
X159800000Y-52800000D03*
D12*
X156800000Y-52800000D03*
X153800000Y-52800000D03*
X159800000Y-49800000D03*
X156800000Y-49800000D03*
X153800000Y-49800000D03*
D10*
X151971762Y-95545250D03*
X148971762Y-95545250D03*
X137971762Y-112294670D03*
X134971762Y-112294670D03*
X165971762Y-112294670D03*
X162971762Y-112294670D03*
X179971762Y-95545250D03*
X176971762Y-95545250D03*
X180000000Y-78800610D03*
X177000000Y-78800610D03*
D13*
X153700000Y-72600000D03*
X181696762Y-72580000D03*
X139721762Y-72570610D03*
D14*
X177864262Y-63975610D03*
X163189262Y-63995610D03*
X171000000Y-46500000D03*
X149684262Y-64020610D03*
X135959262Y-64045610D03*
D13*
X167071762Y-72570610D03*
%TA.AperFunction,Conductor*%
G36*
X182857774Y-41210829D02*
G01*
X182859707Y-41210948D01*
X182868499Y-41212763D01*
X182886593Y-41211296D01*
X182910003Y-41211581D01*
X183137567Y-41235619D01*
X183151828Y-41237126D01*
X183165773Y-41239396D01*
X183298212Y-41268656D01*
X183430652Y-41297917D01*
X183444254Y-41301733D01*
X183700917Y-41389543D01*
X183714002Y-41394856D01*
X183959235Y-41510859D01*
X183971637Y-41517601D01*
X184071002Y-41579076D01*
X184202328Y-41660325D01*
X184213908Y-41668421D01*
X184350231Y-41775591D01*
X184393095Y-41809288D01*
X184427162Y-41836070D01*
X184437763Y-41845412D01*
X184630913Y-42035892D01*
X184640402Y-42046362D01*
X184811005Y-42257264D01*
X184819261Y-42268730D01*
X184965178Y-42497407D01*
X184972099Y-42509726D01*
X185091495Y-42753304D01*
X185096993Y-42766320D01*
X185188368Y-43021738D01*
X185192373Y-43035286D01*
X185254576Y-43299332D01*
X185257038Y-43313236D01*
X185289286Y-43582588D01*
X185290176Y-43596689D01*
X185291818Y-43832549D01*
X185289219Y-43858899D01*
X185287237Y-43868499D01*
X185287962Y-43877446D01*
X185287962Y-43877450D01*
X185291078Y-43915888D01*
X185291490Y-43926114D01*
X185277376Y-81884593D01*
X185264921Y-115383839D01*
X185264636Y-116149047D01*
X185244609Y-116217160D01*
X185190936Y-116263633D01*
X185138636Y-116275000D01*
X129107636Y-116275000D01*
X129039515Y-116254998D01*
X128993022Y-116201342D01*
X128981636Y-116148953D01*
X128981916Y-115397904D01*
X128982308Y-114344772D01*
X130826903Y-114344772D01*
X130862494Y-114551898D01*
X130935234Y-114749069D01*
X131042688Y-114929682D01*
X131181256Y-115087689D01*
X131346299Y-115217798D01*
X131351415Y-115220489D01*
X131351417Y-115220491D01*
X131527172Y-115312960D01*
X131532289Y-115315652D01*
X131732996Y-115377974D01*
X131738731Y-115378653D01*
X131738732Y-115378653D01*
X131769294Y-115382270D01*
X131903636Y-115398170D01*
X132025078Y-115398170D01*
X132181041Y-115383839D01*
X132186603Y-115382270D01*
X132186605Y-115382270D01*
X132282176Y-115355316D01*
X132383311Y-115326793D01*
X132571799Y-115233841D01*
X132740191Y-115108097D01*
X132882848Y-114953771D01*
X132994993Y-114776032D01*
X133072870Y-114580833D01*
X133073995Y-114575176D01*
X133073997Y-114575170D01*
X133112743Y-114380377D01*
X133112743Y-114380375D01*
X133113870Y-114374710D01*
X133114188Y-114350470D01*
X133114263Y-114344772D01*
X139826903Y-114344772D01*
X139862494Y-114551898D01*
X139935234Y-114749069D01*
X140042688Y-114929682D01*
X140181256Y-115087689D01*
X140346299Y-115217798D01*
X140351415Y-115220489D01*
X140351417Y-115220491D01*
X140527172Y-115312960D01*
X140532289Y-115315652D01*
X140732996Y-115377974D01*
X140738731Y-115378653D01*
X140738732Y-115378653D01*
X140769294Y-115382270D01*
X140903636Y-115398170D01*
X141025078Y-115398170D01*
X141181041Y-115383839D01*
X141186603Y-115382270D01*
X141186605Y-115382270D01*
X141282176Y-115355316D01*
X141383311Y-115326793D01*
X141571799Y-115233841D01*
X141740191Y-115108097D01*
X141882848Y-114953771D01*
X141994993Y-114776032D01*
X142072870Y-114580833D01*
X142073995Y-114575176D01*
X142073997Y-114575170D01*
X142112743Y-114380377D01*
X142112743Y-114380375D01*
X142113870Y-114374710D01*
X142114188Y-114350470D01*
X142114263Y-114344772D01*
X144826903Y-114344772D01*
X144862494Y-114551898D01*
X144935234Y-114749069D01*
X145042688Y-114929682D01*
X145181256Y-115087689D01*
X145346299Y-115217798D01*
X145351415Y-115220489D01*
X145351417Y-115220491D01*
X145527172Y-115312960D01*
X145532289Y-115315652D01*
X145732996Y-115377974D01*
X145738731Y-115378653D01*
X145738732Y-115378653D01*
X145769294Y-115382270D01*
X145903636Y-115398170D01*
X146025078Y-115398170D01*
X146181041Y-115383839D01*
X146186603Y-115382270D01*
X146186605Y-115382270D01*
X146282176Y-115355316D01*
X146383311Y-115326793D01*
X146571799Y-115233841D01*
X146740191Y-115108097D01*
X146882848Y-114953771D01*
X146994993Y-114776032D01*
X147072870Y-114580833D01*
X147073995Y-114575176D01*
X147073997Y-114575170D01*
X147112743Y-114380377D01*
X147112743Y-114380375D01*
X147113870Y-114374710D01*
X147114188Y-114350470D01*
X147114263Y-114344772D01*
X153826903Y-114344772D01*
X153862494Y-114551898D01*
X153935234Y-114749069D01*
X154042688Y-114929682D01*
X154181256Y-115087689D01*
X154346299Y-115217798D01*
X154351415Y-115220489D01*
X154351417Y-115220491D01*
X154527172Y-115312960D01*
X154532289Y-115315652D01*
X154732996Y-115377974D01*
X154738731Y-115378653D01*
X154738732Y-115378653D01*
X154769294Y-115382270D01*
X154903636Y-115398170D01*
X155025078Y-115398170D01*
X155181041Y-115383839D01*
X155186603Y-115382270D01*
X155186605Y-115382270D01*
X155282176Y-115355316D01*
X155383311Y-115326793D01*
X155571799Y-115233841D01*
X155740191Y-115108097D01*
X155882848Y-114953771D01*
X155994993Y-114776032D01*
X156072870Y-114580833D01*
X156073995Y-114575176D01*
X156073997Y-114575170D01*
X156112743Y-114380377D01*
X156112743Y-114380375D01*
X156113870Y-114374710D01*
X156114188Y-114350470D01*
X156114263Y-114344772D01*
X158826903Y-114344772D01*
X158862494Y-114551898D01*
X158935234Y-114749069D01*
X159042688Y-114929682D01*
X159181256Y-115087689D01*
X159346299Y-115217798D01*
X159351415Y-115220489D01*
X159351417Y-115220491D01*
X159527172Y-115312960D01*
X159532289Y-115315652D01*
X159732996Y-115377974D01*
X159738731Y-115378653D01*
X159738732Y-115378653D01*
X159769294Y-115382270D01*
X159903636Y-115398170D01*
X160025078Y-115398170D01*
X160181041Y-115383839D01*
X160186603Y-115382270D01*
X160186605Y-115382270D01*
X160282176Y-115355316D01*
X160383311Y-115326793D01*
X160571799Y-115233841D01*
X160740191Y-115108097D01*
X160882848Y-114953771D01*
X160994993Y-114776032D01*
X161072870Y-114580833D01*
X161073995Y-114575176D01*
X161073997Y-114575170D01*
X161112743Y-114380377D01*
X161112743Y-114380375D01*
X161113870Y-114374710D01*
X161114188Y-114350470D01*
X161114263Y-114344772D01*
X167826903Y-114344772D01*
X167862494Y-114551898D01*
X167935234Y-114749069D01*
X168042688Y-114929682D01*
X168181256Y-115087689D01*
X168346299Y-115217798D01*
X168351415Y-115220489D01*
X168351417Y-115220491D01*
X168527172Y-115312960D01*
X168532289Y-115315652D01*
X168732996Y-115377974D01*
X168738731Y-115378653D01*
X168738732Y-115378653D01*
X168769294Y-115382270D01*
X168903636Y-115398170D01*
X169025078Y-115398170D01*
X169181041Y-115383839D01*
X169186603Y-115382270D01*
X169186605Y-115382270D01*
X169282176Y-115355316D01*
X169383311Y-115326793D01*
X169571799Y-115233841D01*
X169740191Y-115108097D01*
X169882848Y-114953771D01*
X169994993Y-114776032D01*
X170072870Y-114580833D01*
X170073995Y-114575176D01*
X170073997Y-114575170D01*
X170112743Y-114380377D01*
X170112743Y-114380375D01*
X170113870Y-114374710D01*
X170114188Y-114350470D01*
X170114263Y-114344772D01*
X172826903Y-114344772D01*
X172862494Y-114551898D01*
X172935234Y-114749069D01*
X173042688Y-114929682D01*
X173181256Y-115087689D01*
X173346299Y-115217798D01*
X173351415Y-115220489D01*
X173351417Y-115220491D01*
X173527172Y-115312960D01*
X173532289Y-115315652D01*
X173732996Y-115377974D01*
X173738731Y-115378653D01*
X173738732Y-115378653D01*
X173769294Y-115382270D01*
X173903636Y-115398170D01*
X174025078Y-115398170D01*
X174181041Y-115383839D01*
X174186603Y-115382270D01*
X174186605Y-115382270D01*
X174282176Y-115355316D01*
X174383311Y-115326793D01*
X174571799Y-115233841D01*
X174740191Y-115108097D01*
X174882848Y-114953771D01*
X174994993Y-114776032D01*
X175072870Y-114580833D01*
X175073995Y-114575176D01*
X175073997Y-114575170D01*
X175112743Y-114380377D01*
X175112743Y-114380375D01*
X175113870Y-114374710D01*
X175114188Y-114350470D01*
X175114263Y-114344772D01*
X181826903Y-114344772D01*
X181862494Y-114551898D01*
X181935234Y-114749069D01*
X182042688Y-114929682D01*
X182181256Y-115087689D01*
X182346299Y-115217798D01*
X182351415Y-115220489D01*
X182351417Y-115220491D01*
X182527172Y-115312960D01*
X182532289Y-115315652D01*
X182732996Y-115377974D01*
X182738731Y-115378653D01*
X182738732Y-115378653D01*
X182769294Y-115382270D01*
X182903636Y-115398170D01*
X183025078Y-115398170D01*
X183181041Y-115383839D01*
X183186603Y-115382270D01*
X183186605Y-115382270D01*
X183282176Y-115355316D01*
X183383311Y-115326793D01*
X183571799Y-115233841D01*
X183740191Y-115108097D01*
X183882848Y-114953771D01*
X183994993Y-114776032D01*
X184072870Y-114580833D01*
X184073995Y-114575176D01*
X184073997Y-114575170D01*
X184112743Y-114380377D01*
X184112743Y-114380375D01*
X184113870Y-114374710D01*
X184114188Y-114350470D01*
X184116545Y-114170350D01*
X184116621Y-114164568D01*
X184081030Y-113957442D01*
X184008290Y-113760271D01*
X183946116Y-113655767D01*
X183903790Y-113584623D01*
X183903789Y-113584622D01*
X183900836Y-113579658D01*
X183762268Y-113421651D01*
X183597225Y-113291542D01*
X183592109Y-113288851D01*
X183592107Y-113288849D01*
X183416352Y-113196380D01*
X183416350Y-113196379D01*
X183411235Y-113193688D01*
X183210528Y-113131366D01*
X183204793Y-113130687D01*
X183204792Y-113130687D01*
X183156504Y-113124972D01*
X183039888Y-113111170D01*
X182918446Y-113111170D01*
X182762483Y-113125501D01*
X182756921Y-113127070D01*
X182756919Y-113127070D01*
X182661348Y-113154024D01*
X182560213Y-113182547D01*
X182371725Y-113275499D01*
X182367099Y-113278953D01*
X182367098Y-113278954D01*
X182207957Y-113397790D01*
X182203333Y-113401243D01*
X182199419Y-113405477D01*
X182199417Y-113405479D01*
X182089851Y-113524008D01*
X182060676Y-113555569D01*
X181948531Y-113733308D01*
X181870654Y-113928507D01*
X181869529Y-113934164D01*
X181869527Y-113934170D01*
X181863765Y-113963139D01*
X181829654Y-114134630D01*
X181829578Y-114140405D01*
X181829578Y-114140409D01*
X181829262Y-114164568D01*
X181826903Y-114344772D01*
X175114263Y-114344772D01*
X175116545Y-114170350D01*
X175116621Y-114164568D01*
X175081030Y-113957442D01*
X175008290Y-113760271D01*
X174946116Y-113655767D01*
X174903790Y-113584623D01*
X174903789Y-113584622D01*
X174900836Y-113579658D01*
X174762268Y-113421651D01*
X174597225Y-113291542D01*
X174592109Y-113288851D01*
X174592107Y-113288849D01*
X174416352Y-113196380D01*
X174416350Y-113196379D01*
X174411235Y-113193688D01*
X174210528Y-113131366D01*
X174204793Y-113130687D01*
X174204792Y-113130687D01*
X174156504Y-113124972D01*
X174039888Y-113111170D01*
X173918446Y-113111170D01*
X173762483Y-113125501D01*
X173756921Y-113127070D01*
X173756919Y-113127070D01*
X173661348Y-113154024D01*
X173560213Y-113182547D01*
X173371725Y-113275499D01*
X173367099Y-113278953D01*
X173367098Y-113278954D01*
X173207957Y-113397790D01*
X173203333Y-113401243D01*
X173199419Y-113405477D01*
X173199417Y-113405479D01*
X173089851Y-113524008D01*
X173060676Y-113555569D01*
X172948531Y-113733308D01*
X172870654Y-113928507D01*
X172869529Y-113934164D01*
X172869527Y-113934170D01*
X172863765Y-113963139D01*
X172829654Y-114134630D01*
X172829578Y-114140405D01*
X172829578Y-114140409D01*
X172829262Y-114164568D01*
X172826903Y-114344772D01*
X170114263Y-114344772D01*
X170116545Y-114170350D01*
X170116621Y-114164568D01*
X170081030Y-113957442D01*
X170008290Y-113760271D01*
X169946116Y-113655767D01*
X169903790Y-113584623D01*
X169903789Y-113584622D01*
X169900836Y-113579658D01*
X169762268Y-113421651D01*
X169597225Y-113291542D01*
X169592109Y-113288851D01*
X169592107Y-113288849D01*
X169416352Y-113196380D01*
X169416350Y-113196379D01*
X169411235Y-113193688D01*
X169210528Y-113131366D01*
X169204793Y-113130687D01*
X169204792Y-113130687D01*
X169156504Y-113124972D01*
X169039888Y-113111170D01*
X168918446Y-113111170D01*
X168762483Y-113125501D01*
X168756921Y-113127070D01*
X168756919Y-113127070D01*
X168661348Y-113154024D01*
X168560213Y-113182547D01*
X168371725Y-113275499D01*
X168367099Y-113278953D01*
X168367098Y-113278954D01*
X168207957Y-113397790D01*
X168203333Y-113401243D01*
X168199419Y-113405477D01*
X168199417Y-113405479D01*
X168089851Y-113524008D01*
X168060676Y-113555569D01*
X167948531Y-113733308D01*
X167870654Y-113928507D01*
X167869529Y-113934164D01*
X167869527Y-113934170D01*
X167863765Y-113963139D01*
X167829654Y-114134630D01*
X167829578Y-114140405D01*
X167829578Y-114140409D01*
X167829262Y-114164568D01*
X167826903Y-114344772D01*
X161114263Y-114344772D01*
X161116545Y-114170350D01*
X161116621Y-114164568D01*
X161081030Y-113957442D01*
X161008290Y-113760271D01*
X160946116Y-113655767D01*
X160903790Y-113584623D01*
X160903789Y-113584622D01*
X160900836Y-113579658D01*
X160762268Y-113421651D01*
X160597225Y-113291542D01*
X160592109Y-113288851D01*
X160592107Y-113288849D01*
X160416352Y-113196380D01*
X160416350Y-113196379D01*
X160411235Y-113193688D01*
X160210528Y-113131366D01*
X160204793Y-113130687D01*
X160204792Y-113130687D01*
X160156504Y-113124972D01*
X160039888Y-113111170D01*
X159918446Y-113111170D01*
X159762483Y-113125501D01*
X159756921Y-113127070D01*
X159756919Y-113127070D01*
X159661348Y-113154024D01*
X159560213Y-113182547D01*
X159371725Y-113275499D01*
X159367099Y-113278953D01*
X159367098Y-113278954D01*
X159207957Y-113397790D01*
X159203333Y-113401243D01*
X159199419Y-113405477D01*
X159199417Y-113405479D01*
X159089851Y-113524008D01*
X159060676Y-113555569D01*
X158948531Y-113733308D01*
X158870654Y-113928507D01*
X158869529Y-113934164D01*
X158869527Y-113934170D01*
X158863765Y-113963139D01*
X158829654Y-114134630D01*
X158829578Y-114140405D01*
X158829578Y-114140409D01*
X158829262Y-114164568D01*
X158826903Y-114344772D01*
X156114263Y-114344772D01*
X156116545Y-114170350D01*
X156116621Y-114164568D01*
X156081030Y-113957442D01*
X156008290Y-113760271D01*
X155946116Y-113655767D01*
X155903790Y-113584623D01*
X155903789Y-113584622D01*
X155900836Y-113579658D01*
X155762268Y-113421651D01*
X155597225Y-113291542D01*
X155592109Y-113288851D01*
X155592107Y-113288849D01*
X155416352Y-113196380D01*
X155416350Y-113196379D01*
X155411235Y-113193688D01*
X155210528Y-113131366D01*
X155204793Y-113130687D01*
X155204792Y-113130687D01*
X155156504Y-113124972D01*
X155039888Y-113111170D01*
X154918446Y-113111170D01*
X154762483Y-113125501D01*
X154756921Y-113127070D01*
X154756919Y-113127070D01*
X154661348Y-113154024D01*
X154560213Y-113182547D01*
X154371725Y-113275499D01*
X154367099Y-113278953D01*
X154367098Y-113278954D01*
X154207957Y-113397790D01*
X154203333Y-113401243D01*
X154199419Y-113405477D01*
X154199417Y-113405479D01*
X154089851Y-113524008D01*
X154060676Y-113555569D01*
X153948531Y-113733308D01*
X153870654Y-113928507D01*
X153869529Y-113934164D01*
X153869527Y-113934170D01*
X153863765Y-113963139D01*
X153829654Y-114134630D01*
X153829578Y-114140405D01*
X153829578Y-114140409D01*
X153829262Y-114164568D01*
X153826903Y-114344772D01*
X147114263Y-114344772D01*
X147116545Y-114170350D01*
X147116621Y-114164568D01*
X147081030Y-113957442D01*
X147008290Y-113760271D01*
X146946116Y-113655767D01*
X146903790Y-113584623D01*
X146903789Y-113584622D01*
X146900836Y-113579658D01*
X146762268Y-113421651D01*
X146597225Y-113291542D01*
X146592109Y-113288851D01*
X146592107Y-113288849D01*
X146416352Y-113196380D01*
X146416350Y-113196379D01*
X146411235Y-113193688D01*
X146210528Y-113131366D01*
X146204793Y-113130687D01*
X146204792Y-113130687D01*
X146156504Y-113124972D01*
X146039888Y-113111170D01*
X145918446Y-113111170D01*
X145762483Y-113125501D01*
X145756921Y-113127070D01*
X145756919Y-113127070D01*
X145661348Y-113154024D01*
X145560213Y-113182547D01*
X145371725Y-113275499D01*
X145367099Y-113278953D01*
X145367098Y-113278954D01*
X145207957Y-113397790D01*
X145203333Y-113401243D01*
X145199419Y-113405477D01*
X145199417Y-113405479D01*
X145089851Y-113524008D01*
X145060676Y-113555569D01*
X144948531Y-113733308D01*
X144870654Y-113928507D01*
X144869529Y-113934164D01*
X144869527Y-113934170D01*
X144863765Y-113963139D01*
X144829654Y-114134630D01*
X144829578Y-114140405D01*
X144829578Y-114140409D01*
X144829262Y-114164568D01*
X144826903Y-114344772D01*
X142114263Y-114344772D01*
X142116545Y-114170350D01*
X142116621Y-114164568D01*
X142081030Y-113957442D01*
X142008290Y-113760271D01*
X141946116Y-113655767D01*
X141903790Y-113584623D01*
X141903789Y-113584622D01*
X141900836Y-113579658D01*
X141762268Y-113421651D01*
X141597225Y-113291542D01*
X141592109Y-113288851D01*
X141592107Y-113288849D01*
X141416352Y-113196380D01*
X141416350Y-113196379D01*
X141411235Y-113193688D01*
X141210528Y-113131366D01*
X141204793Y-113130687D01*
X141204792Y-113130687D01*
X141156504Y-113124972D01*
X141039888Y-113111170D01*
X140918446Y-113111170D01*
X140762483Y-113125501D01*
X140756921Y-113127070D01*
X140756919Y-113127070D01*
X140661348Y-113154024D01*
X140560213Y-113182547D01*
X140371725Y-113275499D01*
X140367099Y-113278953D01*
X140367098Y-113278954D01*
X140207957Y-113397790D01*
X140203333Y-113401243D01*
X140199419Y-113405477D01*
X140199417Y-113405479D01*
X140089851Y-113524008D01*
X140060676Y-113555569D01*
X139948531Y-113733308D01*
X139870654Y-113928507D01*
X139869529Y-113934164D01*
X139869527Y-113934170D01*
X139863765Y-113963139D01*
X139829654Y-114134630D01*
X139829578Y-114140405D01*
X139829578Y-114140409D01*
X139829262Y-114164568D01*
X139826903Y-114344772D01*
X133114263Y-114344772D01*
X133116545Y-114170350D01*
X133116621Y-114164568D01*
X133081030Y-113957442D01*
X133008290Y-113760271D01*
X132946116Y-113655767D01*
X132903790Y-113584623D01*
X132903789Y-113584622D01*
X132900836Y-113579658D01*
X132762268Y-113421651D01*
X132597225Y-113291542D01*
X132592109Y-113288851D01*
X132592107Y-113288849D01*
X132416352Y-113196380D01*
X132416350Y-113196379D01*
X132411235Y-113193688D01*
X132210528Y-113131366D01*
X132204793Y-113130687D01*
X132204792Y-113130687D01*
X132156504Y-113124972D01*
X132039888Y-113111170D01*
X131918446Y-113111170D01*
X131762483Y-113125501D01*
X131756921Y-113127070D01*
X131756919Y-113127070D01*
X131661348Y-113154024D01*
X131560213Y-113182547D01*
X131371725Y-113275499D01*
X131367099Y-113278953D01*
X131367098Y-113278954D01*
X131207957Y-113397790D01*
X131203333Y-113401243D01*
X131199419Y-113405477D01*
X131199417Y-113405479D01*
X131089851Y-113524008D01*
X131060676Y-113555569D01*
X130948531Y-113733308D01*
X130870654Y-113928507D01*
X130869529Y-113934164D01*
X130869527Y-113934170D01*
X130863765Y-113963139D01*
X130829654Y-114134630D01*
X130829578Y-114140405D01*
X130829578Y-114140409D01*
X130829262Y-114164568D01*
X130826903Y-114344772D01*
X128982308Y-114344772D01*
X128983083Y-112261365D01*
X133609013Y-112261365D01*
X133609310Y-112266518D01*
X133609310Y-112266521D01*
X133614773Y-112361260D01*
X133621872Y-112484385D01*
X133623009Y-112489431D01*
X133623010Y-112489437D01*
X133642881Y-112577609D01*
X133670984Y-112702309D01*
X133755028Y-112909286D01*
X133871749Y-113099758D01*
X134018012Y-113268608D01*
X134189888Y-113411302D01*
X134382762Y-113524008D01*
X134591454Y-113603700D01*
X134596522Y-113604731D01*
X134596525Y-113604732D01*
X134703779Y-113626553D01*
X134810359Y-113648237D01*
X134815534Y-113648427D01*
X134815536Y-113648427D01*
X135028435Y-113656234D01*
X135028439Y-113656234D01*
X135033599Y-113656423D01*
X135038719Y-113655767D01*
X135038721Y-113655767D01*
X135250050Y-113628695D01*
X135250051Y-113628695D01*
X135255178Y-113628038D01*
X135260128Y-113626553D01*
X135464191Y-113565331D01*
X135464196Y-113565329D01*
X135469146Y-113563844D01*
X135669756Y-113465566D01*
X135851622Y-113335843D01*
X136009858Y-113178159D01*
X136047697Y-113125501D01*
X136137197Y-113000947D01*
X136140215Y-112996747D01*
X136239192Y-112796481D01*
X136304132Y-112582739D01*
X136333291Y-112361260D01*
X136334918Y-112294670D01*
X136332180Y-112261365D01*
X136609013Y-112261365D01*
X136609310Y-112266518D01*
X136609310Y-112266521D01*
X136614773Y-112361260D01*
X136621872Y-112484385D01*
X136623009Y-112489431D01*
X136623010Y-112489437D01*
X136642881Y-112577609D01*
X136670984Y-112702309D01*
X136755028Y-112909286D01*
X136871749Y-113099758D01*
X137018012Y-113268608D01*
X137189888Y-113411302D01*
X137382762Y-113524008D01*
X137591454Y-113603700D01*
X137596522Y-113604731D01*
X137596525Y-113604732D01*
X137703779Y-113626553D01*
X137810359Y-113648237D01*
X137815534Y-113648427D01*
X137815536Y-113648427D01*
X138028435Y-113656234D01*
X138028439Y-113656234D01*
X138033599Y-113656423D01*
X138038719Y-113655767D01*
X138038721Y-113655767D01*
X138250050Y-113628695D01*
X138250051Y-113628695D01*
X138255178Y-113628038D01*
X138260128Y-113626553D01*
X138464191Y-113565331D01*
X138464196Y-113565329D01*
X138469146Y-113563844D01*
X138669756Y-113465566D01*
X138851622Y-113335843D01*
X139009858Y-113178159D01*
X139047697Y-113125501D01*
X139137197Y-113000947D01*
X139140215Y-112996747D01*
X139239192Y-112796481D01*
X139304132Y-112582739D01*
X139333291Y-112361260D01*
X139334918Y-112294670D01*
X139332180Y-112261365D01*
X147609013Y-112261365D01*
X147609310Y-112266518D01*
X147609310Y-112266521D01*
X147614773Y-112361260D01*
X147621872Y-112484385D01*
X147623009Y-112489431D01*
X147623010Y-112489437D01*
X147642881Y-112577609D01*
X147670984Y-112702309D01*
X147755028Y-112909286D01*
X147871749Y-113099758D01*
X148018012Y-113268608D01*
X148189888Y-113411302D01*
X148382762Y-113524008D01*
X148591454Y-113603700D01*
X148596522Y-113604731D01*
X148596525Y-113604732D01*
X148703779Y-113626553D01*
X148810359Y-113648237D01*
X148815534Y-113648427D01*
X148815536Y-113648427D01*
X149028435Y-113656234D01*
X149028439Y-113656234D01*
X149033599Y-113656423D01*
X149038719Y-113655767D01*
X149038721Y-113655767D01*
X149250050Y-113628695D01*
X149250051Y-113628695D01*
X149255178Y-113628038D01*
X149260128Y-113626553D01*
X149464191Y-113565331D01*
X149464196Y-113565329D01*
X149469146Y-113563844D01*
X149669756Y-113465566D01*
X149851622Y-113335843D01*
X150009858Y-113178159D01*
X150047697Y-113125501D01*
X150137197Y-113000947D01*
X150140215Y-112996747D01*
X150239192Y-112796481D01*
X150304132Y-112582739D01*
X150333291Y-112361260D01*
X150334918Y-112294670D01*
X150332180Y-112261365D01*
X150609013Y-112261365D01*
X150609310Y-112266518D01*
X150609310Y-112266521D01*
X150614773Y-112361260D01*
X150621872Y-112484385D01*
X150623009Y-112489431D01*
X150623010Y-112489437D01*
X150642881Y-112577609D01*
X150670984Y-112702309D01*
X150755028Y-112909286D01*
X150871749Y-113099758D01*
X151018012Y-113268608D01*
X151189888Y-113411302D01*
X151382762Y-113524008D01*
X151591454Y-113603700D01*
X151596522Y-113604731D01*
X151596525Y-113604732D01*
X151703779Y-113626553D01*
X151810359Y-113648237D01*
X151815534Y-113648427D01*
X151815536Y-113648427D01*
X152028435Y-113656234D01*
X152028439Y-113656234D01*
X152033599Y-113656423D01*
X152038719Y-113655767D01*
X152038721Y-113655767D01*
X152250050Y-113628695D01*
X152250051Y-113628695D01*
X152255178Y-113628038D01*
X152260128Y-113626553D01*
X152464191Y-113565331D01*
X152464196Y-113565329D01*
X152469146Y-113563844D01*
X152669756Y-113465566D01*
X152851622Y-113335843D01*
X153009858Y-113178159D01*
X153047697Y-113125501D01*
X153137197Y-113000947D01*
X153140215Y-112996747D01*
X153239192Y-112796481D01*
X153304132Y-112582739D01*
X153333291Y-112361260D01*
X153334918Y-112294670D01*
X153332180Y-112261365D01*
X161609013Y-112261365D01*
X161609310Y-112266518D01*
X161609310Y-112266521D01*
X161614773Y-112361260D01*
X161621872Y-112484385D01*
X161623009Y-112489431D01*
X161623010Y-112489437D01*
X161642881Y-112577609D01*
X161670984Y-112702309D01*
X161755028Y-112909286D01*
X161871749Y-113099758D01*
X162018012Y-113268608D01*
X162189888Y-113411302D01*
X162382762Y-113524008D01*
X162591454Y-113603700D01*
X162596522Y-113604731D01*
X162596525Y-113604732D01*
X162703779Y-113626553D01*
X162810359Y-113648237D01*
X162815534Y-113648427D01*
X162815536Y-113648427D01*
X163028435Y-113656234D01*
X163028439Y-113656234D01*
X163033599Y-113656423D01*
X163038719Y-113655767D01*
X163038721Y-113655767D01*
X163250050Y-113628695D01*
X163250051Y-113628695D01*
X163255178Y-113628038D01*
X163260128Y-113626553D01*
X163464191Y-113565331D01*
X163464196Y-113565329D01*
X163469146Y-113563844D01*
X163669756Y-113465566D01*
X163851622Y-113335843D01*
X164009858Y-113178159D01*
X164047697Y-113125501D01*
X164137197Y-113000947D01*
X164140215Y-112996747D01*
X164239192Y-112796481D01*
X164304132Y-112582739D01*
X164333291Y-112361260D01*
X164334918Y-112294670D01*
X164332180Y-112261365D01*
X164609013Y-112261365D01*
X164609310Y-112266518D01*
X164609310Y-112266521D01*
X164614773Y-112361260D01*
X164621872Y-112484385D01*
X164623009Y-112489431D01*
X164623010Y-112489437D01*
X164642881Y-112577609D01*
X164670984Y-112702309D01*
X164755028Y-112909286D01*
X164871749Y-113099758D01*
X165018012Y-113268608D01*
X165189888Y-113411302D01*
X165382762Y-113524008D01*
X165591454Y-113603700D01*
X165596522Y-113604731D01*
X165596525Y-113604732D01*
X165703779Y-113626553D01*
X165810359Y-113648237D01*
X165815534Y-113648427D01*
X165815536Y-113648427D01*
X166028435Y-113656234D01*
X166028439Y-113656234D01*
X166033599Y-113656423D01*
X166038719Y-113655767D01*
X166038721Y-113655767D01*
X166250050Y-113628695D01*
X166250051Y-113628695D01*
X166255178Y-113628038D01*
X166260128Y-113626553D01*
X166464191Y-113565331D01*
X166464196Y-113565329D01*
X166469146Y-113563844D01*
X166669756Y-113465566D01*
X166851622Y-113335843D01*
X167009858Y-113178159D01*
X167047697Y-113125501D01*
X167137197Y-113000947D01*
X167140215Y-112996747D01*
X167239192Y-112796481D01*
X167304132Y-112582739D01*
X167333291Y-112361260D01*
X167334918Y-112294670D01*
X167332180Y-112261365D01*
X175609013Y-112261365D01*
X175609310Y-112266518D01*
X175609310Y-112266521D01*
X175614773Y-112361260D01*
X175621872Y-112484385D01*
X175623009Y-112489431D01*
X175623010Y-112489437D01*
X175642881Y-112577609D01*
X175670984Y-112702309D01*
X175755028Y-112909286D01*
X175871749Y-113099758D01*
X176018012Y-113268608D01*
X176189888Y-113411302D01*
X176382762Y-113524008D01*
X176591454Y-113603700D01*
X176596522Y-113604731D01*
X176596525Y-113604732D01*
X176703779Y-113626553D01*
X176810359Y-113648237D01*
X176815534Y-113648427D01*
X176815536Y-113648427D01*
X177028435Y-113656234D01*
X177028439Y-113656234D01*
X177033599Y-113656423D01*
X177038719Y-113655767D01*
X177038721Y-113655767D01*
X177250050Y-113628695D01*
X177250051Y-113628695D01*
X177255178Y-113628038D01*
X177260128Y-113626553D01*
X177464191Y-113565331D01*
X177464196Y-113565329D01*
X177469146Y-113563844D01*
X177669756Y-113465566D01*
X177851622Y-113335843D01*
X178009858Y-113178159D01*
X178047697Y-113125501D01*
X178137197Y-113000947D01*
X178140215Y-112996747D01*
X178239192Y-112796481D01*
X178304132Y-112582739D01*
X178333291Y-112361260D01*
X178334918Y-112294670D01*
X178332180Y-112261365D01*
X178609013Y-112261365D01*
X178609310Y-112266518D01*
X178609310Y-112266521D01*
X178614773Y-112361260D01*
X178621872Y-112484385D01*
X178623009Y-112489431D01*
X178623010Y-112489437D01*
X178642881Y-112577609D01*
X178670984Y-112702309D01*
X178755028Y-112909286D01*
X178871749Y-113099758D01*
X179018012Y-113268608D01*
X179189888Y-113411302D01*
X179382762Y-113524008D01*
X179591454Y-113603700D01*
X179596522Y-113604731D01*
X179596525Y-113604732D01*
X179703779Y-113626553D01*
X179810359Y-113648237D01*
X179815534Y-113648427D01*
X179815536Y-113648427D01*
X180028435Y-113656234D01*
X180028439Y-113656234D01*
X180033599Y-113656423D01*
X180038719Y-113655767D01*
X180038721Y-113655767D01*
X180250050Y-113628695D01*
X180250051Y-113628695D01*
X180255178Y-113628038D01*
X180260128Y-113626553D01*
X180464191Y-113565331D01*
X180464196Y-113565329D01*
X180469146Y-113563844D01*
X180669756Y-113465566D01*
X180851622Y-113335843D01*
X181009858Y-113178159D01*
X181047697Y-113125501D01*
X181137197Y-113000947D01*
X181140215Y-112996747D01*
X181239192Y-112796481D01*
X181304132Y-112582739D01*
X181333291Y-112361260D01*
X181334918Y-112294670D01*
X181316614Y-112072031D01*
X181262193Y-111855372D01*
X181173116Y-111650510D01*
X181051776Y-111462947D01*
X180901432Y-111297721D01*
X180897381Y-111294522D01*
X180897377Y-111294518D01*
X180730176Y-111162470D01*
X180730172Y-111162468D01*
X180726121Y-111159268D01*
X180530551Y-111051308D01*
X180525682Y-111049584D01*
X180525678Y-111049582D01*
X180324849Y-110978465D01*
X180324845Y-110978464D01*
X180319974Y-110976739D01*
X180314881Y-110975832D01*
X180314878Y-110975831D01*
X180105135Y-110938470D01*
X180105129Y-110938469D01*
X180100046Y-110937564D01*
X180026214Y-110936662D01*
X179881843Y-110934898D01*
X179881841Y-110934898D01*
X179876673Y-110934835D01*
X179655853Y-110968625D01*
X179443518Y-111038027D01*
X179245369Y-111141177D01*
X179241236Y-111144280D01*
X179241233Y-111144282D01*
X179217009Y-111162470D01*
X179066727Y-111275305D01*
X178912391Y-111436808D01*
X178786505Y-111621350D01*
X178692450Y-111823975D01*
X178632751Y-112039240D01*
X178609013Y-112261365D01*
X178332180Y-112261365D01*
X178316614Y-112072031D01*
X178262193Y-111855372D01*
X178173116Y-111650510D01*
X178051776Y-111462947D01*
X177901432Y-111297721D01*
X177897381Y-111294522D01*
X177897377Y-111294518D01*
X177730176Y-111162470D01*
X177730172Y-111162468D01*
X177726121Y-111159268D01*
X177530551Y-111051308D01*
X177525682Y-111049584D01*
X177525678Y-111049582D01*
X177324849Y-110978465D01*
X177324845Y-110978464D01*
X177319974Y-110976739D01*
X177314881Y-110975832D01*
X177314878Y-110975831D01*
X177105135Y-110938470D01*
X177105129Y-110938469D01*
X177100046Y-110937564D01*
X177026214Y-110936662D01*
X176881843Y-110934898D01*
X176881841Y-110934898D01*
X176876673Y-110934835D01*
X176655853Y-110968625D01*
X176443518Y-111038027D01*
X176245369Y-111141177D01*
X176241236Y-111144280D01*
X176241233Y-111144282D01*
X176217009Y-111162470D01*
X176066727Y-111275305D01*
X175912391Y-111436808D01*
X175786505Y-111621350D01*
X175692450Y-111823975D01*
X175632751Y-112039240D01*
X175609013Y-112261365D01*
X167332180Y-112261365D01*
X167316614Y-112072031D01*
X167262193Y-111855372D01*
X167173116Y-111650510D01*
X167051776Y-111462947D01*
X166901432Y-111297721D01*
X166897381Y-111294522D01*
X166897377Y-111294518D01*
X166730176Y-111162470D01*
X166730172Y-111162468D01*
X166726121Y-111159268D01*
X166530551Y-111051308D01*
X166525682Y-111049584D01*
X166525678Y-111049582D01*
X166324849Y-110978465D01*
X166324845Y-110978464D01*
X166319974Y-110976739D01*
X166314881Y-110975832D01*
X166314878Y-110975831D01*
X166105135Y-110938470D01*
X166105129Y-110938469D01*
X166100046Y-110937564D01*
X166026214Y-110936662D01*
X165881843Y-110934898D01*
X165881841Y-110934898D01*
X165876673Y-110934835D01*
X165655853Y-110968625D01*
X165443518Y-111038027D01*
X165245369Y-111141177D01*
X165241236Y-111144280D01*
X165241233Y-111144282D01*
X165217009Y-111162470D01*
X165066727Y-111275305D01*
X164912391Y-111436808D01*
X164786505Y-111621350D01*
X164692450Y-111823975D01*
X164632751Y-112039240D01*
X164609013Y-112261365D01*
X164332180Y-112261365D01*
X164316614Y-112072031D01*
X164262193Y-111855372D01*
X164173116Y-111650510D01*
X164051776Y-111462947D01*
X163901432Y-111297721D01*
X163897381Y-111294522D01*
X163897377Y-111294518D01*
X163730176Y-111162470D01*
X163730172Y-111162468D01*
X163726121Y-111159268D01*
X163530551Y-111051308D01*
X163525682Y-111049584D01*
X163525678Y-111049582D01*
X163324849Y-110978465D01*
X163324845Y-110978464D01*
X163319974Y-110976739D01*
X163314881Y-110975832D01*
X163314878Y-110975831D01*
X163105135Y-110938470D01*
X163105129Y-110938469D01*
X163100046Y-110937564D01*
X163026214Y-110936662D01*
X162881843Y-110934898D01*
X162881841Y-110934898D01*
X162876673Y-110934835D01*
X162655853Y-110968625D01*
X162443518Y-111038027D01*
X162245369Y-111141177D01*
X162241236Y-111144280D01*
X162241233Y-111144282D01*
X162217009Y-111162470D01*
X162066727Y-111275305D01*
X161912391Y-111436808D01*
X161786505Y-111621350D01*
X161692450Y-111823975D01*
X161632751Y-112039240D01*
X161609013Y-112261365D01*
X153332180Y-112261365D01*
X153316614Y-112072031D01*
X153262193Y-111855372D01*
X153173116Y-111650510D01*
X153051776Y-111462947D01*
X152901432Y-111297721D01*
X152897381Y-111294522D01*
X152897377Y-111294518D01*
X152730176Y-111162470D01*
X152730172Y-111162468D01*
X152726121Y-111159268D01*
X152530551Y-111051308D01*
X152525682Y-111049584D01*
X152525678Y-111049582D01*
X152324849Y-110978465D01*
X152324845Y-110978464D01*
X152319974Y-110976739D01*
X152314881Y-110975832D01*
X152314878Y-110975831D01*
X152105135Y-110938470D01*
X152105129Y-110938469D01*
X152100046Y-110937564D01*
X152026214Y-110936662D01*
X151881843Y-110934898D01*
X151881841Y-110934898D01*
X151876673Y-110934835D01*
X151655853Y-110968625D01*
X151443518Y-111038027D01*
X151245369Y-111141177D01*
X151241236Y-111144280D01*
X151241233Y-111144282D01*
X151217009Y-111162470D01*
X151066727Y-111275305D01*
X150912391Y-111436808D01*
X150786505Y-111621350D01*
X150692450Y-111823975D01*
X150632751Y-112039240D01*
X150609013Y-112261365D01*
X150332180Y-112261365D01*
X150316614Y-112072031D01*
X150262193Y-111855372D01*
X150173116Y-111650510D01*
X150051776Y-111462947D01*
X149901432Y-111297721D01*
X149897381Y-111294522D01*
X149897377Y-111294518D01*
X149730176Y-111162470D01*
X149730172Y-111162468D01*
X149726121Y-111159268D01*
X149530551Y-111051308D01*
X149525682Y-111049584D01*
X149525678Y-111049582D01*
X149324849Y-110978465D01*
X149324845Y-110978464D01*
X149319974Y-110976739D01*
X149314881Y-110975832D01*
X149314878Y-110975831D01*
X149105135Y-110938470D01*
X149105129Y-110938469D01*
X149100046Y-110937564D01*
X149026214Y-110936662D01*
X148881843Y-110934898D01*
X148881841Y-110934898D01*
X148876673Y-110934835D01*
X148655853Y-110968625D01*
X148443518Y-111038027D01*
X148245369Y-111141177D01*
X148241236Y-111144280D01*
X148241233Y-111144282D01*
X148217009Y-111162470D01*
X148066727Y-111275305D01*
X147912391Y-111436808D01*
X147786505Y-111621350D01*
X147692450Y-111823975D01*
X147632751Y-112039240D01*
X147609013Y-112261365D01*
X139332180Y-112261365D01*
X139316614Y-112072031D01*
X139262193Y-111855372D01*
X139173116Y-111650510D01*
X139051776Y-111462947D01*
X138901432Y-111297721D01*
X138897381Y-111294522D01*
X138897377Y-111294518D01*
X138730176Y-111162470D01*
X138730172Y-111162468D01*
X138726121Y-111159268D01*
X138530551Y-111051308D01*
X138525682Y-111049584D01*
X138525678Y-111049582D01*
X138324849Y-110978465D01*
X138324845Y-110978464D01*
X138319974Y-110976739D01*
X138314881Y-110975832D01*
X138314878Y-110975831D01*
X138105135Y-110938470D01*
X138105129Y-110938469D01*
X138100046Y-110937564D01*
X138026214Y-110936662D01*
X137881843Y-110934898D01*
X137881841Y-110934898D01*
X137876673Y-110934835D01*
X137655853Y-110968625D01*
X137443518Y-111038027D01*
X137245369Y-111141177D01*
X137241236Y-111144280D01*
X137241233Y-111144282D01*
X137217009Y-111162470D01*
X137066727Y-111275305D01*
X136912391Y-111436808D01*
X136786505Y-111621350D01*
X136692450Y-111823975D01*
X136632751Y-112039240D01*
X136609013Y-112261365D01*
X136332180Y-112261365D01*
X136316614Y-112072031D01*
X136262193Y-111855372D01*
X136173116Y-111650510D01*
X136051776Y-111462947D01*
X135901432Y-111297721D01*
X135897381Y-111294522D01*
X135897377Y-111294518D01*
X135730176Y-111162470D01*
X135730172Y-111162468D01*
X135726121Y-111159268D01*
X135530551Y-111051308D01*
X135525682Y-111049584D01*
X135525678Y-111049582D01*
X135324849Y-110978465D01*
X135324845Y-110978464D01*
X135319974Y-110976739D01*
X135314881Y-110975832D01*
X135314878Y-110975831D01*
X135105135Y-110938470D01*
X135105129Y-110938469D01*
X135100046Y-110937564D01*
X135026214Y-110936662D01*
X134881843Y-110934898D01*
X134881841Y-110934898D01*
X134876673Y-110934835D01*
X134655853Y-110968625D01*
X134443518Y-111038027D01*
X134245369Y-111141177D01*
X134241236Y-111144280D01*
X134241233Y-111144282D01*
X134217009Y-111162470D01*
X134066727Y-111275305D01*
X133912391Y-111436808D01*
X133786505Y-111621350D01*
X133692450Y-111823975D01*
X133632751Y-112039240D01*
X133609013Y-112261365D01*
X128983083Y-112261365D01*
X128988535Y-97595352D01*
X130826903Y-97595352D01*
X130862494Y-97802478D01*
X130935234Y-97999649D01*
X131042688Y-98180262D01*
X131181256Y-98338269D01*
X131346299Y-98468378D01*
X131351415Y-98471069D01*
X131351417Y-98471071D01*
X131527172Y-98563540D01*
X131532289Y-98566232D01*
X131732996Y-98628554D01*
X131738731Y-98629233D01*
X131738732Y-98629233D01*
X131769294Y-98632850D01*
X131903636Y-98648750D01*
X132025078Y-98648750D01*
X132181041Y-98634419D01*
X132186603Y-98632850D01*
X132186605Y-98632850D01*
X132282176Y-98605896D01*
X132383311Y-98577373D01*
X132571799Y-98484421D01*
X132740191Y-98358677D01*
X132882848Y-98204351D01*
X132994993Y-98026612D01*
X133072870Y-97831413D01*
X133073995Y-97825756D01*
X133073997Y-97825750D01*
X133112743Y-97630957D01*
X133112743Y-97630955D01*
X133113870Y-97625290D01*
X133114188Y-97601050D01*
X133114263Y-97595352D01*
X139826903Y-97595352D01*
X139862494Y-97802478D01*
X139935234Y-97999649D01*
X140042688Y-98180262D01*
X140181256Y-98338269D01*
X140346299Y-98468378D01*
X140351415Y-98471069D01*
X140351417Y-98471071D01*
X140527172Y-98563540D01*
X140532289Y-98566232D01*
X140732996Y-98628554D01*
X140738731Y-98629233D01*
X140738732Y-98629233D01*
X140769294Y-98632850D01*
X140903636Y-98648750D01*
X141025078Y-98648750D01*
X141181041Y-98634419D01*
X141186603Y-98632850D01*
X141186605Y-98632850D01*
X141282176Y-98605896D01*
X141383311Y-98577373D01*
X141571799Y-98484421D01*
X141740191Y-98358677D01*
X141882848Y-98204351D01*
X141994993Y-98026612D01*
X142072870Y-97831413D01*
X142073995Y-97825756D01*
X142073997Y-97825750D01*
X142112743Y-97630957D01*
X142112743Y-97630955D01*
X142113870Y-97625290D01*
X142114188Y-97601050D01*
X142114263Y-97595352D01*
X144826903Y-97595352D01*
X144862494Y-97802478D01*
X144935234Y-97999649D01*
X145042688Y-98180262D01*
X145181256Y-98338269D01*
X145346299Y-98468378D01*
X145351415Y-98471069D01*
X145351417Y-98471071D01*
X145527172Y-98563540D01*
X145532289Y-98566232D01*
X145732996Y-98628554D01*
X145738731Y-98629233D01*
X145738732Y-98629233D01*
X145769294Y-98632850D01*
X145903636Y-98648750D01*
X146025078Y-98648750D01*
X146181041Y-98634419D01*
X146186603Y-98632850D01*
X146186605Y-98632850D01*
X146282176Y-98605896D01*
X146383311Y-98577373D01*
X146571799Y-98484421D01*
X146740191Y-98358677D01*
X146882848Y-98204351D01*
X146994993Y-98026612D01*
X147072870Y-97831413D01*
X147073995Y-97825756D01*
X147073997Y-97825750D01*
X147112743Y-97630957D01*
X147112743Y-97630955D01*
X147113870Y-97625290D01*
X147114188Y-97601050D01*
X147114263Y-97595352D01*
X153826903Y-97595352D01*
X153862494Y-97802478D01*
X153935234Y-97999649D01*
X154042688Y-98180262D01*
X154181256Y-98338269D01*
X154346299Y-98468378D01*
X154351415Y-98471069D01*
X154351417Y-98471071D01*
X154527172Y-98563540D01*
X154532289Y-98566232D01*
X154732996Y-98628554D01*
X154738731Y-98629233D01*
X154738732Y-98629233D01*
X154769294Y-98632850D01*
X154903636Y-98648750D01*
X155025078Y-98648750D01*
X155181041Y-98634419D01*
X155186603Y-98632850D01*
X155186605Y-98632850D01*
X155282176Y-98605896D01*
X155383311Y-98577373D01*
X155571799Y-98484421D01*
X155740191Y-98358677D01*
X155882848Y-98204351D01*
X155994993Y-98026612D01*
X156072870Y-97831413D01*
X156073995Y-97825756D01*
X156073997Y-97825750D01*
X156112743Y-97630957D01*
X156112743Y-97630955D01*
X156113870Y-97625290D01*
X156114188Y-97601050D01*
X156114263Y-97595352D01*
X158826903Y-97595352D01*
X158862494Y-97802478D01*
X158935234Y-97999649D01*
X159042688Y-98180262D01*
X159181256Y-98338269D01*
X159346299Y-98468378D01*
X159351415Y-98471069D01*
X159351417Y-98471071D01*
X159527172Y-98563540D01*
X159532289Y-98566232D01*
X159732996Y-98628554D01*
X159738731Y-98629233D01*
X159738732Y-98629233D01*
X159769294Y-98632850D01*
X159903636Y-98648750D01*
X160025078Y-98648750D01*
X160181041Y-98634419D01*
X160186603Y-98632850D01*
X160186605Y-98632850D01*
X160282176Y-98605896D01*
X160383311Y-98577373D01*
X160571799Y-98484421D01*
X160740191Y-98358677D01*
X160882848Y-98204351D01*
X160994993Y-98026612D01*
X161072870Y-97831413D01*
X161073995Y-97825756D01*
X161073997Y-97825750D01*
X161112743Y-97630957D01*
X161112743Y-97630955D01*
X161113870Y-97625290D01*
X161114188Y-97601050D01*
X161114263Y-97595352D01*
X167826903Y-97595352D01*
X167862494Y-97802478D01*
X167935234Y-97999649D01*
X168042688Y-98180262D01*
X168181256Y-98338269D01*
X168346299Y-98468378D01*
X168351415Y-98471069D01*
X168351417Y-98471071D01*
X168527172Y-98563540D01*
X168532289Y-98566232D01*
X168732996Y-98628554D01*
X168738731Y-98629233D01*
X168738732Y-98629233D01*
X168769294Y-98632850D01*
X168903636Y-98648750D01*
X169025078Y-98648750D01*
X169181041Y-98634419D01*
X169186603Y-98632850D01*
X169186605Y-98632850D01*
X169282176Y-98605896D01*
X169383311Y-98577373D01*
X169571799Y-98484421D01*
X169740191Y-98358677D01*
X169882848Y-98204351D01*
X169994993Y-98026612D01*
X170072870Y-97831413D01*
X170073995Y-97825756D01*
X170073997Y-97825750D01*
X170112743Y-97630957D01*
X170112743Y-97630955D01*
X170113870Y-97625290D01*
X170114188Y-97601050D01*
X170114263Y-97595352D01*
X172826903Y-97595352D01*
X172862494Y-97802478D01*
X172935234Y-97999649D01*
X173042688Y-98180262D01*
X173181256Y-98338269D01*
X173346299Y-98468378D01*
X173351415Y-98471069D01*
X173351417Y-98471071D01*
X173527172Y-98563540D01*
X173532289Y-98566232D01*
X173732996Y-98628554D01*
X173738731Y-98629233D01*
X173738732Y-98629233D01*
X173769294Y-98632850D01*
X173903636Y-98648750D01*
X174025078Y-98648750D01*
X174181041Y-98634419D01*
X174186603Y-98632850D01*
X174186605Y-98632850D01*
X174282176Y-98605896D01*
X174383311Y-98577373D01*
X174571799Y-98484421D01*
X174740191Y-98358677D01*
X174882848Y-98204351D01*
X174994993Y-98026612D01*
X175072870Y-97831413D01*
X175073995Y-97825756D01*
X175073997Y-97825750D01*
X175112743Y-97630957D01*
X175112743Y-97630955D01*
X175113870Y-97625290D01*
X175114188Y-97601050D01*
X175114263Y-97595352D01*
X181826903Y-97595352D01*
X181862494Y-97802478D01*
X181935234Y-97999649D01*
X182042688Y-98180262D01*
X182181256Y-98338269D01*
X182346299Y-98468378D01*
X182351415Y-98471069D01*
X182351417Y-98471071D01*
X182527172Y-98563540D01*
X182532289Y-98566232D01*
X182732996Y-98628554D01*
X182738731Y-98629233D01*
X182738732Y-98629233D01*
X182769294Y-98632850D01*
X182903636Y-98648750D01*
X183025078Y-98648750D01*
X183181041Y-98634419D01*
X183186603Y-98632850D01*
X183186605Y-98632850D01*
X183282176Y-98605896D01*
X183383311Y-98577373D01*
X183571799Y-98484421D01*
X183740191Y-98358677D01*
X183882848Y-98204351D01*
X183994993Y-98026612D01*
X184072870Y-97831413D01*
X184073995Y-97825756D01*
X184073997Y-97825750D01*
X184112743Y-97630957D01*
X184112743Y-97630955D01*
X184113870Y-97625290D01*
X184114188Y-97601050D01*
X184116545Y-97420930D01*
X184116621Y-97415148D01*
X184081030Y-97208022D01*
X184008290Y-97010851D01*
X183946116Y-96906347D01*
X183903790Y-96835203D01*
X183903789Y-96835202D01*
X183900836Y-96830238D01*
X183762268Y-96672231D01*
X183597225Y-96542122D01*
X183592109Y-96539431D01*
X183592107Y-96539429D01*
X183416352Y-96446960D01*
X183416350Y-96446959D01*
X183411235Y-96444268D01*
X183210528Y-96381946D01*
X183204793Y-96381267D01*
X183204792Y-96381267D01*
X183156504Y-96375552D01*
X183039888Y-96361750D01*
X182918446Y-96361750D01*
X182762483Y-96376081D01*
X182756921Y-96377650D01*
X182756919Y-96377650D01*
X182661348Y-96404604D01*
X182560213Y-96433127D01*
X182371725Y-96526079D01*
X182367099Y-96529533D01*
X182367098Y-96529534D01*
X182207957Y-96648370D01*
X182203333Y-96651823D01*
X182199419Y-96656057D01*
X182199417Y-96656059D01*
X182089851Y-96774588D01*
X182060676Y-96806149D01*
X181948531Y-96983888D01*
X181870654Y-97179087D01*
X181869529Y-97184744D01*
X181869527Y-97184750D01*
X181863765Y-97213719D01*
X181829654Y-97385210D01*
X181829578Y-97390985D01*
X181829578Y-97390989D01*
X181829262Y-97415148D01*
X181826903Y-97595352D01*
X175114263Y-97595352D01*
X175116545Y-97420930D01*
X175116621Y-97415148D01*
X175081030Y-97208022D01*
X175008290Y-97010851D01*
X174946116Y-96906347D01*
X174903790Y-96835203D01*
X174903789Y-96835202D01*
X174900836Y-96830238D01*
X174762268Y-96672231D01*
X174597225Y-96542122D01*
X174592109Y-96539431D01*
X174592107Y-96539429D01*
X174416352Y-96446960D01*
X174416350Y-96446959D01*
X174411235Y-96444268D01*
X174210528Y-96381946D01*
X174204793Y-96381267D01*
X174204792Y-96381267D01*
X174156504Y-96375552D01*
X174039888Y-96361750D01*
X173918446Y-96361750D01*
X173762483Y-96376081D01*
X173756921Y-96377650D01*
X173756919Y-96377650D01*
X173661348Y-96404604D01*
X173560213Y-96433127D01*
X173371725Y-96526079D01*
X173367099Y-96529533D01*
X173367098Y-96529534D01*
X173207957Y-96648370D01*
X173203333Y-96651823D01*
X173199419Y-96656057D01*
X173199417Y-96656059D01*
X173089851Y-96774588D01*
X173060676Y-96806149D01*
X172948531Y-96983888D01*
X172870654Y-97179087D01*
X172869529Y-97184744D01*
X172869527Y-97184750D01*
X172863765Y-97213719D01*
X172829654Y-97385210D01*
X172829578Y-97390985D01*
X172829578Y-97390989D01*
X172829262Y-97415148D01*
X172826903Y-97595352D01*
X170114263Y-97595352D01*
X170116545Y-97420930D01*
X170116621Y-97415148D01*
X170081030Y-97208022D01*
X170008290Y-97010851D01*
X169946116Y-96906347D01*
X169903790Y-96835203D01*
X169903789Y-96835202D01*
X169900836Y-96830238D01*
X169762268Y-96672231D01*
X169597225Y-96542122D01*
X169592109Y-96539431D01*
X169592107Y-96539429D01*
X169416352Y-96446960D01*
X169416350Y-96446959D01*
X169411235Y-96444268D01*
X169210528Y-96381946D01*
X169204793Y-96381267D01*
X169204792Y-96381267D01*
X169156504Y-96375552D01*
X169039888Y-96361750D01*
X168918446Y-96361750D01*
X168762483Y-96376081D01*
X168756921Y-96377650D01*
X168756919Y-96377650D01*
X168661348Y-96404604D01*
X168560213Y-96433127D01*
X168371725Y-96526079D01*
X168367099Y-96529533D01*
X168367098Y-96529534D01*
X168207957Y-96648370D01*
X168203333Y-96651823D01*
X168199419Y-96656057D01*
X168199417Y-96656059D01*
X168089851Y-96774588D01*
X168060676Y-96806149D01*
X167948531Y-96983888D01*
X167870654Y-97179087D01*
X167869529Y-97184744D01*
X167869527Y-97184750D01*
X167863765Y-97213719D01*
X167829654Y-97385210D01*
X167829578Y-97390985D01*
X167829578Y-97390989D01*
X167829262Y-97415148D01*
X167826903Y-97595352D01*
X161114263Y-97595352D01*
X161116545Y-97420930D01*
X161116621Y-97415148D01*
X161081030Y-97208022D01*
X161008290Y-97010851D01*
X160946116Y-96906347D01*
X160903790Y-96835203D01*
X160903789Y-96835202D01*
X160900836Y-96830238D01*
X160762268Y-96672231D01*
X160597225Y-96542122D01*
X160592109Y-96539431D01*
X160592107Y-96539429D01*
X160416352Y-96446960D01*
X160416350Y-96446959D01*
X160411235Y-96444268D01*
X160210528Y-96381946D01*
X160204793Y-96381267D01*
X160204792Y-96381267D01*
X160156504Y-96375552D01*
X160039888Y-96361750D01*
X159918446Y-96361750D01*
X159762483Y-96376081D01*
X159756921Y-96377650D01*
X159756919Y-96377650D01*
X159661348Y-96404604D01*
X159560213Y-96433127D01*
X159371725Y-96526079D01*
X159367099Y-96529533D01*
X159367098Y-96529534D01*
X159207957Y-96648370D01*
X159203333Y-96651823D01*
X159199419Y-96656057D01*
X159199417Y-96656059D01*
X159089851Y-96774588D01*
X159060676Y-96806149D01*
X158948531Y-96983888D01*
X158870654Y-97179087D01*
X158869529Y-97184744D01*
X158869527Y-97184750D01*
X158863765Y-97213719D01*
X158829654Y-97385210D01*
X158829578Y-97390985D01*
X158829578Y-97390989D01*
X158829262Y-97415148D01*
X158826903Y-97595352D01*
X156114263Y-97595352D01*
X156116545Y-97420930D01*
X156116621Y-97415148D01*
X156081030Y-97208022D01*
X156008290Y-97010851D01*
X155946116Y-96906347D01*
X155903790Y-96835203D01*
X155903789Y-96835202D01*
X155900836Y-96830238D01*
X155762268Y-96672231D01*
X155597225Y-96542122D01*
X155592109Y-96539431D01*
X155592107Y-96539429D01*
X155416352Y-96446960D01*
X155416350Y-96446959D01*
X155411235Y-96444268D01*
X155210528Y-96381946D01*
X155204793Y-96381267D01*
X155204792Y-96381267D01*
X155156504Y-96375552D01*
X155039888Y-96361750D01*
X154918446Y-96361750D01*
X154762483Y-96376081D01*
X154756921Y-96377650D01*
X154756919Y-96377650D01*
X154661348Y-96404604D01*
X154560213Y-96433127D01*
X154371725Y-96526079D01*
X154367099Y-96529533D01*
X154367098Y-96529534D01*
X154207957Y-96648370D01*
X154203333Y-96651823D01*
X154199419Y-96656057D01*
X154199417Y-96656059D01*
X154089851Y-96774588D01*
X154060676Y-96806149D01*
X153948531Y-96983888D01*
X153870654Y-97179087D01*
X153869529Y-97184744D01*
X153869527Y-97184750D01*
X153863765Y-97213719D01*
X153829654Y-97385210D01*
X153829578Y-97390985D01*
X153829578Y-97390989D01*
X153829262Y-97415148D01*
X153826903Y-97595352D01*
X147114263Y-97595352D01*
X147116545Y-97420930D01*
X147116621Y-97415148D01*
X147081030Y-97208022D01*
X147008290Y-97010851D01*
X146946116Y-96906347D01*
X146903790Y-96835203D01*
X146903789Y-96835202D01*
X146900836Y-96830238D01*
X146762268Y-96672231D01*
X146597225Y-96542122D01*
X146592109Y-96539431D01*
X146592107Y-96539429D01*
X146416352Y-96446960D01*
X146416350Y-96446959D01*
X146411235Y-96444268D01*
X146210528Y-96381946D01*
X146204793Y-96381267D01*
X146204792Y-96381267D01*
X146156504Y-96375552D01*
X146039888Y-96361750D01*
X145918446Y-96361750D01*
X145762483Y-96376081D01*
X145756921Y-96377650D01*
X145756919Y-96377650D01*
X145661348Y-96404604D01*
X145560213Y-96433127D01*
X145371725Y-96526079D01*
X145367099Y-96529533D01*
X145367098Y-96529534D01*
X145207957Y-96648370D01*
X145203333Y-96651823D01*
X145199419Y-96656057D01*
X145199417Y-96656059D01*
X145089851Y-96774588D01*
X145060676Y-96806149D01*
X144948531Y-96983888D01*
X144870654Y-97179087D01*
X144869529Y-97184744D01*
X144869527Y-97184750D01*
X144863765Y-97213719D01*
X144829654Y-97385210D01*
X144829578Y-97390985D01*
X144829578Y-97390989D01*
X144829262Y-97415148D01*
X144826903Y-97595352D01*
X142114263Y-97595352D01*
X142116545Y-97420930D01*
X142116621Y-97415148D01*
X142081030Y-97208022D01*
X142008290Y-97010851D01*
X141946116Y-96906347D01*
X141903790Y-96835203D01*
X141903789Y-96835202D01*
X141900836Y-96830238D01*
X141762268Y-96672231D01*
X141597225Y-96542122D01*
X141592109Y-96539431D01*
X141592107Y-96539429D01*
X141416352Y-96446960D01*
X141416350Y-96446959D01*
X141411235Y-96444268D01*
X141210528Y-96381946D01*
X141204793Y-96381267D01*
X141204792Y-96381267D01*
X141156504Y-96375552D01*
X141039888Y-96361750D01*
X140918446Y-96361750D01*
X140762483Y-96376081D01*
X140756921Y-96377650D01*
X140756919Y-96377650D01*
X140661348Y-96404604D01*
X140560213Y-96433127D01*
X140371725Y-96526079D01*
X140367099Y-96529533D01*
X140367098Y-96529534D01*
X140207957Y-96648370D01*
X140203333Y-96651823D01*
X140199419Y-96656057D01*
X140199417Y-96656059D01*
X140089851Y-96774588D01*
X140060676Y-96806149D01*
X139948531Y-96983888D01*
X139870654Y-97179087D01*
X139869529Y-97184744D01*
X139869527Y-97184750D01*
X139863765Y-97213719D01*
X139829654Y-97385210D01*
X139829578Y-97390985D01*
X139829578Y-97390989D01*
X139829262Y-97415148D01*
X139826903Y-97595352D01*
X133114263Y-97595352D01*
X133116545Y-97420930D01*
X133116621Y-97415148D01*
X133081030Y-97208022D01*
X133008290Y-97010851D01*
X132946116Y-96906347D01*
X132903790Y-96835203D01*
X132903789Y-96835202D01*
X132900836Y-96830238D01*
X132762268Y-96672231D01*
X132597225Y-96542122D01*
X132592109Y-96539431D01*
X132592107Y-96539429D01*
X132416352Y-96446960D01*
X132416350Y-96446959D01*
X132411235Y-96444268D01*
X132210528Y-96381946D01*
X132204793Y-96381267D01*
X132204792Y-96381267D01*
X132156504Y-96375552D01*
X132039888Y-96361750D01*
X131918446Y-96361750D01*
X131762483Y-96376081D01*
X131756921Y-96377650D01*
X131756919Y-96377650D01*
X131661348Y-96404604D01*
X131560213Y-96433127D01*
X131371725Y-96526079D01*
X131367099Y-96529533D01*
X131367098Y-96529534D01*
X131207957Y-96648370D01*
X131203333Y-96651823D01*
X131199419Y-96656057D01*
X131199417Y-96656059D01*
X131089851Y-96774588D01*
X131060676Y-96806149D01*
X130948531Y-96983888D01*
X130870654Y-97179087D01*
X130869529Y-97184744D01*
X130869527Y-97184750D01*
X130863765Y-97213719D01*
X130829654Y-97385210D01*
X130829578Y-97390985D01*
X130829578Y-97390989D01*
X130829262Y-97415148D01*
X130826903Y-97595352D01*
X128988535Y-97595352D01*
X128989310Y-95511945D01*
X133609013Y-95511945D01*
X133609310Y-95517098D01*
X133609310Y-95517101D01*
X133614773Y-95611840D01*
X133621872Y-95734965D01*
X133623009Y-95740011D01*
X133623010Y-95740017D01*
X133642881Y-95828189D01*
X133670984Y-95952889D01*
X133755028Y-96159866D01*
X133871749Y-96350338D01*
X134018012Y-96519188D01*
X134189888Y-96661882D01*
X134382762Y-96774588D01*
X134591454Y-96854280D01*
X134596522Y-96855311D01*
X134596525Y-96855312D01*
X134703779Y-96877133D01*
X134810359Y-96898817D01*
X134815534Y-96899007D01*
X134815536Y-96899007D01*
X135028435Y-96906814D01*
X135028439Y-96906814D01*
X135033599Y-96907003D01*
X135038719Y-96906347D01*
X135038721Y-96906347D01*
X135250050Y-96879275D01*
X135250051Y-96879275D01*
X135255178Y-96878618D01*
X135260128Y-96877133D01*
X135464191Y-96815911D01*
X135464196Y-96815909D01*
X135469146Y-96814424D01*
X135669756Y-96716146D01*
X135851622Y-96586423D01*
X136009858Y-96428739D01*
X136047697Y-96376081D01*
X136137197Y-96251527D01*
X136140215Y-96247327D01*
X136239192Y-96047061D01*
X136304132Y-95833319D01*
X136333291Y-95611840D01*
X136334918Y-95545250D01*
X136332180Y-95511945D01*
X136609013Y-95511945D01*
X136609310Y-95517098D01*
X136609310Y-95517101D01*
X136614773Y-95611840D01*
X136621872Y-95734965D01*
X136623009Y-95740011D01*
X136623010Y-95740017D01*
X136642881Y-95828189D01*
X136670984Y-95952889D01*
X136755028Y-96159866D01*
X136871749Y-96350338D01*
X137018012Y-96519188D01*
X137189888Y-96661882D01*
X137382762Y-96774588D01*
X137591454Y-96854280D01*
X137596522Y-96855311D01*
X137596525Y-96855312D01*
X137703779Y-96877133D01*
X137810359Y-96898817D01*
X137815534Y-96899007D01*
X137815536Y-96899007D01*
X138028435Y-96906814D01*
X138028439Y-96906814D01*
X138033599Y-96907003D01*
X138038719Y-96906347D01*
X138038721Y-96906347D01*
X138250050Y-96879275D01*
X138250051Y-96879275D01*
X138255178Y-96878618D01*
X138260128Y-96877133D01*
X138464191Y-96815911D01*
X138464196Y-96815909D01*
X138469146Y-96814424D01*
X138669756Y-96716146D01*
X138851622Y-96586423D01*
X139009858Y-96428739D01*
X139047697Y-96376081D01*
X139137197Y-96251527D01*
X139140215Y-96247327D01*
X139239192Y-96047061D01*
X139304132Y-95833319D01*
X139333291Y-95611840D01*
X139334918Y-95545250D01*
X139332180Y-95511945D01*
X147609013Y-95511945D01*
X147609310Y-95517098D01*
X147609310Y-95517101D01*
X147614773Y-95611840D01*
X147621872Y-95734965D01*
X147623009Y-95740011D01*
X147623010Y-95740017D01*
X147642881Y-95828189D01*
X147670984Y-95952889D01*
X147755028Y-96159866D01*
X147871749Y-96350338D01*
X148018012Y-96519188D01*
X148189888Y-96661882D01*
X148382762Y-96774588D01*
X148591454Y-96854280D01*
X148596522Y-96855311D01*
X148596525Y-96855312D01*
X148703779Y-96877133D01*
X148810359Y-96898817D01*
X148815534Y-96899007D01*
X148815536Y-96899007D01*
X149028435Y-96906814D01*
X149028439Y-96906814D01*
X149033599Y-96907003D01*
X149038719Y-96906347D01*
X149038721Y-96906347D01*
X149250050Y-96879275D01*
X149250051Y-96879275D01*
X149255178Y-96878618D01*
X149260128Y-96877133D01*
X149464191Y-96815911D01*
X149464196Y-96815909D01*
X149469146Y-96814424D01*
X149669756Y-96716146D01*
X149851622Y-96586423D01*
X150009858Y-96428739D01*
X150047697Y-96376081D01*
X150137197Y-96251527D01*
X150140215Y-96247327D01*
X150239192Y-96047061D01*
X150304132Y-95833319D01*
X150333291Y-95611840D01*
X150334918Y-95545250D01*
X150332180Y-95511945D01*
X150609013Y-95511945D01*
X150609310Y-95517098D01*
X150609310Y-95517101D01*
X150614773Y-95611840D01*
X150621872Y-95734965D01*
X150623009Y-95740011D01*
X150623010Y-95740017D01*
X150642881Y-95828189D01*
X150670984Y-95952889D01*
X150755028Y-96159866D01*
X150871749Y-96350338D01*
X151018012Y-96519188D01*
X151189888Y-96661882D01*
X151382762Y-96774588D01*
X151591454Y-96854280D01*
X151596522Y-96855311D01*
X151596525Y-96855312D01*
X151703779Y-96877133D01*
X151810359Y-96898817D01*
X151815534Y-96899007D01*
X151815536Y-96899007D01*
X152028435Y-96906814D01*
X152028439Y-96906814D01*
X152033599Y-96907003D01*
X152038719Y-96906347D01*
X152038721Y-96906347D01*
X152250050Y-96879275D01*
X152250051Y-96879275D01*
X152255178Y-96878618D01*
X152260128Y-96877133D01*
X152464191Y-96815911D01*
X152464196Y-96815909D01*
X152469146Y-96814424D01*
X152669756Y-96716146D01*
X152851622Y-96586423D01*
X153009858Y-96428739D01*
X153047697Y-96376081D01*
X153137197Y-96251527D01*
X153140215Y-96247327D01*
X153239192Y-96047061D01*
X153304132Y-95833319D01*
X153333291Y-95611840D01*
X153334918Y-95545250D01*
X153332180Y-95511945D01*
X161609013Y-95511945D01*
X161609310Y-95517098D01*
X161609310Y-95517101D01*
X161614773Y-95611840D01*
X161621872Y-95734965D01*
X161623009Y-95740011D01*
X161623010Y-95740017D01*
X161642881Y-95828189D01*
X161670984Y-95952889D01*
X161755028Y-96159866D01*
X161871749Y-96350338D01*
X162018012Y-96519188D01*
X162189888Y-96661882D01*
X162382762Y-96774588D01*
X162591454Y-96854280D01*
X162596522Y-96855311D01*
X162596525Y-96855312D01*
X162703779Y-96877133D01*
X162810359Y-96898817D01*
X162815534Y-96899007D01*
X162815536Y-96899007D01*
X163028435Y-96906814D01*
X163028439Y-96906814D01*
X163033599Y-96907003D01*
X163038719Y-96906347D01*
X163038721Y-96906347D01*
X163250050Y-96879275D01*
X163250051Y-96879275D01*
X163255178Y-96878618D01*
X163260128Y-96877133D01*
X163464191Y-96815911D01*
X163464196Y-96815909D01*
X163469146Y-96814424D01*
X163669756Y-96716146D01*
X163851622Y-96586423D01*
X164009858Y-96428739D01*
X164047697Y-96376081D01*
X164137197Y-96251527D01*
X164140215Y-96247327D01*
X164239192Y-96047061D01*
X164304132Y-95833319D01*
X164333291Y-95611840D01*
X164334918Y-95545250D01*
X164332180Y-95511945D01*
X164609013Y-95511945D01*
X164609310Y-95517098D01*
X164609310Y-95517101D01*
X164614773Y-95611840D01*
X164621872Y-95734965D01*
X164623009Y-95740011D01*
X164623010Y-95740017D01*
X164642881Y-95828189D01*
X164670984Y-95952889D01*
X164755028Y-96159866D01*
X164871749Y-96350338D01*
X165018012Y-96519188D01*
X165189888Y-96661882D01*
X165382762Y-96774588D01*
X165591454Y-96854280D01*
X165596522Y-96855311D01*
X165596525Y-96855312D01*
X165703779Y-96877133D01*
X165810359Y-96898817D01*
X165815534Y-96899007D01*
X165815536Y-96899007D01*
X166028435Y-96906814D01*
X166028439Y-96906814D01*
X166033599Y-96907003D01*
X166038719Y-96906347D01*
X166038721Y-96906347D01*
X166250050Y-96879275D01*
X166250051Y-96879275D01*
X166255178Y-96878618D01*
X166260128Y-96877133D01*
X166464191Y-96815911D01*
X166464196Y-96815909D01*
X166469146Y-96814424D01*
X166669756Y-96716146D01*
X166851622Y-96586423D01*
X167009858Y-96428739D01*
X167047697Y-96376081D01*
X167137197Y-96251527D01*
X167140215Y-96247327D01*
X167239192Y-96047061D01*
X167304132Y-95833319D01*
X167333291Y-95611840D01*
X167334918Y-95545250D01*
X167332180Y-95511945D01*
X175609013Y-95511945D01*
X175609310Y-95517098D01*
X175609310Y-95517101D01*
X175614773Y-95611840D01*
X175621872Y-95734965D01*
X175623009Y-95740011D01*
X175623010Y-95740017D01*
X175642881Y-95828189D01*
X175670984Y-95952889D01*
X175755028Y-96159866D01*
X175871749Y-96350338D01*
X176018012Y-96519188D01*
X176189888Y-96661882D01*
X176382762Y-96774588D01*
X176591454Y-96854280D01*
X176596522Y-96855311D01*
X176596525Y-96855312D01*
X176703779Y-96877133D01*
X176810359Y-96898817D01*
X176815534Y-96899007D01*
X176815536Y-96899007D01*
X177028435Y-96906814D01*
X177028439Y-96906814D01*
X177033599Y-96907003D01*
X177038719Y-96906347D01*
X177038721Y-96906347D01*
X177250050Y-96879275D01*
X177250051Y-96879275D01*
X177255178Y-96878618D01*
X177260128Y-96877133D01*
X177464191Y-96815911D01*
X177464196Y-96815909D01*
X177469146Y-96814424D01*
X177669756Y-96716146D01*
X177851622Y-96586423D01*
X178009858Y-96428739D01*
X178047697Y-96376081D01*
X178137197Y-96251527D01*
X178140215Y-96247327D01*
X178239192Y-96047061D01*
X178304132Y-95833319D01*
X178333291Y-95611840D01*
X178334918Y-95545250D01*
X178332180Y-95511945D01*
X178609013Y-95511945D01*
X178609310Y-95517098D01*
X178609310Y-95517101D01*
X178614773Y-95611840D01*
X178621872Y-95734965D01*
X178623009Y-95740011D01*
X178623010Y-95740017D01*
X178642881Y-95828189D01*
X178670984Y-95952889D01*
X178755028Y-96159866D01*
X178871749Y-96350338D01*
X179018012Y-96519188D01*
X179189888Y-96661882D01*
X179382762Y-96774588D01*
X179591454Y-96854280D01*
X179596522Y-96855311D01*
X179596525Y-96855312D01*
X179703779Y-96877133D01*
X179810359Y-96898817D01*
X179815534Y-96899007D01*
X179815536Y-96899007D01*
X180028435Y-96906814D01*
X180028439Y-96906814D01*
X180033599Y-96907003D01*
X180038719Y-96906347D01*
X180038721Y-96906347D01*
X180250050Y-96879275D01*
X180250051Y-96879275D01*
X180255178Y-96878618D01*
X180260128Y-96877133D01*
X180464191Y-96815911D01*
X180464196Y-96815909D01*
X180469146Y-96814424D01*
X180669756Y-96716146D01*
X180851622Y-96586423D01*
X181009858Y-96428739D01*
X181047697Y-96376081D01*
X181137197Y-96251527D01*
X181140215Y-96247327D01*
X181239192Y-96047061D01*
X181304132Y-95833319D01*
X181333291Y-95611840D01*
X181334918Y-95545250D01*
X181316614Y-95322611D01*
X181262193Y-95105952D01*
X181173116Y-94901090D01*
X181051776Y-94713527D01*
X180901432Y-94548301D01*
X180897381Y-94545102D01*
X180897377Y-94545098D01*
X180730176Y-94413050D01*
X180730172Y-94413048D01*
X180726121Y-94409848D01*
X180530551Y-94301888D01*
X180525682Y-94300164D01*
X180525678Y-94300162D01*
X180324849Y-94229045D01*
X180324845Y-94229044D01*
X180319974Y-94227319D01*
X180314881Y-94226412D01*
X180314878Y-94226411D01*
X180105135Y-94189050D01*
X180105129Y-94189049D01*
X180100046Y-94188144D01*
X180026214Y-94187242D01*
X179881843Y-94185478D01*
X179881841Y-94185478D01*
X179876673Y-94185415D01*
X179655853Y-94219205D01*
X179443518Y-94288607D01*
X179245369Y-94391757D01*
X179241236Y-94394860D01*
X179241233Y-94394862D01*
X179217009Y-94413050D01*
X179066727Y-94525885D01*
X178912391Y-94687388D01*
X178786505Y-94871930D01*
X178692450Y-95074555D01*
X178632751Y-95289820D01*
X178609013Y-95511945D01*
X178332180Y-95511945D01*
X178316614Y-95322611D01*
X178262193Y-95105952D01*
X178173116Y-94901090D01*
X178051776Y-94713527D01*
X177901432Y-94548301D01*
X177897381Y-94545102D01*
X177897377Y-94545098D01*
X177730176Y-94413050D01*
X177730172Y-94413048D01*
X177726121Y-94409848D01*
X177530551Y-94301888D01*
X177525682Y-94300164D01*
X177525678Y-94300162D01*
X177324849Y-94229045D01*
X177324845Y-94229044D01*
X177319974Y-94227319D01*
X177314881Y-94226412D01*
X177314878Y-94226411D01*
X177105135Y-94189050D01*
X177105129Y-94189049D01*
X177100046Y-94188144D01*
X177026214Y-94187242D01*
X176881843Y-94185478D01*
X176881841Y-94185478D01*
X176876673Y-94185415D01*
X176655853Y-94219205D01*
X176443518Y-94288607D01*
X176245369Y-94391757D01*
X176241236Y-94394860D01*
X176241233Y-94394862D01*
X176217009Y-94413050D01*
X176066727Y-94525885D01*
X175912391Y-94687388D01*
X175786505Y-94871930D01*
X175692450Y-95074555D01*
X175632751Y-95289820D01*
X175609013Y-95511945D01*
X167332180Y-95511945D01*
X167316614Y-95322611D01*
X167262193Y-95105952D01*
X167173116Y-94901090D01*
X167051776Y-94713527D01*
X166901432Y-94548301D01*
X166897381Y-94545102D01*
X166897377Y-94545098D01*
X166730176Y-94413050D01*
X166730172Y-94413048D01*
X166726121Y-94409848D01*
X166530551Y-94301888D01*
X166525682Y-94300164D01*
X166525678Y-94300162D01*
X166324849Y-94229045D01*
X166324845Y-94229044D01*
X166319974Y-94227319D01*
X166314881Y-94226412D01*
X166314878Y-94226411D01*
X166105135Y-94189050D01*
X166105129Y-94189049D01*
X166100046Y-94188144D01*
X166026214Y-94187242D01*
X165881843Y-94185478D01*
X165881841Y-94185478D01*
X165876673Y-94185415D01*
X165655853Y-94219205D01*
X165443518Y-94288607D01*
X165245369Y-94391757D01*
X165241236Y-94394860D01*
X165241233Y-94394862D01*
X165217009Y-94413050D01*
X165066727Y-94525885D01*
X164912391Y-94687388D01*
X164786505Y-94871930D01*
X164692450Y-95074555D01*
X164632751Y-95289820D01*
X164609013Y-95511945D01*
X164332180Y-95511945D01*
X164316614Y-95322611D01*
X164262193Y-95105952D01*
X164173116Y-94901090D01*
X164051776Y-94713527D01*
X163901432Y-94548301D01*
X163897381Y-94545102D01*
X163897377Y-94545098D01*
X163730176Y-94413050D01*
X163730172Y-94413048D01*
X163726121Y-94409848D01*
X163530551Y-94301888D01*
X163525682Y-94300164D01*
X163525678Y-94300162D01*
X163324849Y-94229045D01*
X163324845Y-94229044D01*
X163319974Y-94227319D01*
X163314881Y-94226412D01*
X163314878Y-94226411D01*
X163105135Y-94189050D01*
X163105129Y-94189049D01*
X163100046Y-94188144D01*
X163026214Y-94187242D01*
X162881843Y-94185478D01*
X162881841Y-94185478D01*
X162876673Y-94185415D01*
X162655853Y-94219205D01*
X162443518Y-94288607D01*
X162245369Y-94391757D01*
X162241236Y-94394860D01*
X162241233Y-94394862D01*
X162217009Y-94413050D01*
X162066727Y-94525885D01*
X161912391Y-94687388D01*
X161786505Y-94871930D01*
X161692450Y-95074555D01*
X161632751Y-95289820D01*
X161609013Y-95511945D01*
X153332180Y-95511945D01*
X153316614Y-95322611D01*
X153262193Y-95105952D01*
X153173116Y-94901090D01*
X153051776Y-94713527D01*
X152901432Y-94548301D01*
X152897381Y-94545102D01*
X152897377Y-94545098D01*
X152730176Y-94413050D01*
X152730172Y-94413048D01*
X152726121Y-94409848D01*
X152530551Y-94301888D01*
X152525682Y-94300164D01*
X152525678Y-94300162D01*
X152324849Y-94229045D01*
X152324845Y-94229044D01*
X152319974Y-94227319D01*
X152314881Y-94226412D01*
X152314878Y-94226411D01*
X152105135Y-94189050D01*
X152105129Y-94189049D01*
X152100046Y-94188144D01*
X152026214Y-94187242D01*
X151881843Y-94185478D01*
X151881841Y-94185478D01*
X151876673Y-94185415D01*
X151655853Y-94219205D01*
X151443518Y-94288607D01*
X151245369Y-94391757D01*
X151241236Y-94394860D01*
X151241233Y-94394862D01*
X151217009Y-94413050D01*
X151066727Y-94525885D01*
X150912391Y-94687388D01*
X150786505Y-94871930D01*
X150692450Y-95074555D01*
X150632751Y-95289820D01*
X150609013Y-95511945D01*
X150332180Y-95511945D01*
X150316614Y-95322611D01*
X150262193Y-95105952D01*
X150173116Y-94901090D01*
X150051776Y-94713527D01*
X149901432Y-94548301D01*
X149897381Y-94545102D01*
X149897377Y-94545098D01*
X149730176Y-94413050D01*
X149730172Y-94413048D01*
X149726121Y-94409848D01*
X149530551Y-94301888D01*
X149525682Y-94300164D01*
X149525678Y-94300162D01*
X149324849Y-94229045D01*
X149324845Y-94229044D01*
X149319974Y-94227319D01*
X149314881Y-94226412D01*
X149314878Y-94226411D01*
X149105135Y-94189050D01*
X149105129Y-94189049D01*
X149100046Y-94188144D01*
X149026214Y-94187242D01*
X148881843Y-94185478D01*
X148881841Y-94185478D01*
X148876673Y-94185415D01*
X148655853Y-94219205D01*
X148443518Y-94288607D01*
X148245369Y-94391757D01*
X148241236Y-94394860D01*
X148241233Y-94394862D01*
X148217009Y-94413050D01*
X148066727Y-94525885D01*
X147912391Y-94687388D01*
X147786505Y-94871930D01*
X147692450Y-95074555D01*
X147632751Y-95289820D01*
X147609013Y-95511945D01*
X139332180Y-95511945D01*
X139316614Y-95322611D01*
X139262193Y-95105952D01*
X139173116Y-94901090D01*
X139051776Y-94713527D01*
X138901432Y-94548301D01*
X138897381Y-94545102D01*
X138897377Y-94545098D01*
X138730176Y-94413050D01*
X138730172Y-94413048D01*
X138726121Y-94409848D01*
X138530551Y-94301888D01*
X138525682Y-94300164D01*
X138525678Y-94300162D01*
X138324849Y-94229045D01*
X138324845Y-94229044D01*
X138319974Y-94227319D01*
X138314881Y-94226412D01*
X138314878Y-94226411D01*
X138105135Y-94189050D01*
X138105129Y-94189049D01*
X138100046Y-94188144D01*
X138026214Y-94187242D01*
X137881843Y-94185478D01*
X137881841Y-94185478D01*
X137876673Y-94185415D01*
X137655853Y-94219205D01*
X137443518Y-94288607D01*
X137245369Y-94391757D01*
X137241236Y-94394860D01*
X137241233Y-94394862D01*
X137217009Y-94413050D01*
X137066727Y-94525885D01*
X136912391Y-94687388D01*
X136786505Y-94871930D01*
X136692450Y-95074555D01*
X136632751Y-95289820D01*
X136609013Y-95511945D01*
X136332180Y-95511945D01*
X136316614Y-95322611D01*
X136262193Y-95105952D01*
X136173116Y-94901090D01*
X136051776Y-94713527D01*
X135901432Y-94548301D01*
X135897381Y-94545102D01*
X135897377Y-94545098D01*
X135730176Y-94413050D01*
X135730172Y-94413048D01*
X135726121Y-94409848D01*
X135530551Y-94301888D01*
X135525682Y-94300164D01*
X135525678Y-94300162D01*
X135324849Y-94229045D01*
X135324845Y-94229044D01*
X135319974Y-94227319D01*
X135314881Y-94226412D01*
X135314878Y-94226411D01*
X135105135Y-94189050D01*
X135105129Y-94189049D01*
X135100046Y-94188144D01*
X135026214Y-94187242D01*
X134881843Y-94185478D01*
X134881841Y-94185478D01*
X134876673Y-94185415D01*
X134655853Y-94219205D01*
X134443518Y-94288607D01*
X134245369Y-94391757D01*
X134241236Y-94394860D01*
X134241233Y-94394862D01*
X134217009Y-94413050D01*
X134066727Y-94525885D01*
X133912391Y-94687388D01*
X133786505Y-94871930D01*
X133692450Y-95074555D01*
X133632751Y-95289820D01*
X133609013Y-95511945D01*
X128989310Y-95511945D01*
X128994369Y-81903844D01*
X128994761Y-80850712D01*
X130855141Y-80850712D01*
X130890732Y-81057838D01*
X130963472Y-81255009D01*
X131070926Y-81435622D01*
X131209494Y-81593629D01*
X131374537Y-81723738D01*
X131379653Y-81726429D01*
X131379655Y-81726431D01*
X131555410Y-81818900D01*
X131560527Y-81821592D01*
X131761234Y-81883914D01*
X131766969Y-81884593D01*
X131766970Y-81884593D01*
X131797532Y-81888210D01*
X131931874Y-81904110D01*
X132053316Y-81904110D01*
X132209279Y-81889779D01*
X132214841Y-81888210D01*
X132214843Y-81888210D01*
X132310414Y-81861256D01*
X132411549Y-81832733D01*
X132600037Y-81739781D01*
X132768429Y-81614037D01*
X132911086Y-81459711D01*
X133023231Y-81281972D01*
X133101108Y-81086773D01*
X133102233Y-81081116D01*
X133102235Y-81081110D01*
X133140981Y-80886317D01*
X133140981Y-80886315D01*
X133142108Y-80880650D01*
X133142426Y-80856410D01*
X133142501Y-80850712D01*
X139855141Y-80850712D01*
X139890732Y-81057838D01*
X139963472Y-81255009D01*
X140070926Y-81435622D01*
X140209494Y-81593629D01*
X140374537Y-81723738D01*
X140379653Y-81726429D01*
X140379655Y-81726431D01*
X140555410Y-81818900D01*
X140560527Y-81821592D01*
X140761234Y-81883914D01*
X140766969Y-81884593D01*
X140766970Y-81884593D01*
X140797532Y-81888210D01*
X140931874Y-81904110D01*
X141053316Y-81904110D01*
X141209279Y-81889779D01*
X141214841Y-81888210D01*
X141214843Y-81888210D01*
X141310414Y-81861256D01*
X141411549Y-81832733D01*
X141600037Y-81739781D01*
X141768429Y-81614037D01*
X141911086Y-81459711D01*
X142023231Y-81281972D01*
X142101108Y-81086773D01*
X142102233Y-81081116D01*
X142102235Y-81081110D01*
X142140981Y-80886317D01*
X142140981Y-80886315D01*
X142142108Y-80880650D01*
X142142426Y-80856410D01*
X142142501Y-80850712D01*
X144855141Y-80850712D01*
X144890732Y-81057838D01*
X144963472Y-81255009D01*
X145070926Y-81435622D01*
X145209494Y-81593629D01*
X145374537Y-81723738D01*
X145379653Y-81726429D01*
X145379655Y-81726431D01*
X145555410Y-81818900D01*
X145560527Y-81821592D01*
X145761234Y-81883914D01*
X145766969Y-81884593D01*
X145766970Y-81884593D01*
X145797532Y-81888210D01*
X145931874Y-81904110D01*
X146053316Y-81904110D01*
X146209279Y-81889779D01*
X146214841Y-81888210D01*
X146214843Y-81888210D01*
X146310414Y-81861256D01*
X146411549Y-81832733D01*
X146600037Y-81739781D01*
X146768429Y-81614037D01*
X146911086Y-81459711D01*
X147023231Y-81281972D01*
X147101108Y-81086773D01*
X147102233Y-81081116D01*
X147102235Y-81081110D01*
X147140981Y-80886317D01*
X147140981Y-80886315D01*
X147142108Y-80880650D01*
X147142426Y-80856410D01*
X147142501Y-80850712D01*
X153855141Y-80850712D01*
X153890732Y-81057838D01*
X153963472Y-81255009D01*
X154070926Y-81435622D01*
X154209494Y-81593629D01*
X154374537Y-81723738D01*
X154379653Y-81726429D01*
X154379655Y-81726431D01*
X154555410Y-81818900D01*
X154560527Y-81821592D01*
X154761234Y-81883914D01*
X154766969Y-81884593D01*
X154766970Y-81884593D01*
X154797532Y-81888210D01*
X154931874Y-81904110D01*
X155053316Y-81904110D01*
X155209279Y-81889779D01*
X155214841Y-81888210D01*
X155214843Y-81888210D01*
X155310414Y-81861256D01*
X155411549Y-81832733D01*
X155600037Y-81739781D01*
X155768429Y-81614037D01*
X155911086Y-81459711D01*
X156023231Y-81281972D01*
X156101108Y-81086773D01*
X156102233Y-81081116D01*
X156102235Y-81081110D01*
X156140981Y-80886317D01*
X156140981Y-80886315D01*
X156142108Y-80880650D01*
X156142426Y-80856410D01*
X156142501Y-80850712D01*
X158855141Y-80850712D01*
X158890732Y-81057838D01*
X158963472Y-81255009D01*
X159070926Y-81435622D01*
X159209494Y-81593629D01*
X159374537Y-81723738D01*
X159379653Y-81726429D01*
X159379655Y-81726431D01*
X159555410Y-81818900D01*
X159560527Y-81821592D01*
X159761234Y-81883914D01*
X159766969Y-81884593D01*
X159766970Y-81884593D01*
X159797532Y-81888210D01*
X159931874Y-81904110D01*
X160053316Y-81904110D01*
X160209279Y-81889779D01*
X160214841Y-81888210D01*
X160214843Y-81888210D01*
X160310414Y-81861256D01*
X160411549Y-81832733D01*
X160600037Y-81739781D01*
X160768429Y-81614037D01*
X160911086Y-81459711D01*
X161023231Y-81281972D01*
X161101108Y-81086773D01*
X161102233Y-81081116D01*
X161102235Y-81081110D01*
X161140981Y-80886317D01*
X161140981Y-80886315D01*
X161142108Y-80880650D01*
X161142426Y-80856410D01*
X161142501Y-80850712D01*
X167855141Y-80850712D01*
X167890732Y-81057838D01*
X167963472Y-81255009D01*
X168070926Y-81435622D01*
X168209494Y-81593629D01*
X168374537Y-81723738D01*
X168379653Y-81726429D01*
X168379655Y-81726431D01*
X168555410Y-81818900D01*
X168560527Y-81821592D01*
X168761234Y-81883914D01*
X168766969Y-81884593D01*
X168766970Y-81884593D01*
X168797532Y-81888210D01*
X168931874Y-81904110D01*
X169053316Y-81904110D01*
X169209279Y-81889779D01*
X169214841Y-81888210D01*
X169214843Y-81888210D01*
X169310414Y-81861256D01*
X169411549Y-81832733D01*
X169600037Y-81739781D01*
X169768429Y-81614037D01*
X169911086Y-81459711D01*
X170023231Y-81281972D01*
X170101108Y-81086773D01*
X170102233Y-81081116D01*
X170102235Y-81081110D01*
X170140981Y-80886317D01*
X170140981Y-80886315D01*
X170142108Y-80880650D01*
X170142426Y-80856410D01*
X170142501Y-80850712D01*
X172855141Y-80850712D01*
X172890732Y-81057838D01*
X172963472Y-81255009D01*
X173070926Y-81435622D01*
X173209494Y-81593629D01*
X173374537Y-81723738D01*
X173379653Y-81726429D01*
X173379655Y-81726431D01*
X173555410Y-81818900D01*
X173560527Y-81821592D01*
X173761234Y-81883914D01*
X173766969Y-81884593D01*
X173766970Y-81884593D01*
X173797532Y-81888210D01*
X173931874Y-81904110D01*
X174053316Y-81904110D01*
X174209279Y-81889779D01*
X174214841Y-81888210D01*
X174214843Y-81888210D01*
X174310414Y-81861256D01*
X174411549Y-81832733D01*
X174600037Y-81739781D01*
X174768429Y-81614037D01*
X174911086Y-81459711D01*
X175023231Y-81281972D01*
X175101108Y-81086773D01*
X175102233Y-81081116D01*
X175102235Y-81081110D01*
X175140981Y-80886317D01*
X175140981Y-80886315D01*
X175142108Y-80880650D01*
X175142426Y-80856410D01*
X175142501Y-80850712D01*
X181855141Y-80850712D01*
X181890732Y-81057838D01*
X181963472Y-81255009D01*
X182070926Y-81435622D01*
X182209494Y-81593629D01*
X182374537Y-81723738D01*
X182379653Y-81726429D01*
X182379655Y-81726431D01*
X182555410Y-81818900D01*
X182560527Y-81821592D01*
X182761234Y-81883914D01*
X182766969Y-81884593D01*
X182766970Y-81884593D01*
X182797532Y-81888210D01*
X182931874Y-81904110D01*
X183053316Y-81904110D01*
X183209279Y-81889779D01*
X183214841Y-81888210D01*
X183214843Y-81888210D01*
X183310414Y-81861256D01*
X183411549Y-81832733D01*
X183600037Y-81739781D01*
X183768429Y-81614037D01*
X183911086Y-81459711D01*
X184023231Y-81281972D01*
X184101108Y-81086773D01*
X184102233Y-81081116D01*
X184102235Y-81081110D01*
X184140981Y-80886317D01*
X184140981Y-80886315D01*
X184142108Y-80880650D01*
X184142426Y-80856410D01*
X184144783Y-80676290D01*
X184144859Y-80670508D01*
X184109268Y-80463382D01*
X184036528Y-80266211D01*
X183974354Y-80161707D01*
X183932028Y-80090563D01*
X183932027Y-80090562D01*
X183929074Y-80085598D01*
X183790506Y-79927591D01*
X183625463Y-79797482D01*
X183620347Y-79794791D01*
X183620345Y-79794789D01*
X183444590Y-79702320D01*
X183444588Y-79702319D01*
X183439473Y-79699628D01*
X183238766Y-79637306D01*
X183233031Y-79636627D01*
X183233030Y-79636627D01*
X183184742Y-79630912D01*
X183068126Y-79617110D01*
X182946684Y-79617110D01*
X182790721Y-79631441D01*
X182785159Y-79633010D01*
X182785157Y-79633010D01*
X182689586Y-79659964D01*
X182588451Y-79688487D01*
X182399963Y-79781439D01*
X182395337Y-79784893D01*
X182395336Y-79784894D01*
X182236195Y-79903730D01*
X182231571Y-79907183D01*
X182227657Y-79911417D01*
X182227655Y-79911419D01*
X182118089Y-80029948D01*
X182088914Y-80061509D01*
X181976769Y-80239248D01*
X181898892Y-80434447D01*
X181897767Y-80440104D01*
X181897765Y-80440110D01*
X181892003Y-80469079D01*
X181857892Y-80640570D01*
X181857816Y-80646345D01*
X181857816Y-80646349D01*
X181857500Y-80670508D01*
X181855141Y-80850712D01*
X175142501Y-80850712D01*
X175144783Y-80676290D01*
X175144859Y-80670508D01*
X175109268Y-80463382D01*
X175036528Y-80266211D01*
X174974354Y-80161707D01*
X174932028Y-80090563D01*
X174932027Y-80090562D01*
X174929074Y-80085598D01*
X174790506Y-79927591D01*
X174625463Y-79797482D01*
X174620347Y-79794791D01*
X174620345Y-79794789D01*
X174444590Y-79702320D01*
X174444588Y-79702319D01*
X174439473Y-79699628D01*
X174238766Y-79637306D01*
X174233031Y-79636627D01*
X174233030Y-79636627D01*
X174184742Y-79630912D01*
X174068126Y-79617110D01*
X173946684Y-79617110D01*
X173790721Y-79631441D01*
X173785159Y-79633010D01*
X173785157Y-79633010D01*
X173689586Y-79659964D01*
X173588451Y-79688487D01*
X173399963Y-79781439D01*
X173395337Y-79784893D01*
X173395336Y-79784894D01*
X173236195Y-79903730D01*
X173231571Y-79907183D01*
X173227657Y-79911417D01*
X173227655Y-79911419D01*
X173118089Y-80029948D01*
X173088914Y-80061509D01*
X172976769Y-80239248D01*
X172898892Y-80434447D01*
X172897767Y-80440104D01*
X172897765Y-80440110D01*
X172892003Y-80469079D01*
X172857892Y-80640570D01*
X172857816Y-80646345D01*
X172857816Y-80646349D01*
X172857500Y-80670508D01*
X172855141Y-80850712D01*
X170142501Y-80850712D01*
X170144783Y-80676290D01*
X170144859Y-80670508D01*
X170109268Y-80463382D01*
X170036528Y-80266211D01*
X169974354Y-80161707D01*
X169932028Y-80090563D01*
X169932027Y-80090562D01*
X169929074Y-80085598D01*
X169790506Y-79927591D01*
X169625463Y-79797482D01*
X169620347Y-79794791D01*
X169620345Y-79794789D01*
X169444590Y-79702320D01*
X169444588Y-79702319D01*
X169439473Y-79699628D01*
X169238766Y-79637306D01*
X169233031Y-79636627D01*
X169233030Y-79636627D01*
X169184742Y-79630912D01*
X169068126Y-79617110D01*
X168946684Y-79617110D01*
X168790721Y-79631441D01*
X168785159Y-79633010D01*
X168785157Y-79633010D01*
X168689586Y-79659964D01*
X168588451Y-79688487D01*
X168399963Y-79781439D01*
X168395337Y-79784893D01*
X168395336Y-79784894D01*
X168236195Y-79903730D01*
X168231571Y-79907183D01*
X168227657Y-79911417D01*
X168227655Y-79911419D01*
X168118089Y-80029948D01*
X168088914Y-80061509D01*
X167976769Y-80239248D01*
X167898892Y-80434447D01*
X167897767Y-80440104D01*
X167897765Y-80440110D01*
X167892003Y-80469079D01*
X167857892Y-80640570D01*
X167857816Y-80646345D01*
X167857816Y-80646349D01*
X167857500Y-80670508D01*
X167855141Y-80850712D01*
X161142501Y-80850712D01*
X161144783Y-80676290D01*
X161144859Y-80670508D01*
X161109268Y-80463382D01*
X161036528Y-80266211D01*
X160974354Y-80161707D01*
X160932028Y-80090563D01*
X160932027Y-80090562D01*
X160929074Y-80085598D01*
X160790506Y-79927591D01*
X160625463Y-79797482D01*
X160620347Y-79794791D01*
X160620345Y-79794789D01*
X160444590Y-79702320D01*
X160444588Y-79702319D01*
X160439473Y-79699628D01*
X160238766Y-79637306D01*
X160233031Y-79636627D01*
X160233030Y-79636627D01*
X160184742Y-79630912D01*
X160068126Y-79617110D01*
X159946684Y-79617110D01*
X159790721Y-79631441D01*
X159785159Y-79633010D01*
X159785157Y-79633010D01*
X159689586Y-79659964D01*
X159588451Y-79688487D01*
X159399963Y-79781439D01*
X159395337Y-79784893D01*
X159395336Y-79784894D01*
X159236195Y-79903730D01*
X159231571Y-79907183D01*
X159227657Y-79911417D01*
X159227655Y-79911419D01*
X159118089Y-80029948D01*
X159088914Y-80061509D01*
X158976769Y-80239248D01*
X158898892Y-80434447D01*
X158897767Y-80440104D01*
X158897765Y-80440110D01*
X158892003Y-80469079D01*
X158857892Y-80640570D01*
X158857816Y-80646345D01*
X158857816Y-80646349D01*
X158857500Y-80670508D01*
X158855141Y-80850712D01*
X156142501Y-80850712D01*
X156144783Y-80676290D01*
X156144859Y-80670508D01*
X156109268Y-80463382D01*
X156036528Y-80266211D01*
X155974354Y-80161707D01*
X155932028Y-80090563D01*
X155932027Y-80090562D01*
X155929074Y-80085598D01*
X155790506Y-79927591D01*
X155625463Y-79797482D01*
X155620347Y-79794791D01*
X155620345Y-79794789D01*
X155444590Y-79702320D01*
X155444588Y-79702319D01*
X155439473Y-79699628D01*
X155238766Y-79637306D01*
X155233031Y-79636627D01*
X155233030Y-79636627D01*
X155184742Y-79630912D01*
X155068126Y-79617110D01*
X154946684Y-79617110D01*
X154790721Y-79631441D01*
X154785159Y-79633010D01*
X154785157Y-79633010D01*
X154689586Y-79659964D01*
X154588451Y-79688487D01*
X154399963Y-79781439D01*
X154395337Y-79784893D01*
X154395336Y-79784894D01*
X154236195Y-79903730D01*
X154231571Y-79907183D01*
X154227657Y-79911417D01*
X154227655Y-79911419D01*
X154118089Y-80029948D01*
X154088914Y-80061509D01*
X153976769Y-80239248D01*
X153898892Y-80434447D01*
X153897767Y-80440104D01*
X153897765Y-80440110D01*
X153892003Y-80469079D01*
X153857892Y-80640570D01*
X153857816Y-80646345D01*
X153857816Y-80646349D01*
X153857500Y-80670508D01*
X153855141Y-80850712D01*
X147142501Y-80850712D01*
X147144783Y-80676290D01*
X147144859Y-80670508D01*
X147109268Y-80463382D01*
X147036528Y-80266211D01*
X146974354Y-80161707D01*
X146932028Y-80090563D01*
X146932027Y-80090562D01*
X146929074Y-80085598D01*
X146790506Y-79927591D01*
X146625463Y-79797482D01*
X146620347Y-79794791D01*
X146620345Y-79794789D01*
X146444590Y-79702320D01*
X146444588Y-79702319D01*
X146439473Y-79699628D01*
X146238766Y-79637306D01*
X146233031Y-79636627D01*
X146233030Y-79636627D01*
X146184742Y-79630912D01*
X146068126Y-79617110D01*
X145946684Y-79617110D01*
X145790721Y-79631441D01*
X145785159Y-79633010D01*
X145785157Y-79633010D01*
X145689586Y-79659964D01*
X145588451Y-79688487D01*
X145399963Y-79781439D01*
X145395337Y-79784893D01*
X145395336Y-79784894D01*
X145236195Y-79903730D01*
X145231571Y-79907183D01*
X145227657Y-79911417D01*
X145227655Y-79911419D01*
X145118089Y-80029948D01*
X145088914Y-80061509D01*
X144976769Y-80239248D01*
X144898892Y-80434447D01*
X144897767Y-80440104D01*
X144897765Y-80440110D01*
X144892003Y-80469079D01*
X144857892Y-80640570D01*
X144857816Y-80646345D01*
X144857816Y-80646349D01*
X144857500Y-80670508D01*
X144855141Y-80850712D01*
X142142501Y-80850712D01*
X142144783Y-80676290D01*
X142144859Y-80670508D01*
X142109268Y-80463382D01*
X142036528Y-80266211D01*
X141974354Y-80161707D01*
X141932028Y-80090563D01*
X141932027Y-80090562D01*
X141929074Y-80085598D01*
X141790506Y-79927591D01*
X141625463Y-79797482D01*
X141620347Y-79794791D01*
X141620345Y-79794789D01*
X141444590Y-79702320D01*
X141444588Y-79702319D01*
X141439473Y-79699628D01*
X141238766Y-79637306D01*
X141233031Y-79636627D01*
X141233030Y-79636627D01*
X141184742Y-79630912D01*
X141068126Y-79617110D01*
X140946684Y-79617110D01*
X140790721Y-79631441D01*
X140785159Y-79633010D01*
X140785157Y-79633010D01*
X140689586Y-79659964D01*
X140588451Y-79688487D01*
X140399963Y-79781439D01*
X140395337Y-79784893D01*
X140395336Y-79784894D01*
X140236195Y-79903730D01*
X140231571Y-79907183D01*
X140227657Y-79911417D01*
X140227655Y-79911419D01*
X140118089Y-80029948D01*
X140088914Y-80061509D01*
X139976769Y-80239248D01*
X139898892Y-80434447D01*
X139897767Y-80440104D01*
X139897765Y-80440110D01*
X139892003Y-80469079D01*
X139857892Y-80640570D01*
X139857816Y-80646345D01*
X139857816Y-80646349D01*
X139857500Y-80670508D01*
X139855141Y-80850712D01*
X133142501Y-80850712D01*
X133144783Y-80676290D01*
X133144859Y-80670508D01*
X133109268Y-80463382D01*
X133036528Y-80266211D01*
X132974354Y-80161707D01*
X132932028Y-80090563D01*
X132932027Y-80090562D01*
X132929074Y-80085598D01*
X132790506Y-79927591D01*
X132625463Y-79797482D01*
X132620347Y-79794791D01*
X132620345Y-79794789D01*
X132444590Y-79702320D01*
X132444588Y-79702319D01*
X132439473Y-79699628D01*
X132238766Y-79637306D01*
X132233031Y-79636627D01*
X132233030Y-79636627D01*
X132184742Y-79630912D01*
X132068126Y-79617110D01*
X131946684Y-79617110D01*
X131790721Y-79631441D01*
X131785159Y-79633010D01*
X131785157Y-79633010D01*
X131689586Y-79659964D01*
X131588451Y-79688487D01*
X131399963Y-79781439D01*
X131395337Y-79784893D01*
X131395336Y-79784894D01*
X131236195Y-79903730D01*
X131231571Y-79907183D01*
X131227657Y-79911417D01*
X131227655Y-79911419D01*
X131118089Y-80029948D01*
X131088914Y-80061509D01*
X130976769Y-80239248D01*
X130898892Y-80434447D01*
X130897767Y-80440104D01*
X130897765Y-80440110D01*
X130892003Y-80469079D01*
X130857892Y-80640570D01*
X130857816Y-80646345D01*
X130857816Y-80646349D01*
X130857500Y-80670508D01*
X130855141Y-80850712D01*
X128994761Y-80850712D01*
X128995536Y-78767305D01*
X133637251Y-78767305D01*
X133637548Y-78772458D01*
X133637548Y-78772461D01*
X133643011Y-78867200D01*
X133650110Y-78990325D01*
X133651247Y-78995371D01*
X133651248Y-78995377D01*
X133671119Y-79083549D01*
X133699222Y-79208249D01*
X133783266Y-79415226D01*
X133899987Y-79605698D01*
X134046250Y-79774548D01*
X134218126Y-79917242D01*
X134411000Y-80029948D01*
X134619692Y-80109640D01*
X134624760Y-80110671D01*
X134624763Y-80110672D01*
X134732017Y-80132493D01*
X134838597Y-80154177D01*
X134843772Y-80154367D01*
X134843774Y-80154367D01*
X135056673Y-80162174D01*
X135056677Y-80162174D01*
X135061837Y-80162363D01*
X135066957Y-80161707D01*
X135066959Y-80161707D01*
X135278288Y-80134635D01*
X135278289Y-80134635D01*
X135283416Y-80133978D01*
X135288366Y-80132493D01*
X135492429Y-80071271D01*
X135492434Y-80071269D01*
X135497384Y-80069784D01*
X135697994Y-79971506D01*
X135879860Y-79841783D01*
X136038096Y-79684099D01*
X136075935Y-79631441D01*
X136165435Y-79506887D01*
X136168453Y-79502687D01*
X136267430Y-79302421D01*
X136332370Y-79088679D01*
X136361529Y-78867200D01*
X136363156Y-78800610D01*
X136360418Y-78767305D01*
X136637251Y-78767305D01*
X136637548Y-78772458D01*
X136637548Y-78772461D01*
X136643011Y-78867200D01*
X136650110Y-78990325D01*
X136651247Y-78995371D01*
X136651248Y-78995377D01*
X136671119Y-79083549D01*
X136699222Y-79208249D01*
X136783266Y-79415226D01*
X136899987Y-79605698D01*
X137046250Y-79774548D01*
X137218126Y-79917242D01*
X137411000Y-80029948D01*
X137619692Y-80109640D01*
X137624760Y-80110671D01*
X137624763Y-80110672D01*
X137732017Y-80132493D01*
X137838597Y-80154177D01*
X137843772Y-80154367D01*
X137843774Y-80154367D01*
X138056673Y-80162174D01*
X138056677Y-80162174D01*
X138061837Y-80162363D01*
X138066957Y-80161707D01*
X138066959Y-80161707D01*
X138278288Y-80134635D01*
X138278289Y-80134635D01*
X138283416Y-80133978D01*
X138288366Y-80132493D01*
X138492429Y-80071271D01*
X138492434Y-80071269D01*
X138497384Y-80069784D01*
X138697994Y-79971506D01*
X138879860Y-79841783D01*
X139038096Y-79684099D01*
X139075935Y-79631441D01*
X139165435Y-79506887D01*
X139168453Y-79502687D01*
X139267430Y-79302421D01*
X139332370Y-79088679D01*
X139361529Y-78867200D01*
X139363156Y-78800610D01*
X139360418Y-78767305D01*
X147637251Y-78767305D01*
X147637548Y-78772458D01*
X147637548Y-78772461D01*
X147643011Y-78867200D01*
X147650110Y-78990325D01*
X147651247Y-78995371D01*
X147651248Y-78995377D01*
X147671119Y-79083549D01*
X147699222Y-79208249D01*
X147783266Y-79415226D01*
X147899987Y-79605698D01*
X148046250Y-79774548D01*
X148218126Y-79917242D01*
X148411000Y-80029948D01*
X148619692Y-80109640D01*
X148624760Y-80110671D01*
X148624763Y-80110672D01*
X148732017Y-80132493D01*
X148838597Y-80154177D01*
X148843772Y-80154367D01*
X148843774Y-80154367D01*
X149056673Y-80162174D01*
X149056677Y-80162174D01*
X149061837Y-80162363D01*
X149066957Y-80161707D01*
X149066959Y-80161707D01*
X149278288Y-80134635D01*
X149278289Y-80134635D01*
X149283416Y-80133978D01*
X149288366Y-80132493D01*
X149492429Y-80071271D01*
X149492434Y-80071269D01*
X149497384Y-80069784D01*
X149697994Y-79971506D01*
X149879860Y-79841783D01*
X150038096Y-79684099D01*
X150075935Y-79631441D01*
X150165435Y-79506887D01*
X150168453Y-79502687D01*
X150267430Y-79302421D01*
X150332370Y-79088679D01*
X150361529Y-78867200D01*
X150363156Y-78800610D01*
X150360418Y-78767305D01*
X150637251Y-78767305D01*
X150637548Y-78772458D01*
X150637548Y-78772461D01*
X150643011Y-78867200D01*
X150650110Y-78990325D01*
X150651247Y-78995371D01*
X150651248Y-78995377D01*
X150671119Y-79083549D01*
X150699222Y-79208249D01*
X150783266Y-79415226D01*
X150899987Y-79605698D01*
X151046250Y-79774548D01*
X151218126Y-79917242D01*
X151411000Y-80029948D01*
X151619692Y-80109640D01*
X151624760Y-80110671D01*
X151624763Y-80110672D01*
X151732017Y-80132493D01*
X151838597Y-80154177D01*
X151843772Y-80154367D01*
X151843774Y-80154367D01*
X152056673Y-80162174D01*
X152056677Y-80162174D01*
X152061837Y-80162363D01*
X152066957Y-80161707D01*
X152066959Y-80161707D01*
X152278288Y-80134635D01*
X152278289Y-80134635D01*
X152283416Y-80133978D01*
X152288366Y-80132493D01*
X152492429Y-80071271D01*
X152492434Y-80071269D01*
X152497384Y-80069784D01*
X152697994Y-79971506D01*
X152879860Y-79841783D01*
X153038096Y-79684099D01*
X153075935Y-79631441D01*
X153165435Y-79506887D01*
X153168453Y-79502687D01*
X153267430Y-79302421D01*
X153332370Y-79088679D01*
X153361529Y-78867200D01*
X153363156Y-78800610D01*
X153360418Y-78767305D01*
X161637251Y-78767305D01*
X161637548Y-78772458D01*
X161637548Y-78772461D01*
X161643011Y-78867200D01*
X161650110Y-78990325D01*
X161651247Y-78995371D01*
X161651248Y-78995377D01*
X161671119Y-79083549D01*
X161699222Y-79208249D01*
X161783266Y-79415226D01*
X161899987Y-79605698D01*
X162046250Y-79774548D01*
X162218126Y-79917242D01*
X162411000Y-80029948D01*
X162619692Y-80109640D01*
X162624760Y-80110671D01*
X162624763Y-80110672D01*
X162732017Y-80132493D01*
X162838597Y-80154177D01*
X162843772Y-80154367D01*
X162843774Y-80154367D01*
X163056673Y-80162174D01*
X163056677Y-80162174D01*
X163061837Y-80162363D01*
X163066957Y-80161707D01*
X163066959Y-80161707D01*
X163278288Y-80134635D01*
X163278289Y-80134635D01*
X163283416Y-80133978D01*
X163288366Y-80132493D01*
X163492429Y-80071271D01*
X163492434Y-80071269D01*
X163497384Y-80069784D01*
X163697994Y-79971506D01*
X163879860Y-79841783D01*
X164038096Y-79684099D01*
X164075935Y-79631441D01*
X164165435Y-79506887D01*
X164168453Y-79502687D01*
X164267430Y-79302421D01*
X164332370Y-79088679D01*
X164361529Y-78867200D01*
X164363156Y-78800610D01*
X164360418Y-78767305D01*
X164637251Y-78767305D01*
X164637548Y-78772458D01*
X164637548Y-78772461D01*
X164643011Y-78867200D01*
X164650110Y-78990325D01*
X164651247Y-78995371D01*
X164651248Y-78995377D01*
X164671119Y-79083549D01*
X164699222Y-79208249D01*
X164783266Y-79415226D01*
X164899987Y-79605698D01*
X165046250Y-79774548D01*
X165218126Y-79917242D01*
X165411000Y-80029948D01*
X165619692Y-80109640D01*
X165624760Y-80110671D01*
X165624763Y-80110672D01*
X165732017Y-80132493D01*
X165838597Y-80154177D01*
X165843772Y-80154367D01*
X165843774Y-80154367D01*
X166056673Y-80162174D01*
X166056677Y-80162174D01*
X166061837Y-80162363D01*
X166066957Y-80161707D01*
X166066959Y-80161707D01*
X166278288Y-80134635D01*
X166278289Y-80134635D01*
X166283416Y-80133978D01*
X166288366Y-80132493D01*
X166492429Y-80071271D01*
X166492434Y-80071269D01*
X166497384Y-80069784D01*
X166697994Y-79971506D01*
X166879860Y-79841783D01*
X167038096Y-79684099D01*
X167075935Y-79631441D01*
X167165435Y-79506887D01*
X167168453Y-79502687D01*
X167267430Y-79302421D01*
X167332370Y-79088679D01*
X167361529Y-78867200D01*
X167363156Y-78800610D01*
X167360418Y-78767305D01*
X175637251Y-78767305D01*
X175637548Y-78772458D01*
X175637548Y-78772461D01*
X175643011Y-78867200D01*
X175650110Y-78990325D01*
X175651247Y-78995371D01*
X175651248Y-78995377D01*
X175671119Y-79083549D01*
X175699222Y-79208249D01*
X175783266Y-79415226D01*
X175899987Y-79605698D01*
X176046250Y-79774548D01*
X176218126Y-79917242D01*
X176411000Y-80029948D01*
X176619692Y-80109640D01*
X176624760Y-80110671D01*
X176624763Y-80110672D01*
X176732017Y-80132493D01*
X176838597Y-80154177D01*
X176843772Y-80154367D01*
X176843774Y-80154367D01*
X177056673Y-80162174D01*
X177056677Y-80162174D01*
X177061837Y-80162363D01*
X177066957Y-80161707D01*
X177066959Y-80161707D01*
X177278288Y-80134635D01*
X177278289Y-80134635D01*
X177283416Y-80133978D01*
X177288366Y-80132493D01*
X177492429Y-80071271D01*
X177492434Y-80071269D01*
X177497384Y-80069784D01*
X177697994Y-79971506D01*
X177879860Y-79841783D01*
X178038096Y-79684099D01*
X178075935Y-79631441D01*
X178165435Y-79506887D01*
X178168453Y-79502687D01*
X178267430Y-79302421D01*
X178332370Y-79088679D01*
X178361529Y-78867200D01*
X178363156Y-78800610D01*
X178360418Y-78767305D01*
X178637251Y-78767305D01*
X178637548Y-78772458D01*
X178637548Y-78772461D01*
X178643011Y-78867200D01*
X178650110Y-78990325D01*
X178651247Y-78995371D01*
X178651248Y-78995377D01*
X178671119Y-79083549D01*
X178699222Y-79208249D01*
X178783266Y-79415226D01*
X178899987Y-79605698D01*
X179046250Y-79774548D01*
X179218126Y-79917242D01*
X179411000Y-80029948D01*
X179619692Y-80109640D01*
X179624760Y-80110671D01*
X179624763Y-80110672D01*
X179732017Y-80132493D01*
X179838597Y-80154177D01*
X179843772Y-80154367D01*
X179843774Y-80154367D01*
X180056673Y-80162174D01*
X180056677Y-80162174D01*
X180061837Y-80162363D01*
X180066957Y-80161707D01*
X180066959Y-80161707D01*
X180278288Y-80134635D01*
X180278289Y-80134635D01*
X180283416Y-80133978D01*
X180288366Y-80132493D01*
X180492429Y-80071271D01*
X180492434Y-80071269D01*
X180497384Y-80069784D01*
X180697994Y-79971506D01*
X180879860Y-79841783D01*
X181038096Y-79684099D01*
X181075935Y-79631441D01*
X181165435Y-79506887D01*
X181168453Y-79502687D01*
X181267430Y-79302421D01*
X181332370Y-79088679D01*
X181361529Y-78867200D01*
X181363156Y-78800610D01*
X181344852Y-78577971D01*
X181290431Y-78361312D01*
X181201354Y-78156450D01*
X181080014Y-77968887D01*
X180929670Y-77803661D01*
X180925619Y-77800462D01*
X180925615Y-77800458D01*
X180758414Y-77668410D01*
X180758410Y-77668408D01*
X180754359Y-77665208D01*
X180558789Y-77557248D01*
X180553920Y-77555524D01*
X180553916Y-77555522D01*
X180353087Y-77484405D01*
X180353083Y-77484404D01*
X180348212Y-77482679D01*
X180343119Y-77481772D01*
X180343116Y-77481771D01*
X180133373Y-77444410D01*
X180133367Y-77444409D01*
X180128284Y-77443504D01*
X180054452Y-77442602D01*
X179910081Y-77440838D01*
X179910079Y-77440838D01*
X179904911Y-77440775D01*
X179684091Y-77474565D01*
X179471756Y-77543967D01*
X179273607Y-77647117D01*
X179269474Y-77650220D01*
X179269471Y-77650222D01*
X179245247Y-77668410D01*
X179094965Y-77781245D01*
X178940629Y-77942748D01*
X178814743Y-78127290D01*
X178720688Y-78329915D01*
X178660989Y-78545180D01*
X178637251Y-78767305D01*
X178360418Y-78767305D01*
X178344852Y-78577971D01*
X178290431Y-78361312D01*
X178201354Y-78156450D01*
X178080014Y-77968887D01*
X177929670Y-77803661D01*
X177925619Y-77800462D01*
X177925615Y-77800458D01*
X177758414Y-77668410D01*
X177758410Y-77668408D01*
X177754359Y-77665208D01*
X177558789Y-77557248D01*
X177553920Y-77555524D01*
X177553916Y-77555522D01*
X177353087Y-77484405D01*
X177353083Y-77484404D01*
X177348212Y-77482679D01*
X177343119Y-77481772D01*
X177343116Y-77481771D01*
X177133373Y-77444410D01*
X177133367Y-77444409D01*
X177128284Y-77443504D01*
X177054452Y-77442602D01*
X176910081Y-77440838D01*
X176910079Y-77440838D01*
X176904911Y-77440775D01*
X176684091Y-77474565D01*
X176471756Y-77543967D01*
X176273607Y-77647117D01*
X176269474Y-77650220D01*
X176269471Y-77650222D01*
X176245247Y-77668410D01*
X176094965Y-77781245D01*
X175940629Y-77942748D01*
X175814743Y-78127290D01*
X175720688Y-78329915D01*
X175660989Y-78545180D01*
X175637251Y-78767305D01*
X167360418Y-78767305D01*
X167344852Y-78577971D01*
X167290431Y-78361312D01*
X167201354Y-78156450D01*
X167080014Y-77968887D01*
X166929670Y-77803661D01*
X166925619Y-77800462D01*
X166925615Y-77800458D01*
X166758414Y-77668410D01*
X166758410Y-77668408D01*
X166754359Y-77665208D01*
X166558789Y-77557248D01*
X166553920Y-77555524D01*
X166553916Y-77555522D01*
X166353087Y-77484405D01*
X166353083Y-77484404D01*
X166348212Y-77482679D01*
X166343119Y-77481772D01*
X166343116Y-77481771D01*
X166133373Y-77444410D01*
X166133367Y-77444409D01*
X166128284Y-77443504D01*
X166054452Y-77442602D01*
X165910081Y-77440838D01*
X165910079Y-77440838D01*
X165904911Y-77440775D01*
X165684091Y-77474565D01*
X165471756Y-77543967D01*
X165273607Y-77647117D01*
X165269474Y-77650220D01*
X165269471Y-77650222D01*
X165245247Y-77668410D01*
X165094965Y-77781245D01*
X164940629Y-77942748D01*
X164814743Y-78127290D01*
X164720688Y-78329915D01*
X164660989Y-78545180D01*
X164637251Y-78767305D01*
X164360418Y-78767305D01*
X164344852Y-78577971D01*
X164290431Y-78361312D01*
X164201354Y-78156450D01*
X164080014Y-77968887D01*
X163929670Y-77803661D01*
X163925619Y-77800462D01*
X163925615Y-77800458D01*
X163758414Y-77668410D01*
X163758410Y-77668408D01*
X163754359Y-77665208D01*
X163558789Y-77557248D01*
X163553920Y-77555524D01*
X163553916Y-77555522D01*
X163353087Y-77484405D01*
X163353083Y-77484404D01*
X163348212Y-77482679D01*
X163343119Y-77481772D01*
X163343116Y-77481771D01*
X163133373Y-77444410D01*
X163133367Y-77444409D01*
X163128284Y-77443504D01*
X163054452Y-77442602D01*
X162910081Y-77440838D01*
X162910079Y-77440838D01*
X162904911Y-77440775D01*
X162684091Y-77474565D01*
X162471756Y-77543967D01*
X162273607Y-77647117D01*
X162269474Y-77650220D01*
X162269471Y-77650222D01*
X162245247Y-77668410D01*
X162094965Y-77781245D01*
X161940629Y-77942748D01*
X161814743Y-78127290D01*
X161720688Y-78329915D01*
X161660989Y-78545180D01*
X161637251Y-78767305D01*
X153360418Y-78767305D01*
X153344852Y-78577971D01*
X153290431Y-78361312D01*
X153201354Y-78156450D01*
X153080014Y-77968887D01*
X152929670Y-77803661D01*
X152925619Y-77800462D01*
X152925615Y-77800458D01*
X152758414Y-77668410D01*
X152758410Y-77668408D01*
X152754359Y-77665208D01*
X152558789Y-77557248D01*
X152553920Y-77555524D01*
X152553916Y-77555522D01*
X152353087Y-77484405D01*
X152353083Y-77484404D01*
X152348212Y-77482679D01*
X152343119Y-77481772D01*
X152343116Y-77481771D01*
X152133373Y-77444410D01*
X152133367Y-77444409D01*
X152128284Y-77443504D01*
X152054452Y-77442602D01*
X151910081Y-77440838D01*
X151910079Y-77440838D01*
X151904911Y-77440775D01*
X151684091Y-77474565D01*
X151471756Y-77543967D01*
X151273607Y-77647117D01*
X151269474Y-77650220D01*
X151269471Y-77650222D01*
X151245247Y-77668410D01*
X151094965Y-77781245D01*
X150940629Y-77942748D01*
X150814743Y-78127290D01*
X150720688Y-78329915D01*
X150660989Y-78545180D01*
X150637251Y-78767305D01*
X150360418Y-78767305D01*
X150344852Y-78577971D01*
X150290431Y-78361312D01*
X150201354Y-78156450D01*
X150080014Y-77968887D01*
X149929670Y-77803661D01*
X149925619Y-77800462D01*
X149925615Y-77800458D01*
X149758414Y-77668410D01*
X149758410Y-77668408D01*
X149754359Y-77665208D01*
X149558789Y-77557248D01*
X149553920Y-77555524D01*
X149553916Y-77555522D01*
X149353087Y-77484405D01*
X149353083Y-77484404D01*
X149348212Y-77482679D01*
X149343119Y-77481772D01*
X149343116Y-77481771D01*
X149133373Y-77444410D01*
X149133367Y-77444409D01*
X149128284Y-77443504D01*
X149054452Y-77442602D01*
X148910081Y-77440838D01*
X148910079Y-77440838D01*
X148904911Y-77440775D01*
X148684091Y-77474565D01*
X148471756Y-77543967D01*
X148273607Y-77647117D01*
X148269474Y-77650220D01*
X148269471Y-77650222D01*
X148245247Y-77668410D01*
X148094965Y-77781245D01*
X147940629Y-77942748D01*
X147814743Y-78127290D01*
X147720688Y-78329915D01*
X147660989Y-78545180D01*
X147637251Y-78767305D01*
X139360418Y-78767305D01*
X139344852Y-78577971D01*
X139290431Y-78361312D01*
X139201354Y-78156450D01*
X139080014Y-77968887D01*
X138929670Y-77803661D01*
X138925619Y-77800462D01*
X138925615Y-77800458D01*
X138758414Y-77668410D01*
X138758410Y-77668408D01*
X138754359Y-77665208D01*
X138558789Y-77557248D01*
X138553920Y-77555524D01*
X138553916Y-77555522D01*
X138353087Y-77484405D01*
X138353083Y-77484404D01*
X138348212Y-77482679D01*
X138343119Y-77481772D01*
X138343116Y-77481771D01*
X138133373Y-77444410D01*
X138133367Y-77444409D01*
X138128284Y-77443504D01*
X138054452Y-77442602D01*
X137910081Y-77440838D01*
X137910079Y-77440838D01*
X137904911Y-77440775D01*
X137684091Y-77474565D01*
X137471756Y-77543967D01*
X137273607Y-77647117D01*
X137269474Y-77650220D01*
X137269471Y-77650222D01*
X137245247Y-77668410D01*
X137094965Y-77781245D01*
X136940629Y-77942748D01*
X136814743Y-78127290D01*
X136720688Y-78329915D01*
X136660989Y-78545180D01*
X136637251Y-78767305D01*
X136360418Y-78767305D01*
X136344852Y-78577971D01*
X136290431Y-78361312D01*
X136201354Y-78156450D01*
X136080014Y-77968887D01*
X135929670Y-77803661D01*
X135925619Y-77800462D01*
X135925615Y-77800458D01*
X135758414Y-77668410D01*
X135758410Y-77668408D01*
X135754359Y-77665208D01*
X135558789Y-77557248D01*
X135553920Y-77555524D01*
X135553916Y-77555522D01*
X135353087Y-77484405D01*
X135353083Y-77484404D01*
X135348212Y-77482679D01*
X135343119Y-77481772D01*
X135343116Y-77481771D01*
X135133373Y-77444410D01*
X135133367Y-77444409D01*
X135128284Y-77443504D01*
X135054452Y-77442602D01*
X134910081Y-77440838D01*
X134910079Y-77440838D01*
X134904911Y-77440775D01*
X134684091Y-77474565D01*
X134471756Y-77543967D01*
X134273607Y-77647117D01*
X134269474Y-77650220D01*
X134269471Y-77650222D01*
X134245247Y-77668410D01*
X134094965Y-77781245D01*
X133940629Y-77942748D01*
X133814743Y-78127290D01*
X133720688Y-78329915D01*
X133660989Y-78545180D01*
X133637251Y-78767305D01*
X128995536Y-78767305D01*
X129005191Y-52800000D01*
X152536693Y-52800000D01*
X152555885Y-53019371D01*
X152612880Y-53232076D01*
X152615205Y-53237061D01*
X152703618Y-53426666D01*
X152703621Y-53426671D01*
X152705944Y-53431653D01*
X152709100Y-53436160D01*
X152709101Y-53436162D01*
X152717406Y-53448022D01*
X152832251Y-53612038D01*
X152987962Y-53767749D01*
X152992471Y-53770906D01*
X152992473Y-53770908D01*
X153004774Y-53779521D01*
X153168346Y-53894056D01*
X153367924Y-53987120D01*
X153580629Y-54044115D01*
X153800000Y-54063307D01*
X154019371Y-54044115D01*
X154232076Y-53987120D01*
X154431654Y-53894056D01*
X154595226Y-53779521D01*
X154607527Y-53770908D01*
X154607529Y-53770906D01*
X154612038Y-53767749D01*
X154767749Y-53612038D01*
X154882595Y-53448022D01*
X154890899Y-53436162D01*
X154890900Y-53436160D01*
X154894056Y-53431653D01*
X154896379Y-53426671D01*
X154896382Y-53426666D01*
X154984795Y-53237061D01*
X154987120Y-53232076D01*
X155044115Y-53019371D01*
X155063307Y-52800000D01*
X155536693Y-52800000D01*
X155555885Y-53019371D01*
X155612880Y-53232076D01*
X155615205Y-53237061D01*
X155703618Y-53426666D01*
X155703621Y-53426671D01*
X155705944Y-53431653D01*
X155709100Y-53436160D01*
X155709101Y-53436162D01*
X155717406Y-53448022D01*
X155832251Y-53612038D01*
X155987962Y-53767749D01*
X155992471Y-53770906D01*
X155992473Y-53770908D01*
X156004774Y-53779521D01*
X156168346Y-53894056D01*
X156367924Y-53987120D01*
X156580629Y-54044115D01*
X156800000Y-54063307D01*
X157019371Y-54044115D01*
X157232076Y-53987120D01*
X157431654Y-53894056D01*
X157595226Y-53779521D01*
X157607527Y-53770908D01*
X157607529Y-53770906D01*
X157612038Y-53767749D01*
X157767749Y-53612038D01*
X157882595Y-53448022D01*
X157890899Y-53436162D01*
X157890900Y-53436160D01*
X157894056Y-53431653D01*
X157896379Y-53426671D01*
X157896382Y-53426666D01*
X157931945Y-53350400D01*
X158541500Y-53350400D01*
X158541837Y-53353646D01*
X158541837Y-53353650D01*
X158550399Y-53436162D01*
X158552474Y-53456165D01*
X158608450Y-53623945D01*
X158701522Y-53774348D01*
X158826697Y-53899305D01*
X158832927Y-53903145D01*
X158832928Y-53903146D01*
X158970090Y-53987694D01*
X158977262Y-53992115D01*
X159057005Y-54018564D01*
X159138611Y-54045632D01*
X159138613Y-54045632D01*
X159145139Y-54047797D01*
X159151975Y-54048497D01*
X159151978Y-54048498D01*
X159195031Y-54052909D01*
X159249600Y-54058500D01*
X160350400Y-54058500D01*
X160353646Y-54058163D01*
X160353650Y-54058163D01*
X160449307Y-54048238D01*
X160449311Y-54048237D01*
X160456165Y-54047526D01*
X160462701Y-54045345D01*
X160462703Y-54045345D01*
X160594805Y-54001272D01*
X160623945Y-53991550D01*
X160774348Y-53898478D01*
X160899305Y-53773303D01*
X160992115Y-53622738D01*
X161047797Y-53454861D01*
X161058500Y-53350400D01*
X161058500Y-52249600D01*
X161050587Y-52173334D01*
X161048238Y-52150693D01*
X161048237Y-52150689D01*
X161047526Y-52143835D01*
X160991550Y-51976055D01*
X160898478Y-51825652D01*
X160773303Y-51700695D01*
X160767072Y-51696854D01*
X160628968Y-51611725D01*
X160628966Y-51611724D01*
X160622738Y-51607885D01*
X160542995Y-51581436D01*
X160461389Y-51554368D01*
X160461387Y-51554368D01*
X160454861Y-51552203D01*
X160448025Y-51551503D01*
X160448022Y-51551502D01*
X160404969Y-51547091D01*
X160350400Y-51541500D01*
X159249600Y-51541500D01*
X159246354Y-51541837D01*
X159246350Y-51541837D01*
X159150693Y-51551762D01*
X159150689Y-51551763D01*
X159143835Y-51552474D01*
X159137299Y-51554655D01*
X159137297Y-51554655D01*
X159005195Y-51598728D01*
X158976055Y-51608450D01*
X158825652Y-51701522D01*
X158700695Y-51826697D01*
X158607885Y-51977262D01*
X158552203Y-52145139D01*
X158541500Y-52249600D01*
X158541500Y-53350400D01*
X157931945Y-53350400D01*
X157984795Y-53237061D01*
X157987120Y-53232076D01*
X158044115Y-53019371D01*
X158063307Y-52800000D01*
X158044115Y-52580629D01*
X157987120Y-52367924D01*
X157930429Y-52246350D01*
X157896382Y-52173334D01*
X157896379Y-52173329D01*
X157894056Y-52168347D01*
X157890899Y-52163838D01*
X157770908Y-51992473D01*
X157770906Y-51992470D01*
X157767749Y-51987962D01*
X157612038Y-51832251D01*
X157604107Y-51826697D01*
X157532759Y-51776739D01*
X157431654Y-51705944D01*
X157232076Y-51612880D01*
X157019371Y-51555885D01*
X156800000Y-51536693D01*
X156580629Y-51555885D01*
X156367924Y-51612880D01*
X156274562Y-51656415D01*
X156173334Y-51703618D01*
X156173329Y-51703621D01*
X156168347Y-51705944D01*
X156163840Y-51709100D01*
X156163838Y-51709101D01*
X155992473Y-51829092D01*
X155992470Y-51829094D01*
X155987962Y-51832251D01*
X155832251Y-51987962D01*
X155829094Y-51992470D01*
X155829092Y-51992473D01*
X155709101Y-52163838D01*
X155705944Y-52168347D01*
X155703621Y-52173329D01*
X155703618Y-52173334D01*
X155669571Y-52246350D01*
X155612880Y-52367924D01*
X155555885Y-52580629D01*
X155536693Y-52800000D01*
X155063307Y-52800000D01*
X155044115Y-52580629D01*
X154987120Y-52367924D01*
X154930429Y-52246350D01*
X154896382Y-52173334D01*
X154896379Y-52173329D01*
X154894056Y-52168347D01*
X154890899Y-52163838D01*
X154770908Y-51992473D01*
X154770906Y-51992470D01*
X154767749Y-51987962D01*
X154612038Y-51832251D01*
X154604107Y-51826697D01*
X154532759Y-51776739D01*
X154431654Y-51705944D01*
X154232076Y-51612880D01*
X154019371Y-51555885D01*
X153800000Y-51536693D01*
X153580629Y-51555885D01*
X153367924Y-51612880D01*
X153274562Y-51656415D01*
X153173334Y-51703618D01*
X153173329Y-51703621D01*
X153168347Y-51705944D01*
X153163840Y-51709100D01*
X153163838Y-51709101D01*
X152992473Y-51829092D01*
X152992470Y-51829094D01*
X152987962Y-51832251D01*
X152832251Y-51987962D01*
X152829094Y-51992470D01*
X152829092Y-51992473D01*
X152709101Y-52163838D01*
X152705944Y-52168347D01*
X152703621Y-52173329D01*
X152703618Y-52173334D01*
X152669571Y-52246350D01*
X152612880Y-52367924D01*
X152555885Y-52580629D01*
X152536693Y-52800000D01*
X129005191Y-52800000D01*
X129006659Y-48852925D01*
X149786645Y-48852925D01*
X149804570Y-49049888D01*
X149806308Y-49055794D01*
X149806309Y-49055798D01*
X149823579Y-49114477D01*
X149860410Y-49239619D01*
X149863263Y-49245077D01*
X149863265Y-49245081D01*
X149910720Y-49335853D01*
X149952040Y-49414890D01*
X150075968Y-49569025D01*
X150080692Y-49572989D01*
X150083469Y-49575319D01*
X150227474Y-49696154D01*
X150232872Y-49699121D01*
X150232877Y-49699125D01*
X150376180Y-49777905D01*
X150400787Y-49791433D01*
X150406654Y-49793294D01*
X150406656Y-49793295D01*
X150583436Y-49849373D01*
X150589306Y-49851235D01*
X150743227Y-49868500D01*
X150849769Y-49868500D01*
X150852825Y-49868200D01*
X150852832Y-49868200D01*
X150911340Y-49862463D01*
X150996833Y-49854080D01*
X151002734Y-49852298D01*
X151002736Y-49852298D01*
X151133522Y-49812811D01*
X151175954Y-49800000D01*
X152536693Y-49800000D01*
X152555885Y-50019371D01*
X152612880Y-50232076D01*
X152615205Y-50237061D01*
X152703618Y-50426666D01*
X152703621Y-50426671D01*
X152705944Y-50431653D01*
X152709100Y-50436160D01*
X152709101Y-50436162D01*
X152737801Y-50477149D01*
X152832251Y-50612038D01*
X152987962Y-50767749D01*
X153168346Y-50894056D01*
X153367924Y-50987120D01*
X153580629Y-51044115D01*
X153800000Y-51063307D01*
X154019371Y-51044115D01*
X154232076Y-50987120D01*
X154431654Y-50894056D01*
X154612038Y-50767749D01*
X154767749Y-50612038D01*
X154862200Y-50477149D01*
X154890899Y-50436162D01*
X154890900Y-50436160D01*
X154894056Y-50431653D01*
X154896379Y-50426671D01*
X154896382Y-50426666D01*
X154984795Y-50237061D01*
X154987120Y-50232076D01*
X155044115Y-50019371D01*
X155063307Y-49800000D01*
X155536693Y-49800000D01*
X155555885Y-50019371D01*
X155612880Y-50232076D01*
X155615205Y-50237061D01*
X155703618Y-50426666D01*
X155703621Y-50426671D01*
X155705944Y-50431653D01*
X155709100Y-50436160D01*
X155709101Y-50436162D01*
X155737801Y-50477149D01*
X155832251Y-50612038D01*
X155987962Y-50767749D01*
X156168346Y-50894056D01*
X156367924Y-50987120D01*
X156580629Y-51044115D01*
X156800000Y-51063307D01*
X157019371Y-51044115D01*
X157232076Y-50987120D01*
X157431654Y-50894056D01*
X157494342Y-50850161D01*
X159114393Y-50850161D01*
X159123687Y-50862175D01*
X159164088Y-50890464D01*
X159173584Y-50895947D01*
X159363113Y-50984326D01*
X159373405Y-50988072D01*
X159575401Y-51042196D01*
X159586196Y-51044099D01*
X159794525Y-51062326D01*
X159805475Y-51062326D01*
X160013804Y-51044099D01*
X160024599Y-51042196D01*
X160226595Y-50988072D01*
X160236887Y-50984326D01*
X160426416Y-50895947D01*
X160435912Y-50890464D01*
X160477148Y-50861590D01*
X160485523Y-50851112D01*
X160478457Y-50837668D01*
X159812811Y-50172021D01*
X159798868Y-50164408D01*
X159797034Y-50164539D01*
X159790420Y-50168790D01*
X159120820Y-50838391D01*
X159114393Y-50850161D01*
X157494342Y-50850161D01*
X157612038Y-50767749D01*
X157767749Y-50612038D01*
X157862200Y-50477149D01*
X157890899Y-50436162D01*
X157890900Y-50436160D01*
X157894056Y-50431653D01*
X157896379Y-50426671D01*
X157896382Y-50426666D01*
X157984795Y-50237061D01*
X157987120Y-50232076D01*
X158044115Y-50019371D01*
X158062828Y-49805475D01*
X158537674Y-49805475D01*
X158555901Y-50013804D01*
X158557804Y-50024599D01*
X158611928Y-50226595D01*
X158615674Y-50236887D01*
X158704054Y-50426417D01*
X158709534Y-50435907D01*
X158738411Y-50477149D01*
X158748887Y-50485523D01*
X158762334Y-50478455D01*
X159427979Y-49812811D01*
X159434356Y-49801132D01*
X160164408Y-49801132D01*
X160164539Y-49802966D01*
X160168790Y-49809580D01*
X160838391Y-50479180D01*
X160850161Y-50485607D01*
X160862176Y-50476311D01*
X160890466Y-50435907D01*
X160895946Y-50426417D01*
X160984326Y-50236887D01*
X160988072Y-50226595D01*
X161042196Y-50024599D01*
X161044099Y-50013804D01*
X161062326Y-49805475D01*
X161062326Y-49794525D01*
X161044099Y-49586196D01*
X161042196Y-49575401D01*
X160988072Y-49373405D01*
X160984326Y-49363113D01*
X160895946Y-49173583D01*
X160890466Y-49164093D01*
X160861589Y-49122851D01*
X160851113Y-49114477D01*
X160837666Y-49121545D01*
X160172021Y-49787189D01*
X160164408Y-49801132D01*
X159434356Y-49801132D01*
X159435592Y-49798868D01*
X159435461Y-49797034D01*
X159431210Y-49790420D01*
X158761609Y-49120820D01*
X158749839Y-49114393D01*
X158737824Y-49123689D01*
X158709534Y-49164093D01*
X158704054Y-49173583D01*
X158615674Y-49363113D01*
X158611928Y-49373405D01*
X158557804Y-49575401D01*
X158555901Y-49586196D01*
X158537674Y-49794525D01*
X158537674Y-49805475D01*
X158062828Y-49805475D01*
X158063307Y-49800000D01*
X158044115Y-49580629D01*
X157987120Y-49367924D01*
X157927291Y-49239619D01*
X157896382Y-49173334D01*
X157896379Y-49173329D01*
X157894056Y-49168347D01*
X157862786Y-49123689D01*
X157770908Y-48992473D01*
X157770906Y-48992470D01*
X157767749Y-48987962D01*
X157612038Y-48832251D01*
X157492983Y-48748887D01*
X159114477Y-48748887D01*
X159121545Y-48762334D01*
X159787189Y-49427979D01*
X159801132Y-49435592D01*
X159802966Y-49435461D01*
X159809580Y-49431210D01*
X160387864Y-48852925D01*
X161786645Y-48852925D01*
X161804570Y-49049888D01*
X161806308Y-49055794D01*
X161806309Y-49055798D01*
X161823579Y-49114477D01*
X161860410Y-49239619D01*
X161863263Y-49245077D01*
X161863265Y-49245081D01*
X161910720Y-49335853D01*
X161952040Y-49414890D01*
X162075968Y-49569025D01*
X162080692Y-49572989D01*
X162083469Y-49575319D01*
X162227474Y-49696154D01*
X162232872Y-49699121D01*
X162232877Y-49699125D01*
X162376180Y-49777905D01*
X162400787Y-49791433D01*
X162406654Y-49793294D01*
X162406656Y-49793295D01*
X162583436Y-49849373D01*
X162589306Y-49851235D01*
X162743227Y-49868500D01*
X162849769Y-49868500D01*
X162852825Y-49868200D01*
X162852832Y-49868200D01*
X162911340Y-49862463D01*
X162996833Y-49854080D01*
X163002734Y-49852298D01*
X163002736Y-49852298D01*
X163133522Y-49812811D01*
X163186169Y-49796916D01*
X163360796Y-49704066D01*
X163505319Y-49586196D01*
X163509287Y-49582960D01*
X163509290Y-49582957D01*
X163514062Y-49579065D01*
X163526344Y-49564219D01*
X163636201Y-49431425D01*
X163636203Y-49431421D01*
X163640130Y-49426675D01*
X163734198Y-49252701D01*
X163792682Y-49063768D01*
X163800175Y-48992473D01*
X163812711Y-48873204D01*
X163812711Y-48873202D01*
X163813355Y-48867075D01*
X163798519Y-48704053D01*
X163795989Y-48676251D01*
X163795988Y-48676248D01*
X163795430Y-48670112D01*
X163739590Y-48480381D01*
X163729919Y-48461881D01*
X163650813Y-48310568D01*
X163647960Y-48305110D01*
X163524032Y-48150975D01*
X163517727Y-48145684D01*
X163501334Y-48131929D01*
X163372526Y-48023846D01*
X163367128Y-48020879D01*
X163367123Y-48020875D01*
X163204608Y-47931533D01*
X163204609Y-47931533D01*
X163199213Y-47928567D01*
X163193346Y-47926706D01*
X163193344Y-47926705D01*
X163016564Y-47870627D01*
X163016563Y-47870627D01*
X163010694Y-47868765D01*
X162856773Y-47851500D01*
X162750231Y-47851500D01*
X162747175Y-47851800D01*
X162747168Y-47851800D01*
X162688660Y-47857537D01*
X162603167Y-47865920D01*
X162597266Y-47867702D01*
X162597264Y-47867702D01*
X162523947Y-47889838D01*
X162413831Y-47923084D01*
X162239204Y-48015934D01*
X162152938Y-48086291D01*
X162090713Y-48137040D01*
X162090710Y-48137043D01*
X162085938Y-48140935D01*
X162082011Y-48145682D01*
X162082009Y-48145684D01*
X161963799Y-48288575D01*
X161963797Y-48288579D01*
X161959870Y-48293325D01*
X161865802Y-48467299D01*
X161807318Y-48656232D01*
X161806674Y-48662357D01*
X161806674Y-48662358D01*
X161796243Y-48761609D01*
X161786645Y-48852925D01*
X160387864Y-48852925D01*
X160479180Y-48761609D01*
X160485607Y-48749839D01*
X160476313Y-48737825D01*
X160435912Y-48709536D01*
X160426416Y-48704053D01*
X160236887Y-48615674D01*
X160226595Y-48611928D01*
X160024599Y-48557804D01*
X160013804Y-48555901D01*
X159805475Y-48537674D01*
X159794525Y-48537674D01*
X159586196Y-48555901D01*
X159575401Y-48557804D01*
X159373405Y-48611928D01*
X159363113Y-48615674D01*
X159173583Y-48704054D01*
X159164093Y-48709534D01*
X159122851Y-48738411D01*
X159114477Y-48748887D01*
X157492983Y-48748887D01*
X157431654Y-48705944D01*
X157232076Y-48612880D01*
X157019371Y-48555885D01*
X156800000Y-48536693D01*
X156580629Y-48555885D01*
X156367924Y-48612880D01*
X156287576Y-48650347D01*
X156173334Y-48703618D01*
X156173329Y-48703621D01*
X156168347Y-48705944D01*
X156163840Y-48709100D01*
X156163838Y-48709101D01*
X155992473Y-48829092D01*
X155992470Y-48829094D01*
X155987962Y-48832251D01*
X155832251Y-48987962D01*
X155829094Y-48992470D01*
X155829092Y-48992473D01*
X155737214Y-49123689D01*
X155705944Y-49168347D01*
X155703621Y-49173329D01*
X155703618Y-49173334D01*
X155672709Y-49239619D01*
X155612880Y-49367924D01*
X155555885Y-49580629D01*
X155536693Y-49800000D01*
X155063307Y-49800000D01*
X155044115Y-49580629D01*
X154987120Y-49367924D01*
X154927291Y-49239619D01*
X154896382Y-49173334D01*
X154896379Y-49173329D01*
X154894056Y-49168347D01*
X154862786Y-49123689D01*
X154770908Y-48992473D01*
X154770906Y-48992470D01*
X154767749Y-48987962D01*
X154612038Y-48832251D01*
X154431654Y-48705944D01*
X154232076Y-48612880D01*
X154019371Y-48555885D01*
X153800000Y-48536693D01*
X153580629Y-48555885D01*
X153367924Y-48612880D01*
X153287576Y-48650347D01*
X153173334Y-48703618D01*
X153173329Y-48703621D01*
X153168347Y-48705944D01*
X153163840Y-48709100D01*
X153163838Y-48709101D01*
X152992473Y-48829092D01*
X152992470Y-48829094D01*
X152987962Y-48832251D01*
X152832251Y-48987962D01*
X152829094Y-48992470D01*
X152829092Y-48992473D01*
X152737214Y-49123689D01*
X152705944Y-49168347D01*
X152703621Y-49173329D01*
X152703618Y-49173334D01*
X152672709Y-49239619D01*
X152612880Y-49367924D01*
X152555885Y-49580629D01*
X152536693Y-49800000D01*
X151175954Y-49800000D01*
X151186169Y-49796916D01*
X151360796Y-49704066D01*
X151505319Y-49586196D01*
X151509287Y-49582960D01*
X151509290Y-49582957D01*
X151514062Y-49579065D01*
X151526344Y-49564219D01*
X151636201Y-49431425D01*
X151636203Y-49431421D01*
X151640130Y-49426675D01*
X151734198Y-49252701D01*
X151792682Y-49063768D01*
X151800175Y-48992473D01*
X151812711Y-48873204D01*
X151812711Y-48873202D01*
X151813355Y-48867075D01*
X151798519Y-48704053D01*
X151795989Y-48676251D01*
X151795988Y-48676248D01*
X151795430Y-48670112D01*
X151739590Y-48480381D01*
X151729919Y-48461881D01*
X151650813Y-48310568D01*
X151647960Y-48305110D01*
X151524032Y-48150975D01*
X151517727Y-48145684D01*
X151501334Y-48131929D01*
X151372526Y-48023846D01*
X151367128Y-48020879D01*
X151367123Y-48020875D01*
X151204608Y-47931533D01*
X151204609Y-47931533D01*
X151199213Y-47928567D01*
X151193346Y-47926706D01*
X151193344Y-47926705D01*
X151016564Y-47870627D01*
X151016563Y-47870627D01*
X151010694Y-47868765D01*
X150856773Y-47851500D01*
X150750231Y-47851500D01*
X150747175Y-47851800D01*
X150747168Y-47851800D01*
X150688660Y-47857537D01*
X150603167Y-47865920D01*
X150597266Y-47867702D01*
X150597264Y-47867702D01*
X150523947Y-47889838D01*
X150413831Y-47923084D01*
X150239204Y-48015934D01*
X150152938Y-48086291D01*
X150090713Y-48137040D01*
X150090710Y-48137043D01*
X150085938Y-48140935D01*
X150082011Y-48145682D01*
X150082009Y-48145684D01*
X149963799Y-48288575D01*
X149963797Y-48288579D01*
X149959870Y-48293325D01*
X149865802Y-48467299D01*
X149807318Y-48656232D01*
X149806674Y-48662357D01*
X149806674Y-48662358D01*
X149796243Y-48761609D01*
X149786645Y-48852925D01*
X129006659Y-48852925D01*
X129008488Y-43933899D01*
X129009186Y-43920700D01*
X129012435Y-43889961D01*
X129013379Y-43881035D01*
X129010145Y-43863176D01*
X129008131Y-43839846D01*
X129009276Y-43675343D01*
X129559584Y-43675343D01*
X129559737Y-43679731D01*
X129559737Y-43679737D01*
X129569138Y-43948930D01*
X129569387Y-43956068D01*
X129570149Y-43960391D01*
X129570150Y-43960398D01*
X129593926Y-44095234D01*
X129618164Y-44232697D01*
X129704965Y-44499845D01*
X129828102Y-44752312D01*
X129830557Y-44755951D01*
X129830560Y-44755957D01*
X129903652Y-44864320D01*
X129985177Y-44985186D01*
X130173133Y-45193932D01*
X130388312Y-45374489D01*
X130626526Y-45523341D01*
X130883137Y-45637592D01*
X131153152Y-45715017D01*
X131157502Y-45715628D01*
X131157505Y-45715629D01*
X131260452Y-45730097D01*
X131431314Y-45754110D01*
X131641908Y-45754110D01*
X131644094Y-45753957D01*
X131644098Y-45753957D01*
X131847589Y-45739728D01*
X131847594Y-45739727D01*
X131851974Y-45739421D01*
X132126732Y-45681019D01*
X132130861Y-45679516D01*
X132130865Y-45679515D01*
X132386543Y-45586456D01*
X132386547Y-45586454D01*
X132390688Y-45584947D01*
X132638704Y-45453074D01*
X132743658Y-45376821D01*
X132862391Y-45290557D01*
X132862394Y-45290554D01*
X132865954Y-45287968D01*
X133068014Y-45092841D01*
X133240950Y-44871492D01*
X133243146Y-44867688D01*
X133243151Y-44867681D01*
X133379197Y-44632041D01*
X133381398Y-44628229D01*
X133486624Y-44367786D01*
X133520306Y-44232697D01*
X133553515Y-44099503D01*
X133553516Y-44099498D01*
X133554579Y-44095234D01*
X133569280Y-43955367D01*
X133583481Y-43820246D01*
X133583481Y-43820243D01*
X133583940Y-43815877D01*
X133579033Y-43675343D01*
X180709584Y-43675343D01*
X180709737Y-43679731D01*
X180709737Y-43679737D01*
X180719138Y-43948930D01*
X180719387Y-43956068D01*
X180720149Y-43960391D01*
X180720150Y-43960398D01*
X180743926Y-44095234D01*
X180768164Y-44232697D01*
X180854965Y-44499845D01*
X180978102Y-44752312D01*
X180980557Y-44755951D01*
X180980560Y-44755957D01*
X181053652Y-44864320D01*
X181135177Y-44985186D01*
X181323133Y-45193932D01*
X181538312Y-45374489D01*
X181776526Y-45523341D01*
X182033137Y-45637592D01*
X182303152Y-45715017D01*
X182307502Y-45715628D01*
X182307505Y-45715629D01*
X182410452Y-45730097D01*
X182581314Y-45754110D01*
X182791908Y-45754110D01*
X182794094Y-45753957D01*
X182794098Y-45753957D01*
X182997589Y-45739728D01*
X182997594Y-45739727D01*
X183001974Y-45739421D01*
X183276732Y-45681019D01*
X183280861Y-45679516D01*
X183280865Y-45679515D01*
X183536543Y-45586456D01*
X183536547Y-45586454D01*
X183540688Y-45584947D01*
X183788704Y-45453074D01*
X183893658Y-45376821D01*
X184012391Y-45290557D01*
X184012394Y-45290554D01*
X184015954Y-45287968D01*
X184218014Y-45092841D01*
X184390950Y-44871492D01*
X184393146Y-44867688D01*
X184393151Y-44867681D01*
X184529197Y-44632041D01*
X184531398Y-44628229D01*
X184636624Y-44367786D01*
X184670306Y-44232697D01*
X184703515Y-44099503D01*
X184703516Y-44099498D01*
X184704579Y-44095234D01*
X184719280Y-43955367D01*
X184733481Y-43820246D01*
X184733481Y-43820243D01*
X184733940Y-43815877D01*
X184726039Y-43589609D01*
X184724291Y-43539549D01*
X184724290Y-43539543D01*
X184724137Y-43535152D01*
X184700370Y-43400359D01*
X184676122Y-43262846D01*
X184675360Y-43258523D01*
X184588559Y-42991375D01*
X184465422Y-42738908D01*
X184462967Y-42735269D01*
X184462964Y-42735263D01*
X184382697Y-42616263D01*
X184308347Y-42506034D01*
X184120391Y-42297288D01*
X183905212Y-42116731D01*
X183666998Y-41967879D01*
X183410387Y-41853628D01*
X183140372Y-41776203D01*
X183136022Y-41775592D01*
X183136019Y-41775591D01*
X183033072Y-41761123D01*
X182862210Y-41737110D01*
X182651616Y-41737110D01*
X182649430Y-41737263D01*
X182649426Y-41737263D01*
X182445935Y-41751492D01*
X182445930Y-41751493D01*
X182441550Y-41751799D01*
X182166792Y-41810201D01*
X182162663Y-41811704D01*
X182162659Y-41811705D01*
X181906981Y-41904764D01*
X181906977Y-41904766D01*
X181902836Y-41906273D01*
X181654820Y-42038146D01*
X181651261Y-42040732D01*
X181651259Y-42040733D01*
X181546657Y-42116731D01*
X181427570Y-42203252D01*
X181424406Y-42206308D01*
X181424403Y-42206310D01*
X181335627Y-42292041D01*
X181225510Y-42398379D01*
X181052574Y-42619728D01*
X181050378Y-42623532D01*
X181050373Y-42623539D01*
X180975454Y-42753304D01*
X180912126Y-42862991D01*
X180806900Y-43123434D01*
X180805835Y-43127707D01*
X180805834Y-43127709D01*
X180761328Y-43306214D01*
X180738945Y-43395986D01*
X180738486Y-43400354D01*
X180738485Y-43400359D01*
X180710043Y-43670974D01*
X180709584Y-43675343D01*
X133579033Y-43675343D01*
X133576039Y-43589609D01*
X133574291Y-43539549D01*
X133574290Y-43539543D01*
X133574137Y-43535152D01*
X133550370Y-43400359D01*
X133526122Y-43262846D01*
X133525360Y-43258523D01*
X133438559Y-42991375D01*
X133315422Y-42738908D01*
X133312967Y-42735269D01*
X133312964Y-42735263D01*
X133232697Y-42616263D01*
X133158347Y-42506034D01*
X132970391Y-42297288D01*
X132755212Y-42116731D01*
X132516998Y-41967879D01*
X132260387Y-41853628D01*
X131990372Y-41776203D01*
X131986022Y-41775592D01*
X131986019Y-41775591D01*
X131883072Y-41761123D01*
X131712210Y-41737110D01*
X131501616Y-41737110D01*
X131499430Y-41737263D01*
X131499426Y-41737263D01*
X131295935Y-41751492D01*
X131295930Y-41751493D01*
X131291550Y-41751799D01*
X131016792Y-41810201D01*
X131012663Y-41811704D01*
X131012659Y-41811705D01*
X130756981Y-41904764D01*
X130756977Y-41904766D01*
X130752836Y-41906273D01*
X130504820Y-42038146D01*
X130501261Y-42040732D01*
X130501259Y-42040733D01*
X130396657Y-42116731D01*
X130277570Y-42203252D01*
X130274406Y-42206308D01*
X130274403Y-42206310D01*
X130185627Y-42292041D01*
X130075510Y-42398379D01*
X129902574Y-42619728D01*
X129900378Y-42623532D01*
X129900373Y-42623539D01*
X129825454Y-42753304D01*
X129762126Y-42862991D01*
X129656900Y-43123434D01*
X129655835Y-43127707D01*
X129655834Y-43127709D01*
X129611328Y-43306214D01*
X129588945Y-43395986D01*
X129588486Y-43400354D01*
X129588485Y-43400359D01*
X129560043Y-43670974D01*
X129559584Y-43675343D01*
X129009276Y-43675343D01*
X129009824Y-43596689D01*
X129010714Y-43582588D01*
X129042962Y-43313236D01*
X129045424Y-43299332D01*
X129107627Y-43035286D01*
X129111632Y-43021738D01*
X129203007Y-42766320D01*
X129208505Y-42753304D01*
X129327901Y-42509726D01*
X129334822Y-42497407D01*
X129480739Y-42268730D01*
X129488995Y-42257264D01*
X129659598Y-42046362D01*
X129669087Y-42035892D01*
X129862237Y-41845412D01*
X129872838Y-41836070D01*
X129906906Y-41809288D01*
X129949769Y-41775591D01*
X130086092Y-41668421D01*
X130097672Y-41660325D01*
X130228998Y-41579076D01*
X130328363Y-41517601D01*
X130340765Y-41510859D01*
X130585998Y-41394856D01*
X130599083Y-41389543D01*
X130855746Y-41301733D01*
X130869348Y-41297917D01*
X131001789Y-41268656D01*
X131134227Y-41239396D01*
X131148173Y-41237126D01*
X131382738Y-41212348D01*
X131409219Y-41212349D01*
X131410038Y-41212436D01*
X131410043Y-41212436D01*
X131418965Y-41213379D01*
X131434768Y-41210517D01*
X131457222Y-41208500D01*
X182834981Y-41208500D01*
X182857774Y-41210829D01*
G37*
%TD.AperFunction*%
M02*
