%TF.GenerationSoftware,KiCad,Pcbnew,(6.0.7)*%
%TF.CreationDate,2022-12-02T21:15:13-06:00*%
%TF.ProjectId,BPS-Fan,4250532d-4661-46e2-9e6b-696361645f70,rev?*%
%TF.SameCoordinates,Original*%
%TF.FileFunction,Legend,Top*%
%TF.FilePolarity,Positive*%
%FSLAX46Y46*%
G04 Gerber Fmt 4.6, Leading zero omitted, Abs format (unit mm)*
G04 Created by KiCad (PCBNEW (6.0.7)) date 2022-12-02 21:15:13*
%MOMM*%
%LPD*%
G01*
G04 APERTURE LIST*
G04 Aperture macros list*
%AMRoundRect*
0 Rectangle with rounded corners*
0 $1 Rounding radius*
0 $2 $3 $4 $5 $6 $7 $8 $9 X,Y pos of 4 corners*
0 Add a 4 corners polygon primitive as box body*
4,1,4,$2,$3,$4,$5,$6,$7,$8,$9,$2,$3,0*
0 Add four circle primitives for the rounded corners*
1,1,$1+$1,$2,$3*
1,1,$1+$1,$4,$5*
1,1,$1+$1,$6,$7*
1,1,$1+$1,$8,$9*
0 Add four rect primitives between the rounded corners*
20,1,$1+$1,$2,$3,$4,$5,0*
20,1,$1+$1,$4,$5,$6,$7,0*
20,1,$1+$1,$6,$7,$8,$9,0*
20,1,$1+$1,$8,$9,$2,$3,0*%
%AMFreePoly0*
4,1,43,1.580355,1.210355,1.595000,1.175000,1.595000,0.775000,1.580355,0.739645,1.545000,0.725000,0.975000,0.725000,0.975000,0.575000,1.545000,0.575000,1.580355,0.560355,1.595000,0.525000,1.595000,0.125000,1.580355,0.089645,1.545000,0.075000,0.975000,0.075000,0.975000,-0.075000,1.545000,-0.075000,1.580355,-0.089645,1.595000,-0.125000,1.595000,-0.525000,1.580355,-0.560355,
1.545000,-0.575000,0.975000,-0.575000,0.975000,-0.725000,1.545000,-0.725000,1.580355,-0.739645,1.595000,-0.775000,1.595000,-1.175000,1.580355,-1.210355,1.545000,-1.225000,0.925000,-1.225000,0.889645,-1.210355,0.875000,-1.175000,-0.925000,-1.175000,-0.960355,-1.160355,-0.975000,-1.125000,-0.975000,1.125000,-0.960355,1.160355,-0.925000,1.175000,0.875000,1.175000,0.889645,1.210355,
0.925000,1.225000,1.545000,1.225000,1.580355,1.210355,1.580355,1.210355,$1*%
G04 Aperture macros list end*
%ADD10C,0.150000*%
%ADD11C,0.120000*%
%ADD12C,0.152400*%
%ADD13C,3.000000*%
%ADD14RoundRect,0.243750X0.456250X-0.243750X0.456250X0.243750X-0.456250X0.243750X-0.456250X-0.243750X0*%
%ADD15RoundRect,0.243750X-0.456250X0.243750X-0.456250X-0.243750X0.456250X-0.243750X0.456250X0.243750X0*%
%ADD16C,1.270000*%
%ADD17C,1.700000*%
%ADD18RoundRect,0.250000X-0.262500X-0.450000X0.262500X-0.450000X0.262500X0.450000X-0.262500X0.450000X0*%
%ADD19RoundRect,0.050000X0.415000X0.200000X-0.415000X0.200000X-0.415000X-0.200000X0.415000X-0.200000X0*%
%ADD20FreePoly0,180.000000*%
%ADD21R,1.041400X1.193800*%
%ADD22RoundRect,0.250000X0.262500X0.450000X-0.262500X0.450000X-0.262500X-0.450000X0.262500X-0.450000X0*%
%ADD23C,1.000000*%
%ADD24RoundRect,0.250001X0.499999X0.499999X-0.499999X0.499999X-0.499999X-0.499999X0.499999X-0.499999X0*%
%ADD25C,1.500000*%
G04 APERTURE END LIST*
D10*
X176782714Y-88019791D02*
X176020809Y-88019791D01*
X180590952Y-75519181D02*
X179829047Y-75519181D01*
X180210000Y-75138229D02*
X180210000Y-75900133D01*
X160302380Y-47567142D02*
X159302380Y-47567142D01*
X159302380Y-47186190D01*
X159350000Y-47090952D01*
X159397619Y-47043333D01*
X159492857Y-46995714D01*
X159635714Y-46995714D01*
X159730952Y-47043333D01*
X159778571Y-47090952D01*
X159826190Y-47186190D01*
X159826190Y-47567142D01*
X159302380Y-46662380D02*
X160302380Y-46424285D01*
X159588095Y-46233809D01*
X160302380Y-46043333D01*
X159302380Y-45805238D01*
X160302380Y-44852857D02*
X159826190Y-45186190D01*
X160302380Y-45424285D02*
X159302380Y-45424285D01*
X159302380Y-45043333D01*
X159350000Y-44948095D01*
X159397619Y-44900476D01*
X159492857Y-44852857D01*
X159635714Y-44852857D01*
X159730952Y-44900476D01*
X159778571Y-44948095D01*
X159826190Y-45043333D01*
X159826190Y-45424285D01*
X159350000Y-43900476D02*
X159302380Y-43995714D01*
X159302380Y-44138571D01*
X159350000Y-44281428D01*
X159445238Y-44376666D01*
X159540476Y-44424285D01*
X159730952Y-44471904D01*
X159873809Y-44471904D01*
X160064285Y-44424285D01*
X160159523Y-44376666D01*
X160254761Y-44281428D01*
X160302380Y-44138571D01*
X160302380Y-44043333D01*
X160254761Y-43900476D01*
X160207142Y-43852857D01*
X159873809Y-43852857D01*
X159873809Y-44043333D01*
X160302380Y-43424285D02*
X159302380Y-43424285D01*
X160302380Y-42852857D01*
X159302380Y-42852857D01*
X160302380Y-42376666D02*
X159302380Y-42376666D01*
X159302380Y-42138571D01*
X159350000Y-41995714D01*
X159445238Y-41900476D01*
X159540476Y-41852857D01*
X159730952Y-41805238D01*
X159873809Y-41805238D01*
X160064285Y-41852857D01*
X160159523Y-41900476D01*
X160254761Y-41995714D01*
X160302380Y-42138571D01*
X160302380Y-42376666D01*
X180225333Y-100140267D02*
X180225333Y-100902172D01*
X179844381Y-100521220D02*
X180606285Y-100521220D01*
X180220333Y-87590267D02*
X180220333Y-88352172D01*
X179839381Y-87971220D02*
X180601285Y-87971220D01*
X154025333Y-58181324D02*
X154025333Y-58514657D01*
X154549142Y-58514657D02*
X153549142Y-58514657D01*
X153549142Y-58038467D01*
X154263428Y-57705133D02*
X154263428Y-57228943D01*
X154549142Y-57800371D02*
X153549142Y-57467038D01*
X154549142Y-57133705D01*
X154549142Y-56800371D02*
X153549142Y-56800371D01*
X154549142Y-56228943D01*
X153549142Y-56228943D01*
X153644381Y-55800371D02*
X153596762Y-55752752D01*
X153549142Y-55657514D01*
X153549142Y-55419419D01*
X153596762Y-55324181D01*
X153644381Y-55276562D01*
X153739619Y-55228943D01*
X153834857Y-55228943D01*
X153977714Y-55276562D01*
X154549142Y-55847990D01*
X154549142Y-55228943D01*
X160202380Y-57029047D02*
X160202380Y-57600476D01*
X160202380Y-57314761D02*
X159202380Y-57314761D01*
X159345238Y-57410000D01*
X159440476Y-57505238D01*
X159488095Y-57600476D01*
X159297619Y-56648095D02*
X159250000Y-56600476D01*
X159202380Y-56505238D01*
X159202380Y-56267142D01*
X159250000Y-56171904D01*
X159297619Y-56124285D01*
X159392857Y-56076666D01*
X159488095Y-56076666D01*
X159630952Y-56124285D01*
X160202380Y-56695714D01*
X160202380Y-56076666D01*
X159202380Y-55790952D02*
X160202380Y-55457619D01*
X159202380Y-55124285D01*
X138178571Y-100140267D02*
X138178571Y-100902172D01*
X137797619Y-100521220D02*
X138559523Y-100521220D01*
X152560952Y-75519181D02*
X151799047Y-75519181D01*
X152180000Y-75138229D02*
X152180000Y-75900133D01*
X133969047Y-75572038D02*
X134730952Y-75572038D01*
X154100333Y-47206324D02*
X154100333Y-47539657D01*
X154624142Y-47539657D02*
X153624142Y-47539657D01*
X153624142Y-47063467D01*
X154338428Y-46730133D02*
X154338428Y-46253943D01*
X154624142Y-46825371D02*
X153624142Y-46492038D01*
X154624142Y-46158705D01*
X154624142Y-45825371D02*
X153624142Y-45825371D01*
X154624142Y-45253943D01*
X153624142Y-45253943D01*
X153957476Y-44349181D02*
X154624142Y-44349181D01*
X153576523Y-44587276D02*
X154290809Y-44825371D01*
X154290809Y-44206324D01*
X152275333Y-100140267D02*
X152275333Y-100902172D01*
X151894381Y-100521220D02*
X152656285Y-100521220D01*
X156778571Y-47095714D02*
X156778571Y-47429047D01*
X157302380Y-47429047D02*
X156302380Y-47429047D01*
X156302380Y-46952857D01*
X157016666Y-46619523D02*
X157016666Y-46143333D01*
X157302380Y-46714761D02*
X156302380Y-46381428D01*
X157302380Y-46048095D01*
X157302380Y-45714761D02*
X156302380Y-45714761D01*
X157302380Y-45143333D01*
X156302380Y-45143333D01*
X156302380Y-44762380D02*
X156302380Y-44143333D01*
X156683333Y-44476666D01*
X156683333Y-44333809D01*
X156730952Y-44238571D01*
X156778571Y-44190952D01*
X156873809Y-44143333D01*
X157111904Y-44143333D01*
X157207142Y-44190952D01*
X157254761Y-44238571D01*
X157302380Y-44333809D01*
X157302380Y-44619523D01*
X157254761Y-44714761D01*
X157207142Y-44762380D01*
X148682714Y-87959791D02*
X147920809Y-87959791D01*
X156678571Y-58095714D02*
X156678571Y-58429047D01*
X157202380Y-58429047D02*
X156202380Y-58429047D01*
X156202380Y-57952857D01*
X156916666Y-57619523D02*
X156916666Y-57143333D01*
X157202380Y-57714761D02*
X156202380Y-57381428D01*
X157202380Y-57048095D01*
X157202380Y-56714761D02*
X156202380Y-56714761D01*
X157202380Y-56143333D01*
X156202380Y-56143333D01*
X157202380Y-55143333D02*
X157202380Y-55714761D01*
X157202380Y-55429047D02*
X156202380Y-55429047D01*
X156345238Y-55524285D01*
X156440476Y-55619523D01*
X156488095Y-55714761D01*
X147899047Y-75582038D02*
X148660952Y-75582038D01*
X166250333Y-100140267D02*
X166250333Y-100902172D01*
X165869381Y-100521220D02*
X166631285Y-100521220D01*
X162792714Y-100519791D02*
X162030809Y-100519791D01*
X148777714Y-100529791D02*
X148015809Y-100529791D01*
X138580952Y-75499181D02*
X137819047Y-75499181D01*
X138200000Y-75118229D02*
X138200000Y-75880133D01*
X144290476Y-109092380D02*
X144290476Y-109901904D01*
X144338095Y-109997142D01*
X144385714Y-110044761D01*
X144480952Y-110092380D01*
X144671428Y-110092380D01*
X144766666Y-110044761D01*
X144814285Y-109997142D01*
X144861904Y-109901904D01*
X144861904Y-109092380D01*
X145195238Y-109092380D02*
X145766666Y-109092380D01*
X145480952Y-110092380D02*
X145480952Y-109092380D01*
X146052380Y-110044761D02*
X146195238Y-110092380D01*
X146433333Y-110092380D01*
X146528571Y-110044761D01*
X146576190Y-109997142D01*
X146623809Y-109901904D01*
X146623809Y-109806666D01*
X146576190Y-109711428D01*
X146528571Y-109663809D01*
X146433333Y-109616190D01*
X146242857Y-109568571D01*
X146147619Y-109520952D01*
X146100000Y-109473333D01*
X146052380Y-109378095D01*
X146052380Y-109282857D01*
X146100000Y-109187619D01*
X146147619Y-109140000D01*
X146242857Y-109092380D01*
X146480952Y-109092380D01*
X146623809Y-109140000D01*
X146909523Y-109092380D02*
X147242857Y-110092380D01*
X147576190Y-109092380D01*
X147766666Y-109092380D02*
X148338095Y-109092380D01*
X148052380Y-110092380D02*
X148052380Y-109092380D01*
X149433333Y-109711428D02*
X150195238Y-109711428D01*
X151766666Y-109568571D02*
X151909523Y-109616190D01*
X151957142Y-109663809D01*
X152004761Y-109759047D01*
X152004761Y-109901904D01*
X151957142Y-109997142D01*
X151909523Y-110044761D01*
X151814285Y-110092380D01*
X151433333Y-110092380D01*
X151433333Y-109092380D01*
X151766666Y-109092380D01*
X151861904Y-109140000D01*
X151909523Y-109187619D01*
X151957142Y-109282857D01*
X151957142Y-109378095D01*
X151909523Y-109473333D01*
X151861904Y-109520952D01*
X151766666Y-109568571D01*
X151433333Y-109568571D01*
X152433333Y-110092380D02*
X152433333Y-109092380D01*
X152814285Y-109092380D01*
X152909523Y-109140000D01*
X152957142Y-109187619D01*
X153004761Y-109282857D01*
X153004761Y-109425714D01*
X152957142Y-109520952D01*
X152909523Y-109568571D01*
X152814285Y-109616190D01*
X152433333Y-109616190D01*
X153385714Y-110044761D02*
X153528571Y-110092380D01*
X153766666Y-110092380D01*
X153861904Y-110044761D01*
X153909523Y-109997142D01*
X153957142Y-109901904D01*
X153957142Y-109806666D01*
X153909523Y-109711428D01*
X153861904Y-109663809D01*
X153766666Y-109616190D01*
X153576190Y-109568571D01*
X153480952Y-109520952D01*
X153433333Y-109473333D01*
X153385714Y-109378095D01*
X153385714Y-109282857D01*
X153433333Y-109187619D01*
X153480952Y-109140000D01*
X153576190Y-109092380D01*
X153814285Y-109092380D01*
X153957142Y-109140000D01*
X143838095Y-111178571D02*
X143504761Y-111178571D01*
X143504761Y-111702380D02*
X143504761Y-110702380D01*
X143980952Y-110702380D01*
X144790476Y-111702380D02*
X144790476Y-111178571D01*
X144742857Y-111083333D01*
X144647619Y-111035714D01*
X144457142Y-111035714D01*
X144361904Y-111083333D01*
X144790476Y-111654761D02*
X144695238Y-111702380D01*
X144457142Y-111702380D01*
X144361904Y-111654761D01*
X144314285Y-111559523D01*
X144314285Y-111464285D01*
X144361904Y-111369047D01*
X144457142Y-111321428D01*
X144695238Y-111321428D01*
X144790476Y-111273809D01*
X145266666Y-111035714D02*
X145266666Y-111702380D01*
X145266666Y-111130952D02*
X145314285Y-111083333D01*
X145409523Y-111035714D01*
X145552380Y-111035714D01*
X145647619Y-111083333D01*
X145695238Y-111178571D01*
X145695238Y-111702380D01*
X147266666Y-111178571D02*
X147409523Y-111226190D01*
X147457142Y-111273809D01*
X147504761Y-111369047D01*
X147504761Y-111511904D01*
X147457142Y-111607142D01*
X147409523Y-111654761D01*
X147314285Y-111702380D01*
X146933333Y-111702380D01*
X146933333Y-110702380D01*
X147266666Y-110702380D01*
X147361904Y-110750000D01*
X147409523Y-110797619D01*
X147457142Y-110892857D01*
X147457142Y-110988095D01*
X147409523Y-111083333D01*
X147361904Y-111130952D01*
X147266666Y-111178571D01*
X146933333Y-111178571D01*
X148076190Y-111702380D02*
X147980952Y-111654761D01*
X147933333Y-111607142D01*
X147885714Y-111511904D01*
X147885714Y-111226190D01*
X147933333Y-111130952D01*
X147980952Y-111083333D01*
X148076190Y-111035714D01*
X148219047Y-111035714D01*
X148314285Y-111083333D01*
X148361904Y-111130952D01*
X148409523Y-111226190D01*
X148409523Y-111511904D01*
X148361904Y-111607142D01*
X148314285Y-111654761D01*
X148219047Y-111702380D01*
X148076190Y-111702380D01*
X149266666Y-111702380D02*
X149266666Y-111178571D01*
X149219047Y-111083333D01*
X149123809Y-111035714D01*
X148933333Y-111035714D01*
X148838095Y-111083333D01*
X149266666Y-111654761D02*
X149171428Y-111702380D01*
X148933333Y-111702380D01*
X148838095Y-111654761D01*
X148790476Y-111559523D01*
X148790476Y-111464285D01*
X148838095Y-111369047D01*
X148933333Y-111321428D01*
X149171428Y-111321428D01*
X149266666Y-111273809D01*
X149742857Y-111702380D02*
X149742857Y-111035714D01*
X149742857Y-111226190D02*
X149790476Y-111130952D01*
X149838095Y-111083333D01*
X149933333Y-111035714D01*
X150028571Y-111035714D01*
X150790476Y-111702380D02*
X150790476Y-110702380D01*
X150790476Y-111654761D02*
X150695238Y-111702380D01*
X150504761Y-111702380D01*
X150409523Y-111654761D01*
X150361904Y-111607142D01*
X150314285Y-111511904D01*
X150314285Y-111226190D01*
X150361904Y-111130952D01*
X150409523Y-111083333D01*
X150504761Y-111035714D01*
X150695238Y-111035714D01*
X150790476Y-111083333D01*
X151933333Y-111035714D02*
X152171428Y-111702380D01*
X152409523Y-111035714D01*
X152742857Y-110797619D02*
X152790476Y-110750000D01*
X152885714Y-110702380D01*
X153123809Y-110702380D01*
X153219047Y-110750000D01*
X153266666Y-110797619D01*
X153314285Y-110892857D01*
X153314285Y-110988095D01*
X153266666Y-111130952D01*
X152695238Y-111702380D01*
X153314285Y-111702380D01*
X153742857Y-111607142D02*
X153790476Y-111654761D01*
X153742857Y-111702380D01*
X153695238Y-111654761D01*
X153742857Y-111607142D01*
X153742857Y-111702380D01*
X154409523Y-110702380D02*
X154504761Y-110702380D01*
X154600000Y-110750000D01*
X154647619Y-110797619D01*
X154695238Y-110892857D01*
X154742857Y-111083333D01*
X154742857Y-111321428D01*
X154695238Y-111511904D01*
X154647619Y-111607142D01*
X154600000Y-111654761D01*
X154504761Y-111702380D01*
X154409523Y-111702380D01*
X154314285Y-111654761D01*
X154266666Y-111607142D01*
X154219047Y-111511904D01*
X154171428Y-111321428D01*
X154171428Y-111083333D01*
X154219047Y-110892857D01*
X154266666Y-110797619D01*
X154314285Y-110750000D01*
X154409523Y-110702380D01*
X145980952Y-112788571D02*
X145647619Y-112788571D01*
X145647619Y-113312380D02*
X145647619Y-112312380D01*
X146123809Y-112312380D01*
X146933333Y-113312380D02*
X146933333Y-112788571D01*
X146885714Y-112693333D01*
X146790476Y-112645714D01*
X146600000Y-112645714D01*
X146504761Y-112693333D01*
X146933333Y-113264761D02*
X146838095Y-113312380D01*
X146600000Y-113312380D01*
X146504761Y-113264761D01*
X146457142Y-113169523D01*
X146457142Y-113074285D01*
X146504761Y-112979047D01*
X146600000Y-112931428D01*
X146838095Y-112931428D01*
X146933333Y-112883809D01*
X147552380Y-113312380D02*
X147457142Y-113264761D01*
X147409523Y-113169523D01*
X147409523Y-112312380D01*
X148076190Y-113312380D02*
X147980952Y-113264761D01*
X147933333Y-113169523D01*
X147933333Y-112312380D01*
X149171428Y-112407619D02*
X149219047Y-112360000D01*
X149314285Y-112312380D01*
X149552380Y-112312380D01*
X149647619Y-112360000D01*
X149695238Y-112407619D01*
X149742857Y-112502857D01*
X149742857Y-112598095D01*
X149695238Y-112740952D01*
X149123809Y-113312380D01*
X149742857Y-113312380D01*
X150361904Y-112312380D02*
X150457142Y-112312380D01*
X150552380Y-112360000D01*
X150600000Y-112407619D01*
X150647619Y-112502857D01*
X150695238Y-112693333D01*
X150695238Y-112931428D01*
X150647619Y-113121904D01*
X150600000Y-113217142D01*
X150552380Y-113264761D01*
X150457142Y-113312380D01*
X150361904Y-113312380D01*
X150266666Y-113264761D01*
X150219047Y-113217142D01*
X150171428Y-113121904D01*
X150123809Y-112931428D01*
X150123809Y-112693333D01*
X150171428Y-112502857D01*
X150219047Y-112407619D01*
X150266666Y-112360000D01*
X150361904Y-112312380D01*
X151076190Y-112407619D02*
X151123809Y-112360000D01*
X151219047Y-112312380D01*
X151457142Y-112312380D01*
X151552380Y-112360000D01*
X151600000Y-112407619D01*
X151647619Y-112502857D01*
X151647619Y-112598095D01*
X151600000Y-112740952D01*
X151028571Y-113312380D01*
X151647619Y-113312380D01*
X152028571Y-112407619D02*
X152076190Y-112360000D01*
X152171428Y-112312380D01*
X152409523Y-112312380D01*
X152504761Y-112360000D01*
X152552380Y-112407619D01*
X152600000Y-112502857D01*
X152600000Y-112598095D01*
X152552380Y-112740952D01*
X151980952Y-113312380D01*
X152600000Y-113312380D01*
X175939047Y-75582038D02*
X176700952Y-75582038D01*
X176717714Y-100529791D02*
X175955809Y-100529791D01*
X143702380Y-47352380D02*
X143226190Y-47352380D01*
X143226190Y-46352380D01*
X144035714Y-47352380D02*
X144035714Y-46352380D01*
X144273809Y-46352380D01*
X144416666Y-46400000D01*
X144511904Y-46495238D01*
X144559523Y-46590476D01*
X144607142Y-46780952D01*
X144607142Y-46923809D01*
X144559523Y-47114285D01*
X144511904Y-47209523D01*
X144416666Y-47304761D01*
X144273809Y-47352380D01*
X144035714Y-47352380D01*
X145607142Y-47352380D02*
X145273809Y-46876190D01*
X145035714Y-47352380D02*
X145035714Y-46352380D01*
X145416666Y-46352380D01*
X145511904Y-46400000D01*
X145559523Y-46447619D01*
X145607142Y-46542857D01*
X145607142Y-46685714D01*
X145559523Y-46780952D01*
X145511904Y-46828571D01*
X145416666Y-46876190D01*
X145035714Y-46876190D01*
X146369047Y-46828571D02*
X146511904Y-46876190D01*
X146559523Y-46923809D01*
X146607142Y-47019047D01*
X146607142Y-47161904D01*
X146559523Y-47257142D01*
X146511904Y-47304761D01*
X146416666Y-47352380D01*
X146035714Y-47352380D01*
X146035714Y-46352380D01*
X146369047Y-46352380D01*
X146464285Y-46400000D01*
X146511904Y-46447619D01*
X146559523Y-46542857D01*
X146559523Y-46638095D01*
X146511904Y-46733333D01*
X146464285Y-46780952D01*
X146369047Y-46828571D01*
X146035714Y-46828571D01*
X147607142Y-47352380D02*
X147273809Y-46876190D01*
X147035714Y-47352380D02*
X147035714Y-46352380D01*
X147416666Y-46352380D01*
X147511904Y-46400000D01*
X147559523Y-46447619D01*
X147607142Y-46542857D01*
X147607142Y-46685714D01*
X147559523Y-46780952D01*
X147511904Y-46828571D01*
X147416666Y-46876190D01*
X147035714Y-46876190D01*
X148035714Y-47352380D02*
X148035714Y-46352380D01*
X148273809Y-46352380D01*
X148416666Y-46400000D01*
X148511904Y-46495238D01*
X148559523Y-46590476D01*
X148607142Y-46780952D01*
X148607142Y-46923809D01*
X148559523Y-47114285D01*
X148511904Y-47209523D01*
X148416666Y-47304761D01*
X148273809Y-47352380D01*
X148035714Y-47352380D01*
X149607142Y-47257142D02*
X149559523Y-47304761D01*
X149416666Y-47352380D01*
X149321428Y-47352380D01*
X149178571Y-47304761D01*
X149083333Y-47209523D01*
X149035714Y-47114285D01*
X148988095Y-46923809D01*
X148988095Y-46780952D01*
X149035714Y-46590476D01*
X149083333Y-46495238D01*
X149178571Y-46400000D01*
X149321428Y-46352380D01*
X149416666Y-46352380D01*
X149559523Y-46400000D01*
X149607142Y-46447619D01*
X150178571Y-47352380D02*
X150083333Y-47304761D01*
X150035714Y-47257142D01*
X149988095Y-47161904D01*
X149988095Y-46876190D01*
X150035714Y-46780952D01*
X150083333Y-46733333D01*
X150178571Y-46685714D01*
X150321428Y-46685714D01*
X150416666Y-46733333D01*
X150464285Y-46780952D01*
X150511904Y-46876190D01*
X150511904Y-47161904D01*
X150464285Y-47257142D01*
X150416666Y-47304761D01*
X150321428Y-47352380D01*
X150178571Y-47352380D01*
X150940476Y-46685714D02*
X150940476Y-47352380D01*
X150940476Y-46780952D02*
X150988095Y-46733333D01*
X151083333Y-46685714D01*
X151226190Y-46685714D01*
X151321428Y-46733333D01*
X151369047Y-46828571D01*
X151369047Y-47352380D01*
X151845238Y-46685714D02*
X151845238Y-47352380D01*
X151845238Y-46780952D02*
X151892857Y-46733333D01*
X151988095Y-46685714D01*
X152130952Y-46685714D01*
X152226190Y-46733333D01*
X152273809Y-46828571D01*
X152273809Y-47352380D01*
X134740952Y-100529791D02*
X133979047Y-100529791D01*
X138175333Y-87640267D02*
X138175333Y-88402172D01*
X137794381Y-88021220D02*
X138556285Y-88021220D01*
X152220333Y-87580267D02*
X152220333Y-88342172D01*
X151839381Y-87961220D02*
X152601285Y-87961220D01*
X134852714Y-88024791D02*
X134090809Y-88024791D01*
X161919047Y-75572038D02*
X162680952Y-75572038D01*
X166560952Y-75509181D02*
X165799047Y-75509181D01*
X166180000Y-75128229D02*
X166180000Y-75890133D01*
X166200333Y-87590267D02*
X166200333Y-88352172D01*
X165819381Y-87971220D02*
X166581285Y-87971220D01*
X162712714Y-87959791D02*
X161950809Y-87959791D01*
%TO.C,R1*%
X169752380Y-49029166D02*
X169276190Y-49362500D01*
X169752380Y-49600595D02*
X168752380Y-49600595D01*
X168752380Y-49219642D01*
X168800000Y-49124404D01*
X168847619Y-49076785D01*
X168942857Y-49029166D01*
X169085714Y-49029166D01*
X169180952Y-49076785D01*
X169228571Y-49124404D01*
X169276190Y-49219642D01*
X169276190Y-49600595D01*
X169752380Y-48076785D02*
X169752380Y-48648214D01*
X169752380Y-48362500D02*
X168752380Y-48362500D01*
X168895238Y-48457738D01*
X168990476Y-48552976D01*
X169038095Y-48648214D01*
%TO.C,LED1*%
X169752380Y-54119047D02*
X169752380Y-54595238D01*
X168752380Y-54595238D01*
X169228571Y-53785714D02*
X169228571Y-53452380D01*
X169752380Y-53309523D02*
X169752380Y-53785714D01*
X168752380Y-53785714D01*
X168752380Y-53309523D01*
X169752380Y-52880952D02*
X168752380Y-52880952D01*
X168752380Y-52642857D01*
X168800000Y-52500000D01*
X168895238Y-52404761D01*
X168990476Y-52357142D01*
X169180952Y-52309523D01*
X169323809Y-52309523D01*
X169514285Y-52357142D01*
X169609523Y-52404761D01*
X169704761Y-52500000D01*
X169752380Y-52642857D01*
X169752380Y-52880952D01*
X169752380Y-51357142D02*
X169752380Y-51928571D01*
X169752380Y-51642857D02*
X168752380Y-51642857D01*
X168895238Y-51738095D01*
X168990476Y-51833333D01*
X169038095Y-51928571D01*
%TO.C,J5*%
X150166666Y-81752990D02*
X150166666Y-82467276D01*
X150119047Y-82610133D01*
X150023809Y-82705371D01*
X149880952Y-82752990D01*
X149785714Y-82752990D01*
X151119047Y-81752990D02*
X150642857Y-81752990D01*
X150595238Y-82229181D01*
X150642857Y-82181562D01*
X150738095Y-82133943D01*
X150976190Y-82133943D01*
X151071428Y-82181562D01*
X151119047Y-82229181D01*
X151166666Y-82324419D01*
X151166666Y-82562514D01*
X151119047Y-82657752D01*
X151071428Y-82705371D01*
X150976190Y-82752990D01*
X150738095Y-82752990D01*
X150642857Y-82705371D01*
X150595238Y-82657752D01*
%TO.C,R4*%
X159509133Y-61447990D02*
X159175800Y-60971800D01*
X158937704Y-61447990D02*
X158937704Y-60447990D01*
X159318657Y-60447990D01*
X159413895Y-60495610D01*
X159461514Y-60543229D01*
X159509133Y-60638467D01*
X159509133Y-60781324D01*
X159461514Y-60876562D01*
X159413895Y-60924181D01*
X159318657Y-60971800D01*
X158937704Y-60971800D01*
X160366276Y-60781324D02*
X160366276Y-61447990D01*
X160128180Y-60400371D02*
X159890085Y-61114657D01*
X160509133Y-61114657D01*
%TO.C,J13*%
X177690476Y-106752990D02*
X177690476Y-107467276D01*
X177642857Y-107610133D01*
X177547619Y-107705371D01*
X177404761Y-107752990D01*
X177309523Y-107752990D01*
X178690476Y-107752990D02*
X178119047Y-107752990D01*
X178404761Y-107752990D02*
X178404761Y-106752990D01*
X178309523Y-106895848D01*
X178214285Y-106991086D01*
X178119047Y-107038705D01*
X179023809Y-106752990D02*
X179642857Y-106752990D01*
X179309523Y-107133943D01*
X179452380Y-107133943D01*
X179547619Y-107181562D01*
X179595238Y-107229181D01*
X179642857Y-107324419D01*
X179642857Y-107562514D01*
X179595238Y-107657752D01*
X179547619Y-107705371D01*
X179452380Y-107752990D01*
X179166666Y-107752990D01*
X179071428Y-107705371D01*
X179023809Y-107657752D01*
%TO.C,J2*%
X136166666Y-81752990D02*
X136166666Y-82467276D01*
X136119047Y-82610133D01*
X136023809Y-82705371D01*
X135880952Y-82752990D01*
X135785714Y-82752990D01*
X136595238Y-81848229D02*
X136642857Y-81800610D01*
X136738095Y-81752990D01*
X136976190Y-81752990D01*
X137071428Y-81800610D01*
X137119047Y-81848229D01*
X137166666Y-81943467D01*
X137166666Y-82038705D01*
X137119047Y-82181562D01*
X136547619Y-82752990D01*
X137166666Y-82752990D01*
%TO.C,Q4*%
X174617261Y-72147619D02*
X174522023Y-72100000D01*
X174426785Y-72004761D01*
X174283928Y-71861904D01*
X174188690Y-71814285D01*
X174093452Y-71814285D01*
X174141071Y-72052380D02*
X174045833Y-72004761D01*
X173950595Y-71909523D01*
X173902976Y-71719047D01*
X173902976Y-71385714D01*
X173950595Y-71195238D01*
X174045833Y-71100000D01*
X174141071Y-71052380D01*
X174331547Y-71052380D01*
X174426785Y-71100000D01*
X174522023Y-71195238D01*
X174569642Y-71385714D01*
X174569642Y-71719047D01*
X174522023Y-71909523D01*
X174426785Y-72004761D01*
X174331547Y-72052380D01*
X174141071Y-72052380D01*
X175426785Y-71385714D02*
X175426785Y-72052380D01*
X175188690Y-71004761D02*
X174950595Y-71719047D01*
X175569642Y-71719047D01*
%TO.C,D4*%
X173974404Y-67552380D02*
X173974404Y-66552380D01*
X174212500Y-66552380D01*
X174355357Y-66600000D01*
X174450595Y-66695238D01*
X174498214Y-66790476D01*
X174545833Y-66980952D01*
X174545833Y-67123809D01*
X174498214Y-67314285D01*
X174450595Y-67409523D01*
X174355357Y-67504761D01*
X174212500Y-67552380D01*
X173974404Y-67552380D01*
X175402976Y-66885714D02*
X175402976Y-67552380D01*
X175164880Y-66504761D02*
X174926785Y-67219047D01*
X175545833Y-67219047D01*
X175620000Y-66202380D02*
X175620000Y-66440476D01*
X175381904Y-66345238D02*
X175620000Y-66440476D01*
X175858095Y-66345238D01*
X175477142Y-66630952D02*
X175620000Y-66440476D01*
X175762857Y-66630952D01*
%TO.C,J8*%
X163511666Y-81752990D02*
X163511666Y-82467276D01*
X163464047Y-82610133D01*
X163368809Y-82705371D01*
X163225952Y-82752990D01*
X163130714Y-82752990D01*
X164130714Y-82181562D02*
X164035476Y-82133943D01*
X163987857Y-82086324D01*
X163940238Y-81991086D01*
X163940238Y-81943467D01*
X163987857Y-81848229D01*
X164035476Y-81800610D01*
X164130714Y-81752990D01*
X164321190Y-81752990D01*
X164416428Y-81800610D01*
X164464047Y-81848229D01*
X164511666Y-81943467D01*
X164511666Y-81991086D01*
X164464047Y-82086324D01*
X164416428Y-82133943D01*
X164321190Y-82181562D01*
X164130714Y-82181562D01*
X164035476Y-82229181D01*
X163987857Y-82276800D01*
X163940238Y-82372038D01*
X163940238Y-82562514D01*
X163987857Y-82657752D01*
X164035476Y-82705371D01*
X164130714Y-82752990D01*
X164321190Y-82752990D01*
X164416428Y-82705371D01*
X164464047Y-82657752D01*
X164511666Y-82562514D01*
X164511666Y-82372038D01*
X164464047Y-82276800D01*
X164416428Y-82229181D01*
X164321190Y-82181562D01*
%TO.C,R9*%
X174545833Y-64452380D02*
X174212500Y-63976190D01*
X173974404Y-64452380D02*
X173974404Y-63452380D01*
X174355357Y-63452380D01*
X174450595Y-63500000D01*
X174498214Y-63547619D01*
X174545833Y-63642857D01*
X174545833Y-63785714D01*
X174498214Y-63880952D01*
X174450595Y-63928571D01*
X174355357Y-63976190D01*
X173974404Y-63976190D01*
X175022023Y-64452380D02*
X175212500Y-64452380D01*
X175307738Y-64404761D01*
X175355357Y-64357142D01*
X175450595Y-64214285D01*
X175498214Y-64023809D01*
X175498214Y-63642857D01*
X175450595Y-63547619D01*
X175402976Y-63500000D01*
X175307738Y-63452380D01*
X175117261Y-63452380D01*
X175022023Y-63500000D01*
X174974404Y-63547619D01*
X174926785Y-63642857D01*
X174926785Y-63880952D01*
X174974404Y-63976190D01*
X175022023Y-64023809D01*
X175117261Y-64071428D01*
X175307738Y-64071428D01*
X175402976Y-64023809D01*
X175450595Y-63976190D01*
X175498214Y-63880952D01*
%TO.C,R2*%
X132233333Y-61597990D02*
X131900000Y-61121800D01*
X131661904Y-61597990D02*
X131661904Y-60597990D01*
X132042857Y-60597990D01*
X132138095Y-60645610D01*
X132185714Y-60693229D01*
X132233333Y-60788467D01*
X132233333Y-60931324D01*
X132185714Y-61026562D01*
X132138095Y-61074181D01*
X132042857Y-61121800D01*
X131661904Y-61121800D01*
X132614285Y-60693229D02*
X132661904Y-60645610D01*
X132757142Y-60597990D01*
X132995238Y-60597990D01*
X133090476Y-60645610D01*
X133138095Y-60693229D01*
X133185714Y-60788467D01*
X133185714Y-60883705D01*
X133138095Y-61026562D01*
X132566666Y-61597990D01*
X133185714Y-61597990D01*
%TO.C,D3*%
X158937704Y-67552380D02*
X158937704Y-66552380D01*
X159175800Y-66552380D01*
X159318657Y-66600000D01*
X159413895Y-66695238D01*
X159461514Y-66790476D01*
X159509133Y-66980952D01*
X159509133Y-67123809D01*
X159461514Y-67314285D01*
X159413895Y-67409523D01*
X159318657Y-67504761D01*
X159175800Y-67552380D01*
X158937704Y-67552380D01*
X159842466Y-66552380D02*
X160461514Y-66552380D01*
X160128180Y-66933333D01*
X160271038Y-66933333D01*
X160366276Y-66980952D01*
X160413895Y-67028571D01*
X160461514Y-67123809D01*
X160461514Y-67361904D01*
X160413895Y-67457142D01*
X160366276Y-67504761D01*
X160271038Y-67552380D01*
X159985323Y-67552380D01*
X159890085Y-67504761D01*
X159842466Y-67457142D01*
X160910000Y-66252380D02*
X160910000Y-66490476D01*
X160671904Y-66395238D02*
X160910000Y-66490476D01*
X161148095Y-66395238D01*
X160767142Y-66680952D02*
X160910000Y-66490476D01*
X161052857Y-66680952D01*
%TO.C,J7*%
X150166666Y-106752990D02*
X150166666Y-107467276D01*
X150119047Y-107610133D01*
X150023809Y-107705371D01*
X149880952Y-107752990D01*
X149785714Y-107752990D01*
X150547619Y-106752990D02*
X151214285Y-106752990D01*
X150785714Y-107752990D01*
%TO.C,J3*%
X136166666Y-94252990D02*
X136166666Y-94967276D01*
X136119047Y-95110133D01*
X136023809Y-95205371D01*
X135880952Y-95252990D01*
X135785714Y-95252990D01*
X136547619Y-94252990D02*
X137166666Y-94252990D01*
X136833333Y-94633943D01*
X136976190Y-94633943D01*
X137071428Y-94681562D01*
X137119047Y-94729181D01*
X137166666Y-94824419D01*
X137166666Y-95062514D01*
X137119047Y-95157752D01*
X137071428Y-95205371D01*
X136976190Y-95252990D01*
X136690476Y-95252990D01*
X136595238Y-95205371D01*
X136547619Y-95157752D01*
%TO.C,D1*%
X131661904Y-67552380D02*
X131661904Y-66552380D01*
X131900000Y-66552380D01*
X132042857Y-66600000D01*
X132138095Y-66695238D01*
X132185714Y-66790476D01*
X132233333Y-66980952D01*
X132233333Y-67123809D01*
X132185714Y-67314285D01*
X132138095Y-67409523D01*
X132042857Y-67504761D01*
X131900000Y-67552380D01*
X131661904Y-67552380D01*
X133185714Y-67552380D02*
X132614285Y-67552380D01*
X132900000Y-67552380D02*
X132900000Y-66552380D01*
X132804761Y-66695238D01*
X132709523Y-66790476D01*
X132614285Y-66838095D01*
X133500000Y-66252380D02*
X133500000Y-66490476D01*
X133261904Y-66395238D02*
X133500000Y-66490476D01*
X133738095Y-66395238D01*
X133357142Y-66680952D02*
X133500000Y-66490476D01*
X133642857Y-66680952D01*
%TO.C,J9*%
X164166666Y-94252990D02*
X164166666Y-94967276D01*
X164119047Y-95110133D01*
X164023809Y-95205371D01*
X163880952Y-95252990D01*
X163785714Y-95252990D01*
X164690476Y-95252990D02*
X164880952Y-95252990D01*
X164976190Y-95205371D01*
X165023809Y-95157752D01*
X165119047Y-95014895D01*
X165166666Y-94824419D01*
X165166666Y-94443467D01*
X165119047Y-94348229D01*
X165071428Y-94300610D01*
X164976190Y-94252990D01*
X164785714Y-94252990D01*
X164690476Y-94300610D01*
X164642857Y-94348229D01*
X164595238Y-94443467D01*
X164595238Y-94681562D01*
X164642857Y-94776800D01*
X164690476Y-94824419D01*
X164785714Y-94872038D01*
X164976190Y-94872038D01*
X165071428Y-94824419D01*
X165119047Y-94776800D01*
X165166666Y-94681562D01*
%TO.C,J1*%
X163952380Y-50133333D02*
X164666666Y-50133333D01*
X164809523Y-50180952D01*
X164904761Y-50276190D01*
X164952380Y-50419047D01*
X164952380Y-50514285D01*
X164952380Y-49133333D02*
X164952380Y-49704761D01*
X164952380Y-49419047D02*
X163952380Y-49419047D01*
X164095238Y-49514285D01*
X164190476Y-49609523D01*
X164238095Y-49704761D01*
%TO.C,J6*%
X150066666Y-94252990D02*
X150066666Y-94967276D01*
X150019047Y-95110133D01*
X149923809Y-95205371D01*
X149780952Y-95252990D01*
X149685714Y-95252990D01*
X150971428Y-94252990D02*
X150780952Y-94252990D01*
X150685714Y-94300610D01*
X150638095Y-94348229D01*
X150542857Y-94491086D01*
X150495238Y-94681562D01*
X150495238Y-95062514D01*
X150542857Y-95157752D01*
X150590476Y-95205371D01*
X150685714Y-95252990D01*
X150876190Y-95252990D01*
X150971428Y-95205371D01*
X151019047Y-95157752D01*
X151066666Y-95062514D01*
X151066666Y-94824419D01*
X151019047Y-94729181D01*
X150971428Y-94681562D01*
X150876190Y-94633943D01*
X150685714Y-94633943D01*
X150590476Y-94681562D01*
X150542857Y-94729181D01*
X150495238Y-94824419D01*
%TO.C,Q1*%
X132304761Y-72147619D02*
X132209523Y-72100000D01*
X132114285Y-72004761D01*
X131971428Y-71861904D01*
X131876190Y-71814285D01*
X131780952Y-71814285D01*
X131828571Y-72052380D02*
X131733333Y-72004761D01*
X131638095Y-71909523D01*
X131590476Y-71719047D01*
X131590476Y-71385714D01*
X131638095Y-71195238D01*
X131733333Y-71100000D01*
X131828571Y-71052380D01*
X132019047Y-71052380D01*
X132114285Y-71100000D01*
X132209523Y-71195238D01*
X132257142Y-71385714D01*
X132257142Y-71719047D01*
X132209523Y-71909523D01*
X132114285Y-72004761D01*
X132019047Y-72052380D01*
X131828571Y-72052380D01*
X133209523Y-72052380D02*
X132638095Y-72052380D01*
X132923809Y-72052380D02*
X132923809Y-71052380D01*
X132828571Y-71195238D01*
X132733333Y-71290476D01*
X132638095Y-71338095D01*
%TO.C,R8*%
X159509133Y-64447990D02*
X159175800Y-63971800D01*
X158937704Y-64447990D02*
X158937704Y-63447990D01*
X159318657Y-63447990D01*
X159413895Y-63495610D01*
X159461514Y-63543229D01*
X159509133Y-63638467D01*
X159509133Y-63781324D01*
X159461514Y-63876562D01*
X159413895Y-63924181D01*
X159318657Y-63971800D01*
X158937704Y-63971800D01*
X160080561Y-63876562D02*
X159985323Y-63828943D01*
X159937704Y-63781324D01*
X159890085Y-63686086D01*
X159890085Y-63638467D01*
X159937704Y-63543229D01*
X159985323Y-63495610D01*
X160080561Y-63447990D01*
X160271038Y-63447990D01*
X160366276Y-63495610D01*
X160413895Y-63543229D01*
X160461514Y-63638467D01*
X160461514Y-63686086D01*
X160413895Y-63781324D01*
X160366276Y-63828943D01*
X160271038Y-63876562D01*
X160080561Y-63876562D01*
X159985323Y-63924181D01*
X159937704Y-63971800D01*
X159890085Y-64067038D01*
X159890085Y-64257514D01*
X159937704Y-64352752D01*
X159985323Y-64400371D01*
X160080561Y-64447990D01*
X160271038Y-64447990D01*
X160366276Y-64400371D01*
X160413895Y-64352752D01*
X160461514Y-64257514D01*
X160461514Y-64067038D01*
X160413895Y-63971800D01*
X160366276Y-63924181D01*
X160271038Y-63876562D01*
%TO.C,R6*%
X132233333Y-64497990D02*
X131900000Y-64021800D01*
X131661904Y-64497990D02*
X131661904Y-63497990D01*
X132042857Y-63497990D01*
X132138095Y-63545610D01*
X132185714Y-63593229D01*
X132233333Y-63688467D01*
X132233333Y-63831324D01*
X132185714Y-63926562D01*
X132138095Y-63974181D01*
X132042857Y-64021800D01*
X131661904Y-64021800D01*
X133090476Y-63497990D02*
X132900000Y-63497990D01*
X132804761Y-63545610D01*
X132757142Y-63593229D01*
X132661904Y-63736086D01*
X132614285Y-63926562D01*
X132614285Y-64307514D01*
X132661904Y-64402752D01*
X132709523Y-64450371D01*
X132804761Y-64497990D01*
X132995238Y-64497990D01*
X133090476Y-64450371D01*
X133138095Y-64402752D01*
X133185714Y-64307514D01*
X133185714Y-64069419D01*
X133138095Y-63974181D01*
X133090476Y-63926562D01*
X132995238Y-63878943D01*
X132804761Y-63878943D01*
X132709523Y-63926562D01*
X132661904Y-63974181D01*
X132614285Y-64069419D01*
%TO.C,Q3*%
X159580561Y-72147619D02*
X159485323Y-72100000D01*
X159390085Y-72004761D01*
X159247228Y-71861904D01*
X159151990Y-71814285D01*
X159056752Y-71814285D01*
X159104371Y-72052380D02*
X159009133Y-72004761D01*
X158913895Y-71909523D01*
X158866276Y-71719047D01*
X158866276Y-71385714D01*
X158913895Y-71195238D01*
X159009133Y-71100000D01*
X159104371Y-71052380D01*
X159294847Y-71052380D01*
X159390085Y-71100000D01*
X159485323Y-71195238D01*
X159532942Y-71385714D01*
X159532942Y-71719047D01*
X159485323Y-71909523D01*
X159390085Y-72004761D01*
X159294847Y-72052380D01*
X159104371Y-72052380D01*
X159866276Y-71052380D02*
X160485323Y-71052380D01*
X160151990Y-71433333D01*
X160294847Y-71433333D01*
X160390085Y-71480952D01*
X160437704Y-71528571D01*
X160485323Y-71623809D01*
X160485323Y-71861904D01*
X160437704Y-71957142D01*
X160390085Y-72004761D01*
X160294847Y-72052380D01*
X160009133Y-72052380D01*
X159913895Y-72004761D01*
X159866276Y-71957142D01*
%TO.C,J4*%
X136066666Y-106852990D02*
X136066666Y-107567276D01*
X136019047Y-107710133D01*
X135923809Y-107805371D01*
X135780952Y-107852990D01*
X135685714Y-107852990D01*
X136971428Y-107186324D02*
X136971428Y-107852990D01*
X136733333Y-106805371D02*
X136495238Y-107519657D01*
X137114285Y-107519657D01*
%TO.C,Q2*%
X146163861Y-72147619D02*
X146068623Y-72100000D01*
X145973385Y-72004761D01*
X145830528Y-71861904D01*
X145735290Y-71814285D01*
X145640052Y-71814285D01*
X145687671Y-72052380D02*
X145592433Y-72004761D01*
X145497195Y-71909523D01*
X145449576Y-71719047D01*
X145449576Y-71385714D01*
X145497195Y-71195238D01*
X145592433Y-71100000D01*
X145687671Y-71052380D01*
X145878147Y-71052380D01*
X145973385Y-71100000D01*
X146068623Y-71195238D01*
X146116242Y-71385714D01*
X146116242Y-71719047D01*
X146068623Y-71909523D01*
X145973385Y-72004761D01*
X145878147Y-72052380D01*
X145687671Y-72052380D01*
X146497195Y-71147619D02*
X146544814Y-71100000D01*
X146640052Y-71052380D01*
X146878147Y-71052380D01*
X146973385Y-71100000D01*
X147021004Y-71147619D01*
X147068623Y-71242857D01*
X147068623Y-71338095D01*
X147021004Y-71480952D01*
X146449576Y-72052380D01*
X147068623Y-72052380D01*
%TO.C,J10*%
X163690476Y-106752990D02*
X163690476Y-107467276D01*
X163642857Y-107610133D01*
X163547619Y-107705371D01*
X163404761Y-107752990D01*
X163309523Y-107752990D01*
X164690476Y-107752990D02*
X164119047Y-107752990D01*
X164404761Y-107752990D02*
X164404761Y-106752990D01*
X164309523Y-106895848D01*
X164214285Y-106991086D01*
X164119047Y-107038705D01*
X165309523Y-106752990D02*
X165404761Y-106752990D01*
X165500000Y-106800610D01*
X165547619Y-106848229D01*
X165595238Y-106943467D01*
X165642857Y-107133943D01*
X165642857Y-107372038D01*
X165595238Y-107562514D01*
X165547619Y-107657752D01*
X165500000Y-107705371D01*
X165404761Y-107752990D01*
X165309523Y-107752990D01*
X165214285Y-107705371D01*
X165166666Y-107657752D01*
X165119047Y-107562514D01*
X165071428Y-107372038D01*
X165071428Y-107133943D01*
X165119047Y-106943467D01*
X165166666Y-106848229D01*
X165214285Y-106800610D01*
X165309523Y-106752990D01*
%TO.C,D2*%
X145521004Y-67552380D02*
X145521004Y-66552380D01*
X145759100Y-66552380D01*
X145901957Y-66600000D01*
X145997195Y-66695238D01*
X146044814Y-66790476D01*
X146092433Y-66980952D01*
X146092433Y-67123809D01*
X146044814Y-67314285D01*
X145997195Y-67409523D01*
X145901957Y-67504761D01*
X145759100Y-67552380D01*
X145521004Y-67552380D01*
X146473385Y-66647619D02*
X146521004Y-66600000D01*
X146616242Y-66552380D01*
X146854338Y-66552380D01*
X146949576Y-66600000D01*
X146997195Y-66647619D01*
X147044814Y-66742857D01*
X147044814Y-66838095D01*
X146997195Y-66980952D01*
X146425766Y-67552380D01*
X147044814Y-67552380D01*
X147500000Y-66252380D02*
X147500000Y-66490476D01*
X147261904Y-66395238D02*
X147500000Y-66490476D01*
X147738095Y-66395238D01*
X147357142Y-66680952D02*
X147500000Y-66490476D01*
X147642857Y-66680952D01*
%TO.C,J12*%
X177690476Y-94252990D02*
X177690476Y-94967276D01*
X177642857Y-95110133D01*
X177547619Y-95205371D01*
X177404761Y-95252990D01*
X177309523Y-95252990D01*
X178690476Y-95252990D02*
X178119047Y-95252990D01*
X178404761Y-95252990D02*
X178404761Y-94252990D01*
X178309523Y-94395848D01*
X178214285Y-94491086D01*
X178119047Y-94538705D01*
X179071428Y-94348229D02*
X179119047Y-94300610D01*
X179214285Y-94252990D01*
X179452380Y-94252990D01*
X179547619Y-94300610D01*
X179595238Y-94348229D01*
X179642857Y-94443467D01*
X179642857Y-94538705D01*
X179595238Y-94681562D01*
X179023809Y-95252990D01*
X179642857Y-95252990D01*
%TO.C,R7*%
X146092433Y-64497990D02*
X145759100Y-64021800D01*
X145521004Y-64497990D02*
X145521004Y-63497990D01*
X145901957Y-63497990D01*
X145997195Y-63545610D01*
X146044814Y-63593229D01*
X146092433Y-63688467D01*
X146092433Y-63831324D01*
X146044814Y-63926562D01*
X145997195Y-63974181D01*
X145901957Y-64021800D01*
X145521004Y-64021800D01*
X146425766Y-63497990D02*
X147092433Y-63497990D01*
X146663861Y-64497990D01*
%TO.C,R3*%
X146092433Y-61597990D02*
X145759100Y-61121800D01*
X145521004Y-61597990D02*
X145521004Y-60597990D01*
X145901957Y-60597990D01*
X145997195Y-60645610D01*
X146044814Y-60693229D01*
X146092433Y-60788467D01*
X146092433Y-60931324D01*
X146044814Y-61026562D01*
X145997195Y-61074181D01*
X145901957Y-61121800D01*
X145521004Y-61121800D01*
X146425766Y-60597990D02*
X147044814Y-60597990D01*
X146711480Y-60978943D01*
X146854338Y-60978943D01*
X146949576Y-61026562D01*
X146997195Y-61074181D01*
X147044814Y-61169419D01*
X147044814Y-61407514D01*
X146997195Y-61502752D01*
X146949576Y-61550371D01*
X146854338Y-61597990D01*
X146568623Y-61597990D01*
X146473385Y-61550371D01*
X146425766Y-61502752D01*
%TO.C,R5*%
X174545833Y-61452380D02*
X174212500Y-60976190D01*
X173974404Y-61452380D02*
X173974404Y-60452380D01*
X174355357Y-60452380D01*
X174450595Y-60500000D01*
X174498214Y-60547619D01*
X174545833Y-60642857D01*
X174545833Y-60785714D01*
X174498214Y-60880952D01*
X174450595Y-60928571D01*
X174355357Y-60976190D01*
X173974404Y-60976190D01*
X175450595Y-60452380D02*
X174974404Y-60452380D01*
X174926785Y-60928571D01*
X174974404Y-60880952D01*
X175069642Y-60833333D01*
X175307738Y-60833333D01*
X175402976Y-60880952D01*
X175450595Y-60928571D01*
X175498214Y-61023809D01*
X175498214Y-61261904D01*
X175450595Y-61357142D01*
X175402976Y-61404761D01*
X175307738Y-61452380D01*
X175069642Y-61452380D01*
X174974404Y-61404761D01*
X174926785Y-61357142D01*
%TO.C,J11*%
X177690476Y-81752990D02*
X177690476Y-82467276D01*
X177642857Y-82610133D01*
X177547619Y-82705371D01*
X177404761Y-82752990D01*
X177309523Y-82752990D01*
X178690476Y-82752990D02*
X178119047Y-82752990D01*
X178404761Y-82752990D02*
X178404761Y-81752990D01*
X178309523Y-81895848D01*
X178214285Y-81991086D01*
X178119047Y-82038705D01*
X179642857Y-82752990D02*
X179071428Y-82752990D01*
X179357142Y-82752990D02*
X179357142Y-81752990D01*
X179261904Y-81895848D01*
X179166666Y-81991086D01*
X179071428Y-82038705D01*
D11*
%TO.C,R1*%
X170290000Y-49121078D02*
X170290000Y-48603922D01*
X171710000Y-49121078D02*
X171710000Y-48603922D01*
%TO.C,LED1*%
X171960000Y-51315000D02*
X170040000Y-51315000D01*
X171960000Y-54000000D02*
X171960000Y-51315000D01*
X170040000Y-51315000D02*
X170040000Y-54000000D01*
D10*
%TO.C,J5*%
X153500000Y-81800610D02*
X153500000Y-80800610D01*
X147500000Y-80800610D02*
X147500000Y-81800610D01*
X144500000Y-81800610D02*
X144500000Y-76900610D01*
X156500000Y-81800610D02*
X153500000Y-81800610D01*
X144500000Y-76900610D02*
X156500000Y-76900610D01*
X147500000Y-81800610D02*
X144500000Y-81800610D01*
X156500000Y-76900610D02*
X156500000Y-81800610D01*
X153500000Y-80800610D02*
X147500000Y-80800610D01*
D11*
%TO.C,R4*%
X165032198Y-61730610D02*
X165486326Y-61730610D01*
X165032198Y-60260610D02*
X165486326Y-60260610D01*
D10*
%TO.C,J13*%
X184500000Y-101900610D02*
X184500000Y-106800610D01*
X172500000Y-101900610D02*
X184500000Y-101900610D01*
X181500000Y-105800610D02*
X175500000Y-105800610D01*
X181500000Y-106800610D02*
X181500000Y-105800610D01*
X172500000Y-106800610D02*
X172500000Y-101900610D01*
X175500000Y-106800610D02*
X172500000Y-106800610D01*
X184500000Y-106800610D02*
X181500000Y-106800610D01*
X175500000Y-105800610D02*
X175500000Y-106800610D01*
%TO.C,J2*%
X133500000Y-81800610D02*
X130500000Y-81800610D01*
X139500000Y-80800610D02*
X133500000Y-80800610D01*
X130500000Y-81800610D02*
X130500000Y-76900610D01*
X142500000Y-81800610D02*
X139500000Y-81800610D01*
X130500000Y-76900610D02*
X142500000Y-76900610D01*
X139500000Y-81800610D02*
X139500000Y-80800610D01*
X133500000Y-80800610D02*
X133500000Y-81800610D01*
X142500000Y-76900610D02*
X142500000Y-81800610D01*
D11*
%TO.C,Q4*%
X180450000Y-73075000D02*
X179720000Y-73075000D01*
X176880000Y-73370000D02*
X179720000Y-73370000D01*
X179720000Y-70125000D02*
X179720000Y-69830000D01*
X179720000Y-69830000D02*
X176880000Y-69830000D01*
X176880000Y-69830000D02*
X176880000Y-70125000D01*
X179720000Y-73370000D02*
X179720000Y-73075000D01*
X176880000Y-73075000D02*
X176880000Y-73370000D01*
D12*
%TO.C,D4*%
X180074800Y-66020500D02*
X176925200Y-66020500D01*
X176925200Y-68179500D02*
X180074800Y-68179500D01*
D10*
%TO.C,J8*%
X161500000Y-81800610D02*
X158500000Y-81800610D01*
X167500000Y-81800610D02*
X167500000Y-80800610D01*
X161500000Y-80800610D02*
X161500000Y-81800610D01*
X170500000Y-76900610D02*
X170500000Y-81800610D01*
X170500000Y-81800610D02*
X167500000Y-81800610D01*
X158500000Y-76900610D02*
X170500000Y-76900610D01*
X158500000Y-81800610D02*
X158500000Y-76900610D01*
X167500000Y-80800610D02*
X161500000Y-80800610D01*
D11*
%TO.C,R9*%
X180186326Y-63265000D02*
X179732198Y-63265000D01*
X180186326Y-64735000D02*
X179732198Y-64735000D01*
%TO.C,R2*%
X137832198Y-61880610D02*
X138286326Y-61880610D01*
X137832198Y-60410610D02*
X138286326Y-60410610D01*
D12*
%TO.C,D3*%
X162270200Y-68179500D02*
X165419800Y-68179500D01*
X165419800Y-66020500D02*
X162270200Y-66020500D01*
D10*
%TO.C,J7*%
X156500000Y-106800610D02*
X153500000Y-106800610D01*
X153500000Y-105800610D02*
X147500000Y-105800610D01*
X144500000Y-106800610D02*
X144500000Y-101900610D01*
X144500000Y-101900610D02*
X156500000Y-101900610D01*
X147500000Y-105800610D02*
X147500000Y-106800610D01*
X153500000Y-106800610D02*
X153500000Y-105800610D01*
X156500000Y-101900610D02*
X156500000Y-106800610D01*
X147500000Y-106800610D02*
X144500000Y-106800610D01*
%TO.C,J3*%
X133500000Y-93300610D02*
X133500000Y-94300610D01*
X142500000Y-89400610D02*
X142500000Y-94300610D01*
X130500000Y-94300610D02*
X130500000Y-89400610D01*
X139500000Y-93300610D02*
X133500000Y-93300610D01*
X133500000Y-94300610D02*
X130500000Y-94300610D01*
X142500000Y-94300610D02*
X139500000Y-94300610D01*
X139500000Y-94300610D02*
X139500000Y-93300610D01*
X130500000Y-89400610D02*
X142500000Y-89400610D01*
D12*
%TO.C,D1*%
X134925200Y-68179500D02*
X138074800Y-68179500D01*
X138074800Y-66020500D02*
X134925200Y-66020500D01*
D10*
%TO.C,J9*%
X161500000Y-94300610D02*
X158500000Y-94300610D01*
X158500000Y-94300610D02*
X158500000Y-89400610D01*
X167500000Y-93300610D02*
X161500000Y-93300610D01*
X167500000Y-94300610D02*
X167500000Y-93300610D01*
X161500000Y-93300610D02*
X161500000Y-94300610D01*
X170500000Y-89400610D02*
X170500000Y-94300610D01*
X158500000Y-89400610D02*
X170500000Y-89400610D01*
X170500000Y-94300610D02*
X167500000Y-94300610D01*
D11*
%TO.C,J1*%
X163235000Y-55380000D02*
X161815000Y-55380000D01*
X151785000Y-55380000D02*
X150365000Y-55380000D01*
X163235000Y-48100000D02*
X163235000Y-47790000D01*
X151785000Y-54880000D02*
X151785000Y-55380000D01*
X161815000Y-54880000D02*
X151785000Y-54880000D01*
X150365000Y-55380000D02*
X150365000Y-49620000D01*
X150365000Y-47790000D02*
X150365000Y-48100000D01*
X163235000Y-47790000D02*
X150365000Y-47790000D01*
X163235000Y-49620000D02*
X163235000Y-55380000D01*
X161815000Y-55380000D02*
X161815000Y-54880000D01*
D10*
%TO.C,J6*%
X147500000Y-93300610D02*
X147500000Y-94300610D01*
X153500000Y-93300610D02*
X147500000Y-93300610D01*
X153500000Y-94300610D02*
X153500000Y-93300610D01*
X156500000Y-89400610D02*
X156500000Y-94300610D01*
X156500000Y-94300610D02*
X153500000Y-94300610D01*
X144500000Y-89400610D02*
X156500000Y-89400610D01*
X144500000Y-94300610D02*
X144500000Y-89400610D01*
X147500000Y-94300610D02*
X144500000Y-94300610D01*
D11*
%TO.C,Q1*%
X137720000Y-73370000D02*
X137720000Y-73075000D01*
X134880000Y-73370000D02*
X137720000Y-73370000D01*
X134880000Y-69830000D02*
X134880000Y-70125000D01*
X134880000Y-73075000D02*
X134880000Y-73370000D01*
X138450000Y-73075000D02*
X137720000Y-73075000D01*
X137720000Y-69830000D02*
X134880000Y-69830000D01*
X137720000Y-70125000D02*
X137720000Y-69830000D01*
%TO.C,R8*%
X165486326Y-64730610D02*
X165032198Y-64730610D01*
X165486326Y-63260610D02*
X165032198Y-63260610D01*
%TO.C,R6*%
X138286326Y-63310610D02*
X137832198Y-63310610D01*
X138286326Y-64780610D02*
X137832198Y-64780610D01*
%TO.C,Q3*%
X165065000Y-70125000D02*
X165065000Y-69830000D01*
X165065000Y-73370000D02*
X165065000Y-73075000D01*
X165795000Y-73075000D02*
X165065000Y-73075000D01*
X162225000Y-73075000D02*
X162225000Y-73370000D01*
X165065000Y-69830000D02*
X162225000Y-69830000D01*
X162225000Y-69830000D02*
X162225000Y-70125000D01*
X162225000Y-73370000D02*
X165065000Y-73370000D01*
D10*
%TO.C,J4*%
X133500000Y-106800610D02*
X130500000Y-106800610D01*
X142500000Y-106800610D02*
X139500000Y-106800610D01*
X130500000Y-101900610D02*
X142500000Y-101900610D01*
X139500000Y-105800610D02*
X133500000Y-105800610D01*
X142500000Y-101900610D02*
X142500000Y-106800610D01*
X133500000Y-105800610D02*
X133500000Y-106800610D01*
X130500000Y-106800610D02*
X130500000Y-101900610D01*
X139500000Y-106800610D02*
X139500000Y-105800610D01*
D11*
%TO.C,Q2*%
X151720000Y-69830000D02*
X148880000Y-69830000D01*
X152450000Y-73075000D02*
X151720000Y-73075000D01*
X148880000Y-69830000D02*
X148880000Y-70125000D01*
X148880000Y-73075000D02*
X148880000Y-73370000D01*
X151720000Y-73370000D02*
X151720000Y-73075000D01*
X148880000Y-73370000D02*
X151720000Y-73370000D01*
X151720000Y-70125000D02*
X151720000Y-69830000D01*
D10*
%TO.C,J10*%
X158500000Y-106800610D02*
X158500000Y-101900610D01*
X170500000Y-101900610D02*
X170500000Y-106800610D01*
X158500000Y-101900610D02*
X170500000Y-101900610D01*
X167500000Y-105800610D02*
X161500000Y-105800610D01*
X161500000Y-106800610D02*
X158500000Y-106800610D01*
X167500000Y-106800610D02*
X167500000Y-105800610D01*
X161500000Y-105800610D02*
X161500000Y-106800610D01*
X170500000Y-106800610D02*
X167500000Y-106800610D01*
D12*
%TO.C,D2*%
X152074800Y-66020500D02*
X148925200Y-66020500D01*
X148925200Y-68179500D02*
X152074800Y-68179500D01*
D10*
%TO.C,J12*%
X172500000Y-89400610D02*
X184500000Y-89400610D01*
X175500000Y-94300610D02*
X172500000Y-94300610D01*
X172500000Y-94300610D02*
X172500000Y-89400610D01*
X181500000Y-94300610D02*
X181500000Y-93300610D01*
X175500000Y-93300610D02*
X175500000Y-94300610D01*
X184500000Y-89400610D02*
X184500000Y-94300610D01*
X181500000Y-93300610D02*
X175500000Y-93300610D01*
X184500000Y-94300610D02*
X181500000Y-94300610D01*
D11*
%TO.C,R7*%
X152161326Y-63285610D02*
X151707198Y-63285610D01*
X152161326Y-64755610D02*
X151707198Y-64755610D01*
%TO.C,R3*%
X151707198Y-61755610D02*
X152161326Y-61755610D01*
X151707198Y-60285610D02*
X152161326Y-60285610D01*
%TO.C,R5*%
X179732198Y-60265000D02*
X180186326Y-60265000D01*
X179732198Y-61735000D02*
X180186326Y-61735000D01*
D10*
%TO.C,J11*%
X175500000Y-81800610D02*
X172500000Y-81800610D01*
X184500000Y-81800610D02*
X181500000Y-81800610D01*
X184500000Y-76900610D02*
X184500000Y-81800610D01*
X181500000Y-80800610D02*
X175500000Y-80800610D01*
X172500000Y-76900610D02*
X184500000Y-76900610D01*
X175500000Y-80800610D02*
X175500000Y-81800610D01*
X181500000Y-81800610D02*
X181500000Y-80800610D01*
X172500000Y-81800610D02*
X172500000Y-76900610D01*
%TD*%
%LPC*%
D13*
%TO.C,H1*%
X133496800Y-45695600D03*
%TD*%
%TO.C,H2*%
X180796762Y-111145610D03*
%TD*%
%TO.C,H4*%
X133496762Y-111145610D03*
%TD*%
%TO.C,H3*%
X180796800Y-45695600D03*
%TD*%
D14*
%TO.C,R1*%
X171000000Y-49800000D03*
X171000000Y-47925000D03*
%TD*%
D15*
%TO.C,LED1*%
X171000000Y-52062500D03*
X171000000Y-53937500D03*
%TD*%
D16*
%TO.C,J5*%
X146000000Y-80760610D03*
X155000000Y-80760610D03*
D17*
X152000000Y-78800610D03*
X149000000Y-78800610D03*
%TD*%
D18*
%TO.C,R4*%
X166171762Y-60995610D03*
X164346762Y-60995610D03*
%TD*%
D16*
%TO.C,J13*%
X183000000Y-105760610D03*
X174000000Y-105760610D03*
D17*
X180000000Y-103800610D03*
X177000000Y-103800610D03*
%TD*%
D16*
%TO.C,J2*%
X141000000Y-80760610D03*
X132000000Y-80760610D03*
D17*
X138000000Y-78800610D03*
X135000000Y-78800610D03*
%TD*%
D19*
%TO.C,Q4*%
X180035000Y-72575000D03*
X180035000Y-71925000D03*
X180035000Y-71275000D03*
X180035000Y-70625000D03*
D20*
X178095000Y-71600000D03*
%TD*%
D21*
%TO.C,D4*%
X180138300Y-67100000D03*
X176861700Y-67100000D03*
%TD*%
D16*
%TO.C,J8*%
X160000000Y-80760610D03*
X169000000Y-80760610D03*
D17*
X166000000Y-78800610D03*
X163000000Y-78800610D03*
%TD*%
D22*
%TO.C,R9*%
X179046762Y-64000000D03*
X180871762Y-64000000D03*
%TD*%
D18*
%TO.C,R2*%
X138971762Y-61145610D03*
X137146762Y-61145610D03*
%TD*%
D21*
%TO.C,D3*%
X165483300Y-67100000D03*
X162206700Y-67100000D03*
%TD*%
D16*
%TO.C,J7*%
X146000000Y-105760610D03*
X155000000Y-105760610D03*
D17*
X152000000Y-103800610D03*
X149000000Y-103800610D03*
%TD*%
D16*
%TO.C,J3*%
X132000000Y-93260610D03*
X141000000Y-93260610D03*
D17*
X138000000Y-91300610D03*
X135000000Y-91300610D03*
%TD*%
D21*
%TO.C,D1*%
X138138300Y-67100000D03*
X134861700Y-67100000D03*
%TD*%
D16*
%TO.C,J9*%
X169000000Y-93260610D03*
X160000000Y-93260610D03*
D17*
X166000000Y-91300610D03*
X163000000Y-91300610D03*
%TD*%
D23*
%TO.C,J1*%
X150800000Y-48860000D03*
X162800000Y-48860000D03*
D24*
X159800000Y-52800000D03*
D25*
X156800000Y-52800000D03*
X153800000Y-52800000D03*
X159800000Y-49800000D03*
X156800000Y-49800000D03*
X153800000Y-49800000D03*
%TD*%
D16*
%TO.C,J6*%
X146000000Y-93260610D03*
X155000000Y-93260610D03*
D17*
X152000000Y-91300610D03*
X149000000Y-91300610D03*
%TD*%
D19*
%TO.C,Q1*%
X138035000Y-72575000D03*
X138035000Y-71925000D03*
X138035000Y-71275000D03*
X138035000Y-70625000D03*
D20*
X136095000Y-71600000D03*
%TD*%
D22*
%TO.C,R8*%
X166171762Y-63995610D03*
X164346762Y-63995610D03*
%TD*%
%TO.C,R6*%
X137146762Y-64045610D03*
X138971762Y-64045610D03*
%TD*%
D19*
%TO.C,Q3*%
X165380000Y-72575000D03*
X165380000Y-71925000D03*
X165380000Y-71275000D03*
X165380000Y-70625000D03*
D20*
X163440000Y-71600000D03*
%TD*%
D16*
%TO.C,J4*%
X141000000Y-105760610D03*
X132000000Y-105760610D03*
D17*
X138000000Y-103800610D03*
X135000000Y-103800610D03*
%TD*%
D19*
%TO.C,Q2*%
X152035000Y-72575000D03*
X152035000Y-71925000D03*
X152035000Y-71275000D03*
X152035000Y-70625000D03*
D20*
X150095000Y-71600000D03*
%TD*%
D16*
%TO.C,J10*%
X160000000Y-105760610D03*
X169000000Y-105760610D03*
D17*
X166000000Y-103800610D03*
X163000000Y-103800610D03*
%TD*%
D21*
%TO.C,D2*%
X152138300Y-67100000D03*
X148861700Y-67100000D03*
%TD*%
D16*
%TO.C,J12*%
X174000000Y-93260610D03*
X183000000Y-93260610D03*
D17*
X180000000Y-91300610D03*
X177000000Y-91300610D03*
%TD*%
D22*
%TO.C,R7*%
X151021762Y-64020610D03*
X152846762Y-64020610D03*
%TD*%
D18*
%TO.C,R3*%
X151021762Y-61020610D03*
X152846762Y-61020610D03*
%TD*%
%TO.C,R5*%
X180871762Y-61000000D03*
X179046762Y-61000000D03*
%TD*%
D16*
%TO.C,J11*%
X183000000Y-80760610D03*
X174000000Y-80760610D03*
D17*
X180000000Y-78800610D03*
X177000000Y-78800610D03*
%TD*%
M02*
