M48
; DRILL file {KiCad (5.1.6)-1} date 08/08/20 15:51:21
; FORMAT={-:-/ absolute / inch / decimal}
; #@! TF.CreationDate,2020-08-08T15:51:21-05:00
; #@! TF.GenerationSoftware,Kicad,Pcbnew,(5.1.6)-1
FMAT,2
INCH
T1C0.0157
T2C0.0394
T3C0.0402
T4C0.0394
T5C0.0500
T6C0.1181
%
G90
G05
T1
X5.65Y-3.07
X5.66Y-2.53
X5.85Y-3.025
X5.875Y-2.5
X6.11Y-2.99
X6.525Y-3.2
X6.55Y-2.675
X6.77Y-2.65
X6.77Y-3.19
T2
X6.1038Y-2.5319
X6.1038Y-2.65
X6.2219Y-2.5319
X6.2219Y-2.65
X6.34Y-2.5319
X6.34Y-2.65
T3
X5.4775Y-2.53
X5.4775Y-2.6481
X6.9425Y-3.0644
X6.9425Y-3.1825
X5.4775Y-3.08
X5.4775Y-3.1981
X6.9375Y-2.5319
X6.9375Y-2.65
T4
X5.9857Y-2.4949
X6.4581Y-2.4949
T5
X5.5547Y-2.4119
X5.5547Y-2.7662
X6.8653Y-2.9463
X6.8653Y-3.3006
X5.5547Y-2.9619
X5.5547Y-3.3162
X6.8603Y-2.4138
X6.8603Y-2.7681
T6
X5.75Y-2.35
X5.75Y-3.35
X6.675Y-2.35
X6.675Y-3.35
T0
M30
