%TF.GenerationSoftware,KiCad,Pcbnew,(5.1.6)-1*%
%TF.CreationDate,2020-08-08T15:51:14-05:00*%
%TF.ProjectId,FanBoard,46616e42-6f61-4726-942e-6b696361645f,rev?*%
%TF.SameCoordinates,Original*%
%TF.FileFunction,Copper,L1,Top*%
%TF.FilePolarity,Positive*%
%FSLAX46Y46*%
G04 Gerber Fmt 4.6, Leading zero omitted, Abs format (unit mm)*
G04 Created by KiCad (PCBNEW (5.1.6)-1) date 2020-08-08 15:51:14*
%MOMM*%
%LPD*%
G01*
G04 APERTURE LIST*
%TA.AperFunction,ComponentPad*%
%ADD10C,1.500000*%
%TD*%
%TA.AperFunction,ComponentPad*%
%ADD11C,1.700000*%
%TD*%
%TA.AperFunction,SMDPad,CuDef*%
%ADD12C,0.100000*%
%TD*%
%TA.AperFunction,SMDPad,CuDef*%
%ADD13R,0.830000X0.400000*%
%TD*%
%TA.AperFunction,SMDPad,CuDef*%
%ADD14R,1.193800X1.041400*%
%TD*%
%TA.AperFunction,ViaPad*%
%ADD15C,0.800000*%
%TD*%
%TA.AperFunction,Conductor*%
%ADD16C,0.500000*%
%TD*%
%TA.AperFunction,Conductor*%
%ADD17C,0.250000*%
%TD*%
%TA.AperFunction,Conductor*%
%ADD18C,0.200000*%
%TD*%
G04 APERTURE END LIST*
%TO.P,R1,2*%
%TO.N,GNDPWR*%
%TA.AperFunction,SMDPad,CuDef*%
G36*
G01*
X161310500Y-76402250D02*
X161310500Y-75489750D01*
G75*
G02*
X161554250Y-75246000I243750J0D01*
G01*
X162041750Y-75246000D01*
G75*
G02*
X162285500Y-75489750I0J-243750D01*
G01*
X162285500Y-76402250D01*
G75*
G02*
X162041750Y-76646000I-243750J0D01*
G01*
X161554250Y-76646000D01*
G75*
G02*
X161310500Y-76402250I0J243750D01*
G01*
G37*
%TD.AperFunction*%
%TO.P,R1,1*%
%TO.N,Net-(LED1-Pad1)*%
%TA.AperFunction,SMDPad,CuDef*%
G36*
G01*
X159435500Y-76402250D02*
X159435500Y-75489750D01*
G75*
G02*
X159679250Y-75246000I243750J0D01*
G01*
X160166750Y-75246000D01*
G75*
G02*
X160410500Y-75489750I0J-243750D01*
G01*
X160410500Y-76402250D01*
G75*
G02*
X160166750Y-76646000I-243750J0D01*
G01*
X159679250Y-76646000D01*
G75*
G02*
X159435500Y-76402250I0J243750D01*
G01*
G37*
%TD.AperFunction*%
%TD*%
%TO.P,LED1,2*%
%TO.N,+12V*%
%TA.AperFunction,SMDPad,CuDef*%
G36*
G01*
X155681500Y-75489750D02*
X155681500Y-76402250D01*
G75*
G02*
X155437750Y-76646000I-243750J0D01*
G01*
X154950250Y-76646000D01*
G75*
G02*
X154706500Y-76402250I0J243750D01*
G01*
X154706500Y-75489750D01*
G75*
G02*
X154950250Y-75246000I243750J0D01*
G01*
X155437750Y-75246000D01*
G75*
G02*
X155681500Y-75489750I0J-243750D01*
G01*
G37*
%TD.AperFunction*%
%TO.P,LED1,1*%
%TO.N,Net-(LED1-Pad1)*%
%TA.AperFunction,SMDPad,CuDef*%
G36*
G01*
X157556500Y-75489750D02*
X157556500Y-76402250D01*
G75*
G02*
X157312750Y-76646000I-243750J0D01*
G01*
X156825250Y-76646000D01*
G75*
G02*
X156581500Y-76402250I0J243750D01*
G01*
X156581500Y-75489750D01*
G75*
G02*
X156825250Y-75246000I243750J0D01*
G01*
X157312750Y-75246000D01*
G75*
G02*
X157556500Y-75489750I0J-243750D01*
G01*
G37*
%TD.AperFunction*%
%TD*%
D10*
%TO.P,J1,6*%
%TO.N,/FAN4*%
X155036000Y-64310000D03*
%TO.P,J1,5*%
%TO.N,/FAN3*%
X158036000Y-64310000D03*
%TO.P,J1,4*%
%TO.N,GNDPWR*%
X161036000Y-64310000D03*
%TO.P,J1,3*%
%TO.N,/FAN2*%
X155036000Y-67310000D03*
%TO.P,J1,2*%
%TO.N,/FAN1*%
X158036000Y-67310000D03*
%TO.P,J1,1*%
%TO.N,+12V*%
%TA.AperFunction,ComponentPad*%
G36*
G01*
X161786000Y-66810000D02*
X161786000Y-67810000D01*
G75*
G02*
X161536000Y-68060000I-250000J0D01*
G01*
X160536000Y-68060000D01*
G75*
G02*
X160286000Y-67810000I0J250000D01*
G01*
X160286000Y-66810000D01*
G75*
G02*
X160536000Y-66560000I250000J0D01*
G01*
X161536000Y-66560000D01*
G75*
G02*
X161786000Y-66810000I0J-250000D01*
G01*
G37*
%TD.AperFunction*%
%TD*%
D11*
%TO.P,J5,2*%
%TO.N,Net-(D4-Pad2)*%
X139128500Y-67262000D03*
%TO.P,J5,1*%
%TO.N,+12V*%
X139128500Y-64262000D03*
%TD*%
%TA.AperFunction,SMDPad,CuDef*%
D12*
%TO.P,Q4,5*%
%TO.N,Net-(D4-Pad2)*%
G36*
X146005000Y-66878500D02*
G01*
X146625000Y-66878500D01*
X146625000Y-66628500D01*
X146005000Y-66628500D01*
X146005000Y-66228500D01*
X146625000Y-66228500D01*
X146625000Y-65978500D01*
X146005000Y-65978500D01*
X146005000Y-65578500D01*
X146625000Y-65578500D01*
X146625000Y-65328500D01*
X146005000Y-65328500D01*
X146005000Y-64928500D01*
X146625000Y-64928500D01*
X146625000Y-64978500D01*
X148475000Y-64978500D01*
X148475000Y-67228500D01*
X146625000Y-67228500D01*
X146625000Y-67278500D01*
X146005000Y-67278500D01*
X146005000Y-66878500D01*
G37*
%TD.AperFunction*%
D13*
%TO.P,Q4,4*%
%TO.N,/FAN4*%
X149490000Y-65128500D03*
%TO.P,Q4,3*%
%TO.N,GNDPWR*%
X149490000Y-65778500D03*
%TO.P,Q4,1*%
X149490000Y-67078500D03*
%TO.P,Q4,2*%
X149490000Y-66428500D03*
%TD*%
%TA.AperFunction,SMDPad,CuDef*%
D12*
%TO.P,Q3,5*%
%TO.N,Net-(D3-Pad2)*%
G36*
X170098000Y-64693500D02*
G01*
X169478000Y-64693500D01*
X169478000Y-64943500D01*
X170098000Y-64943500D01*
X170098000Y-65343500D01*
X169478000Y-65343500D01*
X169478000Y-65593500D01*
X170098000Y-65593500D01*
X170098000Y-65993500D01*
X169478000Y-65993500D01*
X169478000Y-66243500D01*
X170098000Y-66243500D01*
X170098000Y-66643500D01*
X169478000Y-66643500D01*
X169478000Y-66593500D01*
X167628000Y-66593500D01*
X167628000Y-64343500D01*
X169478000Y-64343500D01*
X169478000Y-64293500D01*
X170098000Y-64293500D01*
X170098000Y-64693500D01*
G37*
%TD.AperFunction*%
D13*
%TO.P,Q3,4*%
%TO.N,/FAN3*%
X166613000Y-66443500D03*
%TO.P,Q3,3*%
%TO.N,GNDPWR*%
X166613000Y-65793500D03*
%TO.P,Q3,1*%
X166613000Y-64493500D03*
%TO.P,Q3,2*%
X166613000Y-65143500D03*
%TD*%
%TA.AperFunction,SMDPad,CuDef*%
D12*
%TO.P,Q2,5*%
%TO.N,Net-(D2-Pad2)*%
G36*
X145306500Y-80404000D02*
G01*
X145926500Y-80404000D01*
X145926500Y-80154000D01*
X145306500Y-80154000D01*
X145306500Y-79754000D01*
X145926500Y-79754000D01*
X145926500Y-79504000D01*
X145306500Y-79504000D01*
X145306500Y-79104000D01*
X145926500Y-79104000D01*
X145926500Y-78854000D01*
X145306500Y-78854000D01*
X145306500Y-78454000D01*
X145926500Y-78454000D01*
X145926500Y-78504000D01*
X147776500Y-78504000D01*
X147776500Y-80754000D01*
X145926500Y-80754000D01*
X145926500Y-80804000D01*
X145306500Y-80804000D01*
X145306500Y-80404000D01*
G37*
%TD.AperFunction*%
D13*
%TO.P,Q2,4*%
%TO.N,/FAN2*%
X148791500Y-78654000D03*
%TO.P,Q2,3*%
%TO.N,GNDPWR*%
X148791500Y-79304000D03*
%TO.P,Q2,1*%
X148791500Y-80604000D03*
%TO.P,Q2,2*%
X148791500Y-79954000D03*
%TD*%
%TA.AperFunction,SMDPad,CuDef*%
D12*
%TO.P,Q1,5*%
%TO.N,Net-(D1-Pad2)*%
G36*
X169566000Y-78155500D02*
G01*
X168946000Y-78155500D01*
X168946000Y-78405500D01*
X169566000Y-78405500D01*
X169566000Y-78805500D01*
X168946000Y-78805500D01*
X168946000Y-79055500D01*
X169566000Y-79055500D01*
X169566000Y-79455500D01*
X168946000Y-79455500D01*
X168946000Y-79705500D01*
X169566000Y-79705500D01*
X169566000Y-80105500D01*
X168946000Y-80105500D01*
X168946000Y-80055500D01*
X167096000Y-80055500D01*
X167096000Y-77805500D01*
X168946000Y-77805500D01*
X168946000Y-77755500D01*
X169566000Y-77755500D01*
X169566000Y-78155500D01*
G37*
%TD.AperFunction*%
D13*
%TO.P,Q1,4*%
%TO.N,/FAN1*%
X166081000Y-79905500D03*
%TO.P,Q1,3*%
%TO.N,GNDPWR*%
X166081000Y-79255500D03*
%TO.P,Q1,1*%
X166081000Y-77955500D03*
%TO.P,Q1,2*%
X166081000Y-78605500D03*
%TD*%
D11*
%TO.P,J4,2*%
%TO.N,Net-(D3-Pad2)*%
X176212500Y-64310000D03*
%TO.P,J4,1*%
%TO.N,+12V*%
X176212500Y-67310000D03*
%TD*%
%TO.P,J3,2*%
%TO.N,Net-(D2-Pad2)*%
X139128500Y-81232000D03*
%TO.P,J3,1*%
%TO.N,+12V*%
X139128500Y-78232000D03*
%TD*%
%TO.P,J2,2*%
%TO.N,Net-(D1-Pad2)*%
X176339500Y-77835500D03*
%TO.P,J2,1*%
%TO.N,+12V*%
X176339500Y-80835500D03*
%TD*%
D14*
%TO.P,D1,2*%
%TO.N,Net-(D1-Pad2)*%
X171894500Y-77749400D03*
%TO.P,D1,1*%
%TO.N,+12V*%
X171894500Y-81026000D03*
%TD*%
%TO.P,D2,1*%
%TO.N,+12V*%
X143446500Y-77914500D03*
%TO.P,D2,2*%
%TO.N,Net-(D2-Pad2)*%
X143446500Y-81191100D03*
%TD*%
%TO.P,D3,2*%
%TO.N,Net-(D3-Pad2)*%
X172021500Y-64033400D03*
%TO.P,D3,1*%
%TO.N,+12V*%
X172021500Y-67310000D03*
%TD*%
%TO.P,D4,1*%
%TO.N,+12V*%
X143700500Y-64198500D03*
%TO.P,D4,2*%
%TO.N,Net-(D4-Pad2)*%
X143700500Y-67475100D03*
%TD*%
D15*
%TO.N,+12V*%
X155194000Y-75946000D03*
X143510000Y-77978000D03*
X143764000Y-64262000D03*
X171958000Y-67310000D03*
X171958000Y-81026000D03*
%TO.N,/FAN3*%
X166370000Y-67945000D03*
%TO.N,/FAN4*%
X149225000Y-63500000D03*
%TO.N,/FAN2*%
X148590000Y-76835000D03*
%TO.N,/FAN1*%
X165735000Y-81280000D03*
%TD*%
D16*
%TO.N,Net-(D1-Pad2)*%
X169202100Y-77749400D02*
X171894500Y-77749400D01*
X168021000Y-78930500D02*
X169202100Y-77749400D01*
X176253400Y-77749400D02*
X176339500Y-77835500D01*
X171894500Y-77749400D02*
X176253400Y-77749400D01*
%TO.N,Net-(D2-Pad2)*%
X145289400Y-81191100D02*
X143446500Y-81191100D01*
X146851500Y-79629000D02*
X145289400Y-81191100D01*
X139169400Y-81191100D02*
X139128500Y-81232000D01*
X143446500Y-81191100D02*
X139169400Y-81191100D01*
%TO.N,Net-(D3-Pad2)*%
X169988100Y-64033400D02*
X168553000Y-65468500D01*
X172021500Y-64033400D02*
X169988100Y-64033400D01*
X175935900Y-64033400D02*
X176212500Y-64310000D01*
X172021500Y-64033400D02*
X175935900Y-64033400D01*
%TO.N,Net-(D4-Pad2)*%
X146178400Y-67475100D02*
X143700500Y-67475100D01*
X147550000Y-66103500D02*
X146178400Y-67475100D01*
X139341600Y-67475100D02*
X139128500Y-67262000D01*
X143700500Y-67475100D02*
X139341600Y-67475100D01*
D17*
%TO.N,/FAN3*%
X166370000Y-66686500D02*
X166613000Y-66443500D01*
X166370000Y-67945000D02*
X166370000Y-66686500D01*
%TO.N,/FAN4*%
X149225000Y-63500000D02*
X149225000Y-64863500D01*
X149225000Y-64863500D02*
X149490000Y-65128500D01*
%TO.N,/FAN2*%
X148590000Y-78452500D02*
X148791500Y-78654000D01*
X148590000Y-76835000D02*
X148590000Y-78452500D01*
%TO.N,/FAN1*%
X165735000Y-80251500D02*
X166081000Y-79905500D01*
X165735000Y-81280000D02*
X165735000Y-80251500D01*
%TO.N,Net-(LED1-Pad1)*%
X157069000Y-75946000D02*
X160020000Y-75946000D01*
%TD*%
D18*
%TO.N,GNDPWR*%
G36*
X179253247Y-56224526D02*
G01*
X179429519Y-56277746D01*
X179592091Y-56364187D01*
X179734784Y-56480564D01*
X179852150Y-56622436D01*
X179939724Y-56784401D01*
X179994172Y-56960292D01*
X180015001Y-57158474D01*
X180015000Y-87614103D01*
X179995474Y-87813247D01*
X179942253Y-87989521D01*
X179855812Y-88152093D01*
X179739436Y-88294784D01*
X179597569Y-88412147D01*
X179435598Y-88499724D01*
X179259708Y-88554172D01*
X179061536Y-88575000D01*
X136540897Y-88575000D01*
X136341753Y-88555474D01*
X136165479Y-88502253D01*
X136002907Y-88415812D01*
X135860216Y-88299436D01*
X135742853Y-88157569D01*
X135655276Y-87995598D01*
X135600828Y-87819708D01*
X135580000Y-87621536D01*
X135580000Y-84139911D01*
X140153500Y-84139911D01*
X140153500Y-84324089D01*
X140189432Y-84504729D01*
X140259914Y-84674889D01*
X140362238Y-84828028D01*
X140492472Y-84958262D01*
X140645611Y-85060586D01*
X140815771Y-85131068D01*
X140996411Y-85167000D01*
X141180589Y-85167000D01*
X141361229Y-85131068D01*
X141531389Y-85060586D01*
X141684528Y-84958262D01*
X141730074Y-84912716D01*
X144250000Y-84912716D01*
X144250000Y-85267284D01*
X144319173Y-85615041D01*
X144454861Y-85942620D01*
X144651849Y-86237433D01*
X144902567Y-86488151D01*
X145197380Y-86685139D01*
X145524959Y-86820827D01*
X145872716Y-86890000D01*
X146227284Y-86890000D01*
X146575041Y-86820827D01*
X146902620Y-86685139D01*
X147197433Y-86488151D01*
X147448151Y-86237433D01*
X147645139Y-85942620D01*
X147780827Y-85615041D01*
X147850000Y-85267284D01*
X147850000Y-84912716D01*
X167745000Y-84912716D01*
X167745000Y-85267284D01*
X167814173Y-85615041D01*
X167949861Y-85942620D01*
X168146849Y-86237433D01*
X168397567Y-86488151D01*
X168692380Y-86685139D01*
X169019959Y-86820827D01*
X169367716Y-86890000D01*
X169722284Y-86890000D01*
X170070041Y-86820827D01*
X170397620Y-86685139D01*
X170692433Y-86488151D01*
X170943151Y-86237433D01*
X171140139Y-85942620D01*
X171275827Y-85615041D01*
X171345000Y-85267284D01*
X171345000Y-84912716D01*
X171275827Y-84564959D01*
X171140139Y-84237380D01*
X170943151Y-83942567D01*
X170743995Y-83743411D01*
X173444500Y-83743411D01*
X173444500Y-83927589D01*
X173480432Y-84108229D01*
X173550914Y-84278389D01*
X173653238Y-84431528D01*
X173783472Y-84561762D01*
X173936611Y-84664086D01*
X174106771Y-84734568D01*
X174287411Y-84770500D01*
X174471589Y-84770500D01*
X174652229Y-84734568D01*
X174822389Y-84664086D01*
X174975528Y-84561762D01*
X175105762Y-84431528D01*
X175208086Y-84278389D01*
X175278568Y-84108229D01*
X175314500Y-83927589D01*
X175314500Y-83743411D01*
X175278568Y-83562771D01*
X175208086Y-83392611D01*
X175105762Y-83239472D01*
X174975528Y-83109238D01*
X174822389Y-83006914D01*
X174652229Y-82936432D01*
X174471589Y-82900500D01*
X174287411Y-82900500D01*
X174106771Y-82936432D01*
X173936611Y-83006914D01*
X173783472Y-83109238D01*
X173653238Y-83239472D01*
X173550914Y-83392611D01*
X173480432Y-83562771D01*
X173444500Y-83743411D01*
X170743995Y-83743411D01*
X170692433Y-83691849D01*
X170397620Y-83494861D01*
X170070041Y-83359173D01*
X169722284Y-83290000D01*
X169367716Y-83290000D01*
X169019959Y-83359173D01*
X168692380Y-83494861D01*
X168397567Y-83691849D01*
X168146849Y-83942567D01*
X167949861Y-84237380D01*
X167814173Y-84564959D01*
X167745000Y-84912716D01*
X147850000Y-84912716D01*
X147780827Y-84564959D01*
X147645139Y-84237380D01*
X147448151Y-83942567D01*
X147197433Y-83691849D01*
X146902620Y-83494861D01*
X146575041Y-83359173D01*
X146227284Y-83290000D01*
X145872716Y-83290000D01*
X145524959Y-83359173D01*
X145197380Y-83494861D01*
X144902567Y-83691849D01*
X144651849Y-83942567D01*
X144454861Y-84237380D01*
X144319173Y-84564959D01*
X144250000Y-84912716D01*
X141730074Y-84912716D01*
X141814762Y-84828028D01*
X141917086Y-84674889D01*
X141987568Y-84504729D01*
X142023500Y-84324089D01*
X142023500Y-84139911D01*
X141987568Y-83959271D01*
X141917086Y-83789111D01*
X141814762Y-83635972D01*
X141684528Y-83505738D01*
X141531389Y-83403414D01*
X141361229Y-83332932D01*
X141180589Y-83297000D01*
X140996411Y-83297000D01*
X140815771Y-83332932D01*
X140645611Y-83403414D01*
X140492472Y-83505738D01*
X140362238Y-83635972D01*
X140259914Y-83789111D01*
X140189432Y-83959271D01*
X140153500Y-84139911D01*
X135580000Y-84139911D01*
X135580000Y-81118735D01*
X137978500Y-81118735D01*
X137978500Y-81345265D01*
X138022694Y-81567443D01*
X138109384Y-81776729D01*
X138235237Y-81965082D01*
X138395418Y-82125263D01*
X138583771Y-82251116D01*
X138793057Y-82337806D01*
X139015235Y-82382000D01*
X139241765Y-82382000D01*
X139463943Y-82337806D01*
X139673229Y-82251116D01*
X139861582Y-82125263D01*
X140021763Y-81965082D01*
X140147616Y-81776729D01*
X140162374Y-81741100D01*
X142551035Y-81741100D01*
X142553941Y-81770610D01*
X142571096Y-81827160D01*
X142598953Y-81879277D01*
X142636442Y-81924958D01*
X142682123Y-81962447D01*
X142734240Y-81990304D01*
X142790790Y-82007459D01*
X142849600Y-82013251D01*
X144043400Y-82013251D01*
X144102210Y-82007459D01*
X144158760Y-81990304D01*
X144210877Y-81962447D01*
X144256558Y-81924958D01*
X144294047Y-81879277D01*
X144321904Y-81827160D01*
X144339059Y-81770610D01*
X144341965Y-81741100D01*
X145262392Y-81741100D01*
X145289400Y-81743760D01*
X145316408Y-81741100D01*
X145316418Y-81741100D01*
X145397219Y-81733142D01*
X145500894Y-81701692D01*
X145596442Y-81650621D01*
X145680190Y-81581890D01*
X145697413Y-81560904D01*
X146047261Y-81211056D01*
X165035000Y-81211056D01*
X165035000Y-81348944D01*
X165061901Y-81484182D01*
X165114668Y-81611574D01*
X165191274Y-81726224D01*
X165288776Y-81823726D01*
X165403426Y-81900332D01*
X165530818Y-81953099D01*
X165666056Y-81980000D01*
X165803944Y-81980000D01*
X165939182Y-81953099D01*
X166066574Y-81900332D01*
X166181224Y-81823726D01*
X166278726Y-81726224D01*
X166355332Y-81611574D01*
X166408099Y-81484182D01*
X166435000Y-81348944D01*
X166435000Y-81211056D01*
X166408099Y-81075818D01*
X166355332Y-80948426D01*
X166278726Y-80833776D01*
X166181224Y-80736274D01*
X166160000Y-80722093D01*
X166160000Y-80505300D01*
X170996149Y-80505300D01*
X170996149Y-81546700D01*
X171001941Y-81605510D01*
X171019096Y-81662060D01*
X171046953Y-81714177D01*
X171084442Y-81759858D01*
X171130123Y-81797347D01*
X171182240Y-81825204D01*
X171238790Y-81842359D01*
X171297600Y-81848151D01*
X172491400Y-81848151D01*
X172550210Y-81842359D01*
X172606760Y-81825204D01*
X172658877Y-81797347D01*
X172704558Y-81759858D01*
X172742047Y-81714177D01*
X172769904Y-81662060D01*
X172787059Y-81605510D01*
X172792851Y-81546700D01*
X172792851Y-80722235D01*
X175189500Y-80722235D01*
X175189500Y-80948765D01*
X175233694Y-81170943D01*
X175320384Y-81380229D01*
X175446237Y-81568582D01*
X175606418Y-81728763D01*
X175794771Y-81854616D01*
X176004057Y-81941306D01*
X176226235Y-81985500D01*
X176452765Y-81985500D01*
X176674943Y-81941306D01*
X176884229Y-81854616D01*
X177072582Y-81728763D01*
X177232763Y-81568582D01*
X177358616Y-81380229D01*
X177445306Y-81170943D01*
X177489500Y-80948765D01*
X177489500Y-80722235D01*
X177445306Y-80500057D01*
X177358616Y-80290771D01*
X177232763Y-80102418D01*
X177072582Y-79942237D01*
X176884229Y-79816384D01*
X176674943Y-79729694D01*
X176452765Y-79685500D01*
X176226235Y-79685500D01*
X176004057Y-79729694D01*
X175794771Y-79816384D01*
X175606418Y-79942237D01*
X175446237Y-80102418D01*
X175320384Y-80290771D01*
X175233694Y-80500057D01*
X175189500Y-80722235D01*
X172792851Y-80722235D01*
X172792851Y-80505300D01*
X172787059Y-80446490D01*
X172769904Y-80389940D01*
X172742047Y-80337823D01*
X172704558Y-80292142D01*
X172658877Y-80254653D01*
X172606760Y-80226796D01*
X172550210Y-80209641D01*
X172491400Y-80203849D01*
X171297600Y-80203849D01*
X171238790Y-80209641D01*
X171182240Y-80226796D01*
X171130123Y-80254653D01*
X171084442Y-80292142D01*
X171046953Y-80337823D01*
X171019096Y-80389940D01*
X171001941Y-80446490D01*
X170996149Y-80505300D01*
X166160000Y-80505300D01*
X166160000Y-80427540D01*
X166180589Y-80406951D01*
X166496000Y-80406951D01*
X166554810Y-80401159D01*
X166611360Y-80384004D01*
X166663477Y-80356147D01*
X166709158Y-80318658D01*
X166746647Y-80272977D01*
X166774504Y-80220860D01*
X166791659Y-80164310D01*
X166797451Y-80105500D01*
X166797451Y-80084976D01*
X166800340Y-80114310D01*
X166817495Y-80170861D01*
X166845352Y-80222978D01*
X166882841Y-80268659D01*
X166928522Y-80306148D01*
X166980639Y-80334005D01*
X167037190Y-80351160D01*
X167096000Y-80356952D01*
X168780026Y-80356952D01*
X168830639Y-80384005D01*
X168887190Y-80401160D01*
X168946000Y-80406952D01*
X169566000Y-80406952D01*
X169624810Y-80401160D01*
X169681361Y-80384005D01*
X169733478Y-80356148D01*
X169779159Y-80318659D01*
X169816648Y-80272978D01*
X169844505Y-80220861D01*
X169861660Y-80164310D01*
X169867452Y-80105500D01*
X169867452Y-79705500D01*
X169861660Y-79646690D01*
X169844505Y-79590139D01*
X169839353Y-79580500D01*
X169844505Y-79570861D01*
X169861660Y-79514310D01*
X169867452Y-79455500D01*
X169867452Y-79055500D01*
X169861660Y-78996690D01*
X169844505Y-78940139D01*
X169839353Y-78930500D01*
X169844505Y-78920861D01*
X169861660Y-78864310D01*
X169867452Y-78805500D01*
X169867452Y-78405500D01*
X169861660Y-78346690D01*
X169847314Y-78299400D01*
X170999035Y-78299400D01*
X171001941Y-78328910D01*
X171019096Y-78385460D01*
X171046953Y-78437577D01*
X171084442Y-78483258D01*
X171130123Y-78520747D01*
X171182240Y-78548604D01*
X171238790Y-78565759D01*
X171297600Y-78571551D01*
X172491400Y-78571551D01*
X172550210Y-78565759D01*
X172606760Y-78548604D01*
X172658877Y-78520747D01*
X172704558Y-78483258D01*
X172742047Y-78437577D01*
X172769904Y-78385460D01*
X172787059Y-78328910D01*
X172789965Y-78299400D01*
X175286903Y-78299400D01*
X175320384Y-78380229D01*
X175446237Y-78568582D01*
X175606418Y-78728763D01*
X175794771Y-78854616D01*
X176004057Y-78941306D01*
X176226235Y-78985500D01*
X176452765Y-78985500D01*
X176674943Y-78941306D01*
X176884229Y-78854616D01*
X177072582Y-78728763D01*
X177232763Y-78568582D01*
X177358616Y-78380229D01*
X177445306Y-78170943D01*
X177489500Y-77948765D01*
X177489500Y-77722235D01*
X177445306Y-77500057D01*
X177358616Y-77290771D01*
X177232763Y-77102418D01*
X177072582Y-76942237D01*
X176884229Y-76816384D01*
X176674943Y-76729694D01*
X176452765Y-76685500D01*
X176226235Y-76685500D01*
X176004057Y-76729694D01*
X175794771Y-76816384D01*
X175606418Y-76942237D01*
X175446237Y-77102418D01*
X175381436Y-77199400D01*
X172789965Y-77199400D01*
X172787059Y-77169890D01*
X172769904Y-77113340D01*
X172742047Y-77061223D01*
X172704558Y-77015542D01*
X172658877Y-76978053D01*
X172606760Y-76950196D01*
X172550210Y-76933041D01*
X172491400Y-76927249D01*
X171297600Y-76927249D01*
X171238790Y-76933041D01*
X171182240Y-76950196D01*
X171130123Y-76978053D01*
X171084442Y-77015542D01*
X171046953Y-77061223D01*
X171019096Y-77113340D01*
X171001941Y-77169890D01*
X170999035Y-77199400D01*
X169229111Y-77199400D01*
X169202100Y-77196740D01*
X169175089Y-77199400D01*
X169175082Y-77199400D01*
X169094281Y-77207358D01*
X168990606Y-77238808D01*
X168895058Y-77289879D01*
X168811310Y-77358610D01*
X168794087Y-77379596D01*
X168669635Y-77504048D01*
X167096000Y-77504048D01*
X167037190Y-77509840D01*
X166980639Y-77526995D01*
X166928522Y-77554852D01*
X166882841Y-77592341D01*
X166845352Y-77638022D01*
X166817495Y-77690139D01*
X166800340Y-77746690D01*
X166794548Y-77805500D01*
X166794548Y-79676024D01*
X166791659Y-79646690D01*
X166774504Y-79590140D01*
X166746647Y-79538023D01*
X166709158Y-79492342D01*
X166663477Y-79454853D01*
X166611360Y-79426996D01*
X166554810Y-79409841D01*
X166496000Y-79404049D01*
X165666000Y-79404049D01*
X165607190Y-79409841D01*
X165550640Y-79426996D01*
X165498523Y-79454853D01*
X165452842Y-79492342D01*
X165415353Y-79538023D01*
X165387496Y-79590140D01*
X165370341Y-79646690D01*
X165364549Y-79705500D01*
X165364549Y-80042992D01*
X165350686Y-80068928D01*
X165340453Y-80088073D01*
X165316150Y-80168186D01*
X165307945Y-80251500D01*
X165310001Y-80272376D01*
X165310001Y-80722092D01*
X165288776Y-80736274D01*
X165191274Y-80833776D01*
X165114668Y-80948426D01*
X165061901Y-81075818D01*
X165035000Y-81211056D01*
X146047261Y-81211056D01*
X146202865Y-81055452D01*
X147776500Y-81055452D01*
X147835310Y-81049660D01*
X147891861Y-81032505D01*
X147943978Y-81004648D01*
X147989659Y-80967159D01*
X148027148Y-80921478D01*
X148055005Y-80869361D01*
X148072160Y-80812810D01*
X148077952Y-80754000D01*
X148077952Y-78883476D01*
X148080841Y-78912810D01*
X148097996Y-78969360D01*
X148125853Y-79021477D01*
X148163342Y-79067158D01*
X148209023Y-79104647D01*
X148261140Y-79132504D01*
X148317690Y-79149659D01*
X148376500Y-79155451D01*
X149206500Y-79155451D01*
X149265310Y-79149659D01*
X149321860Y-79132504D01*
X149373977Y-79104647D01*
X149419658Y-79067158D01*
X149457147Y-79021477D01*
X149485004Y-78969360D01*
X149502159Y-78912810D01*
X149507951Y-78854000D01*
X149507951Y-78454000D01*
X149502159Y-78395190D01*
X149485004Y-78338640D01*
X149457147Y-78286523D01*
X149419658Y-78240842D01*
X149373977Y-78203353D01*
X149321860Y-78175496D01*
X149265310Y-78158341D01*
X149206500Y-78152549D01*
X149015000Y-78152549D01*
X149015000Y-77392907D01*
X149036224Y-77378726D01*
X149133726Y-77281224D01*
X149210332Y-77166574D01*
X149263099Y-77039182D01*
X149290000Y-76903944D01*
X149290000Y-76766056D01*
X149263099Y-76630818D01*
X149210332Y-76503426D01*
X149133726Y-76388776D01*
X149036224Y-76291274D01*
X148921574Y-76214668D01*
X148794182Y-76161901D01*
X148658944Y-76135000D01*
X148521056Y-76135000D01*
X148385818Y-76161901D01*
X148258426Y-76214668D01*
X148143776Y-76291274D01*
X148046274Y-76388776D01*
X147969668Y-76503426D01*
X147916901Y-76630818D01*
X147890000Y-76766056D01*
X147890000Y-76903944D01*
X147916901Y-77039182D01*
X147969668Y-77166574D01*
X148046274Y-77281224D01*
X148143776Y-77378726D01*
X148165000Y-77392908D01*
X148165001Y-78239481D01*
X148163342Y-78240842D01*
X148125853Y-78286523D01*
X148097996Y-78338640D01*
X148080841Y-78395190D01*
X148075049Y-78454000D01*
X148075049Y-78474524D01*
X148072160Y-78445190D01*
X148055005Y-78388639D01*
X148027148Y-78336522D01*
X147989659Y-78290841D01*
X147943978Y-78253352D01*
X147891861Y-78225495D01*
X147835310Y-78208340D01*
X147776500Y-78202548D01*
X146092474Y-78202548D01*
X146041861Y-78175495D01*
X145985310Y-78158340D01*
X145926500Y-78152548D01*
X145306500Y-78152548D01*
X145247690Y-78158340D01*
X145191139Y-78175495D01*
X145139022Y-78203352D01*
X145093341Y-78240841D01*
X145055852Y-78286522D01*
X145027995Y-78338639D01*
X145010840Y-78395190D01*
X145005048Y-78454000D01*
X145005048Y-78854000D01*
X145010840Y-78912810D01*
X145027995Y-78969361D01*
X145033147Y-78979000D01*
X145027995Y-78988639D01*
X145010840Y-79045190D01*
X145005048Y-79104000D01*
X145005048Y-79504000D01*
X145010840Y-79562810D01*
X145027995Y-79619361D01*
X145033147Y-79629000D01*
X145027995Y-79638639D01*
X145010840Y-79695190D01*
X145005048Y-79754000D01*
X145005048Y-80154000D01*
X145010840Y-80212810D01*
X145027995Y-80269361D01*
X145033147Y-80279000D01*
X145027995Y-80288639D01*
X145010840Y-80345190D01*
X145005048Y-80404000D01*
X145005048Y-80641100D01*
X144341965Y-80641100D01*
X144339059Y-80611590D01*
X144321904Y-80555040D01*
X144294047Y-80502923D01*
X144256558Y-80457242D01*
X144210877Y-80419753D01*
X144158760Y-80391896D01*
X144102210Y-80374741D01*
X144043400Y-80368949D01*
X142849600Y-80368949D01*
X142790790Y-80374741D01*
X142734240Y-80391896D01*
X142682123Y-80419753D01*
X142636442Y-80457242D01*
X142598953Y-80502923D01*
X142571096Y-80555040D01*
X142553941Y-80611590D01*
X142551035Y-80641100D01*
X140116766Y-80641100D01*
X140021763Y-80498918D01*
X139861582Y-80338737D01*
X139673229Y-80212884D01*
X139463943Y-80126194D01*
X139241765Y-80082000D01*
X139015235Y-80082000D01*
X138793057Y-80126194D01*
X138583771Y-80212884D01*
X138395418Y-80338737D01*
X138235237Y-80498918D01*
X138109384Y-80687271D01*
X138022694Y-80896557D01*
X137978500Y-81118735D01*
X135580000Y-81118735D01*
X135580000Y-78118735D01*
X137978500Y-78118735D01*
X137978500Y-78345265D01*
X138022694Y-78567443D01*
X138109384Y-78776729D01*
X138235237Y-78965082D01*
X138395418Y-79125263D01*
X138583771Y-79251116D01*
X138793057Y-79337806D01*
X139015235Y-79382000D01*
X139241765Y-79382000D01*
X139463943Y-79337806D01*
X139673229Y-79251116D01*
X139861582Y-79125263D01*
X140021763Y-78965082D01*
X140147616Y-78776729D01*
X140234306Y-78567443D01*
X140278500Y-78345265D01*
X140278500Y-78118735D01*
X140234306Y-77896557D01*
X140147616Y-77687271D01*
X140021763Y-77498918D01*
X139916645Y-77393800D01*
X142548149Y-77393800D01*
X142548149Y-78435200D01*
X142553941Y-78494010D01*
X142571096Y-78550560D01*
X142598953Y-78602677D01*
X142636442Y-78648358D01*
X142682123Y-78685847D01*
X142734240Y-78713704D01*
X142790790Y-78730859D01*
X142849600Y-78736651D01*
X144043400Y-78736651D01*
X144102210Y-78730859D01*
X144158760Y-78713704D01*
X144210877Y-78685847D01*
X144256558Y-78648358D01*
X144294047Y-78602677D01*
X144321904Y-78550560D01*
X144339059Y-78494010D01*
X144344851Y-78435200D01*
X144344851Y-77393800D01*
X144339059Y-77334990D01*
X144321904Y-77278440D01*
X144294047Y-77226323D01*
X144256558Y-77180642D01*
X144210877Y-77143153D01*
X144158760Y-77115296D01*
X144102210Y-77098141D01*
X144043400Y-77092349D01*
X142849600Y-77092349D01*
X142790790Y-77098141D01*
X142734240Y-77115296D01*
X142682123Y-77143153D01*
X142636442Y-77180642D01*
X142598953Y-77226323D01*
X142571096Y-77278440D01*
X142553941Y-77334990D01*
X142548149Y-77393800D01*
X139916645Y-77393800D01*
X139861582Y-77338737D01*
X139673229Y-77212884D01*
X139463943Y-77126194D01*
X139241765Y-77082000D01*
X139015235Y-77082000D01*
X138793057Y-77126194D01*
X138583771Y-77212884D01*
X138395418Y-77338737D01*
X138235237Y-77498918D01*
X138109384Y-77687271D01*
X138022694Y-77896557D01*
X137978500Y-78118735D01*
X135580000Y-78118735D01*
X135580000Y-75139911D01*
X140153500Y-75139911D01*
X140153500Y-75324089D01*
X140189432Y-75504729D01*
X140259914Y-75674889D01*
X140362238Y-75828028D01*
X140492472Y-75958262D01*
X140645611Y-76060586D01*
X140815771Y-76131068D01*
X140996411Y-76167000D01*
X141180589Y-76167000D01*
X141361229Y-76131068D01*
X141531389Y-76060586D01*
X141684528Y-75958262D01*
X141814762Y-75828028D01*
X141917086Y-75674889D01*
X141987568Y-75504729D01*
X141990547Y-75489750D01*
X154405049Y-75489750D01*
X154405049Y-76402250D01*
X154415525Y-76508613D01*
X154446550Y-76610889D01*
X154496932Y-76705147D01*
X154564735Y-76787765D01*
X154647353Y-76855568D01*
X154741611Y-76905950D01*
X154843887Y-76936975D01*
X154950250Y-76947451D01*
X155437750Y-76947451D01*
X155544113Y-76936975D01*
X155646389Y-76905950D01*
X155740647Y-76855568D01*
X155823265Y-76787765D01*
X155891068Y-76705147D01*
X155941450Y-76610889D01*
X155972475Y-76508613D01*
X155982951Y-76402250D01*
X155982951Y-75489750D01*
X156280049Y-75489750D01*
X156280049Y-76402250D01*
X156290525Y-76508613D01*
X156321550Y-76610889D01*
X156371932Y-76705147D01*
X156439735Y-76787765D01*
X156522353Y-76855568D01*
X156616611Y-76905950D01*
X156718887Y-76936975D01*
X156825250Y-76947451D01*
X157312750Y-76947451D01*
X157419113Y-76936975D01*
X157521389Y-76905950D01*
X157615647Y-76855568D01*
X157698265Y-76787765D01*
X157766068Y-76705147D01*
X157816450Y-76610889D01*
X157847475Y-76508613D01*
X157857951Y-76402250D01*
X157857951Y-76371000D01*
X159134049Y-76371000D01*
X159134049Y-76402250D01*
X159144525Y-76508613D01*
X159175550Y-76610889D01*
X159225932Y-76705147D01*
X159293735Y-76787765D01*
X159376353Y-76855568D01*
X159470611Y-76905950D01*
X159572887Y-76936975D01*
X159679250Y-76947451D01*
X160166750Y-76947451D01*
X160273113Y-76936975D01*
X160375389Y-76905950D01*
X160469647Y-76855568D01*
X160552265Y-76787765D01*
X160620068Y-76705147D01*
X160670450Y-76610889D01*
X160701475Y-76508613D01*
X160711951Y-76402250D01*
X160711951Y-75489750D01*
X160701475Y-75383387D01*
X160670450Y-75281111D01*
X160620068Y-75186853D01*
X160552265Y-75104235D01*
X160469647Y-75036432D01*
X160375389Y-74986050D01*
X160273113Y-74955025D01*
X160166750Y-74944549D01*
X159679250Y-74944549D01*
X159572887Y-74955025D01*
X159470611Y-74986050D01*
X159376353Y-75036432D01*
X159293735Y-75104235D01*
X159225932Y-75186853D01*
X159175550Y-75281111D01*
X159144525Y-75383387D01*
X159134049Y-75489750D01*
X159134049Y-75521000D01*
X157857951Y-75521000D01*
X157857951Y-75489750D01*
X157847475Y-75383387D01*
X157816450Y-75281111D01*
X157766068Y-75186853D01*
X157698265Y-75104235D01*
X157615647Y-75036432D01*
X157521389Y-74986050D01*
X157419113Y-74955025D01*
X157312750Y-74944549D01*
X156825250Y-74944549D01*
X156718887Y-74955025D01*
X156616611Y-74986050D01*
X156522353Y-75036432D01*
X156439735Y-75104235D01*
X156371932Y-75186853D01*
X156321550Y-75281111D01*
X156290525Y-75383387D01*
X156280049Y-75489750D01*
X155982951Y-75489750D01*
X155972475Y-75383387D01*
X155941450Y-75281111D01*
X155891068Y-75186853D01*
X155823265Y-75104235D01*
X155740647Y-75036432D01*
X155646389Y-74986050D01*
X155544113Y-74955025D01*
X155437750Y-74944549D01*
X154950250Y-74944549D01*
X154843887Y-74955025D01*
X154741611Y-74986050D01*
X154647353Y-75036432D01*
X154564735Y-75104235D01*
X154496932Y-75186853D01*
X154446550Y-75281111D01*
X154415525Y-75383387D01*
X154405049Y-75489750D01*
X141990547Y-75489750D01*
X142023500Y-75324089D01*
X142023500Y-75139911D01*
X141987568Y-74959271D01*
X141917086Y-74789111D01*
X141886551Y-74743411D01*
X173444500Y-74743411D01*
X173444500Y-74927589D01*
X173480432Y-75108229D01*
X173550914Y-75278389D01*
X173653238Y-75431528D01*
X173783472Y-75561762D01*
X173936611Y-75664086D01*
X174106771Y-75734568D01*
X174287411Y-75770500D01*
X174471589Y-75770500D01*
X174652229Y-75734568D01*
X174822389Y-75664086D01*
X174975528Y-75561762D01*
X175105762Y-75431528D01*
X175208086Y-75278389D01*
X175278568Y-75108229D01*
X175314500Y-74927589D01*
X175314500Y-74743411D01*
X175278568Y-74562771D01*
X175208086Y-74392611D01*
X175105762Y-74239472D01*
X174975528Y-74109238D01*
X174822389Y-74006914D01*
X174652229Y-73936432D01*
X174471589Y-73900500D01*
X174287411Y-73900500D01*
X174106771Y-73936432D01*
X173936611Y-74006914D01*
X173783472Y-74109238D01*
X173653238Y-74239472D01*
X173550914Y-74392611D01*
X173480432Y-74562771D01*
X173444500Y-74743411D01*
X141886551Y-74743411D01*
X141814762Y-74635972D01*
X141684528Y-74505738D01*
X141531389Y-74403414D01*
X141361229Y-74332932D01*
X141180589Y-74297000D01*
X140996411Y-74297000D01*
X140815771Y-74332932D01*
X140645611Y-74403414D01*
X140492472Y-74505738D01*
X140362238Y-74635972D01*
X140259914Y-74789111D01*
X140189432Y-74959271D01*
X140153500Y-75139911D01*
X135580000Y-75139911D01*
X135580000Y-70169911D01*
X140153500Y-70169911D01*
X140153500Y-70354089D01*
X140189432Y-70534729D01*
X140259914Y-70704889D01*
X140362238Y-70858028D01*
X140492472Y-70988262D01*
X140645611Y-71090586D01*
X140815771Y-71161068D01*
X140996411Y-71197000D01*
X141180589Y-71197000D01*
X141361229Y-71161068D01*
X141531389Y-71090586D01*
X141684528Y-70988262D01*
X141814762Y-70858028D01*
X141917086Y-70704889D01*
X141987568Y-70534729D01*
X142023500Y-70354089D01*
X142023500Y-70217911D01*
X173317500Y-70217911D01*
X173317500Y-70402089D01*
X173353432Y-70582729D01*
X173423914Y-70752889D01*
X173526238Y-70906028D01*
X173656472Y-71036262D01*
X173809611Y-71138586D01*
X173979771Y-71209068D01*
X174160411Y-71245000D01*
X174344589Y-71245000D01*
X174525229Y-71209068D01*
X174695389Y-71138586D01*
X174848528Y-71036262D01*
X174978762Y-70906028D01*
X175081086Y-70752889D01*
X175151568Y-70582729D01*
X175187500Y-70402089D01*
X175187500Y-70217911D01*
X175151568Y-70037271D01*
X175081086Y-69867111D01*
X174978762Y-69713972D01*
X174848528Y-69583738D01*
X174695389Y-69481414D01*
X174525229Y-69410932D01*
X174344589Y-69375000D01*
X174160411Y-69375000D01*
X173979771Y-69410932D01*
X173809611Y-69481414D01*
X173656472Y-69583738D01*
X173526238Y-69713972D01*
X173423914Y-69867111D01*
X173353432Y-70037271D01*
X173317500Y-70217911D01*
X142023500Y-70217911D01*
X142023500Y-70169911D01*
X141987568Y-69989271D01*
X141917086Y-69819111D01*
X141814762Y-69665972D01*
X141684528Y-69535738D01*
X141531389Y-69433414D01*
X141361229Y-69362932D01*
X141180589Y-69327000D01*
X140996411Y-69327000D01*
X140815771Y-69362932D01*
X140645611Y-69433414D01*
X140492472Y-69535738D01*
X140362238Y-69665972D01*
X140259914Y-69819111D01*
X140189432Y-69989271D01*
X140153500Y-70169911D01*
X135580000Y-70169911D01*
X135580000Y-67148735D01*
X137978500Y-67148735D01*
X137978500Y-67375265D01*
X138022694Y-67597443D01*
X138109384Y-67806729D01*
X138235237Y-67995082D01*
X138395418Y-68155263D01*
X138583771Y-68281116D01*
X138793057Y-68367806D01*
X139015235Y-68412000D01*
X139241765Y-68412000D01*
X139463943Y-68367806D01*
X139673229Y-68281116D01*
X139861582Y-68155263D01*
X139991745Y-68025100D01*
X142805035Y-68025100D01*
X142807941Y-68054610D01*
X142825096Y-68111160D01*
X142852953Y-68163277D01*
X142890442Y-68208958D01*
X142936123Y-68246447D01*
X142988240Y-68274304D01*
X143044790Y-68291459D01*
X143103600Y-68297251D01*
X144297400Y-68297251D01*
X144356210Y-68291459D01*
X144412760Y-68274304D01*
X144464877Y-68246447D01*
X144510558Y-68208958D01*
X144548047Y-68163277D01*
X144575904Y-68111160D01*
X144593059Y-68054610D01*
X144595965Y-68025100D01*
X146151392Y-68025100D01*
X146178400Y-68027760D01*
X146205408Y-68025100D01*
X146205418Y-68025100D01*
X146286219Y-68017142D01*
X146389894Y-67985692D01*
X146485442Y-67934621D01*
X146569190Y-67865890D01*
X146586413Y-67844904D01*
X146901365Y-67529952D01*
X148475000Y-67529952D01*
X148533810Y-67524160D01*
X148590361Y-67507005D01*
X148642478Y-67479148D01*
X148688159Y-67441659D01*
X148725648Y-67395978D01*
X148753505Y-67343861D01*
X148770660Y-67287310D01*
X148776452Y-67228500D01*
X148776452Y-67206584D01*
X153986000Y-67206584D01*
X153986000Y-67413416D01*
X154026350Y-67616274D01*
X154105502Y-67807362D01*
X154220411Y-67979336D01*
X154366664Y-68125589D01*
X154538638Y-68240498D01*
X154729726Y-68319650D01*
X154932584Y-68360000D01*
X155139416Y-68360000D01*
X155342274Y-68319650D01*
X155533362Y-68240498D01*
X155705336Y-68125589D01*
X155851589Y-67979336D01*
X155966498Y-67807362D01*
X156045650Y-67616274D01*
X156086000Y-67413416D01*
X156086000Y-67206584D01*
X156986000Y-67206584D01*
X156986000Y-67413416D01*
X157026350Y-67616274D01*
X157105502Y-67807362D01*
X157220411Y-67979336D01*
X157366664Y-68125589D01*
X157538638Y-68240498D01*
X157729726Y-68319650D01*
X157932584Y-68360000D01*
X158139416Y-68360000D01*
X158342274Y-68319650D01*
X158533362Y-68240498D01*
X158705336Y-68125589D01*
X158851589Y-67979336D01*
X158966498Y-67807362D01*
X159045650Y-67616274D01*
X159086000Y-67413416D01*
X159086000Y-67206584D01*
X159045650Y-67003726D01*
X158966498Y-66812638D01*
X158964736Y-66810000D01*
X159984549Y-66810000D01*
X159984549Y-67810000D01*
X159995145Y-67917583D01*
X160026526Y-68021031D01*
X160077485Y-68116370D01*
X160146065Y-68199935D01*
X160229630Y-68268515D01*
X160324969Y-68319474D01*
X160428417Y-68350855D01*
X160536000Y-68361451D01*
X161536000Y-68361451D01*
X161643583Y-68350855D01*
X161747031Y-68319474D01*
X161842370Y-68268515D01*
X161925935Y-68199935D01*
X161994515Y-68116370D01*
X162045474Y-68021031D01*
X162076855Y-67917583D01*
X162080945Y-67876056D01*
X165670000Y-67876056D01*
X165670000Y-68013944D01*
X165696901Y-68149182D01*
X165749668Y-68276574D01*
X165826274Y-68391224D01*
X165923776Y-68488726D01*
X166038426Y-68565332D01*
X166165818Y-68618099D01*
X166301056Y-68645000D01*
X166438944Y-68645000D01*
X166574182Y-68618099D01*
X166701574Y-68565332D01*
X166816224Y-68488726D01*
X166913726Y-68391224D01*
X166990332Y-68276574D01*
X167043099Y-68149182D01*
X167070000Y-68013944D01*
X167070000Y-67876056D01*
X167043099Y-67740818D01*
X166990332Y-67613426D01*
X166913726Y-67498776D01*
X166816224Y-67401274D01*
X166795000Y-67387093D01*
X166795000Y-66944951D01*
X167028000Y-66944951D01*
X167086810Y-66939159D01*
X167143360Y-66922004D01*
X167195477Y-66894147D01*
X167241158Y-66856658D01*
X167278647Y-66810977D01*
X167306504Y-66758860D01*
X167323659Y-66702310D01*
X167329451Y-66643500D01*
X167329451Y-66622976D01*
X167332340Y-66652310D01*
X167349495Y-66708861D01*
X167377352Y-66760978D01*
X167414841Y-66806659D01*
X167460522Y-66844148D01*
X167512639Y-66872005D01*
X167569190Y-66889160D01*
X167628000Y-66894952D01*
X169312026Y-66894952D01*
X169362639Y-66922005D01*
X169419190Y-66939160D01*
X169478000Y-66944952D01*
X170098000Y-66944952D01*
X170156810Y-66939160D01*
X170213361Y-66922005D01*
X170265478Y-66894148D01*
X170311159Y-66856659D01*
X170348648Y-66810978D01*
X170360235Y-66789300D01*
X171123149Y-66789300D01*
X171123149Y-67830700D01*
X171128941Y-67889510D01*
X171146096Y-67946060D01*
X171173953Y-67998177D01*
X171211442Y-68043858D01*
X171257123Y-68081347D01*
X171309240Y-68109204D01*
X171365790Y-68126359D01*
X171424600Y-68132151D01*
X172618400Y-68132151D01*
X172677210Y-68126359D01*
X172733760Y-68109204D01*
X172785877Y-68081347D01*
X172831558Y-68043858D01*
X172869047Y-67998177D01*
X172896904Y-67946060D01*
X172914059Y-67889510D01*
X172919851Y-67830700D01*
X172919851Y-67196735D01*
X175062500Y-67196735D01*
X175062500Y-67423265D01*
X175106694Y-67645443D01*
X175193384Y-67854729D01*
X175319237Y-68043082D01*
X175479418Y-68203263D01*
X175667771Y-68329116D01*
X175877057Y-68415806D01*
X176099235Y-68460000D01*
X176325765Y-68460000D01*
X176547943Y-68415806D01*
X176757229Y-68329116D01*
X176945582Y-68203263D01*
X177105763Y-68043082D01*
X177231616Y-67854729D01*
X177318306Y-67645443D01*
X177362500Y-67423265D01*
X177362500Y-67196735D01*
X177318306Y-66974557D01*
X177231616Y-66765271D01*
X177105763Y-66576918D01*
X176945582Y-66416737D01*
X176757229Y-66290884D01*
X176547943Y-66204194D01*
X176325765Y-66160000D01*
X176099235Y-66160000D01*
X175877057Y-66204194D01*
X175667771Y-66290884D01*
X175479418Y-66416737D01*
X175319237Y-66576918D01*
X175193384Y-66765271D01*
X175106694Y-66974557D01*
X175062500Y-67196735D01*
X172919851Y-67196735D01*
X172919851Y-66789300D01*
X172914059Y-66730490D01*
X172896904Y-66673940D01*
X172869047Y-66621823D01*
X172831558Y-66576142D01*
X172785877Y-66538653D01*
X172733760Y-66510796D01*
X172677210Y-66493641D01*
X172618400Y-66487849D01*
X171424600Y-66487849D01*
X171365790Y-66493641D01*
X171309240Y-66510796D01*
X171257123Y-66538653D01*
X171211442Y-66576142D01*
X171173953Y-66621823D01*
X171146096Y-66673940D01*
X171128941Y-66730490D01*
X171123149Y-66789300D01*
X170360235Y-66789300D01*
X170376505Y-66758861D01*
X170393660Y-66702310D01*
X170399452Y-66643500D01*
X170399452Y-66243500D01*
X170393660Y-66184690D01*
X170376505Y-66128139D01*
X170371353Y-66118500D01*
X170376505Y-66108861D01*
X170393660Y-66052310D01*
X170399452Y-65993500D01*
X170399452Y-65593500D01*
X170393660Y-65534690D01*
X170376505Y-65478139D01*
X170371353Y-65468500D01*
X170376505Y-65458861D01*
X170393660Y-65402310D01*
X170399452Y-65343500D01*
X170399452Y-64943500D01*
X170393660Y-64884690D01*
X170376505Y-64828139D01*
X170371353Y-64818500D01*
X170376505Y-64808861D01*
X170393660Y-64752310D01*
X170399452Y-64693500D01*
X170399452Y-64583400D01*
X171126035Y-64583400D01*
X171128941Y-64612910D01*
X171146096Y-64669460D01*
X171173953Y-64721577D01*
X171211442Y-64767258D01*
X171257123Y-64804747D01*
X171309240Y-64832604D01*
X171365790Y-64849759D01*
X171424600Y-64855551D01*
X172618400Y-64855551D01*
X172677210Y-64849759D01*
X172733760Y-64832604D01*
X172785877Y-64804747D01*
X172831558Y-64767258D01*
X172869047Y-64721577D01*
X172896904Y-64669460D01*
X172914059Y-64612910D01*
X172916965Y-64583400D01*
X175094353Y-64583400D01*
X175106694Y-64645443D01*
X175193384Y-64854729D01*
X175319237Y-65043082D01*
X175479418Y-65203263D01*
X175667771Y-65329116D01*
X175877057Y-65415806D01*
X176099235Y-65460000D01*
X176325765Y-65460000D01*
X176547943Y-65415806D01*
X176757229Y-65329116D01*
X176945582Y-65203263D01*
X177105763Y-65043082D01*
X177231616Y-64854729D01*
X177318306Y-64645443D01*
X177362500Y-64423265D01*
X177362500Y-64196735D01*
X177318306Y-63974557D01*
X177231616Y-63765271D01*
X177105763Y-63576918D01*
X176945582Y-63416737D01*
X176757229Y-63290884D01*
X176547943Y-63204194D01*
X176325765Y-63160000D01*
X176099235Y-63160000D01*
X175877057Y-63204194D01*
X175667771Y-63290884D01*
X175479418Y-63416737D01*
X175412755Y-63483400D01*
X172916965Y-63483400D01*
X172914059Y-63453890D01*
X172896904Y-63397340D01*
X172869047Y-63345223D01*
X172831558Y-63299542D01*
X172785877Y-63262053D01*
X172733760Y-63234196D01*
X172677210Y-63217041D01*
X172618400Y-63211249D01*
X171424600Y-63211249D01*
X171365790Y-63217041D01*
X171309240Y-63234196D01*
X171257123Y-63262053D01*
X171211442Y-63299542D01*
X171173953Y-63345223D01*
X171146096Y-63397340D01*
X171128941Y-63453890D01*
X171126035Y-63483400D01*
X170015108Y-63483400D01*
X169988100Y-63480740D01*
X169961092Y-63483400D01*
X169961082Y-63483400D01*
X169880281Y-63491358D01*
X169776606Y-63522808D01*
X169703282Y-63562000D01*
X169681058Y-63573879D01*
X169618295Y-63625387D01*
X169618290Y-63625392D01*
X169597310Y-63642610D01*
X169580092Y-63663590D01*
X169201634Y-64042048D01*
X167628000Y-64042048D01*
X167569190Y-64047840D01*
X167512639Y-64064995D01*
X167460522Y-64092852D01*
X167414841Y-64130341D01*
X167377352Y-64176022D01*
X167349495Y-64228139D01*
X167332340Y-64284690D01*
X167326548Y-64343500D01*
X167326548Y-66214024D01*
X167323659Y-66184690D01*
X167306504Y-66128140D01*
X167278647Y-66076023D01*
X167241158Y-66030342D01*
X167195477Y-65992853D01*
X167143360Y-65964996D01*
X167086810Y-65947841D01*
X167028000Y-65942049D01*
X166198000Y-65942049D01*
X166139190Y-65947841D01*
X166082640Y-65964996D01*
X166030523Y-65992853D01*
X165984842Y-66030342D01*
X165947353Y-66076023D01*
X165919496Y-66128140D01*
X165902341Y-66184690D01*
X165896549Y-66243500D01*
X165896549Y-66643500D01*
X165902341Y-66702310D01*
X165919496Y-66758860D01*
X165945001Y-66806576D01*
X165945000Y-67387092D01*
X165923776Y-67401274D01*
X165826274Y-67498776D01*
X165749668Y-67613426D01*
X165696901Y-67740818D01*
X165670000Y-67876056D01*
X162080945Y-67876056D01*
X162087451Y-67810000D01*
X162087451Y-66810000D01*
X162076855Y-66702417D01*
X162045474Y-66598969D01*
X161994515Y-66503630D01*
X161925935Y-66420065D01*
X161842370Y-66351485D01*
X161747031Y-66300526D01*
X161643583Y-66269145D01*
X161536000Y-66258549D01*
X160536000Y-66258549D01*
X160428417Y-66269145D01*
X160324969Y-66300526D01*
X160229630Y-66351485D01*
X160146065Y-66420065D01*
X160077485Y-66503630D01*
X160026526Y-66598969D01*
X159995145Y-66702417D01*
X159984549Y-66810000D01*
X158964736Y-66810000D01*
X158851589Y-66640664D01*
X158705336Y-66494411D01*
X158533362Y-66379502D01*
X158342274Y-66300350D01*
X158139416Y-66260000D01*
X157932584Y-66260000D01*
X157729726Y-66300350D01*
X157538638Y-66379502D01*
X157366664Y-66494411D01*
X157220411Y-66640664D01*
X157105502Y-66812638D01*
X157026350Y-67003726D01*
X156986000Y-67206584D01*
X156086000Y-67206584D01*
X156045650Y-67003726D01*
X155966498Y-66812638D01*
X155851589Y-66640664D01*
X155705336Y-66494411D01*
X155533362Y-66379502D01*
X155342274Y-66300350D01*
X155139416Y-66260000D01*
X154932584Y-66260000D01*
X154729726Y-66300350D01*
X154538638Y-66379502D01*
X154366664Y-66494411D01*
X154220411Y-66640664D01*
X154105502Y-66812638D01*
X154026350Y-67003726D01*
X153986000Y-67206584D01*
X148776452Y-67206584D01*
X148776452Y-65357976D01*
X148779341Y-65387310D01*
X148796496Y-65443860D01*
X148824353Y-65495977D01*
X148861842Y-65541658D01*
X148907523Y-65579147D01*
X148959640Y-65607004D01*
X149016190Y-65624159D01*
X149075000Y-65629951D01*
X149905000Y-65629951D01*
X149963810Y-65624159D01*
X150020360Y-65607004D01*
X150072477Y-65579147D01*
X150118158Y-65541658D01*
X150155647Y-65495977D01*
X150183504Y-65443860D01*
X150200659Y-65387310D01*
X150206451Y-65328500D01*
X150206451Y-64928500D01*
X150200659Y-64869690D01*
X150183504Y-64813140D01*
X150155647Y-64761023D01*
X150118158Y-64715342D01*
X150072477Y-64677853D01*
X150020360Y-64649996D01*
X149963810Y-64632841D01*
X149905000Y-64627049D01*
X149650000Y-64627049D01*
X149650000Y-64206584D01*
X153986000Y-64206584D01*
X153986000Y-64413416D01*
X154026350Y-64616274D01*
X154105502Y-64807362D01*
X154220411Y-64979336D01*
X154366664Y-65125589D01*
X154538638Y-65240498D01*
X154729726Y-65319650D01*
X154932584Y-65360000D01*
X155139416Y-65360000D01*
X155342274Y-65319650D01*
X155533362Y-65240498D01*
X155705336Y-65125589D01*
X155851589Y-64979336D01*
X155966498Y-64807362D01*
X156045650Y-64616274D01*
X156086000Y-64413416D01*
X156086000Y-64206584D01*
X156986000Y-64206584D01*
X156986000Y-64413416D01*
X157026350Y-64616274D01*
X157105502Y-64807362D01*
X157220411Y-64979336D01*
X157366664Y-65125589D01*
X157538638Y-65240498D01*
X157729726Y-65319650D01*
X157932584Y-65360000D01*
X158139416Y-65360000D01*
X158342274Y-65319650D01*
X158533362Y-65240498D01*
X158705336Y-65125589D01*
X158851589Y-64979336D01*
X158966498Y-64807362D01*
X159045650Y-64616274D01*
X159086000Y-64413416D01*
X159086000Y-64206584D01*
X159045650Y-64003726D01*
X158966498Y-63812638D01*
X158851589Y-63640664D01*
X158705336Y-63494411D01*
X158533362Y-63379502D01*
X158342274Y-63300350D01*
X158296308Y-63291207D01*
X163236000Y-63291207D01*
X163236000Y-63448793D01*
X163266743Y-63603351D01*
X163327049Y-63748942D01*
X163414599Y-63879970D01*
X163526030Y-63991401D01*
X163657058Y-64078951D01*
X163802649Y-64139257D01*
X163957207Y-64170000D01*
X164114793Y-64170000D01*
X164269351Y-64139257D01*
X164414942Y-64078951D01*
X164545970Y-63991401D01*
X164657401Y-63879970D01*
X164744951Y-63748942D01*
X164805257Y-63603351D01*
X164836000Y-63448793D01*
X164836000Y-63291207D01*
X164805257Y-63136649D01*
X164744951Y-62991058D01*
X164657401Y-62860030D01*
X164545970Y-62748599D01*
X164414942Y-62661049D01*
X164269351Y-62600743D01*
X164114793Y-62570000D01*
X163957207Y-62570000D01*
X163802649Y-62600743D01*
X163657058Y-62661049D01*
X163526030Y-62748599D01*
X163414599Y-62860030D01*
X163327049Y-62991058D01*
X163266743Y-63136649D01*
X163236000Y-63291207D01*
X158296308Y-63291207D01*
X158139416Y-63260000D01*
X157932584Y-63260000D01*
X157729726Y-63300350D01*
X157538638Y-63379502D01*
X157366664Y-63494411D01*
X157220411Y-63640664D01*
X157105502Y-63812638D01*
X157026350Y-64003726D01*
X156986000Y-64206584D01*
X156086000Y-64206584D01*
X156045650Y-64003726D01*
X155966498Y-63812638D01*
X155851589Y-63640664D01*
X155705336Y-63494411D01*
X155533362Y-63379502D01*
X155342274Y-63300350D01*
X155139416Y-63260000D01*
X154932584Y-63260000D01*
X154729726Y-63300350D01*
X154538638Y-63379502D01*
X154366664Y-63494411D01*
X154220411Y-63640664D01*
X154105502Y-63812638D01*
X154026350Y-64003726D01*
X153986000Y-64206584D01*
X149650000Y-64206584D01*
X149650000Y-64057907D01*
X149671224Y-64043726D01*
X149768726Y-63946224D01*
X149845332Y-63831574D01*
X149898099Y-63704182D01*
X149925000Y-63568944D01*
X149925000Y-63431056D01*
X149898099Y-63295818D01*
X149896190Y-63291207D01*
X151236000Y-63291207D01*
X151236000Y-63448793D01*
X151266743Y-63603351D01*
X151327049Y-63748942D01*
X151414599Y-63879970D01*
X151526030Y-63991401D01*
X151657058Y-64078951D01*
X151802649Y-64139257D01*
X151957207Y-64170000D01*
X152114793Y-64170000D01*
X152269351Y-64139257D01*
X152414942Y-64078951D01*
X152545970Y-63991401D01*
X152657401Y-63879970D01*
X152744951Y-63748942D01*
X152805257Y-63603351D01*
X152836000Y-63448793D01*
X152836000Y-63291207D01*
X152805257Y-63136649D01*
X152744951Y-62991058D01*
X152657401Y-62860030D01*
X152545970Y-62748599D01*
X152414942Y-62661049D01*
X152269351Y-62600743D01*
X152114793Y-62570000D01*
X151957207Y-62570000D01*
X151802649Y-62600743D01*
X151657058Y-62661049D01*
X151526030Y-62748599D01*
X151414599Y-62860030D01*
X151327049Y-62991058D01*
X151266743Y-63136649D01*
X151236000Y-63291207D01*
X149896190Y-63291207D01*
X149845332Y-63168426D01*
X149768726Y-63053776D01*
X149671224Y-62956274D01*
X149556574Y-62879668D01*
X149429182Y-62826901D01*
X149293944Y-62800000D01*
X149156056Y-62800000D01*
X149020818Y-62826901D01*
X148893426Y-62879668D01*
X148778776Y-62956274D01*
X148681274Y-63053776D01*
X148604668Y-63168426D01*
X148551901Y-63295818D01*
X148525000Y-63431056D01*
X148525000Y-63568944D01*
X148551901Y-63704182D01*
X148604668Y-63831574D01*
X148681274Y-63946224D01*
X148778776Y-64043726D01*
X148800000Y-64057908D01*
X148800001Y-64806583D01*
X148796496Y-64813140D01*
X148779341Y-64869690D01*
X148773549Y-64928500D01*
X148773549Y-64949024D01*
X148770660Y-64919690D01*
X148753505Y-64863139D01*
X148725648Y-64811022D01*
X148688159Y-64765341D01*
X148642478Y-64727852D01*
X148590361Y-64699995D01*
X148533810Y-64682840D01*
X148475000Y-64677048D01*
X146790974Y-64677048D01*
X146740361Y-64649995D01*
X146683810Y-64632840D01*
X146625000Y-64627048D01*
X146005000Y-64627048D01*
X145946190Y-64632840D01*
X145889639Y-64649995D01*
X145837522Y-64677852D01*
X145791841Y-64715341D01*
X145754352Y-64761022D01*
X145726495Y-64813139D01*
X145709340Y-64869690D01*
X145703548Y-64928500D01*
X145703548Y-65328500D01*
X145709340Y-65387310D01*
X145726495Y-65443861D01*
X145731647Y-65453500D01*
X145726495Y-65463139D01*
X145709340Y-65519690D01*
X145703548Y-65578500D01*
X145703548Y-65978500D01*
X145709340Y-66037310D01*
X145726495Y-66093861D01*
X145731647Y-66103500D01*
X145726495Y-66113139D01*
X145709340Y-66169690D01*
X145703548Y-66228500D01*
X145703548Y-66628500D01*
X145709340Y-66687310D01*
X145726495Y-66743861D01*
X145731647Y-66753500D01*
X145726495Y-66763139D01*
X145709340Y-66819690D01*
X145703548Y-66878500D01*
X145703548Y-66925100D01*
X144595965Y-66925100D01*
X144593059Y-66895590D01*
X144575904Y-66839040D01*
X144548047Y-66786923D01*
X144510558Y-66741242D01*
X144464877Y-66703753D01*
X144412760Y-66675896D01*
X144356210Y-66658741D01*
X144297400Y-66652949D01*
X143103600Y-66652949D01*
X143044790Y-66658741D01*
X142988240Y-66675896D01*
X142936123Y-66703753D01*
X142890442Y-66741242D01*
X142852953Y-66786923D01*
X142825096Y-66839040D01*
X142807941Y-66895590D01*
X142805035Y-66925100D01*
X140233702Y-66925100D01*
X140147616Y-66717271D01*
X140021763Y-66528918D01*
X139861582Y-66368737D01*
X139673229Y-66242884D01*
X139463943Y-66156194D01*
X139241765Y-66112000D01*
X139015235Y-66112000D01*
X138793057Y-66156194D01*
X138583771Y-66242884D01*
X138395418Y-66368737D01*
X138235237Y-66528918D01*
X138109384Y-66717271D01*
X138022694Y-66926557D01*
X137978500Y-67148735D01*
X135580000Y-67148735D01*
X135580000Y-64148735D01*
X137978500Y-64148735D01*
X137978500Y-64375265D01*
X138022694Y-64597443D01*
X138109384Y-64806729D01*
X138235237Y-64995082D01*
X138395418Y-65155263D01*
X138583771Y-65281116D01*
X138793057Y-65367806D01*
X139015235Y-65412000D01*
X139241765Y-65412000D01*
X139463943Y-65367806D01*
X139673229Y-65281116D01*
X139861582Y-65155263D01*
X140021763Y-64995082D01*
X140147616Y-64806729D01*
X140234306Y-64597443D01*
X140278500Y-64375265D01*
X140278500Y-64148735D01*
X140234306Y-63926557D01*
X140147616Y-63717271D01*
X140121243Y-63677800D01*
X142802149Y-63677800D01*
X142802149Y-64719200D01*
X142807941Y-64778010D01*
X142825096Y-64834560D01*
X142852953Y-64886677D01*
X142890442Y-64932358D01*
X142936123Y-64969847D01*
X142988240Y-64997704D01*
X143044790Y-65014859D01*
X143103600Y-65020651D01*
X144297400Y-65020651D01*
X144356210Y-65014859D01*
X144412760Y-64997704D01*
X144464877Y-64969847D01*
X144510558Y-64932358D01*
X144548047Y-64886677D01*
X144575904Y-64834560D01*
X144593059Y-64778010D01*
X144598851Y-64719200D01*
X144598851Y-63677800D01*
X144593059Y-63618990D01*
X144575904Y-63562440D01*
X144548047Y-63510323D01*
X144510558Y-63464642D01*
X144464877Y-63427153D01*
X144412760Y-63399296D01*
X144356210Y-63382141D01*
X144297400Y-63376349D01*
X143103600Y-63376349D01*
X143044790Y-63382141D01*
X142988240Y-63399296D01*
X142936123Y-63427153D01*
X142890442Y-63464642D01*
X142852953Y-63510323D01*
X142825096Y-63562440D01*
X142807941Y-63618990D01*
X142802149Y-63677800D01*
X140121243Y-63677800D01*
X140021763Y-63528918D01*
X139861582Y-63368737D01*
X139673229Y-63242884D01*
X139463943Y-63156194D01*
X139241765Y-63112000D01*
X139015235Y-63112000D01*
X138793057Y-63156194D01*
X138583771Y-63242884D01*
X138395418Y-63368737D01*
X138235237Y-63528918D01*
X138109384Y-63717271D01*
X138022694Y-63926557D01*
X137978500Y-64148735D01*
X135580000Y-64148735D01*
X135580000Y-61169911D01*
X140153500Y-61169911D01*
X140153500Y-61354089D01*
X140189432Y-61534729D01*
X140259914Y-61704889D01*
X140362238Y-61858028D01*
X140492472Y-61988262D01*
X140645611Y-62090586D01*
X140815771Y-62161068D01*
X140996411Y-62197000D01*
X141180589Y-62197000D01*
X141361229Y-62161068D01*
X141531389Y-62090586D01*
X141684528Y-61988262D01*
X141814762Y-61858028D01*
X141917086Y-61704889D01*
X141987568Y-61534729D01*
X142023500Y-61354089D01*
X142023500Y-61169911D01*
X141987568Y-60989271D01*
X141917086Y-60819111D01*
X141814762Y-60665972D01*
X141684528Y-60535738D01*
X141531389Y-60433414D01*
X141361229Y-60362932D01*
X141180589Y-60327000D01*
X140996411Y-60327000D01*
X140815771Y-60362932D01*
X140645611Y-60433414D01*
X140492472Y-60535738D01*
X140362238Y-60665972D01*
X140259914Y-60819111D01*
X140189432Y-60989271D01*
X140153500Y-61169911D01*
X135580000Y-61169911D01*
X135580000Y-59512716D01*
X144250000Y-59512716D01*
X144250000Y-59867284D01*
X144319173Y-60215041D01*
X144454861Y-60542620D01*
X144651849Y-60837433D01*
X144902567Y-61088151D01*
X145197380Y-61285139D01*
X145524959Y-61420827D01*
X145872716Y-61490000D01*
X146227284Y-61490000D01*
X146575041Y-61420827D01*
X146902620Y-61285139D01*
X147197433Y-61088151D01*
X147448151Y-60837433D01*
X147645139Y-60542620D01*
X147780827Y-60215041D01*
X147850000Y-59867284D01*
X147850000Y-59512716D01*
X167745000Y-59512716D01*
X167745000Y-59867284D01*
X167814173Y-60215041D01*
X167949861Y-60542620D01*
X168146849Y-60837433D01*
X168397567Y-61088151D01*
X168692380Y-61285139D01*
X169019959Y-61420827D01*
X169367716Y-61490000D01*
X169722284Y-61490000D01*
X170070041Y-61420827D01*
X170397620Y-61285139D01*
X170498233Y-61217911D01*
X173317500Y-61217911D01*
X173317500Y-61402089D01*
X173353432Y-61582729D01*
X173423914Y-61752889D01*
X173526238Y-61906028D01*
X173656472Y-62036262D01*
X173809611Y-62138586D01*
X173979771Y-62209068D01*
X174160411Y-62245000D01*
X174344589Y-62245000D01*
X174525229Y-62209068D01*
X174695389Y-62138586D01*
X174848528Y-62036262D01*
X174978762Y-61906028D01*
X175081086Y-61752889D01*
X175151568Y-61582729D01*
X175187500Y-61402089D01*
X175187500Y-61217911D01*
X175151568Y-61037271D01*
X175081086Y-60867111D01*
X174978762Y-60713972D01*
X174848528Y-60583738D01*
X174695389Y-60481414D01*
X174525229Y-60410932D01*
X174344589Y-60375000D01*
X174160411Y-60375000D01*
X173979771Y-60410932D01*
X173809611Y-60481414D01*
X173656472Y-60583738D01*
X173526238Y-60713972D01*
X173423914Y-60867111D01*
X173353432Y-61037271D01*
X173317500Y-61217911D01*
X170498233Y-61217911D01*
X170692433Y-61088151D01*
X170943151Y-60837433D01*
X171140139Y-60542620D01*
X171275827Y-60215041D01*
X171345000Y-59867284D01*
X171345000Y-59512716D01*
X171275827Y-59164959D01*
X171140139Y-58837380D01*
X170943151Y-58542567D01*
X170692433Y-58291849D01*
X170397620Y-58094861D01*
X170070041Y-57959173D01*
X169722284Y-57890000D01*
X169367716Y-57890000D01*
X169019959Y-57959173D01*
X168692380Y-58094861D01*
X168397567Y-58291849D01*
X168146849Y-58542567D01*
X167949861Y-58837380D01*
X167814173Y-59164959D01*
X167745000Y-59512716D01*
X147850000Y-59512716D01*
X147780827Y-59164959D01*
X147645139Y-58837380D01*
X147448151Y-58542567D01*
X147197433Y-58291849D01*
X146902620Y-58094861D01*
X146575041Y-57959173D01*
X146227284Y-57890000D01*
X145872716Y-57890000D01*
X145524959Y-57959173D01*
X145197380Y-58094861D01*
X144902567Y-58291849D01*
X144651849Y-58542567D01*
X144454861Y-58837380D01*
X144319173Y-59164959D01*
X144250000Y-59512716D01*
X135580000Y-59512716D01*
X135580000Y-57165896D01*
X135599526Y-56966753D01*
X135652746Y-56790481D01*
X135739187Y-56627909D01*
X135855564Y-56485216D01*
X135997436Y-56367850D01*
X136159401Y-56280276D01*
X136335292Y-56225828D01*
X136533464Y-56205000D01*
X179054104Y-56205000D01*
X179253247Y-56224526D01*
G37*
X179253247Y-56224526D02*
X179429519Y-56277746D01*
X179592091Y-56364187D01*
X179734784Y-56480564D01*
X179852150Y-56622436D01*
X179939724Y-56784401D01*
X179994172Y-56960292D01*
X180015001Y-57158474D01*
X180015000Y-87614103D01*
X179995474Y-87813247D01*
X179942253Y-87989521D01*
X179855812Y-88152093D01*
X179739436Y-88294784D01*
X179597569Y-88412147D01*
X179435598Y-88499724D01*
X179259708Y-88554172D01*
X179061536Y-88575000D01*
X136540897Y-88575000D01*
X136341753Y-88555474D01*
X136165479Y-88502253D01*
X136002907Y-88415812D01*
X135860216Y-88299436D01*
X135742853Y-88157569D01*
X135655276Y-87995598D01*
X135600828Y-87819708D01*
X135580000Y-87621536D01*
X135580000Y-84139911D01*
X140153500Y-84139911D01*
X140153500Y-84324089D01*
X140189432Y-84504729D01*
X140259914Y-84674889D01*
X140362238Y-84828028D01*
X140492472Y-84958262D01*
X140645611Y-85060586D01*
X140815771Y-85131068D01*
X140996411Y-85167000D01*
X141180589Y-85167000D01*
X141361229Y-85131068D01*
X141531389Y-85060586D01*
X141684528Y-84958262D01*
X141730074Y-84912716D01*
X144250000Y-84912716D01*
X144250000Y-85267284D01*
X144319173Y-85615041D01*
X144454861Y-85942620D01*
X144651849Y-86237433D01*
X144902567Y-86488151D01*
X145197380Y-86685139D01*
X145524959Y-86820827D01*
X145872716Y-86890000D01*
X146227284Y-86890000D01*
X146575041Y-86820827D01*
X146902620Y-86685139D01*
X147197433Y-86488151D01*
X147448151Y-86237433D01*
X147645139Y-85942620D01*
X147780827Y-85615041D01*
X147850000Y-85267284D01*
X147850000Y-84912716D01*
X167745000Y-84912716D01*
X167745000Y-85267284D01*
X167814173Y-85615041D01*
X167949861Y-85942620D01*
X168146849Y-86237433D01*
X168397567Y-86488151D01*
X168692380Y-86685139D01*
X169019959Y-86820827D01*
X169367716Y-86890000D01*
X169722284Y-86890000D01*
X170070041Y-86820827D01*
X170397620Y-86685139D01*
X170692433Y-86488151D01*
X170943151Y-86237433D01*
X171140139Y-85942620D01*
X171275827Y-85615041D01*
X171345000Y-85267284D01*
X171345000Y-84912716D01*
X171275827Y-84564959D01*
X171140139Y-84237380D01*
X170943151Y-83942567D01*
X170743995Y-83743411D01*
X173444500Y-83743411D01*
X173444500Y-83927589D01*
X173480432Y-84108229D01*
X173550914Y-84278389D01*
X173653238Y-84431528D01*
X173783472Y-84561762D01*
X173936611Y-84664086D01*
X174106771Y-84734568D01*
X174287411Y-84770500D01*
X174471589Y-84770500D01*
X174652229Y-84734568D01*
X174822389Y-84664086D01*
X174975528Y-84561762D01*
X175105762Y-84431528D01*
X175208086Y-84278389D01*
X175278568Y-84108229D01*
X175314500Y-83927589D01*
X175314500Y-83743411D01*
X175278568Y-83562771D01*
X175208086Y-83392611D01*
X175105762Y-83239472D01*
X174975528Y-83109238D01*
X174822389Y-83006914D01*
X174652229Y-82936432D01*
X174471589Y-82900500D01*
X174287411Y-82900500D01*
X174106771Y-82936432D01*
X173936611Y-83006914D01*
X173783472Y-83109238D01*
X173653238Y-83239472D01*
X173550914Y-83392611D01*
X173480432Y-83562771D01*
X173444500Y-83743411D01*
X170743995Y-83743411D01*
X170692433Y-83691849D01*
X170397620Y-83494861D01*
X170070041Y-83359173D01*
X169722284Y-83290000D01*
X169367716Y-83290000D01*
X169019959Y-83359173D01*
X168692380Y-83494861D01*
X168397567Y-83691849D01*
X168146849Y-83942567D01*
X167949861Y-84237380D01*
X167814173Y-84564959D01*
X167745000Y-84912716D01*
X147850000Y-84912716D01*
X147780827Y-84564959D01*
X147645139Y-84237380D01*
X147448151Y-83942567D01*
X147197433Y-83691849D01*
X146902620Y-83494861D01*
X146575041Y-83359173D01*
X146227284Y-83290000D01*
X145872716Y-83290000D01*
X145524959Y-83359173D01*
X145197380Y-83494861D01*
X144902567Y-83691849D01*
X144651849Y-83942567D01*
X144454861Y-84237380D01*
X144319173Y-84564959D01*
X144250000Y-84912716D01*
X141730074Y-84912716D01*
X141814762Y-84828028D01*
X141917086Y-84674889D01*
X141987568Y-84504729D01*
X142023500Y-84324089D01*
X142023500Y-84139911D01*
X141987568Y-83959271D01*
X141917086Y-83789111D01*
X141814762Y-83635972D01*
X141684528Y-83505738D01*
X141531389Y-83403414D01*
X141361229Y-83332932D01*
X141180589Y-83297000D01*
X140996411Y-83297000D01*
X140815771Y-83332932D01*
X140645611Y-83403414D01*
X140492472Y-83505738D01*
X140362238Y-83635972D01*
X140259914Y-83789111D01*
X140189432Y-83959271D01*
X140153500Y-84139911D01*
X135580000Y-84139911D01*
X135580000Y-81118735D01*
X137978500Y-81118735D01*
X137978500Y-81345265D01*
X138022694Y-81567443D01*
X138109384Y-81776729D01*
X138235237Y-81965082D01*
X138395418Y-82125263D01*
X138583771Y-82251116D01*
X138793057Y-82337806D01*
X139015235Y-82382000D01*
X139241765Y-82382000D01*
X139463943Y-82337806D01*
X139673229Y-82251116D01*
X139861582Y-82125263D01*
X140021763Y-81965082D01*
X140147616Y-81776729D01*
X140162374Y-81741100D01*
X142551035Y-81741100D01*
X142553941Y-81770610D01*
X142571096Y-81827160D01*
X142598953Y-81879277D01*
X142636442Y-81924958D01*
X142682123Y-81962447D01*
X142734240Y-81990304D01*
X142790790Y-82007459D01*
X142849600Y-82013251D01*
X144043400Y-82013251D01*
X144102210Y-82007459D01*
X144158760Y-81990304D01*
X144210877Y-81962447D01*
X144256558Y-81924958D01*
X144294047Y-81879277D01*
X144321904Y-81827160D01*
X144339059Y-81770610D01*
X144341965Y-81741100D01*
X145262392Y-81741100D01*
X145289400Y-81743760D01*
X145316408Y-81741100D01*
X145316418Y-81741100D01*
X145397219Y-81733142D01*
X145500894Y-81701692D01*
X145596442Y-81650621D01*
X145680190Y-81581890D01*
X145697413Y-81560904D01*
X146047261Y-81211056D01*
X165035000Y-81211056D01*
X165035000Y-81348944D01*
X165061901Y-81484182D01*
X165114668Y-81611574D01*
X165191274Y-81726224D01*
X165288776Y-81823726D01*
X165403426Y-81900332D01*
X165530818Y-81953099D01*
X165666056Y-81980000D01*
X165803944Y-81980000D01*
X165939182Y-81953099D01*
X166066574Y-81900332D01*
X166181224Y-81823726D01*
X166278726Y-81726224D01*
X166355332Y-81611574D01*
X166408099Y-81484182D01*
X166435000Y-81348944D01*
X166435000Y-81211056D01*
X166408099Y-81075818D01*
X166355332Y-80948426D01*
X166278726Y-80833776D01*
X166181224Y-80736274D01*
X166160000Y-80722093D01*
X166160000Y-80505300D01*
X170996149Y-80505300D01*
X170996149Y-81546700D01*
X171001941Y-81605510D01*
X171019096Y-81662060D01*
X171046953Y-81714177D01*
X171084442Y-81759858D01*
X171130123Y-81797347D01*
X171182240Y-81825204D01*
X171238790Y-81842359D01*
X171297600Y-81848151D01*
X172491400Y-81848151D01*
X172550210Y-81842359D01*
X172606760Y-81825204D01*
X172658877Y-81797347D01*
X172704558Y-81759858D01*
X172742047Y-81714177D01*
X172769904Y-81662060D01*
X172787059Y-81605510D01*
X172792851Y-81546700D01*
X172792851Y-80722235D01*
X175189500Y-80722235D01*
X175189500Y-80948765D01*
X175233694Y-81170943D01*
X175320384Y-81380229D01*
X175446237Y-81568582D01*
X175606418Y-81728763D01*
X175794771Y-81854616D01*
X176004057Y-81941306D01*
X176226235Y-81985500D01*
X176452765Y-81985500D01*
X176674943Y-81941306D01*
X176884229Y-81854616D01*
X177072582Y-81728763D01*
X177232763Y-81568582D01*
X177358616Y-81380229D01*
X177445306Y-81170943D01*
X177489500Y-80948765D01*
X177489500Y-80722235D01*
X177445306Y-80500057D01*
X177358616Y-80290771D01*
X177232763Y-80102418D01*
X177072582Y-79942237D01*
X176884229Y-79816384D01*
X176674943Y-79729694D01*
X176452765Y-79685500D01*
X176226235Y-79685500D01*
X176004057Y-79729694D01*
X175794771Y-79816384D01*
X175606418Y-79942237D01*
X175446237Y-80102418D01*
X175320384Y-80290771D01*
X175233694Y-80500057D01*
X175189500Y-80722235D01*
X172792851Y-80722235D01*
X172792851Y-80505300D01*
X172787059Y-80446490D01*
X172769904Y-80389940D01*
X172742047Y-80337823D01*
X172704558Y-80292142D01*
X172658877Y-80254653D01*
X172606760Y-80226796D01*
X172550210Y-80209641D01*
X172491400Y-80203849D01*
X171297600Y-80203849D01*
X171238790Y-80209641D01*
X171182240Y-80226796D01*
X171130123Y-80254653D01*
X171084442Y-80292142D01*
X171046953Y-80337823D01*
X171019096Y-80389940D01*
X171001941Y-80446490D01*
X170996149Y-80505300D01*
X166160000Y-80505300D01*
X166160000Y-80427540D01*
X166180589Y-80406951D01*
X166496000Y-80406951D01*
X166554810Y-80401159D01*
X166611360Y-80384004D01*
X166663477Y-80356147D01*
X166709158Y-80318658D01*
X166746647Y-80272977D01*
X166774504Y-80220860D01*
X166791659Y-80164310D01*
X166797451Y-80105500D01*
X166797451Y-80084976D01*
X166800340Y-80114310D01*
X166817495Y-80170861D01*
X166845352Y-80222978D01*
X166882841Y-80268659D01*
X166928522Y-80306148D01*
X166980639Y-80334005D01*
X167037190Y-80351160D01*
X167096000Y-80356952D01*
X168780026Y-80356952D01*
X168830639Y-80384005D01*
X168887190Y-80401160D01*
X168946000Y-80406952D01*
X169566000Y-80406952D01*
X169624810Y-80401160D01*
X169681361Y-80384005D01*
X169733478Y-80356148D01*
X169779159Y-80318659D01*
X169816648Y-80272978D01*
X169844505Y-80220861D01*
X169861660Y-80164310D01*
X169867452Y-80105500D01*
X169867452Y-79705500D01*
X169861660Y-79646690D01*
X169844505Y-79590139D01*
X169839353Y-79580500D01*
X169844505Y-79570861D01*
X169861660Y-79514310D01*
X169867452Y-79455500D01*
X169867452Y-79055500D01*
X169861660Y-78996690D01*
X169844505Y-78940139D01*
X169839353Y-78930500D01*
X169844505Y-78920861D01*
X169861660Y-78864310D01*
X169867452Y-78805500D01*
X169867452Y-78405500D01*
X169861660Y-78346690D01*
X169847314Y-78299400D01*
X170999035Y-78299400D01*
X171001941Y-78328910D01*
X171019096Y-78385460D01*
X171046953Y-78437577D01*
X171084442Y-78483258D01*
X171130123Y-78520747D01*
X171182240Y-78548604D01*
X171238790Y-78565759D01*
X171297600Y-78571551D01*
X172491400Y-78571551D01*
X172550210Y-78565759D01*
X172606760Y-78548604D01*
X172658877Y-78520747D01*
X172704558Y-78483258D01*
X172742047Y-78437577D01*
X172769904Y-78385460D01*
X172787059Y-78328910D01*
X172789965Y-78299400D01*
X175286903Y-78299400D01*
X175320384Y-78380229D01*
X175446237Y-78568582D01*
X175606418Y-78728763D01*
X175794771Y-78854616D01*
X176004057Y-78941306D01*
X176226235Y-78985500D01*
X176452765Y-78985500D01*
X176674943Y-78941306D01*
X176884229Y-78854616D01*
X177072582Y-78728763D01*
X177232763Y-78568582D01*
X177358616Y-78380229D01*
X177445306Y-78170943D01*
X177489500Y-77948765D01*
X177489500Y-77722235D01*
X177445306Y-77500057D01*
X177358616Y-77290771D01*
X177232763Y-77102418D01*
X177072582Y-76942237D01*
X176884229Y-76816384D01*
X176674943Y-76729694D01*
X176452765Y-76685500D01*
X176226235Y-76685500D01*
X176004057Y-76729694D01*
X175794771Y-76816384D01*
X175606418Y-76942237D01*
X175446237Y-77102418D01*
X175381436Y-77199400D01*
X172789965Y-77199400D01*
X172787059Y-77169890D01*
X172769904Y-77113340D01*
X172742047Y-77061223D01*
X172704558Y-77015542D01*
X172658877Y-76978053D01*
X172606760Y-76950196D01*
X172550210Y-76933041D01*
X172491400Y-76927249D01*
X171297600Y-76927249D01*
X171238790Y-76933041D01*
X171182240Y-76950196D01*
X171130123Y-76978053D01*
X171084442Y-77015542D01*
X171046953Y-77061223D01*
X171019096Y-77113340D01*
X171001941Y-77169890D01*
X170999035Y-77199400D01*
X169229111Y-77199400D01*
X169202100Y-77196740D01*
X169175089Y-77199400D01*
X169175082Y-77199400D01*
X169094281Y-77207358D01*
X168990606Y-77238808D01*
X168895058Y-77289879D01*
X168811310Y-77358610D01*
X168794087Y-77379596D01*
X168669635Y-77504048D01*
X167096000Y-77504048D01*
X167037190Y-77509840D01*
X166980639Y-77526995D01*
X166928522Y-77554852D01*
X166882841Y-77592341D01*
X166845352Y-77638022D01*
X166817495Y-77690139D01*
X166800340Y-77746690D01*
X166794548Y-77805500D01*
X166794548Y-79676024D01*
X166791659Y-79646690D01*
X166774504Y-79590140D01*
X166746647Y-79538023D01*
X166709158Y-79492342D01*
X166663477Y-79454853D01*
X166611360Y-79426996D01*
X166554810Y-79409841D01*
X166496000Y-79404049D01*
X165666000Y-79404049D01*
X165607190Y-79409841D01*
X165550640Y-79426996D01*
X165498523Y-79454853D01*
X165452842Y-79492342D01*
X165415353Y-79538023D01*
X165387496Y-79590140D01*
X165370341Y-79646690D01*
X165364549Y-79705500D01*
X165364549Y-80042992D01*
X165350686Y-80068928D01*
X165340453Y-80088073D01*
X165316150Y-80168186D01*
X165307945Y-80251500D01*
X165310001Y-80272376D01*
X165310001Y-80722092D01*
X165288776Y-80736274D01*
X165191274Y-80833776D01*
X165114668Y-80948426D01*
X165061901Y-81075818D01*
X165035000Y-81211056D01*
X146047261Y-81211056D01*
X146202865Y-81055452D01*
X147776500Y-81055452D01*
X147835310Y-81049660D01*
X147891861Y-81032505D01*
X147943978Y-81004648D01*
X147989659Y-80967159D01*
X148027148Y-80921478D01*
X148055005Y-80869361D01*
X148072160Y-80812810D01*
X148077952Y-80754000D01*
X148077952Y-78883476D01*
X148080841Y-78912810D01*
X148097996Y-78969360D01*
X148125853Y-79021477D01*
X148163342Y-79067158D01*
X148209023Y-79104647D01*
X148261140Y-79132504D01*
X148317690Y-79149659D01*
X148376500Y-79155451D01*
X149206500Y-79155451D01*
X149265310Y-79149659D01*
X149321860Y-79132504D01*
X149373977Y-79104647D01*
X149419658Y-79067158D01*
X149457147Y-79021477D01*
X149485004Y-78969360D01*
X149502159Y-78912810D01*
X149507951Y-78854000D01*
X149507951Y-78454000D01*
X149502159Y-78395190D01*
X149485004Y-78338640D01*
X149457147Y-78286523D01*
X149419658Y-78240842D01*
X149373977Y-78203353D01*
X149321860Y-78175496D01*
X149265310Y-78158341D01*
X149206500Y-78152549D01*
X149015000Y-78152549D01*
X149015000Y-77392907D01*
X149036224Y-77378726D01*
X149133726Y-77281224D01*
X149210332Y-77166574D01*
X149263099Y-77039182D01*
X149290000Y-76903944D01*
X149290000Y-76766056D01*
X149263099Y-76630818D01*
X149210332Y-76503426D01*
X149133726Y-76388776D01*
X149036224Y-76291274D01*
X148921574Y-76214668D01*
X148794182Y-76161901D01*
X148658944Y-76135000D01*
X148521056Y-76135000D01*
X148385818Y-76161901D01*
X148258426Y-76214668D01*
X148143776Y-76291274D01*
X148046274Y-76388776D01*
X147969668Y-76503426D01*
X147916901Y-76630818D01*
X147890000Y-76766056D01*
X147890000Y-76903944D01*
X147916901Y-77039182D01*
X147969668Y-77166574D01*
X148046274Y-77281224D01*
X148143776Y-77378726D01*
X148165000Y-77392908D01*
X148165001Y-78239481D01*
X148163342Y-78240842D01*
X148125853Y-78286523D01*
X148097996Y-78338640D01*
X148080841Y-78395190D01*
X148075049Y-78454000D01*
X148075049Y-78474524D01*
X148072160Y-78445190D01*
X148055005Y-78388639D01*
X148027148Y-78336522D01*
X147989659Y-78290841D01*
X147943978Y-78253352D01*
X147891861Y-78225495D01*
X147835310Y-78208340D01*
X147776500Y-78202548D01*
X146092474Y-78202548D01*
X146041861Y-78175495D01*
X145985310Y-78158340D01*
X145926500Y-78152548D01*
X145306500Y-78152548D01*
X145247690Y-78158340D01*
X145191139Y-78175495D01*
X145139022Y-78203352D01*
X145093341Y-78240841D01*
X145055852Y-78286522D01*
X145027995Y-78338639D01*
X145010840Y-78395190D01*
X145005048Y-78454000D01*
X145005048Y-78854000D01*
X145010840Y-78912810D01*
X145027995Y-78969361D01*
X145033147Y-78979000D01*
X145027995Y-78988639D01*
X145010840Y-79045190D01*
X145005048Y-79104000D01*
X145005048Y-79504000D01*
X145010840Y-79562810D01*
X145027995Y-79619361D01*
X145033147Y-79629000D01*
X145027995Y-79638639D01*
X145010840Y-79695190D01*
X145005048Y-79754000D01*
X145005048Y-80154000D01*
X145010840Y-80212810D01*
X145027995Y-80269361D01*
X145033147Y-80279000D01*
X145027995Y-80288639D01*
X145010840Y-80345190D01*
X145005048Y-80404000D01*
X145005048Y-80641100D01*
X144341965Y-80641100D01*
X144339059Y-80611590D01*
X144321904Y-80555040D01*
X144294047Y-80502923D01*
X144256558Y-80457242D01*
X144210877Y-80419753D01*
X144158760Y-80391896D01*
X144102210Y-80374741D01*
X144043400Y-80368949D01*
X142849600Y-80368949D01*
X142790790Y-80374741D01*
X142734240Y-80391896D01*
X142682123Y-80419753D01*
X142636442Y-80457242D01*
X142598953Y-80502923D01*
X142571096Y-80555040D01*
X142553941Y-80611590D01*
X142551035Y-80641100D01*
X140116766Y-80641100D01*
X140021763Y-80498918D01*
X139861582Y-80338737D01*
X139673229Y-80212884D01*
X139463943Y-80126194D01*
X139241765Y-80082000D01*
X139015235Y-80082000D01*
X138793057Y-80126194D01*
X138583771Y-80212884D01*
X138395418Y-80338737D01*
X138235237Y-80498918D01*
X138109384Y-80687271D01*
X138022694Y-80896557D01*
X137978500Y-81118735D01*
X135580000Y-81118735D01*
X135580000Y-78118735D01*
X137978500Y-78118735D01*
X137978500Y-78345265D01*
X138022694Y-78567443D01*
X138109384Y-78776729D01*
X138235237Y-78965082D01*
X138395418Y-79125263D01*
X138583771Y-79251116D01*
X138793057Y-79337806D01*
X139015235Y-79382000D01*
X139241765Y-79382000D01*
X139463943Y-79337806D01*
X139673229Y-79251116D01*
X139861582Y-79125263D01*
X140021763Y-78965082D01*
X140147616Y-78776729D01*
X140234306Y-78567443D01*
X140278500Y-78345265D01*
X140278500Y-78118735D01*
X140234306Y-77896557D01*
X140147616Y-77687271D01*
X140021763Y-77498918D01*
X139916645Y-77393800D01*
X142548149Y-77393800D01*
X142548149Y-78435200D01*
X142553941Y-78494010D01*
X142571096Y-78550560D01*
X142598953Y-78602677D01*
X142636442Y-78648358D01*
X142682123Y-78685847D01*
X142734240Y-78713704D01*
X142790790Y-78730859D01*
X142849600Y-78736651D01*
X144043400Y-78736651D01*
X144102210Y-78730859D01*
X144158760Y-78713704D01*
X144210877Y-78685847D01*
X144256558Y-78648358D01*
X144294047Y-78602677D01*
X144321904Y-78550560D01*
X144339059Y-78494010D01*
X144344851Y-78435200D01*
X144344851Y-77393800D01*
X144339059Y-77334990D01*
X144321904Y-77278440D01*
X144294047Y-77226323D01*
X144256558Y-77180642D01*
X144210877Y-77143153D01*
X144158760Y-77115296D01*
X144102210Y-77098141D01*
X144043400Y-77092349D01*
X142849600Y-77092349D01*
X142790790Y-77098141D01*
X142734240Y-77115296D01*
X142682123Y-77143153D01*
X142636442Y-77180642D01*
X142598953Y-77226323D01*
X142571096Y-77278440D01*
X142553941Y-77334990D01*
X142548149Y-77393800D01*
X139916645Y-77393800D01*
X139861582Y-77338737D01*
X139673229Y-77212884D01*
X139463943Y-77126194D01*
X139241765Y-77082000D01*
X139015235Y-77082000D01*
X138793057Y-77126194D01*
X138583771Y-77212884D01*
X138395418Y-77338737D01*
X138235237Y-77498918D01*
X138109384Y-77687271D01*
X138022694Y-77896557D01*
X137978500Y-78118735D01*
X135580000Y-78118735D01*
X135580000Y-75139911D01*
X140153500Y-75139911D01*
X140153500Y-75324089D01*
X140189432Y-75504729D01*
X140259914Y-75674889D01*
X140362238Y-75828028D01*
X140492472Y-75958262D01*
X140645611Y-76060586D01*
X140815771Y-76131068D01*
X140996411Y-76167000D01*
X141180589Y-76167000D01*
X141361229Y-76131068D01*
X141531389Y-76060586D01*
X141684528Y-75958262D01*
X141814762Y-75828028D01*
X141917086Y-75674889D01*
X141987568Y-75504729D01*
X141990547Y-75489750D01*
X154405049Y-75489750D01*
X154405049Y-76402250D01*
X154415525Y-76508613D01*
X154446550Y-76610889D01*
X154496932Y-76705147D01*
X154564735Y-76787765D01*
X154647353Y-76855568D01*
X154741611Y-76905950D01*
X154843887Y-76936975D01*
X154950250Y-76947451D01*
X155437750Y-76947451D01*
X155544113Y-76936975D01*
X155646389Y-76905950D01*
X155740647Y-76855568D01*
X155823265Y-76787765D01*
X155891068Y-76705147D01*
X155941450Y-76610889D01*
X155972475Y-76508613D01*
X155982951Y-76402250D01*
X155982951Y-75489750D01*
X156280049Y-75489750D01*
X156280049Y-76402250D01*
X156290525Y-76508613D01*
X156321550Y-76610889D01*
X156371932Y-76705147D01*
X156439735Y-76787765D01*
X156522353Y-76855568D01*
X156616611Y-76905950D01*
X156718887Y-76936975D01*
X156825250Y-76947451D01*
X157312750Y-76947451D01*
X157419113Y-76936975D01*
X157521389Y-76905950D01*
X157615647Y-76855568D01*
X157698265Y-76787765D01*
X157766068Y-76705147D01*
X157816450Y-76610889D01*
X157847475Y-76508613D01*
X157857951Y-76402250D01*
X157857951Y-76371000D01*
X159134049Y-76371000D01*
X159134049Y-76402250D01*
X159144525Y-76508613D01*
X159175550Y-76610889D01*
X159225932Y-76705147D01*
X159293735Y-76787765D01*
X159376353Y-76855568D01*
X159470611Y-76905950D01*
X159572887Y-76936975D01*
X159679250Y-76947451D01*
X160166750Y-76947451D01*
X160273113Y-76936975D01*
X160375389Y-76905950D01*
X160469647Y-76855568D01*
X160552265Y-76787765D01*
X160620068Y-76705147D01*
X160670450Y-76610889D01*
X160701475Y-76508613D01*
X160711951Y-76402250D01*
X160711951Y-75489750D01*
X160701475Y-75383387D01*
X160670450Y-75281111D01*
X160620068Y-75186853D01*
X160552265Y-75104235D01*
X160469647Y-75036432D01*
X160375389Y-74986050D01*
X160273113Y-74955025D01*
X160166750Y-74944549D01*
X159679250Y-74944549D01*
X159572887Y-74955025D01*
X159470611Y-74986050D01*
X159376353Y-75036432D01*
X159293735Y-75104235D01*
X159225932Y-75186853D01*
X159175550Y-75281111D01*
X159144525Y-75383387D01*
X159134049Y-75489750D01*
X159134049Y-75521000D01*
X157857951Y-75521000D01*
X157857951Y-75489750D01*
X157847475Y-75383387D01*
X157816450Y-75281111D01*
X157766068Y-75186853D01*
X157698265Y-75104235D01*
X157615647Y-75036432D01*
X157521389Y-74986050D01*
X157419113Y-74955025D01*
X157312750Y-74944549D01*
X156825250Y-74944549D01*
X156718887Y-74955025D01*
X156616611Y-74986050D01*
X156522353Y-75036432D01*
X156439735Y-75104235D01*
X156371932Y-75186853D01*
X156321550Y-75281111D01*
X156290525Y-75383387D01*
X156280049Y-75489750D01*
X155982951Y-75489750D01*
X155972475Y-75383387D01*
X155941450Y-75281111D01*
X155891068Y-75186853D01*
X155823265Y-75104235D01*
X155740647Y-75036432D01*
X155646389Y-74986050D01*
X155544113Y-74955025D01*
X155437750Y-74944549D01*
X154950250Y-74944549D01*
X154843887Y-74955025D01*
X154741611Y-74986050D01*
X154647353Y-75036432D01*
X154564735Y-75104235D01*
X154496932Y-75186853D01*
X154446550Y-75281111D01*
X154415525Y-75383387D01*
X154405049Y-75489750D01*
X141990547Y-75489750D01*
X142023500Y-75324089D01*
X142023500Y-75139911D01*
X141987568Y-74959271D01*
X141917086Y-74789111D01*
X141886551Y-74743411D01*
X173444500Y-74743411D01*
X173444500Y-74927589D01*
X173480432Y-75108229D01*
X173550914Y-75278389D01*
X173653238Y-75431528D01*
X173783472Y-75561762D01*
X173936611Y-75664086D01*
X174106771Y-75734568D01*
X174287411Y-75770500D01*
X174471589Y-75770500D01*
X174652229Y-75734568D01*
X174822389Y-75664086D01*
X174975528Y-75561762D01*
X175105762Y-75431528D01*
X175208086Y-75278389D01*
X175278568Y-75108229D01*
X175314500Y-74927589D01*
X175314500Y-74743411D01*
X175278568Y-74562771D01*
X175208086Y-74392611D01*
X175105762Y-74239472D01*
X174975528Y-74109238D01*
X174822389Y-74006914D01*
X174652229Y-73936432D01*
X174471589Y-73900500D01*
X174287411Y-73900500D01*
X174106771Y-73936432D01*
X173936611Y-74006914D01*
X173783472Y-74109238D01*
X173653238Y-74239472D01*
X173550914Y-74392611D01*
X173480432Y-74562771D01*
X173444500Y-74743411D01*
X141886551Y-74743411D01*
X141814762Y-74635972D01*
X141684528Y-74505738D01*
X141531389Y-74403414D01*
X141361229Y-74332932D01*
X141180589Y-74297000D01*
X140996411Y-74297000D01*
X140815771Y-74332932D01*
X140645611Y-74403414D01*
X140492472Y-74505738D01*
X140362238Y-74635972D01*
X140259914Y-74789111D01*
X140189432Y-74959271D01*
X140153500Y-75139911D01*
X135580000Y-75139911D01*
X135580000Y-70169911D01*
X140153500Y-70169911D01*
X140153500Y-70354089D01*
X140189432Y-70534729D01*
X140259914Y-70704889D01*
X140362238Y-70858028D01*
X140492472Y-70988262D01*
X140645611Y-71090586D01*
X140815771Y-71161068D01*
X140996411Y-71197000D01*
X141180589Y-71197000D01*
X141361229Y-71161068D01*
X141531389Y-71090586D01*
X141684528Y-70988262D01*
X141814762Y-70858028D01*
X141917086Y-70704889D01*
X141987568Y-70534729D01*
X142023500Y-70354089D01*
X142023500Y-70217911D01*
X173317500Y-70217911D01*
X173317500Y-70402089D01*
X173353432Y-70582729D01*
X173423914Y-70752889D01*
X173526238Y-70906028D01*
X173656472Y-71036262D01*
X173809611Y-71138586D01*
X173979771Y-71209068D01*
X174160411Y-71245000D01*
X174344589Y-71245000D01*
X174525229Y-71209068D01*
X174695389Y-71138586D01*
X174848528Y-71036262D01*
X174978762Y-70906028D01*
X175081086Y-70752889D01*
X175151568Y-70582729D01*
X175187500Y-70402089D01*
X175187500Y-70217911D01*
X175151568Y-70037271D01*
X175081086Y-69867111D01*
X174978762Y-69713972D01*
X174848528Y-69583738D01*
X174695389Y-69481414D01*
X174525229Y-69410932D01*
X174344589Y-69375000D01*
X174160411Y-69375000D01*
X173979771Y-69410932D01*
X173809611Y-69481414D01*
X173656472Y-69583738D01*
X173526238Y-69713972D01*
X173423914Y-69867111D01*
X173353432Y-70037271D01*
X173317500Y-70217911D01*
X142023500Y-70217911D01*
X142023500Y-70169911D01*
X141987568Y-69989271D01*
X141917086Y-69819111D01*
X141814762Y-69665972D01*
X141684528Y-69535738D01*
X141531389Y-69433414D01*
X141361229Y-69362932D01*
X141180589Y-69327000D01*
X140996411Y-69327000D01*
X140815771Y-69362932D01*
X140645611Y-69433414D01*
X140492472Y-69535738D01*
X140362238Y-69665972D01*
X140259914Y-69819111D01*
X140189432Y-69989271D01*
X140153500Y-70169911D01*
X135580000Y-70169911D01*
X135580000Y-67148735D01*
X137978500Y-67148735D01*
X137978500Y-67375265D01*
X138022694Y-67597443D01*
X138109384Y-67806729D01*
X138235237Y-67995082D01*
X138395418Y-68155263D01*
X138583771Y-68281116D01*
X138793057Y-68367806D01*
X139015235Y-68412000D01*
X139241765Y-68412000D01*
X139463943Y-68367806D01*
X139673229Y-68281116D01*
X139861582Y-68155263D01*
X139991745Y-68025100D01*
X142805035Y-68025100D01*
X142807941Y-68054610D01*
X142825096Y-68111160D01*
X142852953Y-68163277D01*
X142890442Y-68208958D01*
X142936123Y-68246447D01*
X142988240Y-68274304D01*
X143044790Y-68291459D01*
X143103600Y-68297251D01*
X144297400Y-68297251D01*
X144356210Y-68291459D01*
X144412760Y-68274304D01*
X144464877Y-68246447D01*
X144510558Y-68208958D01*
X144548047Y-68163277D01*
X144575904Y-68111160D01*
X144593059Y-68054610D01*
X144595965Y-68025100D01*
X146151392Y-68025100D01*
X146178400Y-68027760D01*
X146205408Y-68025100D01*
X146205418Y-68025100D01*
X146286219Y-68017142D01*
X146389894Y-67985692D01*
X146485442Y-67934621D01*
X146569190Y-67865890D01*
X146586413Y-67844904D01*
X146901365Y-67529952D01*
X148475000Y-67529952D01*
X148533810Y-67524160D01*
X148590361Y-67507005D01*
X148642478Y-67479148D01*
X148688159Y-67441659D01*
X148725648Y-67395978D01*
X148753505Y-67343861D01*
X148770660Y-67287310D01*
X148776452Y-67228500D01*
X148776452Y-67206584D01*
X153986000Y-67206584D01*
X153986000Y-67413416D01*
X154026350Y-67616274D01*
X154105502Y-67807362D01*
X154220411Y-67979336D01*
X154366664Y-68125589D01*
X154538638Y-68240498D01*
X154729726Y-68319650D01*
X154932584Y-68360000D01*
X155139416Y-68360000D01*
X155342274Y-68319650D01*
X155533362Y-68240498D01*
X155705336Y-68125589D01*
X155851589Y-67979336D01*
X155966498Y-67807362D01*
X156045650Y-67616274D01*
X156086000Y-67413416D01*
X156086000Y-67206584D01*
X156986000Y-67206584D01*
X156986000Y-67413416D01*
X157026350Y-67616274D01*
X157105502Y-67807362D01*
X157220411Y-67979336D01*
X157366664Y-68125589D01*
X157538638Y-68240498D01*
X157729726Y-68319650D01*
X157932584Y-68360000D01*
X158139416Y-68360000D01*
X158342274Y-68319650D01*
X158533362Y-68240498D01*
X158705336Y-68125589D01*
X158851589Y-67979336D01*
X158966498Y-67807362D01*
X159045650Y-67616274D01*
X159086000Y-67413416D01*
X159086000Y-67206584D01*
X159045650Y-67003726D01*
X158966498Y-66812638D01*
X158964736Y-66810000D01*
X159984549Y-66810000D01*
X159984549Y-67810000D01*
X159995145Y-67917583D01*
X160026526Y-68021031D01*
X160077485Y-68116370D01*
X160146065Y-68199935D01*
X160229630Y-68268515D01*
X160324969Y-68319474D01*
X160428417Y-68350855D01*
X160536000Y-68361451D01*
X161536000Y-68361451D01*
X161643583Y-68350855D01*
X161747031Y-68319474D01*
X161842370Y-68268515D01*
X161925935Y-68199935D01*
X161994515Y-68116370D01*
X162045474Y-68021031D01*
X162076855Y-67917583D01*
X162080945Y-67876056D01*
X165670000Y-67876056D01*
X165670000Y-68013944D01*
X165696901Y-68149182D01*
X165749668Y-68276574D01*
X165826274Y-68391224D01*
X165923776Y-68488726D01*
X166038426Y-68565332D01*
X166165818Y-68618099D01*
X166301056Y-68645000D01*
X166438944Y-68645000D01*
X166574182Y-68618099D01*
X166701574Y-68565332D01*
X166816224Y-68488726D01*
X166913726Y-68391224D01*
X166990332Y-68276574D01*
X167043099Y-68149182D01*
X167070000Y-68013944D01*
X167070000Y-67876056D01*
X167043099Y-67740818D01*
X166990332Y-67613426D01*
X166913726Y-67498776D01*
X166816224Y-67401274D01*
X166795000Y-67387093D01*
X166795000Y-66944951D01*
X167028000Y-66944951D01*
X167086810Y-66939159D01*
X167143360Y-66922004D01*
X167195477Y-66894147D01*
X167241158Y-66856658D01*
X167278647Y-66810977D01*
X167306504Y-66758860D01*
X167323659Y-66702310D01*
X167329451Y-66643500D01*
X167329451Y-66622976D01*
X167332340Y-66652310D01*
X167349495Y-66708861D01*
X167377352Y-66760978D01*
X167414841Y-66806659D01*
X167460522Y-66844148D01*
X167512639Y-66872005D01*
X167569190Y-66889160D01*
X167628000Y-66894952D01*
X169312026Y-66894952D01*
X169362639Y-66922005D01*
X169419190Y-66939160D01*
X169478000Y-66944952D01*
X170098000Y-66944952D01*
X170156810Y-66939160D01*
X170213361Y-66922005D01*
X170265478Y-66894148D01*
X170311159Y-66856659D01*
X170348648Y-66810978D01*
X170360235Y-66789300D01*
X171123149Y-66789300D01*
X171123149Y-67830700D01*
X171128941Y-67889510D01*
X171146096Y-67946060D01*
X171173953Y-67998177D01*
X171211442Y-68043858D01*
X171257123Y-68081347D01*
X171309240Y-68109204D01*
X171365790Y-68126359D01*
X171424600Y-68132151D01*
X172618400Y-68132151D01*
X172677210Y-68126359D01*
X172733760Y-68109204D01*
X172785877Y-68081347D01*
X172831558Y-68043858D01*
X172869047Y-67998177D01*
X172896904Y-67946060D01*
X172914059Y-67889510D01*
X172919851Y-67830700D01*
X172919851Y-67196735D01*
X175062500Y-67196735D01*
X175062500Y-67423265D01*
X175106694Y-67645443D01*
X175193384Y-67854729D01*
X175319237Y-68043082D01*
X175479418Y-68203263D01*
X175667771Y-68329116D01*
X175877057Y-68415806D01*
X176099235Y-68460000D01*
X176325765Y-68460000D01*
X176547943Y-68415806D01*
X176757229Y-68329116D01*
X176945582Y-68203263D01*
X177105763Y-68043082D01*
X177231616Y-67854729D01*
X177318306Y-67645443D01*
X177362500Y-67423265D01*
X177362500Y-67196735D01*
X177318306Y-66974557D01*
X177231616Y-66765271D01*
X177105763Y-66576918D01*
X176945582Y-66416737D01*
X176757229Y-66290884D01*
X176547943Y-66204194D01*
X176325765Y-66160000D01*
X176099235Y-66160000D01*
X175877057Y-66204194D01*
X175667771Y-66290884D01*
X175479418Y-66416737D01*
X175319237Y-66576918D01*
X175193384Y-66765271D01*
X175106694Y-66974557D01*
X175062500Y-67196735D01*
X172919851Y-67196735D01*
X172919851Y-66789300D01*
X172914059Y-66730490D01*
X172896904Y-66673940D01*
X172869047Y-66621823D01*
X172831558Y-66576142D01*
X172785877Y-66538653D01*
X172733760Y-66510796D01*
X172677210Y-66493641D01*
X172618400Y-66487849D01*
X171424600Y-66487849D01*
X171365790Y-66493641D01*
X171309240Y-66510796D01*
X171257123Y-66538653D01*
X171211442Y-66576142D01*
X171173953Y-66621823D01*
X171146096Y-66673940D01*
X171128941Y-66730490D01*
X171123149Y-66789300D01*
X170360235Y-66789300D01*
X170376505Y-66758861D01*
X170393660Y-66702310D01*
X170399452Y-66643500D01*
X170399452Y-66243500D01*
X170393660Y-66184690D01*
X170376505Y-66128139D01*
X170371353Y-66118500D01*
X170376505Y-66108861D01*
X170393660Y-66052310D01*
X170399452Y-65993500D01*
X170399452Y-65593500D01*
X170393660Y-65534690D01*
X170376505Y-65478139D01*
X170371353Y-65468500D01*
X170376505Y-65458861D01*
X170393660Y-65402310D01*
X170399452Y-65343500D01*
X170399452Y-64943500D01*
X170393660Y-64884690D01*
X170376505Y-64828139D01*
X170371353Y-64818500D01*
X170376505Y-64808861D01*
X170393660Y-64752310D01*
X170399452Y-64693500D01*
X170399452Y-64583400D01*
X171126035Y-64583400D01*
X171128941Y-64612910D01*
X171146096Y-64669460D01*
X171173953Y-64721577D01*
X171211442Y-64767258D01*
X171257123Y-64804747D01*
X171309240Y-64832604D01*
X171365790Y-64849759D01*
X171424600Y-64855551D01*
X172618400Y-64855551D01*
X172677210Y-64849759D01*
X172733760Y-64832604D01*
X172785877Y-64804747D01*
X172831558Y-64767258D01*
X172869047Y-64721577D01*
X172896904Y-64669460D01*
X172914059Y-64612910D01*
X172916965Y-64583400D01*
X175094353Y-64583400D01*
X175106694Y-64645443D01*
X175193384Y-64854729D01*
X175319237Y-65043082D01*
X175479418Y-65203263D01*
X175667771Y-65329116D01*
X175877057Y-65415806D01*
X176099235Y-65460000D01*
X176325765Y-65460000D01*
X176547943Y-65415806D01*
X176757229Y-65329116D01*
X176945582Y-65203263D01*
X177105763Y-65043082D01*
X177231616Y-64854729D01*
X177318306Y-64645443D01*
X177362500Y-64423265D01*
X177362500Y-64196735D01*
X177318306Y-63974557D01*
X177231616Y-63765271D01*
X177105763Y-63576918D01*
X176945582Y-63416737D01*
X176757229Y-63290884D01*
X176547943Y-63204194D01*
X176325765Y-63160000D01*
X176099235Y-63160000D01*
X175877057Y-63204194D01*
X175667771Y-63290884D01*
X175479418Y-63416737D01*
X175412755Y-63483400D01*
X172916965Y-63483400D01*
X172914059Y-63453890D01*
X172896904Y-63397340D01*
X172869047Y-63345223D01*
X172831558Y-63299542D01*
X172785877Y-63262053D01*
X172733760Y-63234196D01*
X172677210Y-63217041D01*
X172618400Y-63211249D01*
X171424600Y-63211249D01*
X171365790Y-63217041D01*
X171309240Y-63234196D01*
X171257123Y-63262053D01*
X171211442Y-63299542D01*
X171173953Y-63345223D01*
X171146096Y-63397340D01*
X171128941Y-63453890D01*
X171126035Y-63483400D01*
X170015108Y-63483400D01*
X169988100Y-63480740D01*
X169961092Y-63483400D01*
X169961082Y-63483400D01*
X169880281Y-63491358D01*
X169776606Y-63522808D01*
X169703282Y-63562000D01*
X169681058Y-63573879D01*
X169618295Y-63625387D01*
X169618290Y-63625392D01*
X169597310Y-63642610D01*
X169580092Y-63663590D01*
X169201634Y-64042048D01*
X167628000Y-64042048D01*
X167569190Y-64047840D01*
X167512639Y-64064995D01*
X167460522Y-64092852D01*
X167414841Y-64130341D01*
X167377352Y-64176022D01*
X167349495Y-64228139D01*
X167332340Y-64284690D01*
X167326548Y-64343500D01*
X167326548Y-66214024D01*
X167323659Y-66184690D01*
X167306504Y-66128140D01*
X167278647Y-66076023D01*
X167241158Y-66030342D01*
X167195477Y-65992853D01*
X167143360Y-65964996D01*
X167086810Y-65947841D01*
X167028000Y-65942049D01*
X166198000Y-65942049D01*
X166139190Y-65947841D01*
X166082640Y-65964996D01*
X166030523Y-65992853D01*
X165984842Y-66030342D01*
X165947353Y-66076023D01*
X165919496Y-66128140D01*
X165902341Y-66184690D01*
X165896549Y-66243500D01*
X165896549Y-66643500D01*
X165902341Y-66702310D01*
X165919496Y-66758860D01*
X165945001Y-66806576D01*
X165945000Y-67387092D01*
X165923776Y-67401274D01*
X165826274Y-67498776D01*
X165749668Y-67613426D01*
X165696901Y-67740818D01*
X165670000Y-67876056D01*
X162080945Y-67876056D01*
X162087451Y-67810000D01*
X162087451Y-66810000D01*
X162076855Y-66702417D01*
X162045474Y-66598969D01*
X161994515Y-66503630D01*
X161925935Y-66420065D01*
X161842370Y-66351485D01*
X161747031Y-66300526D01*
X161643583Y-66269145D01*
X161536000Y-66258549D01*
X160536000Y-66258549D01*
X160428417Y-66269145D01*
X160324969Y-66300526D01*
X160229630Y-66351485D01*
X160146065Y-66420065D01*
X160077485Y-66503630D01*
X160026526Y-66598969D01*
X159995145Y-66702417D01*
X159984549Y-66810000D01*
X158964736Y-66810000D01*
X158851589Y-66640664D01*
X158705336Y-66494411D01*
X158533362Y-66379502D01*
X158342274Y-66300350D01*
X158139416Y-66260000D01*
X157932584Y-66260000D01*
X157729726Y-66300350D01*
X157538638Y-66379502D01*
X157366664Y-66494411D01*
X157220411Y-66640664D01*
X157105502Y-66812638D01*
X157026350Y-67003726D01*
X156986000Y-67206584D01*
X156086000Y-67206584D01*
X156045650Y-67003726D01*
X155966498Y-66812638D01*
X155851589Y-66640664D01*
X155705336Y-66494411D01*
X155533362Y-66379502D01*
X155342274Y-66300350D01*
X155139416Y-66260000D01*
X154932584Y-66260000D01*
X154729726Y-66300350D01*
X154538638Y-66379502D01*
X154366664Y-66494411D01*
X154220411Y-66640664D01*
X154105502Y-66812638D01*
X154026350Y-67003726D01*
X153986000Y-67206584D01*
X148776452Y-67206584D01*
X148776452Y-65357976D01*
X148779341Y-65387310D01*
X148796496Y-65443860D01*
X148824353Y-65495977D01*
X148861842Y-65541658D01*
X148907523Y-65579147D01*
X148959640Y-65607004D01*
X149016190Y-65624159D01*
X149075000Y-65629951D01*
X149905000Y-65629951D01*
X149963810Y-65624159D01*
X150020360Y-65607004D01*
X150072477Y-65579147D01*
X150118158Y-65541658D01*
X150155647Y-65495977D01*
X150183504Y-65443860D01*
X150200659Y-65387310D01*
X150206451Y-65328500D01*
X150206451Y-64928500D01*
X150200659Y-64869690D01*
X150183504Y-64813140D01*
X150155647Y-64761023D01*
X150118158Y-64715342D01*
X150072477Y-64677853D01*
X150020360Y-64649996D01*
X149963810Y-64632841D01*
X149905000Y-64627049D01*
X149650000Y-64627049D01*
X149650000Y-64206584D01*
X153986000Y-64206584D01*
X153986000Y-64413416D01*
X154026350Y-64616274D01*
X154105502Y-64807362D01*
X154220411Y-64979336D01*
X154366664Y-65125589D01*
X154538638Y-65240498D01*
X154729726Y-65319650D01*
X154932584Y-65360000D01*
X155139416Y-65360000D01*
X155342274Y-65319650D01*
X155533362Y-65240498D01*
X155705336Y-65125589D01*
X155851589Y-64979336D01*
X155966498Y-64807362D01*
X156045650Y-64616274D01*
X156086000Y-64413416D01*
X156086000Y-64206584D01*
X156986000Y-64206584D01*
X156986000Y-64413416D01*
X157026350Y-64616274D01*
X157105502Y-64807362D01*
X157220411Y-64979336D01*
X157366664Y-65125589D01*
X157538638Y-65240498D01*
X157729726Y-65319650D01*
X157932584Y-65360000D01*
X158139416Y-65360000D01*
X158342274Y-65319650D01*
X158533362Y-65240498D01*
X158705336Y-65125589D01*
X158851589Y-64979336D01*
X158966498Y-64807362D01*
X159045650Y-64616274D01*
X159086000Y-64413416D01*
X159086000Y-64206584D01*
X159045650Y-64003726D01*
X158966498Y-63812638D01*
X158851589Y-63640664D01*
X158705336Y-63494411D01*
X158533362Y-63379502D01*
X158342274Y-63300350D01*
X158296308Y-63291207D01*
X163236000Y-63291207D01*
X163236000Y-63448793D01*
X163266743Y-63603351D01*
X163327049Y-63748942D01*
X163414599Y-63879970D01*
X163526030Y-63991401D01*
X163657058Y-64078951D01*
X163802649Y-64139257D01*
X163957207Y-64170000D01*
X164114793Y-64170000D01*
X164269351Y-64139257D01*
X164414942Y-64078951D01*
X164545970Y-63991401D01*
X164657401Y-63879970D01*
X164744951Y-63748942D01*
X164805257Y-63603351D01*
X164836000Y-63448793D01*
X164836000Y-63291207D01*
X164805257Y-63136649D01*
X164744951Y-62991058D01*
X164657401Y-62860030D01*
X164545970Y-62748599D01*
X164414942Y-62661049D01*
X164269351Y-62600743D01*
X164114793Y-62570000D01*
X163957207Y-62570000D01*
X163802649Y-62600743D01*
X163657058Y-62661049D01*
X163526030Y-62748599D01*
X163414599Y-62860030D01*
X163327049Y-62991058D01*
X163266743Y-63136649D01*
X163236000Y-63291207D01*
X158296308Y-63291207D01*
X158139416Y-63260000D01*
X157932584Y-63260000D01*
X157729726Y-63300350D01*
X157538638Y-63379502D01*
X157366664Y-63494411D01*
X157220411Y-63640664D01*
X157105502Y-63812638D01*
X157026350Y-64003726D01*
X156986000Y-64206584D01*
X156086000Y-64206584D01*
X156045650Y-64003726D01*
X155966498Y-63812638D01*
X155851589Y-63640664D01*
X155705336Y-63494411D01*
X155533362Y-63379502D01*
X155342274Y-63300350D01*
X155139416Y-63260000D01*
X154932584Y-63260000D01*
X154729726Y-63300350D01*
X154538638Y-63379502D01*
X154366664Y-63494411D01*
X154220411Y-63640664D01*
X154105502Y-63812638D01*
X154026350Y-64003726D01*
X153986000Y-64206584D01*
X149650000Y-64206584D01*
X149650000Y-64057907D01*
X149671224Y-64043726D01*
X149768726Y-63946224D01*
X149845332Y-63831574D01*
X149898099Y-63704182D01*
X149925000Y-63568944D01*
X149925000Y-63431056D01*
X149898099Y-63295818D01*
X149896190Y-63291207D01*
X151236000Y-63291207D01*
X151236000Y-63448793D01*
X151266743Y-63603351D01*
X151327049Y-63748942D01*
X151414599Y-63879970D01*
X151526030Y-63991401D01*
X151657058Y-64078951D01*
X151802649Y-64139257D01*
X151957207Y-64170000D01*
X152114793Y-64170000D01*
X152269351Y-64139257D01*
X152414942Y-64078951D01*
X152545970Y-63991401D01*
X152657401Y-63879970D01*
X152744951Y-63748942D01*
X152805257Y-63603351D01*
X152836000Y-63448793D01*
X152836000Y-63291207D01*
X152805257Y-63136649D01*
X152744951Y-62991058D01*
X152657401Y-62860030D01*
X152545970Y-62748599D01*
X152414942Y-62661049D01*
X152269351Y-62600743D01*
X152114793Y-62570000D01*
X151957207Y-62570000D01*
X151802649Y-62600743D01*
X151657058Y-62661049D01*
X151526030Y-62748599D01*
X151414599Y-62860030D01*
X151327049Y-62991058D01*
X151266743Y-63136649D01*
X151236000Y-63291207D01*
X149896190Y-63291207D01*
X149845332Y-63168426D01*
X149768726Y-63053776D01*
X149671224Y-62956274D01*
X149556574Y-62879668D01*
X149429182Y-62826901D01*
X149293944Y-62800000D01*
X149156056Y-62800000D01*
X149020818Y-62826901D01*
X148893426Y-62879668D01*
X148778776Y-62956274D01*
X148681274Y-63053776D01*
X148604668Y-63168426D01*
X148551901Y-63295818D01*
X148525000Y-63431056D01*
X148525000Y-63568944D01*
X148551901Y-63704182D01*
X148604668Y-63831574D01*
X148681274Y-63946224D01*
X148778776Y-64043726D01*
X148800000Y-64057908D01*
X148800001Y-64806583D01*
X148796496Y-64813140D01*
X148779341Y-64869690D01*
X148773549Y-64928500D01*
X148773549Y-64949024D01*
X148770660Y-64919690D01*
X148753505Y-64863139D01*
X148725648Y-64811022D01*
X148688159Y-64765341D01*
X148642478Y-64727852D01*
X148590361Y-64699995D01*
X148533810Y-64682840D01*
X148475000Y-64677048D01*
X146790974Y-64677048D01*
X146740361Y-64649995D01*
X146683810Y-64632840D01*
X146625000Y-64627048D01*
X146005000Y-64627048D01*
X145946190Y-64632840D01*
X145889639Y-64649995D01*
X145837522Y-64677852D01*
X145791841Y-64715341D01*
X145754352Y-64761022D01*
X145726495Y-64813139D01*
X145709340Y-64869690D01*
X145703548Y-64928500D01*
X145703548Y-65328500D01*
X145709340Y-65387310D01*
X145726495Y-65443861D01*
X145731647Y-65453500D01*
X145726495Y-65463139D01*
X145709340Y-65519690D01*
X145703548Y-65578500D01*
X145703548Y-65978500D01*
X145709340Y-66037310D01*
X145726495Y-66093861D01*
X145731647Y-66103500D01*
X145726495Y-66113139D01*
X145709340Y-66169690D01*
X145703548Y-66228500D01*
X145703548Y-66628500D01*
X145709340Y-66687310D01*
X145726495Y-66743861D01*
X145731647Y-66753500D01*
X145726495Y-66763139D01*
X145709340Y-66819690D01*
X145703548Y-66878500D01*
X145703548Y-66925100D01*
X144595965Y-66925100D01*
X144593059Y-66895590D01*
X144575904Y-66839040D01*
X144548047Y-66786923D01*
X144510558Y-66741242D01*
X144464877Y-66703753D01*
X144412760Y-66675896D01*
X144356210Y-66658741D01*
X144297400Y-66652949D01*
X143103600Y-66652949D01*
X143044790Y-66658741D01*
X142988240Y-66675896D01*
X142936123Y-66703753D01*
X142890442Y-66741242D01*
X142852953Y-66786923D01*
X142825096Y-66839040D01*
X142807941Y-66895590D01*
X142805035Y-66925100D01*
X140233702Y-66925100D01*
X140147616Y-66717271D01*
X140021763Y-66528918D01*
X139861582Y-66368737D01*
X139673229Y-66242884D01*
X139463943Y-66156194D01*
X139241765Y-66112000D01*
X139015235Y-66112000D01*
X138793057Y-66156194D01*
X138583771Y-66242884D01*
X138395418Y-66368737D01*
X138235237Y-66528918D01*
X138109384Y-66717271D01*
X138022694Y-66926557D01*
X137978500Y-67148735D01*
X135580000Y-67148735D01*
X135580000Y-64148735D01*
X137978500Y-64148735D01*
X137978500Y-64375265D01*
X138022694Y-64597443D01*
X138109384Y-64806729D01*
X138235237Y-64995082D01*
X138395418Y-65155263D01*
X138583771Y-65281116D01*
X138793057Y-65367806D01*
X139015235Y-65412000D01*
X139241765Y-65412000D01*
X139463943Y-65367806D01*
X139673229Y-65281116D01*
X139861582Y-65155263D01*
X140021763Y-64995082D01*
X140147616Y-64806729D01*
X140234306Y-64597443D01*
X140278500Y-64375265D01*
X140278500Y-64148735D01*
X140234306Y-63926557D01*
X140147616Y-63717271D01*
X140121243Y-63677800D01*
X142802149Y-63677800D01*
X142802149Y-64719200D01*
X142807941Y-64778010D01*
X142825096Y-64834560D01*
X142852953Y-64886677D01*
X142890442Y-64932358D01*
X142936123Y-64969847D01*
X142988240Y-64997704D01*
X143044790Y-65014859D01*
X143103600Y-65020651D01*
X144297400Y-65020651D01*
X144356210Y-65014859D01*
X144412760Y-64997704D01*
X144464877Y-64969847D01*
X144510558Y-64932358D01*
X144548047Y-64886677D01*
X144575904Y-64834560D01*
X144593059Y-64778010D01*
X144598851Y-64719200D01*
X144598851Y-63677800D01*
X144593059Y-63618990D01*
X144575904Y-63562440D01*
X144548047Y-63510323D01*
X144510558Y-63464642D01*
X144464877Y-63427153D01*
X144412760Y-63399296D01*
X144356210Y-63382141D01*
X144297400Y-63376349D01*
X143103600Y-63376349D01*
X143044790Y-63382141D01*
X142988240Y-63399296D01*
X142936123Y-63427153D01*
X142890442Y-63464642D01*
X142852953Y-63510323D01*
X142825096Y-63562440D01*
X142807941Y-63618990D01*
X142802149Y-63677800D01*
X140121243Y-63677800D01*
X140021763Y-63528918D01*
X139861582Y-63368737D01*
X139673229Y-63242884D01*
X139463943Y-63156194D01*
X139241765Y-63112000D01*
X139015235Y-63112000D01*
X138793057Y-63156194D01*
X138583771Y-63242884D01*
X138395418Y-63368737D01*
X138235237Y-63528918D01*
X138109384Y-63717271D01*
X138022694Y-63926557D01*
X137978500Y-64148735D01*
X135580000Y-64148735D01*
X135580000Y-61169911D01*
X140153500Y-61169911D01*
X140153500Y-61354089D01*
X140189432Y-61534729D01*
X140259914Y-61704889D01*
X140362238Y-61858028D01*
X140492472Y-61988262D01*
X140645611Y-62090586D01*
X140815771Y-62161068D01*
X140996411Y-62197000D01*
X141180589Y-62197000D01*
X141361229Y-62161068D01*
X141531389Y-62090586D01*
X141684528Y-61988262D01*
X141814762Y-61858028D01*
X141917086Y-61704889D01*
X141987568Y-61534729D01*
X142023500Y-61354089D01*
X142023500Y-61169911D01*
X141987568Y-60989271D01*
X141917086Y-60819111D01*
X141814762Y-60665972D01*
X141684528Y-60535738D01*
X141531389Y-60433414D01*
X141361229Y-60362932D01*
X141180589Y-60327000D01*
X140996411Y-60327000D01*
X140815771Y-60362932D01*
X140645611Y-60433414D01*
X140492472Y-60535738D01*
X140362238Y-60665972D01*
X140259914Y-60819111D01*
X140189432Y-60989271D01*
X140153500Y-61169911D01*
X135580000Y-61169911D01*
X135580000Y-59512716D01*
X144250000Y-59512716D01*
X144250000Y-59867284D01*
X144319173Y-60215041D01*
X144454861Y-60542620D01*
X144651849Y-60837433D01*
X144902567Y-61088151D01*
X145197380Y-61285139D01*
X145524959Y-61420827D01*
X145872716Y-61490000D01*
X146227284Y-61490000D01*
X146575041Y-61420827D01*
X146902620Y-61285139D01*
X147197433Y-61088151D01*
X147448151Y-60837433D01*
X147645139Y-60542620D01*
X147780827Y-60215041D01*
X147850000Y-59867284D01*
X147850000Y-59512716D01*
X167745000Y-59512716D01*
X167745000Y-59867284D01*
X167814173Y-60215041D01*
X167949861Y-60542620D01*
X168146849Y-60837433D01*
X168397567Y-61088151D01*
X168692380Y-61285139D01*
X169019959Y-61420827D01*
X169367716Y-61490000D01*
X169722284Y-61490000D01*
X170070041Y-61420827D01*
X170397620Y-61285139D01*
X170498233Y-61217911D01*
X173317500Y-61217911D01*
X173317500Y-61402089D01*
X173353432Y-61582729D01*
X173423914Y-61752889D01*
X173526238Y-61906028D01*
X173656472Y-62036262D01*
X173809611Y-62138586D01*
X173979771Y-62209068D01*
X174160411Y-62245000D01*
X174344589Y-62245000D01*
X174525229Y-62209068D01*
X174695389Y-62138586D01*
X174848528Y-62036262D01*
X174978762Y-61906028D01*
X175081086Y-61752889D01*
X175151568Y-61582729D01*
X175187500Y-61402089D01*
X175187500Y-61217911D01*
X175151568Y-61037271D01*
X175081086Y-60867111D01*
X174978762Y-60713972D01*
X174848528Y-60583738D01*
X174695389Y-60481414D01*
X174525229Y-60410932D01*
X174344589Y-60375000D01*
X174160411Y-60375000D01*
X173979771Y-60410932D01*
X173809611Y-60481414D01*
X173656472Y-60583738D01*
X173526238Y-60713972D01*
X173423914Y-60867111D01*
X173353432Y-61037271D01*
X173317500Y-61217911D01*
X170498233Y-61217911D01*
X170692433Y-61088151D01*
X170943151Y-60837433D01*
X171140139Y-60542620D01*
X171275827Y-60215041D01*
X171345000Y-59867284D01*
X171345000Y-59512716D01*
X171275827Y-59164959D01*
X171140139Y-58837380D01*
X170943151Y-58542567D01*
X170692433Y-58291849D01*
X170397620Y-58094861D01*
X170070041Y-57959173D01*
X169722284Y-57890000D01*
X169367716Y-57890000D01*
X169019959Y-57959173D01*
X168692380Y-58094861D01*
X168397567Y-58291849D01*
X168146849Y-58542567D01*
X167949861Y-58837380D01*
X167814173Y-59164959D01*
X167745000Y-59512716D01*
X147850000Y-59512716D01*
X147780827Y-59164959D01*
X147645139Y-58837380D01*
X147448151Y-58542567D01*
X147197433Y-58291849D01*
X146902620Y-58094861D01*
X146575041Y-57959173D01*
X146227284Y-57890000D01*
X145872716Y-57890000D01*
X145524959Y-57959173D01*
X145197380Y-58094861D01*
X144902567Y-58291849D01*
X144651849Y-58542567D01*
X144454861Y-58837380D01*
X144319173Y-59164959D01*
X144250000Y-59512716D01*
X135580000Y-59512716D01*
X135580000Y-57165896D01*
X135599526Y-56966753D01*
X135652746Y-56790481D01*
X135739187Y-56627909D01*
X135855564Y-56485216D01*
X135997436Y-56367850D01*
X136159401Y-56280276D01*
X136335292Y-56225828D01*
X136533464Y-56205000D01*
X179054104Y-56205000D01*
X179253247Y-56224526D01*
%TD*%
M02*
