%TF.GenerationSoftware,KiCad,Pcbnew,(5.1.6)-1*%
%TF.CreationDate,2020-08-08T15:51:14-05:00*%
%TF.ProjectId,FanBoard,46616e42-6f61-4726-942e-6b696361645f,rev?*%
%TF.SameCoordinates,Original*%
%TF.FileFunction,Paste,Top*%
%TF.FilePolarity,Positive*%
%FSLAX46Y46*%
G04 Gerber Fmt 4.6, Leading zero omitted, Abs format (unit mm)*
G04 Created by KiCad (PCBNEW (5.1.6)-1) date 2020-08-08 15:51:14*
%MOMM*%
%LPD*%
G01*
G04 APERTURE LIST*
%ADD10R,0.750000X0.300000*%
%ADD11R,0.830000X0.300000*%
%ADD12R,0.510000X0.635000*%
%ADD13R,1.193800X1.041400*%
G04 APERTURE END LIST*
%TO.C,R1*%
G36*
G01*
X161310500Y-76402250D02*
X161310500Y-75489750D01*
G75*
G02*
X161554250Y-75246000I243750J0D01*
G01*
X162041750Y-75246000D01*
G75*
G02*
X162285500Y-75489750I0J-243750D01*
G01*
X162285500Y-76402250D01*
G75*
G02*
X162041750Y-76646000I-243750J0D01*
G01*
X161554250Y-76646000D01*
G75*
G02*
X161310500Y-76402250I0J243750D01*
G01*
G37*
G36*
G01*
X159435500Y-76402250D02*
X159435500Y-75489750D01*
G75*
G02*
X159679250Y-75246000I243750J0D01*
G01*
X160166750Y-75246000D01*
G75*
G02*
X160410500Y-75489750I0J-243750D01*
G01*
X160410500Y-76402250D01*
G75*
G02*
X160166750Y-76646000I-243750J0D01*
G01*
X159679250Y-76646000D01*
G75*
G02*
X159435500Y-76402250I0J243750D01*
G01*
G37*
%TD*%
%TO.C,LED1*%
G36*
G01*
X155681500Y-75489750D02*
X155681500Y-76402250D01*
G75*
G02*
X155437750Y-76646000I-243750J0D01*
G01*
X154950250Y-76646000D01*
G75*
G02*
X154706500Y-76402250I0J243750D01*
G01*
X154706500Y-75489750D01*
G75*
G02*
X154950250Y-75246000I243750J0D01*
G01*
X155437750Y-75246000D01*
G75*
G02*
X155681500Y-75489750I0J-243750D01*
G01*
G37*
G36*
G01*
X157556500Y-75489750D02*
X157556500Y-76402250D01*
G75*
G02*
X157312750Y-76646000I-243750J0D01*
G01*
X156825250Y-76646000D01*
G75*
G02*
X156581500Y-76402250I0J243750D01*
G01*
X156581500Y-75489750D01*
G75*
G02*
X156825250Y-75246000I243750J0D01*
G01*
X157312750Y-75246000D01*
G75*
G02*
X157556500Y-75489750I0J-243750D01*
G01*
G37*
%TD*%
D10*
%TO.C,Q4*%
X146380000Y-65128500D03*
X146380000Y-65778500D03*
X146380000Y-66428500D03*
X146380000Y-67078500D03*
D11*
X149490000Y-67078500D03*
X149490000Y-66428500D03*
X149490000Y-65778500D03*
X149490000Y-65128500D03*
D12*
X147310000Y-65477500D03*
X148170000Y-65477500D03*
X147310000Y-66729500D03*
X148170000Y-66729500D03*
%TD*%
D10*
%TO.C,Q3*%
X169723000Y-66443500D03*
X169723000Y-65793500D03*
X169723000Y-65143500D03*
X169723000Y-64493500D03*
D11*
X166613000Y-64493500D03*
X166613000Y-65143500D03*
X166613000Y-65793500D03*
X166613000Y-66443500D03*
D12*
X168793000Y-66094500D03*
X167933000Y-66094500D03*
X168793000Y-64842500D03*
X167933000Y-64842500D03*
%TD*%
D10*
%TO.C,Q2*%
X145681500Y-78654000D03*
X145681500Y-79304000D03*
X145681500Y-79954000D03*
X145681500Y-80604000D03*
D11*
X148791500Y-80604000D03*
X148791500Y-79954000D03*
X148791500Y-79304000D03*
X148791500Y-78654000D03*
D12*
X146611500Y-79003000D03*
X147471500Y-79003000D03*
X146611500Y-80255000D03*
X147471500Y-80255000D03*
%TD*%
D10*
%TO.C,Q1*%
X169191000Y-79905500D03*
X169191000Y-79255500D03*
X169191000Y-78605500D03*
X169191000Y-77955500D03*
D11*
X166081000Y-77955500D03*
X166081000Y-78605500D03*
X166081000Y-79255500D03*
X166081000Y-79905500D03*
D12*
X168261000Y-79556500D03*
X167401000Y-79556500D03*
X168261000Y-78304500D03*
X167401000Y-78304500D03*
%TD*%
D13*
%TO.C,D1*%
X171894500Y-77749400D03*
X171894500Y-81026000D03*
%TD*%
%TO.C,D2*%
X143446500Y-77914500D03*
X143446500Y-81191100D03*
%TD*%
%TO.C,D3*%
X172021500Y-64033400D03*
X172021500Y-67310000D03*
%TD*%
%TO.C,D4*%
X143700500Y-64198500D03*
X143700500Y-67475100D03*
%TD*%
M02*
