%TF.GenerationSoftware,KiCad,Pcbnew,(5.1.6)-1*%
%TF.CreationDate,2020-08-08T15:51:14-05:00*%
%TF.ProjectId,FanBoard,46616e42-6f61-4726-942e-6b696361645f,rev?*%
%TF.SameCoordinates,Original*%
%TF.FileFunction,Copper,L2,Bot*%
%TF.FilePolarity,Positive*%
%FSLAX46Y46*%
G04 Gerber Fmt 4.6, Leading zero omitted, Abs format (unit mm)*
G04 Created by KiCad (PCBNEW (5.1.6)-1) date 2020-08-08 15:51:14*
%MOMM*%
%LPD*%
G01*
G04 APERTURE LIST*
%TA.AperFunction,ComponentPad*%
%ADD10C,1.500000*%
%TD*%
%TA.AperFunction,ComponentPad*%
%ADD11C,1.700000*%
%TD*%
%TA.AperFunction,ViaPad*%
%ADD12C,0.800000*%
%TD*%
%TA.AperFunction,Conductor*%
%ADD13C,0.250000*%
%TD*%
%TA.AperFunction,Conductor*%
%ADD14C,0.200000*%
%TD*%
G04 APERTURE END LIST*
D10*
%TO.P,J1,6*%
%TO.N,/FAN4*%
X155036000Y-64310000D03*
%TO.P,J1,5*%
%TO.N,/FAN3*%
X158036000Y-64310000D03*
%TO.P,J1,4*%
%TO.N,GNDPWR*%
X161036000Y-64310000D03*
%TO.P,J1,3*%
%TO.N,/FAN2*%
X155036000Y-67310000D03*
%TO.P,J1,2*%
%TO.N,/FAN1*%
X158036000Y-67310000D03*
%TO.P,J1,1*%
%TO.N,+12V*%
%TA.AperFunction,ComponentPad*%
G36*
G01*
X161786000Y-66810000D02*
X161786000Y-67810000D01*
G75*
G02*
X161536000Y-68060000I-250000J0D01*
G01*
X160536000Y-68060000D01*
G75*
G02*
X160286000Y-67810000I0J250000D01*
G01*
X160286000Y-66810000D01*
G75*
G02*
X160536000Y-66560000I250000J0D01*
G01*
X161536000Y-66560000D01*
G75*
G02*
X161786000Y-66810000I0J-250000D01*
G01*
G37*
%TD.AperFunction*%
%TD*%
D11*
%TO.P,J5,2*%
%TO.N,Net-(D4-Pad2)*%
X139128500Y-67262000D03*
%TO.P,J5,1*%
%TO.N,+12V*%
X139128500Y-64262000D03*
%TD*%
%TO.P,J4,2*%
%TO.N,Net-(D3-Pad2)*%
X176212500Y-64310000D03*
%TO.P,J4,1*%
%TO.N,+12V*%
X176212500Y-67310000D03*
%TD*%
%TO.P,J3,2*%
%TO.N,Net-(D2-Pad2)*%
X139128500Y-81232000D03*
%TO.P,J3,1*%
%TO.N,+12V*%
X139128500Y-78232000D03*
%TD*%
%TO.P,J2,2*%
%TO.N,Net-(D1-Pad2)*%
X176339500Y-77835500D03*
%TO.P,J2,1*%
%TO.N,+12V*%
X176339500Y-80835500D03*
%TD*%
D12*
%TO.N,+12V*%
X155194000Y-75946000D03*
X143510000Y-77978000D03*
X143764000Y-64262000D03*
X171958000Y-67310000D03*
X171958000Y-81026000D03*
%TO.N,/FAN3*%
X166370000Y-67945000D03*
%TO.N,/FAN4*%
X149225000Y-63500000D03*
%TO.N,/FAN2*%
X148590000Y-76835000D03*
%TO.N,/FAN1*%
X165735000Y-81280000D03*
%TD*%
D13*
%TO.N,/FAN3*%
X158036000Y-62309000D02*
X159385000Y-60960000D01*
X159385000Y-60960000D02*
X165100000Y-60960000D01*
X165100000Y-60960000D02*
X166370000Y-62230000D01*
X166370000Y-62230000D02*
X166370000Y-67945000D01*
X158036000Y-62309000D02*
X158036000Y-64310000D01*
%TO.N,/FAN4*%
X149304000Y-63421000D02*
X149225000Y-63500000D01*
X149225000Y-63500000D02*
X150495000Y-62230000D01*
X152956000Y-62230000D02*
X155036000Y-64310000D01*
X150495000Y-62230000D02*
X152956000Y-62230000D01*
%TO.N,/FAN2*%
X155036000Y-70389000D02*
X148590000Y-76835000D01*
X155036000Y-67310000D02*
X155036000Y-70389000D01*
%TO.N,/FAN1*%
X158036000Y-73581000D02*
X165735000Y-81280000D01*
X158036000Y-67310000D02*
X158036000Y-73581000D01*
%TD*%
D14*
%TO.N,+12V*%
G36*
X179253247Y-56224526D02*
G01*
X179429519Y-56277746D01*
X179592091Y-56364187D01*
X179734784Y-56480564D01*
X179852150Y-56622436D01*
X179939724Y-56784401D01*
X179994172Y-56960292D01*
X180015001Y-57158474D01*
X180015000Y-87614103D01*
X179995474Y-87813247D01*
X179942253Y-87989521D01*
X179855812Y-88152093D01*
X179739436Y-88294784D01*
X179597569Y-88412147D01*
X179435598Y-88499724D01*
X179259708Y-88554172D01*
X179061536Y-88575000D01*
X136540897Y-88575000D01*
X136341753Y-88555474D01*
X136165479Y-88502253D01*
X136002907Y-88415812D01*
X135860216Y-88299436D01*
X135742853Y-88157569D01*
X135655276Y-87995598D01*
X135600828Y-87819708D01*
X135580000Y-87621536D01*
X135580000Y-84139911D01*
X140153500Y-84139911D01*
X140153500Y-84324089D01*
X140189432Y-84504729D01*
X140259914Y-84674889D01*
X140362238Y-84828028D01*
X140492472Y-84958262D01*
X140645611Y-85060586D01*
X140815771Y-85131068D01*
X140996411Y-85167000D01*
X141180589Y-85167000D01*
X141361229Y-85131068D01*
X141531389Y-85060586D01*
X141684528Y-84958262D01*
X141730074Y-84912716D01*
X144250000Y-84912716D01*
X144250000Y-85267284D01*
X144319173Y-85615041D01*
X144454861Y-85942620D01*
X144651849Y-86237433D01*
X144902567Y-86488151D01*
X145197380Y-86685139D01*
X145524959Y-86820827D01*
X145872716Y-86890000D01*
X146227284Y-86890000D01*
X146575041Y-86820827D01*
X146902620Y-86685139D01*
X147197433Y-86488151D01*
X147448151Y-86237433D01*
X147645139Y-85942620D01*
X147780827Y-85615041D01*
X147850000Y-85267284D01*
X147850000Y-84912716D01*
X167745000Y-84912716D01*
X167745000Y-85267284D01*
X167814173Y-85615041D01*
X167949861Y-85942620D01*
X168146849Y-86237433D01*
X168397567Y-86488151D01*
X168692380Y-86685139D01*
X169019959Y-86820827D01*
X169367716Y-86890000D01*
X169722284Y-86890000D01*
X170070041Y-86820827D01*
X170397620Y-86685139D01*
X170692433Y-86488151D01*
X170943151Y-86237433D01*
X171140139Y-85942620D01*
X171275827Y-85615041D01*
X171345000Y-85267284D01*
X171345000Y-84912716D01*
X171275827Y-84564959D01*
X171140139Y-84237380D01*
X170943151Y-83942567D01*
X170743995Y-83743411D01*
X173444500Y-83743411D01*
X173444500Y-83927589D01*
X173480432Y-84108229D01*
X173550914Y-84278389D01*
X173653238Y-84431528D01*
X173783472Y-84561762D01*
X173936611Y-84664086D01*
X174106771Y-84734568D01*
X174287411Y-84770500D01*
X174471589Y-84770500D01*
X174652229Y-84734568D01*
X174822389Y-84664086D01*
X174975528Y-84561762D01*
X175105762Y-84431528D01*
X175208086Y-84278389D01*
X175278568Y-84108229D01*
X175314500Y-83927589D01*
X175314500Y-83743411D01*
X175278568Y-83562771D01*
X175208086Y-83392611D01*
X175105762Y-83239472D01*
X174975528Y-83109238D01*
X174822389Y-83006914D01*
X174652229Y-82936432D01*
X174471589Y-82900500D01*
X174287411Y-82900500D01*
X174106771Y-82936432D01*
X173936611Y-83006914D01*
X173783472Y-83109238D01*
X173653238Y-83239472D01*
X173550914Y-83392611D01*
X173480432Y-83562771D01*
X173444500Y-83743411D01*
X170743995Y-83743411D01*
X170692433Y-83691849D01*
X170397620Y-83494861D01*
X170070041Y-83359173D01*
X169722284Y-83290000D01*
X169367716Y-83290000D01*
X169019959Y-83359173D01*
X168692380Y-83494861D01*
X168397567Y-83691849D01*
X168146849Y-83942567D01*
X167949861Y-84237380D01*
X167814173Y-84564959D01*
X167745000Y-84912716D01*
X147850000Y-84912716D01*
X147780827Y-84564959D01*
X147645139Y-84237380D01*
X147448151Y-83942567D01*
X147197433Y-83691849D01*
X146902620Y-83494861D01*
X146575041Y-83359173D01*
X146227284Y-83290000D01*
X145872716Y-83290000D01*
X145524959Y-83359173D01*
X145197380Y-83494861D01*
X144902567Y-83691849D01*
X144651849Y-83942567D01*
X144454861Y-84237380D01*
X144319173Y-84564959D01*
X144250000Y-84912716D01*
X141730074Y-84912716D01*
X141814762Y-84828028D01*
X141917086Y-84674889D01*
X141987568Y-84504729D01*
X142023500Y-84324089D01*
X142023500Y-84139911D01*
X141987568Y-83959271D01*
X141917086Y-83789111D01*
X141814762Y-83635972D01*
X141684528Y-83505738D01*
X141531389Y-83403414D01*
X141361229Y-83332932D01*
X141180589Y-83297000D01*
X140996411Y-83297000D01*
X140815771Y-83332932D01*
X140645611Y-83403414D01*
X140492472Y-83505738D01*
X140362238Y-83635972D01*
X140259914Y-83789111D01*
X140189432Y-83959271D01*
X140153500Y-84139911D01*
X135580000Y-84139911D01*
X135580000Y-81118735D01*
X137978500Y-81118735D01*
X137978500Y-81345265D01*
X138022694Y-81567443D01*
X138109384Y-81776729D01*
X138235237Y-81965082D01*
X138395418Y-82125263D01*
X138583771Y-82251116D01*
X138793057Y-82337806D01*
X139015235Y-82382000D01*
X139241765Y-82382000D01*
X139463943Y-82337806D01*
X139673229Y-82251116D01*
X139861582Y-82125263D01*
X140021763Y-81965082D01*
X140147616Y-81776729D01*
X140234306Y-81567443D01*
X140278500Y-81345265D01*
X140278500Y-81118735D01*
X140234306Y-80896557D01*
X140147616Y-80687271D01*
X140021763Y-80498918D01*
X139861582Y-80338737D01*
X139673229Y-80212884D01*
X139463943Y-80126194D01*
X139241765Y-80082000D01*
X139015235Y-80082000D01*
X138793057Y-80126194D01*
X138583771Y-80212884D01*
X138395418Y-80338737D01*
X138235237Y-80498918D01*
X138109384Y-80687271D01*
X138022694Y-80896557D01*
X137978500Y-81118735D01*
X135580000Y-81118735D01*
X135580000Y-79262957D01*
X138315332Y-79262957D01*
X138396721Y-79501207D01*
X138658391Y-79619583D01*
X138938128Y-79684634D01*
X139225181Y-79693862D01*
X139508518Y-79646911D01*
X139777252Y-79545587D01*
X139860279Y-79501207D01*
X139941668Y-79262957D01*
X139128500Y-78449789D01*
X138315332Y-79262957D01*
X135580000Y-79262957D01*
X135580000Y-78328681D01*
X137666638Y-78328681D01*
X137713589Y-78612018D01*
X137814913Y-78880752D01*
X137859293Y-78963779D01*
X138097543Y-79045168D01*
X138910711Y-78232000D01*
X139346289Y-78232000D01*
X140159457Y-79045168D01*
X140397707Y-78963779D01*
X140516083Y-78702109D01*
X140581134Y-78422372D01*
X140590362Y-78135319D01*
X140543411Y-77851982D01*
X140442087Y-77583248D01*
X140397707Y-77500221D01*
X140159457Y-77418832D01*
X139346289Y-78232000D01*
X138910711Y-78232000D01*
X138097543Y-77418832D01*
X137859293Y-77500221D01*
X137740917Y-77761891D01*
X137675866Y-78041628D01*
X137666638Y-78328681D01*
X135580000Y-78328681D01*
X135580000Y-77201043D01*
X138315332Y-77201043D01*
X139128500Y-78014211D01*
X139941668Y-77201043D01*
X139860279Y-76962793D01*
X139598609Y-76844417D01*
X139318872Y-76779366D01*
X139031819Y-76770138D01*
X138748482Y-76817089D01*
X138479748Y-76918413D01*
X138396721Y-76962793D01*
X138315332Y-77201043D01*
X135580000Y-77201043D01*
X135580000Y-76766056D01*
X147890000Y-76766056D01*
X147890000Y-76903944D01*
X147916901Y-77039182D01*
X147969668Y-77166574D01*
X148046274Y-77281224D01*
X148143776Y-77378726D01*
X148258426Y-77455332D01*
X148385818Y-77508099D01*
X148521056Y-77535000D01*
X148658944Y-77535000D01*
X148794182Y-77508099D01*
X148921574Y-77455332D01*
X149036224Y-77378726D01*
X149133726Y-77281224D01*
X149210332Y-77166574D01*
X149263099Y-77039182D01*
X149290000Y-76903944D01*
X149290000Y-76766056D01*
X149285020Y-76741020D01*
X155321756Y-70704284D01*
X155337974Y-70690974D01*
X155391084Y-70626260D01*
X155430548Y-70552427D01*
X155454850Y-70472314D01*
X155461000Y-70409874D01*
X155461000Y-70409867D01*
X155463055Y-70389000D01*
X155461000Y-70368133D01*
X155461000Y-68270472D01*
X155533362Y-68240498D01*
X155705336Y-68125589D01*
X155851589Y-67979336D01*
X155966498Y-67807362D01*
X156045650Y-67616274D01*
X156086000Y-67413416D01*
X156086000Y-67206584D01*
X156986000Y-67206584D01*
X156986000Y-67413416D01*
X157026350Y-67616274D01*
X157105502Y-67807362D01*
X157220411Y-67979336D01*
X157366664Y-68125589D01*
X157538638Y-68240498D01*
X157611000Y-68270472D01*
X157611001Y-73560123D01*
X157608945Y-73581000D01*
X157617150Y-73664314D01*
X157641453Y-73744427D01*
X157680917Y-73818260D01*
X157734027Y-73882974D01*
X157750239Y-73896279D01*
X165039980Y-81186021D01*
X165035000Y-81211056D01*
X165035000Y-81348944D01*
X165061901Y-81484182D01*
X165114668Y-81611574D01*
X165191274Y-81726224D01*
X165288776Y-81823726D01*
X165403426Y-81900332D01*
X165530818Y-81953099D01*
X165666056Y-81980000D01*
X165803944Y-81980000D01*
X165939182Y-81953099D01*
X166066574Y-81900332D01*
X166117271Y-81866457D01*
X175526332Y-81866457D01*
X175607721Y-82104707D01*
X175869391Y-82223083D01*
X176149128Y-82288134D01*
X176436181Y-82297362D01*
X176719518Y-82250411D01*
X176988252Y-82149087D01*
X177071279Y-82104707D01*
X177152668Y-81866457D01*
X176339500Y-81053289D01*
X175526332Y-81866457D01*
X166117271Y-81866457D01*
X166181224Y-81823726D01*
X166278726Y-81726224D01*
X166355332Y-81611574D01*
X166408099Y-81484182D01*
X166435000Y-81348944D01*
X166435000Y-81211056D01*
X166408099Y-81075818D01*
X166355332Y-80948426D01*
X166344478Y-80932181D01*
X174877638Y-80932181D01*
X174924589Y-81215518D01*
X175025913Y-81484252D01*
X175070293Y-81567279D01*
X175308543Y-81648668D01*
X176121711Y-80835500D01*
X176557289Y-80835500D01*
X177370457Y-81648668D01*
X177608707Y-81567279D01*
X177727083Y-81305609D01*
X177792134Y-81025872D01*
X177801362Y-80738819D01*
X177754411Y-80455482D01*
X177653087Y-80186748D01*
X177608707Y-80103721D01*
X177370457Y-80022332D01*
X176557289Y-80835500D01*
X176121711Y-80835500D01*
X175308543Y-80022332D01*
X175070293Y-80103721D01*
X174951917Y-80365391D01*
X174886866Y-80645128D01*
X174877638Y-80932181D01*
X166344478Y-80932181D01*
X166278726Y-80833776D01*
X166181224Y-80736274D01*
X166066574Y-80659668D01*
X165939182Y-80606901D01*
X165803944Y-80580000D01*
X165666056Y-80580000D01*
X165641021Y-80584980D01*
X164860584Y-79804543D01*
X175526332Y-79804543D01*
X176339500Y-80617711D01*
X177152668Y-79804543D01*
X177071279Y-79566293D01*
X176809609Y-79447917D01*
X176529872Y-79382866D01*
X176242819Y-79373638D01*
X175959482Y-79420589D01*
X175690748Y-79521913D01*
X175607721Y-79566293D01*
X175526332Y-79804543D01*
X164860584Y-79804543D01*
X162778276Y-77722235D01*
X175189500Y-77722235D01*
X175189500Y-77948765D01*
X175233694Y-78170943D01*
X175320384Y-78380229D01*
X175446237Y-78568582D01*
X175606418Y-78728763D01*
X175794771Y-78854616D01*
X176004057Y-78941306D01*
X176226235Y-78985500D01*
X176452765Y-78985500D01*
X176674943Y-78941306D01*
X176884229Y-78854616D01*
X177072582Y-78728763D01*
X177232763Y-78568582D01*
X177358616Y-78380229D01*
X177445306Y-78170943D01*
X177489500Y-77948765D01*
X177489500Y-77722235D01*
X177445306Y-77500057D01*
X177358616Y-77290771D01*
X177232763Y-77102418D01*
X177072582Y-76942237D01*
X176884229Y-76816384D01*
X176674943Y-76729694D01*
X176452765Y-76685500D01*
X176226235Y-76685500D01*
X176004057Y-76729694D01*
X175794771Y-76816384D01*
X175606418Y-76942237D01*
X175446237Y-77102418D01*
X175320384Y-77290771D01*
X175233694Y-77500057D01*
X175189500Y-77722235D01*
X162778276Y-77722235D01*
X159799452Y-74743411D01*
X173444500Y-74743411D01*
X173444500Y-74927589D01*
X173480432Y-75108229D01*
X173550914Y-75278389D01*
X173653238Y-75431528D01*
X173783472Y-75561762D01*
X173936611Y-75664086D01*
X174106771Y-75734568D01*
X174287411Y-75770500D01*
X174471589Y-75770500D01*
X174652229Y-75734568D01*
X174822389Y-75664086D01*
X174975528Y-75561762D01*
X175105762Y-75431528D01*
X175208086Y-75278389D01*
X175278568Y-75108229D01*
X175314500Y-74927589D01*
X175314500Y-74743411D01*
X175278568Y-74562771D01*
X175208086Y-74392611D01*
X175105762Y-74239472D01*
X174975528Y-74109238D01*
X174822389Y-74006914D01*
X174652229Y-73936432D01*
X174471589Y-73900500D01*
X174287411Y-73900500D01*
X174106771Y-73936432D01*
X173936611Y-74006914D01*
X173783472Y-74109238D01*
X173653238Y-74239472D01*
X173550914Y-74392611D01*
X173480432Y-74562771D01*
X173444500Y-74743411D01*
X159799452Y-74743411D01*
X158461000Y-73404960D01*
X158461000Y-70217911D01*
X173317500Y-70217911D01*
X173317500Y-70402089D01*
X173353432Y-70582729D01*
X173423914Y-70752889D01*
X173526238Y-70906028D01*
X173656472Y-71036262D01*
X173809611Y-71138586D01*
X173979771Y-71209068D01*
X174160411Y-71245000D01*
X174344589Y-71245000D01*
X174525229Y-71209068D01*
X174695389Y-71138586D01*
X174848528Y-71036262D01*
X174978762Y-70906028D01*
X175081086Y-70752889D01*
X175151568Y-70582729D01*
X175187500Y-70402089D01*
X175187500Y-70217911D01*
X175151568Y-70037271D01*
X175081086Y-69867111D01*
X174978762Y-69713972D01*
X174848528Y-69583738D01*
X174695389Y-69481414D01*
X174525229Y-69410932D01*
X174344589Y-69375000D01*
X174160411Y-69375000D01*
X173979771Y-69410932D01*
X173809611Y-69481414D01*
X173656472Y-69583738D01*
X173526238Y-69713972D01*
X173423914Y-69867111D01*
X173353432Y-70037271D01*
X173317500Y-70217911D01*
X158461000Y-70217911D01*
X158461000Y-68270472D01*
X158533362Y-68240498D01*
X158705336Y-68125589D01*
X158770925Y-68060000D01*
X159675058Y-68060000D01*
X159686797Y-68179189D01*
X159721563Y-68293797D01*
X159778020Y-68399421D01*
X159853999Y-68492001D01*
X159946579Y-68567980D01*
X160052203Y-68624437D01*
X160166811Y-68659203D01*
X160286000Y-68670942D01*
X160730000Y-68668000D01*
X160882000Y-68516000D01*
X160882000Y-67464000D01*
X161190000Y-67464000D01*
X161190000Y-68516000D01*
X161342000Y-68668000D01*
X161786000Y-68670942D01*
X161905189Y-68659203D01*
X162019797Y-68624437D01*
X162125421Y-68567980D01*
X162218001Y-68492001D01*
X162293980Y-68399421D01*
X162350437Y-68293797D01*
X162385203Y-68179189D01*
X162396942Y-68060000D01*
X162394000Y-67616000D01*
X162242000Y-67464000D01*
X161190000Y-67464000D01*
X160882000Y-67464000D01*
X159830000Y-67464000D01*
X159678000Y-67616000D01*
X159675058Y-68060000D01*
X158770925Y-68060000D01*
X158851589Y-67979336D01*
X158966498Y-67807362D01*
X159045650Y-67616274D01*
X159086000Y-67413416D01*
X159086000Y-67206584D01*
X159045650Y-67003726D01*
X158966498Y-66812638D01*
X158851589Y-66640664D01*
X158770925Y-66560000D01*
X159675058Y-66560000D01*
X159678000Y-67004000D01*
X159830000Y-67156000D01*
X160882000Y-67156000D01*
X160882000Y-66104000D01*
X161190000Y-66104000D01*
X161190000Y-67156000D01*
X162242000Y-67156000D01*
X162394000Y-67004000D01*
X162396942Y-66560000D01*
X162385203Y-66440811D01*
X162350437Y-66326203D01*
X162293980Y-66220579D01*
X162218001Y-66127999D01*
X162125421Y-66052020D01*
X162019797Y-65995563D01*
X161905189Y-65960797D01*
X161786000Y-65949058D01*
X161342000Y-65952000D01*
X161190000Y-66104000D01*
X160882000Y-66104000D01*
X160730000Y-65952000D01*
X160286000Y-65949058D01*
X160166811Y-65960797D01*
X160052203Y-65995563D01*
X159946579Y-66052020D01*
X159853999Y-66127999D01*
X159778020Y-66220579D01*
X159721563Y-66326203D01*
X159686797Y-66440811D01*
X159675058Y-66560000D01*
X158770925Y-66560000D01*
X158705336Y-66494411D01*
X158533362Y-66379502D01*
X158342274Y-66300350D01*
X158139416Y-66260000D01*
X157932584Y-66260000D01*
X157729726Y-66300350D01*
X157538638Y-66379502D01*
X157366664Y-66494411D01*
X157220411Y-66640664D01*
X157105502Y-66812638D01*
X157026350Y-67003726D01*
X156986000Y-67206584D01*
X156086000Y-67206584D01*
X156045650Y-67003726D01*
X155966498Y-66812638D01*
X155851589Y-66640664D01*
X155705336Y-66494411D01*
X155533362Y-66379502D01*
X155342274Y-66300350D01*
X155139416Y-66260000D01*
X154932584Y-66260000D01*
X154729726Y-66300350D01*
X154538638Y-66379502D01*
X154366664Y-66494411D01*
X154220411Y-66640664D01*
X154105502Y-66812638D01*
X154026350Y-67003726D01*
X153986000Y-67206584D01*
X153986000Y-67413416D01*
X154026350Y-67616274D01*
X154105502Y-67807362D01*
X154220411Y-67979336D01*
X154366664Y-68125589D01*
X154538638Y-68240498D01*
X154611000Y-68270472D01*
X154611001Y-70212959D01*
X148683980Y-76139980D01*
X148658944Y-76135000D01*
X148521056Y-76135000D01*
X148385818Y-76161901D01*
X148258426Y-76214668D01*
X148143776Y-76291274D01*
X148046274Y-76388776D01*
X147969668Y-76503426D01*
X147916901Y-76630818D01*
X147890000Y-76766056D01*
X135580000Y-76766056D01*
X135580000Y-75139911D01*
X140153500Y-75139911D01*
X140153500Y-75324089D01*
X140189432Y-75504729D01*
X140259914Y-75674889D01*
X140362238Y-75828028D01*
X140492472Y-75958262D01*
X140645611Y-76060586D01*
X140815771Y-76131068D01*
X140996411Y-76167000D01*
X141180589Y-76167000D01*
X141361229Y-76131068D01*
X141531389Y-76060586D01*
X141684528Y-75958262D01*
X141814762Y-75828028D01*
X141917086Y-75674889D01*
X141987568Y-75504729D01*
X142023500Y-75324089D01*
X142023500Y-75139911D01*
X141987568Y-74959271D01*
X141917086Y-74789111D01*
X141814762Y-74635972D01*
X141684528Y-74505738D01*
X141531389Y-74403414D01*
X141361229Y-74332932D01*
X141180589Y-74297000D01*
X140996411Y-74297000D01*
X140815771Y-74332932D01*
X140645611Y-74403414D01*
X140492472Y-74505738D01*
X140362238Y-74635972D01*
X140259914Y-74789111D01*
X140189432Y-74959271D01*
X140153500Y-75139911D01*
X135580000Y-75139911D01*
X135580000Y-70169911D01*
X140153500Y-70169911D01*
X140153500Y-70354089D01*
X140189432Y-70534729D01*
X140259914Y-70704889D01*
X140362238Y-70858028D01*
X140492472Y-70988262D01*
X140645611Y-71090586D01*
X140815771Y-71161068D01*
X140996411Y-71197000D01*
X141180589Y-71197000D01*
X141361229Y-71161068D01*
X141531389Y-71090586D01*
X141684528Y-70988262D01*
X141814762Y-70858028D01*
X141917086Y-70704889D01*
X141987568Y-70534729D01*
X142023500Y-70354089D01*
X142023500Y-70169911D01*
X141987568Y-69989271D01*
X141917086Y-69819111D01*
X141814762Y-69665972D01*
X141684528Y-69535738D01*
X141531389Y-69433414D01*
X141361229Y-69362932D01*
X141180589Y-69327000D01*
X140996411Y-69327000D01*
X140815771Y-69362932D01*
X140645611Y-69433414D01*
X140492472Y-69535738D01*
X140362238Y-69665972D01*
X140259914Y-69819111D01*
X140189432Y-69989271D01*
X140153500Y-70169911D01*
X135580000Y-70169911D01*
X135580000Y-67148735D01*
X137978500Y-67148735D01*
X137978500Y-67375265D01*
X138022694Y-67597443D01*
X138109384Y-67806729D01*
X138235237Y-67995082D01*
X138395418Y-68155263D01*
X138583771Y-68281116D01*
X138793057Y-68367806D01*
X139015235Y-68412000D01*
X139241765Y-68412000D01*
X139463943Y-68367806D01*
X139673229Y-68281116D01*
X139861582Y-68155263D01*
X140021763Y-67995082D01*
X140147616Y-67806729D01*
X140234306Y-67597443D01*
X140278500Y-67375265D01*
X140278500Y-67148735D01*
X140234306Y-66926557D01*
X140147616Y-66717271D01*
X140021763Y-66528918D01*
X139861582Y-66368737D01*
X139673229Y-66242884D01*
X139463943Y-66156194D01*
X139241765Y-66112000D01*
X139015235Y-66112000D01*
X138793057Y-66156194D01*
X138583771Y-66242884D01*
X138395418Y-66368737D01*
X138235237Y-66528918D01*
X138109384Y-66717271D01*
X138022694Y-66926557D01*
X137978500Y-67148735D01*
X135580000Y-67148735D01*
X135580000Y-65292957D01*
X138315332Y-65292957D01*
X138396721Y-65531207D01*
X138658391Y-65649583D01*
X138938128Y-65714634D01*
X139225181Y-65723862D01*
X139508518Y-65676911D01*
X139777252Y-65575587D01*
X139860279Y-65531207D01*
X139941668Y-65292957D01*
X139128500Y-64479789D01*
X138315332Y-65292957D01*
X135580000Y-65292957D01*
X135580000Y-64358681D01*
X137666638Y-64358681D01*
X137713589Y-64642018D01*
X137814913Y-64910752D01*
X137859293Y-64993779D01*
X138097543Y-65075168D01*
X138910711Y-64262000D01*
X139346289Y-64262000D01*
X140159457Y-65075168D01*
X140397707Y-64993779D01*
X140516083Y-64732109D01*
X140581134Y-64452372D01*
X140590362Y-64165319D01*
X140543411Y-63881982D01*
X140442087Y-63613248D01*
X140397707Y-63530221D01*
X140159457Y-63448832D01*
X139346289Y-64262000D01*
X138910711Y-64262000D01*
X138097543Y-63448832D01*
X137859293Y-63530221D01*
X137740917Y-63791891D01*
X137675866Y-64071628D01*
X137666638Y-64358681D01*
X135580000Y-64358681D01*
X135580000Y-63231043D01*
X138315332Y-63231043D01*
X139128500Y-64044211D01*
X139741655Y-63431056D01*
X148525000Y-63431056D01*
X148525000Y-63568944D01*
X148551901Y-63704182D01*
X148604668Y-63831574D01*
X148681274Y-63946224D01*
X148778776Y-64043726D01*
X148893426Y-64120332D01*
X149020818Y-64173099D01*
X149156056Y-64200000D01*
X149293944Y-64200000D01*
X149429182Y-64173099D01*
X149556574Y-64120332D01*
X149671224Y-64043726D01*
X149768726Y-63946224D01*
X149845332Y-63831574D01*
X149898099Y-63704182D01*
X149925000Y-63568944D01*
X149925000Y-63431056D01*
X149920020Y-63406020D01*
X150671041Y-62655000D01*
X151671662Y-62655000D01*
X151657058Y-62661049D01*
X151526030Y-62748599D01*
X151414599Y-62860030D01*
X151327049Y-62991058D01*
X151266743Y-63136649D01*
X151236000Y-63291207D01*
X151236000Y-63448793D01*
X151266743Y-63603351D01*
X151327049Y-63748942D01*
X151414599Y-63879970D01*
X151526030Y-63991401D01*
X151657058Y-64078951D01*
X151802649Y-64139257D01*
X151957207Y-64170000D01*
X152114793Y-64170000D01*
X152269351Y-64139257D01*
X152414942Y-64078951D01*
X152545970Y-63991401D01*
X152657401Y-63879970D01*
X152744951Y-63748942D01*
X152805257Y-63603351D01*
X152836000Y-63448793D01*
X152836000Y-63291207D01*
X152805257Y-63136649D01*
X152744951Y-62991058D01*
X152657401Y-62860030D01*
X152545970Y-62748599D01*
X152414942Y-62661049D01*
X152400338Y-62655000D01*
X152779960Y-62655000D01*
X154056324Y-63931364D01*
X154026350Y-64003726D01*
X153986000Y-64206584D01*
X153986000Y-64413416D01*
X154026350Y-64616274D01*
X154105502Y-64807362D01*
X154220411Y-64979336D01*
X154366664Y-65125589D01*
X154538638Y-65240498D01*
X154729726Y-65319650D01*
X154932584Y-65360000D01*
X155139416Y-65360000D01*
X155342274Y-65319650D01*
X155533362Y-65240498D01*
X155705336Y-65125589D01*
X155851589Y-64979336D01*
X155966498Y-64807362D01*
X156045650Y-64616274D01*
X156086000Y-64413416D01*
X156086000Y-64206584D01*
X156986000Y-64206584D01*
X156986000Y-64413416D01*
X157026350Y-64616274D01*
X157105502Y-64807362D01*
X157220411Y-64979336D01*
X157366664Y-65125589D01*
X157538638Y-65240498D01*
X157729726Y-65319650D01*
X157932584Y-65360000D01*
X158139416Y-65360000D01*
X158342274Y-65319650D01*
X158533362Y-65240498D01*
X158705336Y-65125589D01*
X158851589Y-64979336D01*
X158966498Y-64807362D01*
X159045650Y-64616274D01*
X159086000Y-64413416D01*
X159086000Y-64206584D01*
X159986000Y-64206584D01*
X159986000Y-64413416D01*
X160026350Y-64616274D01*
X160105502Y-64807362D01*
X160220411Y-64979336D01*
X160366664Y-65125589D01*
X160538638Y-65240498D01*
X160729726Y-65319650D01*
X160932584Y-65360000D01*
X161139416Y-65360000D01*
X161342274Y-65319650D01*
X161533362Y-65240498D01*
X161705336Y-65125589D01*
X161851589Y-64979336D01*
X161966498Y-64807362D01*
X162045650Y-64616274D01*
X162086000Y-64413416D01*
X162086000Y-64206584D01*
X162045650Y-64003726D01*
X161966498Y-63812638D01*
X161851589Y-63640664D01*
X161705336Y-63494411D01*
X161533362Y-63379502D01*
X161342274Y-63300350D01*
X161296308Y-63291207D01*
X163236000Y-63291207D01*
X163236000Y-63448793D01*
X163266743Y-63603351D01*
X163327049Y-63748942D01*
X163414599Y-63879970D01*
X163526030Y-63991401D01*
X163657058Y-64078951D01*
X163802649Y-64139257D01*
X163957207Y-64170000D01*
X164114793Y-64170000D01*
X164269351Y-64139257D01*
X164414942Y-64078951D01*
X164545970Y-63991401D01*
X164657401Y-63879970D01*
X164744951Y-63748942D01*
X164805257Y-63603351D01*
X164836000Y-63448793D01*
X164836000Y-63291207D01*
X164805257Y-63136649D01*
X164744951Y-62991058D01*
X164657401Y-62860030D01*
X164545970Y-62748599D01*
X164414942Y-62661049D01*
X164269351Y-62600743D01*
X164114793Y-62570000D01*
X163957207Y-62570000D01*
X163802649Y-62600743D01*
X163657058Y-62661049D01*
X163526030Y-62748599D01*
X163414599Y-62860030D01*
X163327049Y-62991058D01*
X163266743Y-63136649D01*
X163236000Y-63291207D01*
X161296308Y-63291207D01*
X161139416Y-63260000D01*
X160932584Y-63260000D01*
X160729726Y-63300350D01*
X160538638Y-63379502D01*
X160366664Y-63494411D01*
X160220411Y-63640664D01*
X160105502Y-63812638D01*
X160026350Y-64003726D01*
X159986000Y-64206584D01*
X159086000Y-64206584D01*
X159045650Y-64003726D01*
X158966498Y-63812638D01*
X158851589Y-63640664D01*
X158705336Y-63494411D01*
X158533362Y-63379502D01*
X158461000Y-63349528D01*
X158461000Y-62485040D01*
X159561041Y-61385000D01*
X164923960Y-61385000D01*
X165945000Y-62406041D01*
X165945001Y-67387092D01*
X165923776Y-67401274D01*
X165826274Y-67498776D01*
X165749668Y-67613426D01*
X165696901Y-67740818D01*
X165670000Y-67876056D01*
X165670000Y-68013944D01*
X165696901Y-68149182D01*
X165749668Y-68276574D01*
X165826274Y-68391224D01*
X165923776Y-68488726D01*
X166038426Y-68565332D01*
X166165818Y-68618099D01*
X166301056Y-68645000D01*
X166438944Y-68645000D01*
X166574182Y-68618099D01*
X166701574Y-68565332D01*
X166816224Y-68488726D01*
X166913726Y-68391224D01*
X166947313Y-68340957D01*
X175399332Y-68340957D01*
X175480721Y-68579207D01*
X175742391Y-68697583D01*
X176022128Y-68762634D01*
X176309181Y-68771862D01*
X176592518Y-68724911D01*
X176861252Y-68623587D01*
X176944279Y-68579207D01*
X177025668Y-68340957D01*
X176212500Y-67527789D01*
X175399332Y-68340957D01*
X166947313Y-68340957D01*
X166990332Y-68276574D01*
X167043099Y-68149182D01*
X167070000Y-68013944D01*
X167070000Y-67876056D01*
X167043099Y-67740818D01*
X166990332Y-67613426D01*
X166913726Y-67498776D01*
X166821631Y-67406681D01*
X174750638Y-67406681D01*
X174797589Y-67690018D01*
X174898913Y-67958752D01*
X174943293Y-68041779D01*
X175181543Y-68123168D01*
X175994711Y-67310000D01*
X176430289Y-67310000D01*
X177243457Y-68123168D01*
X177481707Y-68041779D01*
X177600083Y-67780109D01*
X177665134Y-67500372D01*
X177674362Y-67213319D01*
X177627411Y-66929982D01*
X177526087Y-66661248D01*
X177481707Y-66578221D01*
X177243457Y-66496832D01*
X176430289Y-67310000D01*
X175994711Y-67310000D01*
X175181543Y-66496832D01*
X174943293Y-66578221D01*
X174824917Y-66839891D01*
X174759866Y-67119628D01*
X174750638Y-67406681D01*
X166821631Y-67406681D01*
X166816224Y-67401274D01*
X166795000Y-67387093D01*
X166795000Y-66279043D01*
X175399332Y-66279043D01*
X176212500Y-67092211D01*
X177025668Y-66279043D01*
X176944279Y-66040793D01*
X176682609Y-65922417D01*
X176402872Y-65857366D01*
X176115819Y-65848138D01*
X175832482Y-65895089D01*
X175563748Y-65996413D01*
X175480721Y-66040793D01*
X175399332Y-66279043D01*
X166795000Y-66279043D01*
X166795000Y-64196735D01*
X175062500Y-64196735D01*
X175062500Y-64423265D01*
X175106694Y-64645443D01*
X175193384Y-64854729D01*
X175319237Y-65043082D01*
X175479418Y-65203263D01*
X175667771Y-65329116D01*
X175877057Y-65415806D01*
X176099235Y-65460000D01*
X176325765Y-65460000D01*
X176547943Y-65415806D01*
X176757229Y-65329116D01*
X176945582Y-65203263D01*
X177105763Y-65043082D01*
X177231616Y-64854729D01*
X177318306Y-64645443D01*
X177362500Y-64423265D01*
X177362500Y-64196735D01*
X177318306Y-63974557D01*
X177231616Y-63765271D01*
X177105763Y-63576918D01*
X176945582Y-63416737D01*
X176757229Y-63290884D01*
X176547943Y-63204194D01*
X176325765Y-63160000D01*
X176099235Y-63160000D01*
X175877057Y-63204194D01*
X175667771Y-63290884D01*
X175479418Y-63416737D01*
X175319237Y-63576918D01*
X175193384Y-63765271D01*
X175106694Y-63974557D01*
X175062500Y-64196735D01*
X166795000Y-64196735D01*
X166795000Y-62250866D01*
X166797055Y-62229999D01*
X166795000Y-62209132D01*
X166795000Y-62209126D01*
X166788850Y-62146686D01*
X166788513Y-62145573D01*
X166771832Y-62090586D01*
X166764548Y-62066573D01*
X166725084Y-61992740D01*
X166671974Y-61928026D01*
X166655761Y-61914720D01*
X165415283Y-60674243D01*
X165401974Y-60658026D01*
X165337260Y-60604916D01*
X165263427Y-60565452D01*
X165183314Y-60541150D01*
X165120874Y-60535000D01*
X165120867Y-60535000D01*
X165100000Y-60532945D01*
X165079133Y-60535000D01*
X159405866Y-60535000D01*
X159384999Y-60532945D01*
X159364132Y-60535000D01*
X159364126Y-60535000D01*
X159310098Y-60540321D01*
X159301685Y-60541150D01*
X159277383Y-60548522D01*
X159221573Y-60565452D01*
X159147740Y-60604916D01*
X159083026Y-60658026D01*
X159069721Y-60674238D01*
X157750243Y-61993717D01*
X157734026Y-62007026D01*
X157680916Y-62071741D01*
X157641452Y-62145574D01*
X157617150Y-62225687D01*
X157611000Y-62288127D01*
X157611000Y-62288133D01*
X157608945Y-62309000D01*
X157611000Y-62329867D01*
X157611001Y-63349528D01*
X157538638Y-63379502D01*
X157366664Y-63494411D01*
X157220411Y-63640664D01*
X157105502Y-63812638D01*
X157026350Y-64003726D01*
X156986000Y-64206584D01*
X156086000Y-64206584D01*
X156045650Y-64003726D01*
X155966498Y-63812638D01*
X155851589Y-63640664D01*
X155705336Y-63494411D01*
X155533362Y-63379502D01*
X155342274Y-63300350D01*
X155139416Y-63260000D01*
X154932584Y-63260000D01*
X154729726Y-63300350D01*
X154657364Y-63330324D01*
X153271283Y-61944243D01*
X153257974Y-61928026D01*
X153193260Y-61874916D01*
X153119427Y-61835452D01*
X153039314Y-61811150D01*
X152976874Y-61805000D01*
X152976867Y-61805000D01*
X152956000Y-61802945D01*
X152935133Y-61805000D01*
X150515866Y-61805000D01*
X150494999Y-61802945D01*
X150474132Y-61805000D01*
X150474126Y-61805000D01*
X150420098Y-61810321D01*
X150411685Y-61811150D01*
X150387383Y-61818522D01*
X150331573Y-61835452D01*
X150257740Y-61874916D01*
X150193026Y-61928026D01*
X150179721Y-61944238D01*
X149318980Y-62804980D01*
X149293944Y-62800000D01*
X149156056Y-62800000D01*
X149020818Y-62826901D01*
X148893426Y-62879668D01*
X148778776Y-62956274D01*
X148681274Y-63053776D01*
X148604668Y-63168426D01*
X148551901Y-63295818D01*
X148525000Y-63431056D01*
X139741655Y-63431056D01*
X139941668Y-63231043D01*
X139860279Y-62992793D01*
X139598609Y-62874417D01*
X139318872Y-62809366D01*
X139031819Y-62800138D01*
X138748482Y-62847089D01*
X138479748Y-62948413D01*
X138396721Y-62992793D01*
X138315332Y-63231043D01*
X135580000Y-63231043D01*
X135580000Y-61169911D01*
X140153500Y-61169911D01*
X140153500Y-61354089D01*
X140189432Y-61534729D01*
X140259914Y-61704889D01*
X140362238Y-61858028D01*
X140492472Y-61988262D01*
X140645611Y-62090586D01*
X140815771Y-62161068D01*
X140996411Y-62197000D01*
X141180589Y-62197000D01*
X141361229Y-62161068D01*
X141531389Y-62090586D01*
X141684528Y-61988262D01*
X141814762Y-61858028D01*
X141917086Y-61704889D01*
X141987568Y-61534729D01*
X142023500Y-61354089D01*
X142023500Y-61169911D01*
X141987568Y-60989271D01*
X141917086Y-60819111D01*
X141814762Y-60665972D01*
X141684528Y-60535738D01*
X141531389Y-60433414D01*
X141361229Y-60362932D01*
X141180589Y-60327000D01*
X140996411Y-60327000D01*
X140815771Y-60362932D01*
X140645611Y-60433414D01*
X140492472Y-60535738D01*
X140362238Y-60665972D01*
X140259914Y-60819111D01*
X140189432Y-60989271D01*
X140153500Y-61169911D01*
X135580000Y-61169911D01*
X135580000Y-59512716D01*
X144250000Y-59512716D01*
X144250000Y-59867284D01*
X144319173Y-60215041D01*
X144454861Y-60542620D01*
X144651849Y-60837433D01*
X144902567Y-61088151D01*
X145197380Y-61285139D01*
X145524959Y-61420827D01*
X145872716Y-61490000D01*
X146227284Y-61490000D01*
X146575041Y-61420827D01*
X146902620Y-61285139D01*
X147197433Y-61088151D01*
X147448151Y-60837433D01*
X147645139Y-60542620D01*
X147780827Y-60215041D01*
X147850000Y-59867284D01*
X147850000Y-59512716D01*
X167745000Y-59512716D01*
X167745000Y-59867284D01*
X167814173Y-60215041D01*
X167949861Y-60542620D01*
X168146849Y-60837433D01*
X168397567Y-61088151D01*
X168692380Y-61285139D01*
X169019959Y-61420827D01*
X169367716Y-61490000D01*
X169722284Y-61490000D01*
X170070041Y-61420827D01*
X170397620Y-61285139D01*
X170498233Y-61217911D01*
X173317500Y-61217911D01*
X173317500Y-61402089D01*
X173353432Y-61582729D01*
X173423914Y-61752889D01*
X173526238Y-61906028D01*
X173656472Y-62036262D01*
X173809611Y-62138586D01*
X173979771Y-62209068D01*
X174160411Y-62245000D01*
X174344589Y-62245000D01*
X174525229Y-62209068D01*
X174695389Y-62138586D01*
X174848528Y-62036262D01*
X174978762Y-61906028D01*
X175081086Y-61752889D01*
X175151568Y-61582729D01*
X175187500Y-61402089D01*
X175187500Y-61217911D01*
X175151568Y-61037271D01*
X175081086Y-60867111D01*
X174978762Y-60713972D01*
X174848528Y-60583738D01*
X174695389Y-60481414D01*
X174525229Y-60410932D01*
X174344589Y-60375000D01*
X174160411Y-60375000D01*
X173979771Y-60410932D01*
X173809611Y-60481414D01*
X173656472Y-60583738D01*
X173526238Y-60713972D01*
X173423914Y-60867111D01*
X173353432Y-61037271D01*
X173317500Y-61217911D01*
X170498233Y-61217911D01*
X170692433Y-61088151D01*
X170943151Y-60837433D01*
X171140139Y-60542620D01*
X171275827Y-60215041D01*
X171345000Y-59867284D01*
X171345000Y-59512716D01*
X171275827Y-59164959D01*
X171140139Y-58837380D01*
X170943151Y-58542567D01*
X170692433Y-58291849D01*
X170397620Y-58094861D01*
X170070041Y-57959173D01*
X169722284Y-57890000D01*
X169367716Y-57890000D01*
X169019959Y-57959173D01*
X168692380Y-58094861D01*
X168397567Y-58291849D01*
X168146849Y-58542567D01*
X167949861Y-58837380D01*
X167814173Y-59164959D01*
X167745000Y-59512716D01*
X147850000Y-59512716D01*
X147780827Y-59164959D01*
X147645139Y-58837380D01*
X147448151Y-58542567D01*
X147197433Y-58291849D01*
X146902620Y-58094861D01*
X146575041Y-57959173D01*
X146227284Y-57890000D01*
X145872716Y-57890000D01*
X145524959Y-57959173D01*
X145197380Y-58094861D01*
X144902567Y-58291849D01*
X144651849Y-58542567D01*
X144454861Y-58837380D01*
X144319173Y-59164959D01*
X144250000Y-59512716D01*
X135580000Y-59512716D01*
X135580000Y-57165896D01*
X135599526Y-56966753D01*
X135652746Y-56790481D01*
X135739187Y-56627909D01*
X135855564Y-56485216D01*
X135997436Y-56367850D01*
X136159401Y-56280276D01*
X136335292Y-56225828D01*
X136533464Y-56205000D01*
X179054104Y-56205000D01*
X179253247Y-56224526D01*
G37*
X179253247Y-56224526D02*
X179429519Y-56277746D01*
X179592091Y-56364187D01*
X179734784Y-56480564D01*
X179852150Y-56622436D01*
X179939724Y-56784401D01*
X179994172Y-56960292D01*
X180015001Y-57158474D01*
X180015000Y-87614103D01*
X179995474Y-87813247D01*
X179942253Y-87989521D01*
X179855812Y-88152093D01*
X179739436Y-88294784D01*
X179597569Y-88412147D01*
X179435598Y-88499724D01*
X179259708Y-88554172D01*
X179061536Y-88575000D01*
X136540897Y-88575000D01*
X136341753Y-88555474D01*
X136165479Y-88502253D01*
X136002907Y-88415812D01*
X135860216Y-88299436D01*
X135742853Y-88157569D01*
X135655276Y-87995598D01*
X135600828Y-87819708D01*
X135580000Y-87621536D01*
X135580000Y-84139911D01*
X140153500Y-84139911D01*
X140153500Y-84324089D01*
X140189432Y-84504729D01*
X140259914Y-84674889D01*
X140362238Y-84828028D01*
X140492472Y-84958262D01*
X140645611Y-85060586D01*
X140815771Y-85131068D01*
X140996411Y-85167000D01*
X141180589Y-85167000D01*
X141361229Y-85131068D01*
X141531389Y-85060586D01*
X141684528Y-84958262D01*
X141730074Y-84912716D01*
X144250000Y-84912716D01*
X144250000Y-85267284D01*
X144319173Y-85615041D01*
X144454861Y-85942620D01*
X144651849Y-86237433D01*
X144902567Y-86488151D01*
X145197380Y-86685139D01*
X145524959Y-86820827D01*
X145872716Y-86890000D01*
X146227284Y-86890000D01*
X146575041Y-86820827D01*
X146902620Y-86685139D01*
X147197433Y-86488151D01*
X147448151Y-86237433D01*
X147645139Y-85942620D01*
X147780827Y-85615041D01*
X147850000Y-85267284D01*
X147850000Y-84912716D01*
X167745000Y-84912716D01*
X167745000Y-85267284D01*
X167814173Y-85615041D01*
X167949861Y-85942620D01*
X168146849Y-86237433D01*
X168397567Y-86488151D01*
X168692380Y-86685139D01*
X169019959Y-86820827D01*
X169367716Y-86890000D01*
X169722284Y-86890000D01*
X170070041Y-86820827D01*
X170397620Y-86685139D01*
X170692433Y-86488151D01*
X170943151Y-86237433D01*
X171140139Y-85942620D01*
X171275827Y-85615041D01*
X171345000Y-85267284D01*
X171345000Y-84912716D01*
X171275827Y-84564959D01*
X171140139Y-84237380D01*
X170943151Y-83942567D01*
X170743995Y-83743411D01*
X173444500Y-83743411D01*
X173444500Y-83927589D01*
X173480432Y-84108229D01*
X173550914Y-84278389D01*
X173653238Y-84431528D01*
X173783472Y-84561762D01*
X173936611Y-84664086D01*
X174106771Y-84734568D01*
X174287411Y-84770500D01*
X174471589Y-84770500D01*
X174652229Y-84734568D01*
X174822389Y-84664086D01*
X174975528Y-84561762D01*
X175105762Y-84431528D01*
X175208086Y-84278389D01*
X175278568Y-84108229D01*
X175314500Y-83927589D01*
X175314500Y-83743411D01*
X175278568Y-83562771D01*
X175208086Y-83392611D01*
X175105762Y-83239472D01*
X174975528Y-83109238D01*
X174822389Y-83006914D01*
X174652229Y-82936432D01*
X174471589Y-82900500D01*
X174287411Y-82900500D01*
X174106771Y-82936432D01*
X173936611Y-83006914D01*
X173783472Y-83109238D01*
X173653238Y-83239472D01*
X173550914Y-83392611D01*
X173480432Y-83562771D01*
X173444500Y-83743411D01*
X170743995Y-83743411D01*
X170692433Y-83691849D01*
X170397620Y-83494861D01*
X170070041Y-83359173D01*
X169722284Y-83290000D01*
X169367716Y-83290000D01*
X169019959Y-83359173D01*
X168692380Y-83494861D01*
X168397567Y-83691849D01*
X168146849Y-83942567D01*
X167949861Y-84237380D01*
X167814173Y-84564959D01*
X167745000Y-84912716D01*
X147850000Y-84912716D01*
X147780827Y-84564959D01*
X147645139Y-84237380D01*
X147448151Y-83942567D01*
X147197433Y-83691849D01*
X146902620Y-83494861D01*
X146575041Y-83359173D01*
X146227284Y-83290000D01*
X145872716Y-83290000D01*
X145524959Y-83359173D01*
X145197380Y-83494861D01*
X144902567Y-83691849D01*
X144651849Y-83942567D01*
X144454861Y-84237380D01*
X144319173Y-84564959D01*
X144250000Y-84912716D01*
X141730074Y-84912716D01*
X141814762Y-84828028D01*
X141917086Y-84674889D01*
X141987568Y-84504729D01*
X142023500Y-84324089D01*
X142023500Y-84139911D01*
X141987568Y-83959271D01*
X141917086Y-83789111D01*
X141814762Y-83635972D01*
X141684528Y-83505738D01*
X141531389Y-83403414D01*
X141361229Y-83332932D01*
X141180589Y-83297000D01*
X140996411Y-83297000D01*
X140815771Y-83332932D01*
X140645611Y-83403414D01*
X140492472Y-83505738D01*
X140362238Y-83635972D01*
X140259914Y-83789111D01*
X140189432Y-83959271D01*
X140153500Y-84139911D01*
X135580000Y-84139911D01*
X135580000Y-81118735D01*
X137978500Y-81118735D01*
X137978500Y-81345265D01*
X138022694Y-81567443D01*
X138109384Y-81776729D01*
X138235237Y-81965082D01*
X138395418Y-82125263D01*
X138583771Y-82251116D01*
X138793057Y-82337806D01*
X139015235Y-82382000D01*
X139241765Y-82382000D01*
X139463943Y-82337806D01*
X139673229Y-82251116D01*
X139861582Y-82125263D01*
X140021763Y-81965082D01*
X140147616Y-81776729D01*
X140234306Y-81567443D01*
X140278500Y-81345265D01*
X140278500Y-81118735D01*
X140234306Y-80896557D01*
X140147616Y-80687271D01*
X140021763Y-80498918D01*
X139861582Y-80338737D01*
X139673229Y-80212884D01*
X139463943Y-80126194D01*
X139241765Y-80082000D01*
X139015235Y-80082000D01*
X138793057Y-80126194D01*
X138583771Y-80212884D01*
X138395418Y-80338737D01*
X138235237Y-80498918D01*
X138109384Y-80687271D01*
X138022694Y-80896557D01*
X137978500Y-81118735D01*
X135580000Y-81118735D01*
X135580000Y-79262957D01*
X138315332Y-79262957D01*
X138396721Y-79501207D01*
X138658391Y-79619583D01*
X138938128Y-79684634D01*
X139225181Y-79693862D01*
X139508518Y-79646911D01*
X139777252Y-79545587D01*
X139860279Y-79501207D01*
X139941668Y-79262957D01*
X139128500Y-78449789D01*
X138315332Y-79262957D01*
X135580000Y-79262957D01*
X135580000Y-78328681D01*
X137666638Y-78328681D01*
X137713589Y-78612018D01*
X137814913Y-78880752D01*
X137859293Y-78963779D01*
X138097543Y-79045168D01*
X138910711Y-78232000D01*
X139346289Y-78232000D01*
X140159457Y-79045168D01*
X140397707Y-78963779D01*
X140516083Y-78702109D01*
X140581134Y-78422372D01*
X140590362Y-78135319D01*
X140543411Y-77851982D01*
X140442087Y-77583248D01*
X140397707Y-77500221D01*
X140159457Y-77418832D01*
X139346289Y-78232000D01*
X138910711Y-78232000D01*
X138097543Y-77418832D01*
X137859293Y-77500221D01*
X137740917Y-77761891D01*
X137675866Y-78041628D01*
X137666638Y-78328681D01*
X135580000Y-78328681D01*
X135580000Y-77201043D01*
X138315332Y-77201043D01*
X139128500Y-78014211D01*
X139941668Y-77201043D01*
X139860279Y-76962793D01*
X139598609Y-76844417D01*
X139318872Y-76779366D01*
X139031819Y-76770138D01*
X138748482Y-76817089D01*
X138479748Y-76918413D01*
X138396721Y-76962793D01*
X138315332Y-77201043D01*
X135580000Y-77201043D01*
X135580000Y-76766056D01*
X147890000Y-76766056D01*
X147890000Y-76903944D01*
X147916901Y-77039182D01*
X147969668Y-77166574D01*
X148046274Y-77281224D01*
X148143776Y-77378726D01*
X148258426Y-77455332D01*
X148385818Y-77508099D01*
X148521056Y-77535000D01*
X148658944Y-77535000D01*
X148794182Y-77508099D01*
X148921574Y-77455332D01*
X149036224Y-77378726D01*
X149133726Y-77281224D01*
X149210332Y-77166574D01*
X149263099Y-77039182D01*
X149290000Y-76903944D01*
X149290000Y-76766056D01*
X149285020Y-76741020D01*
X155321756Y-70704284D01*
X155337974Y-70690974D01*
X155391084Y-70626260D01*
X155430548Y-70552427D01*
X155454850Y-70472314D01*
X155461000Y-70409874D01*
X155461000Y-70409867D01*
X155463055Y-70389000D01*
X155461000Y-70368133D01*
X155461000Y-68270472D01*
X155533362Y-68240498D01*
X155705336Y-68125589D01*
X155851589Y-67979336D01*
X155966498Y-67807362D01*
X156045650Y-67616274D01*
X156086000Y-67413416D01*
X156086000Y-67206584D01*
X156986000Y-67206584D01*
X156986000Y-67413416D01*
X157026350Y-67616274D01*
X157105502Y-67807362D01*
X157220411Y-67979336D01*
X157366664Y-68125589D01*
X157538638Y-68240498D01*
X157611000Y-68270472D01*
X157611001Y-73560123D01*
X157608945Y-73581000D01*
X157617150Y-73664314D01*
X157641453Y-73744427D01*
X157680917Y-73818260D01*
X157734027Y-73882974D01*
X157750239Y-73896279D01*
X165039980Y-81186021D01*
X165035000Y-81211056D01*
X165035000Y-81348944D01*
X165061901Y-81484182D01*
X165114668Y-81611574D01*
X165191274Y-81726224D01*
X165288776Y-81823726D01*
X165403426Y-81900332D01*
X165530818Y-81953099D01*
X165666056Y-81980000D01*
X165803944Y-81980000D01*
X165939182Y-81953099D01*
X166066574Y-81900332D01*
X166117271Y-81866457D01*
X175526332Y-81866457D01*
X175607721Y-82104707D01*
X175869391Y-82223083D01*
X176149128Y-82288134D01*
X176436181Y-82297362D01*
X176719518Y-82250411D01*
X176988252Y-82149087D01*
X177071279Y-82104707D01*
X177152668Y-81866457D01*
X176339500Y-81053289D01*
X175526332Y-81866457D01*
X166117271Y-81866457D01*
X166181224Y-81823726D01*
X166278726Y-81726224D01*
X166355332Y-81611574D01*
X166408099Y-81484182D01*
X166435000Y-81348944D01*
X166435000Y-81211056D01*
X166408099Y-81075818D01*
X166355332Y-80948426D01*
X166344478Y-80932181D01*
X174877638Y-80932181D01*
X174924589Y-81215518D01*
X175025913Y-81484252D01*
X175070293Y-81567279D01*
X175308543Y-81648668D01*
X176121711Y-80835500D01*
X176557289Y-80835500D01*
X177370457Y-81648668D01*
X177608707Y-81567279D01*
X177727083Y-81305609D01*
X177792134Y-81025872D01*
X177801362Y-80738819D01*
X177754411Y-80455482D01*
X177653087Y-80186748D01*
X177608707Y-80103721D01*
X177370457Y-80022332D01*
X176557289Y-80835500D01*
X176121711Y-80835500D01*
X175308543Y-80022332D01*
X175070293Y-80103721D01*
X174951917Y-80365391D01*
X174886866Y-80645128D01*
X174877638Y-80932181D01*
X166344478Y-80932181D01*
X166278726Y-80833776D01*
X166181224Y-80736274D01*
X166066574Y-80659668D01*
X165939182Y-80606901D01*
X165803944Y-80580000D01*
X165666056Y-80580000D01*
X165641021Y-80584980D01*
X164860584Y-79804543D01*
X175526332Y-79804543D01*
X176339500Y-80617711D01*
X177152668Y-79804543D01*
X177071279Y-79566293D01*
X176809609Y-79447917D01*
X176529872Y-79382866D01*
X176242819Y-79373638D01*
X175959482Y-79420589D01*
X175690748Y-79521913D01*
X175607721Y-79566293D01*
X175526332Y-79804543D01*
X164860584Y-79804543D01*
X162778276Y-77722235D01*
X175189500Y-77722235D01*
X175189500Y-77948765D01*
X175233694Y-78170943D01*
X175320384Y-78380229D01*
X175446237Y-78568582D01*
X175606418Y-78728763D01*
X175794771Y-78854616D01*
X176004057Y-78941306D01*
X176226235Y-78985500D01*
X176452765Y-78985500D01*
X176674943Y-78941306D01*
X176884229Y-78854616D01*
X177072582Y-78728763D01*
X177232763Y-78568582D01*
X177358616Y-78380229D01*
X177445306Y-78170943D01*
X177489500Y-77948765D01*
X177489500Y-77722235D01*
X177445306Y-77500057D01*
X177358616Y-77290771D01*
X177232763Y-77102418D01*
X177072582Y-76942237D01*
X176884229Y-76816384D01*
X176674943Y-76729694D01*
X176452765Y-76685500D01*
X176226235Y-76685500D01*
X176004057Y-76729694D01*
X175794771Y-76816384D01*
X175606418Y-76942237D01*
X175446237Y-77102418D01*
X175320384Y-77290771D01*
X175233694Y-77500057D01*
X175189500Y-77722235D01*
X162778276Y-77722235D01*
X159799452Y-74743411D01*
X173444500Y-74743411D01*
X173444500Y-74927589D01*
X173480432Y-75108229D01*
X173550914Y-75278389D01*
X173653238Y-75431528D01*
X173783472Y-75561762D01*
X173936611Y-75664086D01*
X174106771Y-75734568D01*
X174287411Y-75770500D01*
X174471589Y-75770500D01*
X174652229Y-75734568D01*
X174822389Y-75664086D01*
X174975528Y-75561762D01*
X175105762Y-75431528D01*
X175208086Y-75278389D01*
X175278568Y-75108229D01*
X175314500Y-74927589D01*
X175314500Y-74743411D01*
X175278568Y-74562771D01*
X175208086Y-74392611D01*
X175105762Y-74239472D01*
X174975528Y-74109238D01*
X174822389Y-74006914D01*
X174652229Y-73936432D01*
X174471589Y-73900500D01*
X174287411Y-73900500D01*
X174106771Y-73936432D01*
X173936611Y-74006914D01*
X173783472Y-74109238D01*
X173653238Y-74239472D01*
X173550914Y-74392611D01*
X173480432Y-74562771D01*
X173444500Y-74743411D01*
X159799452Y-74743411D01*
X158461000Y-73404960D01*
X158461000Y-70217911D01*
X173317500Y-70217911D01*
X173317500Y-70402089D01*
X173353432Y-70582729D01*
X173423914Y-70752889D01*
X173526238Y-70906028D01*
X173656472Y-71036262D01*
X173809611Y-71138586D01*
X173979771Y-71209068D01*
X174160411Y-71245000D01*
X174344589Y-71245000D01*
X174525229Y-71209068D01*
X174695389Y-71138586D01*
X174848528Y-71036262D01*
X174978762Y-70906028D01*
X175081086Y-70752889D01*
X175151568Y-70582729D01*
X175187500Y-70402089D01*
X175187500Y-70217911D01*
X175151568Y-70037271D01*
X175081086Y-69867111D01*
X174978762Y-69713972D01*
X174848528Y-69583738D01*
X174695389Y-69481414D01*
X174525229Y-69410932D01*
X174344589Y-69375000D01*
X174160411Y-69375000D01*
X173979771Y-69410932D01*
X173809611Y-69481414D01*
X173656472Y-69583738D01*
X173526238Y-69713972D01*
X173423914Y-69867111D01*
X173353432Y-70037271D01*
X173317500Y-70217911D01*
X158461000Y-70217911D01*
X158461000Y-68270472D01*
X158533362Y-68240498D01*
X158705336Y-68125589D01*
X158770925Y-68060000D01*
X159675058Y-68060000D01*
X159686797Y-68179189D01*
X159721563Y-68293797D01*
X159778020Y-68399421D01*
X159853999Y-68492001D01*
X159946579Y-68567980D01*
X160052203Y-68624437D01*
X160166811Y-68659203D01*
X160286000Y-68670942D01*
X160730000Y-68668000D01*
X160882000Y-68516000D01*
X160882000Y-67464000D01*
X161190000Y-67464000D01*
X161190000Y-68516000D01*
X161342000Y-68668000D01*
X161786000Y-68670942D01*
X161905189Y-68659203D01*
X162019797Y-68624437D01*
X162125421Y-68567980D01*
X162218001Y-68492001D01*
X162293980Y-68399421D01*
X162350437Y-68293797D01*
X162385203Y-68179189D01*
X162396942Y-68060000D01*
X162394000Y-67616000D01*
X162242000Y-67464000D01*
X161190000Y-67464000D01*
X160882000Y-67464000D01*
X159830000Y-67464000D01*
X159678000Y-67616000D01*
X159675058Y-68060000D01*
X158770925Y-68060000D01*
X158851589Y-67979336D01*
X158966498Y-67807362D01*
X159045650Y-67616274D01*
X159086000Y-67413416D01*
X159086000Y-67206584D01*
X159045650Y-67003726D01*
X158966498Y-66812638D01*
X158851589Y-66640664D01*
X158770925Y-66560000D01*
X159675058Y-66560000D01*
X159678000Y-67004000D01*
X159830000Y-67156000D01*
X160882000Y-67156000D01*
X160882000Y-66104000D01*
X161190000Y-66104000D01*
X161190000Y-67156000D01*
X162242000Y-67156000D01*
X162394000Y-67004000D01*
X162396942Y-66560000D01*
X162385203Y-66440811D01*
X162350437Y-66326203D01*
X162293980Y-66220579D01*
X162218001Y-66127999D01*
X162125421Y-66052020D01*
X162019797Y-65995563D01*
X161905189Y-65960797D01*
X161786000Y-65949058D01*
X161342000Y-65952000D01*
X161190000Y-66104000D01*
X160882000Y-66104000D01*
X160730000Y-65952000D01*
X160286000Y-65949058D01*
X160166811Y-65960797D01*
X160052203Y-65995563D01*
X159946579Y-66052020D01*
X159853999Y-66127999D01*
X159778020Y-66220579D01*
X159721563Y-66326203D01*
X159686797Y-66440811D01*
X159675058Y-66560000D01*
X158770925Y-66560000D01*
X158705336Y-66494411D01*
X158533362Y-66379502D01*
X158342274Y-66300350D01*
X158139416Y-66260000D01*
X157932584Y-66260000D01*
X157729726Y-66300350D01*
X157538638Y-66379502D01*
X157366664Y-66494411D01*
X157220411Y-66640664D01*
X157105502Y-66812638D01*
X157026350Y-67003726D01*
X156986000Y-67206584D01*
X156086000Y-67206584D01*
X156045650Y-67003726D01*
X155966498Y-66812638D01*
X155851589Y-66640664D01*
X155705336Y-66494411D01*
X155533362Y-66379502D01*
X155342274Y-66300350D01*
X155139416Y-66260000D01*
X154932584Y-66260000D01*
X154729726Y-66300350D01*
X154538638Y-66379502D01*
X154366664Y-66494411D01*
X154220411Y-66640664D01*
X154105502Y-66812638D01*
X154026350Y-67003726D01*
X153986000Y-67206584D01*
X153986000Y-67413416D01*
X154026350Y-67616274D01*
X154105502Y-67807362D01*
X154220411Y-67979336D01*
X154366664Y-68125589D01*
X154538638Y-68240498D01*
X154611000Y-68270472D01*
X154611001Y-70212959D01*
X148683980Y-76139980D01*
X148658944Y-76135000D01*
X148521056Y-76135000D01*
X148385818Y-76161901D01*
X148258426Y-76214668D01*
X148143776Y-76291274D01*
X148046274Y-76388776D01*
X147969668Y-76503426D01*
X147916901Y-76630818D01*
X147890000Y-76766056D01*
X135580000Y-76766056D01*
X135580000Y-75139911D01*
X140153500Y-75139911D01*
X140153500Y-75324089D01*
X140189432Y-75504729D01*
X140259914Y-75674889D01*
X140362238Y-75828028D01*
X140492472Y-75958262D01*
X140645611Y-76060586D01*
X140815771Y-76131068D01*
X140996411Y-76167000D01*
X141180589Y-76167000D01*
X141361229Y-76131068D01*
X141531389Y-76060586D01*
X141684528Y-75958262D01*
X141814762Y-75828028D01*
X141917086Y-75674889D01*
X141987568Y-75504729D01*
X142023500Y-75324089D01*
X142023500Y-75139911D01*
X141987568Y-74959271D01*
X141917086Y-74789111D01*
X141814762Y-74635972D01*
X141684528Y-74505738D01*
X141531389Y-74403414D01*
X141361229Y-74332932D01*
X141180589Y-74297000D01*
X140996411Y-74297000D01*
X140815771Y-74332932D01*
X140645611Y-74403414D01*
X140492472Y-74505738D01*
X140362238Y-74635972D01*
X140259914Y-74789111D01*
X140189432Y-74959271D01*
X140153500Y-75139911D01*
X135580000Y-75139911D01*
X135580000Y-70169911D01*
X140153500Y-70169911D01*
X140153500Y-70354089D01*
X140189432Y-70534729D01*
X140259914Y-70704889D01*
X140362238Y-70858028D01*
X140492472Y-70988262D01*
X140645611Y-71090586D01*
X140815771Y-71161068D01*
X140996411Y-71197000D01*
X141180589Y-71197000D01*
X141361229Y-71161068D01*
X141531389Y-71090586D01*
X141684528Y-70988262D01*
X141814762Y-70858028D01*
X141917086Y-70704889D01*
X141987568Y-70534729D01*
X142023500Y-70354089D01*
X142023500Y-70169911D01*
X141987568Y-69989271D01*
X141917086Y-69819111D01*
X141814762Y-69665972D01*
X141684528Y-69535738D01*
X141531389Y-69433414D01*
X141361229Y-69362932D01*
X141180589Y-69327000D01*
X140996411Y-69327000D01*
X140815771Y-69362932D01*
X140645611Y-69433414D01*
X140492472Y-69535738D01*
X140362238Y-69665972D01*
X140259914Y-69819111D01*
X140189432Y-69989271D01*
X140153500Y-70169911D01*
X135580000Y-70169911D01*
X135580000Y-67148735D01*
X137978500Y-67148735D01*
X137978500Y-67375265D01*
X138022694Y-67597443D01*
X138109384Y-67806729D01*
X138235237Y-67995082D01*
X138395418Y-68155263D01*
X138583771Y-68281116D01*
X138793057Y-68367806D01*
X139015235Y-68412000D01*
X139241765Y-68412000D01*
X139463943Y-68367806D01*
X139673229Y-68281116D01*
X139861582Y-68155263D01*
X140021763Y-67995082D01*
X140147616Y-67806729D01*
X140234306Y-67597443D01*
X140278500Y-67375265D01*
X140278500Y-67148735D01*
X140234306Y-66926557D01*
X140147616Y-66717271D01*
X140021763Y-66528918D01*
X139861582Y-66368737D01*
X139673229Y-66242884D01*
X139463943Y-66156194D01*
X139241765Y-66112000D01*
X139015235Y-66112000D01*
X138793057Y-66156194D01*
X138583771Y-66242884D01*
X138395418Y-66368737D01*
X138235237Y-66528918D01*
X138109384Y-66717271D01*
X138022694Y-66926557D01*
X137978500Y-67148735D01*
X135580000Y-67148735D01*
X135580000Y-65292957D01*
X138315332Y-65292957D01*
X138396721Y-65531207D01*
X138658391Y-65649583D01*
X138938128Y-65714634D01*
X139225181Y-65723862D01*
X139508518Y-65676911D01*
X139777252Y-65575587D01*
X139860279Y-65531207D01*
X139941668Y-65292957D01*
X139128500Y-64479789D01*
X138315332Y-65292957D01*
X135580000Y-65292957D01*
X135580000Y-64358681D01*
X137666638Y-64358681D01*
X137713589Y-64642018D01*
X137814913Y-64910752D01*
X137859293Y-64993779D01*
X138097543Y-65075168D01*
X138910711Y-64262000D01*
X139346289Y-64262000D01*
X140159457Y-65075168D01*
X140397707Y-64993779D01*
X140516083Y-64732109D01*
X140581134Y-64452372D01*
X140590362Y-64165319D01*
X140543411Y-63881982D01*
X140442087Y-63613248D01*
X140397707Y-63530221D01*
X140159457Y-63448832D01*
X139346289Y-64262000D01*
X138910711Y-64262000D01*
X138097543Y-63448832D01*
X137859293Y-63530221D01*
X137740917Y-63791891D01*
X137675866Y-64071628D01*
X137666638Y-64358681D01*
X135580000Y-64358681D01*
X135580000Y-63231043D01*
X138315332Y-63231043D01*
X139128500Y-64044211D01*
X139741655Y-63431056D01*
X148525000Y-63431056D01*
X148525000Y-63568944D01*
X148551901Y-63704182D01*
X148604668Y-63831574D01*
X148681274Y-63946224D01*
X148778776Y-64043726D01*
X148893426Y-64120332D01*
X149020818Y-64173099D01*
X149156056Y-64200000D01*
X149293944Y-64200000D01*
X149429182Y-64173099D01*
X149556574Y-64120332D01*
X149671224Y-64043726D01*
X149768726Y-63946224D01*
X149845332Y-63831574D01*
X149898099Y-63704182D01*
X149925000Y-63568944D01*
X149925000Y-63431056D01*
X149920020Y-63406020D01*
X150671041Y-62655000D01*
X151671662Y-62655000D01*
X151657058Y-62661049D01*
X151526030Y-62748599D01*
X151414599Y-62860030D01*
X151327049Y-62991058D01*
X151266743Y-63136649D01*
X151236000Y-63291207D01*
X151236000Y-63448793D01*
X151266743Y-63603351D01*
X151327049Y-63748942D01*
X151414599Y-63879970D01*
X151526030Y-63991401D01*
X151657058Y-64078951D01*
X151802649Y-64139257D01*
X151957207Y-64170000D01*
X152114793Y-64170000D01*
X152269351Y-64139257D01*
X152414942Y-64078951D01*
X152545970Y-63991401D01*
X152657401Y-63879970D01*
X152744951Y-63748942D01*
X152805257Y-63603351D01*
X152836000Y-63448793D01*
X152836000Y-63291207D01*
X152805257Y-63136649D01*
X152744951Y-62991058D01*
X152657401Y-62860030D01*
X152545970Y-62748599D01*
X152414942Y-62661049D01*
X152400338Y-62655000D01*
X152779960Y-62655000D01*
X154056324Y-63931364D01*
X154026350Y-64003726D01*
X153986000Y-64206584D01*
X153986000Y-64413416D01*
X154026350Y-64616274D01*
X154105502Y-64807362D01*
X154220411Y-64979336D01*
X154366664Y-65125589D01*
X154538638Y-65240498D01*
X154729726Y-65319650D01*
X154932584Y-65360000D01*
X155139416Y-65360000D01*
X155342274Y-65319650D01*
X155533362Y-65240498D01*
X155705336Y-65125589D01*
X155851589Y-64979336D01*
X155966498Y-64807362D01*
X156045650Y-64616274D01*
X156086000Y-64413416D01*
X156086000Y-64206584D01*
X156986000Y-64206584D01*
X156986000Y-64413416D01*
X157026350Y-64616274D01*
X157105502Y-64807362D01*
X157220411Y-64979336D01*
X157366664Y-65125589D01*
X157538638Y-65240498D01*
X157729726Y-65319650D01*
X157932584Y-65360000D01*
X158139416Y-65360000D01*
X158342274Y-65319650D01*
X158533362Y-65240498D01*
X158705336Y-65125589D01*
X158851589Y-64979336D01*
X158966498Y-64807362D01*
X159045650Y-64616274D01*
X159086000Y-64413416D01*
X159086000Y-64206584D01*
X159986000Y-64206584D01*
X159986000Y-64413416D01*
X160026350Y-64616274D01*
X160105502Y-64807362D01*
X160220411Y-64979336D01*
X160366664Y-65125589D01*
X160538638Y-65240498D01*
X160729726Y-65319650D01*
X160932584Y-65360000D01*
X161139416Y-65360000D01*
X161342274Y-65319650D01*
X161533362Y-65240498D01*
X161705336Y-65125589D01*
X161851589Y-64979336D01*
X161966498Y-64807362D01*
X162045650Y-64616274D01*
X162086000Y-64413416D01*
X162086000Y-64206584D01*
X162045650Y-64003726D01*
X161966498Y-63812638D01*
X161851589Y-63640664D01*
X161705336Y-63494411D01*
X161533362Y-63379502D01*
X161342274Y-63300350D01*
X161296308Y-63291207D01*
X163236000Y-63291207D01*
X163236000Y-63448793D01*
X163266743Y-63603351D01*
X163327049Y-63748942D01*
X163414599Y-63879970D01*
X163526030Y-63991401D01*
X163657058Y-64078951D01*
X163802649Y-64139257D01*
X163957207Y-64170000D01*
X164114793Y-64170000D01*
X164269351Y-64139257D01*
X164414942Y-64078951D01*
X164545970Y-63991401D01*
X164657401Y-63879970D01*
X164744951Y-63748942D01*
X164805257Y-63603351D01*
X164836000Y-63448793D01*
X164836000Y-63291207D01*
X164805257Y-63136649D01*
X164744951Y-62991058D01*
X164657401Y-62860030D01*
X164545970Y-62748599D01*
X164414942Y-62661049D01*
X164269351Y-62600743D01*
X164114793Y-62570000D01*
X163957207Y-62570000D01*
X163802649Y-62600743D01*
X163657058Y-62661049D01*
X163526030Y-62748599D01*
X163414599Y-62860030D01*
X163327049Y-62991058D01*
X163266743Y-63136649D01*
X163236000Y-63291207D01*
X161296308Y-63291207D01*
X161139416Y-63260000D01*
X160932584Y-63260000D01*
X160729726Y-63300350D01*
X160538638Y-63379502D01*
X160366664Y-63494411D01*
X160220411Y-63640664D01*
X160105502Y-63812638D01*
X160026350Y-64003726D01*
X159986000Y-64206584D01*
X159086000Y-64206584D01*
X159045650Y-64003726D01*
X158966498Y-63812638D01*
X158851589Y-63640664D01*
X158705336Y-63494411D01*
X158533362Y-63379502D01*
X158461000Y-63349528D01*
X158461000Y-62485040D01*
X159561041Y-61385000D01*
X164923960Y-61385000D01*
X165945000Y-62406041D01*
X165945001Y-67387092D01*
X165923776Y-67401274D01*
X165826274Y-67498776D01*
X165749668Y-67613426D01*
X165696901Y-67740818D01*
X165670000Y-67876056D01*
X165670000Y-68013944D01*
X165696901Y-68149182D01*
X165749668Y-68276574D01*
X165826274Y-68391224D01*
X165923776Y-68488726D01*
X166038426Y-68565332D01*
X166165818Y-68618099D01*
X166301056Y-68645000D01*
X166438944Y-68645000D01*
X166574182Y-68618099D01*
X166701574Y-68565332D01*
X166816224Y-68488726D01*
X166913726Y-68391224D01*
X166947313Y-68340957D01*
X175399332Y-68340957D01*
X175480721Y-68579207D01*
X175742391Y-68697583D01*
X176022128Y-68762634D01*
X176309181Y-68771862D01*
X176592518Y-68724911D01*
X176861252Y-68623587D01*
X176944279Y-68579207D01*
X177025668Y-68340957D01*
X176212500Y-67527789D01*
X175399332Y-68340957D01*
X166947313Y-68340957D01*
X166990332Y-68276574D01*
X167043099Y-68149182D01*
X167070000Y-68013944D01*
X167070000Y-67876056D01*
X167043099Y-67740818D01*
X166990332Y-67613426D01*
X166913726Y-67498776D01*
X166821631Y-67406681D01*
X174750638Y-67406681D01*
X174797589Y-67690018D01*
X174898913Y-67958752D01*
X174943293Y-68041779D01*
X175181543Y-68123168D01*
X175994711Y-67310000D01*
X176430289Y-67310000D01*
X177243457Y-68123168D01*
X177481707Y-68041779D01*
X177600083Y-67780109D01*
X177665134Y-67500372D01*
X177674362Y-67213319D01*
X177627411Y-66929982D01*
X177526087Y-66661248D01*
X177481707Y-66578221D01*
X177243457Y-66496832D01*
X176430289Y-67310000D01*
X175994711Y-67310000D01*
X175181543Y-66496832D01*
X174943293Y-66578221D01*
X174824917Y-66839891D01*
X174759866Y-67119628D01*
X174750638Y-67406681D01*
X166821631Y-67406681D01*
X166816224Y-67401274D01*
X166795000Y-67387093D01*
X166795000Y-66279043D01*
X175399332Y-66279043D01*
X176212500Y-67092211D01*
X177025668Y-66279043D01*
X176944279Y-66040793D01*
X176682609Y-65922417D01*
X176402872Y-65857366D01*
X176115819Y-65848138D01*
X175832482Y-65895089D01*
X175563748Y-65996413D01*
X175480721Y-66040793D01*
X175399332Y-66279043D01*
X166795000Y-66279043D01*
X166795000Y-64196735D01*
X175062500Y-64196735D01*
X175062500Y-64423265D01*
X175106694Y-64645443D01*
X175193384Y-64854729D01*
X175319237Y-65043082D01*
X175479418Y-65203263D01*
X175667771Y-65329116D01*
X175877057Y-65415806D01*
X176099235Y-65460000D01*
X176325765Y-65460000D01*
X176547943Y-65415806D01*
X176757229Y-65329116D01*
X176945582Y-65203263D01*
X177105763Y-65043082D01*
X177231616Y-64854729D01*
X177318306Y-64645443D01*
X177362500Y-64423265D01*
X177362500Y-64196735D01*
X177318306Y-63974557D01*
X177231616Y-63765271D01*
X177105763Y-63576918D01*
X176945582Y-63416737D01*
X176757229Y-63290884D01*
X176547943Y-63204194D01*
X176325765Y-63160000D01*
X176099235Y-63160000D01*
X175877057Y-63204194D01*
X175667771Y-63290884D01*
X175479418Y-63416737D01*
X175319237Y-63576918D01*
X175193384Y-63765271D01*
X175106694Y-63974557D01*
X175062500Y-64196735D01*
X166795000Y-64196735D01*
X166795000Y-62250866D01*
X166797055Y-62229999D01*
X166795000Y-62209132D01*
X166795000Y-62209126D01*
X166788850Y-62146686D01*
X166788513Y-62145573D01*
X166771832Y-62090586D01*
X166764548Y-62066573D01*
X166725084Y-61992740D01*
X166671974Y-61928026D01*
X166655761Y-61914720D01*
X165415283Y-60674243D01*
X165401974Y-60658026D01*
X165337260Y-60604916D01*
X165263427Y-60565452D01*
X165183314Y-60541150D01*
X165120874Y-60535000D01*
X165120867Y-60535000D01*
X165100000Y-60532945D01*
X165079133Y-60535000D01*
X159405866Y-60535000D01*
X159384999Y-60532945D01*
X159364132Y-60535000D01*
X159364126Y-60535000D01*
X159310098Y-60540321D01*
X159301685Y-60541150D01*
X159277383Y-60548522D01*
X159221573Y-60565452D01*
X159147740Y-60604916D01*
X159083026Y-60658026D01*
X159069721Y-60674238D01*
X157750243Y-61993717D01*
X157734026Y-62007026D01*
X157680916Y-62071741D01*
X157641452Y-62145574D01*
X157617150Y-62225687D01*
X157611000Y-62288127D01*
X157611000Y-62288133D01*
X157608945Y-62309000D01*
X157611000Y-62329867D01*
X157611001Y-63349528D01*
X157538638Y-63379502D01*
X157366664Y-63494411D01*
X157220411Y-63640664D01*
X157105502Y-63812638D01*
X157026350Y-64003726D01*
X156986000Y-64206584D01*
X156086000Y-64206584D01*
X156045650Y-64003726D01*
X155966498Y-63812638D01*
X155851589Y-63640664D01*
X155705336Y-63494411D01*
X155533362Y-63379502D01*
X155342274Y-63300350D01*
X155139416Y-63260000D01*
X154932584Y-63260000D01*
X154729726Y-63300350D01*
X154657364Y-63330324D01*
X153271283Y-61944243D01*
X153257974Y-61928026D01*
X153193260Y-61874916D01*
X153119427Y-61835452D01*
X153039314Y-61811150D01*
X152976874Y-61805000D01*
X152976867Y-61805000D01*
X152956000Y-61802945D01*
X152935133Y-61805000D01*
X150515866Y-61805000D01*
X150494999Y-61802945D01*
X150474132Y-61805000D01*
X150474126Y-61805000D01*
X150420098Y-61810321D01*
X150411685Y-61811150D01*
X150387383Y-61818522D01*
X150331573Y-61835452D01*
X150257740Y-61874916D01*
X150193026Y-61928026D01*
X150179721Y-61944238D01*
X149318980Y-62804980D01*
X149293944Y-62800000D01*
X149156056Y-62800000D01*
X149020818Y-62826901D01*
X148893426Y-62879668D01*
X148778776Y-62956274D01*
X148681274Y-63053776D01*
X148604668Y-63168426D01*
X148551901Y-63295818D01*
X148525000Y-63431056D01*
X139741655Y-63431056D01*
X139941668Y-63231043D01*
X139860279Y-62992793D01*
X139598609Y-62874417D01*
X139318872Y-62809366D01*
X139031819Y-62800138D01*
X138748482Y-62847089D01*
X138479748Y-62948413D01*
X138396721Y-62992793D01*
X138315332Y-63231043D01*
X135580000Y-63231043D01*
X135580000Y-61169911D01*
X140153500Y-61169911D01*
X140153500Y-61354089D01*
X140189432Y-61534729D01*
X140259914Y-61704889D01*
X140362238Y-61858028D01*
X140492472Y-61988262D01*
X140645611Y-62090586D01*
X140815771Y-62161068D01*
X140996411Y-62197000D01*
X141180589Y-62197000D01*
X141361229Y-62161068D01*
X141531389Y-62090586D01*
X141684528Y-61988262D01*
X141814762Y-61858028D01*
X141917086Y-61704889D01*
X141987568Y-61534729D01*
X142023500Y-61354089D01*
X142023500Y-61169911D01*
X141987568Y-60989271D01*
X141917086Y-60819111D01*
X141814762Y-60665972D01*
X141684528Y-60535738D01*
X141531389Y-60433414D01*
X141361229Y-60362932D01*
X141180589Y-60327000D01*
X140996411Y-60327000D01*
X140815771Y-60362932D01*
X140645611Y-60433414D01*
X140492472Y-60535738D01*
X140362238Y-60665972D01*
X140259914Y-60819111D01*
X140189432Y-60989271D01*
X140153500Y-61169911D01*
X135580000Y-61169911D01*
X135580000Y-59512716D01*
X144250000Y-59512716D01*
X144250000Y-59867284D01*
X144319173Y-60215041D01*
X144454861Y-60542620D01*
X144651849Y-60837433D01*
X144902567Y-61088151D01*
X145197380Y-61285139D01*
X145524959Y-61420827D01*
X145872716Y-61490000D01*
X146227284Y-61490000D01*
X146575041Y-61420827D01*
X146902620Y-61285139D01*
X147197433Y-61088151D01*
X147448151Y-60837433D01*
X147645139Y-60542620D01*
X147780827Y-60215041D01*
X147850000Y-59867284D01*
X147850000Y-59512716D01*
X167745000Y-59512716D01*
X167745000Y-59867284D01*
X167814173Y-60215041D01*
X167949861Y-60542620D01*
X168146849Y-60837433D01*
X168397567Y-61088151D01*
X168692380Y-61285139D01*
X169019959Y-61420827D01*
X169367716Y-61490000D01*
X169722284Y-61490000D01*
X170070041Y-61420827D01*
X170397620Y-61285139D01*
X170498233Y-61217911D01*
X173317500Y-61217911D01*
X173317500Y-61402089D01*
X173353432Y-61582729D01*
X173423914Y-61752889D01*
X173526238Y-61906028D01*
X173656472Y-62036262D01*
X173809611Y-62138586D01*
X173979771Y-62209068D01*
X174160411Y-62245000D01*
X174344589Y-62245000D01*
X174525229Y-62209068D01*
X174695389Y-62138586D01*
X174848528Y-62036262D01*
X174978762Y-61906028D01*
X175081086Y-61752889D01*
X175151568Y-61582729D01*
X175187500Y-61402089D01*
X175187500Y-61217911D01*
X175151568Y-61037271D01*
X175081086Y-60867111D01*
X174978762Y-60713972D01*
X174848528Y-60583738D01*
X174695389Y-60481414D01*
X174525229Y-60410932D01*
X174344589Y-60375000D01*
X174160411Y-60375000D01*
X173979771Y-60410932D01*
X173809611Y-60481414D01*
X173656472Y-60583738D01*
X173526238Y-60713972D01*
X173423914Y-60867111D01*
X173353432Y-61037271D01*
X173317500Y-61217911D01*
X170498233Y-61217911D01*
X170692433Y-61088151D01*
X170943151Y-60837433D01*
X171140139Y-60542620D01*
X171275827Y-60215041D01*
X171345000Y-59867284D01*
X171345000Y-59512716D01*
X171275827Y-59164959D01*
X171140139Y-58837380D01*
X170943151Y-58542567D01*
X170692433Y-58291849D01*
X170397620Y-58094861D01*
X170070041Y-57959173D01*
X169722284Y-57890000D01*
X169367716Y-57890000D01*
X169019959Y-57959173D01*
X168692380Y-58094861D01*
X168397567Y-58291849D01*
X168146849Y-58542567D01*
X167949861Y-58837380D01*
X167814173Y-59164959D01*
X167745000Y-59512716D01*
X147850000Y-59512716D01*
X147780827Y-59164959D01*
X147645139Y-58837380D01*
X147448151Y-58542567D01*
X147197433Y-58291849D01*
X146902620Y-58094861D01*
X146575041Y-57959173D01*
X146227284Y-57890000D01*
X145872716Y-57890000D01*
X145524959Y-57959173D01*
X145197380Y-58094861D01*
X144902567Y-58291849D01*
X144651849Y-58542567D01*
X144454861Y-58837380D01*
X144319173Y-59164959D01*
X144250000Y-59512716D01*
X135580000Y-59512716D01*
X135580000Y-57165896D01*
X135599526Y-56966753D01*
X135652746Y-56790481D01*
X135739187Y-56627909D01*
X135855564Y-56485216D01*
X135997436Y-56367850D01*
X136159401Y-56280276D01*
X136335292Y-56225828D01*
X136533464Y-56205000D01*
X179054104Y-56205000D01*
X179253247Y-56224526D01*
%TD*%
M02*
