%TF.GenerationSoftware,KiCad,Pcbnew,(5.1.6)-1*%
%TF.CreationDate,2020-08-08T15:51:14-05:00*%
%TF.ProjectId,FanBoard,46616e42-6f61-4726-942e-6b696361645f,rev?*%
%TF.SameCoordinates,Original*%
%TF.FileFunction,Legend,Top*%
%TF.FilePolarity,Positive*%
%FSLAX46Y46*%
G04 Gerber Fmt 4.6, Leading zero omitted, Abs format (unit mm)*
G04 Created by KiCad (PCBNEW (5.1.6)-1) date 2020-08-08 15:51:14*
%MOMM*%
%LPD*%
G01*
G04 APERTURE LIST*
%ADD10C,0.150000*%
%ADD11C,0.120000*%
%ADD12C,0.152400*%
G04 APERTURE END LIST*
D10*
X150892380Y-58110380D02*
X150416190Y-58110380D01*
X150416190Y-57110380D01*
X151225714Y-58110380D02*
X151225714Y-57110380D01*
X151463809Y-57110380D01*
X151606666Y-57158000D01*
X151701904Y-57253238D01*
X151749523Y-57348476D01*
X151797142Y-57538952D01*
X151797142Y-57681809D01*
X151749523Y-57872285D01*
X151701904Y-57967523D01*
X151606666Y-58062761D01*
X151463809Y-58110380D01*
X151225714Y-58110380D01*
X152797142Y-58110380D02*
X152463809Y-57634190D01*
X152225714Y-58110380D02*
X152225714Y-57110380D01*
X152606666Y-57110380D01*
X152701904Y-57158000D01*
X152749523Y-57205619D01*
X152797142Y-57300857D01*
X152797142Y-57443714D01*
X152749523Y-57538952D01*
X152701904Y-57586571D01*
X152606666Y-57634190D01*
X152225714Y-57634190D01*
X153559047Y-57586571D02*
X153701904Y-57634190D01*
X153749523Y-57681809D01*
X153797142Y-57777047D01*
X153797142Y-57919904D01*
X153749523Y-58015142D01*
X153701904Y-58062761D01*
X153606666Y-58110380D01*
X153225714Y-58110380D01*
X153225714Y-57110380D01*
X153559047Y-57110380D01*
X153654285Y-57158000D01*
X153701904Y-57205619D01*
X153749523Y-57300857D01*
X153749523Y-57396095D01*
X153701904Y-57491333D01*
X153654285Y-57538952D01*
X153559047Y-57586571D01*
X153225714Y-57586571D01*
X154797142Y-58110380D02*
X154463809Y-57634190D01*
X154225714Y-58110380D02*
X154225714Y-57110380D01*
X154606666Y-57110380D01*
X154701904Y-57158000D01*
X154749523Y-57205619D01*
X154797142Y-57300857D01*
X154797142Y-57443714D01*
X154749523Y-57538952D01*
X154701904Y-57586571D01*
X154606666Y-57634190D01*
X154225714Y-57634190D01*
X155225714Y-58110380D02*
X155225714Y-57110380D01*
X155463809Y-57110380D01*
X155606666Y-57158000D01*
X155701904Y-57253238D01*
X155749523Y-57348476D01*
X155797142Y-57538952D01*
X155797142Y-57681809D01*
X155749523Y-57872285D01*
X155701904Y-57967523D01*
X155606666Y-58062761D01*
X155463809Y-58110380D01*
X155225714Y-58110380D01*
X156797142Y-58015142D02*
X156749523Y-58062761D01*
X156606666Y-58110380D01*
X156511428Y-58110380D01*
X156368571Y-58062761D01*
X156273333Y-57967523D01*
X156225714Y-57872285D01*
X156178095Y-57681809D01*
X156178095Y-57538952D01*
X156225714Y-57348476D01*
X156273333Y-57253238D01*
X156368571Y-57158000D01*
X156511428Y-57110380D01*
X156606666Y-57110380D01*
X156749523Y-57158000D01*
X156797142Y-57205619D01*
X157368571Y-58110380D02*
X157273333Y-58062761D01*
X157225714Y-58015142D01*
X157178095Y-57919904D01*
X157178095Y-57634190D01*
X157225714Y-57538952D01*
X157273333Y-57491333D01*
X157368571Y-57443714D01*
X157511428Y-57443714D01*
X157606666Y-57491333D01*
X157654285Y-57538952D01*
X157701904Y-57634190D01*
X157701904Y-57919904D01*
X157654285Y-58015142D01*
X157606666Y-58062761D01*
X157511428Y-58110380D01*
X157368571Y-58110380D01*
X158130476Y-57443714D02*
X158130476Y-58110380D01*
X158130476Y-57538952D02*
X158178095Y-57491333D01*
X158273333Y-57443714D01*
X158416190Y-57443714D01*
X158511428Y-57491333D01*
X158559047Y-57586571D01*
X158559047Y-58110380D01*
X159035238Y-57443714D02*
X159035238Y-58110380D01*
X159035238Y-57538952D02*
X159082857Y-57491333D01*
X159178095Y-57443714D01*
X159320952Y-57443714D01*
X159416190Y-57491333D01*
X159463809Y-57586571D01*
X159463809Y-58110380D01*
X138414285Y-58856571D02*
X138080952Y-58856571D01*
X138080952Y-59380380D02*
X138080952Y-58380380D01*
X138557142Y-58380380D01*
X138890476Y-59094666D02*
X139366666Y-59094666D01*
X138795238Y-59380380D02*
X139128571Y-58380380D01*
X139461904Y-59380380D01*
X139795238Y-59380380D02*
X139795238Y-58380380D01*
X140366666Y-59380380D01*
X140366666Y-58380380D01*
X141271428Y-58713714D02*
X141271428Y-59380380D01*
X141033333Y-58332761D02*
X140795238Y-59047047D01*
X141414285Y-59047047D01*
X138160285Y-72826571D02*
X137826952Y-72826571D01*
X137826952Y-73350380D02*
X137826952Y-72350380D01*
X138303142Y-72350380D01*
X138636476Y-73064666D02*
X139112666Y-73064666D01*
X138541238Y-73350380D02*
X138874571Y-72350380D01*
X139207904Y-73350380D01*
X139541238Y-73350380D02*
X139541238Y-72350380D01*
X140112666Y-73350380D01*
X140112666Y-72350380D01*
X140541238Y-72445619D02*
X140588857Y-72398000D01*
X140684095Y-72350380D01*
X140922190Y-72350380D01*
X141017428Y-72398000D01*
X141065047Y-72445619D01*
X141112666Y-72540857D01*
X141112666Y-72636095D01*
X141065047Y-72778952D01*
X140493619Y-73350380D01*
X141112666Y-73350380D01*
X174482285Y-58856571D02*
X174148952Y-58856571D01*
X174148952Y-59380380D02*
X174148952Y-58380380D01*
X174625142Y-58380380D01*
X174958476Y-59094666D02*
X175434666Y-59094666D01*
X174863238Y-59380380D02*
X175196571Y-58380380D01*
X175529904Y-59380380D01*
X175863238Y-59380380D02*
X175863238Y-58380380D01*
X176434666Y-59380380D01*
X176434666Y-58380380D01*
X176815619Y-58380380D02*
X177434666Y-58380380D01*
X177101333Y-58761333D01*
X177244190Y-58761333D01*
X177339428Y-58808952D01*
X177387047Y-58856571D01*
X177434666Y-58951809D01*
X177434666Y-59189904D01*
X177387047Y-59285142D01*
X177339428Y-59332761D01*
X177244190Y-59380380D01*
X176958476Y-59380380D01*
X176863238Y-59332761D01*
X176815619Y-59285142D01*
X174482285Y-72572571D02*
X174148952Y-72572571D01*
X174148952Y-73096380D02*
X174148952Y-72096380D01*
X174625142Y-72096380D01*
X174958476Y-72810666D02*
X175434666Y-72810666D01*
X174863238Y-73096380D02*
X175196571Y-72096380D01*
X175529904Y-73096380D01*
X175863238Y-73096380D02*
X175863238Y-72096380D01*
X176434666Y-73096380D01*
X176434666Y-72096380D01*
X177434666Y-73096380D02*
X176863238Y-73096380D01*
X177148952Y-73096380D02*
X177148952Y-72096380D01*
X177053714Y-72239238D01*
X176958476Y-72334476D01*
X176863238Y-72382095D01*
X153178476Y-83146380D02*
X153178476Y-83955904D01*
X153226095Y-84051142D01*
X153273714Y-84098761D01*
X153368952Y-84146380D01*
X153559428Y-84146380D01*
X153654666Y-84098761D01*
X153702285Y-84051142D01*
X153749904Y-83955904D01*
X153749904Y-83146380D01*
X154083238Y-83146380D02*
X154654666Y-83146380D01*
X154368952Y-84146380D02*
X154368952Y-83146380D01*
X154940380Y-84098761D02*
X155083238Y-84146380D01*
X155321333Y-84146380D01*
X155416571Y-84098761D01*
X155464190Y-84051142D01*
X155511809Y-83955904D01*
X155511809Y-83860666D01*
X155464190Y-83765428D01*
X155416571Y-83717809D01*
X155321333Y-83670190D01*
X155130857Y-83622571D01*
X155035619Y-83574952D01*
X154988000Y-83527333D01*
X154940380Y-83432095D01*
X154940380Y-83336857D01*
X154988000Y-83241619D01*
X155035619Y-83194000D01*
X155130857Y-83146380D01*
X155368952Y-83146380D01*
X155511809Y-83194000D01*
X155797523Y-83146380D02*
X156130857Y-84146380D01*
X156464190Y-83146380D01*
X156654666Y-83146380D02*
X157226095Y-83146380D01*
X156940380Y-84146380D02*
X156940380Y-83146380D01*
X158321333Y-83765428D02*
X159083238Y-83765428D01*
X160654666Y-83622571D02*
X160797523Y-83670190D01*
X160845142Y-83717809D01*
X160892761Y-83813047D01*
X160892761Y-83955904D01*
X160845142Y-84051142D01*
X160797523Y-84098761D01*
X160702285Y-84146380D01*
X160321333Y-84146380D01*
X160321333Y-83146380D01*
X160654666Y-83146380D01*
X160749904Y-83194000D01*
X160797523Y-83241619D01*
X160845142Y-83336857D01*
X160845142Y-83432095D01*
X160797523Y-83527333D01*
X160749904Y-83574952D01*
X160654666Y-83622571D01*
X160321333Y-83622571D01*
X161321333Y-84146380D02*
X161321333Y-83146380D01*
X161702285Y-83146380D01*
X161797523Y-83194000D01*
X161845142Y-83241619D01*
X161892761Y-83336857D01*
X161892761Y-83479714D01*
X161845142Y-83574952D01*
X161797523Y-83622571D01*
X161702285Y-83670190D01*
X161321333Y-83670190D01*
X162273714Y-84098761D02*
X162416571Y-84146380D01*
X162654666Y-84146380D01*
X162749904Y-84098761D01*
X162797523Y-84051142D01*
X162845142Y-83955904D01*
X162845142Y-83860666D01*
X162797523Y-83765428D01*
X162749904Y-83717809D01*
X162654666Y-83670190D01*
X162464190Y-83622571D01*
X162368952Y-83574952D01*
X162321333Y-83527333D01*
X162273714Y-83432095D01*
X162273714Y-83336857D01*
X162321333Y-83241619D01*
X162368952Y-83194000D01*
X162464190Y-83146380D01*
X162702285Y-83146380D01*
X162845142Y-83194000D01*
X152726095Y-85272571D02*
X152392761Y-85272571D01*
X152392761Y-85796380D02*
X152392761Y-84796380D01*
X152868952Y-84796380D01*
X153678476Y-85796380D02*
X153678476Y-85272571D01*
X153630857Y-85177333D01*
X153535619Y-85129714D01*
X153345142Y-85129714D01*
X153249904Y-85177333D01*
X153678476Y-85748761D02*
X153583238Y-85796380D01*
X153345142Y-85796380D01*
X153249904Y-85748761D01*
X153202285Y-85653523D01*
X153202285Y-85558285D01*
X153249904Y-85463047D01*
X153345142Y-85415428D01*
X153583238Y-85415428D01*
X153678476Y-85367809D01*
X154154666Y-85129714D02*
X154154666Y-85796380D01*
X154154666Y-85224952D02*
X154202285Y-85177333D01*
X154297523Y-85129714D01*
X154440380Y-85129714D01*
X154535619Y-85177333D01*
X154583238Y-85272571D01*
X154583238Y-85796380D01*
X156154666Y-85272571D02*
X156297523Y-85320190D01*
X156345142Y-85367809D01*
X156392761Y-85463047D01*
X156392761Y-85605904D01*
X156345142Y-85701142D01*
X156297523Y-85748761D01*
X156202285Y-85796380D01*
X155821333Y-85796380D01*
X155821333Y-84796380D01*
X156154666Y-84796380D01*
X156249904Y-84844000D01*
X156297523Y-84891619D01*
X156345142Y-84986857D01*
X156345142Y-85082095D01*
X156297523Y-85177333D01*
X156249904Y-85224952D01*
X156154666Y-85272571D01*
X155821333Y-85272571D01*
X156964190Y-85796380D02*
X156868952Y-85748761D01*
X156821333Y-85701142D01*
X156773714Y-85605904D01*
X156773714Y-85320190D01*
X156821333Y-85224952D01*
X156868952Y-85177333D01*
X156964190Y-85129714D01*
X157107047Y-85129714D01*
X157202285Y-85177333D01*
X157249904Y-85224952D01*
X157297523Y-85320190D01*
X157297523Y-85605904D01*
X157249904Y-85701142D01*
X157202285Y-85748761D01*
X157107047Y-85796380D01*
X156964190Y-85796380D01*
X158154666Y-85796380D02*
X158154666Y-85272571D01*
X158107047Y-85177333D01*
X158011809Y-85129714D01*
X157821333Y-85129714D01*
X157726095Y-85177333D01*
X158154666Y-85748761D02*
X158059428Y-85796380D01*
X157821333Y-85796380D01*
X157726095Y-85748761D01*
X157678476Y-85653523D01*
X157678476Y-85558285D01*
X157726095Y-85463047D01*
X157821333Y-85415428D01*
X158059428Y-85415428D01*
X158154666Y-85367809D01*
X158630857Y-85796380D02*
X158630857Y-85129714D01*
X158630857Y-85320190D02*
X158678476Y-85224952D01*
X158726095Y-85177333D01*
X158821333Y-85129714D01*
X158916571Y-85129714D01*
X159678476Y-85796380D02*
X159678476Y-84796380D01*
X159678476Y-85748761D02*
X159583238Y-85796380D01*
X159392761Y-85796380D01*
X159297523Y-85748761D01*
X159249904Y-85701142D01*
X159202285Y-85605904D01*
X159202285Y-85320190D01*
X159249904Y-85224952D01*
X159297523Y-85177333D01*
X159392761Y-85129714D01*
X159583238Y-85129714D01*
X159678476Y-85177333D01*
X160821333Y-85129714D02*
X161059428Y-85796380D01*
X161297523Y-85129714D01*
X162202285Y-85796380D02*
X161630857Y-85796380D01*
X161916571Y-85796380D02*
X161916571Y-84796380D01*
X161821333Y-84939238D01*
X161726095Y-85034476D01*
X161630857Y-85082095D01*
X162630857Y-85701142D02*
X162678476Y-85748761D01*
X162630857Y-85796380D01*
X162583238Y-85748761D01*
X162630857Y-85701142D01*
X162630857Y-85796380D01*
X163297523Y-84796380D02*
X163392761Y-84796380D01*
X163488000Y-84844000D01*
X163535619Y-84891619D01*
X163583238Y-84986857D01*
X163630857Y-85177333D01*
X163630857Y-85415428D01*
X163583238Y-85605904D01*
X163535619Y-85701142D01*
X163488000Y-85748761D01*
X163392761Y-85796380D01*
X163297523Y-85796380D01*
X163202285Y-85748761D01*
X163154666Y-85701142D01*
X163107047Y-85605904D01*
X163059428Y-85415428D01*
X163059428Y-85177333D01*
X163107047Y-84986857D01*
X163154666Y-84891619D01*
X163202285Y-84844000D01*
X163297523Y-84796380D01*
X152892761Y-87398761D02*
X153035619Y-87446380D01*
X153273714Y-87446380D01*
X153368952Y-87398761D01*
X153416571Y-87351142D01*
X153464190Y-87255904D01*
X153464190Y-87160666D01*
X153416571Y-87065428D01*
X153368952Y-87017809D01*
X153273714Y-86970190D01*
X153083238Y-86922571D01*
X152988000Y-86874952D01*
X152940380Y-86827333D01*
X152892761Y-86732095D01*
X152892761Y-86636857D01*
X152940380Y-86541619D01*
X152988000Y-86494000D01*
X153083238Y-86446380D01*
X153321333Y-86446380D01*
X153464190Y-86494000D01*
X154321333Y-86779714D02*
X154321333Y-87446380D01*
X153892761Y-86779714D02*
X153892761Y-87303523D01*
X153940380Y-87398761D01*
X154035619Y-87446380D01*
X154178476Y-87446380D01*
X154273714Y-87398761D01*
X154321333Y-87351142D01*
X154797523Y-87446380D02*
X154797523Y-86779714D01*
X154797523Y-86874952D02*
X154845142Y-86827333D01*
X154940380Y-86779714D01*
X155083238Y-86779714D01*
X155178476Y-86827333D01*
X155226095Y-86922571D01*
X155226095Y-87446380D01*
X155226095Y-86922571D02*
X155273714Y-86827333D01*
X155368952Y-86779714D01*
X155511809Y-86779714D01*
X155607047Y-86827333D01*
X155654666Y-86922571D01*
X155654666Y-87446380D01*
X156130857Y-87446380D02*
X156130857Y-86779714D01*
X156130857Y-86874952D02*
X156178476Y-86827333D01*
X156273714Y-86779714D01*
X156416571Y-86779714D01*
X156511809Y-86827333D01*
X156559428Y-86922571D01*
X156559428Y-87446380D01*
X156559428Y-86922571D02*
X156607047Y-86827333D01*
X156702285Y-86779714D01*
X156845142Y-86779714D01*
X156940380Y-86827333D01*
X156988000Y-86922571D01*
X156988000Y-87446380D01*
X157845142Y-87398761D02*
X157749904Y-87446380D01*
X157559428Y-87446380D01*
X157464190Y-87398761D01*
X157416571Y-87303523D01*
X157416571Y-86922571D01*
X157464190Y-86827333D01*
X157559428Y-86779714D01*
X157749904Y-86779714D01*
X157845142Y-86827333D01*
X157892761Y-86922571D01*
X157892761Y-87017809D01*
X157416571Y-87113047D01*
X158321333Y-87446380D02*
X158321333Y-86779714D01*
X158321333Y-86970190D02*
X158368952Y-86874952D01*
X158416571Y-86827333D01*
X158511809Y-86779714D01*
X158607047Y-86779714D01*
X159654666Y-86541619D02*
X159702285Y-86494000D01*
X159797523Y-86446380D01*
X160035619Y-86446380D01*
X160130857Y-86494000D01*
X160178476Y-86541619D01*
X160226095Y-86636857D01*
X160226095Y-86732095D01*
X160178476Y-86874952D01*
X159607047Y-87446380D01*
X160226095Y-87446380D01*
X160845142Y-86446380D02*
X160940380Y-86446380D01*
X161035619Y-86494000D01*
X161083238Y-86541619D01*
X161130857Y-86636857D01*
X161178476Y-86827333D01*
X161178476Y-87065428D01*
X161130857Y-87255904D01*
X161083238Y-87351142D01*
X161035619Y-87398761D01*
X160940380Y-87446380D01*
X160845142Y-87446380D01*
X160749904Y-87398761D01*
X160702285Y-87351142D01*
X160654666Y-87255904D01*
X160607047Y-87065428D01*
X160607047Y-86827333D01*
X160654666Y-86636857D01*
X160702285Y-86541619D01*
X160749904Y-86494000D01*
X160845142Y-86446380D01*
X161559428Y-86541619D02*
X161607047Y-86494000D01*
X161702285Y-86446380D01*
X161940380Y-86446380D01*
X162035619Y-86494000D01*
X162083238Y-86541619D01*
X162130857Y-86636857D01*
X162130857Y-86732095D01*
X162083238Y-86874952D01*
X161511809Y-87446380D01*
X162130857Y-87446380D01*
X162749904Y-86446380D02*
X162845142Y-86446380D01*
X162940380Y-86494000D01*
X162988000Y-86541619D01*
X163035619Y-86636857D01*
X163083238Y-86827333D01*
X163083238Y-87065428D01*
X163035619Y-87255904D01*
X162988000Y-87351142D01*
X162940380Y-87398761D01*
X162845142Y-87446380D01*
X162749904Y-87446380D01*
X162654666Y-87398761D01*
X162607047Y-87351142D01*
X162559428Y-87255904D01*
X162511809Y-87065428D01*
X162511809Y-86827333D01*
X162559428Y-86636857D01*
X162607047Y-86541619D01*
X162654666Y-86494000D01*
X162749904Y-86446380D01*
X161742380Y-71739047D02*
X161742380Y-72310476D01*
X161742380Y-72024761D02*
X160742380Y-72024761D01*
X160885238Y-72120000D01*
X160980476Y-72215238D01*
X161028095Y-72310476D01*
X160837619Y-71358095D02*
X160790000Y-71310476D01*
X160742380Y-71215238D01*
X160742380Y-70977142D01*
X160790000Y-70881904D01*
X160837619Y-70834285D01*
X160932857Y-70786666D01*
X161028095Y-70786666D01*
X161170952Y-70834285D01*
X161742380Y-71405714D01*
X161742380Y-70786666D01*
X160742380Y-70500952D02*
X161742380Y-70167619D01*
X160742380Y-69834285D01*
X155122571Y-72659714D02*
X155122571Y-72993047D01*
X155646380Y-72993047D02*
X154646380Y-72993047D01*
X154646380Y-72516857D01*
X155360666Y-72183523D02*
X155360666Y-71707333D01*
X155646380Y-72278761D02*
X154646380Y-71945428D01*
X155646380Y-71612095D01*
X155646380Y-71278761D02*
X154646380Y-71278761D01*
X155646380Y-70707333D01*
X154646380Y-70707333D01*
X154741619Y-70278761D02*
X154694000Y-70231142D01*
X154646380Y-70135904D01*
X154646380Y-69897809D01*
X154694000Y-69802571D01*
X154741619Y-69754952D01*
X154836857Y-69707333D01*
X154932095Y-69707333D01*
X155074952Y-69754952D01*
X155646380Y-70326380D01*
X155646380Y-69707333D01*
X158170571Y-72659714D02*
X158170571Y-72993047D01*
X158694380Y-72993047D02*
X157694380Y-72993047D01*
X157694380Y-72516857D01*
X158408666Y-72183523D02*
X158408666Y-71707333D01*
X158694380Y-72278761D02*
X157694380Y-71945428D01*
X158694380Y-71612095D01*
X158694380Y-71278761D02*
X157694380Y-71278761D01*
X158694380Y-70707333D01*
X157694380Y-70707333D01*
X158694380Y-69707333D02*
X158694380Y-70278761D01*
X158694380Y-69993047D02*
X157694380Y-69993047D01*
X157837238Y-70088285D01*
X157932476Y-70183523D01*
X157980095Y-70278761D01*
X155122571Y-61737714D02*
X155122571Y-62071047D01*
X155646380Y-62071047D02*
X154646380Y-62071047D01*
X154646380Y-61594857D01*
X155360666Y-61261523D02*
X155360666Y-60785333D01*
X155646380Y-61356761D02*
X154646380Y-61023428D01*
X155646380Y-60690095D01*
X155646380Y-60356761D02*
X154646380Y-60356761D01*
X155646380Y-59785333D01*
X154646380Y-59785333D01*
X154979714Y-58880571D02*
X155646380Y-58880571D01*
X154598761Y-59118666D02*
X155313047Y-59356761D01*
X155313047Y-58737714D01*
X158170571Y-61737714D02*
X158170571Y-62071047D01*
X158694380Y-62071047D02*
X157694380Y-62071047D01*
X157694380Y-61594857D01*
X158408666Y-61261523D02*
X158408666Y-60785333D01*
X158694380Y-61356761D02*
X157694380Y-61023428D01*
X158694380Y-60690095D01*
X158694380Y-60356761D02*
X157694380Y-60356761D01*
X158694380Y-59785333D01*
X157694380Y-59785333D01*
X157694380Y-59404380D02*
X157694380Y-58785333D01*
X158075333Y-59118666D01*
X158075333Y-58975809D01*
X158122952Y-58880571D01*
X158170571Y-58832952D01*
X158265809Y-58785333D01*
X158503904Y-58785333D01*
X158599142Y-58832952D01*
X158646761Y-58880571D01*
X158694380Y-58975809D01*
X158694380Y-59261523D01*
X158646761Y-59356761D01*
X158599142Y-59404380D01*
X161742380Y-62039142D02*
X160742380Y-62039142D01*
X160742380Y-61658190D01*
X160790000Y-61562952D01*
X160837619Y-61515333D01*
X160932857Y-61467714D01*
X161075714Y-61467714D01*
X161170952Y-61515333D01*
X161218571Y-61562952D01*
X161266190Y-61658190D01*
X161266190Y-62039142D01*
X160742380Y-61134380D02*
X161742380Y-60896285D01*
X161028095Y-60705809D01*
X161742380Y-60515333D01*
X160742380Y-60277238D01*
X161742380Y-59324857D02*
X161266190Y-59658190D01*
X161742380Y-59896285D02*
X160742380Y-59896285D01*
X160742380Y-59515333D01*
X160790000Y-59420095D01*
X160837619Y-59372476D01*
X160932857Y-59324857D01*
X161075714Y-59324857D01*
X161170952Y-59372476D01*
X161218571Y-59420095D01*
X161266190Y-59515333D01*
X161266190Y-59896285D01*
X160790000Y-58372476D02*
X160742380Y-58467714D01*
X160742380Y-58610571D01*
X160790000Y-58753428D01*
X160885238Y-58848666D01*
X160980476Y-58896285D01*
X161170952Y-58943904D01*
X161313809Y-58943904D01*
X161504285Y-58896285D01*
X161599523Y-58848666D01*
X161694761Y-58753428D01*
X161742380Y-58610571D01*
X161742380Y-58515333D01*
X161694761Y-58372476D01*
X161647142Y-58324857D01*
X161313809Y-58324857D01*
X161313809Y-58515333D01*
X161742380Y-57896285D02*
X160742380Y-57896285D01*
X161742380Y-57324857D01*
X160742380Y-57324857D01*
X161742380Y-56848666D02*
X160742380Y-56848666D01*
X160742380Y-56610571D01*
X160790000Y-56467714D01*
X160885238Y-56372476D01*
X160980476Y-56324857D01*
X161170952Y-56277238D01*
X161313809Y-56277238D01*
X161504285Y-56324857D01*
X161599523Y-56372476D01*
X161694761Y-56467714D01*
X161742380Y-56610571D01*
X161742380Y-56848666D01*
X136524952Y-64444571D02*
X135763047Y-64444571D01*
X136144000Y-64063619D02*
X136144000Y-64825523D01*
X136524952Y-67492571D02*
X135763047Y-67492571D01*
X136524952Y-78414571D02*
X135763047Y-78414571D01*
X136144000Y-78033619D02*
X136144000Y-78795523D01*
X136524952Y-81462571D02*
X135763047Y-81462571D01*
X178689047Y-67381428D02*
X179450952Y-67381428D01*
X179070000Y-67762380D02*
X179070000Y-67000476D01*
X178689047Y-64333428D02*
X179450952Y-64333428D01*
X178943047Y-77795428D02*
X179704952Y-77795428D01*
X178943047Y-80843428D02*
X179704952Y-80843428D01*
X179324000Y-81224380D02*
X179324000Y-80462476D01*
D11*
X159893000Y-81915000D02*
X159893000Y-78613000D01*
X151765000Y-81915000D02*
X151765000Y-78613000D01*
X164465000Y-81915000D02*
X151765000Y-81915000D01*
X164465000Y-81661000D02*
X164465000Y-81915000D01*
X164465000Y-78613000D02*
X164465000Y-81661000D01*
X151765000Y-78613000D02*
X164465000Y-78613000D01*
D10*
X161417095Y-79240571D02*
X161083761Y-79240571D01*
X161083761Y-79764380D02*
X161083761Y-78764380D01*
X161559952Y-78764380D01*
X162369476Y-79764380D02*
X162369476Y-79240571D01*
X162321857Y-79145333D01*
X162226619Y-79097714D01*
X162036142Y-79097714D01*
X161940904Y-79145333D01*
X162369476Y-79716761D02*
X162274238Y-79764380D01*
X162036142Y-79764380D01*
X161940904Y-79716761D01*
X161893285Y-79621523D01*
X161893285Y-79526285D01*
X161940904Y-79431047D01*
X162036142Y-79383428D01*
X162274238Y-79383428D01*
X162369476Y-79335809D01*
X162845666Y-79097714D02*
X162845666Y-79764380D01*
X162845666Y-79192952D02*
X162893285Y-79145333D01*
X162988523Y-79097714D01*
X163131380Y-79097714D01*
X163226619Y-79145333D01*
X163274238Y-79240571D01*
X163274238Y-79764380D01*
X160583761Y-80890571D02*
X160726619Y-80938190D01*
X160774238Y-80985809D01*
X160821857Y-81081047D01*
X160821857Y-81223904D01*
X160774238Y-81319142D01*
X160726619Y-81366761D01*
X160631380Y-81414380D01*
X160250428Y-81414380D01*
X160250428Y-80414380D01*
X160583761Y-80414380D01*
X160679000Y-80462000D01*
X160726619Y-80509619D01*
X160774238Y-80604857D01*
X160774238Y-80700095D01*
X160726619Y-80795333D01*
X160679000Y-80842952D01*
X160583761Y-80890571D01*
X160250428Y-80890571D01*
X161393285Y-81414380D02*
X161298047Y-81366761D01*
X161250428Y-81319142D01*
X161202809Y-81223904D01*
X161202809Y-80938190D01*
X161250428Y-80842952D01*
X161298047Y-80795333D01*
X161393285Y-80747714D01*
X161536142Y-80747714D01*
X161631380Y-80795333D01*
X161679000Y-80842952D01*
X161726619Y-80938190D01*
X161726619Y-81223904D01*
X161679000Y-81319142D01*
X161631380Y-81366761D01*
X161536142Y-81414380D01*
X161393285Y-81414380D01*
X162583761Y-81414380D02*
X162583761Y-80890571D01*
X162536142Y-80795333D01*
X162440904Y-80747714D01*
X162250428Y-80747714D01*
X162155190Y-80795333D01*
X162583761Y-81366761D02*
X162488523Y-81414380D01*
X162250428Y-81414380D01*
X162155190Y-81366761D01*
X162107571Y-81271523D01*
X162107571Y-81176285D01*
X162155190Y-81081047D01*
X162250428Y-81033428D01*
X162488523Y-81033428D01*
X162583761Y-80985809D01*
X163059952Y-81414380D02*
X163059952Y-80747714D01*
X163059952Y-80938190D02*
X163107571Y-80842952D01*
X163155190Y-80795333D01*
X163250428Y-80747714D01*
X163345666Y-80747714D01*
X164107571Y-81414380D02*
X164107571Y-80414380D01*
X164107571Y-81366761D02*
X164012333Y-81414380D01*
X163821857Y-81414380D01*
X163726619Y-81366761D01*
X163679000Y-81319142D01*
X163631380Y-81223904D01*
X163631380Y-80938190D01*
X163679000Y-80842952D01*
X163726619Y-80795333D01*
X163821857Y-80747714D01*
X164012333Y-80747714D01*
X164107571Y-80795333D01*
X152948047Y-79764380D02*
X152948047Y-78764380D01*
X153281380Y-79478666D01*
X153614714Y-78764380D01*
X153614714Y-79764380D01*
X154519476Y-79764380D02*
X154519476Y-79240571D01*
X154471857Y-79145333D01*
X154376619Y-79097714D01*
X154186142Y-79097714D01*
X154090904Y-79145333D01*
X154519476Y-79716761D02*
X154424238Y-79764380D01*
X154186142Y-79764380D01*
X154090904Y-79716761D01*
X154043285Y-79621523D01*
X154043285Y-79526285D01*
X154090904Y-79431047D01*
X154186142Y-79383428D01*
X154424238Y-79383428D01*
X154519476Y-79335809D01*
X154995666Y-79097714D02*
X154995666Y-79764380D01*
X154995666Y-79192952D02*
X155043285Y-79145333D01*
X155138523Y-79097714D01*
X155281380Y-79097714D01*
X155376619Y-79145333D01*
X155424238Y-79240571D01*
X155424238Y-79764380D01*
X155757571Y-79097714D02*
X156138523Y-79097714D01*
X155900428Y-78764380D02*
X155900428Y-79621523D01*
X155948047Y-79716761D01*
X156043285Y-79764380D01*
X156138523Y-79764380D01*
X156471857Y-79764380D02*
X156471857Y-78764380D01*
X156900428Y-79764380D02*
X156900428Y-79240571D01*
X156852809Y-79145333D01*
X156757571Y-79097714D01*
X156614714Y-79097714D01*
X156519476Y-79145333D01*
X156471857Y-79192952D01*
X157805190Y-79764380D02*
X157805190Y-79240571D01*
X157757571Y-79145333D01*
X157662333Y-79097714D01*
X157471857Y-79097714D01*
X157376619Y-79145333D01*
X157805190Y-79716761D02*
X157709952Y-79764380D01*
X157471857Y-79764380D01*
X157376619Y-79716761D01*
X157329000Y-79621523D01*
X157329000Y-79526285D01*
X157376619Y-79431047D01*
X157471857Y-79383428D01*
X157709952Y-79383428D01*
X157805190Y-79335809D01*
X158281380Y-79097714D02*
X158281380Y-79764380D01*
X158281380Y-79192952D02*
X158329000Y-79145333D01*
X158424238Y-79097714D01*
X158567095Y-79097714D01*
X158662333Y-79145333D01*
X158709952Y-79240571D01*
X158709952Y-79764380D01*
X152067095Y-80414380D02*
X152067095Y-81223904D01*
X152114714Y-81319142D01*
X152162333Y-81366761D01*
X152257571Y-81414380D01*
X152448047Y-81414380D01*
X152543285Y-81366761D01*
X152590904Y-81319142D01*
X152638523Y-81223904D01*
X152638523Y-80414380D01*
X153114714Y-80747714D02*
X153114714Y-81747714D01*
X153114714Y-80795333D02*
X153209952Y-80747714D01*
X153400428Y-80747714D01*
X153495666Y-80795333D01*
X153543285Y-80842952D01*
X153590904Y-80938190D01*
X153590904Y-81223904D01*
X153543285Y-81319142D01*
X153495666Y-81366761D01*
X153400428Y-81414380D01*
X153209952Y-81414380D01*
X153114714Y-81366761D01*
X154448047Y-81414380D02*
X154448047Y-80890571D01*
X154400428Y-80795333D01*
X154305190Y-80747714D01*
X154114714Y-80747714D01*
X154019476Y-80795333D01*
X154448047Y-81366761D02*
X154352809Y-81414380D01*
X154114714Y-81414380D01*
X154019476Y-81366761D01*
X153971857Y-81271523D01*
X153971857Y-81176285D01*
X154019476Y-81081047D01*
X154114714Y-81033428D01*
X154352809Y-81033428D01*
X154448047Y-80985809D01*
X155352809Y-81414380D02*
X155352809Y-80414380D01*
X155352809Y-81366761D02*
X155257571Y-81414380D01*
X155067095Y-81414380D01*
X154971857Y-81366761D01*
X154924238Y-81319142D01*
X154876619Y-81223904D01*
X154876619Y-80938190D01*
X154924238Y-80842952D01*
X154971857Y-80795333D01*
X155067095Y-80747714D01*
X155257571Y-80747714D01*
X155352809Y-80795333D01*
X155829000Y-81414380D02*
X155829000Y-80414380D01*
X156257571Y-81414380D02*
X156257571Y-80890571D01*
X156209952Y-80795333D01*
X156114714Y-80747714D01*
X155971857Y-80747714D01*
X155876619Y-80795333D01*
X155829000Y-80842952D01*
X156638523Y-80747714D02*
X156876619Y-81414380D01*
X157114714Y-80747714D02*
X156876619Y-81414380D01*
X156781380Y-81652476D01*
X156733761Y-81700095D01*
X156638523Y-81747714D01*
X157924238Y-81414380D02*
X157924238Y-80890571D01*
X157876619Y-80795333D01*
X157781380Y-80747714D01*
X157590904Y-80747714D01*
X157495666Y-80795333D01*
X157924238Y-81366761D02*
X157829000Y-81414380D01*
X157590904Y-81414380D01*
X157495666Y-81366761D01*
X157448047Y-81271523D01*
X157448047Y-81176285D01*
X157495666Y-81081047D01*
X157590904Y-81033428D01*
X157829000Y-81033428D01*
X157924238Y-80985809D01*
X158305190Y-80747714D02*
X158543285Y-81414380D01*
X158781380Y-80747714D02*
X158543285Y-81414380D01*
X158448047Y-81652476D01*
X158400428Y-81700095D01*
X158305190Y-81747714D01*
X159590904Y-81414380D02*
X159590904Y-80890571D01*
X159543285Y-80795333D01*
X159448047Y-80747714D01*
X159257571Y-80747714D01*
X159162333Y-80795333D01*
X159590904Y-81366761D02*
X159495666Y-81414380D01*
X159257571Y-81414380D01*
X159162333Y-81366761D01*
X159114714Y-81271523D01*
X159114714Y-81176285D01*
X159162333Y-81081047D01*
X159257571Y-81033428D01*
X159495666Y-81033428D01*
X159590904Y-80985809D01*
D11*
%TO.C,R1*%
X160601922Y-76656000D02*
X161119078Y-76656000D01*
X160601922Y-75236000D02*
X161119078Y-75236000D01*
%TO.C,LED1*%
X155131500Y-76906000D02*
X157816500Y-76906000D01*
X157816500Y-76906000D02*
X157816500Y-74986000D01*
X157816500Y-74986000D02*
X155131500Y-74986000D01*
%TO.C,J1*%
X164471000Y-62610000D02*
X164471000Y-62300000D01*
X164471000Y-62300000D02*
X151601000Y-62300000D01*
X151601000Y-62300000D02*
X151601000Y-62610000D01*
X164471000Y-64130000D02*
X164471000Y-69890000D01*
X164471000Y-69890000D02*
X163051000Y-69890000D01*
X163051000Y-69890000D02*
X163051000Y-69390000D01*
X163051000Y-69390000D02*
X153021000Y-69390000D01*
X153021000Y-69390000D02*
X153021000Y-69890000D01*
X153021000Y-69890000D02*
X151601000Y-69890000D01*
X151601000Y-69890000D02*
X151601000Y-64130000D01*
D10*
%TO.C,J5*%
X137228500Y-59762000D02*
X142128500Y-59762000D01*
X137228500Y-71762000D02*
X137228500Y-59762000D01*
X142128500Y-71762000D02*
X137228500Y-71762000D01*
X142128500Y-68762000D02*
X142128500Y-71762000D01*
X141128500Y-68762000D02*
X142128500Y-68762000D01*
X141128500Y-62762000D02*
X141128500Y-68762000D01*
X142128500Y-62762000D02*
X141128500Y-62762000D01*
X142128500Y-59762000D02*
X142128500Y-62762000D01*
D11*
%TO.C,Q4*%
X149905000Y-67578500D02*
X149175000Y-67578500D01*
X149175000Y-67873500D02*
X149175000Y-67578500D01*
X146335000Y-67873500D02*
X149175000Y-67873500D01*
X146335000Y-67578500D02*
X146335000Y-67873500D01*
X146335000Y-64333500D02*
X146335000Y-64628500D01*
X149175000Y-64333500D02*
X146335000Y-64333500D01*
X149175000Y-64628500D02*
X149175000Y-64333500D01*
%TO.C,Q3*%
X166198000Y-63993500D02*
X166928000Y-63993500D01*
X166928000Y-63698500D02*
X166928000Y-63993500D01*
X169768000Y-63698500D02*
X166928000Y-63698500D01*
X169768000Y-63993500D02*
X169768000Y-63698500D01*
X169768000Y-67238500D02*
X169768000Y-66943500D01*
X166928000Y-67238500D02*
X169768000Y-67238500D01*
X166928000Y-66943500D02*
X166928000Y-67238500D01*
%TO.C,Q2*%
X149206500Y-81104000D02*
X148476500Y-81104000D01*
X148476500Y-81399000D02*
X148476500Y-81104000D01*
X145636500Y-81399000D02*
X148476500Y-81399000D01*
X145636500Y-81104000D02*
X145636500Y-81399000D01*
X145636500Y-77859000D02*
X145636500Y-78154000D01*
X148476500Y-77859000D02*
X145636500Y-77859000D01*
X148476500Y-78154000D02*
X148476500Y-77859000D01*
%TO.C,Q1*%
X165666000Y-77455500D02*
X166396000Y-77455500D01*
X166396000Y-77160500D02*
X166396000Y-77455500D01*
X169236000Y-77160500D02*
X166396000Y-77160500D01*
X169236000Y-77455500D02*
X169236000Y-77160500D01*
X169236000Y-80700500D02*
X169236000Y-80405500D01*
X166396000Y-80700500D02*
X169236000Y-80700500D01*
X166396000Y-80405500D02*
X166396000Y-80700500D01*
D10*
%TO.C,J4*%
X178112500Y-71810000D02*
X173212500Y-71810000D01*
X178112500Y-59810000D02*
X178112500Y-71810000D01*
X173212500Y-59810000D02*
X178112500Y-59810000D01*
X173212500Y-62810000D02*
X173212500Y-59810000D01*
X174212500Y-62810000D02*
X173212500Y-62810000D01*
X174212500Y-68810000D02*
X174212500Y-62810000D01*
X173212500Y-68810000D02*
X174212500Y-68810000D01*
X173212500Y-71810000D02*
X173212500Y-68810000D01*
%TO.C,J3*%
X137228500Y-73732000D02*
X142128500Y-73732000D01*
X137228500Y-85732000D02*
X137228500Y-73732000D01*
X142128500Y-85732000D02*
X137228500Y-85732000D01*
X142128500Y-82732000D02*
X142128500Y-85732000D01*
X141128500Y-82732000D02*
X142128500Y-82732000D01*
X141128500Y-76732000D02*
X141128500Y-82732000D01*
X142128500Y-76732000D02*
X141128500Y-76732000D01*
X142128500Y-73732000D02*
X142128500Y-76732000D01*
%TO.C,J2*%
X178239500Y-85335500D02*
X173339500Y-85335500D01*
X178239500Y-73335500D02*
X178239500Y-85335500D01*
X173339500Y-73335500D02*
X178239500Y-73335500D01*
X173339500Y-76335500D02*
X173339500Y-73335500D01*
X174339500Y-76335500D02*
X173339500Y-76335500D01*
X174339500Y-82335500D02*
X174339500Y-76335500D01*
X173339500Y-82335500D02*
X174339500Y-82335500D01*
X173339500Y-85335500D02*
X173339500Y-82335500D01*
D12*
%TO.C,D1*%
X172974000Y-80962500D02*
X172974000Y-77812900D01*
X170815000Y-77812900D02*
X170815000Y-80962500D01*
%TO.C,D2*%
X144526000Y-81127600D02*
X144526000Y-77978000D01*
X142367000Y-77978000D02*
X142367000Y-81127600D01*
%TO.C,D3*%
X173101000Y-67246500D02*
X173101000Y-64096900D01*
X170942000Y-64096900D02*
X170942000Y-67246500D01*
%TO.C,D4*%
X144780000Y-67411600D02*
X144780000Y-64262000D01*
X142621000Y-64262000D02*
X142621000Y-67411600D01*
%TO.C,R1*%
D10*
X160693833Y-74748380D02*
X160360500Y-74272190D01*
X160122404Y-74748380D02*
X160122404Y-73748380D01*
X160503357Y-73748380D01*
X160598595Y-73796000D01*
X160646214Y-73843619D01*
X160693833Y-73938857D01*
X160693833Y-74081714D01*
X160646214Y-74176952D01*
X160598595Y-74224571D01*
X160503357Y-74272190D01*
X160122404Y-74272190D01*
X161646214Y-74748380D02*
X161074785Y-74748380D01*
X161360500Y-74748380D02*
X161360500Y-73748380D01*
X161265261Y-73891238D01*
X161170023Y-73986476D01*
X161074785Y-74034095D01*
%TO.C,LED1*%
X155090952Y-74620380D02*
X154614761Y-74620380D01*
X154614761Y-73620380D01*
X155424285Y-74096571D02*
X155757619Y-74096571D01*
X155900476Y-74620380D02*
X155424285Y-74620380D01*
X155424285Y-73620380D01*
X155900476Y-73620380D01*
X156329047Y-74620380D02*
X156329047Y-73620380D01*
X156567142Y-73620380D01*
X156710000Y-73668000D01*
X156805238Y-73763238D01*
X156852857Y-73858476D01*
X156900476Y-74048952D01*
X156900476Y-74191809D01*
X156852857Y-74382285D01*
X156805238Y-74477523D01*
X156710000Y-74572761D01*
X156567142Y-74620380D01*
X156329047Y-74620380D01*
X157852857Y-74620380D02*
X157281428Y-74620380D01*
X157567142Y-74620380D02*
X157567142Y-73620380D01*
X157471904Y-73763238D01*
X157376666Y-73858476D01*
X157281428Y-73906095D01*
%TO.C,Q4*%
X147732761Y-69381619D02*
X147637523Y-69334000D01*
X147542285Y-69238761D01*
X147399428Y-69095904D01*
X147304190Y-69048285D01*
X147208952Y-69048285D01*
X147256571Y-69286380D02*
X147161333Y-69238761D01*
X147066095Y-69143523D01*
X147018476Y-68953047D01*
X147018476Y-68619714D01*
X147066095Y-68429238D01*
X147161333Y-68334000D01*
X147256571Y-68286380D01*
X147447047Y-68286380D01*
X147542285Y-68334000D01*
X147637523Y-68429238D01*
X147685142Y-68619714D01*
X147685142Y-68953047D01*
X147637523Y-69143523D01*
X147542285Y-69238761D01*
X147447047Y-69286380D01*
X147256571Y-69286380D01*
X148542285Y-68619714D02*
X148542285Y-69286380D01*
X148304190Y-68238761D02*
X148066095Y-68953047D01*
X148685142Y-68953047D01*
%TO.C,Q3*%
X168179761Y-68746619D02*
X168084523Y-68699000D01*
X167989285Y-68603761D01*
X167846428Y-68460904D01*
X167751190Y-68413285D01*
X167655952Y-68413285D01*
X167703571Y-68651380D02*
X167608333Y-68603761D01*
X167513095Y-68508523D01*
X167465476Y-68318047D01*
X167465476Y-67984714D01*
X167513095Y-67794238D01*
X167608333Y-67699000D01*
X167703571Y-67651380D01*
X167894047Y-67651380D01*
X167989285Y-67699000D01*
X168084523Y-67794238D01*
X168132142Y-67984714D01*
X168132142Y-68318047D01*
X168084523Y-68508523D01*
X167989285Y-68603761D01*
X167894047Y-68651380D01*
X167703571Y-68651380D01*
X168465476Y-67651380D02*
X169084523Y-67651380D01*
X168751190Y-68032333D01*
X168894047Y-68032333D01*
X168989285Y-68079952D01*
X169036904Y-68127571D01*
X169084523Y-68222809D01*
X169084523Y-68460904D01*
X169036904Y-68556142D01*
X168989285Y-68603761D01*
X168894047Y-68651380D01*
X168608333Y-68651380D01*
X168513095Y-68603761D01*
X168465476Y-68556142D01*
%TO.C,Q2*%
X147224761Y-77382619D02*
X147129523Y-77335000D01*
X147034285Y-77239761D01*
X146891428Y-77096904D01*
X146796190Y-77049285D01*
X146700952Y-77049285D01*
X146748571Y-77287380D02*
X146653333Y-77239761D01*
X146558095Y-77144523D01*
X146510476Y-76954047D01*
X146510476Y-76620714D01*
X146558095Y-76430238D01*
X146653333Y-76335000D01*
X146748571Y-76287380D01*
X146939047Y-76287380D01*
X147034285Y-76335000D01*
X147129523Y-76430238D01*
X147177142Y-76620714D01*
X147177142Y-76954047D01*
X147129523Y-77144523D01*
X147034285Y-77239761D01*
X146939047Y-77287380D01*
X146748571Y-77287380D01*
X147558095Y-76382619D02*
X147605714Y-76335000D01*
X147700952Y-76287380D01*
X147939047Y-76287380D01*
X148034285Y-76335000D01*
X148081904Y-76382619D01*
X148129523Y-76477857D01*
X148129523Y-76573095D01*
X148081904Y-76715952D01*
X147510476Y-77287380D01*
X148129523Y-77287380D01*
%TO.C,Q1*%
X167417761Y-76938119D02*
X167322523Y-76890500D01*
X167227285Y-76795261D01*
X167084428Y-76652404D01*
X166989190Y-76604785D01*
X166893952Y-76604785D01*
X166941571Y-76842880D02*
X166846333Y-76795261D01*
X166751095Y-76700023D01*
X166703476Y-76509547D01*
X166703476Y-76176214D01*
X166751095Y-75985738D01*
X166846333Y-75890500D01*
X166941571Y-75842880D01*
X167132047Y-75842880D01*
X167227285Y-75890500D01*
X167322523Y-75985738D01*
X167370142Y-76176214D01*
X167370142Y-76509547D01*
X167322523Y-76700023D01*
X167227285Y-76795261D01*
X167132047Y-76842880D01*
X166941571Y-76842880D01*
X168322523Y-76842880D02*
X167751095Y-76842880D01*
X168036809Y-76842880D02*
X168036809Y-75842880D01*
X167941571Y-75985738D01*
X167846333Y-76080976D01*
X167751095Y-76128595D01*
%TO.C,D1*%
X172346880Y-80125795D02*
X171346880Y-80125795D01*
X171346880Y-79887700D01*
X171394500Y-79744842D01*
X171489738Y-79649604D01*
X171584976Y-79601985D01*
X171775452Y-79554366D01*
X171918309Y-79554366D01*
X172108785Y-79601985D01*
X172204023Y-79649604D01*
X172299261Y-79744842D01*
X172346880Y-79887700D01*
X172346880Y-80125795D01*
X172346880Y-78601985D02*
X172346880Y-79173414D01*
X172346880Y-78887700D02*
X171346880Y-78887700D01*
X171489738Y-78982938D01*
X171584976Y-79078176D01*
X171632595Y-79173414D01*
X171346880Y-81927700D02*
X171584976Y-81927700D01*
X171489738Y-82165795D02*
X171584976Y-81927700D01*
X171489738Y-81689604D01*
X171775452Y-82070557D02*
X171584976Y-81927700D01*
X171775452Y-81784842D01*
%TO.C,D2*%
X143898880Y-80290895D02*
X142898880Y-80290895D01*
X142898880Y-80052800D01*
X142946500Y-79909942D01*
X143041738Y-79814704D01*
X143136976Y-79767085D01*
X143327452Y-79719466D01*
X143470309Y-79719466D01*
X143660785Y-79767085D01*
X143756023Y-79814704D01*
X143851261Y-79909942D01*
X143898880Y-80052800D01*
X143898880Y-80290895D01*
X142994119Y-79338514D02*
X142946500Y-79290895D01*
X142898880Y-79195657D01*
X142898880Y-78957561D01*
X142946500Y-78862323D01*
X142994119Y-78814704D01*
X143089357Y-78767085D01*
X143184595Y-78767085D01*
X143327452Y-78814704D01*
X143898880Y-79386133D01*
X143898880Y-78767085D01*
X142898880Y-77012800D02*
X143136976Y-77012800D01*
X143041738Y-77250895D02*
X143136976Y-77012800D01*
X143041738Y-76774704D01*
X143327452Y-77155657D02*
X143136976Y-77012800D01*
X143327452Y-76869942D01*
%TO.C,D3*%
X172473880Y-66409795D02*
X171473880Y-66409795D01*
X171473880Y-66171700D01*
X171521500Y-66028842D01*
X171616738Y-65933604D01*
X171711976Y-65885985D01*
X171902452Y-65838366D01*
X172045309Y-65838366D01*
X172235785Y-65885985D01*
X172331023Y-65933604D01*
X172426261Y-66028842D01*
X172473880Y-66171700D01*
X172473880Y-66409795D01*
X171473880Y-65505033D02*
X171473880Y-64885985D01*
X171854833Y-65219319D01*
X171854833Y-65076461D01*
X171902452Y-64981223D01*
X171950071Y-64933604D01*
X172045309Y-64885985D01*
X172283404Y-64885985D01*
X172378642Y-64933604D01*
X172426261Y-64981223D01*
X172473880Y-65076461D01*
X172473880Y-65362176D01*
X172426261Y-65457414D01*
X172378642Y-65505033D01*
X171473880Y-68211700D02*
X171711976Y-68211700D01*
X171616738Y-68449795D02*
X171711976Y-68211700D01*
X171616738Y-67973604D01*
X171902452Y-68354557D02*
X171711976Y-68211700D01*
X171902452Y-68068842D01*
%TO.C,D4*%
X144152880Y-66574895D02*
X143152880Y-66574895D01*
X143152880Y-66336800D01*
X143200500Y-66193942D01*
X143295738Y-66098704D01*
X143390976Y-66051085D01*
X143581452Y-66003466D01*
X143724309Y-66003466D01*
X143914785Y-66051085D01*
X144010023Y-66098704D01*
X144105261Y-66193942D01*
X144152880Y-66336800D01*
X144152880Y-66574895D01*
X143486214Y-65146323D02*
X144152880Y-65146323D01*
X143105261Y-65384419D02*
X143819547Y-65622514D01*
X143819547Y-65003466D01*
X143152880Y-63296800D02*
X143390976Y-63296800D01*
X143295738Y-63534895D02*
X143390976Y-63296800D01*
X143295738Y-63058704D01*
X143581452Y-63439657D02*
X143390976Y-63296800D01*
X143581452Y-63153942D01*
%TD*%
M02*
